<svg width="60" height="60" viewBox="0 0 60 60" fill="none" xmlns="http://www.w3.org/2000/svg">
<circle cx="30" cy="30" r="29" stroke="#EAE7F2" stroke-width="2"/>
<mask id="path-2-inside-1_1_4254" fill="white">
<path d="M30 0C37.1431 8.51805e-08 44.0518 2.54875 49.4834 7.18782C54.9151 11.8269 58.5132 18.2518 59.6306 25.307C60.7481 32.3621 59.3115 39.5845 55.5792 45.675C51.8469 51.7654 46.064 56.3244 39.2705 58.5317C32.477 60.739 25.1188 60.4499 18.5195 57.7164C11.9201 54.9828 6.51269 49.9843 3.2698 43.6197C0.0269051 37.2552 -0.83862 29.9424 0.828905 22.9966C2.49643 16.0509 6.58757 9.92809 12.3665 5.72948L13.5391 7.34347C8.14449 11.2629 4.32542 16.9785 2.76878 23.4624C1.21215 29.9462 2.02012 36.7727 5.04736 42.714C8.0746 48.6553 13.1224 53.3215 19.2829 55.8732C25.4434 58.425 32.3123 58.6949 38.654 56.6343C44.9957 54.5738 50.3941 50.318 53.8782 44.6326C57.3622 38.9471 58.7033 32.205 57.6602 25.6191C56.6171 19.0331 53.2582 13.0354 48.1878 8.70483C43.1173 4.37426 36.6681 1.995 30 1.995V0Z"/>
</mask>
<path d="M30 0C37.1431 8.51805e-08 44.0518 2.54875 49.4834 7.18782C54.9151 11.8269 58.5132 18.2518 59.6306 25.307C60.7481 32.3621 59.3115 39.5845 55.5792 45.675C51.8469 51.7654 46.064 56.3244 39.2705 58.5317C32.477 60.739 25.1188 60.4499 18.5195 57.7164C11.9201 54.9828 6.51269 49.9843 3.2698 43.6197C0.0269051 37.2552 -0.83862 29.9424 0.828905 22.9966C2.49643 16.0509 6.58757 9.92809 12.3665 5.72948L13.5391 7.34347C8.14449 11.2629 4.32542 16.9785 2.76878 23.4624C1.21215 29.9462 2.02012 36.7727 5.04736 42.714C8.0746 48.6553 13.1224 53.3215 19.2829 55.8732C25.4434 58.425 32.3123 58.6949 38.654 56.6343C44.9957 54.5738 50.3941 50.318 53.8782 44.6326C57.3622 38.9471 58.7033 32.205 57.6602 25.6191C56.6171 19.0331 53.2582 13.0354 48.1878 8.70483C43.1173 4.37426 36.6681 1.995 30 1.995V0Z" stroke="#966CEE" stroke-width="4" mask="url(#path-2-inside-1_1_4254)"/>
<path d="M20.0016 34.76H23.2016V26.28L20.0016 28.56V25.64L23.3816 23.24H26.2016V34.76H28.8016V37.24H20.0016V34.76Z" fill="#392B4B"/>
<path d="M35.5992 37.48C34.8392 37.48 34.1259 37.36 33.4592 37.12C32.8059 36.8667 32.2392 36.46 31.7592 35.9C31.2792 35.3267 30.8992 34.58 30.6192 33.66C30.3392 32.7267 30.1992 31.5867 30.1992 30.24V29.84C30.1992 28.5867 30.3392 27.5267 30.6192 26.66C30.8992 25.7933 31.2792 25.0933 31.7592 24.56C32.2392 24.0133 32.8059 23.62 33.4592 23.38C34.1259 23.1267 34.8392 23 35.5992 23C36.3592 23 37.0659 23.1267 37.7192 23.38C38.3859 23.62 38.9592 24.0133 39.4392 24.56C39.9192 25.0933 40.2992 25.7933 40.5792 26.66C40.8592 27.5267 40.9992 28.5867 40.9992 29.84V30.24C40.9992 31.5867 40.8592 32.7267 40.5792 33.66C40.2992 34.58 39.9192 35.3267 39.4392 35.9C38.9592 36.46 38.3859 36.8667 37.7192 37.12C37.0659 37.36 36.3592 37.48 35.5992 37.48ZM35.5992 34.96C35.9326 34.96 36.2459 34.8933 36.5392 34.76C36.8326 34.6267 37.0859 34.3867 37.2992 34.04C37.5259 33.68 37.6992 33.1933 37.8192 32.58C37.9392 31.9667 37.9992 31.1867 37.9992 30.24V29.84C37.9992 28.9867 37.9392 28.2867 37.8192 27.74C37.6992 27.18 37.5259 26.74 37.2992 26.42C37.0859 26.0867 36.8326 25.8533 36.5392 25.72C36.2459 25.5867 35.9326 25.52 35.5992 25.52C35.2526 25.52 34.9326 25.5867 34.6392 25.72C34.3592 25.8533 34.1059 26.0867 33.8792 26.42C33.6659 26.74 33.4992 27.18 33.3792 27.74C33.2592 28.2867 33.1992 28.9867 33.1992 29.84V30.24C33.1992 31.1867 33.2592 31.9667 33.3792 32.58C33.4992 33.1933 33.6659 33.68 33.8792 34.04C34.1059 34.3867 34.3592 34.6267 34.6392 34.76C34.9326 34.8933 35.2526 34.96 35.5992 34.96Z" fill="#392B4B"/>
</svg>
