<svg width="60" height="60" viewBox="0 0 60 60" fill="none" xmlns="http://www.w3.org/2000/svg">
<circle cx="30" cy="30" r="29" stroke="#EAE7F2" stroke-width="2"/>
<mask id="path-2-inside-1_1_4260" fill="white">
<path d="M60 30C60 46.5685 46.5685 60 30 60C13.4315 60 0 46.5685 0 30C0 13.4315 13.4315 0 30 0C46.5685 0 60 13.4315 60 30ZM1.944 30C1.944 45.4949 14.5051 58.056 30 58.056C45.4949 58.056 58.056 45.4949 58.056 30C58.056 14.5051 45.4949 1.944 30 1.944C14.5051 1.944 1.944 14.5051 1.944 30Z"/>
</mask>
<path d="M60 30C60 46.5685 46.5685 60 30 60C13.4315 60 0 46.5685 0 30C0 13.4315 13.4315 0 30 0C46.5685 0 60 13.4315 60 30ZM1.944 30C1.944 45.4949 14.5051 58.056 30 58.056C45.4949 58.056 58.056 45.4949 58.056 30C58.056 14.5051 45.4949 1.944 30 1.944C14.5051 1.944 1.944 14.5051 1.944 30Z" stroke="#966CEE" stroke-width="4" mask="url(#path-2-inside-1_1_4260)"/>
<path d="M21.0016 34.27H24.2016V25.79L21.0016 28.07V25.15L24.3816 22.75H27.2016V34.27H29.8016V36.75H21.0016V34.27Z" fill="#392B4B"/>
<path d="M31.0992 34.27H34.2992V25.79L31.0992 28.07V25.15L34.4792 22.75H37.2992V34.27H39.8992V36.75H31.0992V34.27Z" fill="#392B4B"/>
</svg>
