<svg width="60" height="60" viewBox="0 0 60 60" fill="none" xmlns="http://www.w3.org/2000/svg">
<circle cx="30" cy="30" r="29" stroke="#EAE7F2" stroke-width="2"/>
<mask id="path-2-inside-1_1_4203" fill="white">
<path d="M30 0C36.3354 7.55486e-08 42.5081 2.00565 47.6336 5.72949C52.759 9.45333 56.574 14.7042 58.5317 20.7295L56.6343 21.346C54.8068 15.7214 51.2455 10.8197 46.4609 7.34348C41.6763 3.86727 35.9141 1.995 30 1.995V0Z"/>
</mask>
<path d="M30 0C36.3354 7.55486e-08 42.5081 2.00565 47.6336 5.72949C52.759 9.45333 56.574 14.7042 58.5317 20.7295L56.6343 21.346C54.8068 15.7214 51.2455 10.8197 46.4609 7.34348C41.6763 3.86727 35.9141 1.995 30 1.995V0Z" stroke="#966CEE" stroke-width="4" mask="url(#path-2-inside-1_1_4203)"/>
<path d="M24.9984 35.06L29.8984 30.84C30.3517 30.44 30.7384 30.0933 31.0584 29.8C31.3784 29.4933 31.6384 29.2133 31.8384 28.96C32.0384 28.7067 32.1784 28.46 32.2584 28.22C32.3517 27.98 32.3984 27.72 32.3984 27.44C32.3984 26.8667 32.2384 26.4067 31.9184 26.06C31.5984 25.7 31.1251 25.52 30.4984 25.52C29.7784 25.52 29.2117 25.72 28.7984 26.12C28.3984 26.5067 28.1984 27.18 28.1984 28.14H25.1984C25.1984 26.5533 25.6451 25.3 26.5384 24.38C27.4451 23.46 28.7651 23 30.4984 23C31.3117 23 32.0184 23.1133 32.6184 23.34C33.2317 23.5533 33.7451 23.86 34.1584 24.26C34.5717 24.6467 34.8784 25.1133 35.0784 25.66C35.2917 26.2067 35.3984 26.8 35.3984 27.44C35.3984 27.92 35.3117 28.38 35.1384 28.82C34.9651 29.2467 34.7251 29.66 34.4184 30.06C34.1251 30.46 33.7784 30.8533 33.3784 31.24C32.9784 31.6133 32.5517 31.9867 32.0984 32.36L29.2184 34.76H35.5984V37.24H24.9984V35.06Z" fill="#392B4B"/>
</svg>
