<svg width="60" height="60" viewBox="0 0 60 60" fill="none" xmlns="http://www.w3.org/2000/svg">
<circle cx="30" cy="30" r="29" stroke="#EAE7F2" stroke-width="2"/>
<mask id="path-2-inside-1_1_4210" fill="white">
<path d="M30 0C34.7343 5.64561e-08 39.4014 1.12047 43.6197 3.2698C47.838 5.41914 51.4877 8.5363 54.2705 12.3664C57.0533 16.1966 58.89 20.6309 59.6306 25.307C60.3713 29.983 59.9947 34.7679 58.5317 39.2705L56.6343 38.654C58 34.4508 58.3516 29.9841 57.6602 25.619C56.9689 21.254 55.2542 17.1145 52.6565 13.5391C50.0588 9.96364 46.6518 7.05376 42.714 5.04736C38.7762 3.04096 34.4195 1.995 30 1.995L30 0Z"/>
</mask>
<path d="M30 0C34.7343 5.64561e-08 39.4014 1.12047 43.6197 3.2698C47.838 5.41914 51.4877 8.5363 54.2705 12.3664C57.0533 16.1966 58.89 20.6309 59.6306 25.307C60.3713 29.983 59.9947 34.7679 58.5317 39.2705L56.6343 38.654C58 34.4508 58.3516 29.9841 57.6602 25.619C56.9689 21.254 55.2542 17.1145 52.6565 13.5391C50.0588 9.96364 46.6518 7.05376 42.714 5.04736C38.7762 3.04096 34.4195 1.995 30 1.995L30 0Z" stroke="#966CEE" stroke-width="4" mask="url(#path-2-inside-1_1_4210)"/>
<path d="M30.2 37.48C28.4933 37.48 27.2 37.08 26.32 36.28C25.44 35.4667 25 34.3533 25 32.94H28C28 33.62 28.1733 34.1267 28.52 34.46C28.88 34.7933 29.44 34.96 30.2 34.96C30.9333 34.96 31.48 34.8 31.84 34.48C32.2133 34.1467 32.4 33.68 32.4 33.08C32.4 31.8267 31.6667 31.2 30.2 31.2H28.9V28.88H30.2C30.84 28.88 31.3333 28.7467 31.68 28.48C32.0267 28.2133 32.2 27.8 32.2 27.24C32.2 26.7333 32.0333 26.32 31.7 26C31.3667 25.68 30.8667 25.52 30.2 25.52C29.52 25.52 29.0133 25.68 28.68 26C28.36 26.3067 28.2 26.7533 28.2 27.34H25.2C25.2 25.9667 25.6133 24.9 26.44 24.14C27.28 23.38 28.5333 23 30.2 23C31.04 23 31.7733 23.1 32.4 23.3C33.0267 23.4867 33.5467 23.7533 33.96 24.1C34.3733 24.4333 34.68 24.8333 34.88 25.3C35.0933 25.7667 35.2 26.2733 35.2 26.82C35.2 27.5933 34.98 28.2533 34.54 28.8C34.1133 29.3333 33.54 29.7133 32.82 29.94C33.6467 30.1667 34.28 30.56 34.72 31.12C35.1733 31.68 35.4 32.42 35.4 33.34C35.4 33.94 35.28 34.4933 35.04 35C34.8 35.5067 34.4533 35.9467 34 36.32C33.56 36.68 33.0133 36.9667 32.36 37.18C31.72 37.38 31 37.48 30.2 37.48Z" fill="#392B4B"/>
</svg>
