<svg width="60" height="60" viewBox="0 0 60 60" fill="none" xmlns="http://www.w3.org/2000/svg">
<circle cx="30" cy="30" r="29" stroke="#EAE7F2" stroke-width="2"/>
<mask id="path-2-inside-1_1_4216" fill="white">
<path d="M30 0C36.3354 7.55486e-08 42.5081 2.00565 47.6336 5.72949C52.759 9.45333 56.574 14.7042 58.5317 20.7295C60.4894 26.7548 60.4894 33.2452 58.5317 39.2705C56.574 45.2958 52.759 50.5467 47.6336 54.2705L46.4609 52.6565C51.2455 49.1803 54.8068 44.2786 56.6343 38.654C58.4619 33.0294 58.4619 26.9706 56.6343 21.346C54.8068 15.7214 51.2455 10.8197 46.4609 7.34348C41.6763 3.86727 35.9141 1.995 30 1.995V0Z"/>
</mask>
<path d="M30 0C36.3354 7.55486e-08 42.5081 2.00565 47.6336 5.72949C52.759 9.45333 56.574 14.7042 58.5317 20.7295C60.4894 26.7548 60.4894 33.2452 58.5317 39.2705C56.574 45.2958 52.759 50.5467 47.6336 54.2705L46.4609 52.6565C51.2455 49.1803 54.8068 44.2786 56.6343 38.654C58.4619 33.0294 58.4619 26.9706 56.6343 21.346C54.8068 15.7214 51.2455 10.8197 46.4609 7.34348C41.6763 3.86727 35.9141 1.995 30 1.995V0Z" stroke="#966CEE" stroke-width="4" mask="url(#path-2-inside-1_1_4216)"/>
<path d="M30.5996 34.04H23.9996V31.96L30.5996 23H33.5996V31.56H35.1996V34.04H33.5996V37H30.5996V34.04ZM30.5996 31.56V26.34L26.7996 31.56H30.5996Z" fill="#392B4B"/>
</svg>
