<svg width="60" height="60" viewBox="0 0 60 60" fill="none" xmlns="http://www.w3.org/2000/svg">
<circle cx="30" cy="30" r="29" stroke="#EAE7F2" stroke-width="2"/>
<mask id="path-2-inside-1_1_4222" fill="white">
<path d="M30 0C33.9397 4.69799e-08 37.8407 0.775973 41.4805 2.28361C45.1203 3.79126 48.4274 6.00104 51.2132 8.7868C53.999 11.5726 56.2087 14.8797 57.7164 18.5195C59.224 22.1593 60 26.0603 60 30C60 33.9397 59.224 37.8407 57.7164 41.4805C56.2087 45.1203 53.999 48.4275 51.2132 51.2132C48.4274 53.999 45.1203 56.2087 41.4805 57.7164C37.8407 59.224 33.9396 60 30 60V58.005C33.6777 58.005 37.3193 57.2806 40.717 55.8732C44.1148 54.4659 47.202 52.403 49.8025 49.8025C52.403 47.202 54.4659 44.1148 55.8732 40.7171C57.2806 37.3193 58.005 33.6777 58.005 30C58.005 26.3223 57.2806 22.6807 55.8732 19.283C54.4659 15.8852 52.403 12.798 49.8025 10.1975C47.202 7.59697 44.1148 5.53414 40.7171 4.12676C37.3193 2.71937 33.6777 1.995 30 1.995V0Z"/>
</mask>
<path d="M30 0C33.9397 4.69799e-08 37.8407 0.775973 41.4805 2.28361C45.1203 3.79126 48.4274 6.00104 51.2132 8.7868C53.999 11.5726 56.2087 14.8797 57.7164 18.5195C59.224 22.1593 60 26.0603 60 30C60 33.9397 59.224 37.8407 57.7164 41.4805C56.2087 45.1203 53.999 48.4275 51.2132 51.2132C48.4274 53.999 45.1203 56.2087 41.4805 57.7164C37.8407 59.224 33.9396 60 30 60V58.005C33.6777 58.005 37.3193 57.2806 40.717 55.8732C44.1148 54.4659 47.202 52.403 49.8025 49.8025C52.403 47.202 54.4659 44.1148 55.8732 40.7171C57.2806 37.3193 58.005 33.6777 58.005 30C58.005 26.3223 57.2806 22.6807 55.8732 19.283C54.4659 15.8852 52.403 12.798 49.8025 10.1975C47.202 7.59697 44.1148 5.53414 40.7171 4.12676C37.3193 2.71937 33.6777 1.995 30 1.995V0Z" stroke="#966CEE" stroke-width="4" mask="url(#path-2-inside-1_1_4222)"/>
<path d="M30 37.24C29.1067 37.24 28.3467 37.1267 27.72 36.9C27.1067 36.6733 26.6 36.3733 26.2 36C25.8 35.6133 25.5 35.1733 25.3 34.68C25.1133 34.1733 25.0133 33.6467 25 33.1H28C28.04 33.58 28.22 33.9733 28.54 34.28C28.8733 34.5733 29.36 34.72 30 34.72C31.4667 34.72 32.2 33.8933 32.2 32.24C32.2 31.8 32.14 31.4267 32.02 31.12C31.9 30.8133 31.74 30.5667 31.54 30.38C31.34 30.1933 31.1067 30.06 30.84 29.98C30.5733 29.8867 30.2933 29.84 30 29.84C29.5333 29.84 29.1467 29.9267 28.84 30.1C28.5333 30.2733 28.2867 30.5067 28.1 30.8H25.3V23H34.42V25.48H28.3V28.04C28.58 27.7867 28.92 27.6067 29.32 27.5C29.7333 27.38 30.1933 27.32 30.7 27.32C31.38 27.32 31.9933 27.4267 32.54 27.64C33.1 27.84 33.5733 28.1467 33.96 28.56C34.36 28.9733 34.6667 29.4867 34.88 30.1C35.0933 30.7133 35.2 31.42 35.2 32.22C35.2 32.98 35.0733 33.6733 34.82 34.3C34.58 34.9133 34.2333 35.44 33.78 35.88C33.3267 36.32 32.78 36.66 32.14 36.9C31.5 37.1267 30.7867 37.24 30 37.24Z" fill="#392B4B"/>
</svg>
