<svg width="60" height="60" viewBox="0 0 60 60" fill="none" xmlns="http://www.w3.org/2000/svg">
<circle cx="30" cy="30" r="29" stroke="#EAE7F2" stroke-width="2"/>
<mask id="path-2-inside-1_1_4228" fill="white">
<path d="M30 0C34.7343 5.64561e-08 39.4014 1.12047 43.6197 3.2698C47.838 5.41914 51.4878 8.5363 54.2705 12.3664C57.0533 16.1966 58.89 20.6309 59.6306 25.307C60.3713 29.983 59.9947 34.7679 58.5317 39.2705C57.0687 43.7731 54.5609 47.8655 51.2132 51.2132C47.8655 54.5609 43.7731 57.0687 39.2705 58.5317C34.7679 59.9947 29.983 60.3713 25.307 59.6307C20.631 58.89 16.1966 57.0533 12.3665 54.2705L13.5391 52.6565C17.1145 55.2542 21.254 56.9689 25.6191 57.6602C29.9841 58.3516 34.4509 58 38.654 56.6343C42.8572 55.2686 46.6775 52.9276 49.8025 49.8025C52.9276 46.6775 55.2686 42.8572 56.6343 38.654C58 34.4508 58.3516 29.9841 57.6602 25.619C56.9689 21.254 55.2542 17.1145 52.6565 13.5391C50.0588 9.96364 46.6518 7.05376 42.714 5.04736C38.7762 3.04096 34.4195 1.995 30 1.995V0Z"/>
</mask>
<path d="M30 0C34.7343 5.64561e-08 39.4014 1.12047 43.6197 3.2698C47.838 5.41914 51.4878 8.5363 54.2705 12.3664C57.0533 16.1966 58.89 20.6309 59.6306 25.307C60.3713 29.983 59.9947 34.7679 58.5317 39.2705C57.0687 43.7731 54.5609 47.8655 51.2132 51.2132C47.8655 54.5609 43.7731 57.0687 39.2705 58.5317C34.7679 59.9947 29.983 60.3713 25.307 59.6307C20.631 58.89 16.1966 57.0533 12.3665 54.2705L13.5391 52.6565C17.1145 55.2542 21.254 56.9689 25.6191 57.6602C29.9841 58.3516 34.4509 58 38.654 56.6343C42.8572 55.2686 46.6775 52.9276 49.8025 49.8025C52.9276 46.6775 55.2686 42.8572 56.6343 38.654C58 34.4508 58.3516 29.9841 57.6602 25.619C56.9689 21.254 55.2542 17.1145 52.6565 13.5391C50.0588 9.96364 46.6518 7.05376 42.714 5.04736C38.7762 3.04096 34.4195 1.995 30 1.995V0Z" stroke="#966CEE" stroke-width="4" mask="url(#path-2-inside-1_1_4228)"/>
<path d="M30.5 37.48C29.62 37.48 28.84 37.3533 28.16 37.1C27.48 36.8467 26.9067 36.4533 26.44 35.92C25.9733 35.3733 25.6133 34.68 25.36 33.84C25.12 33 25 32 25 30.84V30.44C25 29.1067 25.14 27.9733 25.42 27.04C25.7 26.0933 26.0933 25.32 26.6 24.72C27.1067 24.12 27.7067 23.6867 28.4 23.42C29.1067 23.14 29.8733 23 30.7 23C31.9933 23 33.04 23.2733 33.84 23.82C34.64 24.3667 35.1267 25.2733 35.3 26.54H32.5C32.2333 25.86 31.6 25.52 30.6 25.52C30.2133 25.52 29.8533 25.58 29.52 25.7C29.2 25.8067 28.9133 26.0133 28.66 26.32C28.42 26.6133 28.2267 27.02 28.08 27.54C27.9333 28.06 27.84 28.7267 27.8 29.54C27.9733 29.2733 28.1867 29.0533 28.44 28.88C28.6933 28.6933 28.9667 28.5467 29.26 28.44C29.5667 28.32 29.88 28.2333 30.2 28.18C30.5333 28.1267 30.8667 28.1 31.2 28.1C32.6133 28.1 33.7 28.4867 34.46 29.26C35.22 30.02 35.6 31.1 35.6 32.5V32.72C35.6 33.4267 35.4733 34.0733 35.22 34.66C34.9667 35.2467 34.6133 35.7533 34.16 36.18C33.72 36.5933 33.1867 36.9133 32.56 37.14C31.9333 37.3667 31.2467 37.48 30.5 37.48ZM30.3 34.96C31.02 34.96 31.58 34.76 31.98 34.36C32.3933 33.9467 32.6 33.42 32.6 32.78V32.58C32.6 31.94 32.3933 31.42 31.98 31.02C31.58 30.62 31.02 30.42 30.3 30.42C29.58 30.42 29.0133 30.62 28.6 31.02C28.2 31.42 28 31.94 28 32.58V32.78C28 33.42 28.2 33.9467 28.6 34.36C29.0133 34.76 29.58 34.96 30.3 34.96Z" fill="#392B4B"/>
</svg>
