<svg width="60" height="60" viewBox="0 0 60 60" fill="none" xmlns="http://www.w3.org/2000/svg">
<circle cx="30" cy="30" r="29" stroke="#EAE7F2" stroke-width="2"/>
<mask id="path-2-inside-1_1_4234" fill="white">
<path d="M30 0C35.133 6.12103e-08 40.1801 1.31703 44.6586 3.82512C49.1371 6.33321 52.8972 9.94845 55.5792 14.325C58.2612 18.7016 59.7753 23.6932 59.9769 28.8222C60.1784 33.9512 59.0605 39.0462 56.7302 43.6197C54.3999 48.1932 50.935 52.0924 46.6671 54.9441C42.3992 57.7958 37.4709 59.5048 32.3538 59.9075C27.2366 60.3102 22.1017 59.3933 17.4402 57.2443C12.7787 55.0953 8.74659 51.7862 5.72949 47.6336L7.34348 46.4609C10.1599 50.3375 13.9239 53.4265 18.2754 55.4326C22.6269 57.4386 27.4204 58.2946 32.1973 57.9187C36.9741 57.5427 41.5746 55.9474 45.5587 53.2853C49.5429 50.6232 52.7773 46.9834 54.9526 42.714C57.128 38.4446 58.1715 33.6885 57.9834 28.9005C57.7953 24.1126 56.3818 19.453 53.8782 15.3674C51.3746 11.2819 47.8645 7.90705 43.6838 5.56575C39.5031 3.22445 34.7916 1.995 30 1.995V0Z"/>
</mask>
<path d="M30 0C35.133 6.12103e-08 40.1801 1.31703 44.6586 3.82512C49.1371 6.33321 52.8972 9.94845 55.5792 14.325C58.2612 18.7016 59.7753 23.6932 59.9769 28.8222C60.1784 33.9512 59.0605 39.0462 56.7302 43.6197C54.3999 48.1932 50.935 52.0924 46.6671 54.9441C42.3992 57.7958 37.4709 59.5048 32.3538 59.9075C27.2366 60.3102 22.1017 59.3933 17.4402 57.2443C12.7787 55.0953 8.74659 51.7862 5.72949 47.6336L7.34348 46.4609C10.1599 50.3375 13.9239 53.4265 18.2754 55.4326C22.6269 57.4386 27.4204 58.2946 32.1973 57.9187C36.9741 57.5427 41.5746 55.9474 45.5587 53.2853C49.5429 50.6232 52.7773 46.9834 54.9526 42.714C57.128 38.4446 58.1715 33.6885 57.9834 28.9005C57.7953 24.1126 56.3818 19.453 53.8782 15.3674C51.3746 11.2819 47.8645 7.90705 43.6838 5.56575C39.5031 3.22445 34.7916 1.995 30 1.995V0Z" stroke="#966CEE" stroke-width="4" mask="url(#path-2-inside-1_1_4234)"/>
<path d="M31.7196 25.48H24.9996V23H34.7996V25.18L30.1996 37H26.9996L31.7196 25.48Z" fill="#392B4B"/>
</svg>
