<svg width="60" height="60" viewBox="0 0 60 60" fill="none" xmlns="http://www.w3.org/2000/svg">
<circle cx="30" cy="30" r="29" stroke="#EAE7F2" stroke-width="2"/>
<mask id="path-2-inside-1_1_4240" fill="white">
<path d="M30 0C35.5327 6.59764e-08 40.9576 1.52998 45.675 4.42079C50.3923 7.31161 54.2184 11.4506 56.7302 16.3803C59.242 21.3099 60.3416 26.8382 59.9075 32.3538C59.4734 37.8694 57.5225 43.1575 54.2705 47.6336C51.0185 52.1096 46.592 55.5991 41.4805 57.7164C36.369 59.8336 30.7715 60.4962 25.307 59.6306C19.8424 58.7652 14.7236 56.4054 10.5166 52.8122C6.30948 49.219 3.178 44.5324 1.46831 39.2705L3.36566 38.654C4.96166 43.566 7.8849 47.9409 11.8122 51.2952C15.7395 54.6494 20.5179 56.8523 25.6191 57.6602C30.7202 58.4682 35.9454 57.8497 40.7171 55.8732C45.4887 53.8968 49.6208 50.6393 52.6565 46.4609C55.6923 42.2826 57.5134 37.3461 57.9187 32.1972C58.3239 27.0484 57.2974 21.8878 54.9526 17.286C52.6079 12.6842 49.0362 8.82039 44.6326 6.12181C40.2289 3.42324 35.1647 1.995 30 1.995V0Z"/>
</mask>
<path d="M30 0C35.5327 6.59764e-08 40.9576 1.52998 45.675 4.42079C50.3923 7.31161 54.2184 11.4506 56.7302 16.3803C59.242 21.3099 60.3416 26.8382 59.9075 32.3538C59.4734 37.8694 57.5225 43.1575 54.2705 47.6336C51.0185 52.1096 46.592 55.5991 41.4805 57.7164C36.369 59.8336 30.7715 60.4962 25.307 59.6306C19.8424 58.7652 14.7236 56.4054 10.5166 52.8122C6.30948 49.219 3.178 44.5324 1.46831 39.2705L3.36566 38.654C4.96166 43.566 7.8849 47.9409 11.8122 51.2952C15.7395 54.6494 20.5179 56.8523 25.6191 57.6602C30.7202 58.4682 35.9454 57.8497 40.7171 55.8732C45.4887 53.8968 49.6208 50.6393 52.6565 46.4609C55.6923 42.2826 57.5134 37.3461 57.9187 32.1972C58.3239 27.0484 57.2974 21.8878 54.9526 17.286C52.6079 12.6842 49.0362 8.82039 44.6326 6.12181C40.2289 3.42324 35.1647 1.995 30 1.995V0Z" stroke="#966CEE" stroke-width="4" mask="url(#path-2-inside-1_1_4240)"/>
<path d="M30.3996 37.23C29.5596 37.23 28.7996 37.1367 28.1196 36.95C27.453 36.75 26.8863 36.4767 26.4196 36.13C25.9663 35.77 25.613 35.3433 25.3596 34.85C25.1196 34.3433 24.9996 33.7833 24.9996 33.17C24.9996 32.3833 25.2396 31.6833 25.7196 31.07C26.1996 30.4433 26.913 30.0033 27.8596 29.75C27.153 29.5233 26.5663 29.13 26.0996 28.57C25.633 28.01 25.3996 27.3433 25.3996 26.57C25.3996 26.01 25.5063 25.4967 25.7196 25.03C25.9463 24.5633 26.273 24.1633 26.6996 23.83C27.1263 23.4833 27.6463 23.2167 28.2596 23.03C28.8863 22.8433 29.5996 22.75 30.3996 22.75C31.1996 22.75 31.9063 22.8433 32.5196 23.03C33.1463 23.2167 33.673 23.4833 34.0996 23.83C34.5396 24.1633 34.8663 24.5633 35.0796 25.03C35.3063 25.4967 35.4196 26.01 35.4196 26.57C35.4196 27.3433 35.1863 28.0033 34.7196 28.55C34.253 29.0833 33.6596 29.4833 32.9396 29.75C34.8463 30.3367 35.7996 31.4767 35.7996 33.17C35.7996 33.7833 35.673 34.3433 35.4196 34.85C35.1796 35.3433 34.8263 35.77 34.3596 36.13C33.9063 36.4767 33.3463 36.75 32.6796 36.95C32.013 37.1367 31.253 37.23 30.3996 37.23ZM30.3996 34.71C31.2263 34.71 31.833 34.55 32.2196 34.23C32.6063 33.91 32.7996 33.4767 32.7996 32.93C32.7996 32.33 32.573 31.8567 32.1196 31.51C31.6796 31.15 31.1063 30.9167 30.3996 30.81C29.693 30.9167 29.113 31.15 28.6596 31.51C28.2196 31.8567 27.9996 32.33 27.9996 32.93C27.9996 33.4767 28.1996 33.91 28.5996 34.23C28.9996 34.55 29.5996 34.71 30.3996 34.71ZM30.3996 28.77C30.9996 28.6633 31.4863 28.4567 31.8596 28.15C32.233 27.83 32.4196 27.39 32.4196 26.83C32.4196 26.31 32.2396 25.9233 31.8796 25.67C31.533 25.4033 31.0396 25.27 30.3996 25.27C29.773 25.27 29.2796 25.4033 28.9196 25.67C28.573 25.9233 28.3996 26.31 28.3996 26.83C28.3996 27.39 28.5796 27.83 28.9396 28.15C29.313 28.4567 29.7996 28.6633 30.3996 28.77Z" fill="#392B4B"/>
</svg>
