<svg width="60" height="60" viewBox="0 0 60 60" fill="none" xmlns="http://www.w3.org/2000/svg">
<circle cx="30" cy="30" r="29" stroke="#EAE7F2" stroke-width="2"/>
<mask id="path-2-inside-1_1_4248" fill="white">
<path d="M30 0C36.3354 7.55486e-08 42.5081 2.00565 47.6336 5.72949C52.759 9.45333 56.574 14.7042 58.5317 20.7295C60.4894 26.7548 60.4894 33.2452 58.5317 39.2705C56.574 45.2958 52.759 50.5467 47.6336 54.2705C42.5081 57.9944 36.3354 60 30 60C23.6646 60 17.4919 57.9944 12.3664 54.2705C7.24101 50.5467 3.42604 45.2958 1.4683 39.2705C-0.489435 33.2452 -0.489434 26.7548 1.46831 20.7295L3.36552 21.3459C1.53796 26.9706 1.53796 33.0294 3.36552 38.6541C5.19308 44.2787 8.75437 49.1804 13.539 52.6566C18.3236 56.1329 24.0859 58.0051 30 58.0051C35.9141 58.0051 41.6764 56.1329 46.461 52.6566C51.2456 49.1804 54.8069 44.2787 56.6345 38.6541C58.462 33.0294 58.462 26.9706 56.6345 21.3459C54.8069 15.7213 51.2456 10.8196 46.461 7.34336C41.6764 3.86714 35.9141 1.99485 30 1.99485V0Z"/>
</mask>
<path d="M30 0C36.3354 7.55486e-08 42.5081 2.00565 47.6336 5.72949C52.759 9.45333 56.574 14.7042 58.5317 20.7295C60.4894 26.7548 60.4894 33.2452 58.5317 39.2705C56.574 45.2958 52.759 50.5467 47.6336 54.2705C42.5081 57.9944 36.3354 60 30 60C23.6646 60 17.4919 57.9944 12.3664 54.2705C7.24101 50.5467 3.42604 45.2958 1.4683 39.2705C-0.489435 33.2452 -0.489434 26.7548 1.46831 20.7295L3.36552 21.3459C1.53796 26.9706 1.53796 33.0294 3.36552 38.6541C5.19308 44.2787 8.75437 49.1804 13.539 52.6566C18.3236 56.1329 24.0859 58.0051 30 58.0051C35.9141 58.0051 41.6764 56.1329 46.461 52.6566C51.2456 49.1804 54.8069 44.2787 56.6345 38.6541C58.462 33.0294 58.462 26.9706 56.6345 21.3459C54.8069 15.7213 51.2456 10.8196 46.461 7.34336C41.6764 3.86714 35.9141 1.99485 30 1.99485V0Z" stroke="#966CEE" stroke-width="4" mask="url(#path-2-inside-1_1_4248)"/>
<path d="M30.0016 37.48C28.6683 37.48 27.5949 37.1933 26.7816 36.62C25.9683 36.0467 25.4749 35.1533 25.3016 33.94H28.1016C28.2349 34.2867 28.4483 34.5467 28.7416 34.72C29.0483 34.88 29.5016 34.96 30.1016 34.96C30.4616 34.96 30.7949 34.9067 31.1016 34.8C31.4216 34.68 31.7016 34.4733 31.9416 34.18C32.1816 33.8733 32.3749 33.46 32.5216 32.94C32.6683 32.42 32.7616 31.7533 32.8016 30.94C32.6283 31.2067 32.4149 31.4333 32.1616 31.62C31.9083 31.7933 31.6283 31.94 31.3216 32.06C31.0283 32.1667 30.7149 32.2467 30.3816 32.3C30.0616 32.3533 29.7349 32.38 29.4016 32.38C27.9883 32.38 26.9016 32 26.1416 31.24C25.3816 30.4667 25.0016 29.38 25.0016 27.98V27.76C25.0016 27.0533 25.1283 26.4067 25.3816 25.82C25.6349 25.2333 25.9816 24.7333 26.4216 24.32C26.8749 23.8933 27.4149 23.5667 28.0416 23.34C28.6683 23.1133 29.3549 23 30.1016 23C31.8749 23 33.2349 23.52 34.1816 24.56C35.1283 25.6 35.6016 27.2933 35.6016 29.64V30.02C35.6016 31.3667 35.4616 32.5133 35.1816 33.46C34.9016 34.3933 34.5083 35.16 34.0016 35.76C33.5083 36.36 32.9149 36.8 32.2216 37.08C31.5416 37.3467 30.8016 37.48 30.0016 37.48ZM30.3016 30.06C31.0216 30.06 31.5816 29.86 31.9816 29.46C32.3949 29.06 32.6016 28.54 32.6016 27.9V27.7C32.6016 27.0733 32.3883 26.5533 31.9616 26.14C31.5483 25.7267 30.9949 25.52 30.3016 25.52C29.5816 25.52 29.0149 25.7267 28.6016 26.14C28.2016 26.54 28.0016 27.06 28.0016 27.7V27.9C28.0016 28.54 28.2016 29.06 28.6016 29.46C29.0149 29.86 29.5816 30.06 30.3016 30.06Z" fill="#392B4B"/>
</svg>
