<svg width="251" height="251" viewBox="0 0 251 251" fill="none" xmlns="http://www.w3.org/2000/svg">
<rect x="89.3711" y="104.583" width="154.023" height="135.008" rx="7.63636" fill="#FCE057"/>
<path d="M209.494 254.558V244.676L182.813 223.331L139.332 181.827L102.77 196.65C102.77 196.65 116.419 237.687 127.474 258.906C148.694 299.633 209.494 254.558 209.494 254.558Z" fill="white"/>
<path d="M176.419 104.808C180.289 104.808 184.132 104.808 188.001 104.808C184.132 104.808 180.289 104.808 176.419 104.808ZM114.228 191.291C114.072 191.291 113.916 191.265 113.76 191.265C113.916 191.265 114.072 191.265 114.228 191.291ZM106.386 200.078C106.515 200.465 106.645 200.852 106.775 201.264C106.645 200.852 106.515 200.465 106.386 200.078ZM88.4941 174.592C88.5201 173.484 88.5461 172.35 88.5461 171.242C88.5461 172.35 88.5201 173.458 88.4941 174.592Z" fill="#FEFEFE"/>
<path d="M120.125 245.047C102.389 245.022 84.6538 245.022 66.9181 245.047C66.0612 245.047 65.6716 244.712 65.4379 243.965C60.9716 230.436 56.4792 216.933 52.0128 203.404C49.1564 194.822 46.352 186.215 43.4956 177.608C43.4177 177.402 43.3398 177.196 43.2878 176.99C43.0541 176.268 42.6646 175.675 41.8077 175.959C40.9767 176.242 41.1066 176.964 41.2883 177.582C42.1712 180.314 43.0541 183.045 43.963 185.777C46.8453 194.461 49.7277 203.12 52.5841 211.804C56.1157 222.447 59.5953 233.065 63.1788 243.682C63.5683 244.841 63.3086 245.151 62.1661 244.996C62.0362 244.97 61.9064 244.97 61.7766 244.996C59.2318 245.511 57.3881 244.352 55.7781 242.574C55.3626 242.11 55.051 241.672 54.8433 241.079C50.273 227.137 45.6768 213.196 41.1066 199.255C38.38 190.931 35.6015 182.633 32.8749 174.309C32.7191 173.82 32.4854 173.356 32.6412 172.815V172.789C32.7711 172.841 32.9269 172.841 33.0048 172.918C34.3031 174.722 36.1728 174.619 38.0944 174.619C54.3239 174.593 70.5795 174.593 86.809 174.593C87.3803 174.593 87.9256 174.567 88.4969 174.541C91.1196 174.567 93.7423 174.619 96.365 174.567C97.3518 174.541 97.8192 174.902 98.1308 175.83C98.3385 176.474 98.2347 177.325 99.0396 177.685C99.0656 179.463 99.6888 181.061 100.572 182.556C101.221 185.597 102.26 188.509 103.506 191.369C103.636 192.529 103.947 193.611 104.519 194.642C104.649 195.209 104.726 195.776 105.09 196.24C105.246 197.245 105.506 198.198 105.921 199.126C106.051 199.435 106.207 199.744 106.362 200.028C106.492 200.414 106.622 200.801 106.752 201.213C106.882 201.6 107.012 201.986 107.141 202.399C107.401 203.197 107.635 203.97 107.895 204.744C108.388 206.316 108.907 207.887 109.427 209.459C113.27 220.901 117.113 232.317 121.008 243.733C121.346 244.712 121.216 245.047 120.125 245.047Z" fill="#F66667"/>
<path d="M228.667 155.781C226.668 147.123 221.838 140.809 213.45 137.382C208.361 135.294 203.011 134.315 197.584 133.748C191.248 133.104 184.886 133.052 178.55 133.155C177.901 133.155 177.408 133.155 177.304 132.305C176.369 124.806 175.382 117.333 174.421 109.834C174.369 109.421 174.266 108.983 174.551 108.597C175.382 107.437 175.824 106.097 176.421 104.809C177.044 101.768 177.459 98.7012 177.07 95.6089C176.966 94.6812 177.252 94.2688 178.083 93.8823C182.783 91.6661 186.808 88.651 189.586 84.1671C191.612 80.8943 192.495 77.3381 191.274 73.5757C189.742 68.8598 186.886 65.3809 181.562 64.7109C178.394 64.3244 175.486 65.3036 172.785 66.9013C171.851 67.4683 171.331 67.4683 170.578 66.5663C165.566 60.6393 159.334 56.31 152.115 53.398C148.039 51.7487 143.832 50.6148 139.339 51.156C137.366 51.3879 135.704 52.2383 134.302 53.6041C133.211 54.6607 133.185 56.0007 133.471 57.4696C133.055 57.315 132.822 57.2377 132.562 57.1604C128.771 55.9492 124.928 54.9442 120.877 55.3307C116.774 55.7173 114.073 58.6035 114.073 62.7009C114.073 66.0509 116.021 68.3702 118.384 70.4318C118.825 70.8183 119.137 71.076 118.877 71.7976C117.994 74.1684 118.67 76.2558 120.228 78.137C121.526 79.6831 123.24 80.7397 125.083 81.487C126.122 81.8993 126.771 82.389 126.641 83.5744C127.576 84.0898 129.134 83.8578 129.784 83.059C130.199 82.5436 130.225 81.9251 129.758 81.5643C129.056 81.0232 129.212 80.4047 129.368 79.7347C130.9 72.4161 135.574 68.0867 143.131 67.056C149.129 66.2313 154.946 67.1075 160.633 68.9887C161.671 69.3237 162.087 69.9164 162.295 70.973C163.671 77.905 165.125 84.8371 165.644 91.9238C165.826 94.3204 165.852 96.7427 165.229 99.0878C164.502 101.871 163.022 103.005 160.113 103.031C157.465 103.031 154.868 102.464 152.297 101.922C149.103 101.252 145.883 100.892 142.637 101.098C141.806 101.149 141.261 100.892 140.716 100.351C138.898 98.5982 138.197 96.4077 138.093 93.9596C138.015 91.6661 138.457 89.4241 138.898 87.2079C139.028 86.5637 139.391 86.3833 140.015 86.4864C140.43 86.5637 140.872 86.6152 141.287 86.6668C142.196 86.7698 142.611 87.1822 142.793 88.1872C143.624 92.4392 146.792 94.5523 150.895 93.7792C154.686 93.0577 157.595 88.9345 156.945 85.2236C156.815 84.5794 156.478 84.1929 155.829 84.2186C155.154 84.2444 154.816 84.6309 154.842 85.301C154.868 86.0741 154.79 86.8471 154.634 87.5945C153.959 90.4807 151.336 92.2073 148.402 91.7176C146.61 91.4084 145.286 89.888 144.871 87.7233C144.403 85.1979 144.195 84.9917 141.599 84.5279C139.703 84.1929 139.703 84.1929 140.3 82.3117C140.43 81.8993 140.56 81.487 140.638 81.0747C140.742 80.5078 140.56 80.0182 139.963 79.8378C139.34 79.6316 138.846 79.8893 138.612 80.5078C138.457 80.8943 138.327 81.3324 138.223 81.7447C137.704 83.9094 136.275 85.7906 136.327 88.1099C136.327 88.5737 135.964 89.0633 135.704 89.5014C134.484 91.6661 132.51 92.6969 130.485 92.2073C128.433 91.7176 126.979 89.8364 126.823 87.4398C126.771 86.6925 126.979 85.8679 126.304 85.2752C125.888 85.2236 125.473 85.1979 125.057 85.3783C124.98 85.4556 124.876 85.5329 124.798 85.636C124.33 88.4706 125.057 90.893 127.187 92.8773C127.446 93.1092 127.706 93.3154 127.758 93.7019C128.225 97.4127 128.667 101.098 129.134 104.809C129.835 107.953 130.303 111.122 131.238 114.215C132.64 118.802 135.081 122.461 139.677 124.342C142.715 125.605 145.883 125.373 148.999 124.729C150.09 124.497 150.402 124.78 150.609 125.811C151.181 128.723 151.83 131.609 152.479 134.495C152.687 135.346 152.479 135.604 151.596 135.629C144.299 135.964 137.002 136.402 129.758 137.33C125.213 137.923 120.721 138.799 116.41 140.448C109.555 143.077 105.452 148.102 103.271 154.905C101.531 160.368 100.622 165.986 99.8432 171.655C99.5576 173.691 99.272 175.727 98.9863 177.763C99.0123 179.541 99.6355 181.139 100.518 182.633C101.583 174.774 102.362 166.862 104.258 159.131C105.348 154.673 106.854 150.395 110.074 146.942C113.45 143.334 117.891 141.659 122.591 140.603C128.511 139.237 134.562 138.773 140.586 138.387C144.04 138.155 147.493 138.026 150.947 137.794C151.804 137.742 152.115 137.923 152.245 138.851C153.596 149.107 155.024 159.338 156.426 169.594C156.66 171.243 156.919 172.892 157.153 174.567C157.257 175.263 157.257 176.011 158.14 176.191C159.075 176.371 159.256 175.598 159.568 174.98C163.697 166.192 167.826 157.405 171.954 148.643C173.902 144.52 175.824 140.397 177.771 136.274C178.005 135.784 178.161 135.294 178.94 135.294C188.158 135.217 197.376 135.294 206.413 137.433C211.425 138.619 216.151 140.5 219.968 144.108C223.915 147.844 225.811 152.637 226.823 157.817C228.407 165.831 228.303 173.949 228.122 182.066C227.888 193.354 227.654 204.641 227.265 215.928C227.005 223.247 226.148 230.488 223.577 237.42C222.513 240.358 221.085 243.089 218.877 245.331C215.216 249.068 210.75 249.583 205.92 248.449C201.583 247.419 197.714 245.305 193.949 243.012C182.497 236.028 171.825 227.988 161.178 219.896C158.529 217.886 155.959 215.799 153.284 213.815C152.401 213.171 152.505 212.887 153.258 212.166C159.516 206.264 163.048 198.971 164.086 190.493C164.216 189.488 164.398 189.385 165.255 189.9C173.668 194.771 181.822 200.028 190.002 205.233C194.832 208.326 199.61 211.496 204.31 214.794C204.933 215.232 205.608 215.696 206.205 214.871C206.803 214.047 206.205 213.531 205.556 213.067C204.206 212.14 202.881 211.186 201.505 210.284C200.778 209.82 200.492 209.279 200.492 208.403C200.518 196.601 200.518 184.798 200.518 172.97C200.518 172.583 200.544 172.197 200.467 171.81C200.363 171.217 199.947 170.934 199.35 170.985C198.831 171.037 198.441 171.32 198.415 171.887C198.389 172.222 198.415 172.583 198.415 172.918V207.914C197.688 207.862 197.247 207.398 196.727 207.063C187.223 200.853 177.693 194.719 167.904 188.999C159.62 184.154 150.973 180.031 141.677 177.454C139.288 176.784 136.873 176.346 134.458 175.933C132.017 175.521 129.576 175.392 127.005 175.444C127.239 174.619 127.836 174.181 128.277 173.64C129.965 171.578 131.679 169.517 133.367 167.455C134.51 166.063 134.536 164.981 133.497 164.079C132.458 163.177 131.238 163.435 130.069 164.826C127.005 168.434 123.967 172.068 120.929 175.701C120.773 175.882 120.695 176.165 120.254 176.191C120.254 175.469 120.254 174.774 120.254 174.052C120.331 169.594 120.383 165.11 120.461 160.652C120.461 160.085 120.539 159.518 120.046 159.106C119.708 158.848 119.319 158.796 118.955 158.977C118.332 159.26 118.28 159.801 118.28 160.394C118.228 163.796 118.176 167.172 118.124 170.573C118.098 172.3 118.046 174.001 118.02 175.727C117.994 177.299 117.137 178.124 115.502 178.175C113.087 178.253 110.801 178.742 108.672 179.928C105.348 181.809 103.557 185.262 104.206 189.024C104.388 190.055 103.868 190.725 103.427 191.498C103.557 192.658 103.868 193.74 104.439 194.771C107.01 188.225 111.554 183.406 117.553 179.85C120.228 178.253 123.188 177.737 126.226 177.583C132.822 177.222 139.106 178.691 145.286 180.752C150.765 182.608 156.011 185.03 161.178 187.658C161.957 188.071 162.191 188.509 162.113 189.359C161.256 197.554 158.088 204.641 152.089 210.439C150.687 211.805 150.661 211.779 149.155 210.568C146.169 208.171 143.235 205.697 140.196 203.352C137.652 201.394 134.795 200.26 131.497 201.213C131.445 201.213 131.419 201.213 131.368 201.239C130.666 201.497 129.732 201.574 129.784 202.631C129.861 203.713 130.744 203.61 131.549 203.584C130.822 205.543 129.965 205.826 128.329 204.795C128.07 204.641 127.836 204.46 127.576 204.28C125.551 202.785 125.317 201.213 126.875 199.229C128.2 197.554 129.887 196.291 131.653 195.106C132.069 194.822 132.536 194.565 132.926 194.23C133.393 193.869 133.497 193.354 133.185 192.838C132.874 192.323 132.354 192.117 131.835 192.452C128.823 194.384 125.733 196.291 124.149 199.693C123.785 200.492 123.448 200.595 122.72 200.337C121.059 199.719 120.461 198.559 120.981 196.884C121.526 195.183 122.668 193.895 123.889 192.684C125.187 191.395 126.667 190.364 128.174 189.359C128.771 188.947 129.368 188.509 128.849 187.71C128.303 186.86 127.602 187.195 126.953 187.633C123.811 189.797 120.747 192.039 119.163 195.699C119.059 195.931 118.955 196.137 118.618 196.111C116.566 196.059 115.242 193.998 116.151 192.168C117.241 189.978 119.137 188.535 121.033 187.092C121.889 186.447 122.798 185.855 123.707 185.288C124.382 184.875 124.798 184.334 124.33 183.587C123.915 182.891 123.214 182.994 122.643 183.432C121.292 184.463 119.734 184.927 118.124 185.442C115.086 186.447 112.879 188.715 110.827 191.06C109.659 192.374 108.568 193.766 107.27 194.977C106.621 195.596 105.946 196.188 105.011 196.42C105.167 197.425 105.426 198.379 105.842 199.306C105.972 199.616 106.127 199.925 106.283 200.208C108.75 197.271 111.191 194.333 113.658 191.395C113.814 191.034 114.047 190.751 114.437 190.493C114.567 190.931 114.359 191.189 114.125 191.421C113.113 194.539 113.84 196.317 116.8 197.683C117.475 197.992 117.657 198.327 117.631 199.049C117.527 203.43 117.475 207.81 117.423 212.191C117.371 214.82 117.319 217.423 117.267 220.051C117.241 220.824 117.163 221.726 118.28 221.778C119.397 221.829 119.423 220.953 119.423 220.154C119.423 219.819 119.449 219.458 119.449 219.123C119.5 215.129 119.578 211.135 119.63 207.14C119.656 205.208 119.63 203.249 119.63 200.93C120.981 202.038 122.097 202.579 123.37 202.682C123.707 202.708 123.863 202.888 123.993 203.198C124.72 205.079 126.278 206.187 127.966 207.089C129.238 207.785 130.563 207.888 131.757 206.96C132.952 206.032 133.99 204.924 133.549 203.095C135.652 202.992 137.366 203.893 138.898 205.105C144.014 209.125 149.051 213.248 154.193 217.268C165.8 226.287 177.485 235.204 189.898 243.141C194.001 245.769 198.181 248.269 202.856 249.867C206.387 251.078 209.997 251.593 213.71 250.794C217.267 250.021 219.864 247.805 222.123 245.125C224.097 242.187 225.551 238.992 226.538 235.616C228.745 228.091 229.368 220.36 229.602 212.604C229.939 201.445 230.147 190.313 230.303 179.154C230.485 171.192 230.433 163.409 228.667 155.781ZM174.136 68.5764C176.135 67.5456 178.239 66.7467 180.55 66.7983C184.86 66.824 188.781 70.5606 189.508 75.3281C190.08 79.0389 188.677 82.1313 186.444 84.966C184.055 87.981 180.965 90.1457 177.511 91.8465C176.135 92.5423 176.447 91.2795 176.343 90.7641C175.07 84.4248 173.85 78.0597 172.63 71.7203C172.214 69.5814 172.214 69.5556 174.136 68.5764ZM130.589 98.727C130.407 97.5416 130.303 96.3562 130.147 95.145C130.095 94.6554 130.069 94.2946 130.77 94.3719C132.666 94.5781 134.328 94.0111 136.016 92.6711C135.938 96.1243 136.717 99.0362 139.028 101.536C136.12 102.335 133.757 103.778 131.731 106.226C131.29 103.52 130.926 101.124 130.589 98.727ZM142.923 122.951C138.353 122.177 135.496 119.343 133.938 115.142C133.315 113.467 132.9 111.689 132.406 109.963C132.25 109.421 132.354 109.009 132.718 108.468C135.392 104.474 139.34 103.185 143.91 103.082C147.961 102.979 151.882 104.061 155.829 104.706C157.023 104.912 158.218 105.066 159.438 105.118C164.398 105.298 167.073 102.953 167.696 98.0312C168.215 93.7277 167.748 89.4499 167.124 85.1979C166.345 79.7605 165.255 74.3746 164.086 69.0145C163.956 68.3444 163.671 67.9321 163.048 67.6744C154.92 64.5821 146.662 63.2936 138.223 66.2056C132.276 68.2671 128.771 72.6222 127.421 78.6781C127.317 79.0904 127.239 79.5028 127.109 80.0182C125.135 79.2451 123.318 78.3689 121.941 76.8227C120.461 75.1734 120.28 73.4984 121.422 71.643C121.915 70.8441 121.76 70.3287 121.033 69.7876C119.5 68.6537 118.098 67.391 117.111 65.7159C114.826 61.7732 117.034 57.6758 121.604 57.4181C126.356 57.1346 130.718 58.7066 135.029 60.3558C135.99 60.7166 136.925 61.1805 137.885 61.5928C138.56 61.902 139.21 61.902 139.573 61.2062C139.911 60.562 139.521 60.0724 138.95 59.7116C137.911 59.0931 136.925 58.3973 136.146 57.4438C135.185 56.2327 135.289 55.4596 136.535 54.5319C137.937 53.5011 139.547 53.0887 141.287 53.1145C145.935 53.1661 150.194 54.6865 154.297 56.6707C160.035 59.4539 165.021 63.2163 169.176 68.0867C169.695 68.6795 170.007 69.3237 170.163 70.1226C171.643 77.802 173.175 85.4556 174.655 93.1092C175.226 96.0727 175.174 99.0878 174.785 102.077C174.317 105.814 172.11 108.468 169.384 110.865C163.931 115.606 157.698 119.137 151.077 121.946C148.532 123.079 145.701 123.414 142.923 122.951ZM156.4 150.679C156.296 150.653 156.192 150.627 156.114 150.602C155.699 147.561 155.283 144.52 154.816 141.196C155.517 141.84 155.985 142.329 156.504 142.768C157.257 143.412 158.088 143.979 159.075 144.211C160.243 144.468 160.061 144.932 159.542 145.705C158.477 147.329 157.465 149.004 156.4 150.679ZM166.216 155.936C163.905 160.858 161.593 165.78 159.282 170.702C159.256 170.754 159.153 170.779 158.919 170.934C158.192 165.651 157.491 160.471 156.764 155.292C156.66 154.622 156.79 154.055 157.153 153.488C158.685 151.117 160.165 148.695 161.801 146.118C163.385 149.133 164.865 151.993 166.371 154.828C166.579 155.266 166.371 155.601 166.216 155.936ZM167.696 152.766C166.242 149.983 164.917 147.483 163.541 144.829C167.125 144.443 170.241 143.128 173.175 141.041C171.409 144.881 169.617 148.669 167.696 152.766ZM175.2 134.676C173.357 139.417 166.423 143.412 161.386 142.639C158.27 142.149 156.296 140.345 155.491 137.382C154.686 134.367 154.089 131.3 153.388 128.233C153.128 127.1 152.92 125.966 152.609 124.858C152.401 124.059 152.609 123.672 153.414 123.311C158.789 120.837 163.956 117.977 168.605 114.292C169.825 113.338 170.968 112.308 172.37 111.096C172.682 113.545 172.967 115.787 173.253 118.029C173.928 123.183 174.603 128.311 175.33 133.465C175.408 133.877 175.356 134.264 175.2 134.676ZM106.543 186.808C106.309 184.257 109.114 181.319 112.256 180.855C110.1 182.711 108.231 184.618 106.543 186.808ZM114.8 190.055L114.826 189.952L114.904 190.004L114.8 190.055Z" fill="#281E34"/>
<path d="M52.0915 239.094C50.2998 237.986 49.0534 236.646 47.7031 235.435C41.0035 229.533 34.3559 223.606 27.6563 217.705C27.0071 217.138 26.6176 216.494 26.3579 215.695C24.696 210.721 23.0082 205.774 21.3462 200.8C21.2424 200.517 21.2164 200.207 21.1645 199.924C23.5275 199.048 24.0209 198.017 23.112 195.723C22.9822 195.363 22.9043 195.079 23.138 194.77C24.0468 193.43 23.917 192.116 23.0341 190.827C22.8264 190.544 22.6446 190.235 22.8783 189.9C24.2027 187.941 23.2938 186.318 22.0214 184.797C21.7098 184.436 21.528 184.153 21.8916 183.689C23.0861 182.169 22.8004 180.674 21.8137 179.179C19.7363 175.984 16.8539 173.51 14.2052 170.804C13.5041 170.083 12.803 169.876 11.9201 170.366C11.1671 170.237 10.9074 169.696 10.6737 169.078C10.2063 167.738 9.71289 166.372 9.24548 165.032C10.1543 163.537 9.9466 162.97 8.36259 162.816C7.86922 160.187 6.77859 157.739 5.94763 155.213C5.16862 152.765 4.31169 150.343 3.48074 147.895C3.37687 147.611 3.24703 147.328 3.42881 146.812C12.9848 155.265 22.4628 163.64 32.0448 172.118C30.3309 172.402 30.0713 172.737 30.5387 174.077C35.031 187.683 39.5234 201.29 44.0417 214.896C46.5865 222.601 49.1572 230.281 51.728 237.986C51.8578 238.269 51.9357 238.553 52.0915 239.094Z" fill="#F66667"/>
<path d="M165.699 91.897C165.154 84.8103 163.726 77.904 162.349 70.9462C162.142 69.8896 161.726 69.2969 160.688 68.9619C154.975 67.0807 149.158 66.2303 143.186 67.0291C135.629 68.0599 130.955 72.3893 129.423 79.7079C129.293 80.3779 129.111 80.9964 129.812 81.5375C130.28 81.9241 130.28 82.5426 129.838 83.0322C129.189 83.831 127.631 84.063 126.696 83.5476C126.644 84.1403 126.722 84.7588 126.385 85.2999C127.06 85.9184 126.852 86.7173 126.904 87.4646C127.06 89.8612 128.514 91.7424 130.565 92.232C132.591 92.6959 134.564 91.6908 135.785 89.5262C136.045 89.0881 136.408 88.5985 136.408 88.1346C136.382 85.7896 137.81 83.9341 138.304 81.7695C138.408 81.3571 138.537 80.9448 138.693 80.5325C138.927 79.914 139.42 79.6821 140.044 79.8625C140.641 80.0429 140.823 80.5325 140.719 81.0995C140.641 81.5118 140.485 81.9241 140.381 82.3364C139.81 84.2176 139.81 84.2176 141.679 84.5526C144.25 85.0165 144.458 85.2226 144.951 87.7481C145.367 89.9127 146.691 91.4331 148.483 91.7424C151.417 92.232 154.04 90.5054 154.715 87.6192C154.897 86.8719 154.975 86.0988 154.923 85.3257C154.897 84.6557 155.26 84.2434 155.91 84.2434C156.559 84.2176 156.922 84.6041 157.026 85.2484C157.701 88.9592 154.793 93.0824 150.976 93.804C146.873 94.577 143.705 92.4382 142.874 88.2119C142.666 87.2327 142.277 86.8203 141.368 86.6915C140.952 86.64 140.511 86.5884 140.095 86.5111C139.498 86.408 139.109 86.5884 138.979 87.2327C138.563 89.4746 138.096 91.6908 138.174 93.9843C138.252 96.4325 138.979 98.6229 140.797 100.375C141.342 100.916 141.913 101.174 142.718 101.123C145.964 100.916 149.184 101.277 152.378 101.947C154.949 102.488 157.546 103.081 160.194 103.055C163.103 103.03 164.609 101.896 165.31 99.1125C165.907 96.6902 165.881 94.2936 165.699 91.897ZM131.137 90.6343C130.254 90.6343 129.735 90.1446 129.709 89.2942C129.683 88.3923 130.176 87.8511 131.111 87.7738C132.046 87.8511 132.565 88.3923 132.539 89.2685C132.565 90.1189 132.02 90.6085 131.137 90.6343ZM146.406 80.816C145.652 80.7902 145.133 80.4037 145.133 79.6563C145.133 78.8059 145.73 78.4967 146.535 78.4967C146.795 78.4967 147.055 78.4967 147.314 78.4967V78.5482C147.652 78.5482 148.016 78.5225 148.353 78.5482C149.002 78.6256 149.34 79.0636 149.366 79.6821C149.392 80.3264 148.976 80.7387 148.379 80.7902C147.678 80.8933 147.029 80.8418 146.406 80.816ZM149.651 88.7531C148.769 88.8046 148.249 88.2634 148.145 87.413C148.145 86.4338 148.691 85.8926 149.548 85.8669C150.379 85.8411 150.924 86.3823 150.976 87.2069C151.054 88.0831 150.56 88.7015 149.651 88.7531Z" fill="#FDFDFD"/>
<path d="M23.1354 194.77C24.0442 193.43 23.9144 192.116 23.0315 190.828C22.8238 190.544 22.642 190.235 22.8757 189.9C24.2 187.941 23.2912 186.318 22.0188 184.797C21.7072 184.437 21.5254 184.153 21.8889 183.689C23.0834 182.169 22.7978 180.674 21.811 179.18C19.7337 175.984 16.8513 173.51 14.2026 170.804C13.5015 170.083 12.8004 169.877 11.9175 170.366C11.6838 171.294 12.1512 171.887 12.7744 172.505C15.1115 174.721 17.5005 176.912 19.4221 179.515C20.0453 180.339 21.084 181.318 20.1232 182.349C19.2662 183.251 18.1497 182.478 17.2927 181.988C12.5407 179.308 8.82739 175.752 8.12627 170.006C7.91854 168.227 8.12628 166.501 9.26884 165.006C10.1777 163.512 9.96995 162.945 8.38595 162.79C6.54227 164.362 5.97099 166.501 5.94502 168.769C5.94502 170.598 6.07486 172.376 5.47761 174.18C5.0881 175.366 5.21794 176.654 5.52954 177.865C5.99696 179.721 6.30856 181.602 6.69807 183.483C7.32129 186.421 8.69756 189.152 9.26884 192.142C9.34674 192.58 9.63238 193.018 9.89205 193.404C12.5667 197.425 16.4098 199.512 21.1878 199.95C23.5509 199.074 24.0442 198.043 23.1354 195.75C22.9796 195.389 22.9017 195.105 23.1354 194.77ZM7.91854 178.69C7.6329 177.736 7.42516 176.809 7.50306 175.469C9.2948 178.432 11.3722 180.648 13.891 182.427C15.3192 183.432 16.8513 184.179 18.4872 184.694C19.9414 185.158 20.7983 186.318 21.2917 187.684C21.6033 188.56 20.9022 189.127 19.8116 188.946C18.0198 188.689 16.4358 187.89 14.9557 186.936C11.7357 184.926 9.0611 182.452 7.91854 178.69ZM21.3177 197.425C21.1359 197.785 20.7464 197.785 20.4088 197.734C16.5656 197.09 13.5015 195.234 11.528 191.833C13.8131 193.482 16.1502 195.028 18.9287 195.724C19.6558 195.904 20.5127 195.775 21.032 196.523C21.2138 196.806 21.5254 197.064 21.3177 197.425ZM20.6425 193.817C20.0453 193.791 19.4221 193.688 18.8767 193.508C15.3452 192.219 12.4628 190.054 10.2296 187.039C10.1517 186.911 10.0998 186.756 9.89205 186.266C11.8136 187.477 13.3717 188.508 14.9816 189.462C16.5137 190.389 18.1756 190.982 19.9674 191.137C21.084 191.24 21.3696 192.064 21.5514 192.863C21.6812 193.404 21.2657 193.843 20.6425 193.817Z" fill="#281E34"/>
<path d="M94.3129 170.521C94.2609 171.5 93.4819 171.577 92.6769 171.526C91.3007 171.423 89.9244 171.32 88.5481 171.242C84.7569 170.882 80.9916 170.469 77.2004 170.134C71.176 169.593 65.1516 168.975 59.1012 168.64C52.947 168.305 46.9225 169.052 41.4175 172.119C40.7683 172.479 40.1451 172.582 39.7556 171.835C39.3661 171.113 39.7556 170.624 40.3788 170.237C43.0534 168.64 45.9617 167.789 48.9999 167.171C54.5829 166.011 60.1918 166.449 65.7748 166.965C72.1368 167.557 78.5247 168.098 84.8867 168.665C86.0812 168.768 87.3017 168.846 88.4962 168.949C89.9504 169.103 91.4045 169.258 92.8847 169.387C93.6897 169.464 94.3648 169.645 94.3129 170.521Z" fill="#281E34"/>
<path d="M38.3552 171.862C38.2773 172.558 37.8878 172.996 37.1347 172.893C36.4596 172.815 36.1739 172.326 36.2518 171.707C36.8491 165.29 33.1877 161.27 28.3837 157.92C25.8649 156.168 23.0604 154.957 20.0482 154.158C15.5559 152.947 11.9983 150.499 9.76516 146.35C9.63532 146.092 9.47952 145.834 9.37565 145.551C9.14194 144.907 9.06404 144.237 9.84306 143.927C10.6221 143.618 11.0635 144.056 11.3492 144.726C12.4138 147.226 14.2835 149.004 16.5167 150.499C16.7763 150.679 17.062 150.731 17.3476 150.834C18.0487 151.297 18.8278 151.581 19.6327 151.787C24.0472 152.998 28.15 154.802 31.7075 157.74C34.9275 160.42 37.4203 163.564 38.2773 167.764C38.511 169.13 38.511 170.496 38.3552 171.862Z" fill="#281E34"/>
<path d="M44.2788 28.5723C44.8241 29.1134 45.2915 29.7834 44.5644 30.4535C43.8114 31.1235 43.2141 30.5308 42.6948 30.0154C41.3704 28.7269 39.9682 27.4899 38.7477 26.1241C38.0726 25.3768 37.6831 25.5572 37.1118 26.1499C35.8913 27.4126 34.6189 28.6496 33.3465 29.8865C32.7753 30.4535 32.152 31.2781 31.2951 30.4019C30.4642 29.5515 31.2692 28.9073 31.8145 28.3403C33.0869 27.0003 34.3852 25.6861 35.7615 24.4491C36.3587 23.9079 36.2549 23.5987 35.7615 23.1348C34.3073 21.7175 32.8791 20.2744 31.4509 18.8571C31.0614 18.4705 30.7758 18.0582 31.0614 17.4913C31.1133 17.414 31.1653 17.3109 31.2172 17.2593C31.2951 17.182 31.3471 17.1305 31.425 17.079C31.4509 17.0532 31.5029 17.0274 31.5548 17.0016C31.6846 16.9501 31.8404 16.9243 31.9962 16.9243C32.1001 16.9243 32.204 16.9243 32.3078 16.9501C32.4636 17.0016 32.5935 17.079 32.6974 17.1563C32.7233 17.182 32.7493 17.2078 32.7753 17.2336C32.8532 17.2851 32.9311 17.3624 32.983 17.4397C34.3593 18.8055 35.7615 20.1456 37.0858 21.5371C37.709 22.1814 38.0726 22.1814 38.7218 21.4856C39.9942 20.094 41.3964 18.8055 42.7467 17.4913C43.266 16.9759 43.9152 16.5893 44.5644 17.2078C45.2655 17.9036 44.7721 18.5478 44.2268 19.089C42.8765 20.429 41.5522 21.7948 40.1759 23.0833C39.6306 23.5987 39.5268 23.9079 40.15 24.5006C41.6041 25.7634 42.9285 27.1807 44.2788 28.5723Z" fill="white"/>
<path d="M222.695 86.1769C222.409 86.7181 222.097 87.3623 221.682 87.9808C220.669 89.5012 219.63 91.0216 218.566 92.5163C218.15 93.109 217.657 93.7532 216.774 93.109C215.917 92.4647 216.384 91.872 216.8 91.2278C218.02 89.4239 219.215 87.5942 220.409 85.7646C220.773 85.2234 221.24 84.8884 221.941 85.1461C222.357 85.3007 222.695 85.5327 222.695 86.1769Z" fill="#FD9AE1"/>
<path d="M70.7636 141.504C70.0105 141.89 69.5171 141.555 69.1016 140.834C68.1149 139.082 67.0502 137.381 66.0375 135.654C65.8297 135.293 65.596 134.907 65.648 134.546C65.648 134.005 65.6999 133.567 66.2192 133.438C66.7386 133.309 67.232 133.309 67.5696 133.876C68.7381 135.86 69.9066 137.845 71.0752 139.829C71.4387 140.499 71.4906 141.117 70.7636 141.504Z" fill="#FD9AE1"/>
<path d="M112.645 34.7918C112.489 35.8741 111.477 36.4153 110.905 37.2657C110.49 37.9099 109.815 38.3738 109.321 38.9665C108.906 39.4819 108.438 39.4561 107.945 39.1727C107.452 38.8634 107.244 38.348 107.581 37.8326C108.568 36.338 109.763 34.9722 111.035 33.6837C111.347 33.3745 111.762 33.426 112.1 33.6579C112.515 33.9414 112.645 34.328 112.645 34.7918Z" fill="#FD9AE1"/>
<path d="M226.226 90.0423C225.602 91.4854 224.849 92.877 224.122 94.2686C223.863 94.7582 223.499 95.0932 222.876 94.8355C222.305 94.6036 222.045 94.1655 222.201 93.6243C222.694 91.9493 223.577 90.4289 224.512 88.9342C224.616 88.7538 224.953 88.7281 225.161 88.625C225.914 88.8312 226.615 89.1662 226.226 90.0423Z" fill="#FD9AE1"/>
<path d="M114.231 191.291C114.075 191.291 113.919 191.265 113.764 191.265C113.919 190.904 114.153 190.621 114.543 190.363C114.698 190.776 114.491 191.033 114.231 191.291Z" fill="#F66667"/>
<path d="M125.137 85.3767C125.06 85.454 124.956 85.5313 124.878 85.6344C124.878 85.3767 124.436 85.0932 124.8 84.9128C125.085 84.7582 125.06 85.1705 125.137 85.3767Z" fill="#FDFDFD"/>
<path d="M32.6652 172.838C32.5878 172.813 32.5363 172.787 32.459 172.762C32.6136 172.557 32.6136 172.736 32.6652 172.838Z" fill="#F66667"/>
<path d="M100.598 182.606C101.662 174.746 102.441 166.835 104.337 159.104C105.428 154.646 106.934 150.368 110.154 146.915C113.529 143.282 117.97 141.632 122.67 140.576C128.59 139.21 134.641 138.746 140.665 138.36C144.119 138.128 147.573 137.999 151.026 137.767C151.883 137.715 152.221 137.921 152.325 138.823C153.675 149.08 155.103 159.31 156.505 169.567C156.739 171.216 156.999 172.865 157.232 174.54C157.336 175.236 157.336 175.983 158.219 176.164C159.154 176.344 159.336 175.571 159.647 174.953C163.776 166.165 167.905 157.378 172.034 148.616C173.981 144.493 175.903 140.37 177.85 136.246C178.084 135.757 178.24 135.267 179.019 135.267C188.237 135.19 197.456 135.267 206.492 137.406C211.504 138.591 216.23 140.473 220.021 144.08C223.968 147.843 225.864 152.61 226.877 157.79C228.461 165.804 228.357 173.922 228.175 182.039C227.941 193.326 227.708 204.614 227.318 215.901C227.058 223.219 226.202 230.461 223.631 237.393C222.566 240.331 221.138 243.062 218.931 245.304C215.269 249.041 210.803 249.556 205.973 248.422C201.636 247.391 197.767 245.278 194.002 242.985C182.576 236.001 171.878 227.961 161.257 219.869C158.609 217.859 156.038 215.772 153.363 213.788C152.48 213.143 152.584 212.86 153.337 212.138C159.595 206.237 163.127 198.944 164.166 190.466C164.295 189.461 164.477 189.358 165.334 189.873C173.748 194.718 181.901 200.001 190.081 205.206C194.911 208.299 199.689 211.468 204.389 214.767C205.012 215.205 205.687 215.669 206.285 214.844C206.882 214.02 206.285 213.504 205.635 213.066C204.285 212.138 202.961 211.185 201.585 210.283C200.857 209.819 200.572 209.278 200.572 208.402C200.598 196.599 200.598 184.797 200.598 172.968C200.598 172.582 200.624 172.195 200.546 171.809C200.442 171.216 200.027 170.933 199.429 170.984C198.91 171.036 198.546 171.319 198.494 171.886C198.468 172.221 198.494 172.582 198.494 172.917C198.494 184.565 198.494 196.187 198.494 207.912C197.767 207.861 197.326 207.397 196.807 207.062C187.303 200.851 177.773 194.718 167.983 188.997C159.699 184.152 151.052 180.029 141.756 177.452C139.367 176.782 136.952 176.344 134.537 175.932C132.096 175.52 129.655 175.391 127.084 175.442C127.318 174.618 127.915 174.18 128.357 173.638C130.045 171.551 131.758 169.515 133.446 167.454C134.589 166.062 134.615 164.98 133.576 164.078C132.537 163.176 131.317 163.434 130.148 164.825C127.084 168.433 124.046 172.066 121.008 175.7C120.852 175.88 120.774 176.164 120.333 176.19C120.333 175.468 120.333 174.772 120.333 174.051C120.385 169.593 120.463 165.134 120.541 160.65C120.541 160.083 120.618 159.517 120.125 159.104C119.788 158.847 119.398 158.795 119.034 158.975C118.437 159.259 118.359 159.8 118.359 160.393C118.307 163.794 118.255 167.17 118.204 170.572C118.178 172.298 118.152 173.999 118.1 175.726C118.074 177.298 117.217 178.122 115.581 178.174C113.166 178.251 110.881 178.715 108.751 179.926C105.402 181.807 103.636 185.261 104.285 189.023C104.467 190.079 103.947 190.724 103.506 191.497C102.312 188.559 101.247 185.647 100.598 182.606Z" fill="#FDFDFD"/>
<path d="M104.545 194.694C107.116 188.148 111.66 183.329 117.658 179.773C120.333 178.175 123.293 177.66 126.332 177.479C132.927 177.119 139.211 178.587 145.392 180.675C150.897 182.53 156.116 184.953 161.284 187.581C162.063 187.993 162.296 188.432 162.218 189.282C161.361 197.477 158.193 204.563 152.195 210.362C150.793 211.727 150.767 211.702 149.261 210.49C146.274 208.094 143.34 205.62 140.302 203.275C137.757 201.316 134.901 200.183 131.603 201.136C131.551 201.136 131.525 201.136 131.473 201.162C130.772 201.419 129.837 201.497 129.889 202.553C129.967 203.636 130.85 203.533 131.655 203.507C130.928 205.465 130.071 205.749 128.435 204.718C128.175 204.563 127.941 204.383 127.682 204.203C125.656 202.708 125.423 201.136 126.981 199.152C128.305 197.477 129.993 196.214 131.759 195.029C132.174 194.745 132.642 194.487 133.031 194.152C133.498 193.792 133.602 193.276 133.291 192.761C132.979 192.271 132.46 192.039 131.94 192.374C128.928 194.307 125.838 196.214 124.254 199.616C123.891 200.414 123.553 200.518 122.826 200.26C121.164 199.641 120.567 198.482 121.112 196.807C121.657 195.106 122.8 193.817 124.02 192.606C125.319 191.318 126.799 190.287 128.305 189.282C128.902 188.87 129.5 188.432 128.98 187.633C128.435 186.782 127.734 187.117 127.085 187.555C123.943 189.72 120.878 191.962 119.294 195.621C119.19 195.853 119.087 196.059 118.749 196.034C116.698 195.982 115.373 193.92 116.282 192.091C117.373 189.9 119.268 188.457 121.164 187.014C122.021 186.37 122.93 185.777 123.839 185.21C124.514 184.798 124.929 184.257 124.462 183.51C124.046 182.814 123.345 182.917 122.774 183.355C121.424 184.36 119.866 184.85 118.256 185.365C115.217 186.37 113.01 188.638 110.959 190.957C109.79 192.271 108.7 193.663 107.401 194.874C106.752 195.492 106.051 196.085 105.142 196.317C104.753 195.827 104.675 195.26 104.545 194.694Z" fill="#FDFDFD"/>
<path d="M174.63 93.1345C173.15 85.4551 171.618 77.8015 170.137 70.1479C169.982 69.349 169.67 68.7048 169.151 68.1121C165.022 63.2416 160.036 59.4792 154.271 56.6961C150.169 54.7118 145.91 53.1914 141.262 53.1399C139.522 53.1141 137.912 53.5006 136.51 54.5572C135.263 55.4849 135.133 56.2838 136.12 57.4692C136.899 58.4227 137.86 59.1185 138.925 59.7369C139.496 60.0719 139.886 60.5616 139.548 61.2316C139.184 61.9274 138.561 61.9274 137.86 61.6181C136.925 61.18 135.99 60.7419 135.004 60.3812C130.667 58.7061 126.331 57.16 121.579 57.4434C117.008 57.7269 114.801 61.7985 117.086 65.7413C118.047 67.4163 119.475 68.679 121.007 69.8129C121.734 70.3541 121.89 70.8695 121.397 71.6683C120.254 73.5237 120.436 75.1988 121.916 76.848C123.318 78.3942 125.11 79.2704 127.084 80.0435C127.187 79.5281 127.291 79.1158 127.395 78.7035C128.746 72.6218 132.251 68.2667 138.198 66.2309C146.637 63.3189 154.895 64.6074 163.022 67.6998C163.646 67.9317 163.931 68.3698 164.061 69.0398C165.23 74.3999 166.32 79.7858 167.099 85.2232C167.722 89.4752 168.19 93.7272 167.671 98.0566C167.073 103.004 164.399 105.324 159.413 105.143C158.218 105.092 156.998 104.937 155.803 104.731C151.83 104.087 147.935 103.03 143.884 103.107C139.314 103.211 135.393 104.499 132.693 108.493C132.329 109.034 132.225 109.447 132.381 109.988C132.874 111.715 133.29 113.493 133.913 115.168C135.471 119.368 138.327 122.229 142.898 122.976C145.676 123.44 148.507 123.079 151.051 121.997C157.673 119.162 163.879 115.657 169.358 110.916C172.111 108.545 174.292 105.891 174.76 102.128C175.149 99.1131 175.227 96.1238 174.63 93.1345ZM154.219 109.704C154.168 109.885 154.142 110.065 154.064 110.246C153.908 110.787 153.648 111.302 153.363 111.766C153.207 111.998 153.051 112.23 152.869 112.436C151.934 113.596 150.636 114.446 149.104 114.781C148.325 114.936 147.572 115.013 147.338 114.034C147.104 113.106 147.676 112.745 148.481 112.539C151.337 111.74 152.584 109.576 151.779 106.715C151.545 105.839 151.701 105.246 152.532 104.963C153.414 104.654 153.778 105.272 154.012 105.994C154.168 106.457 154.271 106.947 154.323 107.437C154.323 107.488 154.323 107.54 154.349 107.591C154.349 107.617 154.349 107.643 154.349 107.669C154.375 107.875 154.375 108.055 154.375 108.261C154.375 108.545 154.349 108.854 154.323 109.138C154.297 109.318 154.271 109.524 154.219 109.704Z" fill="#281E34"/>
<path d="M172.396 111.07C172.707 113.518 172.993 115.76 173.278 118.002C173.954 123.156 174.629 128.285 175.356 133.438C175.408 133.877 175.356 134.263 175.2 134.675C173.33 139.417 166.423 143.411 161.385 142.638C158.269 142.149 156.296 140.345 155.491 137.381C154.686 134.366 154.089 131.274 153.387 128.233C153.128 127.099 152.92 125.965 152.608 124.857C152.401 124.058 152.608 123.672 153.413 123.311C158.789 120.837 163.956 117.977 168.604 114.292C169.825 113.312 170.967 112.281 172.396 111.07Z" fill="#FDFDFD"/>
<path d="M189.513 75.3271C188.76 70.5597 184.865 66.8231 180.554 66.7973C178.243 66.7457 176.14 67.5446 174.14 68.5754C172.219 69.5804 172.219 69.5804 172.634 71.7193C173.88 78.0844 175.075 84.4238 176.347 90.7632C176.451 91.2786 176.166 92.5155 177.516 91.8455C180.944 90.1189 184.034 87.98 186.449 84.965C188.682 82.1303 190.084 79.0379 189.513 75.3271ZM183.67 74.4767C180.372 75.8682 178.84 78.6771 177.776 81.8468C177.672 82.1818 177.62 82.5168 177.568 82.8519C177.464 83.5734 177.048 83.9342 176.321 83.8311C175.646 83.7538 175.413 83.2642 175.413 82.6199C175.906 79.7079 177.204 77.2083 179.178 75.0178C180.19 73.884 181.411 73.0078 182.839 72.4666C183.566 72.1832 184.423 71.9255 184.787 72.9563C185.124 73.884 184.423 74.1674 183.67 74.4767Z" fill="#FDFDFD"/>
<path d="M158.895 170.958C158.168 165.675 157.467 160.495 156.739 155.316C156.636 154.646 156.765 154.079 157.155 153.512C158.687 151.141 160.167 148.719 161.803 146.142C163.387 149.157 164.867 152.017 166.373 154.852C166.581 155.264 166.373 155.599 166.217 155.934C163.906 160.856 161.595 165.778 159.284 170.7C159.232 170.778 159.128 170.803 158.895 170.958Z" fill="#281E34"/>
<path d="M135.989 92.6973C135.911 96.1504 136.69 99.0624 139.001 101.562C136.093 102.361 133.73 103.804 131.704 106.252C131.289 103.521 130.925 101.124 130.588 98.7016C130.406 97.5162 130.302 96.3308 130.146 95.1196C130.094 94.63 130.068 94.2692 130.769 94.3723C132.639 94.6042 134.327 94.0373 135.989 92.6973Z" fill="#FDFDFD"/>
<path d="M167.698 152.767C166.244 149.984 164.919 147.484 163.543 144.856C167.126 144.469 170.243 143.155 173.177 141.067C171.411 144.881 169.619 148.669 167.698 152.767Z" fill="#FDFDFD"/>
<path d="M156.117 150.601C155.701 147.56 155.286 144.52 154.818 141.195C155.519 141.84 155.987 142.329 156.506 142.767C157.259 143.412 158.09 143.978 159.077 144.21C160.246 144.468 160.064 144.932 159.544 145.705C158.454 147.329 157.441 149.004 156.376 150.679C156.298 150.653 156.221 150.627 156.117 150.601Z" fill="#FDFDFD"/>
<path d="M112.23 180.854C110.1 182.709 108.231 184.616 106.517 186.806C106.309 184.255 109.113 181.317 112.23 180.854Z" fill="#FDFDFD"/>
<path d="M114.903 190.002L114.801 190.053L114.826 189.951L114.903 190.002Z" fill="#F66667"/>
<path d="M11.9439 170.341C11.7101 171.269 12.1776 171.862 12.8008 172.454C15.1378 174.67 17.5268 176.861 19.4484 179.464C20.0716 180.288 21.1103 181.267 20.1495 182.298C19.2926 183.2 18.176 182.427 17.3191 181.938C12.5411 179.309 8.82778 175.753 8.12666 170.006C7.89295 168.228 8.12666 166.501 9.26922 165.007C9.7626 166.347 10.23 167.713 10.6974 169.053C10.9311 169.671 11.1908 170.238 11.9439 170.341Z" fill="#FDFDFD"/>
<path d="M147.286 78.5741C147.624 78.5741 147.987 78.5483 148.299 78.5741C148.948 78.6514 149.286 79.0637 149.312 79.708C149.338 80.378 148.922 80.7645 148.325 80.8419C147.702 80.9192 147.052 80.8676 146.403 80.8419C145.65 80.8161 145.131 80.4295 145.131 79.6822C145.131 78.8318 145.728 78.5226 146.533 78.5484C146.793 78.5484 147.052 78.5484 147.312 78.5484C147.286 78.5484 147.286 78.5483 147.286 78.5741Z" fill="#281E34"/>
<path d="M148.17 87.4133C148.17 86.4083 148.715 85.8929 149.572 85.8671C150.403 85.8413 150.948 86.3825 151 87.2071C151.052 88.109 150.533 88.7017 149.65 88.7533C148.767 88.8048 148.248 88.2637 148.17 87.4133Z" fill="#281E34"/>
<path d="M131.135 87.7744C132.07 87.8517 132.589 88.3929 132.563 89.2691C132.538 90.0937 131.992 90.6091 131.135 90.6349C130.252 90.6349 129.733 90.1453 129.707 89.2948C129.707 88.3671 130.2 87.8517 131.135 87.7744Z" fill="#281E34"/>
<path d="M7.50364 175.469C9.29539 178.432 11.3728 180.648 13.8916 182.427C15.2938 183.432 16.8259 184.179 18.4878 184.694C19.942 185.158 20.7989 186.344 21.2663 187.684C21.5779 188.56 20.9028 189.127 19.7862 188.946C17.9944 188.689 16.4104 187.89 14.9303 186.936C11.7363 184.9 9.06168 182.427 7.91912 178.664C7.63348 177.762 7.39977 176.809 7.50364 175.469Z" fill="#FDFDFD"/>
<path d="M9.86914 186.267C11.7907 187.478 13.3488 188.509 14.9587 189.462C16.4908 190.364 18.1527 190.982 19.9445 191.137C21.0611 191.24 21.3467 192.065 21.5285 192.864C21.6583 193.431 21.2688 193.869 20.6196 193.843C20.0224 193.817 19.3991 193.714 18.8538 193.534C15.3223 192.245 12.4399 190.106 10.2067 187.065C10.1288 186.911 10.1028 186.756 9.86914 186.267Z" fill="#FDFDFD"/>
<path d="M11.5273 191.832C13.8125 193.481 16.1495 195.027 18.928 195.723C19.6551 195.904 20.512 195.775 21.0314 196.522C21.2132 196.806 21.5248 197.063 21.343 197.424C21.1612 197.785 20.7717 197.785 20.4341 197.733C16.565 197.089 13.5009 195.234 11.5273 191.832Z" fill="#FDFDFD"/>
<path fill-rule="evenodd" clip-rule="evenodd" d="M16 106.793C16 103.52 18.6746 101.046 22.1802 101.046C25.0886 101.046 27.945 103.855 27.7632 106.844C27.5555 110.143 25.6598 112.591 21.7907 112.642C18.5967 112.694 16 110.014 16 106.793ZM25.4965 106.342C25.5186 106.491 25.5301 106.641 25.5301 106.793C25.5041 108.778 23.7643 110.53 21.8168 110.504C19.8883 110.479 18.2574 108.781 18.2566 106.828C18.2562 106.773 18.257 106.719 18.2592 106.664C18.3371 104.834 20.1028 103.211 21.9465 103.262C23.7087 103.309 25.2526 104.7 25.4965 106.342Z" fill="#FCE057"/>
<path d="M154.374 108.26C154.348 111.379 152.167 114.11 149.129 114.78C148.35 114.961 147.623 115.012 147.363 114.033C147.13 113.105 147.701 112.744 148.506 112.512C151.362 111.714 152.609 109.549 151.804 106.688C151.57 105.812 151.726 105.22 152.557 104.936C153.44 104.627 153.803 105.245 154.011 105.967C154.245 106.74 154.4 107.487 154.374 108.26Z" fill="white"/>
<path d="M175.435 82.6201C175.929 79.7081 177.227 77.2085 179.201 75.018C180.213 73.8842 181.434 73.008 182.862 72.4668C183.589 72.1834 184.446 71.9257 184.81 72.9565C185.121 73.8842 184.42 74.1676 183.667 74.4769C180.369 75.8684 178.837 78.6773 177.772 81.847C177.669 82.182 177.617 82.5171 177.565 82.8521C177.461 83.5736 177.045 83.9344 176.318 83.8313C175.669 83.7282 175.409 83.2644 175.435 82.6201Z" fill="#281E34"/>
</svg>
