<svg width="313" height="284" viewBox="0 0 313 284" fill="none" xmlns="http://www.w3.org/2000/svg">
<g clip-path="url(#clip0)">
<path d="M291.426 200.363C289.134 196.349 285.409 193.846 281.423 191.761C276.395 189.102 271.029 187.329 265.558 185.843C258.733 184.019 251.804 182.741 244.822 181.933C243.389 181.777 243.025 181.177 242.79 180.004C242.087 176.459 240.967 173.07 238.961 169.994C236.747 166.632 233.855 164.494 229.583 164.885C227.238 165.094 225.128 165.98 223.2 167.283C222.289 167.883 222.028 167.674 221.924 166.684C221.794 165.354 221.585 164.025 221.299 162.721C219.684 155.605 217.6 148.645 213.77 142.363C210.879 137.618 207.362 133.526 202.126 131.258C196.655 128.886 190.95 129.277 185.401 130.424C178.706 131.831 173.444 135.689 169.406 141.216C165.16 147.081 162.79 153.728 161.227 160.714C164.9 161.366 168.573 161.809 172.194 162.774C177.039 164.051 181.676 165.797 185.87 168.587C192.956 173.331 196.369 180.135 197.254 188.502C198.426 199.451 198.843 210.477 199.573 221.452C209.706 221.452 219.866 221.478 230 221.504C230.677 221.504 231.38 221.634 232.058 221.686C233.621 220.54 235.027 219.184 236.668 218.115C245.786 212.198 255.581 213.345 263.735 219.94C264.178 220.279 264.516 220.748 265.063 220.957C267.642 220.67 270.247 220.461 272.8 220.07C277.515 219.366 282.152 218.35 286.477 216.186C292.807 213.058 294.943 206.515 291.426 200.363ZM259.072 205.655C258.394 206.307 257.717 205.942 257.144 205.368C255.685 203.908 254.226 202.422 252.768 200.963C252.559 200.728 252.351 200.52 252.064 200.441C251.673 200.52 251.465 200.806 251.231 201.067C249.876 202.422 248.547 203.778 247.193 205.107C246.568 205.733 245.89 206.515 245.031 205.603C244.223 204.769 244.926 204.143 245.552 203.543C246.906 202.214 248.209 200.806 249.615 199.503C250.371 198.825 250.267 198.356 249.615 197.73C248.313 196.453 247.063 195.15 245.812 193.846C245.343 193.351 244.926 192.803 245.5 192.152C246.099 191.474 246.724 191.709 247.323 192.204C248.652 193.273 249.72 194.576 250.866 195.801C252.012 197 252.038 197 253.21 195.853C254.409 194.654 255.607 193.455 256.805 192.282C257.352 191.735 258.004 191.448 258.603 192.1C259.202 192.725 258.968 193.351 258.394 193.924C257.066 195.228 255.763 196.583 254.435 197.861C253.862 198.408 253.836 198.851 254.435 199.373C256.024 200.702 257.352 202.292 258.837 203.752C259.384 204.325 259.801 204.977 259.072 205.655Z" fill="#FDE058"/>
<path d="M282.024 256.017C280.227 246.19 277.049 236.884 271.422 228.542C269.572 225.805 267.332 223.381 265.065 221.008C264.518 220.826 264.154 220.357 263.737 219.992C255.583 213.397 245.788 212.224 236.67 218.167C235.029 219.236 233.623 220.565 232.059 221.738C229.064 224.945 226.354 228.333 224.192 232.165C222.082 235.945 220.285 239.881 218.956 244.026C218.617 245.069 218.331 244.991 217.575 244.391C213.147 240.742 208.067 238.813 202.258 238.969C201.607 238.995 200.955 239.099 200.33 239.178C200.46 243.505 200.591 247.832 200.721 252.159C201.033 263.42 201.32 274.682 201.633 285.943C201.633 286.23 201.711 286.543 201.737 286.829C203.43 286.855 205.123 286.907 206.817 286.907C219.191 286.907 231.565 286.907 243.912 286.934C244.772 286.934 245.423 286.907 245.475 285.76C245.528 284.561 245.788 283.362 245.97 282.163C247.325 273.639 248.706 265.115 250.06 256.591C251.259 249.083 252.457 241.602 253.629 234.094C253.759 233.312 253.994 232.661 254.906 232.843C255.791 233.026 255.817 233.755 255.687 234.511C254.645 241.054 253.629 247.623 252.587 254.166C250.92 264.698 249.253 275.229 247.559 285.787C247.429 286.647 247.559 286.96 248.497 286.96C259.569 286.934 270.64 286.934 281.712 286.96C282.493 286.96 282.832 286.751 282.936 285.891C284.134 275.829 283.822 265.897 282.024 256.017ZM214.632 263.681C213.59 265.532 212.47 267.331 211.375 269.129C211.349 269.155 211.323 269.181 211.297 269.208C211.271 269.234 211.245 269.26 211.219 269.286C211.193 269.312 211.167 269.312 211.141 269.338C211.115 269.364 211.089 269.364 211.063 269.364C211.037 269.364 211.011 269.39 210.985 269.39C210.959 269.39 210.933 269.416 210.907 269.416C210.828 269.442 210.75 269.442 210.672 269.442C210.646 269.442 210.594 269.442 210.542 269.442C210.464 269.442 210.386 269.442 210.307 269.416C210.281 269.416 210.255 269.416 210.229 269.39C210.229 269.39 210.229 269.39 210.203 269.39C210.177 269.39 210.151 269.39 210.125 269.364C210.099 269.364 210.099 269.338 210.073 269.338C210.021 269.312 209.943 269.286 209.891 269.234C209.865 269.208 209.812 269.181 209.786 269.155C209.76 269.129 209.734 269.129 209.708 269.103C209.63 269.051 209.578 268.973 209.552 268.895C209.526 268.869 209.5 268.816 209.5 268.79C209.474 268.738 209.474 268.712 209.448 268.66C209.448 268.634 209.448 268.608 209.422 268.582C209.422 268.556 209.422 268.53 209.422 268.53C209.396 268.373 209.422 268.191 209.526 268.034C210.542 266.184 211.636 264.359 212.756 262.56C213.095 262.013 213.694 261.935 214.241 262.274C214.788 262.638 214.892 263.238 214.632 263.681ZM241.307 262.117C240.734 262.247 240.317 262.013 240.057 261.465C239.301 259.823 238.546 258.181 237.791 256.513C236.853 254.427 235.915 252.342 234.951 250.256C234.638 249.579 234.586 248.953 235.316 248.588C236.097 248.223 236.644 248.64 236.983 249.344C238.65 252.993 240.291 256.669 241.933 260.318C242.037 260.553 242.089 260.814 242.141 260.97C242.115 261.648 241.828 262.013 241.307 262.117ZM270.64 267.774C268.374 271.475 266.107 275.177 263.841 278.879C262.903 280.391 261.965 281.902 261.054 283.414C260.793 283.831 260.507 284.196 259.959 284.223C259.022 284.223 258.657 283.284 259.256 282.267C260.506 280.182 261.809 278.123 263.059 276.063C264.857 273.144 266.628 270.198 268.4 267.279C268.53 267.07 268.686 266.835 268.817 266.627C269.207 266.027 269.702 265.558 270.432 265.975C271.239 266.444 271.057 267.122 270.64 267.774Z" fill="#02DAA0"/>
<path d="M221.667 285.916C221.354 274.655 221.068 263.394 220.755 252.133C220.625 247.805 220.495 243.478 220.364 239.151C220.182 235.423 220 231.696 219.817 227.968C219.713 225.804 219.661 223.641 219.583 221.477C218.853 210.503 218.437 199.476 217.264 188.527C216.379 180.134 212.966 173.356 205.88 168.612C201.686 165.796 197.049 164.076 192.204 162.799C188.583 161.834 184.91 161.391 181.237 160.739C177.251 160.4 173.291 160.009 169.28 160.009C168.238 160.009 167.612 159.671 167.039 158.836C165.893 157.22 164.669 155.63 163.366 154.118C163.054 153.753 162.767 153.519 162.741 153.023C162.533 147.158 162.298 141.293 162.064 135.454C162.038 135.01 162.012 134.619 162.376 134.255C165.711 131.1 167.169 126.982 168.264 122.707C168.498 121.82 168.863 121.481 169.775 121.299C173.864 120.517 177.694 119.083 180.898 116.268C185.405 112.332 186.447 106.649 183.685 101.279C181.393 96.8213 176.73 94.9705 170.947 96.3781C169.801 96.6649 169.384 96.326 168.889 95.4136C165.997 90.0176 162.585 84.9344 158.026 80.7636C155.994 78.9128 153.806 77.2705 151.175 76.3581C147.762 75.1851 145.001 77.2184 145.001 80.7897C145.001 81.1025 145.209 81.4414 144.87 81.7802C144.454 81.4674 144.037 81.1546 143.62 80.8418C138.071 76.8795 132.106 73.7253 125.489 71.9788C122.102 71.0925 118.976 72.0309 117.361 74.2988C115.642 76.697 115.694 80.2944 117.518 83.1358C118.351 84.4391 119.419 85.5079 120.644 86.4203C121.165 86.8113 121.373 87.0198 120.852 87.6715C119.107 89.8352 119.471 92.3377 121.66 94.0842C122.962 95.1269 124.473 95.8568 126.062 96.2217C127.312 96.5085 127.182 96.9777 126.765 97.8901C125.854 99.9494 125.254 102.139 124.942 104.381C124.551 107.248 124.16 110.142 123.796 113.035C123.118 118.562 122.415 124.062 122.623 129.641C122.884 136.392 126.166 140.771 132.262 142.414C134.06 142.909 135.909 143.222 137.785 143.274C138.254 143.274 138.749 143.222 138.749 143.952C138.801 147.784 138.853 151.59 138.931 155.421C138.931 155.708 138.983 156.125 138.514 156.021C137.602 155.865 137.212 156.516 136.743 157.09C135.727 158.341 134.685 159.566 133.695 160.818C133.278 161.339 132.835 161.547 132.158 161.573C127.208 161.704 122.285 161.991 117.361 162.538C110.849 163.268 104.388 164.311 98.2142 166.657C89.8781 169.785 84.3294 175.441 82.1932 184.252C81.4117 187.485 81.047 190.743 80.7344 194.028C79.9269 202.943 79.7445 211.884 79.8227 220.825C79.8227 221.19 79.9529 221.607 79.6403 221.998C79.2496 221.581 79.2756 221.034 79.1714 220.565C77.5042 212.093 75.863 203.621 74.2218 195.149C73.3101 190.378 72.2681 185.608 71.6429 180.811C70.6529 173.2 71.1739 165.562 71.721 157.924C71.9555 154.692 72.3983 151.433 71.8252 148.175C71.6168 146.897 71.226 145.672 69.7151 145.359C68.0739 145.02 66.7454 145.594 65.8336 147.08C64.974 148.461 64.4529 149.973 64.0101 151.511C63.3328 153.883 62.7336 156.282 61.9782 158.654C61.4832 160.27 60.5454 161.6 59.0084 162.46C58.1227 162.955 57.5757 162.903 57.1328 161.834C55.8563 158.941 54.7622 155.969 53.616 153.023C51.8967 148.618 50.2555 144.186 47.911 140.068C47.1034 138.634 46.1917 137.252 44.811 136.262C43.5606 135.375 42.1538 135.454 40.9816 136.418C39.9396 137.252 39.627 138.399 39.6009 139.651C39.5488 141.632 40.0698 143.509 40.6429 145.385C40.7992 145.881 42.1324 150.288 42.1324 150.288C42.1324 150.288 40.5387 146.611 40.4606 146.48C39.0539 144.291 37.7774 141.971 35.8236 140.224C33.5051 138.191 30.2749 139.155 29.4673 142.127C29.2589 142.909 28.9463 143.118 28.1909 143.17C25.664 143.43 24.4917 144.499 24.153 146.923C24.0488 147.705 23.632 147.653 23.111 147.653C20.5321 147.705 19.2556 149.27 19.7245 151.85C20.0631 153.727 20.7926 155.5 21.522 157.272C24.7783 165.301 28.5556 173.121 31.6295 181.229C34.5471 188.892 37.3866 196.556 39.3404 204.533C41.0858 209.799 42.2059 215.221 43.5085 220.617C44.1858 223.484 44.837 226.352 45.5143 229.219C47.2597 235.893 48.8488 242.592 50.8026 249.213C53.069 256.747 55.4916 264.202 59.2168 271.162C61.7177 275.828 64.7656 279.999 69.7151 282.345C70.9134 282.919 72.216 283.336 73.4664 283.805C76.8008 284.483 80.1613 284.691 83.5479 284.118C90.2168 282.971 96.026 280.051 101.262 275.854C101.549 275.62 101.731 275.203 102.434 275.411C102.434 278.982 102.434 282.632 102.434 286.281C102.434 287.037 102.486 287.872 103.502 287.898C104.544 287.898 104.571 287.089 104.544 286.307C104.336 269.859 104.154 253.41 103.945 236.961C103.945 236.675 103.815 236.231 104.128 236.127C105.404 235.71 105.144 234.667 105.144 233.729C105.144 226.247 105.144 218.792 105.17 211.311C105.17 210.868 104.909 210.32 105.639 210.007C109.025 208.652 109.833 207.453 109.833 203.855C109.833 191.603 109.859 179.352 109.807 167.1C109.807 165.927 110.171 165.588 111.239 165.431C118.091 164.441 124.942 163.946 131.845 163.685C132.549 163.659 132.939 163.92 133.356 164.441C136.977 169.211 140.624 173.956 144.271 178.726C145.287 180.055 146.095 179.951 146.798 178.387C147.449 176.979 148.049 175.52 148.7 174.112C148.934 173.617 148.96 172.965 149.586 172.652C149.82 173.226 149.716 173.747 149.716 174.242C149.716 184.018 149.716 193.793 149.716 203.569C149.716 203.96 149.716 204.351 149.716 204.742C149.716 205.471 150.054 205.941 150.784 205.915C151.539 205.915 151.826 205.393 151.826 204.689C151.826 204.351 151.826 203.986 151.826 203.647C151.826 193.037 151.826 182.454 151.826 171.844C151.826 171.453 151.617 170.984 152.06 170.567C153.623 173.017 155.134 175.415 156.671 177.84C157.791 179.612 158.495 179.586 159.485 177.814C162.194 172.965 164.955 168.143 167.612 163.268C168.159 162.277 168.785 161.991 169.879 162.069C173.917 162.303 177.928 162.564 181.94 163.007C183.034 163.138 183.347 163.424 183.347 164.571C183.295 177.918 183.321 191.239 183.321 204.585C183.321 206.618 183.946 208.521 185.796 209.251C187.853 210.059 187.958 211.441 187.958 213.135C187.958 213.787 188.01 214.439 188.036 215.09C188.374 221.555 188.687 228.02 189 234.485C189.026 234.98 189 235.658 189.521 235.684C190.953 235.788 190.641 236.805 190.693 237.639C190.719 238.16 190.667 238.682 190.693 239.203C191.084 246.215 191.527 253.254 191.917 260.266C192.386 268.946 192.803 277.601 193.246 286.281L193.246 286.286C193.272 286.989 193.3 287.742 194.184 287.924C194.661 288.01 194.603 286.237 194.809 285.969C194.974 285.753 195.434 287.081 195.538 286.803C195.095 283.023 195.095 279.217 194.809 275.411C194.705 274.082 194.679 272.726 194.627 271.397C194.106 261.517 193.585 251.663 193.011 241.784C192.933 240.48 193.298 240.428 194.418 240.663C200.566 241.888 206.766 242.462 212.992 241.289C214.295 240.845 215.623 240.454 216.9 239.907C217.942 239.464 218.176 239.777 218.202 240.793C218.28 244.782 218.437 248.77 218.567 252.784C218.879 263.837 219.192 274.916 219.505 285.969C219.505 286.281 219.479 286.568 219.479 286.881C219.653 287.453 219.19 285.969 219.851 285.966C219.719 284.92 220.67 287.926 220.703 287.924C221.38 287.872 221.589 287.376 221.745 286.829C221.719 286.516 221.667 286.203 221.667 285.916ZM82.584 197.912C82.9227 193.011 83.2613 188.136 84.668 183.366C86.8302 175.989 91.8058 171.349 98.8134 168.664C98.9176 168.612 99.0739 168.638 99.2823 168.638V170.202C99.2823 181.62 99.2823 193.037 99.2823 204.455C99.2823 206.097 99.7512 207.531 100.976 208.678C101.34 209.043 101.523 209.408 101.523 209.929C101.497 218.479 101.523 227.029 101.523 235.632C99.4907 234.746 97.094 234.25 94.6714 233.911C90.9722 233.364 87.247 233.155 83.5218 233.208C82.5579 233.234 82.2974 232.973 82.2714 232.008C81.8025 220.643 81.7764 209.277 82.584 197.912ZM101.21 273.065C95.2966 278.226 88.6277 281.667 80.7084 282.319C80.5 282.345 80.2655 282.345 80.0571 282.371C80.0311 282.371 79.979 282.371 79.9529 282.371C79.8487 282.371 79.7445 282.371 79.6403 282.371C79.3798 282.371 79.0932 282.371 78.8327 282.371C78.7546 282.371 78.7025 282.371 78.6243 282.371C78.3899 282.371 78.1554 282.345 77.921 282.345C77.7386 282.345 77.5823 282.319 77.426 282.293C77.2697 282.267 77.0874 282.267 76.9311 282.241C76.7748 282.215 76.6185 282.189 76.4622 282.163C76.358 282.163 76.2798 282.137 76.1756 282.111C76.0193 282.084 75.8891 282.058 75.7328 282.032C75.6546 282.006 75.5765 282.006 75.4983 281.98C75.4202 281.954 75.3159 281.928 75.2117 281.902C75.1336 281.876 75.0554 281.876 74.9773 281.85C74.821 281.798 74.6386 281.772 74.4823 281.72C74.326 281.667 74.1437 281.615 73.9874 281.563C73.8832 281.537 73.779 281.485 73.6487 281.459C73.258 281.381 72.8933 281.302 72.5025 281.198C72.3202 281.146 72.1378 281.094 71.9555 281.016C71.8252 280.964 71.695 280.911 71.5647 280.885C71.4344 280.859 71.3042 280.781 71.1739 280.729C71.0958 280.703 71.0176 280.677 70.9395 280.625H70.9134C70.8092 280.573 70.679 280.52 70.5748 280.468C70.4445 280.39 70.2882 280.338 70.158 280.26C70.0277 280.182 69.8975 280.129 69.7672 280.051C69.6109 279.973 69.4807 279.895 69.3504 279.791C69.2202 279.712 69.0899 279.634 68.9857 279.556C68.8815 279.478 68.7773 279.426 68.6731 279.347C68.595 279.295 68.5168 279.243 68.4387 279.191C68.2563 279.061 68.0739 278.93 67.8916 278.774C67.6832 278.617 67.5008 278.461 67.3185 278.305C66.8496 277.914 66.3807 277.471 65.9378 277.027C62.8639 273.925 60.8841 270.119 59.1387 266.183C54.9706 256.799 52.2614 246.945 49.7345 237.039C49.1614 234.772 48.3538 232.556 48.1975 230.21C47.2076 228.02 46.9211 225.648 46.374 223.354C43.5866 211.754 40.7732 200.18 36.7614 188.919C33.0362 178.439 28.5556 168.299 24.127 158.106C23.1892 155.969 22.1993 153.831 21.8346 151.485C21.6001 150.104 22.3295 149.504 23.632 149.817C24.2052 149.947 24.3354 150.416 24.5438 150.834C27.4875 156.308 30.4051 161.756 33.3228 167.23C33.4009 167.387 33.4791 167.543 33.5572 167.699C33.9219 168.403 34.4429 168.846 35.2245 168.403C35.9539 167.986 35.8236 167.334 35.4589 166.709C35.0161 165.901 34.5992 165.093 34.1824 164.285C31.7337 159.723 29.311 155.187 26.8623 150.651C26.185 149.4 26.185 148.07 26.2892 146.741C26.3673 145.855 27.1228 145.49 27.9564 145.359C28.8421 145.229 29.5976 145.255 30.1186 146.272C33.1404 151.981 36.2144 157.663 39.2623 163.372C39.3144 163.476 39.3925 163.607 39.4446 163.711C39.7833 164.441 40.2782 165.067 41.1379 164.571C41.9194 164.128 41.711 163.424 41.3463 162.747C40.0177 160.27 38.6892 157.768 37.3606 155.291C35.511 151.85 33.6614 148.409 31.8119 144.968C31.4211 144.265 31.1866 143.535 31.4471 142.727C31.9161 141.319 33.2707 140.902 34.3908 141.866C35.4068 142.727 36.1623 143.769 36.8396 144.89C39.9656 149.947 43.0656 155.004 46.1656 160.088C46.2959 160.296 46.4261 160.531 46.5824 160.765C46.9471 161.339 47.416 161.678 48.0933 161.339C48.7706 160.974 48.7446 160.374 48.5101 159.775C47.6244 157.559 46.7127 155.343 45.827 153.154C44.5244 149.947 43.1959 146.741 42.232 143.404C41.9454 142.414 41.711 141.371 41.6849 140.328C41.6844 140.31 41.6839 140.291 41.6834 140.273C41.6573 139.322 41.6282 138.262 42.727 137.904C43.769 137.565 44.29 138.504 44.7849 139.181C46.4261 141.397 47.4942 143.9 48.6143 146.402C51.0891 151.981 52.8866 157.872 55.5177 163.398C55.8824 164.154 55.4135 164.285 54.9967 164.545C51.1152 166.943 48.7706 170.384 47.9891 174.868C47.6505 176.849 47.7286 178.856 48.1454 180.838C48.3017 181.593 48.6143 182.219 49.5 182.063C50.4379 181.906 50.3858 181.176 50.2555 180.42C49.2916 175.337 50.5421 170.958 54.5278 167.517C55.8563 166.37 57.4194 165.562 59.0084 164.91C62.1084 163.659 63.5412 161.182 64.4269 158.185C65.2345 155.343 65.7815 152.424 66.9798 149.713C67.3966 148.774 67.6571 147.288 69.0118 147.575C70.3143 147.836 69.8714 149.322 69.8975 150.26C70.0017 154.561 69.5067 158.836 69.2723 163.138C68.8815 170.358 68.6992 177.579 70.0538 184.696C73.3361 201.822 76.4882 218.975 80.1353 236.023C81.021 240.22 82.0369 244.391 83.1311 248.535C83.2353 248.9 83.3655 249.291 83.4697 249.656C83.6781 250.36 84.0949 250.855 84.8764 250.595C85.6579 250.334 85.684 249.734 85.5016 249.005C84.7722 246.241 84.0428 243.478 83.3655 240.689C83.0269 239.255 82.7664 237.795 82.4538 236.362C82.2975 235.658 82.5058 235.371 83.3134 235.371C88.1327 235.501 92.952 235.658 97.6672 236.675C97.7453 236.701 97.8235 236.701 97.9277 236.727C101.627 237.639 101.809 237.848 101.861 241.627C101.992 251.299 102.096 260.996 102.252 270.667C102.278 271.657 101.992 272.361 101.21 273.065ZM149.065 167.804C147.762 170.619 146.564 173.486 145.261 176.51C142.422 172.809 139.686 169.29 137.003 165.718C136.274 164.78 134.945 163.894 135.075 162.799C135.206 161.808 136.404 160.948 137.133 160.035C137.238 159.905 137.368 159.775 137.446 159.618C137.993 158.706 138.488 158.576 139.426 159.332C142.422 161.704 145.496 163.946 148.57 166.214C149.221 166.657 149.403 167.022 149.065 167.804ZM151.487 164.363C150.836 164.988 150.445 164.962 149.768 164.441C147.215 162.486 144.662 160.531 142.057 158.654C141.354 158.133 141.067 157.611 141.067 156.725C141.015 152.111 140.911 147.523 140.833 142.909C140.807 141.371 140.598 141.215 139.087 141.162C136.117 141.084 133.2 140.798 130.491 139.416C127.312 137.8 125.437 135.271 124.942 131.726C124.317 127.164 124.812 122.628 125.307 118.093C125.828 113.479 126.427 108.865 127.078 104.277C127.391 102.035 128.068 99.8712 129.058 97.8379C131.559 92.7026 135.883 90.5911 141.38 90.4608C141.77 90.4608 142.161 90.4608 142.838 90.4608C147.085 90.7475 151.513 91.4514 155.629 93.5107C159.068 95.2312 161.725 97.6294 162.454 101.644C162.663 102.713 163.548 102.869 164.408 102.087C167.638 99.0371 171.468 97.7858 175.844 98.1768C178.085 98.3854 179.882 99.4281 181.159 101.305C184.18 105.658 183.529 111.106 179.517 114.599C176.339 117.363 172.51 118.718 168.42 119.344C167.117 119.552 166.57 120.048 166.336 121.325C165.789 124.14 164.825 126.851 163.444 129.38C162.845 130.449 162.246 131.57 161.256 132.273C160.006 133.186 159.771 134.307 159.849 135.74C160.162 141.997 160.344 148.227 160.631 154.483C160.657 155.239 160.449 155.76 159.901 156.282C157.114 158.941 154.275 161.626 151.487 164.363ZM163.861 165.64C161.985 169.003 160.084 172.366 158.052 175.989C156.124 172.939 154.327 170.124 152.529 167.334C152.191 166.813 152.321 166.5 152.738 166.109C155.89 163.111 159.016 160.114 162.142 157.09C162.637 156.621 162.923 156.673 163.21 157.22C163.236 157.246 163.262 157.298 163.288 157.324C164.252 158.654 165.841 159.905 166.023 161.339C166.206 162.773 164.669 164.206 163.861 165.64ZM216.926 237.613C212.393 239.646 207.652 240.037 202.78 239.672C199.758 239.464 196.763 238.89 193.767 238.369C193.011 238.239 192.803 237.874 192.777 237.144L192.777 237.136C192.334 228.25 191.891 219.363 191.396 210.476C191.344 209.721 191.527 209.225 192.126 208.704C193.48 207.557 193.871 205.993 193.845 204.246C193.819 196.556 193.845 188.866 193.845 181.176C193.845 176.406 193.845 171.61 193.845 166.839C193.845 165.405 193.845 165.405 195.278 165.875C198.039 166.787 200.696 167.934 203.223 169.42C210.387 173.669 214.216 179.977 215.102 188.241C216.196 198.616 216.821 209.017 217.29 219.418C217.525 224.892 217.759 230.34 218.046 235.814C218.072 236.805 217.759 237.248 216.926 237.613Z" fill="white"/>
<path d="M104.544 286.307C104.571 287.089 104.544 287.898 103.502 287.898L194.184 287.924C193.3 287.742 193.272 286.989 193.246 286.286L193.246 286.281C192.803 277.601 192.386 268.946 191.917 260.266C191.527 253.254 191.084 246.215 190.693 239.203C190.667 238.682 190.719 238.16 190.693 237.639C190.641 236.805 190.953 235.788 189.521 235.684C189 235.658 189.026 234.98 189 234.485C188.687 228.02 188.374 221.555 188.036 215.09C188.01 214.439 187.958 213.787 187.958 213.135C187.958 211.441 187.853 210.059 185.796 209.251C183.946 208.521 183.321 206.618 183.321 204.585C183.321 191.239 183.295 177.918 183.347 164.571C183.347 163.424 183.034 163.138 181.94 163.007C177.928 162.564 173.917 162.303 169.879 162.069C168.785 161.991 168.159 162.277 167.612 163.268C164.955 168.143 162.194 172.965 159.485 177.814C158.495 179.586 157.791 179.612 156.671 177.84C155.134 175.415 153.623 173.017 152.06 170.567C151.617 170.984 151.826 171.453 151.826 171.844V203.647V204.689C151.826 205.393 151.539 205.915 150.784 205.915C150.054 205.941 149.716 205.471 149.716 204.742V203.569V174.242C149.716 173.747 149.82 173.226 149.586 172.652C148.96 172.965 148.934 173.617 148.7 174.112C148.049 175.52 147.449 176.979 146.798 178.387C146.095 179.951 145.287 180.055 144.271 178.726C140.624 173.956 136.977 169.211 133.356 164.441C132.939 163.92 132.549 163.659 131.845 163.685C124.942 163.946 118.091 164.441 111.239 165.431C110.171 165.588 109.807 165.927 109.807 167.1C109.859 179.352 109.833 191.603 109.833 203.855C109.833 207.453 109.025 208.652 105.639 210.007C104.909 210.32 105.17 210.868 105.17 211.311C105.144 218.792 105.144 226.247 105.144 233.729C105.144 234.667 105.404 235.71 104.128 236.127C103.815 236.231 103.945 236.675 103.945 236.961C104.154 253.41 104.336 269.859 104.544 286.307Z" fill="white"/>
<path d="M194.809 275.411C195.095 279.217 195.095 283.023 195.538 286.803C195.434 287.081 194.974 285.753 194.809 285.969L219.851 285.966C219.19 285.969 219.653 287.453 219.479 286.881C219.479 286.568 219.505 286.281 219.505 285.969C219.192 274.916 218.879 263.837 218.567 252.784C218.437 248.77 218.28 244.782 218.202 240.793C218.176 239.777 217.942 239.464 216.9 239.907C215.623 240.454 214.295 240.845 212.992 241.289C206.766 242.462 200.566 241.888 194.418 240.663C193.298 240.428 192.933 240.48 193.011 241.784C193.585 251.663 194.106 261.517 194.627 271.397C194.679 272.726 194.705 274.082 194.809 275.411Z" fill="white"/>
<path d="M216.926 237.613C212.393 239.646 207.652 240.037 202.78 239.672C199.758 239.464 196.763 238.89 193.767 238.369C193.011 238.239 192.803 237.874 192.777 237.144L192.777 237.136C192.334 228.25 191.891 219.363 191.396 210.476C191.344 209.721 191.527 209.225 192.126 208.704C193.48 207.557 193.871 205.993 193.845 204.246C193.819 196.556 193.845 188.866 193.845 181.176V166.839C193.845 165.405 193.845 165.405 195.278 165.875C198.039 166.787 200.696 167.934 203.223 169.42C210.387 173.669 214.216 179.977 215.102 188.241C216.196 198.616 216.821 209.017 217.29 219.418C217.525 224.892 217.759 230.34 218.046 235.814C218.072 236.805 217.759 237.248 216.926 237.613Z" fill="white"/>
<path d="M82.584 197.912C82.9227 193.011 83.2613 188.136 84.668 183.366C86.8302 175.989 91.8058 171.349 98.8134 168.664C98.9176 168.612 99.0739 168.638 99.2823 168.638V170.202V204.455C99.2823 206.097 99.7512 207.531 100.976 208.678C101.34 209.043 101.523 209.408 101.523 209.929C101.497 218.479 101.523 227.029 101.523 235.632C99.4907 234.746 97.094 234.25 94.6714 233.911C90.9722 233.364 87.247 233.155 83.5218 233.208C82.5579 233.234 82.2974 232.973 82.2714 232.008C81.8025 220.643 81.7764 209.277 82.584 197.912Z" fill="white"/>
<path d="M101.21 273.065C95.2966 278.226 88.6277 281.667 80.7084 282.319C80.5 282.345 80.2655 282.345 80.0571 282.371H79.9529H79.6403H78.8327H78.6243C78.3899 282.371 78.1554 282.345 77.921 282.345C77.7386 282.345 77.5823 282.319 77.426 282.293C77.2697 282.267 77.0874 282.267 76.9311 282.241L76.4622 282.163C76.358 282.163 76.2798 282.137 76.1756 282.111C76.0193 282.084 75.8891 282.058 75.7328 282.032C75.6546 282.006 75.5765 282.006 75.4983 281.98C75.4202 281.954 75.3159 281.928 75.2117 281.902C75.1336 281.876 75.0554 281.876 74.9773 281.85C74.821 281.798 74.6386 281.772 74.4823 281.72C74.326 281.667 74.1437 281.615 73.9874 281.563C73.8832 281.537 73.779 281.485 73.6487 281.459C73.258 281.381 72.8933 281.302 72.5025 281.198C72.3202 281.146 72.1378 281.094 71.9555 281.016C71.8252 280.964 71.695 280.911 71.5647 280.885C71.4344 280.859 71.3042 280.781 71.1739 280.729C71.0958 280.703 71.0176 280.677 70.9395 280.625H70.9134C70.8092 280.573 70.679 280.52 70.5748 280.468C70.4445 280.39 70.2882 280.338 70.158 280.26C70.0277 280.182 69.8975 280.129 69.7672 280.051C69.6109 279.973 69.4807 279.895 69.3504 279.791C69.2202 279.712 69.0899 279.634 68.9857 279.556C68.8815 279.478 68.7773 279.426 68.6731 279.347L68.4387 279.191C68.2563 279.061 68.0739 278.93 67.8916 278.774C67.6832 278.617 67.5008 278.461 67.3185 278.305C66.8496 277.914 66.3807 277.471 65.9378 277.027C62.8639 273.925 60.8841 270.119 59.1387 266.183C54.9706 256.799 52.2614 246.945 49.7345 237.039C49.1614 234.772 48.3538 232.556 48.1975 230.21C47.2076 228.02 46.9211 225.648 46.374 223.354C43.5866 211.754 40.7732 200.18 36.7614 188.919C33.0362 178.439 28.5556 168.299 24.127 158.106C23.1892 155.969 22.1993 153.831 21.8346 151.485C21.6001 150.104 22.3295 149.504 23.632 149.817C24.2052 149.947 24.3354 150.416 24.5438 150.834C27.4875 156.308 30.4051 161.756 33.3228 167.23L33.5572 167.699C33.9219 168.403 34.4429 168.846 35.2245 168.403C35.9539 167.986 35.8236 167.334 35.4589 166.709C35.0161 165.901 34.5992 165.093 34.1824 164.285C31.7337 159.723 29.311 155.187 26.8623 150.651C26.185 149.4 26.185 148.07 26.2892 146.741C26.3673 145.855 27.1228 145.49 27.9564 145.359C28.8421 145.229 29.5976 145.255 30.1186 146.272C33.1404 151.981 36.2144 157.663 39.2623 163.372C39.3144 163.476 39.3925 163.607 39.4446 163.711C39.7833 164.441 40.2782 165.067 41.1379 164.571C41.9194 164.128 41.711 163.424 41.3463 162.747C40.0177 160.27 38.6892 157.768 37.3606 155.291L31.8119 144.968C31.4211 144.265 31.1866 143.535 31.4471 142.727C31.9161 141.319 33.2707 140.902 34.3908 141.866C35.4068 142.727 36.1623 143.769 36.8396 144.89C39.9656 149.947 43.0656 155.004 46.1656 160.088C46.2959 160.296 46.4261 160.531 46.5824 160.765C46.9471 161.339 47.416 161.678 48.0933 161.339C48.7706 160.974 48.7446 160.374 48.5101 159.775C47.6244 157.559 46.7127 155.343 45.827 153.154C44.5244 149.947 43.1959 146.741 42.232 143.404C41.9454 142.414 41.711 141.371 41.6849 140.328L41.6834 140.273C41.6573 139.322 41.6282 138.262 42.727 137.904C43.769 137.565 44.29 138.504 44.7849 139.181C46.4261 141.397 47.4942 143.9 48.6143 146.402C51.0891 151.981 52.8866 157.872 55.5177 163.398C55.8824 164.154 55.4135 164.285 54.9967 164.545C51.1152 166.943 48.7706 170.384 47.9891 174.868C47.6505 176.849 47.7286 178.856 48.1454 180.838C48.3017 181.593 48.6143 182.219 49.5 182.063C50.4379 181.906 50.3858 181.176 50.2555 180.42C49.2916 175.337 50.5421 170.958 54.5278 167.517C55.8563 166.37 57.4194 165.562 59.0084 164.91C62.1084 163.659 63.5412 161.182 64.4269 158.185C65.2345 155.343 65.7815 152.424 66.9798 149.713C67.3966 148.774 67.6571 147.288 69.0118 147.575C70.3143 147.836 69.8714 149.322 69.8975 150.26C70.0017 154.561 69.5067 158.836 69.2723 163.138C68.8815 170.358 68.6992 177.579 70.0538 184.696C73.3361 201.822 76.4882 218.975 80.1353 236.023C81.021 240.22 82.0369 244.391 83.1311 248.535C83.2353 248.9 83.3655 249.291 83.4697 249.656C83.6781 250.36 84.0949 250.855 84.8764 250.595C85.6579 250.334 85.684 249.734 85.5016 249.005C84.7722 246.241 84.0428 243.478 83.3655 240.689C83.0269 239.255 82.7664 237.795 82.4538 236.362C82.2975 235.658 82.5058 235.371 83.3134 235.371C88.1327 235.501 92.952 235.658 97.6672 236.675C97.7453 236.701 97.8235 236.701 97.9277 236.727C101.627 237.639 101.809 237.848 101.861 241.627C101.992 251.299 102.096 260.996 102.252 270.667C102.278 271.657 101.992 272.361 101.21 273.065Z" fill="white"/>
<path d="M149.065 167.804C147.762 170.619 146.564 173.486 145.261 176.51C142.422 172.809 139.686 169.29 137.003 165.718C136.274 164.78 134.945 163.894 135.075 162.799C135.206 161.808 136.404 160.948 137.133 160.035C137.238 159.905 137.368 159.775 137.446 159.618C137.993 158.706 138.488 158.576 139.426 159.332C142.422 161.704 145.496 163.946 148.57 166.214C149.221 166.657 149.403 167.022 149.065 167.804Z" fill="white"/>
<path d="M163.861 165.64C161.985 169.003 160.084 172.366 158.052 175.989C156.124 172.939 154.327 170.124 152.529 167.334C152.191 166.813 152.321 166.5 152.738 166.109C155.89 163.111 159.016 160.114 162.142 157.09C162.637 156.621 162.923 156.673 163.21 157.22C163.236 157.246 163.262 157.298 163.288 157.324C164.252 158.654 165.841 159.905 166.023 161.339C166.206 162.773 164.669 164.206 163.861 165.64Z" fill="white"/>
<path d="M151.487 164.363C150.836 164.988 150.445 164.962 149.768 164.441C147.215 162.486 144.662 160.531 142.057 158.654C141.354 158.133 141.067 157.611 141.067 156.725C141.015 152.111 140.911 147.523 140.833 142.909C140.807 141.371 140.598 141.215 139.087 141.162C136.117 141.084 133.2 140.798 130.491 139.416C127.312 137.8 125.437 135.271 124.942 131.726C124.317 127.164 124.812 122.628 125.307 118.093C125.828 113.479 126.427 108.865 127.078 104.277C127.391 102.035 128.068 99.8712 129.058 97.8379C131.559 92.7026 135.883 90.5911 141.38 90.4608H142.838C147.085 90.7475 151.513 91.4514 155.629 93.5107C159.068 95.2312 161.725 97.6294 162.454 101.644C162.663 102.713 163.548 102.869 164.408 102.087C167.638 99.0371 171.468 97.7858 175.844 98.1768C178.085 98.3854 179.882 99.4281 181.159 101.305C184.18 105.658 183.529 111.106 179.517 114.599C176.339 117.363 172.51 118.718 168.42 119.344C167.117 119.552 166.57 120.048 166.336 121.325C165.789 124.14 164.825 126.851 163.444 129.38C162.845 130.449 162.246 131.57 161.256 132.273C160.006 133.186 159.771 134.307 159.849 135.74C160.162 141.997 160.344 148.227 160.631 154.483C160.657 155.239 160.449 155.76 159.901 156.282C157.114 158.941 154.275 161.626 151.487 164.363Z" fill="white"/>
<path d="M221.667 285.916C221.354 274.655 221.068 263.394 220.755 252.133C220.625 247.805 220.495 243.478 220.364 239.151C220.182 235.423 220 231.696 219.817 227.968C219.713 225.804 219.661 223.641 219.583 221.477C218.853 210.503 218.437 199.476 217.264 188.527C216.379 180.134 212.966 173.356 205.88 168.612C201.686 165.796 197.049 164.076 192.204 162.799C188.583 161.834 184.91 161.391 181.237 160.739C177.251 160.4 173.291 160.009 169.28 160.009C168.238 160.009 167.612 159.671 167.039 158.836C165.893 157.22 164.669 155.63 163.366 154.118C163.054 153.753 162.767 153.519 162.741 153.023C162.533 147.158 162.298 141.293 162.064 135.454C162.038 135.01 162.012 134.619 162.376 134.255C165.711 131.1 167.169 126.982 168.264 122.707C168.498 121.82 168.863 121.481 169.775 121.299C173.864 120.517 177.694 119.083 180.898 116.268C185.405 112.332 186.447 106.649 183.685 101.279C181.393 96.8213 176.73 94.9705 170.947 96.3782C169.801 96.6649 169.384 96.326 168.889 95.4136C165.997 90.0176 162.585 84.9344 158.026 80.7636C155.994 78.9128 153.806 77.2705 151.175 76.3582C147.762 75.1851 145.001 77.2184 145.001 80.7897C145.001 81.1025 145.209 81.4414 144.87 81.7802C144.454 81.4674 144.037 81.1546 143.62 80.8418C138.071 76.8795 132.106 73.7253 125.489 71.9788C122.102 71.0925 118.976 72.0309 117.361 74.2988C115.642 76.697 115.694 80.2944 117.518 83.1358C118.351 84.4391 119.419 85.5079 120.644 86.4203C121.165 86.8113 121.373 87.0198 120.852 87.6715C119.107 89.8352 119.471 92.3377 121.66 94.0842C122.962 95.1269 124.473 95.8568 126.062 96.2217C127.312 96.5085 127.182 96.9777 126.765 97.8901C125.854 99.9494 125.254 102.139 124.942 104.381C124.551 107.248 124.16 110.142 123.796 113.035C123.118 118.562 122.415 124.062 122.623 129.641C122.884 136.392 126.166 140.771 132.262 142.414C134.06 142.909 135.909 143.222 137.785 143.274C138.254 143.274 138.749 143.222 138.749 143.952C138.801 147.784 138.853 151.59 138.931 155.422C138.931 155.708 138.983 156.125 138.514 156.021C137.602 155.865 137.212 156.516 136.743 157.09C135.727 158.341 134.685 159.566 133.695 160.818C133.278 161.339 132.835 161.547 132.158 161.573C127.208 161.704 122.285 161.991 117.361 162.538C110.849 163.268 104.388 164.311 98.2142 166.657C89.8781 169.785 84.3294 175.442 82.1932 184.252C81.4117 187.485 81.047 190.743 80.7344 194.028C79.9269 202.943 79.7445 211.884 79.8227 220.825C79.8227 221.19 79.9529 221.607 79.6403 221.998C79.2496 221.581 79.2756 221.034 79.1714 220.565C77.5042 212.093 75.863 203.621 74.2218 195.149C73.3101 190.378 72.2681 185.608 71.6429 180.811C70.6529 173.2 71.1739 165.562 71.721 157.924C71.9555 154.692 72.3983 151.433 71.8252 148.175C71.6168 146.897 71.226 145.672 69.7151 145.359C68.0739 145.02 66.7454 145.594 65.8336 147.08C64.974 148.461 64.4529 149.973 64.0101 151.511C63.3328 153.884 62.7336 156.282 61.9782 158.654C61.4832 160.27 60.5454 161.6 59.0084 162.46C58.1227 162.955 57.5757 162.903 57.1328 161.834C55.8563 158.941 54.7622 155.969 53.616 153.023C51.8967 148.618 50.2555 144.186 47.911 140.068C47.1034 138.634 46.1917 137.252 44.811 136.262C43.5606 135.375 42.1538 135.454 40.9816 136.418C39.9396 137.252 39.627 138.399 39.6009 139.651C39.5488 141.632 40.0698 143.509 40.6429 145.385C40.7992 145.881 42.1324 150.288 42.1324 150.288C42.1324 150.288 40.5387 146.611 40.4606 146.48C39.0539 144.291 37.7774 141.971 35.8236 140.224C33.5051 138.191 30.2749 139.155 29.4673 142.127C29.2589 142.909 28.9463 143.118 28.1909 143.17C25.664 143.43 24.4917 144.499 24.153 146.923C24.0488 147.705 23.632 147.653 23.111 147.653C20.5321 147.705 19.2556 149.27 19.7245 151.85C20.0631 153.727 20.7926 155.5 21.522 157.272C24.7783 165.301 28.5556 173.121 31.6295 181.229C34.5471 188.892 37.3866 196.556 39.3404 204.533C41.0858 209.799 42.2059 215.221 43.5085 220.617C44.1858 223.484 44.837 226.352 45.5143 229.219C47.2597 235.893 48.8488 242.592 50.8026 249.213C53.069 256.747 55.4916 264.202 59.2168 271.162C61.7177 275.828 64.7656 279.999 69.7151 282.345C70.9134 282.919 72.216 283.336 73.4664 283.805C76.8008 284.483 80.1613 284.691 83.5479 284.118C90.2168 282.971 96.026 280.051 101.262 275.854C101.549 275.62 101.731 275.203 102.434 275.411C102.434 278.982 102.434 282.632 102.434 286.281C102.434 287.037 102.486 287.872 103.502 287.898C104.544 287.898 104.571 287.09 104.544 286.307C104.336 269.859 104.154 253.41 103.945 236.961C103.945 236.675 103.815 236.231 104.128 236.127C105.404 235.71 105.144 234.667 105.144 233.729C105.144 226.247 105.144 218.792 105.17 211.311C105.17 210.868 104.909 210.32 105.639 210.007C109.025 208.652 109.833 207.453 109.833 203.855C109.833 191.603 109.859 179.352 109.807 167.1C109.807 165.927 110.171 165.588 111.239 165.432C118.091 164.441 124.942 163.946 131.845 163.685C132.549 163.659 132.939 163.92 133.356 164.441C136.977 169.211 140.624 173.956 144.271 178.726C145.287 180.055 146.095 179.951 146.798 178.387C147.449 176.98 148.049 175.52 148.7 174.112C148.934 173.617 148.96 172.965 149.586 172.652C149.82 173.226 149.716 173.747 149.716 174.242C149.716 184.018 149.716 193.793 149.716 203.569C149.716 203.96 149.716 204.351 149.716 204.742C149.716 205.472 150.054 205.941 150.784 205.915C151.539 205.915 151.826 205.393 151.826 204.689C151.826 204.351 151.826 203.986 151.826 203.647C151.826 193.037 151.826 182.454 151.826 171.844C151.826 171.453 151.617 170.984 152.06 170.567C153.623 173.017 155.134 175.415 156.671 177.84C157.791 179.612 158.495 179.586 159.485 177.814C162.194 172.965 164.955 168.143 167.612 163.268C168.159 162.277 168.785 161.991 169.879 162.069C173.917 162.303 177.928 162.564 181.94 163.007C183.034 163.138 183.347 163.424 183.347 164.571C183.295 177.918 183.321 191.239 183.321 204.585C183.321 206.618 183.946 208.521 185.796 209.251C187.853 210.059 187.958 211.441 187.958 213.135C187.958 213.787 188.01 214.439 188.036 215.09C188.374 221.555 188.687 228.02 189 234.485C189.026 234.98 189 235.658 189.521 235.684C190.953 235.788 190.641 236.805 190.693 237.639C190.719 238.16 190.667 238.682 190.693 239.203C191.084 246.215 191.527 253.254 191.917 260.266C192.386 268.946 192.803 277.601 193.246 286.281C193.272 286.985 193.298 287.741 194.184 287.924C195.043 288.08 195.304 287.428 195.538 286.803C195.095 283.023 195.095 279.217 194.809 275.411C194.705 274.082 194.679 272.726 194.627 271.397C194.106 261.517 193.585 251.663 193.011 241.784C192.933 240.48 193.298 240.428 194.418 240.663C200.566 241.888 206.766 242.462 212.992 241.289C214.295 240.845 215.623 240.454 216.9 239.907C217.942 239.464 218.176 239.777 218.202 240.793C218.28 244.782 218.437 248.77 218.567 252.784C218.879 263.837 219.192 274.916 219.505 285.969C219.505 286.281 219.479 286.568 219.479 286.881C219.661 287.481 219.974 287.976 220.703 287.924C221.38 287.872 221.589 287.376 221.745 286.829C221.719 286.516 221.667 286.203 221.667 285.916ZM82.584 197.912C82.9227 193.011 83.2613 188.136 84.668 183.366C86.8302 175.989 91.8058 171.349 98.8134 168.664C98.9176 168.612 99.0739 168.638 99.2823 168.638V170.202C99.2823 181.62 99.2823 193.037 99.2823 204.455C99.2823 206.097 99.7512 207.531 100.976 208.678C101.34 209.043 101.523 209.408 101.523 209.929C101.497 218.479 101.523 227.029 101.523 235.632C99.4907 234.746 97.094 234.25 94.6714 233.911C90.9722 233.364 87.247 233.155 83.5218 233.208C82.5579 233.234 82.2974 232.973 82.2714 232.008C81.8025 220.643 81.7764 209.277 82.584 197.912ZM101.21 273.065C95.2966 278.226 88.6277 281.667 80.7084 282.319C80.5 282.345 80.2655 282.345 80.0571 282.371C80.0311 282.371 79.979 282.371 79.9529 282.371C79.8487 282.371 79.7445 282.371 79.6403 282.371C79.3798 282.371 79.0932 282.371 78.8327 282.371C78.7546 282.371 78.7025 282.371 78.6243 282.371C78.3899 282.371 78.1554 282.345 77.921 282.345C77.7386 282.345 77.5823 282.319 77.426 282.293C77.2697 282.267 77.0874 282.267 76.9311 282.241C76.7748 282.215 76.6185 282.189 76.4622 282.163C76.358 282.163 76.2798 282.137 76.1756 282.111C76.0193 282.085 75.8891 282.058 75.7328 282.032C75.6546 282.006 75.5765 282.006 75.4983 281.98C75.4202 281.954 75.3159 281.928 75.2117 281.902C75.1336 281.876 75.0554 281.876 74.9773 281.85C74.821 281.798 74.6386 281.772 74.4823 281.72C74.326 281.667 74.1437 281.615 73.9874 281.563C73.8832 281.537 73.779 281.485 73.6487 281.459C73.258 281.381 72.8933 281.302 72.5025 281.198C72.3202 281.146 72.1378 281.094 71.9555 281.016C71.8252 280.964 71.695 280.911 71.5647 280.885C71.4344 280.859 71.3042 280.781 71.1739 280.729C71.0958 280.703 71.0176 280.677 70.9395 280.625H70.9134C70.8092 280.573 70.679 280.52 70.5748 280.468C70.4445 280.39 70.2882 280.338 70.158 280.26C70.0277 280.182 69.8975 280.129 69.7672 280.051C69.6109 279.973 69.4807 279.895 69.3504 279.791C69.2202 279.712 69.0899 279.634 68.9857 279.556C68.8815 279.478 68.7773 279.426 68.6731 279.347C68.595 279.295 68.5168 279.243 68.4387 279.191C68.2563 279.061 68.0739 278.93 67.8916 278.774C67.6832 278.617 67.5008 278.461 67.3185 278.305C66.8496 277.914 66.3807 277.471 65.9378 277.027C62.8639 273.925 60.8841 270.119 59.1387 266.183C54.9706 256.799 52.2614 246.945 49.7345 237.04C49.1614 234.772 48.3538 232.556 48.1975 230.21C47.2076 228.02 46.9211 225.648 46.374 223.354C43.5866 211.754 40.7732 200.18 36.7614 188.919C33.0362 178.439 28.5556 168.299 24.127 158.106C23.1892 155.969 22.1993 153.831 21.8346 151.485C21.6001 150.104 22.3295 149.504 23.632 149.817C24.2052 149.947 24.3354 150.417 24.5438 150.834C27.4875 156.308 30.4051 161.756 33.3228 167.23C33.4009 167.387 33.4791 167.543 33.5572 167.699C33.9219 168.403 34.4429 168.846 35.2245 168.403C35.9539 167.986 35.8236 167.334 35.4589 166.709C35.0161 165.901 34.5992 165.093 34.1824 164.285C31.7337 159.723 29.311 155.187 26.8623 150.651C26.185 149.4 26.185 148.07 26.2892 146.741C26.3673 145.855 27.1228 145.49 27.9564 145.359C28.8421 145.229 29.5976 145.255 30.1186 146.272C33.1404 151.981 36.2144 157.663 39.2623 163.372C39.3144 163.476 39.3925 163.607 39.4446 163.711C39.7833 164.441 40.2782 165.067 41.1379 164.571C41.9194 164.128 41.711 163.424 41.3463 162.747C40.0177 160.27 38.6892 157.768 37.3606 155.291C35.511 151.85 33.6614 148.409 31.8119 144.968C31.4211 144.265 31.1866 143.535 31.4471 142.727C31.9161 141.319 33.2707 140.902 34.3908 141.866C35.4068 142.727 36.1623 143.769 36.8396 144.89C39.9656 149.947 43.0656 155.004 46.1656 160.088C46.2959 160.296 46.4261 160.531 46.5824 160.765C46.9471 161.339 47.416 161.678 48.0933 161.339C48.7706 160.974 48.7446 160.374 48.5101 159.775C47.6244 157.559 46.7127 155.343 45.827 153.154C44.5244 149.947 43.1959 146.741 42.232 143.404C41.9454 142.414 41.711 141.371 41.6849 140.328C41.6589 139.364 41.6068 138.269 42.727 137.904C43.769 137.565 44.29 138.504 44.7849 139.181C46.4261 141.397 47.4942 143.9 48.6143 146.402C51.0891 151.981 52.8866 157.872 55.5177 163.398C55.8824 164.154 55.4135 164.285 54.9967 164.545C51.1152 166.943 48.7706 170.384 47.9891 174.868C47.6505 176.849 47.7286 178.856 48.1454 180.838C48.3017 181.593 48.6143 182.219 49.5 182.063C50.4379 181.906 50.3858 181.176 50.2555 180.42C49.2916 175.337 50.5421 170.958 54.5278 167.517C55.8563 166.37 57.4194 165.562 59.0084 164.91C62.1084 163.659 63.5412 161.182 64.4269 158.185C65.2345 155.343 65.7815 152.424 66.9798 149.713C67.3966 148.774 67.6571 147.288 69.0118 147.575C70.3143 147.836 69.8714 149.322 69.8975 150.26C70.0017 154.561 69.5067 158.836 69.2723 163.138C68.8815 170.358 68.6992 177.579 70.0538 184.696C73.3361 201.822 76.4882 218.975 80.1353 236.023C81.021 240.22 82.0369 244.391 83.1311 248.535C83.2353 248.9 83.3655 249.291 83.4697 249.656C83.6781 250.36 84.0949 250.855 84.8764 250.595C85.6579 250.334 85.684 249.734 85.5016 249.005C84.7722 246.241 84.0428 243.478 83.3655 240.689C83.0269 239.255 82.7664 237.795 82.4538 236.362C82.2975 235.658 82.5058 235.371 83.3134 235.371C88.1327 235.502 92.952 235.658 97.6672 236.675C97.7453 236.701 97.8235 236.701 97.9277 236.727C101.627 237.639 101.809 237.848 101.861 241.627C101.992 251.299 102.096 260.996 102.252 270.667C102.278 271.657 101.992 272.361 101.21 273.065ZM149.065 167.804C147.762 170.619 146.564 173.486 145.261 176.51C142.422 172.809 139.686 169.29 137.003 165.718C136.274 164.78 134.945 163.894 135.075 162.799C135.206 161.808 136.404 160.948 137.133 160.035C137.238 159.905 137.368 159.775 137.446 159.618C137.993 158.706 138.488 158.576 139.426 159.332C142.422 161.704 145.496 163.946 148.57 166.214C149.221 166.657 149.403 167.022 149.065 167.804ZM151.487 164.363C150.836 164.988 150.445 164.962 149.768 164.441C147.215 162.486 144.662 160.531 142.057 158.654C141.354 158.133 141.067 157.611 141.067 156.725C141.015 152.111 140.911 147.523 140.833 142.909C140.807 141.371 140.598 141.215 139.087 141.162C136.117 141.084 133.2 140.798 130.491 139.416C127.312 137.8 125.437 135.271 124.942 131.726C124.317 127.164 124.812 122.628 125.307 118.093C125.828 113.479 126.427 108.865 127.078 104.277C127.391 102.035 128.068 99.8712 129.058 97.8379C131.559 92.7026 135.883 90.5911 141.38 90.4608C141.77 90.4608 142.161 90.4608 142.838 90.4608C147.085 90.7475 151.513 91.4514 155.629 93.5107C159.068 95.2312 161.725 97.6294 162.454 101.644C162.663 102.713 163.548 102.869 164.408 102.087C167.638 99.0371 171.468 97.7858 175.844 98.1768C178.085 98.3854 179.882 99.4281 181.159 101.305C184.18 105.658 183.529 111.106 179.517 114.599C176.339 117.363 172.51 118.718 168.42 119.344C167.117 119.552 166.57 120.048 166.336 121.325C165.789 124.14 164.825 126.851 163.444 129.38C162.845 130.449 162.246 131.57 161.256 132.273C160.006 133.186 159.771 134.307 159.849 135.74C160.162 141.997 160.344 148.227 160.631 154.483C160.657 155.239 160.449 155.76 159.901 156.282C157.114 158.941 154.275 161.626 151.487 164.363ZM163.861 165.64C161.985 169.003 160.084 172.366 158.052 175.989C156.124 172.939 154.327 170.124 152.529 167.334C152.191 166.813 152.321 166.5 152.738 166.109C155.89 163.111 159.016 160.114 162.142 157.09C162.637 156.621 162.923 156.673 163.21 157.22C163.236 157.246 163.262 157.298 163.288 157.324C164.252 158.654 165.841 159.905 166.023 161.339C166.206 162.773 164.669 164.206 163.861 165.64ZM216.926 237.613C212.393 239.646 207.652 240.037 202.78 239.672C199.758 239.464 196.763 238.89 193.767 238.369C193.011 238.239 192.803 237.874 192.777 237.144C192.334 228.255 191.891 219.366 191.396 210.477C191.344 209.721 191.527 209.225 192.126 208.704C193.48 207.557 193.871 205.993 193.845 204.246C193.819 196.556 193.845 188.866 193.845 181.176C193.845 176.406 193.845 171.61 193.845 166.839C193.845 165.405 193.845 165.405 195.278 165.875C198.039 166.787 200.696 167.934 203.223 169.42C210.387 173.669 214.216 179.977 215.102 188.241C216.196 198.616 216.821 209.017 217.29 219.418C217.525 224.892 217.759 230.34 218.046 235.814C218.072 236.805 217.759 237.248 216.926 237.613Z" fill="#281E34"/>
<path d="M73.4134 283.83C72.1629 283.335 70.8865 282.944 69.6621 282.37C64.7125 280.024 61.6386 275.853 59.1638 271.187C55.4386 264.227 53.0159 256.772 50.7496 249.238C48.7697 242.643 47.2067 235.917 45.4613 229.244C41.3714 228.436 37.2815 228.436 33.2437 229.583C28.5546 230.912 24.5689 233.415 21.0521 236.725C17.848 239.723 15.3992 243.268 13.1328 246.97C11.3093 250.567 9.66814 254.243 8.54797 258.153C5.96899 267.042 5.39588 276.062 6.49 285.238C6.6463 286.437 6.9589 286.932 8.28747 286.906C18.7858 286.854 29.2841 286.88 39.7824 286.88C41.4496 286.88 41.5277 286.88 41.3454 285.159C40.3555 275.879 39.3655 266.599 38.3496 257.319C38.1672 255.677 38.0109 254.034 37.8807 252.392C37.8286 251.767 38.063 251.271 38.7664 251.167C39.4697 251.089 39.7823 251.506 39.8866 252.158C39.9647 252.627 40.0429 253.096 40.095 253.565C40.5899 258.101 41.0588 262.637 41.5538 267.147C42.205 273.194 42.8823 279.216 43.4555 285.264C43.5597 286.489 43.8983 286.854 45.1487 286.854C53.6151 286.802 62.0815 286.828 70.5478 286.828C73.4655 286.88 73.4655 286.88 73.4134 283.83ZM23.3185 281.353C22.6933 281.875 22.0942 281.64 21.6253 281.093C20.1664 279.32 18.7337 277.548 17.2748 275.775C16.8841 275.306 16.7017 274.784 17.0404 274.211C17.2227 273.898 17.5093 273.716 18.0043 273.716C18.395 273.742 18.7597 274.028 19.0723 274.419C20.479 276.166 21.9118 277.913 23.3185 279.633C23.7874 280.206 23.9177 280.806 23.3185 281.353Z" fill="#02DAA0"/>
<path d="M45.4621 229.245C41.3722 228.437 37.2823 228.437 33.2445 229.584C28.5554 230.913 24.5697 233.416 21.0529 236.726C17.8487 239.724 15.4 243.269 13.1336 246.971C5.63113 246.971 -1.87138 247.075 -9.37388 246.919C-14.1932 246.815 -19.0646 246.58 -23.7016 244.912C-26.5932 243.869 -29.12 242.357 -30.11 239.177C-31.2822 235.397 -29.9537 231.409 -26.8016 229.01C-23.9621 226.847 -20.6537 225.83 -17.2411 225.204C-14.5579 224.683 -11.8487 224.396 -9.11337 224.318C-8.01926 224.292 -7.4722 224.657 -6.97724 225.543C-4.89322 229.323 -0.751209 231.252 3.46895 230.444C10.5807 229.062 13.9412 221.008 9.82523 215.012C9.14793 214.021 8.96558 213.396 9.87734 212.353C13.1336 208.678 17.1193 206.227 21.7563 204.793C27.279 203.099 32.8277 203.047 38.4025 204.428C38.689 204.507 39.0016 204.507 39.3142 204.533C41.0596 209.798 42.1798 215.221 43.4823 220.617C44.1596 223.51 44.8109 226.377 45.4621 229.245Z" fill="#FDE058"/>
<path d="M9.56546 220.59C9.56546 224.057 7.37723 227.081 4.09488 228.15C0.890692 229.192 -2.7824 228.045 -4.71013 225.387C-4.94458 225.074 -5.25719 224.735 -5.04878 224.344C-4.86643 223.979 -4.42358 224.135 -4.11097 224.135C-1.79249 224.266 0.552039 224.396 2.87052 224.605C3.91253 224.709 4.30329 224.37 4.45959 223.301C4.8243 220.799 5.81421 218.479 7.01253 216.263C7.45538 215.481 7.82008 215.663 8.21084 216.289C9.04445 217.644 9.56546 219.026 9.56546 220.59Z" fill="#FDE058"/>
<path d="M161.797 39.0009C159.244 38.9488 156.717 41.1385 157.03 43.8234C156.691 46.5866 159.296 48.5938 161.719 48.5678C164.767 48.5417 166.408 46.3259 166.434 43.7713C166.434 41.1906 164.402 39.053 161.797 39.0009ZM161.771 46.3259C160.26 46.352 159.166 45.3354 159.14 43.9016C159.114 42.494 160.338 41.1645 161.693 41.1385C162.995 41.1124 164.35 42.4679 164.35 43.8234C164.324 45.2572 163.256 46.2999 161.771 46.3259Z" fill="#FAA0E0"/>
<path d="M81.9077 152.137C81.6993 153.78 81.4388 155.396 81.2044 157.012C80.996 158.394 80.7876 159.749 80.5792 161.105C80.475 161.782 80.3187 162.46 79.4069 162.278C78.6515 162.121 78.3649 161.574 78.4952 160.818C78.9641 157.82 79.433 154.848 79.8498 151.851C79.954 151.121 80.2405 150.677 80.996 150.808C81.7254 150.938 82.0119 151.433 81.9077 152.137Z" fill="#281E34"/>
<path d="M21.5996 174.815C21.5996 175.389 21.3391 175.675 20.9744 175.832C20.4795 176.04 19.9845 175.988 19.698 175.519C18.0828 172.86 16.4938 170.175 14.9047 167.49C14.5921 166.969 14.8005 166.473 15.3215 166.161C15.9207 165.796 16.4417 165.978 16.7543 166.526C18.3173 169.106 19.8803 171.713 21.4173 174.32C21.5215 174.502 21.5475 174.711 21.5996 174.815Z" fill="#281E34"/>
<path d="M73.5431 109.967C73.491 110.384 73.2044 110.645 72.8397 110.775C72.3708 110.932 71.8498 110.906 71.5372 110.462C70.2347 108.638 68.9582 106.813 67.7078 104.936C67.3952 104.467 67.6817 103.998 68.1246 103.711C68.6977 103.346 69.2448 103.528 69.6095 104.024C70.5994 105.379 71.5633 106.761 72.5011 108.142C72.8918 108.742 73.491 109.185 73.5431 109.967Z" fill="#FAA0E0"/>
<path d="M81.4903 112.182C80.813 112.677 80.1878 112.495 79.7189 111.817C78.5466 110.175 77.4265 108.48 76.2542 106.838C75.9937 106.473 75.9676 106.16 76.176 105.769C76.4105 105.326 76.8273 105.222 77.1399 105.144C77.8433 105.17 78.1559 105.613 78.4424 106.03C79.5105 107.542 80.5265 109.106 81.5945 110.592C81.9853 111.165 82.1155 111.713 81.4903 112.182Z" fill="#FAA0E0"/>
<path d="M259.959 284.222C259.021 284.222 258.656 283.283 259.255 282.267C260.506 280.181 261.808 278.122 263.059 276.063C264.856 273.143 266.627 270.197 268.399 267.278C268.529 267.043 268.685 266.835 268.816 266.626C269.206 266.026 269.701 265.557 270.431 265.974C271.212 266.444 271.03 267.121 270.639 267.773C268.373 271.475 266.106 275.176 263.84 278.878C262.902 280.39 261.964 281.902 261.053 283.414C260.792 283.831 260.506 284.196 259.959 284.222Z" fill="#FCFCFC"/>
<path d="M242.144 260.995C242.118 261.647 241.831 262.012 241.31 262.116C240.737 262.246 240.32 262.012 240.06 261.464C239.304 259.822 238.549 258.18 237.793 256.512C236.855 254.426 235.918 252.341 234.954 250.255C234.641 249.578 234.589 248.952 235.345 248.587C236.126 248.222 236.673 248.639 237.012 249.343C238.679 252.992 240.32 256.668 241.961 260.317C242.04 260.604 242.092 260.839 242.144 260.995Z" fill="#FDE058"/>
<path d="M73.9083 279.138C73.8823 279.92 73.752 280.702 73.6739 281.458C73.2831 281.38 72.9184 281.302 72.5276 281.197C72.3453 281.145 72.1629 281.093 71.9806 281.015C71.8503 280.963 71.7201 280.911 71.5898 280.885C71.4596 280.859 71.3293 280.78 71.1991 280.728C71.1209 280.702 71.0428 280.676 70.9646 280.624H70.9386C70.8344 280.572 70.7041 280.52 70.5999 280.468C70.4697 280.389 70.3134 280.337 70.1831 280.259C70.0529 280.181 69.9226 280.129 69.7924 280.05C69.6361 279.972 69.5058 279.894 69.3756 279.79C69.2453 279.712 69.115 279.633 69.0108 279.555C68.9066 279.477 68.8024 279.425 68.6982 279.347C68.6201 279.294 68.5419 279.242 68.4638 279.19C68.2814 279.06 68.0991 278.93 67.9167 278.773C67.7083 278.617 67.526 278.46 67.3436 278.304C66.8747 277.913 66.4058 277.47 65.963 277.027C62.889 273.925 60.9092 270.119 59.1638 266.182C54.9957 256.798 52.2865 246.944 49.7596 237.039C49.1865 234.771 48.379 232.555 48.2227 230.209C51.6613 231.095 54.5529 233.024 57.21 235.266C64.1394 241.053 68.3335 248.587 71.0428 257.033C73.3092 264.201 74.1688 271.605 73.9083 279.138Z" fill="#02DAA0"/>
<path d="M18.0049 273.718C18.3957 273.744 18.7604 274.031 19.073 274.422C20.4797 276.168 21.9125 277.915 23.3192 279.661C23.7881 280.235 23.9444 280.834 23.3192 281.382C22.694 281.903 22.0948 281.669 21.6259 281.095C20.1671 279.323 18.7083 277.55 17.2755 275.777C16.8848 275.308 16.7024 274.787 17.0411 274.213C17.1974 273.9 17.4839 273.692 18.0049 273.718Z" fill="#FDE058"/>
<path d="M136.116 113.01C135.387 115.565 135.491 117.989 137.002 120.257C137.419 120.909 137.601 121.587 136.794 122.056C136.012 122.499 135.517 121.952 135.126 121.326C134.084 119.658 133.485 117.885 133.563 116.112C133.511 112.906 134.658 110.221 135.96 107.614C136.846 105.842 137.914 104.121 138.904 102.401C139.294 101.697 139.763 100.915 140.701 101.462C141.665 102.01 141.17 102.792 140.753 103.469C138.93 106.493 137.106 109.543 136.116 113.01Z" fill="#281E34"/>
<path d="M176.6 104.694C176.652 105.345 176.288 105.736 175.61 105.815C171.885 106.206 169.749 108.63 168.056 111.654C167.847 112.045 167.717 112.462 167.248 112.618C166.415 112.905 165.737 112.227 165.894 111.289C166.493 108.109 171.885 103.703 175.532 103.703C175.897 103.703 176.548 103.833 176.6 104.694Z" fill="#281E34"/>
<path d="M152.634 123.776C152.556 127.138 149.795 129.849 146.434 129.876C145.705 129.876 144.923 129.771 144.897 128.859C144.845 127.92 145.523 127.686 146.382 127.66C148.857 127.582 150.498 125.965 150.524 123.593C150.524 122.733 150.446 121.847 151.644 121.847C152.426 121.847 152.66 122.394 152.634 123.776Z" fill="#281E34"/>
<path d="M156.879 99.0891C156.853 99.7668 156.462 100.106 155.785 100.106C154.483 100.106 153.076 99.3237 153.102 98.5417C153.154 97.8639 153.571 97.5511 154.222 97.525C155.551 97.499 156.931 98.3071 156.879 99.0891Z" fill="#281E34"/>
<path d="M136.328 97.3438C136.249 98.6472 135.051 98.3344 134.27 98.569C133.54 98.5951 133.045 98.3083 133.071 97.5523C133.097 96.1968 134.244 96.4314 135.077 96.3011C135.859 96.1447 136.38 96.5618 136.328 97.3438Z" fill="#281E34"/>
<path d="M156.122 105.007C156.07 105.841 155.653 106.336 154.845 106.336C154.038 106.362 153.517 105.867 153.517 105.085C153.491 104.303 153.96 103.781 154.793 103.781C155.601 103.755 156.044 104.224 156.122 105.007Z" fill="#281E34"/>
<path d="M134.451 104.614C134.399 105.475 133.904 105.944 133.122 105.918C132.315 105.892 131.846 105.396 131.846 104.588C131.846 103.78 132.341 103.311 133.174 103.337C134.008 103.337 134.373 103.858 134.451 104.614Z" fill="#281E34"/>
<path d="M11.6809 43.7195L61.6066 77.4697L72.5828 62.0942L11.6809 43.7195Z" fill="#6C4FAA"/>
<path d="M81.1198 50.1355L11.6809 43.7195L72.5828 62.0942L81.1198 50.1355Z" fill="#6C4FAA"/>
<path d="M11.6809 43.7195L81.1198 50.1355L72.5828 62.0942M11.6809 43.7195L61.6066 77.4697L72.5828 62.0942M11.6809 43.7195L72.5828 62.0942" stroke="#FA9BE1" stroke-width="3.12162" stroke-linejoin="round"/>
<path d="M49.3959 81.3192L11.6816 43.7207L54.7824 72.5864L49.3959 81.3192Z" fill="#FA9BE1"/>
</g>
<defs>
<clipPath id="clip0">
<rect width="318" height="291" fill="white" transform="translate(-5 -7)"/>
</clipPath>
</defs>
</svg>
