<svg width="248" height="233" viewBox="0 0 248 233" fill="none" xmlns="http://www.w3.org/2000/svg">
<g clip-path="url(#clip0)">
<path fill-rule="evenodd" clip-rule="evenodd" d="M5.38611 76.8609C8.19112 76.8609 10.6595 74.5499 10.6221 71.9407C10.5847 68.5115 8.45292 66.3496 5.16171 66.3496C2.31931 66.3496 0.0379015 68.6606 0.000501455 71.4934C-0.0368986 74.1772 2.02011 77.1591 5.38611 76.8609ZM1.87139 71.6045C1.87139 73.5054 3.32999 74.9964 5.2374 74.9964C7.2196 74.9964 8.67821 73.6173 8.67821 71.7163C8.67821 69.778 7.257 68.2498 5.4244 68.2125C3.44219 68.2125 1.87139 69.7035 1.87139 71.6045Z" fill="#FA9CE1"/>
<path d="M33.7714 171.648C30.7046 177.575 27.6377 183.464 24.5709 189.391C23.1123 192.186 21.6911 194.982 20.2325 197.74C19.8959 198.374 19.4097 198.933 18.6617 198.56C17.8389 198.15 18.2129 197.442 18.5121 196.846C20.4195 193.118 22.3643 189.428 24.2717 185.701C26.5531 181.265 28.8346 176.829 31.1534 172.394C31.5648 171.648 31.9762 170.903 32.3876 170.157C32.6494 169.71 33.0982 169.561 33.5844 169.747C34.0332 169.897 34.1454 170.269 34.108 170.679C34.1454 171.052 33.9584 171.35 33.7714 171.648Z" fill="#FCFCFC"/>
<path d="M41.2898 184.619C41.2524 185.402 40.6914 185.588 39.9434 185.588C38.8588 185.551 37.7742 185.588 36.6896 185.588H33.2113C32.5007 185.588 31.9023 185.365 31.9023 184.582C31.9023 183.762 32.5755 183.688 33.2487 183.688C35.4928 183.688 37.7368 183.688 40.0182 183.688C40.654 183.687 41.3272 183.799 41.2898 184.619Z" fill="#FCFCFC"/>
<path d="M51.7236 114.693C52.135 115.215 52.2846 115.737 51.6862 116.184C51.0878 116.669 50.6016 116.296 50.2276 115.812C49.4796 114.88 48.7316 113.948 47.9836 113.016C47.7592 112.718 47.5722 112.345 47.7966 111.935C47.9836 111.6 48.2454 111.413 48.582 111.376C48.9934 111.376 49.2552 111.6 49.4796 111.861C50.265 112.83 50.9756 113.762 51.7236 114.693Z" fill="#FCFCFC"/>
<path d="M56.8885 108.393C57.2251 108.878 57.5243 109.325 56.9259 109.81C56.3275 110.257 55.8039 110.071 55.3925 109.549C53.7469 107.35 52.1387 105.113 50.4931 102.914C50.2687 102.616 50.1939 102.28 50.3435 101.945C50.5305 101.572 50.8671 101.498 51.2785 101.498C51.8021 101.46 52.1013 101.833 52.3631 102.206C53.8591 104.256 55.3551 106.306 56.8885 108.393Z" fill="#FCFCFC"/>
<path d="M18.6269 84.1642C18.3277 84.4624 18.0285 84.7979 17.6919 85.0215C17.0187 85.5061 16.2707 85.1706 16.1585 84.3133C16.1211 84.0151 16.1211 83.6797 16.1211 83.3815V18.8228C16.1211 17.1455 16.2333 16.9964 17.9163 17.0337C28.1639 17.0337 38.3742 17.0337 48.6218 17.0337C49.6316 15.6173 50.6414 14.2009 51.6512 12.7845C52.3244 11.9272 53.1098 11.1817 54.0822 10.6226C56.1766 9.46707 58.1588 10.5853 58.271 12.9708C58.3458 14.35 58.0092 15.6546 57.8222 16.9964C63.6566 16.9964 69.491 16.9964 75.3255 16.9964C76.9337 16.9964 77.0833 17.1455 77.0833 18.711C77.0833 34.0679 77.0833 49.4248 77.0833 64.7817C77.0833 66.31 76.9337 66.4591 75.4377 66.4591C62.8338 66.4591 50.23 66.4591 37.5888 66.4591C36.766 66.4591 36.1301 66.6454 35.5317 67.2791C29.9217 72.9075 24.2743 78.5359 18.6269 84.1642Z" fill="#FCFCFC"/>
<path d="M178.996 63.3669C178.996 62.7332 178.922 62.0996 179.52 61.6896C179.931 61.2795 180.418 61.4659 180.866 61.4659C187.449 61.4659 193.994 61.4286 200.576 61.5032C201.549 61.5032 202.072 61.1304 202.558 60.4222C204.69 57.2539 206.822 54.0857 208.991 50.9174C209.103 50.731 209.29 50.5819 209.702 50.1719C209.44 52.1101 209.253 53.6756 209.029 55.2411C208.804 56.8812 208.505 58.5213 208.243 60.1613C208.094 61.0932 208.281 61.5405 209.44 61.5405C216.658 61.4659 223.914 61.5032 231.132 61.5405C231.581 61.5405 232.067 61.3541 232.441 61.7268C232.927 62.025 233.002 62.4723 233.002 63.0314C233.002 76.9719 233.002 90.9124 233.002 104.816C233.002 105.337 232.965 105.859 232.404 106.083C231.805 106.307 231.469 105.934 231.095 105.561C227.392 101.871 223.69 98.2181 220.024 94.528C219.388 93.8943 218.79 93.6334 217.892 93.6334C205.55 93.6707 193.208 93.6707 180.866 93.6707C179.109 93.6707 178.959 93.5589 178.959 91.8443C178.996 82.3021 178.996 72.8345 178.996 63.3669Z" fill="#FCFCFC"/>
<path d="M62.4739 147.756L67.2067 233.947L156.184 241.524L159.97 168.593L166.596 147.756H170.382L174.169 145.862L173.222 138.284L171.329 127.866L167.543 119.341L163.756 114.606L156.184 109.87L145.772 107.975L112.642 107.028H106.962L92.764 108.923L81.4052 111.764L71.9396 116.5L64.367 126.919L61.5273 140.179L62.4739 147.756Z" fill="white"/>
<path d="M157.13 222.581L156.184 234.894" stroke="black" stroke-width="1.91057"/>
<path d="M232.184 128.038C236.074 126.957 239.178 124.944 240.936 121.142C241.235 120.508 241.646 120.173 242.32 120.508C242.993 120.844 242.918 121.44 242.656 121.999C240.786 125.988 237.607 128.448 233.418 129.603C230.052 130.535 226.911 131.951 224.181 134.113C221.226 136.462 218.907 139.294 218.458 143.208C218.384 143.916 218.421 144.662 218.458 145.407C218.496 146.041 218.346 146.526 217.673 146.637C216.925 146.749 216.626 146.265 216.588 145.594C216.551 145.109 216.514 144.587 216.514 144.401C216.514 140.487 218.084 137.505 220.515 134.933C223.732 131.541 227.659 129.268 232.184 128.038Z" fill="#FCFCFC"/>
<path d="M221.824 147.98C218.869 157.037 215.877 166.095 212.922 175.19C208.509 188.72 204.021 202.213 199.645 215.781C199.197 217.16 198.935 218.651 198.149 219.881C197.663 220.329 197.102 220.701 196.691 221.223C195.045 223.422 192.764 222.9 190.557 222.64C190.071 222.23 190.408 221.782 190.52 221.372C193.774 211.606 196.915 201.841 200.132 192.075C204.545 178.619 208.995 165.163 213.371 151.707C213.558 151.148 214.044 150.328 213.334 150.067C212.436 149.731 212.399 150.738 212.174 151.334C208.995 160.951 205.854 170.568 202.675 180.184C199.832 188.795 197.027 197.442 194.148 206.053C192.427 211.234 190.744 216.452 189.024 221.633C188.874 222.043 188.912 222.602 188.313 222.751C187.902 222.789 187.453 222.863 187.042 222.863C171.371 222.863 155.7 222.863 139.992 222.863C138.384 222.863 138.309 222.751 138.833 221.186C139.506 219.136 140.179 217.086 140.852 214.998C140.927 214.775 141.152 214.514 140.927 214.253C140.815 213.656 141.339 213.582 141.675 213.396C145.228 211.234 148.856 209.184 152.521 207.208C160.151 203.071 168.267 199.94 176.046 196.138C178.776 194.796 181.432 193.342 183.863 191.516C184.536 191.031 185.097 190.435 185.396 189.652C185.994 188.161 185.022 186.558 183.414 186.446C182.815 186.409 182.18 186.409 181.544 186.484C181.132 186.558 180.571 186.745 180.384 186.26C180.235 185.813 180.796 185.589 181.132 185.365C182.292 184.545 183.227 183.539 184.274 182.57C186.032 180.893 186.219 177.836 184.199 176.569C183.676 176.233 183.601 175.711 183.713 175.115C183.937 173.96 183.713 172.879 183.002 171.91C182.703 171.5 182.516 171.015 182.628 170.493C183.152 167.847 181.357 166.915 179.113 167.138C176.009 167.437 173.129 168.443 170.212 169.487C165.125 171.313 160.188 173.587 155.289 175.823C154.877 176.01 154.429 176.382 153.942 176.084C153.942 176.084 153.905 176.084 153.905 176.047C153.718 175.711 153.755 175.376 153.868 175.041C155.027 171.798 155.925 168.443 157.196 165.237C157.196 165.237 157.196 165.237 157.196 165.2C157.196 165.163 157.234 165.163 157.271 165.126C157.72 164.604 157.907 164.007 157.944 163.336C158.879 161.398 159.59 159.385 159.889 157.261C160.45 155.956 160.525 154.503 161.31 153.272C162.133 152.042 162.32 150.589 162.806 149.247C163.105 148.427 163.554 148.129 164.34 148.129C165.35 148.166 166.359 148.24 167.369 148.24C182.067 148.24 196.803 148.278 211.501 148.24C213.932 148.24 216.401 148.017 218.832 148.203C219.505 148.24 220.103 147.905 220.627 147.458C221.001 147.122 221.3 146.675 221.861 146.638C222.16 147.085 221.936 147.532 221.824 147.98Z" fill="#FDE057"/>
<path d="M215.2 145.855C214.863 146.302 214.415 146.34 213.966 146.079C207.645 142.538 200.838 142.426 193.882 143.097C185.168 143.917 176.885 147.689 168.133 148.434C167.423 148.509 166.675 148.509 166.637 147.614C166.563 146.72 167.311 146.608 167.984 146.571C169.48 146.459 170.938 146.347 172.397 146.235C172.846 146.198 173.22 146.198 173.182 145.527C172.771 139.004 171.554 129.492 168.786 123.453C165.084 115.439 158.726 110.967 150.124 109.438C145.187 108.544 140.213 108.581 135.239 108.506C134.64 108.506 134.453 108.767 134.341 109.289C134.042 110.743 133.817 112.197 133.369 113.613C131.985 118.086 128.731 120.099 124.131 119.092C118.259 117.788 113.995 114.358 111.452 108.879C111.228 108.357 111.078 107.985 110.33 108.022C100.681 108.469 91.1438 109.364 82.0182 112.718C76.6326 114.694 71.8454 117.564 68.3298 122.223C65.3752 126.137 64.141 130.684 63.2434 135.418C62.4954 139.369 63.4304 143.097 64.1036 146.899C67.32 164.604 70.4616 182.309 74.052 199.94C75.2862 205.903 76.4082 211.867 78.166 217.719C81.0458 227.485 88.264 232.107 98.4743 230.914C103.486 230.318 108.123 228.603 112.761 226.74C123.084 222.565 132.77 217.272 142.083 211.234C144.626 209.594 147.281 208.14 149.937 206.612C149.937 206.574 149.937 206.463 149.899 206.425C142.868 201.692 138.904 194.87 136.473 186.968C135.949 185.254 135.575 183.502 135.463 181.713C135.426 180.93 135.239 180.781 134.491 181.191C127.871 185.105 121.101 188.795 114.369 192.485C111.789 193.901 109.171 195.318 106.59 196.734C104.383 197.927 102.139 199.12 99.9329 200.35C99.2971 200.685 98.6613 200.946 98.2499 200.163C97.8385 199.418 98.3995 199.008 98.9605 198.71C99.9703 198.15 100.98 197.517 102.065 197.07C102.925 196.697 103.074 196.249 102.887 195.355C101.504 188.907 100.195 182.458 98.8483 176.01C96.9034 166.617 94.996 157.261 93.0512 147.868C92.9016 147.197 92.8268 146.451 93.7244 146.302C94.6221 146.153 94.7716 146.861 94.9212 147.532C96.6791 156.143 98.4743 164.79 100.232 173.401C101.691 180.483 103.149 187.527 104.608 194.572C104.757 195.28 104.87 195.504 105.618 195.094C116.763 188.981 127.983 183.017 138.829 176.345C143.392 173.55 147.244 169.822 151.096 166.169C152.555 164.79 154.126 163.635 156.183 163.262C156.744 163.15 157.342 163.076 157.903 163.262C158.427 164.045 158.314 164.641 157.417 165.051C157.342 165.088 157.23 165.126 157.155 165.163C155.734 165.722 154.275 166.207 153.116 167.288C151.246 169.002 149.451 170.754 147.543 172.394C144.813 174.78 142.008 177.016 138.866 178.88C137.857 179.476 137.37 180.073 137.557 181.377C138.829 189.764 142.419 196.958 148.665 202.735C151.321 205.195 151.807 205.195 154.986 203.63C160.596 200.834 166.355 198.374 172.04 195.765C175.481 194.199 178.847 192.485 181.951 190.323C182.25 190.099 182.587 189.876 182.849 189.615C183.148 189.279 183.672 188.981 183.41 188.459C183.148 187.975 182.55 188.124 182.138 188.161C180.754 188.347 179.408 188.72 178.062 189.167C175.032 190.137 172.078 191.329 169.123 192.559C168.899 192.671 168.712 192.746 168.487 192.82C167.814 193.044 167.216 192.895 166.879 192.261C166.58 191.628 166.842 191.143 167.365 190.733C167.814 190.397 168.3 190.174 168.786 189.95C172.676 188.049 176.528 186.148 180.044 183.576C181.241 182.719 182.438 181.824 183.26 180.594C183.56 180.11 183.784 179.625 183.672 179.066C183.485 178.134 182.662 177.799 181.951 178.433C177.613 182.16 172.414 184.396 167.365 186.931C167.103 187.08 166.804 187.192 166.505 187.266C165.832 187.416 165.346 187.192 165.046 186.596C164.747 185.999 165.046 185.552 165.495 185.142C165.794 184.881 166.168 184.769 166.505 184.583C170.507 182.644 174.471 180.706 178.136 178.209C179.184 177.463 180.268 176.755 181.091 175.749C181.577 175.19 181.951 174.519 181.764 173.736C181.615 173.177 181.315 172.916 180.754 173.289C175.705 176.457 170.021 178.433 164.747 181.154C163.438 181.824 162.578 181.675 162.204 180.855C161.867 180.073 162.354 179.551 163.7 178.88C168.674 176.457 173.798 174.444 178.623 171.723C179.109 171.462 179.558 171.164 179.932 170.791C180.343 170.419 180.792 170.009 180.493 169.375C180.231 168.779 179.595 168.853 179.071 168.928C177.276 169.189 175.481 169.636 173.723 170.195C166.954 172.357 160.558 175.376 154.126 178.395C153.714 178.582 153.303 178.843 152.854 178.954C152.256 179.103 151.657 179.066 151.358 178.433C151.021 177.799 151.321 177.277 151.844 176.904C152.443 176.457 153.041 176.047 153.826 175.972C153.864 175.972 153.901 175.972 153.939 175.972C157.155 174.556 160.371 173.065 163.625 171.686C168.038 169.822 172.452 168.033 177.164 167.064C178.211 166.84 179.333 166.691 180.418 166.803C182.325 166.989 183.373 168.331 182.924 170.195C182.737 170.903 182.886 171.313 183.335 171.835C184.158 172.767 184.382 173.922 184.046 175.115C183.896 175.637 183.933 175.935 184.382 176.271C186.402 177.911 186.589 180.073 184.943 182.197C183.934 183.465 182.737 184.471 181.428 185.44C181.128 185.664 180.754 185.775 180.53 186.186C181.39 186.111 182.251 186.036 183.073 185.999C184.158 185.962 185.056 186.26 185.579 187.341C186.14 188.497 185.953 189.54 185.168 190.472C184.233 191.628 182.961 192.41 181.689 193.193C176.453 196.473 170.694 198.784 165.046 201.319C156.706 205.083 148.59 209.184 140.886 214.141C136.51 216.788 132.209 219.583 127.609 221.894C120.204 225.584 112.761 229.2 104.757 231.548C99.7833 233.002 94.6968 233.561 89.573 232.219C82.9532 230.467 78.9888 225.957 76.7822 219.769C75.0618 214.924 74.1642 209.892 73.117 204.897C70.4242 192.298 68.1054 179.663 65.7492 166.989C65.0386 163.187 64.3654 159.348 63.6548 155.546C63.5052 155.211 63.4304 154.875 63.393 154.577C63.393 155.323 63.3182 156.143 63.4304 156.963C63.9914 165.051 64.5898 173.14 65.1134 181.228C66.0141 195.475 67.348 221.198 68.1423 235.447C68.1797 236.118 68.0301 236.752 67.2073 236.789C66.3845 236.789 66.2723 236.155 66.2349 235.485C66.0479 230.49 65.076 214.029 64.8142 208.997C64.2532 199.045 63.6922 189.093 63.0564 179.141C62.3458 167.847 61.1116 156.553 60.8124 145.259C60.6628 140.152 60.962 135.12 62.3084 130.163C64.515 122.037 69.6762 116.409 77.1188 112.718C83.1028 109.774 89.5356 108.32 96.1181 107.351C100.905 106.643 105.692 106.27 110.517 106.158C111.228 106.158 111.527 105.897 111.639 105.189C112.612 99.6352 113.621 94.1186 114.257 88.5275C114.295 88.1548 114.369 87.7821 114.108 87.4093C111.751 83.7565 111.228 79.6563 111.265 75.4816C111.265 74.1398 110.891 73.4688 109.657 72.9097C105.879 71.1951 102.663 68.735 100.382 65.194C96.3799 58.9319 99.2223 50.2844 106.066 48.1225C109.171 47.1534 112.051 47.9361 114.856 49.3152C115.529 49.6507 116.165 49.9862 116.763 50.4335C117.436 50.9553 117.735 50.7317 118.222 50.1726C124.131 43.3141 131.424 38.6921 140.325 36.7166C142.756 36.1575 145.299 35.9339 147.655 37.0894C150.76 38.5803 150.984 40.444 148.441 42.7923C148.291 42.9041 148.179 43.0905 147.805 43.4259C149.002 42.9787 149.937 42.6432 150.872 42.3077C153.565 41.2641 156.332 40.5558 159.212 40.1831C160.409 40.034 161.606 40.0713 162.802 40.2949C166.468 41.0404 168.338 44.3578 167.103 47.8988C166.355 50.0235 164.822 51.4771 163.139 52.819C162.765 53.1172 162.578 53.2663 162.952 53.7881C165.308 57.2173 163.55 61.392 159.436 62.3612C159.399 62.3612 159.362 62.3612 159.324 62.3984C158.539 62.6966 157.342 62.2493 156.931 62.9203C156.557 63.5167 156.931 64.5603 156.931 65.4176C156.818 69.6669 156.033 73.8043 155.547 78.0163C154.948 83.011 154.275 88.0057 152.742 92.8513C151.283 97.4733 148.59 100.903 143.654 102.095C141.297 102.692 138.941 102.393 136.585 101.909C135.837 101.76 135.613 101.946 135.5 102.617C135.313 103.698 135.089 104.742 134.827 105.785C134.64 106.531 134.902 106.643 135.538 106.643C138.605 106.643 141.709 106.605 144.776 106.866C149.226 107.239 153.565 107.985 157.679 109.848C164.635 113.017 168.899 118.496 171.442 125.503C173.312 130.722 174.06 136.201 174.322 141.718C174.359 142.687 175.052 144.99 176.062 144.915C182.832 144.244 189.207 141.494 195.976 140.972C201.736 140.562 207.421 141.009 212.769 143.432C213.442 143.73 214.078 144.103 214.676 144.513C215.462 144.849 215.574 145.37 215.2 145.855Z" fill="#1A0701"/>
<path d="M248.001 123.565C246.505 128.225 244.972 132.847 243.476 137.506C242.391 138.102 242.878 138.959 243.065 139.742C243.027 139.779 243.027 139.817 242.99 139.854C242.952 139.929 242.878 140.04 242.84 140.115C242.354 141.121 242.13 142.24 241.681 143.283C241.382 143.917 241.157 144.588 240.447 144.886C240.409 144.886 240.409 144.849 240.372 144.849C240.372 144.849 240.334 144.849 240.334 144.811C239.399 144.29 238.689 144.662 237.941 145.445C235.921 147.57 233.715 149.545 231.994 151.968C231.022 153.347 230.461 154.764 231.658 156.329C231.919 156.702 231.807 157.075 231.583 157.41C231.246 157.932 230.872 158.417 230.573 158.976C230.162 159.721 230.049 160.541 230.461 161.324C230.835 162.032 230.872 162.703 230.423 163.374C229.862 164.231 229.862 165.126 230.386 166.02C230.648 166.468 230.76 166.915 230.573 167.437C229.975 169.226 230.162 169.673 231.77 170.642C231.957 170.754 232.106 170.866 232.106 171.09C231.845 172.879 231.097 174.482 230.536 176.196C229.189 180.296 227.805 184.397 226.422 188.497C225.524 191.218 224.589 193.901 223.691 196.622C223.467 197.293 223.018 197.741 222.532 198.188C216.249 203.779 209.928 209.37 203.645 214.924C202.785 215.707 202.074 216.639 200.952 217.086C200.578 216.564 200.877 216.042 201.027 215.52C205.627 201.468 210.227 187.416 214.828 173.401C217.558 165.089 220.325 156.814 222.943 148.502C223.43 146.899 223.467 146.899 222.158 146.153C224.626 143.507 227.506 141.308 230.162 138.885C232.256 136.947 234.463 135.046 236.594 133.145C240.147 130.014 243.663 126.845 247.216 123.714C247.366 123.603 247.515 123.491 247.665 123.379C247.777 123.491 247.889 123.528 248.001 123.565Z" fill="#FDE057"/>
<path d="M66.387 51.4012C67.6212 54.3086 65.4146 57.4023 62.0112 57.9987C60.7396 58.2224 59.468 58.2969 58.159 58.2969C49.8562 58.2596 41.5907 58.2969 33.2879 58.2969C32.8391 58.2969 32.4277 58.2969 32.0163 58.2969C30.8195 58.2224 30.3707 57.7751 30.2959 56.545C30.2585 56.2096 30.2959 55.8368 30.2959 55.5013V30.3786C30.2959 30.1177 30.2959 29.8195 30.2959 29.5586C30.3707 28.0676 30.7821 27.6203 32.2781 27.6203C35.0831 27.6203 37.8507 27.2103 40.6183 26.763C42.4135 26.4649 43.6852 25.5703 44.508 23.9675C45.3682 22.3274 46.378 20.7992 47.126 19.1219C47.126 19.0846 47.1634 19.0846 47.1634 19.0473C47.2008 19.01 47.2008 19.01 47.2382 18.9728C47.7618 18.3764 47.9862 17.5936 48.5846 17.0718C49.5944 15.6554 50.6042 14.239 51.614 12.8225C52.2872 11.9652 53.0726 11.2198 54.045 10.6606C56.1394 9.50515 58.1216 10.6234 58.2338 13.0089C58.3086 14.3881 57.972 15.6926 57.785 17.0345C57.972 17.7054 57.6354 18.3018 57.5606 18.9728C57.5606 19.01 57.5606 19.0473 57.5606 19.0846C57.5606 19.1219 57.5606 19.1219 57.5606 19.1591C56.4386 21.1719 55.7654 23.3711 54.7182 25.4212C54.3816 26.0921 54.7556 26.2039 55.3166 26.3158C56.7752 26.5394 58.2712 26.5021 59.7298 26.7258C61.525 26.9867 63.2454 27.434 64.7788 28.4031C67.7708 30.2668 68.3692 33.7333 66.1626 36.4916C65.826 36.9016 65.7138 37.1998 66.1252 37.6843C67.9204 39.8835 67.9578 41.1881 66.3122 43.4991C66.0504 43.8718 66.1252 44.0955 66.3496 44.4309C68.07 46.7792 68.1074 47.7856 66.5366 50.3202C66.2748 50.6184 66.2 50.9912 66.387 51.4012Z" fill="#04D9A0"/>
<path d="M77.0833 64.82C77.0833 66.3482 76.9337 66.4973 75.4377 66.4973C62.8338 66.4973 50.23 66.4973 37.5888 66.4973C36.766 66.4973 36.1301 66.6837 35.5317 67.3173C29.9217 72.9457 24.2743 78.5741 18.6269 84.2025C18.3277 84.5007 18.0285 84.8361 17.6919 85.0598C17.0187 85.5443 16.2707 85.2089 16.1585 84.3516C16.1211 84.0534 16.1211 83.7179 16.1211 83.4197V18.8238C16.1211 17.1465 16.2333 16.9974 17.9163 17.0347C28.1639 17.0347 38.3742 17.0347 48.6218 17.0347C48.4722 17.7802 48.1356 18.4511 47.4998 18.9356C47.3876 19.0102 47.2754 19.0475 47.1258 19.0847C46.6022 19.2711 46.0786 19.1966 45.555 19.1966C37.0278 19.1966 28.5005 19.1966 19.9733 19.1966C18.4773 19.1966 18.3651 19.2711 18.3651 20.613C18.3651 40.7037 18.3651 60.7944 18.3651 80.9224C18.8513 80.8478 19.0757 80.4378 19.3749 80.1396C24.2369 75.3313 29.0989 70.5229 33.8861 65.64C34.9707 64.5591 36.1302 64.0372 37.701 64.0372C49.1828 64.0745 60.6646 64.0745 72.1464 64.0745C72.483 64.0745 72.8571 64.0745 73.1937 64.0745C74.8019 64.0745 74.8393 64 74.8393 62.4344C74.8393 48.6058 74.8393 34.7398 74.8393 20.8739C74.8393 19.2338 74.7645 19.1593 73.1188 19.1593C68.4438 19.1593 63.7688 19.1593 59.0938 19.1593C58.5702 19.1593 58.0092 19.2338 57.4856 18.9729C57.4108 18.9356 57.336 18.8984 57.2986 18.8611C57.0742 18.1156 57.5604 17.5565 57.7474 16.9229C63.5818 16.9229 69.4162 16.9229 75.2507 16.9229C76.8589 16.9229 77.0085 17.0719 77.0085 18.6375C77.0833 34.0689 77.0833 49.4258 77.0833 64.82Z" fill="#1B0802"/>
<path d="M232.404 61.6527C232.03 61.5036 231.619 61.5781 231.245 61.5781C223.877 61.5781 216.509 61.5781 209.179 61.5781C207.608 61.5781 207.309 61.9509 207.645 63.5536C207.683 63.5909 207.72 63.5909 207.757 63.6282C207.795 63.6655 207.87 63.7027 207.907 63.7027C208.431 64.0009 208.992 63.8891 209.553 63.8891C216.098 63.8891 222.643 63.8891 229.15 63.8891C230.609 63.8891 230.684 64.0009 230.721 65.3801C230.721 65.6783 230.721 66.0137 230.721 66.3119C230.721 77.6432 230.721 88.9745 230.721 100.306C230.721 100.865 230.609 101.461 230.908 102.02C230.908 102.058 230.945 102.058 230.945 102.095C230.871 102.058 230.796 102.02 230.758 101.946C227.804 98.9267 224.737 95.9821 221.782 92.9256C220.66 91.7701 219.501 91.2855 217.893 91.2855C206.261 91.3228 194.63 91.3228 182.999 91.3228C181.316 91.3228 181.278 91.2482 181.241 89.6455C181.241 81.6315 181.241 73.5804 181.241 65.5664C181.241 63.9637 181.278 63.8891 182.849 63.8891C188.01 63.8891 193.209 63.8891 198.37 63.8891C198.856 63.8891 199.342 63.9264 199.829 63.8146C199.903 63.8146 200.016 63.7773 200.09 63.74C200.165 63.7027 200.24 63.7027 200.352 63.6655C200.502 63.5909 200.614 63.5164 200.726 63.4045C201.138 62.9573 201.736 62.4727 201.474 61.839C201.437 61.7645 201.399 61.6899 201.362 61.6527C201.063 61.3172 200.427 61.5781 200.016 61.5781C193.62 61.5408 187.225 61.5781 180.829 61.5781C180.418 61.5781 179.969 61.5036 179.558 61.6527C178.959 62.0627 179.034 62.7336 179.034 63.33C179.034 72.7976 179.034 82.2652 179.034 91.7328C179.034 93.4101 179.184 93.5592 180.942 93.5592C193.284 93.5592 205.626 93.5592 217.968 93.522C218.865 93.522 219.464 93.7829 220.099 94.4165C223.765 98.1067 227.467 101.797 231.17 105.45C231.544 105.822 231.88 106.195 232.479 105.971C233.04 105.748 233.077 105.226 233.077 104.704C233.077 90.7637 233.077 76.8232 233.077 62.92C233.003 62.4354 232.928 61.9509 232.404 61.6527ZM231.02 102.095C231.095 101.946 231.133 102.244 231.02 102.095V102.095Z" fill="#1B0902"/>
<path d="M217.371 67.2061C217.52 67.5788 217.259 67.877 216.997 68.138C214.902 70.4489 212.845 72.7599 210.788 75.0709C207.497 78.6865 204.281 82.3394 200.952 85.9549C199.568 87.4832 198.184 89.0114 196.838 90.5396C196.576 90.8378 196.277 91.2479 195.866 90.9869C195.454 90.726 195.716 90.2787 195.828 89.906C197.025 86.5886 198.297 83.2712 199.531 79.9911C200.466 77.5683 201.363 75.1455 202.261 72.6854C202.635 71.6417 202.56 71.5672 201.438 71.5672C199.68 71.5672 197.923 71.5672 196.202 71.5672C195.791 71.5672 195.267 71.6044 195.08 71.1571C194.893 70.7471 195.23 70.4489 195.454 70.1135C196.726 68.2498 198.035 66.4234 199.269 64.5224C199.419 64.2615 199.606 64.0378 199.83 63.8514C199.942 63.7396 200.092 63.6278 200.241 63.5532C200.615 63.0314 200.989 62.5096 201.438 61.8759C201.476 61.8014 201.513 61.7641 201.55 61.6895H179.484C179.896 61.2795 180.382 61.4659 180.831 61.4659C187.413 61.4659 193.958 61.4286 200.541 61.5032C201.513 61.5032 202.037 61.1304 202.523 60.4222C204.655 57.2539 206.786 54.0856 208.956 50.9174C209.068 50.731 209.255 50.5819 209.666 50.1719C209.404 52.1101 209.217 53.6756 208.993 55.2411C208.769 56.8812 208.469 58.5213 208.208 60.1613C208.058 61.0932 208.245 61.5405 209.404 61.5405C216.623 61.4659 223.878 61.5032 231.097 61.5405C231.545 61.5405 232.032 61.3541 232.406 61.7268C224.888 61.7268 217.371 61.7268 209.891 61.7268C208.021 61.7268 208.021 61.7268 207.759 63.5532C207.796 63.6278 207.871 63.7023 207.871 63.8142C208.095 64.4106 207.834 65.0442 207.759 65.6033C207.609 66.5724 207.983 66.8334 208.881 66.8334C211.087 66.7961 213.331 66.8334 215.538 66.8334C215.837 66.8334 216.174 66.8334 216.473 66.8706C216.81 66.7961 217.221 66.7961 217.371 67.2061Z" fill="#FD99E1"/>
<path d="M245.719 152.711C245.457 153.457 245.27 154.165 245.27 154.948C245.27 155.321 245.233 155.731 245.121 156.103C244.335 158.862 243.662 161.732 242.54 164.341C240.633 168.702 236.706 170.603 232.068 171.162C229.899 170.416 229.45 169.41 230.348 167.285C230.497 166.95 230.46 166.726 230.273 166.428C229.45 165.273 229.562 164.117 230.31 162.962C230.497 162.664 230.759 162.403 230.497 162.03C229.3 160.315 230.048 158.862 231.208 157.52C231.657 156.998 231.694 156.774 231.283 156.215C230.31 154.948 230.647 153.643 231.395 152.413C232.554 150.475 234.2 148.909 235.771 147.307C236.668 146.375 237.603 145.517 238.501 144.623C239.211 143.915 239.81 143.877 240.371 144.809C240.371 144.847 240.408 144.847 240.408 144.884C240.857 145.555 240.259 145.965 239.885 146.375C238.463 147.866 236.967 149.282 235.546 150.736C234.723 151.556 233.975 152.45 233.377 153.457C233.078 153.904 232.741 154.426 233.227 154.948C233.639 155.395 234.2 155.171 234.649 154.948C239.473 152.562 243.064 149.133 243.587 143.43C243.662 142.573 243.4 141.753 243.138 140.933C243.064 140.672 242.914 140.448 242.877 140.187C242.839 140.038 242.877 139.889 242.914 139.74C241.942 138.324 242.054 137.876 243.475 137.578C245.42 139.218 245.831 141.455 245.756 143.766C245.719 144.958 245.682 146.077 246.056 147.269C246.579 149.021 246.355 150.922 245.719 152.711Z" fill="#1A0802"/>
<path d="M213.892 151.072C212.695 154.724 211.536 158.377 210.339 161.993C207.758 169.895 205.14 177.834 202.56 185.736C200.465 192.11 198.371 198.447 196.276 204.821C194.406 210.561 192.499 216.301 190.629 222.041C190.554 222.228 190.554 222.414 190.554 222.6C190.255 223.085 190.068 223.681 189.32 223.681C188.684 223.681 188.572 223.122 188.348 222.675C191.227 213.953 194.07 205.231 196.95 196.546C200.353 186.258 203.719 175.971 207.122 165.646C208.768 160.614 210.414 155.582 212.022 150.512C212.246 149.842 212.545 149.208 213.406 149.432C214.341 149.73 214.079 150.438 213.892 151.072Z" fill="#04D99C"/>
<path d="M223.541 147.904C221.933 152.825 220.25 157.745 218.642 162.665C216.697 168.591 214.79 174.518 212.845 180.445C210.601 187.266 208.357 194.124 206.113 200.945C204.43 206.089 202.747 211.233 201.101 216.414C201.027 216.638 200.989 216.861 200.952 217.085C200.69 217.793 200.391 218.501 200.129 219.247C199.68 220.477 199.194 220.663 198.109 219.881C198.521 217.234 199.605 214.774 200.428 212.239C202.373 206.164 204.355 200.088 206.375 194.012C208.17 188.57 210.003 183.166 211.798 177.686C213.593 172.282 215.313 166.877 217.071 161.472C218.567 156.925 220.063 152.34 221.559 147.793C221.671 147.42 221.746 147.047 221.821 146.674C221.933 146.525 222.083 146.376 222.195 146.227C223.691 146.078 224.028 146.488 223.541 147.904Z" fill="#04D99D"/>
<path d="M242.613 122.037C240.743 126.025 237.564 128.485 233.376 129.64C230.01 130.572 226.868 131.989 224.138 134.151C221.183 136.499 218.864 139.332 218.416 143.245C218.341 143.954 218.378 144.699 218.416 145.445C218.453 146.078 218.303 146.563 217.63 146.675C216.882 146.787 216.583 146.302 216.546 145.631C216.508 145.146 216.471 144.625 216.471 144.438C216.471 140.524 218.042 137.543 220.473 134.971C223.689 131.541 227.616 129.268 232.141 128.038C236.031 126.957 239.135 124.944 240.893 121.142C241.192 120.508 241.604 120.173 242.277 120.508C242.95 120.844 242.913 121.44 242.613 122.037Z" fill="#190803"/>
<path d="M34.1454 170.715C34.1454 171.088 33.9584 171.386 33.7714 171.685C30.7046 177.611 27.6377 183.5 24.5709 189.427C23.1123 192.223 21.6911 195.018 20.2325 197.776C19.8959 198.41 19.4097 198.969 18.6617 198.596C17.8389 198.186 18.2129 197.478 18.5121 196.882C20.4195 193.154 22.3643 189.464 24.2717 185.737C26.5531 181.301 28.8345 176.866 31.1534 172.43C31.5648 171.685 31.9762 170.939 32.3876 170.194C32.6494 169.746 33.0982 169.597 33.5844 169.784C34.0706 169.895 34.1828 170.268 34.1454 170.715Z" fill="#FBE05C"/>
<path d="M161.307 153.272C161.045 154.688 160.858 156.105 159.886 157.26C158.801 149.992 157.716 142.723 156.669 135.455C156.557 134.709 156.071 133.666 157.268 133.405C158.464 133.144 158.427 134.262 158.539 135.045C159.474 141.083 160.372 147.196 161.307 153.272Z" fill="#1A0802"/>
<path d="M56.9259 109.774C56.3275 110.221 55.8039 110.035 55.3925 109.513C53.7469 107.314 52.1387 105.077 50.4931 102.878C50.2687 102.58 50.1939 102.244 50.3435 101.909C50.5305 101.536 50.8671 101.462 51.2785 101.462C51.8021 101.424 52.1013 101.797 52.3631 102.17C53.8591 104.22 55.3551 106.307 56.8885 108.357C57.2251 108.842 57.5243 109.326 56.9259 109.774Z" fill="#F36869"/>
<path d="M41.2898 184.619C41.2524 185.402 40.6914 185.588 39.9434 185.588C38.8588 185.551 37.7742 185.588 36.6896 185.588H33.2113C32.5007 185.588 31.9023 185.365 31.9023 184.582C31.9023 183.762 32.5755 183.688 33.2487 183.688C35.4928 183.688 37.7368 183.688 40.0182 183.688C40.654 183.687 41.3272 183.799 41.2898 184.619Z" fill="#FBE264"/>
<path d="M51.6862 116.184C51.0878 116.669 50.6016 116.296 50.2276 115.812C49.4796 114.88 48.7316 113.948 47.9836 113.016C47.7592 112.718 47.5722 112.345 47.7966 111.935C47.9836 111.6 48.2454 111.413 48.582 111.376C48.9934 111.376 49.2552 111.6 49.4796 111.861C50.2276 112.792 50.9756 113.724 51.7236 114.656C52.135 115.215 52.2846 115.737 51.6862 116.184Z" fill="#F16A6A"/>
<path d="M154.053 176.009C153.53 176.307 152.969 176.643 152.445 176.904C151.809 177.202 151.323 177.612 151.697 178.357C152.071 179.103 152.67 178.954 153.305 178.655C156.671 176.978 160.075 175.375 163.553 173.922C168.116 171.983 172.641 170.082 177.503 169.002C178.289 168.815 179.112 168.666 179.934 168.703C180.383 168.741 180.944 168.703 181.131 169.225C181.318 169.747 181.131 170.194 180.795 170.604C180.271 171.201 179.635 171.648 178.962 172.021C175.334 174.145 171.407 175.711 167.63 177.5C166.209 178.171 164.75 178.879 163.291 179.55C162.655 179.848 162.207 180.258 162.581 181.004C162.917 181.675 163.516 181.6 164.114 181.302C169.724 178.469 175.708 176.382 181.019 172.953C181.468 172.692 181.655 172.729 181.954 173.102C182.627 173.959 182.552 174.816 181.58 175.934C180.383 177.314 178.925 178.32 177.429 179.289C173.913 181.526 170.173 183.315 166.433 185.141C166.209 185.253 166.021 185.328 165.797 185.439C165.311 185.738 165.199 186.148 165.423 186.632C165.647 187.117 166.059 187.266 166.583 187.117C166.695 187.079 166.807 187.042 166.919 187.005C171.669 184.694 176.456 182.457 180.757 179.289C181.169 178.991 181.505 178.618 181.917 178.32C182.328 178.059 182.552 177.276 183.226 177.798C183.861 178.283 184.385 178.842 184.198 179.736C183.974 180.743 183.3 181.451 182.59 182.122C180.458 184.172 177.952 185.663 175.409 187.079C173.053 188.421 170.622 189.614 168.153 190.77C167.48 191.068 166.77 191.441 167.218 192.298C167.667 193.192 168.378 192.745 169.014 192.484C173.053 190.77 177.092 189.055 181.393 188.086C181.879 187.974 182.403 187.899 182.889 187.862C183.338 187.825 183.749 187.825 183.974 188.347C184.161 188.831 184.011 189.204 183.674 189.502C183.188 189.95 182.702 190.397 182.141 190.77C177.952 193.64 173.352 195.69 168.714 197.74C163.441 200.051 158.205 202.399 153.118 205.083C152.37 205.493 151.847 205.381 151.211 204.971C147.621 202.772 144.928 199.678 142.721 196.137C139.767 191.441 137.859 186.371 137.298 180.817C137.223 180.184 137.186 179.662 137.897 179.252C142.833 176.456 147.06 172.766 151.174 168.852C152.782 167.324 154.278 165.647 156.597 165.2C156.896 165.125 157.195 165.162 157.532 165.125C156.447 168.368 155.4 171.648 154.315 174.891C154.166 175.264 153.941 175.599 154.053 176.009Z" fill="#FEFEFE"/>
<path d="M155.325 65.5661C154.951 70.2999 154.316 75.1082 153.642 79.9166C153.081 84.0913 152.483 88.3032 151.211 92.3288C149.94 96.2799 147.658 99.2245 143.47 100.231C141.039 100.827 138.608 100.343 136.177 99.7836C134.718 99.4482 134.531 99.5972 134.194 101.088C133.372 104.89 132.586 108.655 131.726 112.457C130.791 116.482 128.285 118.011 124.209 117.153C124.096 117.116 123.984 117.116 123.872 117.079C119.496 115.774 116.13 113.202 113.811 109.288C113.325 108.468 113.25 107.686 113.437 106.754C114.671 100.566 115.719 94.3416 116.429 88.0423C116.467 87.595 116.541 87.185 116.242 86.8123C113.923 83.8303 113.587 80.252 113.325 76.711C113.25 75.7791 113.213 74.8473 113.325 73.9154C113.437 72.7972 113.063 72.2754 112.016 71.8281C108.089 70.188 104.648 67.8398 102.217 64.2242C99.0383 59.4904 100.871 52.5574 105.882 50.2464C108.426 49.0909 110.894 49.5755 113.325 50.5819C115.232 51.3647 116.841 52.5574 118.337 53.9366C119.01 54.5702 119.272 55.2412 119.085 56.2103C118.785 57.7385 118.673 59.2668 118.748 60.8323C118.785 61.4659 118.898 62.0623 119.122 62.6587C119.421 63.3669 120.057 63.6651 120.768 63.7769C121.516 63.8887 121.927 63.4414 122.264 62.8823C123.274 61.2423 123.722 59.3786 124.246 57.5521C124.695 56.0239 125.069 54.4957 125.368 52.9302C125.518 52.222 125.854 51.8492 126.453 51.551C128.734 50.321 131.202 49.8364 133.746 49.7246C138.121 49.501 142.46 49.8364 146.611 51.3647C151.885 53.3029 154.54 57.254 155.101 62.696C155.251 63.6278 155.251 64.5597 155.325 65.5661Z" fill="#FEFEFE"/>
<path d="M242.914 139.667C244.447 142.425 244.036 145.184 242.727 147.793C241.156 150.961 238.613 153.309 235.434 154.912C235.097 155.098 234.723 155.248 234.349 155.359C233.826 155.508 233.302 155.732 232.853 155.173C232.405 154.614 232.629 154.055 232.928 153.57C234.162 151.52 235.92 149.917 237.566 148.203C238.276 147.495 238.987 146.786 239.735 146.078C240.109 145.705 240.371 145.295 240.371 144.774C241.605 143.693 241.717 142.09 242.278 140.673C242.428 140.301 242.465 139.853 242.914 139.667Z" fill="#FEFDFD"/>
<path d="M32.4651 42.8647C32.4651 38.8764 32.5025 34.8881 32.4277 30.8625C32.4277 29.9679 32.6895 29.7442 33.5497 29.7442C36.3921 29.7442 39.1972 29.3342 41.9648 28.7006C44.1714 28.216 45.5178 26.7996 46.565 24.8986C48.248 21.8794 49.8188 18.7857 51.6888 15.9156C52.5116 14.6483 53.3344 13.3809 54.606 12.4864C54.98 12.2254 55.3914 11.9273 55.8776 12.1509C56.4012 12.4118 56.3264 12.9337 56.3264 13.3809C56.3264 16.1392 55.1296 18.562 54.1198 21.0221C53.3344 22.8858 52.3994 24.675 51.5018 26.4641C50.7912 27.9178 51.0904 28.4769 52.6986 28.4769C55.354 28.4769 58.0094 28.5142 60.59 29.0733C61.5624 29.2597 62.46 29.5951 63.3202 30.0797C64.8162 30.8997 65.5268 32.2789 65.1528 33.7326C64.8536 34.9626 63.2454 36.2299 61.8242 36.2672C58.7574 36.3045 55.6906 36.1927 52.6238 36.6399C51.5392 36.789 50.6042 36.1554 49.9684 35.2235C49.4074 34.4035 49.744 33.4716 50.7164 33.0244C52.175 32.3162 53.7832 32.2043 55.3914 32.1298C57.1492 32.0552 58.907 32.0925 60.6274 32.0925C61.338 32.0925 62.0486 32.018 62.0486 31.1234C62.0486 30.2288 61.3006 30.1915 60.6274 30.1915C57.5606 30.2661 54.4938 30.0052 51.427 30.6761C48.8464 31.2725 47.5748 32.7262 47.8366 34.8881C47.9488 35.8572 48.4724 36.6399 49.183 37.2363C49.5944 37.5718 49.6318 37.7954 49.2578 38.28C48.061 39.771 48.1732 41.7465 49.4822 43.1256C49.8188 43.4984 50.2676 43.6847 49.6692 44.2811C48.0984 45.8466 48.0984 47.8221 49.6692 49.5368C50.305 50.245 50.6416 50.6923 49.8188 51.5496C48.8838 52.5187 48.9212 53.8605 49.5196 55.0533C49.9684 55.9479 49.5944 55.9852 48.8464 55.9852C43.76 55.9852 38.6362 55.9479 33.5497 55.9852C32.7269 55.9852 32.5025 55.7242 32.5025 54.9042C32.5399 50.8786 32.5025 46.853 32.5025 42.7902C32.5025 42.8647 32.4651 42.8647 32.4651 42.8647Z" fill="#FEFEFE"/>
<path d="M58.0059 44.542C59.0531 44.542 60.1003 44.542 61.1475 44.542C62.5313 44.542 63.7281 45.0638 64.7379 45.9584C65.8225 46.9275 65.5981 48.2321 64.3639 48.9403C63.9525 49.164 63.5411 49.3504 63.0549 49.3876C59.8759 49.574 56.6969 49.2385 53.5179 49.7231C52.3959 49.9095 50.7877 48.4185 50.5633 47.263C50.3763 46.4057 50.7503 45.8466 51.4983 45.4738C52.4707 45.0266 53.4805 44.7656 54.5277 44.7284C55.6871 44.6911 56.8465 44.7284 58.0433 44.7284C58.0059 44.6538 58.0059 44.6165 58.0059 44.542Z" fill="#FCFEFE"/>
<path d="M57.4098 42.6055C56.2504 42.6801 54.9788 42.7546 53.7072 42.8664C53.221 42.9037 52.7722 42.941 52.3234 42.7546C51.351 42.3073 50.416 41.7855 50.416 40.5182C50.4534 39.2508 51.5006 38.9527 52.4356 38.7663C55.6894 38.0208 59.018 38.1699 62.3092 38.319C63.2816 38.3563 64.1792 38.8036 64.8524 39.6236C65.5256 40.4063 65.376 41.3755 64.5158 41.9346C63.7304 42.4564 62.7954 42.6428 61.8604 42.6801C60.4392 42.6428 58.9806 42.6055 57.4098 42.6055Z" fill="#FCFEFE"/>
<path d="M58.9074 51.4396C60.1416 51.4396 61.3758 51.4023 62.6474 51.4396C63.358 51.4396 64.0312 51.6633 64.3304 52.446C64.6296 53.1915 64.4052 53.8997 63.919 54.4961C63.2458 55.3161 62.3482 55.8007 61.301 55.838C59.0196 55.9498 56.7382 55.9498 54.4568 55.987C53.447 55.987 52.5493 55.7634 51.8013 55.0179C50.7167 53.937 50.9411 52.6324 52.3623 52.0733C54.1576 51.3278 56.1024 51.4396 57.9724 51.4023C58.2716 51.4023 58.5708 51.4023 58.9074 51.4396C58.9074 51.4396 58.9074 51.4023 58.9074 51.4396Z" fill="#FCFEFE"/>
<path d="M200.243 63.5532C198.672 65.8642 197.102 68.1752 195.568 70.4489C195.456 70.6353 195.157 70.7844 195.269 71.0453C195.381 71.3808 195.718 71.269 195.98 71.269C197.999 71.269 200.019 71.3062 202.038 71.269C202.973 71.2317 203.086 71.5299 202.786 72.3126C201.253 76.3755 199.72 80.4011 198.186 84.464C197.401 86.5513 196.653 88.6759 196.017 90.8751C196.877 89.9432 197.737 89.0114 198.598 88.0795C201.141 85.2467 203.647 82.4139 206.19 79.6183C209.705 75.7046 213.258 71.7908 216.774 67.877C216.961 67.6906 217.26 67.5043 217.148 67.2061C216.998 66.8706 216.662 67.0197 216.4 67.0197C213.745 67.0197 211.089 66.9824 208.471 67.0197C207.499 67.0197 207.087 66.8333 207.387 65.7524C207.611 65.0069 207.611 64.2242 207.723 63.4414C215.091 63.4414 222.422 63.4787 229.789 63.4414C230.799 63.4414 231.061 63.6278 231.061 64.7087C231.024 76.9346 231.024 89.1605 231.024 101.386C231.024 101.722 231.024 102.095 231.024 102.43C230.537 102.579 230.388 102.169 230.163 101.945C227.059 98.8517 223.918 95.758 220.851 92.627C220.177 91.956 219.504 91.6578 218.494 91.6578C206.339 91.6951 194.184 91.6578 182.067 91.6951C181.057 91.6951 180.758 91.5088 180.758 90.4278C180.795 81.8548 180.795 73.2818 180.758 64.7087C180.758 63.7769 180.907 63.4414 181.955 63.4787C188.088 63.5532 194.184 63.5532 200.243 63.5532Z" fill="#FEFEFE"/>
<path d="M244.412 148.911C244.412 151.11 243.851 152.862 242.878 154.39C240.821 157.596 237.867 159.758 234.239 160.951C233.828 161.1 233.416 161.174 232.967 161.174C231.995 161.212 231.546 160.615 231.995 159.758C232.631 158.602 233.416 157.633 234.8 157.186C238.577 155.956 241.308 153.347 243.552 150.178C243.776 149.88 244 149.545 244.412 148.911Z" fill="#FDFCFC"/>
<path d="M242.241 158.379C241.343 160.615 239.847 161.883 238.276 163.075C236.78 164.194 235.172 165.125 233.302 165.498C232.666 165.61 231.918 165.834 231.656 164.902C231.507 164.305 232.33 163.262 233.04 163.15C235.92 162.777 238.314 161.398 240.558 159.683C241.007 159.348 241.343 158.752 242.241 158.379Z" fill="#FBFBF7"/>
<path d="M240.634 163.82C239.549 166.169 237.529 167.473 235.248 168.442C234.425 168.778 233.565 169.076 232.667 169.113C232.368 169.113 231.994 169.225 231.845 168.815C231.732 168.48 231.957 168.219 232.144 167.995C232.331 167.771 232.555 167.51 232.892 167.473C235.884 167.1 238.277 165.498 240.634 163.82Z" fill="#F9F7F5"/>
<path d="M149.004 73.4673C148.967 76.5983 148.144 79.282 145.863 81.4066C145.339 81.8912 144.778 82.3385 144.142 81.7048C143.507 81.0712 143.955 80.512 144.479 80.0648C146.162 78.5365 146.91 76.5983 147.022 74.3991C147.172 70.5972 146.125 67.0561 145.077 63.4778C144.853 62.7323 144.255 61.7632 145.414 61.4277C146.573 61.055 146.611 62.2105 146.873 62.9187C147.995 66.3852 148.892 69.8889 149.004 73.4673Z" fill="#1B0802"/>
<path d="M116.278 64.6344C116.241 65.0817 116.091 65.6035 115.381 65.6781C114.707 65.7153 114.408 65.268 114.333 64.6717C114.109 62.8825 113.286 61.3543 112.276 59.9378C111.341 58.6333 110.219 57.5896 108.686 57.105C108.05 56.9186 107.601 56.5459 107.863 55.8377C108.125 55.1295 108.686 55.0922 109.322 55.3159C112.089 56.2477 113.735 58.3723 115.081 60.7952C115.717 61.9507 116.129 63.1807 116.278 64.6344Z" fill="#1A0A04"/>
<path d="M125.889 81.1467C125.889 80.4012 126.001 79.693 126.225 78.9848C126.45 78.3511 126.861 77.9784 127.534 78.202C128.207 78.4257 128.432 78.9102 128.207 79.5812C127.759 80.9976 127.796 82.3394 128.768 83.5322C129.404 84.315 130.19 84.8368 131.199 85.0232C131.873 85.1723 132.396 85.545 132.209 86.2905C132.022 87.1105 131.386 87.2224 130.676 87.0733C127.983 86.5887 125.889 83.9795 125.889 81.1467Z" fill="#1B0A03"/>
<path d="M133.483 59.0801C133.708 59.0801 133.932 59.0801 134.194 59.0801C134.867 59.0801 135.353 59.3037 135.391 60.0492C135.428 60.7574 134.979 61.0929 134.306 61.1302C133.82 61.1674 133.296 61.2047 132.81 61.1674C132.174 61.1302 131.651 60.9065 131.613 60.1983C131.613 59.4155 132.062 59.1174 132.81 59.1174C132.997 59.1174 133.221 59.1174 133.483 59.0801Z" fill="#1F0E09"/>
<path d="M151.696 59.7129C152.855 59.7502 154.052 60.6448 153.977 61.3157C153.902 61.9121 153.528 62.3221 152.93 62.3221C152.07 62.3594 150.723 61.3157 150.798 60.7193C150.873 60.1229 151.209 59.7502 151.696 59.7129Z" fill="#1E0F07"/>
<path d="M133.448 66.0888C133.373 66.9461 132.887 67.3934 132.064 67.3561C131.279 67.3188 130.867 66.797 130.867 66.0515C130.905 65.306 131.353 64.7842 132.101 64.7842C132.924 64.7842 133.41 65.2687 133.448 66.0888Z" fill="#21110A"/>
<path d="M153.379 68.2127C153.342 69.07 152.856 69.5173 152.108 69.48C151.285 69.48 150.799 68.9582 150.836 68.1754C150.873 67.3554 151.397 66.9081 152.22 66.9827C153.005 67.0572 153.342 67.5418 153.379 68.2127Z" fill="#1F0C07"/>
</g>
<defs>
<clipPath id="clip0">
<rect width="248" height="233" fill="white"/>
</clipPath>
</defs>
</svg>
