<svg width="280" height="257" viewBox="0 0 280 257" fill="none" xmlns="http://www.w3.org/2000/svg">
<g clip-path="url(#clip0)">
<rect x="124.768" y="59.5938" width="121.051" height="109.877" fill="#FA9BE1"/>
<path d="M255.071 52.336C255.071 51.1773 254.786 50.835 253.623 50.835C208.337 50.8613 163.026 50.8613 117.741 50.8613C116.008 50.8613 116.008 50.8613 116.008 52.652C116.008 88.0703 116.008 123.462 116.008 158.881C116.008 159.381 116.163 159.934 115.775 160.408C122.655 166.307 125.655 174.444 128.267 182.818C130.802 190.955 133.724 198.934 136.879 206.86C137.577 206.913 138.25 206.992 138.948 206.992C159.302 206.992 179.63 206.992 199.984 207.044C201.251 207.044 201.794 206.623 202.234 205.464C204.484 199.618 207.82 194.431 212.062 189.875C216.613 185.003 221.941 181.211 227.967 178.473C232.183 176.55 236.631 175.286 241.209 174.707C245.295 174.207 249.433 173.917 253.545 174.654C254.683 174.865 255.097 174.47 255.097 173.206C255.045 132.89 255.045 92.6259 255.071 52.336ZM195.846 188.4C195.38 188.69 194.863 188.637 194.346 188.637H140.836C140.629 188.637 140.396 188.664 140.19 188.637C139.414 188.532 138.664 188.348 138.69 187.373C138.715 186.373 139.465 186.267 140.267 186.267C145.776 186.267 151.31 186.267 156.819 186.267H167.681C176.656 186.267 185.604 186.267 194.553 186.267C194.889 186.267 195.251 186.241 195.587 186.32C196.104 186.425 196.389 186.794 196.466 187.321C196.518 187.821 196.234 188.137 195.846 188.4ZM246.872 167.86C246.872 170.257 246.769 170.336 244.364 170.336H185.423C165.819 170.336 146.216 170.336 126.612 170.336C124.31 170.336 124.232 170.23 124.232 167.86C124.232 132.205 124.232 96.5233 124.232 60.868C124.232 58.893 124.465 58.656 126.353 58.656C165.819 58.656 205.286 58.656 244.752 58.656C246.691 58.656 246.872 58.8666 246.872 60.868C246.872 96.5496 246.872 132.205 246.872 167.86Z" fill="#FCDF5A"/>
<path d="M255.073 178.446C255.073 186.741 255.073 195.01 255.073 203.305C255.073 206.991 255.073 206.991 251.504 206.991C244.236 206.991 236.943 206.991 229.676 206.991C221.736 206.991 213.822 206.991 205.908 206.991C204.124 206.991 203.968 206.807 204.744 205.122C208.96 195.694 215.348 188.216 224.193 183.002C230.762 179.131 237.797 176.892 245.452 176.576C248.297 176.471 251.116 176.629 253.935 176.866C255.073 176.971 255.073 177.603 255.073 178.446Z" fill="#FCDF5A"/>
<path d="M239.475 37.4575C239.449 39.7485 237.794 41.5918 235.234 41.6182C232.932 41.6445 231.174 39.6432 231.2 37.2468C231.225 35.0875 233.217 32.9018 235.312 33.0598C237.432 33.1915 239.475 34.4818 239.475 37.4575Z" fill="#FA9BE1"/>
<path d="M254.527 37.4574C254.501 39.8274 252.613 41.6708 250.285 41.6181C248.216 41.5654 246.199 39.4324 246.225 37.2994C246.251 34.9821 248.19 33.0861 250.518 33.1388C252.923 33.1914 254.553 34.9294 254.527 37.4574Z" fill="#FCDF5A"/>
<path d="M220.208 41.6194C217.932 41.6721 216.303 39.6708 216.148 37.2744C215.993 35.0361 218.346 33.1138 220.286 33.1928C222.717 33.2718 224.295 34.9044 224.269 37.4851C224.502 39.4074 222.743 41.5668 220.208 41.6194Z" fill="#FA9BE1"/>
<path d="M244.752 58.6553C205.286 58.6553 165.819 58.6553 126.353 58.6553C124.465 58.6553 124.232 58.9186 124.232 60.8673C124.232 96.5226 124.232 132.204 124.232 167.86C124.232 170.23 124.336 170.335 126.612 170.335C146.216 170.335 165.819 170.335 185.423 170.335H244.364C246.769 170.335 246.873 170.23 246.873 167.86C246.873 132.204 246.873 96.5226 246.873 60.8673C246.873 58.8659 246.666 58.6553 244.752 58.6553ZM243.148 168.097C204.743 168.07 166.363 168.07 127.957 168.097C126.715 168.097 126.405 167.781 126.405 166.517C126.431 131.862 126.431 97.2073 126.405 62.5263C126.405 61.1833 126.715 60.8673 128.034 60.8673C147.25 60.9199 166.466 60.8936 185.682 60.8936C204.872 60.8936 224.036 60.8936 243.2 60.8673C244.39 60.8673 244.674 61.1833 244.674 62.3946C244.648 97.102 244.648 131.809 244.674 166.517C244.7 167.754 244.416 168.097 243.148 168.097Z" fill="#8D4BE2"/>
<path d="M167.658 186.268C176.607 186.268 185.581 186.268 194.529 186.268C194.865 186.268 195.228 186.242 195.564 186.321C196.081 186.426 196.365 186.795 196.443 187.321C196.495 187.822 196.236 188.138 195.848 188.401C195.383 188.691 194.865 188.638 194.348 188.638C176.503 188.638 158.684 188.638 140.839 188.638C140.632 188.638 140.399 188.664 140.192 188.638C139.416 188.533 138.666 188.348 138.692 187.374C138.718 186.373 139.468 186.268 140.27 186.268C145.778 186.268 151.287 186.268 156.822 186.268C160.417 186.268 164.037 186.268 167.658 186.268Z" fill="#8D4BE2"/>
<path d="M203.395 112.033C199.852 115.351 195.533 117.01 190.93 117.958C189.042 118.353 187.102 118.617 185.162 118.59C184.18 118.59 184.076 118.985 184.102 119.828C184.257 125.042 184.335 130.256 184.438 135.47C184.438 136.049 184.542 136.629 183.921 136.971C183.093 137.445 182.343 136.866 182.317 135.654C182.292 132.679 182.317 129.703 182.317 126.701H181.955C181.955 123.857 181.955 120.987 181.955 118.143C181.955 116.747 182.214 116.431 183.585 116.431C188.473 116.405 193.206 115.588 197.602 113.403C203.964 110.243 206.964 104.423 206.292 97.2604C205.594 89.9134 201.766 84.9364 195.404 81.8291C190.438 79.4064 185.085 78.5111 179.628 78.3004C179.214 78.2741 178.748 78.2741 178.36 78.1424C177.895 77.9844 177.792 77.5104 177.869 77.0364C177.998 76.3254 178.49 76.1411 179.11 76.1674C182.059 76.2201 184.955 76.5361 187.826 77.1681C193.516 78.4058 198.766 80.5124 203.033 84.7258C209.835 91.5461 210.637 105.239 203.395 112.033Z" fill="#200F09"/>
<path d="M184.7 143.344C184.597 144.16 184.183 144.634 183.356 144.608C182.58 144.582 182.062 144.134 182.062 143.318C182.062 142.449 182.606 141.948 183.459 141.975C184.261 142.027 184.675 142.554 184.7 143.344Z" fill="#200F09"/>
<path d="M159.061 206.993C159.061 206.993 164.906 222.634 166.147 230.956C166.535 233.563 166.587 236.196 165.682 238.75C164.595 241.779 162.5 243.675 159.5 244.623C156.345 245.597 153.112 245.623 149.905 245.044C141.164 243.464 132.578 241.278 124.095 238.566C123.758 238.461 123.448 238.329 123.164 238.197C123.034 237.776 123.371 237.723 123.552 237.592C130.017 233.168 136.276 228.428 142.483 223.609C143.414 222.898 143.673 222.239 143.362 221.054C140.388 209.705 137.466 198.355 134.543 187.006C134.414 186.505 134.259 186.031 134.879 185.663C136.69 184.662 140.915 181.576 140.915 181.576L150.227 180.645L153.021 188.094L159.061 206.993Z" fill="#FEFEFE"/>
<path d="M122.182 100.501C122.182 100.527 122.182 100.553 122.182 100.553H122.207H122.233C122.233 100.553 122.259 100.553 122.285 100.527C122.285 100.527 122.311 100.527 122.311 100.501C122.285 100.501 122.233 100.501 122.182 100.501Z" fill="#FEFEFE"/>
<path d="M122.182 100.502C122.182 100.528 122.182 100.555 122.182 100.555H122.208H122.23H122.234C122.234 100.555 122.259 100.555 122.285 100.528C122.285 100.528 122.311 100.528 122.311 100.502C122.291 100.502 122.257 100.502 122.218 100.502C122.206 100.502 122.194 100.502 122.182 100.502ZM168.502 233.643C168.321 228.745 167.131 224.058 165.657 219.423C164.312 215.21 162.864 211.049 161.467 206.862C158.312 198.962 155.389 190.957 152.855 182.82C150.243 174.472 147.269 166.309 140.363 160.41C139.768 160.384 139.51 159.857 139.122 159.541C134.001 155.881 128.182 154.301 122.078 153.564C118.975 153.195 118.923 153.274 118.173 150.114C117.992 149.35 117.397 148.718 117.656 147.77C118.509 144.61 119.311 141.424 120.087 138.211C120.268 137.474 120.63 137.263 121.328 137.158C123.397 136.895 125.389 136.315 127.277 135.473C130.872 133.866 133.51 131.286 134.596 127.309C135.424 124.228 135.087 121.121 134.648 118.04C133.872 112.747 132.579 107.586 131.337 102.398C131.208 101.819 131.234 101.476 131.699 101.055C132.992 99.8438 133.587 98.2638 133.613 96.4732C133.613 95.6305 133.691 94.6562 132.501 94.6298C131.286 94.6035 131.544 95.6042 131.492 96.3678C131.467 96.6312 131.467 96.8945 131.415 97.1578C131.001 99.7648 128.596 101.16 126.191 100.16C124.846 99.6068 123.837 98.6325 123.449 97.2105C123.061 95.8675 122.389 95.4462 121.07 95.7885C119.803 96.1308 118.639 96.1572 117.94 94.6562C117.656 94.0505 117.035 93.9978 116.492 94.3402C116.001 94.6562 115.871 95.1565 116.156 95.7095C116.234 95.8938 116.337 96.0782 116.57 96.5258C113.466 95.9728 112.846 97.8162 112.794 100.212C112.794 100.291 112.742 100.37 112.716 100.476C111.604 104.004 108.087 105.321 105.216 103.214C104.207 102.477 103.432 101.555 102.914 100.423C102.682 99.8965 102.501 99.3698 102.268 98.8432C102.009 98.2112 101.492 97.9742 100.897 98.2375C100.302 98.4745 100.069 98.9748 100.302 99.6332C100.509 100.212 100.716 100.792 100.975 101.345C102.552 104.715 105.707 106.717 108.914 106.322C112.147 105.927 114.268 103.636 115.07 99.6595C115.147 99.2118 115.096 98.6062 115.82 98.6852C116.725 98.7642 117.734 97.8425 118.535 98.9748C120.139 101.213 121.613 103.53 122.518 106.164C123.294 108.349 123.346 110.535 122.259 112.668C121.897 113.379 121.587 114.116 122.492 114.564C123.475 115.038 123.837 114.274 124.199 113.511C126.087 109.508 125.001 105.821 123.087 102.214C122.817 101.689 122.383 101.211 122.23 100.555C122.226 100.537 122.222 100.52 122.218 100.502C122.214 100.485 122.211 100.467 122.208 100.449C122.182 100.449 122.156 100.449 122.156 100.449H122.13H122.104C122.078 100.449 122.053 100.423 122.053 100.423L122.027 100.397C122.001 100.37 121.975 100.344 121.975 100.318C121.535 99.6858 121.122 99.0275 120.708 98.3428C120.475 97.9478 120.811 97.9478 121.07 97.9215C121.406 97.9478 122.673 100.054 122.492 100.318C122.466 100.37 122.415 100.397 122.389 100.423C122.544 100.423 122.647 100.423 122.699 100.476C124.38 101.95 126.294 102.819 128.57 102.556C129.178 102.479 129.265 102.856 129.365 103.292C129.367 103.301 129.37 103.311 129.372 103.32C129.863 105.374 130.38 107.401 130.846 109.455C131.906 114.195 133.018 118.962 132.967 123.86C132.941 127.704 131.234 130.654 128.001 132.655C125.673 134.077 123.087 134.762 120.423 135.078C119.13 135.236 118.535 135.762 118.199 137.105C115.846 147.112 113.259 157.066 109.044 166.493C108.242 168.31 107.57 170.18 106.768 172.155C106.561 171.839 106.457 171.707 106.38 171.549C102.578 163.781 98.7763 156.013 94.9487 148.271C94.6642 147.691 94.69 147.191 94.8452 146.638C96.1125 141.503 97.328 136.342 98.6211 131.207C98.8539 130.285 98.6729 129.679 97.8711 129.232C96.8366 128.652 96.0349 127.783 95.3107 126.835C93.2417 124.202 91.8451 121.174 90.8365 118.014C90.5003 116.96 89.983 116.565 88.8968 116.565C85.5088 116.486 82.2243 115.828 79.1725 114.248C76.1724 112.694 73.7931 110.588 73.0689 107.059C72.0344 102.135 74.3362 97.5002 78.6294 96.2888C82.8708 95.1038 86.802 96.0782 90.3968 98.5798C90.8624 98.8958 91.1986 99.3172 91.871 99.1592C93.6814 98.6852 95.1556 97.7372 96.3711 96.2625C98.078 94.1558 99.2418 91.7858 99.785 89.1262C99.9143 88.4415 100.225 88.0728 100.819 87.7832C104.44 86.1242 108.216 84.9128 112.199 84.5442C117.656 84.0175 122.13 85.7292 125.156 90.6272C125.492 91.1538 125.854 91.6015 125.285 92.3388C124.768 93.0235 125.311 93.8398 126.191 93.8662C127.018 93.8925 127.82 93.8135 128.648 93.7608C129.165 93.7345 129.423 93.3922 129.553 92.9445C129.708 92.4705 129.475 91.9175 129.087 91.8385C127.898 91.6278 127.742 90.5218 127.122 89.8108C126.372 88.9155 126.63 88.2835 127.277 87.4672C129.423 84.7022 130.484 81.5158 130.148 77.9345C129.708 73.1155 126.268 70.3505 121.587 71.1142C118.949 71.5355 116.466 72.5625 113.932 73.4315C109.716 74.8798 105.707 76.8285 101.828 78.9615C99.1642 80.4098 96.6556 82.3322 94.3021 84.3862C92.3365 86.0978 90.5779 87.9938 88.9485 90.1532C87.5261 87.6252 85.5088 86.2295 82.8191 85.8082C79.7415 85.3078 76.8966 85.9925 74.2586 87.5462C69.4223 90.4165 67.7413 95.3935 66.3188 100.397C65.5171 103.214 65.2584 106.216 64.6895 109.113C64.1722 111.746 63.3188 114.301 62.1291 116.671C60.7584 119.409 59.3101 122.122 58.2497 124.992C56.0772 130.864 57.81 136.447 63.8877 138.396C69.3447 140.16 75.8621 137.579 78.7846 132.55C80.9829 128.731 81.2415 124.597 80.957 120.331C80.8794 119.383 80.2329 118.093 80.8277 117.592C81.3967 117.092 82.5346 118.04 83.4657 118.119C84.2416 118.172 84.6295 118.514 84.8881 119.304C85.5864 121.384 86.7244 123.307 88.5865 124.386C91.3279 125.966 93.5521 128.02 95.6728 130.311C96.1383 130.838 96.3711 131.18 96.1901 131.865C95.1297 136.105 94.1211 140.371 93.0866 144.61C93.009 144.979 92.9314 145.321 92.5693 145.611C90.9658 146.928 89.3623 148.271 87.8365 149.693C86.983 150.509 86.0778 150.772 84.9398 150.799C78.5001 150.878 72.112 151.404 65.9309 153.406C55.4565 156.829 48.5254 163.755 45.6546 174.683C44.6201 178.659 44.1029 182.688 44.077 186.77C44.0512 193.011 44.6201 199.226 44.9822 205.414C45.6288 215.868 46.2753 226.349 47.1547 236.777C47.6202 242.544 48.1374 248.311 48.6288 254.078C48.7581 254.21 48.784 254.341 48.6806 254.499C48.7323 254.973 48.8099 255.447 48.8616 255.921C48.9133 256.053 48.965 256.185 49.0168 256.343C49.0685 256.474 49.1202 256.632 49.1719 256.764C49.2495 256.764 49.1214 257.966 49.1472 258.045C50.7507 257.887 51.0599 256.58 50.9047 254.947C50.672 252.682 50.3616 250.444 50.1806 248.179C49.7409 243.071 49.353 237.962 48.9909 232.853C48.4325 225.067 47.897 217.258 47.3628 209.468C47.3279 208.96 47.293 208.451 47.2581 207.942C47.0512 204.703 46.8443 201.464 46.6374 198.225C46.2753 191.931 45.8357 185.638 46.7926 179.318C48.7323 166.651 56.0772 158.251 68.2326 154.959C73.819 153.458 79.5087 153.037 85.2502 152.879C86.3623 152.853 86.9054 153.142 87.3709 154.196C91.871 164.15 96.4487 174.051 101 183.979C101.259 184.532 101.466 185.164 102.216 185.164C102.966 185.19 103.199 184.584 103.457 184.031C104.518 181.872 105.578 179.739 106.613 177.553C106.949 176.842 107.208 176.763 107.802 177.343C109.587 179.054 111.423 180.713 113.233 182.425C113.699 182.846 114.165 183.268 114.837 182.978C115.458 182.715 115.484 182.109 115.561 181.53C115.82 179.66 116.078 177.79 116.337 175.921C117.242 169.416 118.121 162.886 119.001 156.381C119.104 155.591 119.363 155.302 120.242 155.407C123.035 155.749 125.803 156.144 128.492 156.855C132.992 158.067 137.182 159.936 140.518 163.412C143.467 166.019 145.329 169.39 146.958 172.919C147.812 174.762 148.613 176.658 149.208 178.738C146.105 178.607 143.286 179.502 140.441 180.266C138.579 181.24 136.536 181.898 134.777 183.083C133.794 183.742 133.484 183.452 133.329 182.399C133.199 181.609 132.941 180.713 131.88 180.977C130.717 181.266 131.079 182.188 131.286 183.004C132.941 189.351 134.544 195.723 136.225 202.07C136.432 202.86 136.303 203.176 135.527 203.465C130.38 205.361 125.285 207.31 120.165 209.285C119.57 209.522 119.053 209.522 118.432 209.338C108.294 206.072 98.1556 202.807 87.8106 200.279C87.1382 200.121 86.8278 199.7 86.5175 199.147C82.1984 191.247 77.8794 183.373 73.5345 175.499C73.1724 174.841 72.8362 174.183 72.4224 173.577C72.0862 173.077 71.543 172.971 71.0517 173.314C70.5861 173.63 70.3792 174.104 70.6637 174.683C70.8448 175.025 71.0258 175.368 71.2068 175.736C71.2083 175.739 71.2098 175.742 71.2113 175.745C72.1926 177.559 73.1738 179.373 74.1293 181.135C63.9136 182.03 57.06 188.376 50.4909 195.381C50.0771 194.67 49.6892 193.985 49.3013 193.327C48.9392 192.721 48.4219 192.432 47.7754 192.8C47.1547 193.169 47.1029 193.775 47.465 194.407C47.5685 194.591 47.6719 194.802 47.7754 194.986C49.922 198.804 52.0168 202.623 54.1893 206.441L54.1913 206.445C58.7424 214.449 63.2936 222.453 67.8964 230.404C71.4137 236.487 74.9828 242.544 78.9397 248.337C80.8536 251.155 83.3881 253.104 86.7761 253.657C90.0348 254.21 93.19 253.63 96.2935 252.577C99.9919 251.313 103.509 249.575 106.897 247.6C110.802 245.309 114.734 243.123 118.561 240.674C120.009 239.753 121.251 239.437 122.673 240.358C123.501 240.885 124.432 240.911 125.311 241.148C128.699 242.123 132.087 243.123 135.501 244.019C136.355 244.229 136.587 244.651 136.639 245.441C136.846 248.153 137.105 250.865 137.363 253.551C137.437 254.33 137.272 257.874 138.286 258.045C138.336 258.054 138.389 258.054 138.445 258.045C139.557 257.887 139.562 254.131 139.484 253.341C139.251 250.892 139.044 248.443 138.786 245.994C138.682 245.072 138.837 244.782 139.846 245.019C143.648 245.967 147.475 246.889 151.381 247.31C154.355 247.626 157.303 247.521 160.226 246.547C166.252 244.624 168.709 239.621 168.502 233.643ZM105.397 175.42C104.388 177.448 103.38 179.476 102.294 181.688C100.742 178.317 99.2677 175.157 97.8194 171.997C94.8969 165.651 92.0262 159.278 89.0779 152.958C88.7158 152.168 88.7934 151.72 89.4658 151.194C90.2934 150.562 91.0693 149.877 91.7934 149.113C92.44 148.429 92.6986 148.718 93.0607 149.403C97.147 157.751 101.233 166.098 105.345 174.446C105.475 174.788 105.604 175.052 105.397 175.42ZM117.061 155.328C115.949 163.36 114.837 171.391 113.725 179.423C113.725 179.502 113.647 179.555 113.492 179.765C111.785 178.185 110.078 176.605 108.371 175.025C108.035 174.736 108.164 174.42 108.294 174.077C111.009 167.257 113.725 160.437 116.415 153.616C116.466 153.511 116.518 153.379 116.621 153.169C117.061 153.985 117.165 154.617 117.061 155.328ZM109.277 208.785C111.449 209.469 113.621 210.154 116.156 210.97C113.389 212.076 111.009 213.051 108.604 214.025C104.932 215.5 101.233 216.974 97.5608 218.449C97.0694 218.633 96.578 218.844 96.0607 218.791C91.2244 218.265 86.4399 219.213 81.6294 219.476C79.6898 219.581 77.7501 219.713 75.8362 219.397C75.5776 219.344 75.319 219.344 75.0862 219.239C74.5172 219.028 73.8448 218.818 73.8448 218.08C73.8448 217.396 74.4655 217.185 74.9828 217.001C76.5863 216.448 78.2673 216.316 79.9484 216.211C83.9829 215.921 88.0434 215.974 92.1038 215.895C92.4917 215.895 92.8796 215.895 93.2676 215.842C93.8883 215.737 94.3021 215.368 94.2504 214.683C94.1986 213.999 93.7848 213.63 93.1383 213.656C91.8451 213.656 90.552 213.735 89.2589 213.762C85.1209 213.841 80.9829 213.788 76.8707 214.367C75.8362 214.499 74.8535 214.789 73.8707 215.131C73.5345 215.263 73.1207 215.974 72.7327 215.157C72.4224 214.499 72.2155 213.814 72.9655 213.288C73.6638 212.814 74.4655 212.629 75.2673 212.524C78.5777 212.024 81.8881 212.208 85.1985 212.208C87.0864 212.208 89.0003 212.208 90.8882 212.155C91.5607 212.155 92.1038 211.839 92.0779 211.049C92.052 210.207 91.5089 209.943 90.7589 209.97C86.3106 210.128 81.8881 209.785 77.4397 210.075C75.5 210.207 73.5862 210.417 71.8275 211.418C71.5431 211.602 71.3103 211.681 71.1034 211.286C70.793 210.654 70.6637 210.022 71.2586 209.496C72.0344 208.811 72.9655 208.495 73.9483 208.311C77.1811 207.626 80.4656 207.626 83.7243 207.731C85.4312 207.784 87.164 207.916 88.8968 208.047C89.5951 208.1 90.2417 208.047 90.4227 207.231C90.6037 206.388 90.0089 206.072 89.3623 205.835C85.2243 204.361 81.0863 202.886 76.9483 201.385C76.4569 201.201 76.0173 200.964 75.5517 200.753C77.6725 200.2 79.6898 200.674 81.6812 201.122C90.9917 203.149 100.147 205.914 109.277 208.785ZM110.647 243.044C106.018 245.651 101.492 248.495 96.4745 250.312C94.8193 250.918 93.1124 251.392 91.3538 251.629C86.7244 252.261 83.1036 250.707 80.4398 246.731C76.3276 240.543 72.5517 234.196 68.8533 227.745C63.3188 218.107 57.8359 208.416 52.353 198.752C52.0168 198.172 51.7065 197.672 52.2754 196.987C57.1893 191.036 62.9567 186.322 70.3792 183.979C70.9482 183.794 71.5431 183.689 72.1379 183.61C75.0345 183.241 75.5 183.505 76.9225 186.112C78.9139 189.798 80.957 193.459 82.9743 197.119C83.3364 197.804 83.6984 198.488 84.1898 199.384C81.9915 199.041 80.0518 198.725 78.0863 198.436C77.0518 198.278 76.0173 198.225 74.9828 198.383C73.9741 198.541 73.3276 199.147 73.0948 200.121C72.862 201.148 73.3534 201.912 74.2327 202.412C76.1207 203.518 78.1897 204.124 80.207 204.835C80.5174 204.94 80.8794 204.94 81.1122 205.361C78.9397 205.519 76.7931 205.546 74.6724 205.914C73.1724 206.178 71.7241 206.546 70.431 207.389C68.2585 208.785 68.0257 211.339 69.9396 213.13C70.0948 213.288 70.3275 213.367 70.2758 213.63C69.9396 215.737 71.5689 217.264 71.931 219.186C72.2155 220.714 73.7672 221.161 75.1638 221.425C78.6035 222.057 82.0432 221.609 85.4571 221.319C88.9744 221.03 92.4917 220.477 96.009 220.977C96.6814 221.082 97.2763 220.819 97.8711 220.582C109.587 215.842 121.303 211.128 133.122 206.678C134.182 206.283 135.242 205.967 136.303 205.546C136.872 205.309 137.053 205.519 137.182 206.046C138.475 211.049 139.743 216.053 141.062 221.03C141.217 221.609 140.984 221.899 140.57 222.241C131.027 229.799 121.277 237.067 110.647 243.044ZM165.683 238.752C164.596 241.78 162.502 243.676 159.502 244.624C156.346 245.625 153.114 245.625 149.907 245.046C141.165 243.466 132.579 241.28 124.096 238.568C123.76 238.462 123.449 238.331 123.165 238.225C123.035 237.804 123.372 237.751 123.553 237.62C130.018 233.196 136.277 228.456 142.484 223.637C143.415 222.926 143.674 222.267 143.363 221.082C140.389 209.733 137.467 198.383 134.544 187.033C134.415 186.507 134.26 186.059 134.88 185.69C136.691 184.69 138.424 183.531 140.441 182.978C143.182 181.714 146.027 181.003 149.053 181.135C149.751 181.161 150.217 181.372 150.45 182.162C152.907 190.509 155.984 198.62 159.062 206.731C159.088 206.81 159.088 206.915 159.088 206.994C162.036 214.789 164.933 222.636 166.174 230.957C166.536 233.564 166.588 236.198 165.683 238.752Z" fill="white"/>
<path d="M122.234 100.555H122.23C122.383 101.211 122.817 101.689 123.087 102.214C125.001 105.821 126.087 109.508 124.199 113.511C123.837 114.274 123.475 115.038 122.492 114.564C121.587 114.116 121.897 113.379 122.259 112.668C123.346 110.535 123.294 108.349 122.518 106.164C121.613 103.53 120.139 101.213 118.535 98.9748C117.734 97.8425 116.725 98.7642 115.82 98.6852C115.096 98.6062 115.147 99.2118 115.07 99.6595C114.268 103.636 112.147 105.927 108.914 106.322C105.707 106.717 102.552 104.715 100.975 101.345C100.716 100.792 100.509 100.212 100.302 99.6332C100.069 98.9748 100.302 98.4745 100.897 98.2375C101.492 97.9742 102.009 98.2112 102.268 98.8432C102.501 99.3698 102.682 99.8965 102.914 100.423C103.432 101.555 104.207 102.477 105.216 103.214C108.087 105.321 111.604 104.004 112.716 100.476C112.742 100.37 112.794 100.291 112.794 100.212C112.846 97.8162 113.466 95.9728 116.57 96.5258C116.337 96.0782 116.234 95.8938 116.156 95.7095C115.871 95.1565 116.001 94.6562 116.492 94.3402C117.035 93.9978 117.656 94.0505 117.94 94.6562C118.639 96.1572 119.803 96.1308 121.07 95.7885C122.389 95.4462 123.061 95.8675 123.449 97.2105C123.837 98.6325 124.846 99.6068 126.191 100.16C128.596 101.16 131.001 99.7648 131.415 97.1578C131.467 96.8945 131.467 96.6312 131.492 96.3678C131.544 95.6042 131.286 94.6035 132.501 94.6298L129.553 92.9445C129.423 93.3922 129.165 93.7345 128.648 93.7608C127.82 93.8135 127.018 93.8925 126.191 93.8662C125.311 93.8398 124.768 93.0235 125.285 92.3388C125.854 91.6015 125.492 91.1538 125.156 90.6272C122.13 85.7292 117.656 84.0175 112.199 84.5442C108.216 84.9128 104.44 86.1242 100.819 87.7832C100.225 88.0728 99.9143 88.4415 99.785 89.1262C99.2418 91.7858 98.078 94.1558 96.3711 96.2625C95.1556 97.7372 93.6814 98.6852 91.871 99.1592C91.1986 99.3172 90.8624 98.8958 90.3968 98.5798C86.802 96.0782 82.8708 95.1038 78.6294 96.2888C74.3362 97.5002 72.0344 102.135 73.0689 107.059C73.7931 110.588 76.1724 112.694 79.1725 114.248C82.2243 115.828 85.5088 116.486 88.8968 116.565C89.983 116.565 90.5003 116.96 90.8365 118.014C91.8451 121.174 93.2417 124.202 95.3107 126.835C96.0349 127.783 96.8366 128.652 97.8711 129.232C98.6729 129.679 98.8539 130.285 98.6211 131.207C97.328 136.342 96.1125 141.503 94.8452 146.638C94.69 147.191 94.6642 147.691 94.9487 148.271C98.7763 156.013 102.578 163.781 106.38 171.549C106.457 171.707 106.561 171.839 106.768 172.155C107.57 170.18 108.242 168.31 109.044 166.493C113.259 157.066 115.846 147.112 118.199 137.105C118.535 135.762 119.13 135.236 120.423 135.078C123.087 134.762 125.673 134.077 128.001 132.655C131.234 130.654 132.941 127.704 132.967 123.86C133.018 118.962 131.906 114.195 130.846 109.455C130.38 107.401 129.863 105.374 129.372 103.32L129.365 103.292C129.265 102.856 129.178 102.479 128.57 102.556C126.294 102.819 124.38 101.95 122.699 100.476C122.647 100.423 122.544 100.423 122.389 100.423C122.415 100.397 122.466 100.37 122.492 100.318C122.673 100.054 121.406 97.9478 121.07 97.9215C120.811 97.9478 120.475 97.9478 120.708 98.3428C121.122 99.0275 121.535 99.6858 121.975 100.318C121.975 100.344 122.001 100.37 122.027 100.397L122.053 100.423C122.053 100.423 122.078 100.449 122.104 100.449H122.13H122.156H122.208C122.211 100.467 122.214 100.485 122.218 100.502H122.311C122.311 100.528 122.285 100.528 122.285 100.528C122.259 100.555 122.234 100.555 122.234 100.555Z" fill="white"/>
<path d="M50.9047 254.947C51.0599 256.58 50.7507 257.887 49.1472 258.045H138.286C137.272 257.874 137.437 254.33 137.363 253.551C137.105 250.865 136.846 248.153 136.639 245.441C136.587 244.651 136.355 244.229 135.501 244.019C132.087 243.123 128.699 242.123 125.311 241.148C124.432 240.911 123.501 240.885 122.673 240.358C121.251 239.437 120.009 239.753 118.561 240.674C114.734 243.123 110.802 245.309 106.897 247.6C103.509 249.575 99.9919 251.313 96.2935 252.577C93.19 253.63 90.0348 254.21 86.7761 253.657C83.3881 253.104 80.8536 251.155 78.9397 248.337C74.9828 242.544 71.4137 236.487 67.8964 230.404C63.2936 222.453 58.7424 214.449 54.1913 206.445L54.1893 206.441C52.0168 202.623 49.922 198.804 47.7754 194.986C47.6719 194.802 47.5685 194.591 47.465 194.407C47.1029 193.775 47.1547 193.169 47.7754 192.8C48.4219 192.432 48.9392 192.721 49.3013 193.327C49.6892 193.985 50.0771 194.67 50.4909 195.381C57.06 188.376 63.9136 182.03 74.1293 181.135C73.1738 179.373 72.1926 177.559 71.2113 175.745L71.2068 175.736C71.0258 175.368 70.8448 175.025 70.6637 174.683C70.3792 174.104 70.5861 173.63 71.0517 173.314C71.543 172.971 72.0862 173.077 72.4224 173.577C72.8362 174.183 73.1724 174.841 73.5345 175.499C77.8794 183.373 82.1984 191.247 86.5175 199.147C86.8278 199.7 87.1382 200.121 87.8106 200.279C98.1556 202.807 108.294 206.072 118.432 209.338C119.053 209.522 119.57 209.522 120.165 209.285C125.285 207.31 130.38 205.361 135.527 203.465C136.303 203.176 136.432 202.86 136.225 202.07C134.544 195.723 132.941 189.351 131.286 183.004C131.079 182.188 130.717 181.266 131.88 180.977C132.941 180.713 133.199 181.609 133.329 182.399C133.484 183.452 133.794 183.742 134.777 183.083C136.536 181.898 138.579 181.24 140.441 180.266C143.286 179.502 146.105 178.607 149.208 178.738C148.613 176.658 147.812 174.762 146.958 172.919C145.329 169.39 143.467 166.019 140.518 163.412C137.182 159.936 132.992 158.067 128.492 156.855C125.803 156.144 123.035 155.749 120.242 155.407C119.363 155.302 119.104 155.591 119.001 156.381C118.121 162.886 117.242 169.416 116.337 175.921L115.561 181.53C115.484 182.109 115.458 182.715 114.837 182.978C114.165 183.268 113.699 182.846 113.233 182.425C111.423 180.713 109.587 179.054 107.802 177.343C107.208 176.763 106.949 176.842 106.613 177.553C105.578 179.739 104.518 181.872 103.457 184.031C103.199 184.584 102.966 185.19 102.216 185.164C101.466 185.164 101.259 184.532 101 183.979C96.4487 174.051 91.871 164.15 87.3709 154.196C86.9054 153.142 86.3623 152.853 85.2502 152.879C79.5087 153.037 73.819 153.458 68.2326 154.959C56.0772 158.251 48.7323 166.651 46.7926 179.318C45.8357 185.638 46.2753 191.931 46.6374 198.225L47.2581 207.942L47.3628 209.468C47.897 217.258 48.4325 225.067 48.9909 232.853C49.353 237.962 49.7409 243.071 50.1806 248.179C50.3616 250.444 50.672 252.682 50.9047 254.947Z" fill="white"/>
<path d="M78.6023 20.253C78.6023 19.0417 78.2403 18.8047 77.1282 18.8047C56.3606 18.8574 35.593 18.8574 14.8253 18.831C13.6098 18.831 13.3253 19.1997 13.3512 20.3847C13.377 26.8627 13.377 33.3407 13.377 39.8187C13.377 42.3993 13.377 45.0063 13.377 47.587V70.102C13.377 76.9486 13.377 83.7953 13.3512 90.642C13.3512 91.669 13.5581 92.0903 14.6702 92.0903C35.5154 92.064 56.3864 92.064 77.2316 92.0903C78.3437 92.0903 78.6023 91.7216 78.6023 90.6683C78.5765 67.2053 78.5765 43.7423 78.6023 20.253ZM73.016 70.6287C73.016 71.1553 73.016 71.682 72.9643 72.2086C72.9126 72.9196 72.5247 73.3146 71.7746 73.3146H70.8695C54.2398 73.3146 37.6102 73.3146 20.9806 73.3146C19.2478 73.3146 19.0668 73.1303 19.0668 71.366V26.3623C19.0668 24.1767 19.1185 24.124 21.2134 24.124H46.0414C54.3692 24.124 62.671 24.124 70.9988 24.124C72.7833 24.124 73.0419 24.3874 73.0419 26.1517C73.016 40.9773 73.016 55.803 73.016 70.6287Z" fill="#13D6A3"/>
<path d="M122.182 100.502C122.182 100.528 122.182 100.555 122.182 100.555H122.208H122.234C122.234 100.555 122.26 100.555 122.285 100.528C122.285 100.528 122.311 100.528 122.311 100.502C122.285 100.502 122.234 100.502 122.182 100.502ZM168.502 233.643C168.321 228.745 167.131 224.058 165.657 219.423C164.312 215.21 162.864 211.049 161.467 206.862C158.312 198.962 155.389 190.957 152.855 182.82C150.243 174.472 147.269 166.309 140.363 160.41C139.768 160.384 139.51 159.857 139.122 159.541C134.001 155.881 128.182 154.301 122.078 153.564C118.975 153.195 118.923 153.274 118.173 150.114C117.992 149.35 117.397 148.718 117.656 147.77C118.509 144.61 119.311 141.424 120.087 138.211C120.268 137.474 120.63 137.263 121.328 137.158C123.397 136.895 125.389 136.315 127.277 135.473C130.872 133.866 133.51 131.286 134.596 127.309C135.424 124.228 135.087 121.121 134.648 118.04C133.872 112.747 132.579 107.586 131.337 102.398C131.208 101.819 131.234 101.476 131.699 101.055C132.992 99.8438 133.587 98.2638 133.613 96.4732C133.613 95.6305 133.691 94.6562 132.501 94.6298C131.286 94.6035 131.544 95.6042 131.492 96.3678C131.467 96.6312 131.467 96.8945 131.415 97.1578C131.001 99.7648 128.596 101.16 126.191 100.16C124.846 99.6068 123.837 98.6325 123.449 97.2105C123.061 95.8675 122.389 95.4462 121.07 95.7885C119.803 96.1308 118.639 96.1572 117.94 94.6562C117.656 94.0505 117.035 93.9978 116.492 94.3402C116.001 94.6562 115.871 95.1565 116.156 95.7095C116.234 95.8938 116.337 96.0782 116.57 96.5258C113.466 95.9728 112.846 97.8162 112.794 100.212C112.794 100.291 112.742 100.37 112.716 100.476C111.604 104.004 108.087 105.321 105.216 103.214C104.207 102.477 103.432 101.555 102.914 100.423C102.682 99.8965 102.501 99.3698 102.268 98.8432C102.009 98.2112 101.492 97.9742 100.897 98.2375C100.302 98.4745 100.069 98.9748 100.302 99.6332C100.509 100.212 100.716 100.792 100.975 101.345C102.552 104.715 105.707 106.717 108.914 106.322C112.147 105.927 114.268 103.636 115.07 99.6595C115.147 99.2118 115.096 98.6062 115.82 98.6852C116.725 98.7642 117.734 97.8425 118.535 98.9748C120.139 101.213 121.613 103.53 122.518 106.164C123.294 108.349 123.346 110.535 122.26 112.668C121.897 113.379 121.587 114.116 122.492 114.564C123.475 115.038 123.837 114.274 124.199 113.511C126.087 109.508 125.001 105.821 123.087 102.214C122.803 101.661 122.337 101.16 122.208 100.449C122.182 100.449 122.156 100.449 122.156 100.449H122.13H122.104C122.078 100.449 122.053 100.423 122.053 100.423L122.027 100.397C122.001 100.37 121.975 100.344 121.975 100.318C121.535 99.6858 121.122 99.0275 120.708 98.3428C120.475 97.9478 120.811 97.9478 121.07 97.9215C121.406 97.9478 122.673 100.054 122.492 100.318C122.466 100.37 122.415 100.397 122.389 100.423C122.544 100.423 122.647 100.423 122.699 100.476C124.38 101.95 126.294 102.819 128.57 102.556C129.191 102.477 129.268 102.872 129.372 103.32C129.863 105.374 130.38 107.401 130.846 109.455C131.906 114.195 133.018 118.962 132.967 123.86C132.941 127.704 131.234 130.654 128.001 132.655C125.673 134.077 123.087 134.762 120.423 135.078C119.13 135.236 118.535 135.762 118.199 137.105C115.846 147.112 113.259 157.066 109.044 166.493C108.242 168.31 107.57 170.18 106.768 172.155C106.561 171.839 106.458 171.707 106.38 171.549C102.578 163.781 98.7763 156.013 94.9487 148.271C94.6642 147.691 94.69 147.191 94.8452 146.638C96.1125 141.503 97.328 136.342 98.6211 131.207C98.8539 130.285 98.6729 129.679 97.8711 129.232C96.8366 128.652 96.0349 127.783 95.3107 126.835C93.2417 124.202 91.8452 121.174 90.8365 118.014C90.5003 116.96 89.9831 116.565 88.8968 116.565C85.5088 116.486 82.2243 115.828 79.1725 114.248C76.1724 112.694 73.7931 110.588 73.0689 107.059C72.0344 102.135 74.3362 97.5002 78.6294 96.2888C82.8708 95.1038 86.802 96.0782 90.3969 98.5798C90.8624 98.8958 91.1986 99.3172 91.871 99.1592C93.6814 98.6852 95.1556 97.7372 96.3711 96.2625C98.078 94.1558 99.2418 91.7858 99.785 89.1262C99.9143 88.4415 100.225 88.0728 100.819 87.7832C104.44 86.1242 108.216 84.9128 112.199 84.5442C117.656 84.0175 122.13 85.7292 125.156 90.6272C125.492 91.1538 125.854 91.6015 125.285 92.3388C124.768 93.0235 125.311 93.8398 126.191 93.8662C127.018 93.8925 127.82 93.8135 128.648 93.7608C129.165 93.7345 129.423 93.3922 129.553 92.9445C129.708 92.4705 129.475 91.9175 129.087 91.8385C127.898 91.6278 127.742 90.5218 127.122 89.8108C126.372 88.9155 126.63 88.2835 127.277 87.4672C129.423 84.7022 130.484 81.5158 130.148 77.9345C129.708 73.1155 126.268 70.3505 121.587 71.1142C118.949 71.5355 116.466 72.5625 113.932 73.4315C109.716 74.8798 105.707 76.8285 101.828 78.9615C99.1643 80.4098 96.6556 82.3322 94.3021 84.3862C92.3365 86.0978 90.5779 87.9938 88.9486 90.1532C87.5261 87.6252 85.5088 86.2295 82.8191 85.8082C79.7415 85.3078 76.8966 85.9925 74.2586 87.5462C69.4223 90.4165 67.7413 95.3935 66.3188 100.397C65.5171 103.214 65.2585 106.216 64.6895 109.113C64.1722 111.746 63.3188 114.301 62.1291 116.671C60.7584 119.409 59.3101 122.122 58.2497 124.992C56.0772 130.864 57.81 136.447 63.8877 138.396C69.3447 140.16 75.8621 137.579 78.7846 132.55C80.9829 128.731 81.2415 124.597 80.957 120.331C80.8794 119.383 80.2329 118.093 80.8277 117.592C81.3967 117.092 82.5346 118.04 83.4657 118.119C84.2416 118.172 84.6295 118.514 84.8881 119.304C85.5864 121.384 86.7244 123.307 88.5865 124.386C91.3279 125.966 93.5521 128.02 95.6728 130.311C96.1383 130.838 96.3711 131.18 96.1901 131.865C95.1297 136.105 94.1211 140.371 93.0866 144.61C93.009 144.979 92.9314 145.321 92.5693 145.611C90.9658 146.928 89.3624 148.271 87.8365 149.693C86.983 150.509 86.0778 150.772 84.9399 150.799C78.5001 150.878 72.112 151.404 65.9309 153.406C55.4566 156.829 48.5254 163.755 45.6546 174.683C44.6201 178.659 44.1029 182.688 44.077 186.77C44.0512 193.011 44.6201 199.226 44.9822 205.414C45.6288 215.868 46.2753 226.349 47.1547 236.777C47.6202 242.544 48.1374 248.311 48.6288 254.078C48.7581 254.21 48.784 254.341 48.6806 254.499C48.7323 254.973 48.8099 255.447 48.8616 255.921C48.9133 256.053 48.965 256.185 49.0168 256.343C49.0685 256.474 49.1202 256.632 49.1719 256.764C49.2495 256.764 49.3013 256.817 49.3271 256.896C50.9306 256.738 51.0599 256.58 50.9047 254.947C50.672 252.682 50.3616 250.444 50.1806 248.179C49.7409 243.071 49.353 237.962 48.9909 232.853C48.3961 224.558 47.8271 216.237 47.2581 207.942C47.0512 204.703 46.8443 201.464 46.6374 198.225C46.2753 191.931 45.8357 185.638 46.7926 179.318C48.7323 166.651 56.0773 158.251 68.2326 154.959C73.819 153.458 79.5087 153.037 85.2502 152.879C86.3623 152.853 86.9054 153.142 87.3709 154.196C91.871 164.15 96.4487 174.051 101 183.979C101.259 184.532 101.466 185.164 102.216 185.164C102.966 185.19 103.199 184.584 103.457 184.031C104.518 181.872 105.578 179.739 106.613 177.553C106.949 176.842 107.208 176.763 107.802 177.343C109.587 179.054 111.423 180.713 113.233 182.425C113.699 182.846 114.165 183.268 114.837 182.978C115.458 182.715 115.484 182.109 115.561 181.53C115.82 179.66 116.078 177.79 116.337 175.921C117.242 169.416 118.122 162.886 119.001 156.381C119.104 155.591 119.363 155.302 120.242 155.407C123.035 155.749 125.803 156.144 128.492 156.855C132.992 158.067 137.182 159.936 140.518 163.412C143.467 166.019 145.329 169.39 146.958 172.919C147.812 174.762 148.613 176.658 149.208 178.738C146.105 178.607 143.286 179.502 140.441 180.266C138.579 181.24 136.536 181.898 134.777 183.083C133.794 183.742 133.484 183.452 133.329 182.399C133.199 181.609 132.941 180.713 131.88 180.977C130.717 181.266 131.079 182.188 131.286 183.004C132.941 189.351 134.544 195.723 136.225 202.07C136.432 202.86 136.303 203.176 135.527 203.465C130.38 205.361 125.285 207.31 120.165 209.285C119.57 209.522 119.053 209.522 118.432 209.338C108.294 206.072 98.1556 202.807 87.8106 200.279C87.1382 200.121 86.8278 199.7 86.5175 199.147C82.1984 191.247 77.8794 183.373 73.5345 175.499C73.1724 174.841 72.8362 174.183 72.4224 173.577C72.0862 173.077 71.5431 172.971 71.0517 173.314C70.5861 173.63 70.3792 174.104 70.6637 174.683C70.8448 175.025 71.0258 175.368 71.2068 175.736C72.1896 177.553 73.1724 179.37 74.1293 181.135C63.9136 182.03 57.06 188.376 50.4909 195.381C50.0771 194.67 49.6892 193.985 49.3013 193.327C48.9392 192.721 48.4219 192.432 47.7754 192.8C47.1547 193.169 47.1029 193.775 47.465 194.407C47.5685 194.591 47.6719 194.802 47.7754 194.986C49.922 198.804 52.0168 202.623 54.1893 206.441C58.7411 214.446 63.2929 222.452 67.8964 230.404C71.4137 236.487 74.9828 242.544 78.9397 248.337C80.8536 251.155 83.3881 253.104 86.7761 253.657C90.0348 254.21 93.19 253.63 96.2935 252.577C99.9919 251.313 103.509 249.575 106.897 247.6C110.802 245.309 114.734 243.123 118.561 240.674C120.009 239.753 121.251 239.437 122.673 240.358C123.501 240.885 124.432 240.911 125.311 241.148C128.699 242.123 132.087 243.123 135.501 244.019C136.355 244.229 136.587 244.651 136.639 245.441C136.846 248.153 137.105 250.865 137.363 253.551C137.441 254.368 137.467 255.395 138.656 255.21C139.768 255.052 139.562 254.131 139.484 253.341C139.251 250.892 139.044 248.443 138.786 245.994C138.682 245.072 138.837 244.782 139.846 245.019C143.648 245.967 147.475 246.889 151.381 247.31C154.355 247.626 157.303 247.521 160.226 246.547C166.252 244.624 168.709 239.621 168.502 233.643ZM105.397 175.42C104.388 177.448 103.38 179.476 102.294 181.688C100.742 178.317 99.2677 175.157 97.8194 171.997C94.8969 165.651 92.0262 159.278 89.0779 152.958C88.7158 152.168 88.7934 151.72 89.4658 151.194C90.2934 150.562 91.0693 149.877 91.7934 149.113C92.44 148.429 92.6986 148.718 93.0607 149.403C97.147 157.751 101.233 166.098 105.345 174.446C105.475 174.788 105.604 175.052 105.397 175.42ZM117.061 155.328C115.949 163.36 114.837 171.391 113.725 179.423C113.725 179.502 113.647 179.555 113.492 179.765C111.785 178.185 110.078 176.605 108.371 175.025C108.035 174.736 108.164 174.42 108.294 174.077C111.009 167.257 113.725 160.437 116.415 153.616C116.466 153.511 116.518 153.379 116.621 153.169C117.061 153.985 117.165 154.617 117.061 155.328ZM109.277 208.785C111.449 209.469 113.621 210.154 116.156 210.97C113.389 212.076 111.009 213.051 108.604 214.025C104.932 215.5 101.233 216.974 97.5608 218.449C97.0694 218.633 96.578 218.844 96.0608 218.791C91.2245 218.265 86.4399 219.213 81.6294 219.476C79.6898 219.581 77.7501 219.713 75.8362 219.397C75.5776 219.344 75.319 219.344 75.0862 219.239C74.5172 219.028 73.8448 218.818 73.8448 218.08C73.8448 217.396 74.4655 217.185 74.9828 217.001C76.5863 216.448 78.2673 216.316 79.9484 216.211C83.9829 215.921 88.0434 215.974 92.1038 215.895C92.4917 215.895 92.8797 215.895 93.2676 215.842C93.8883 215.737 94.3021 215.368 94.2504 214.683C94.1987 213.999 93.7848 213.63 93.1383 213.656C91.8452 213.656 90.552 213.735 89.2589 213.762C85.1209 213.841 80.9829 213.788 76.8707 214.367C75.8362 214.499 74.8535 214.789 73.8707 215.131C73.5345 215.263 73.1207 215.974 72.7327 215.157C72.4224 214.499 72.2155 213.814 72.9655 213.288C73.6638 212.814 74.4655 212.629 75.2673 212.524C78.5777 212.024 81.8881 212.208 85.1985 212.208C87.0864 212.208 89.0003 212.208 90.8882 212.155C91.5607 212.155 92.1038 211.839 92.0779 211.049C92.0521 210.207 91.5089 209.943 90.7589 209.97C86.3106 210.128 81.8881 209.785 77.4397 210.075C75.5 210.207 73.5862 210.417 71.8275 211.418C71.5431 211.602 71.3103 211.681 71.1034 211.286C70.793 210.654 70.6637 210.022 71.2586 209.496C72.0344 208.811 72.9655 208.495 73.9483 208.311C77.1811 207.626 80.4656 207.626 83.7243 207.731C85.4312 207.784 87.164 207.916 88.8968 208.047C89.5951 208.1 90.2417 208.047 90.4227 207.231C90.6038 206.388 90.0089 206.072 89.3623 205.835C85.2243 204.361 81.0863 202.886 76.9483 201.385C76.4569 201.201 76.0173 200.964 75.5517 200.753C77.6725 200.2 79.6898 200.674 81.6812 201.122C90.9917 203.149 100.147 205.914 109.277 208.785ZM110.647 243.044C106.018 245.651 101.492 248.495 96.4745 250.312C94.8193 250.918 93.1124 251.392 91.3538 251.629C86.7244 252.261 83.1036 250.707 80.4398 246.731C76.3276 240.543 72.5517 234.196 68.8533 227.745C63.3188 218.107 57.8359 208.416 52.353 198.752C52.0168 198.172 51.7065 197.672 52.2755 196.987C57.1893 191.036 62.9567 186.322 70.3792 183.979C70.9482 183.794 71.5431 183.689 72.1379 183.61C75.0345 183.241 75.5 183.505 76.9225 186.112C78.9139 189.798 80.957 193.459 82.9743 197.119C83.3364 197.804 83.6984 198.488 84.1898 199.384C81.9915 199.041 80.0518 198.725 78.0863 198.436C77.0518 198.278 76.0173 198.225 74.9828 198.383C73.9741 198.541 73.3276 199.147 73.0948 200.121C72.862 201.148 73.3534 201.912 74.2328 202.412C76.1207 203.518 78.1897 204.124 80.207 204.835C80.5174 204.94 80.8794 204.94 81.1122 205.361C78.9397 205.519 76.7932 205.546 74.6724 205.914C73.1724 206.178 71.7241 206.546 70.431 207.389C68.2585 208.785 68.0258 211.339 69.9396 213.13C70.0948 213.288 70.3275 213.367 70.2758 213.63C69.9396 215.737 71.5689 217.264 71.931 219.186C72.2155 220.714 73.7672 221.161 75.1638 221.425C78.6035 222.057 82.0433 221.609 85.4571 221.319C88.9744 221.03 92.4917 220.477 96.009 220.977C96.6815 221.082 97.2763 220.819 97.8711 220.582C109.587 215.842 121.303 211.128 133.122 206.678C134.182 206.283 135.243 205.967 136.303 205.546C136.872 205.309 137.053 205.519 137.182 206.046C138.475 211.049 139.743 216.053 141.062 221.03C141.217 221.609 140.984 221.899 140.57 222.241C131.027 229.799 121.277 237.067 110.647 243.044ZM165.683 238.752C164.597 241.78 162.502 243.676 159.502 244.624C156.346 245.625 153.114 245.625 149.907 245.046C141.165 243.466 132.579 241.28 124.096 238.568C123.76 238.462 123.449 238.331 123.165 238.225C123.035 237.804 123.372 237.751 123.553 237.62C130.018 233.196 136.277 228.456 142.484 223.637C143.415 222.926 143.674 222.267 143.363 221.082C140.389 209.733 137.467 198.383 134.544 187.033C134.415 186.507 134.26 186.059 134.88 185.69C136.691 184.69 138.424 183.531 140.441 182.978C143.182 181.714 146.027 181.003 149.053 181.135C149.751 181.161 150.217 181.372 150.45 182.162C152.907 190.509 155.984 198.62 159.062 206.731C159.088 206.81 159.088 206.915 159.088 206.994C162.036 214.789 164.933 222.636 166.174 230.957C166.536 233.564 166.588 236.198 165.683 238.752Z" fill="#200F09"/>
<path d="M16.4214 115.491C12.7489 115.069 9.17989 118.545 9.07644 122.653C8.97299 126.893 12.4903 130.369 16.7835 130.237C20.5077 130.132 23.637 126.867 23.7405 122.811C23.8439 118.44 19.7059 114.99 16.4214 115.491ZM16.499 127.973C13.5248 127.999 11.4299 125.813 11.2748 122.838C11.1454 120.046 13.9903 117.255 16.3955 117.624C19.4473 117.624 21.4646 119.73 21.4905 122.943C21.5163 125.787 19.3697 127.946 16.499 127.973Z" fill="#FCDF5A"/>
<path d="M33.3445 140.449C32.4911 142.266 31.5859 144.241 30.6548 146.216C28.6375 150.508 26.5944 154.8 24.5512 159.119C24.215 159.804 23.8271 160.383 22.9736 159.988C22.0943 159.593 22.2753 158.882 22.5857 158.197C25.4564 152.141 28.3272 146.058 31.2238 140.027C31.5341 139.395 31.8704 138.658 32.7497 138.974C33.2928 139.158 33.448 139.685 33.3445 140.449Z" fill="#FCDF5A"/>
<path d="M89.8022 109.612C89.078 110.007 88.6125 109.665 88.2245 109.006C86.9314 106.847 85.121 105.293 82.8193 104.319C82.0692 104.003 81.2675 103.819 80.4399 103.871C79.664 103.924 78.9657 103.792 78.9399 102.871C78.8882 101.87 79.6899 101.738 80.4658 101.686C80.5951 101.686 80.7244 101.686 80.8537 101.686C84.9917 102.212 87.9918 104.477 90.1384 108.006C90.4746 108.585 90.4746 109.217 89.8022 109.612Z" fill="#200F09"/>
<path d="M128.027 35.4324C127.433 35.8011 126.993 35.5641 126.657 34.9584C125.596 33.0098 124.484 31.0874 123.45 29.1388C122.881 28.0591 123.217 27.2165 124.226 27.1901C124.717 27.0848 124.95 27.4798 125.157 27.8748C126.269 29.9025 127.355 31.9301 128.467 33.9314C128.907 34.6424 128.57 35.0901 128.027 35.4324Z" fill="#FA9BE1"/>
<path d="M125.182 39.9338C125.156 40.5658 124.897 40.8554 124.535 41.0398C124.147 41.2241 123.759 41.1714 123.475 40.8554C123.164 40.5131 122.88 40.1181 122.621 39.7231C121.742 38.2748 120.863 36.8264 120.009 35.3781C119.621 34.7461 119.544 34.0878 120.268 33.6664C120.992 33.2188 121.432 33.6664 121.82 34.2984C122.751 35.8521 123.733 37.3794 124.69 38.9331C124.897 39.3018 125.052 39.6968 125.182 39.9338Z" fill="#FA9BE1"/>
<path d="M129.888 115.406C128.595 115.932 127.457 116.617 126.552 117.749C126.241 118.171 125.698 118.118 125.259 117.802C124.845 117.539 124.741 117.117 124.871 116.67C125.181 115.537 128.129 113.404 129.345 113.457C129.81 113.483 130.173 113.668 130.302 114.168C130.431 114.642 130.431 115.195 129.888 115.406Z" fill="#200F09"/>
<path d="M107.725 92.6262C107.725 93.3372 106.199 94.3379 104.984 94.3379C104.466 94.3379 104.104 93.9692 104.078 93.3109C104.053 92.5736 105.553 91.5992 106.665 91.6255C107.311 91.5992 107.725 91.9152 107.725 92.6262Z" fill="#200F09"/>
<path d="M110.518 99.3427C110.415 100.159 109.949 100.633 109.147 100.607C108.346 100.58 107.854 100.054 107.906 99.2374C107.958 98.4474 108.423 97.9207 109.251 97.9733C110.079 97.9997 110.467 98.5527 110.518 99.3427Z" fill="#200F09"/>
<path d="M127.743 98.0249C126.915 98.0249 126.45 97.6035 126.398 96.7872C126.346 95.8919 126.915 95.4706 127.691 95.4179C128.751 95.1809 128.881 96.0499 128.906 96.6555C128.932 97.3402 128.648 98.0249 127.743 98.0249Z" fill="#200F09"/>
<path d="M48.6827 254.629C48.4241 254.524 48.3724 254.366 48.631 254.208C48.7603 254.34 48.7861 254.471 48.6827 254.629Z" fill="#FA9BE1"/>
<path d="M49.0162 256.446C48.7058 256.419 48.5765 256.288 48.861 256.024C48.9127 256.182 48.9644 256.314 49.0162 256.446Z" fill="#FA9BE1"/>
<path d="M49.3295 256.999H49.2002L49.1484 256.894C49.2519 256.867 49.3036 256.92 49.3295 256.999Z" fill="#FA9BE1"/>
<path d="M84.1891 199.41C81.9907 199.068 80.0511 198.752 78.0855 198.462C77.051 198.304 76.0165 198.251 74.982 198.436C73.9734 198.594 73.3268 199.173 73.094 200.174C72.8613 201.201 73.3527 201.964 74.232 202.465C76.12 203.571 78.189 204.176 80.2062 204.887C80.5166 204.993 80.8787 204.993 81.1114 205.414C78.939 205.572 76.7924 205.598 74.6717 205.967C73.1716 206.23 71.7233 206.599 70.4302 207.442C68.2577 208.837 68.025 211.392 69.9388 213.156C70.094 213.314 70.3009 213.393 70.275 213.656C69.9388 215.763 71.5681 217.29 71.9302 219.239C72.2147 220.74 73.7665 221.214 75.163 221.477C78.6028 222.109 82.0425 221.662 85.4822 221.372C88.9995 221.082 92.4909 220.529 96.0341 221.03C96.7065 221.135 97.3014 220.872 97.8962 220.635C109.612 215.895 121.328 211.181 133.147 206.731C134.207 206.336 135.268 206.02 136.302 205.598C136.871 205.361 137.052 205.572 137.181 206.099C138.475 211.102 139.742 216.105 141.061 221.082C141.216 221.662 140.983 221.978 140.569 222.294C130.974 229.799 121.224 237.067 110.595 243.044C105.965 245.651 101.439 248.469 96.422 250.312C94.7668 250.918 93.0599 251.392 91.3013 251.629C86.6719 252.261 83.0511 250.707 80.3873 246.731C76.2751 240.543 72.4992 234.196 68.8009 227.771C63.2663 218.133 57.7834 208.442 52.3006 198.752C51.9643 198.172 51.6281 197.672 52.223 196.987C57.1369 191.036 62.9042 186.322 70.3268 183.979C70.8957 183.794 71.4906 183.689 72.0854 183.61C74.982 183.241 75.4475 183.505 76.87 186.112C78.8614 189.798 80.9045 193.459 82.9218 197.119C83.3615 197.83 83.7235 198.515 84.1891 199.41Z" fill="#FEFEFE"/>
<path d="M75.5238 200.752C77.6445 200.199 79.6618 200.673 81.6532 201.094C90.9896 203.148 100.145 205.913 109.274 208.783C111.447 209.468 113.619 210.153 116.154 210.969C113.387 212.075 111.007 213.049 108.602 214.024C104.93 215.498 101.231 216.973 97.5587 218.448C97.0673 218.632 96.5759 218.869 96.0587 218.79C91.2224 218.263 86.4378 219.238 81.6274 219.475C79.6877 219.58 77.748 219.712 75.8342 219.396C75.5755 219.343 75.3169 219.343 75.0841 219.238C74.5152 219.027 73.8427 218.816 73.8427 218.079C73.8427 217.394 74.4634 217.184 74.9807 216.999C76.5842 216.446 78.2652 216.315 79.9463 216.209C83.9809 215.92 88.0413 215.972 92.1017 215.893C92.4896 215.893 92.8776 215.893 93.2655 215.841C93.8862 215.735 94.3 215.367 94.2483 214.682C94.1966 213.997 93.7828 213.629 93.1362 213.655C91.8431 213.655 90.5499 213.734 89.2568 213.76C85.1188 213.839 80.9808 213.787 76.8687 214.366C75.8342 214.524 74.8514 214.787 73.8686 215.13C73.5324 215.261 73.1186 215.972 72.7306 215.156C72.4203 214.498 72.2134 213.813 72.9634 213.286C73.6617 212.812 74.4634 212.628 75.2652 212.523C78.5756 212.022 81.886 212.207 85.1964 212.207C87.0844 212.207 88.9982 212.207 90.8862 212.154C91.5586 212.128 92.1017 211.838 92.0758 211.048C92.05 210.205 91.5069 209.942 90.7568 209.968C86.3344 210.126 81.886 209.784 77.4376 210.074C75.4979 210.205 73.5841 210.416 71.8513 211.417C71.541 211.601 71.3341 211.68 71.1272 211.285C70.8168 210.653 70.6875 210.021 71.2823 209.494C72.0582 208.81 72.9893 208.494 73.972 208.309C77.2049 207.625 80.4894 207.625 83.7481 207.73C85.4809 207.783 87.1878 207.914 88.8947 208.046C89.593 208.099 90.2396 208.046 90.4206 207.23C90.6017 206.387 90.0068 206.071 89.3603 205.834C85.2223 204.359 81.0842 202.885 76.9462 201.384C76.4548 201.226 75.9893 200.962 75.5238 200.752Z" fill="#FEFEFE"/>
<path d="M102.293 181.687C100.741 178.316 99.267 175.156 97.8187 171.996C94.8962 165.65 92.0254 159.277 89.0771 152.957C88.715 152.167 88.7926 151.72 89.4651 151.193C90.2927 150.561 91.0685 149.876 91.7927 149.113C92.4392 148.428 92.6979 148.718 93.0599 149.402C97.1462 157.75 101.233 166.098 105.345 174.445C105.5 174.788 105.629 175.051 105.448 175.42C104.388 177.447 103.379 179.475 102.293 181.687Z" fill="#FEFEFE"/>
<path d="M113.491 179.765C111.784 178.185 110.077 176.605 108.37 175.025C108.034 174.735 108.163 174.419 108.293 174.077C111.008 167.256 113.698 160.436 116.414 153.616C116.465 153.51 116.517 153.379 116.62 153.168C117.06 153.984 117.164 154.616 117.06 155.327C115.948 163.359 114.836 171.391 113.724 179.422C113.724 179.501 113.646 179.554 113.491 179.765Z" fill="#FEFEFE"/>
<path d="M70.9984 24.124C62.6965 24.124 54.3688 24.124 46.041 24.124H21.213C19.1181 24.124 19.0664 24.1767 19.0664 26.3624V71.366C19.0664 73.1304 19.2474 73.3147 20.9802 73.3147C37.6098 73.3147 54.2394 73.3147 70.8691 73.3147H71.7742C72.4984 73.3147 72.8863 72.9197 72.9639 72.2087C73.0156 71.682 73.0156 71.1554 73.0156 70.6287C73.0156 55.803 73.0156 40.9774 73.0156 26.1517C73.0156 24.361 72.7829 24.124 70.9984 24.124ZM68.9294 26.415C66.731 28.4164 64.7914 30.207 62.8517 31.9714C57.6016 36.7114 52.3515 41.425 47.1531 46.244C46.2221 47.113 45.679 47.0077 44.8255 46.2177C40.6099 42.3204 36.3167 38.4494 32.0494 34.5784C29.3338 32.0767 26.6183 29.6014 23.8768 27.126C23.6958 26.968 23.5406 26.7574 23.2303 26.4414H68.9294V26.415ZM21.213 68.127C21.213 55.2237 21.213 42.3467 21.213 29.4434C21.213 29.022 21.0061 28.4164 21.3682 28.2057C21.8596 27.9424 22.1699 28.548 22.5061 28.8377C29.4631 35.1577 36.3943 41.4514 43.3513 47.7187C44.2048 48.4824 44.2565 48.9037 43.3255 49.72C36.5753 55.7767 29.8769 61.886 23.1527 67.969C22.6096 68.4694 22.144 69.0487 21.394 69.3647C21.1095 68.917 21.213 68.522 21.213 68.127ZM68.5932 71.0237H23.101C25.7389 68.601 28.1442 66.4154 30.5494 64.2297C35.3598 59.8584 40.1961 55.487 44.9807 51.0894C45.7048 50.431 46.1186 50.2204 46.9462 50.984C53.7998 57.2514 60.6792 63.4924 67.5587 69.707C67.9466 70.0494 68.3345 70.3917 68.7225 70.7077C68.6966 70.8394 68.6449 70.9447 68.5932 71.0237ZM70.5587 69.312C70.1708 69.47 69.938 68.9434 69.6535 68.7064C62.593 62.3074 55.5326 55.882 48.4462 49.483C47.9031 49.009 47.6445 48.7194 48.3428 48.0874C55.6877 41.4777 63.0068 34.8154 70.3259 28.1794C70.3777 28.1267 70.4811 28.1004 70.7656 27.916V29.101C70.7656 42.1097 70.7656 55.1447 70.7656 68.1534C70.7915 68.522 71.0242 69.1014 70.5587 69.312Z" fill="#13D6A3"/>
<path d="M122.44 100.396C122.414 100.449 122.362 100.475 122.337 100.502C122.337 100.502 122.311 100.502 122.311 100.528C122.285 100.528 122.285 100.554 122.259 100.554H122.233H122.207C122.181 100.554 122.155 100.554 122.155 100.554H122.13H122.104C122.078 100.554 122.052 100.528 122.052 100.528L122.026 100.502C122 100.475 121.974 100.449 121.974 100.423C121.535 99.7907 121.121 99.1324 120.707 98.4477C120.474 98.0527 120.811 98.0527 121.069 98.0264C121.354 98.0527 122.621 100.133 122.44 100.396Z" fill="#FA9BE1"/>
</g>
<defs>
<clipPath id="clip0">
<rect width="288.659" height="257" fill="white" transform="translate(-9)"/>
</clipPath>
</defs>
</svg>
