<svg width="288" height="270" viewBox="0 0 288 270" fill="none" xmlns="http://www.w3.org/2000/svg">
<path d="M-5.60015 99.0217C4.28853 89.271 14.7982 81.2044 25.8227 72.7592C39.2752 62.4539 49.5823 43.5269 66.5266 43.7694C83.3377 44.0101 92.0448 64.3751 105.895 73.9056C119.286 83.1193 136.653 86.2337 146.751 98.9708C157.715 112.801 169.04 130.815 164.541 147.881C159.909 165.45 135.306 168.867 124.478 183.458C114.636 196.719 119.646 220.448 105.01 228.095C90.4135 235.72 73.8135 219.897 57.405 218.498C41.7195 217.161 25.4942 226.248 11.0094 220.082C-3.99053 213.697 -13.1885 198.75 -21.681 184.834C-30.6646 170.114 -42.7331 154.176 -39.5567 137.226C-36.3641 120.189 -17.9424 111.192 -5.60015 99.0217Z" fill="#FFF7FA"/>
<path d="M329.233 8.84217C335.05 20.0789 323.417 33.3023 324.754 45.8845C326.383 61.2134 344.518 75.5587 337.796 89.4309C331.325 102.786 310.527 99.0665 296.557 104.073C284.912 108.245 274.458 114.433 262.262 116.498C248.017 118.909 231.971 124.651 219.66 117.09C207.345 109.526 206.602 92.1023 200.914 78.8172C195.763 66.7878 185.721 55.4758 187.74 42.5466C189.749 29.6821 203.545 22.688 211.311 12.2377C218.27 2.87447 221.217 -9.75088 231.152 -15.8658C241.223 -22.0645 253.86 -22.466 265.617 -21.1873C276.829 -19.9678 286.267 -13.576 296.466 -8.76174C307.873 -3.3773 323.435 -2.35972 329.233 8.84217Z" fill="#F2EBFF"/>
</svg>
