<svg width="911" height="534" viewBox="0 0 911 534" fill="none" xmlns="http://www.w3.org/2000/svg">
    <path opacity="0.1" d="M115.435 256.708C144.146 247.897 166.006 259.832 192.287 260.607C220.246 261.432 249.919 247.342 274.14 261.39C299.538 276.121 320.524 272.337 330.161 296.227C344.341 331.376 286.043 341.6 270.102 372.565C255.253 401.407 271.353 433.922 252.346 453.694C230.76 476.148 202.54 459.849 172.79 459.107C142.961 458.362 117.693 486.403 97.1918 470.257C59.9664 440.939 36.7947 280.844 115.435 256.708Z" fill="#FFA183"/>
    <path opacity="0.1" d="M864.691 122.621C890.592 135.554 897.307 148.729 903.207 186.138C915.115 261.64 926.133 306.742 833.148 325.651C782.285 335.994 669.406 302.636 650.863 249.906C637.486 211.867 646.453 164.348 683.414 138.164C716.027 115.06 748.505 139.043 782.446 128.943C819.871 117.806 836.675 108.632 864.691 122.621Z" fill="#B98FFF"/>
    <path opacity="0.1" d="M433.286 30.0259C461.588 41.6463 459.391 75.7968 475.194 99.2147C492.683 125.131 540.523 145.375 529.26 172.248C517.877 199.405 467.243 184.761 435.456 194.025C410.397 201.328 392.155 225.624 365.596 219.945C337.983 214.04 324.458 187.992 309.019 166.989C291.23 142.791 263.113 118.033 271.212 91.5499C279.395 64.7914 316.788 57.2354 345.97 46.1578C374.005 35.5158 404.272 18.1131 433.286 30.0259Z" fill="#F57CBD"/>
</svg>
