<svg width="484" height="456" viewBox="0 0 484 456" fill="none" xmlns="http://www.w3.org/2000/svg">
<g clip-path="url(#clip0)">
<path d="M-606.641 276.27L-605.521 275.623L195.118 737.832L193.998 738.478L-606.641 276.27Z" fill="url(#paint0_radial)"/>
<path d="M193.998 -182.06L195.118 -181.414L-605.521 280.795L-606.641 280.148L193.998 -182.06Z" fill="url(#paint1_radial)"/>
<path d="M-593.203 268.512L-592.084 267.866L208.555 730.074L207.435 730.721L-593.203 268.512Z" fill="url(#paint2_radial)"/>
<path d="M207.435 -174.303L208.555 -173.656L-592.084 288.552L-593.203 287.906L207.435 -174.303Z" fill="url(#paint3_radial)"/>
<path d="M-579.766 260.755L-578.646 260.109L221.992 722.317L220.872 722.964L-579.766 260.755Z" fill="url(#paint4_radial)"/>
<path d="M220.872 -166.546L221.992 -165.899L-578.646 296.309L-579.766 295.663L220.872 -166.546Z" fill="url(#paint5_radial)"/>
<path d="M-566.329 252.998L-565.209 252.351L235.43 714.56L234.31 715.206L-566.329 252.998Z" fill="url(#paint6_radial)"/>
<path d="M234.31 -158.788L235.43 -158.142L-565.209 304.067L-566.329 303.42L234.31 -158.788Z" fill="url(#paint7_radial)"/>
<path d="M-552.892 245.24L-551.772 244.594L248.867 706.802L247.747 707.449L-552.892 245.24Z" fill="url(#paint8_radial)"/>
<path d="M247.747 -151.031L248.867 -150.384L-551.772 311.824L-552.892 311.178L247.747 -151.031Z" fill="url(#paint9_radial)"/>
<path d="M-539.454 237.483L-538.334 236.836L262.304 699.045L261.184 699.692L-539.454 237.483Z" fill="url(#paint10_radial)"/>
<path d="M261.184 -143.274L262.304 -142.627L-538.334 319.581L-539.454 318.935L261.184 -143.274Z" fill="url(#paint11_radial)"/>
<path d="M-526.017 229.726L-524.897 229.079L275.741 691.288L274.622 691.934L-526.017 229.726Z" fill="url(#paint12_radial)"/>
<path d="M274.622 -135.516L275.741 -134.87L-524.897 327.339L-526.017 326.692L274.622 -135.516Z" fill="url(#paint13_radial)"/>
<path d="M-512.58 221.968L-511.46 221.322L289.179 683.53L288.059 684.177L-512.58 221.968Z" fill="url(#paint14_radial)"/>
<path d="M288.059 -127.759L289.179 -127.112L-511.46 335.096L-512.58 334.45L288.059 -127.759Z" fill="url(#paint15_radial)"/>
<path d="M-499.142 214.211L-498.023 213.564L302.616 675.773L301.496 676.419L-499.142 214.211Z" fill="url(#paint16_radial)"/>
<path d="M301.496 -120.002L302.616 -119.355L-498.023 342.854L-499.142 342.207L301.496 -120.002Z" fill="url(#paint17_radial)"/>
<path d="M-485.705 206.454L-484.585 205.807L316.053 668.016L314.933 668.662L-485.705 206.454Z" fill="url(#paint18_radial)"/>
<path d="M314.933 -112.244L316.053 -111.598L-484.585 350.611L-485.705 349.964L314.933 -112.244Z" fill="url(#paint19_radial)"/>
<path d="M-472.268 198.696L-471.148 198.05L329.491 660.258L328.371 660.905L-472.268 198.696Z" fill="url(#paint20_radial)"/>
<path d="M328.371 -104.487L329.491 -103.84L-471.148 358.368L-472.268 357.722L328.371 -104.487Z" fill="url(#paint21_radial)"/>
<path d="M-458.83 190.939L-457.711 190.292L342.928 652.501L341.808 653.147L-458.83 190.939Z" fill="url(#paint22_radial)"/>
<path d="M341.808 -96.7295L342.928 -96.083L-457.711 366.126L-458.831 365.479L341.808 -96.7295Z" fill="url(#paint23_radial)"/>
<path d="M-445.393 183.181L-444.273 182.535L356.365 644.744L355.245 645.39L-445.393 183.181Z" fill="url(#paint24_radial)"/>
<path d="M355.245 -88.9721L356.365 -88.3257L-444.273 373.883L-445.393 373.236L355.245 -88.9721Z" fill="url(#paint25_radial)"/>
<path d="M-431.956 175.424L-430.836 174.778L369.802 636.986L368.683 637.633L-431.956 175.424Z" fill="url(#paint26_radial)"/>
<path d="M368.683 -81.2148L369.802 -80.5683L-430.836 381.64L-431.956 380.994L368.683 -81.2148Z" fill="url(#paint27_radial)"/>
<path d="M-418.519 167.667L-417.399 167.02L383.24 629.229L382.12 629.875L-418.519 167.667Z" fill="url(#paint28_radial)"/>
<path d="M382.12 -73.4574L383.24 -72.811L-417.399 389.398L-418.519 388.751L382.12 -73.4574Z" fill="url(#paint29_radial)"/>
<path d="M-405.081 159.909L-403.962 159.263L396.677 621.472L395.557 622.118L-405.081 159.909Z" fill="url(#paint30_radial)"/>
<path d="M395.557 -65.7001L396.677 -65.0536L-403.962 397.155L-405.081 396.509L395.557 -65.7001Z" fill="url(#paint31_radial)"/>
<path d="M-391.644 152.152L-390.524 151.506L410.114 613.714L408.995 614.361L-391.644 152.152Z" fill="url(#paint32_radial)"/>
<path d="M408.995 -57.9427L410.114 -57.2963L-390.524 404.912L-391.644 404.266L408.995 -57.9427Z" fill="url(#paint33_radial)"/>
<path d="M-378.207 144.395L-377.087 143.748L423.552 605.957L422.432 606.603L-378.207 144.395Z" fill="url(#paint34_radial)"/>
<path d="M422.432 -50.1854L423.552 -49.5389L-377.087 412.67L-378.207 412.023L422.432 -50.1854Z" fill="url(#paint35_radial)"/>
<path d="M-364.769 136.637L-363.65 135.991L436.989 598.2L435.869 598.846L-364.769 136.637Z" fill="url(#paint36_radial)"/>
<path d="M435.869 -42.428L436.989 -41.7816L-363.65 420.427L-364.77 419.781L435.869 -42.428Z" fill="url(#paint37_radial)"/>
<path d="M-351.332 128.88L-350.212 128.234L450.426 590.442L449.306 591.089L-351.332 128.88Z" fill="url(#paint38_radial)"/>
<path d="M449.306 -34.6707L450.426 -34.0242L-350.212 428.184L-351.332 427.538L449.306 -34.6707Z" fill="url(#paint39_radial)"/>
<path d="M-337.895 121.123L-336.775 120.476L463.863 582.685L462.744 583.331L-337.895 121.123Z" fill="url(#paint40_radial)"/>
<path d="M462.744 -26.9133L463.863 -26.2669L-336.775 435.942L-337.895 435.295L462.744 -26.9133Z" fill="url(#paint41_radial)"/>
<path d="M-324.458 113.365L-323.338 112.719L477.301 574.928L476.181 575.574L-324.458 113.365Z" fill="url(#paint42_radial)"/>
<path d="M476.181 -19.156L477.301 -18.5095L-323.338 443.699L-324.458 443.053L476.181 -19.156Z" fill="url(#paint43_radial)"/>
<path d="M-311.02 105.608L-309.901 104.962L490.738 567.17L489.618 567.817L-311.02 105.608Z" fill="url(#paint44_radial)"/>
<path d="M489.618 -11.3987L490.738 -10.7522L-309.901 451.456L-311.02 450.81L489.618 -11.3987Z" fill="url(#paint45_radial)"/>
<path d="M-297.583 97.8507L-296.463 97.2042L504.175 559.413L503.056 560.059L-297.583 97.8507Z" fill="url(#paint46_radial)"/>
<path d="M503.056 -3.6413L504.175 -2.99486L-296.463 459.214L-297.583 458.567L503.056 -3.6413Z" fill="url(#paint47_radial)"/>
<path d="M-284.146 90.0933L-283.026 89.4469L517.613 551.655L516.493 552.302L-284.146 90.0933Z" fill="url(#paint48_radial)"/>
<path d="M516.493 4.11605L517.613 4.76249L-283.026 466.971L-284.146 466.325L516.493 4.11605Z" fill="url(#paint49_radial)"/>
<path d="M-270.708 82.336L-269.589 81.6895L531.05 543.898L529.93 544.545L-270.708 82.336Z" fill="url(#paint50_radial)"/>
<path d="M529.93 11.8734L531.05 12.5198L-269.589 474.728L-270.708 474.082L529.93 11.8734Z" fill="url(#paint51_radial)"/>
<path d="M-257.271 74.5786L-256.151 73.9322L544.487 536.141L543.367 536.787L-257.271 74.5786Z" fill="url(#paint52_radial)"/>
<path d="M543.367 19.6307L544.487 20.2772L-256.151 482.486L-257.271 481.839L543.367 19.6307Z" fill="url(#paint53_radial)"/>
<path d="M-243.834 66.8213L-242.714 66.1748L557.924 528.383L556.805 529.03L-243.834 66.8213Z" fill="url(#paint54_radial)"/>
<path d="M556.805 27.3881L557.924 28.0345L-242.714 490.243L-243.834 489.597L556.805 27.3881Z" fill="url(#paint55_radial)"/>
<path d="M-230.397 59.0639L-229.277 58.4175L571.362 520.626L570.242 521.273L-230.397 59.0639Z" fill="url(#paint56_radial)"/>
<path d="M570.242 35.1454L571.362 35.7919L-229.277 498L-230.397 497.354L570.242 35.1454Z" fill="url(#paint57_radial)"/>
<path d="M-216.959 51.3066L-215.84 50.6601L584.799 512.869L583.679 513.515L-216.959 51.3066Z" fill="url(#paint58_radial)"/>
<path d="M583.679 42.9028L584.799 43.5492L-215.84 505.758L-216.959 505.111L583.679 42.9028Z" fill="url(#paint59_radial)"/>
<path d="M-203.522 43.5492L-202.402 42.9028L598.236 505.111L597.117 505.758L-203.522 43.5492Z" fill="url(#paint60_radial)"/>
<path d="M597.117 50.6601L598.236 51.3066L-202.402 513.515L-203.522 512.869L597.117 50.6601Z" fill="url(#paint61_radial)"/>
<path d="M-190.085 35.7919L-188.965 35.1454L611.674 497.354L610.554 498.001L-190.085 35.7919Z" fill="url(#paint62_radial)"/>
<path d="M610.554 58.4175L611.674 59.0639L-188.965 521.272L-190.085 520.626L610.554 58.4175Z" fill="url(#paint63_radial)"/>
<path d="M-176.647 28.0345L-175.528 27.3881L625.111 489.597L623.991 490.243L-176.647 28.0345Z" fill="url(#paint64_radial)"/>
<path d="M623.991 66.1748L625.111 66.8213L-175.528 529.03L-176.647 528.383L623.991 66.1748Z" fill="url(#paint65_radial)"/>
<path d="M-163.21 20.2772L-162.09 19.6307L638.548 481.839L637.428 482.486L-163.21 20.2772Z" fill="url(#paint66_radial)"/>
<path d="M637.428 73.9322L638.548 74.5786L-162.09 536.787L-163.21 536.141L637.428 73.9322Z" fill="url(#paint67_radial)"/>
<path d="M-149.773 12.5198L-148.653 11.8734L651.986 474.082L650.866 474.728L-149.773 12.5198Z" fill="url(#paint68_radial)"/>
<path d="M650.866 81.6895L651.986 82.336L-148.653 544.545L-149.773 543.898L650.866 81.6895Z" fill="url(#paint69_radial)"/>
<path d="M-136.336 4.76251L-135.216 4.11607L665.423 466.325L664.303 466.971L-136.336 4.76251Z" fill="url(#paint70_radial)"/>
<path d="M664.303 89.4469L665.423 90.0933L-135.216 552.302L-136.336 551.655L664.303 89.4469Z" fill="url(#paint71_radial)"/>
<path d="M-122.898 -2.99483L-121.778 -3.6413L678.86 458.567L677.74 459.214L-122.898 -2.99483Z" fill="url(#paint72_radial)"/>
<path d="M677.74 97.2042L678.86 97.8507L-121.778 560.059L-122.898 559.413L677.74 97.2042Z" fill="url(#paint73_radial)"/>
<path d="M-109.461 -10.7522L-108.341 -11.3986L692.297 450.81L691.178 451.456L-109.461 -10.7522Z" fill="url(#paint74_radial)"/>
<path d="M691.178 104.962L692.297 105.608L-108.341 567.817L-109.461 567.17L691.178 104.962Z" fill="url(#paint75_radial)"/>
<path d="M-96.0237 -18.5095L-94.9039 -19.156L705.735 443.053L704.615 443.699L-96.0237 -18.5095Z" fill="url(#paint76_radial)"/>
<path d="M704.615 112.719L705.735 113.365L-94.9039 575.574L-96.0237 574.927L704.615 112.719Z" fill="url(#paint77_radial)"/>
<path d="M-82.5864 -26.2669L-81.4666 -26.9133L719.172 435.295L718.052 435.942L-82.5864 -26.2669Z" fill="url(#paint78_radial)"/>
<path d="M718.052 120.476L719.172 121.123L-81.4666 583.331L-82.5864 582.685L718.052 120.476Z" fill="url(#paint79_radial)"/>
<path d="M-69.1491 -34.0242L-68.0293 -34.6707L732.609 427.538L731.489 428.184L-69.1491 -34.0242Z" fill="url(#paint80_radial)"/>
<path d="M731.489 128.234L732.609 128.88L-68.0294 591.089L-69.1491 590.442L731.489 128.234Z" fill="url(#paint81_radial)"/>
<path d="M-55.7118 -41.7816L-54.592 -42.428L746.047 419.781L744.927 420.427L-55.7118 -41.7816Z" fill="url(#paint82_radial)"/>
<path d="M744.927 135.991L746.047 136.637L-54.592 598.846L-55.7119 598.2L744.927 135.991Z" fill="url(#paint83_radial)"/>
<path d="M-42.2745 -49.5389L-41.1547 -50.1854L759.484 412.023L758.364 412.67L-42.2745 -49.5389Z" fill="url(#paint84_radial)"/>
<path d="M758.364 143.748L759.484 144.395L-41.1548 606.603L-42.2745 605.957L758.364 143.748Z" fill="url(#paint85_radial)"/>
<path d="M-28.8372 -57.2963L-27.7174 -57.9427L772.921 404.266L771.801 404.912L-28.8372 -57.2963Z" fill="url(#paint86_radial)"/>
<path d="M771.801 151.506L772.921 152.152L-27.7175 614.361L-28.8373 613.714L771.801 151.506Z" fill="url(#paint87_radial)"/>
<path d="M-15.3999 -65.0536L-14.2802 -65.7001L786.358 396.509L785.239 397.155L-15.3999 -65.0536Z" fill="url(#paint88_radial)"/>
<path d="M785.239 159.263L786.358 159.909L-14.2802 622.118L-15.4 621.472L785.239 159.263Z" fill="url(#paint89_radial)"/>
<path d="M-1.96266 -72.811L-0.842836 -73.4574L799.796 388.751L798.676 389.398L-1.96266 -72.811Z" fill="url(#paint90_radial)"/>
<path d="M798.676 167.02L799.796 167.667L-0.842942 629.875L-1.96271 629.229L798.676 167.02Z" fill="url(#paint91_radial)"/>
<path d="M11.4747 -80.5683L12.5944 -81.2148L813.233 380.994L812.113 381.64L11.4747 -80.5683Z" fill="url(#paint92_radial)"/>
<path d="M812.113 174.778L813.233 175.424L12.5944 637.633L11.4746 636.986L812.113 174.778Z" fill="url(#paint93_radial)"/>
<path d="M24.9119 -88.3257L26.0317 -88.9721L826.67 373.237L825.55 373.883L24.9119 -88.3257Z" fill="url(#paint94_radial)"/>
<path d="M825.55 182.535L826.67 183.181L26.0317 645.39L24.9119 644.744L825.55 182.535Z" fill="url(#paint95_radial)"/>
<path d="M38.3492 -96.083L39.469 -96.7295L840.108 365.479L838.988 366.126L38.3492 -96.083Z" fill="url(#paint96_radial)"/>
<path d="M838.988 190.292L840.108 190.939L39.4689 653.147L38.3492 652.501L838.988 190.292Z" fill="url(#paint97_radial)"/>
<path d="M51.7865 -103.84L52.9063 -104.487L853.545 357.722L852.425 358.368L51.7865 -103.84Z" fill="url(#paint98_radial)"/>
<path d="M852.425 198.05L853.545 198.696L52.9063 660.905L51.7865 660.258L852.425 198.05Z" fill="url(#paint99_radial)"/>
<path d="M65.2238 -111.598L66.3436 -112.244L866.982 349.964L865.862 350.611L65.2238 -111.598Z" fill="url(#paint100_radial)"/>
<path d="M865.862 205.807L866.982 206.454L66.3435 668.662L65.2238 668.016L865.862 205.807Z" fill="url(#paint101_radial)"/>
<path d="M78.6611 -119.355L79.7809 -120.002L880.419 342.207L879.3 342.854L78.6611 -119.355Z" fill="url(#paint102_radial)"/>
<path d="M879.3 213.564L880.419 214.211L79.7808 676.419L78.661 675.773L879.3 213.564Z" fill="url(#paint103_radial)"/>
<path d="M92.0984 -127.112L93.2182 -127.759L893.857 334.45L892.737 335.096L92.0984 -127.112Z" fill="url(#paint104_radial)"/>
<path d="M892.737 221.322L893.857 221.968L93.2181 684.177L92.0984 683.53L892.737 221.322Z" fill="url(#paint105_radial)"/>
<path d="M105.536 -134.87L106.655 -135.516L907.294 326.692L906.174 327.339L105.536 -134.87Z" fill="url(#paint106_radial)"/>
<path d="M906.174 229.079L907.294 229.726L106.655 691.934L105.536 691.288L906.174 229.079Z" fill="url(#paint107_radial)"/>
<path d="M118.973 -142.627L120.093 -143.274L920.731 318.935L919.611 319.582L118.973 -142.627Z" fill="url(#paint108_radial)"/>
<path d="M919.611 236.836L920.731 237.483L120.093 699.691L118.973 699.045L919.611 236.836Z" fill="url(#paint109_radial)"/>
<path d="M132.41 -150.384L133.53 -151.031L934.169 311.178L933.049 311.824L132.41 -150.384Z" fill="url(#paint110_radial)"/>
<path d="M933.049 244.594L934.169 245.24L133.53 707.449L132.41 706.802L933.049 244.594Z" fill="url(#paint111_radial)"/>
<path d="M145.848 -158.142L146.967 -158.788L947.606 303.42L946.486 304.067L145.848 -158.142Z" fill="url(#paint112_radial)"/>
<path d="M946.486 252.351L947.606 252.998L146.967 715.206L145.847 714.56L946.486 252.351Z" fill="url(#paint113_radial)"/>
<path d="M159.285 -165.899L160.405 -166.546L961.043 295.663L959.923 296.309L159.285 -165.899Z" fill="url(#paint114_radial)"/>
<path d="M959.923 260.108L961.043 260.755L160.405 722.963L159.285 722.317L959.923 260.108Z" fill="url(#paint115_radial)"/>
<path d="M172.722 -173.656L173.842 -174.303L974.48 287.906L973.361 288.552L172.722 -173.656Z" fill="url(#paint116_radial)"/>
<path d="M973.361 267.866L974.48 268.512L173.842 730.721L172.722 730.074L973.361 267.866Z" fill="url(#paint117_radial)"/>
<path d="M186.159 -181.414L187.279 -182.06L987.918 280.148L986.798 280.795L186.159 -181.414Z" fill="url(#paint118_radial)"/>
<path d="M986.798 275.623L987.918 276.27L187.279 738.478L186.159 737.832L986.798 275.623Z" fill="url(#paint119_radial)"/>
</g>
<defs>
<radialGradient id="paint0_radial" cx="0" cy="0" r="1" gradientUnits="userSpaceOnUse" gradientTransform="translate(203.057 256.336) rotate(0.396837) scale(312.451 270.579)">
<stop stop-color="#EDF3FA"/>
<stop offset="1" stop-color="#F1F4F8" stop-opacity="0"/>
</radialGradient>
<radialGradient id="paint1_radial" cx="0" cy="0" r="1" gradientUnits="userSpaceOnUse" gradientTransform="translate(203.057 256.336) rotate(0.396837) scale(312.451 270.579)">
<stop stop-color="#EDF3FA"/>
<stop offset="1" stop-color="#F1F4F8" stop-opacity="0"/>
</radialGradient>
<radialGradient id="paint2_radial" cx="0" cy="0" r="1" gradientUnits="userSpaceOnUse" gradientTransform="translate(203.057 256.336) rotate(0.396837) scale(312.451 270.579)">
<stop stop-color="#EDF3FA"/>
<stop offset="1" stop-color="#F1F4F8" stop-opacity="0"/>
</radialGradient>
<radialGradient id="paint3_radial" cx="0" cy="0" r="1" gradientUnits="userSpaceOnUse" gradientTransform="translate(203.057 256.336) rotate(0.396837) scale(312.451 270.579)">
<stop stop-color="#EDF3FA"/>
<stop offset="1" stop-color="#F1F4F8" stop-opacity="0"/>
</radialGradient>
<radialGradient id="paint4_radial" cx="0" cy="0" r="1" gradientUnits="userSpaceOnUse" gradientTransform="translate(203.057 256.336) rotate(0.396837) scale(312.451 270.579)">
<stop stop-color="#EDF3FA"/>
<stop offset="1" stop-color="#F1F4F8" stop-opacity="0"/>
</radialGradient>
<radialGradient id="paint5_radial" cx="0" cy="0" r="1" gradientUnits="userSpaceOnUse" gradientTransform="translate(203.057 256.336) rotate(0.396837) scale(312.451 270.579)">
<stop stop-color="#EDF3FA"/>
<stop offset="1" stop-color="#F1F4F8" stop-opacity="0"/>
</radialGradient>
<radialGradient id="paint6_radial" cx="0" cy="0" r="1" gradientUnits="userSpaceOnUse" gradientTransform="translate(203.057 256.336) rotate(0.396837) scale(312.451 270.579)">
<stop stop-color="#EDF3FA"/>
<stop offset="1" stop-color="#F1F4F8" stop-opacity="0"/>
</radialGradient>
<radialGradient id="paint7_radial" cx="0" cy="0" r="1" gradientUnits="userSpaceOnUse" gradientTransform="translate(203.057 256.336) rotate(0.396837) scale(312.451 270.579)">
<stop stop-color="#EDF3FA"/>
<stop offset="1" stop-color="#F1F4F8" stop-opacity="0"/>
</radialGradient>
<radialGradient id="paint8_radial" cx="0" cy="0" r="1" gradientUnits="userSpaceOnUse" gradientTransform="translate(203.057 256.336) rotate(0.396837) scale(312.451 270.579)">
<stop stop-color="#EDF3FA"/>
<stop offset="1" stop-color="#F1F4F8" stop-opacity="0"/>
</radialGradient>
<radialGradient id="paint9_radial" cx="0" cy="0" r="1" gradientUnits="userSpaceOnUse" gradientTransform="translate(203.057 256.336) rotate(0.396837) scale(312.451 270.579)">
<stop stop-color="#EDF3FA"/>
<stop offset="1" stop-color="#F1F4F8" stop-opacity="0"/>
</radialGradient>
<radialGradient id="paint10_radial" cx="0" cy="0" r="1" gradientUnits="userSpaceOnUse" gradientTransform="translate(203.057 256.336) rotate(0.396837) scale(312.451 270.579)">
<stop stop-color="#EDF3FA"/>
<stop offset="1" stop-color="#F1F4F8" stop-opacity="0"/>
</radialGradient>
<radialGradient id="paint11_radial" cx="0" cy="0" r="1" gradientUnits="userSpaceOnUse" gradientTransform="translate(203.057 256.336) rotate(0.396837) scale(312.451 270.579)">
<stop stop-color="#EDF3FA"/>
<stop offset="1" stop-color="#F1F4F8" stop-opacity="0"/>
</radialGradient>
<radialGradient id="paint12_radial" cx="0" cy="0" r="1" gradientUnits="userSpaceOnUse" gradientTransform="translate(203.057 256.336) rotate(0.396837) scale(312.451 270.579)">
<stop stop-color="#EDF3FA"/>
<stop offset="1" stop-color="#F1F4F8" stop-opacity="0"/>
</radialGradient>
<radialGradient id="paint13_radial" cx="0" cy="0" r="1" gradientUnits="userSpaceOnUse" gradientTransform="translate(203.057 256.336) rotate(0.396837) scale(312.451 270.579)">
<stop stop-color="#EDF3FA"/>
<stop offset="1" stop-color="#F1F4F8" stop-opacity="0"/>
</radialGradient>
<radialGradient id="paint14_radial" cx="0" cy="0" r="1" gradientUnits="userSpaceOnUse" gradientTransform="translate(203.057 256.336) rotate(0.396837) scale(312.451 270.579)">
<stop stop-color="#EDF3FA"/>
<stop offset="1" stop-color="#F1F4F8" stop-opacity="0"/>
</radialGradient>
<radialGradient id="paint15_radial" cx="0" cy="0" r="1" gradientUnits="userSpaceOnUse" gradientTransform="translate(203.057 256.336) rotate(0.396837) scale(312.451 270.579)">
<stop stop-color="#EDF3FA"/>
<stop offset="1" stop-color="#F1F4F8" stop-opacity="0"/>
</radialGradient>
<radialGradient id="paint16_radial" cx="0" cy="0" r="1" gradientUnits="userSpaceOnUse" gradientTransform="translate(203.057 256.336) rotate(0.396837) scale(312.451 270.579)">
<stop stop-color="#EDF3FA"/>
<stop offset="1" stop-color="#F1F4F8" stop-opacity="0"/>
</radialGradient>
<radialGradient id="paint17_radial" cx="0" cy="0" r="1" gradientUnits="userSpaceOnUse" gradientTransform="translate(203.057 256.336) rotate(0.396837) scale(312.451 270.579)">
<stop stop-color="#EDF3FA"/>
<stop offset="1" stop-color="#F1F4F8" stop-opacity="0"/>
</radialGradient>
<radialGradient id="paint18_radial" cx="0" cy="0" r="1" gradientUnits="userSpaceOnUse" gradientTransform="translate(203.057 256.336) rotate(0.396837) scale(312.451 270.579)">
<stop stop-color="#EDF3FA"/>
<stop offset="1" stop-color="#F1F4F8" stop-opacity="0"/>
</radialGradient>
<radialGradient id="paint19_radial" cx="0" cy="0" r="1" gradientUnits="userSpaceOnUse" gradientTransform="translate(203.057 256.336) rotate(0.396837) scale(312.451 270.579)">
<stop stop-color="#EDF3FA"/>
<stop offset="1" stop-color="#F1F4F8" stop-opacity="0"/>
</radialGradient>
<radialGradient id="paint20_radial" cx="0" cy="0" r="1" gradientUnits="userSpaceOnUse" gradientTransform="translate(203.057 256.336) rotate(0.396837) scale(312.451 270.579)">
<stop stop-color="#EDF3FA"/>
<stop offset="1" stop-color="#F1F4F8" stop-opacity="0"/>
</radialGradient>
<radialGradient id="paint21_radial" cx="0" cy="0" r="1" gradientUnits="userSpaceOnUse" gradientTransform="translate(203.057 256.336) rotate(0.396837) scale(312.451 270.579)">
<stop stop-color="#EDF3FA"/>
<stop offset="1" stop-color="#F1F4F8" stop-opacity="0"/>
</radialGradient>
<radialGradient id="paint22_radial" cx="0" cy="0" r="1" gradientUnits="userSpaceOnUse" gradientTransform="translate(203.057 256.336) rotate(0.396837) scale(312.451 270.579)">
<stop stop-color="#EDF3FA"/>
<stop offset="1" stop-color="#F1F4F8" stop-opacity="0"/>
</radialGradient>
<radialGradient id="paint23_radial" cx="0" cy="0" r="1" gradientUnits="userSpaceOnUse" gradientTransform="translate(203.057 256.336) rotate(0.396837) scale(312.451 270.579)">
<stop stop-color="#EDF3FA"/>
<stop offset="1" stop-color="#F1F4F8" stop-opacity="0"/>
</radialGradient>
<radialGradient id="paint24_radial" cx="0" cy="0" r="1" gradientUnits="userSpaceOnUse" gradientTransform="translate(203.057 256.336) rotate(0.396837) scale(312.451 270.579)">
<stop stop-color="#EDF3FA"/>
<stop offset="1" stop-color="#F1F4F8" stop-opacity="0"/>
</radialGradient>
<radialGradient id="paint25_radial" cx="0" cy="0" r="1" gradientUnits="userSpaceOnUse" gradientTransform="translate(203.057 256.336) rotate(0.396837) scale(312.451 270.579)">
<stop stop-color="#EDF3FA"/>
<stop offset="1" stop-color="#F1F4F8" stop-opacity="0"/>
</radialGradient>
<radialGradient id="paint26_radial" cx="0" cy="0" r="1" gradientUnits="userSpaceOnUse" gradientTransform="translate(203.057 256.336) rotate(0.396837) scale(312.451 270.579)">
<stop stop-color="#EDF3FA"/>
<stop offset="1" stop-color="#F1F4F8" stop-opacity="0"/>
</radialGradient>
<radialGradient id="paint27_radial" cx="0" cy="0" r="1" gradientUnits="userSpaceOnUse" gradientTransform="translate(203.057 256.336) rotate(0.396837) scale(312.451 270.579)">
<stop stop-color="#EDF3FA"/>
<stop offset="1" stop-color="#F1F4F8" stop-opacity="0"/>
</radialGradient>
<radialGradient id="paint28_radial" cx="0" cy="0" r="1" gradientUnits="userSpaceOnUse" gradientTransform="translate(203.057 256.336) rotate(0.396837) scale(312.451 270.579)">
<stop stop-color="#EDF3FA"/>
<stop offset="1" stop-color="#F1F4F8" stop-opacity="0"/>
</radialGradient>
<radialGradient id="paint29_radial" cx="0" cy="0" r="1" gradientUnits="userSpaceOnUse" gradientTransform="translate(203.057 256.336) rotate(0.396837) scale(312.451 270.579)">
<stop stop-color="#EDF3FA"/>
<stop offset="1" stop-color="#F1F4F8" stop-opacity="0"/>
</radialGradient>
<radialGradient id="paint30_radial" cx="0" cy="0" r="1" gradientUnits="userSpaceOnUse" gradientTransform="translate(203.057 256.336) rotate(0.396837) scale(312.451 270.579)">
<stop stop-color="#EDF3FA"/>
<stop offset="1" stop-color="#F1F4F8" stop-opacity="0"/>
</radialGradient>
<radialGradient id="paint31_radial" cx="0" cy="0" r="1" gradientUnits="userSpaceOnUse" gradientTransform="translate(203.057 256.336) rotate(0.396837) scale(312.451 270.579)">
<stop stop-color="#EDF3FA"/>
<stop offset="1" stop-color="#F1F4F8" stop-opacity="0"/>
</radialGradient>
<radialGradient id="paint32_radial" cx="0" cy="0" r="1" gradientUnits="userSpaceOnUse" gradientTransform="translate(203.057 256.336) rotate(0.396837) scale(312.451 270.579)">
<stop stop-color="#EDF3FA"/>
<stop offset="1" stop-color="#F1F4F8" stop-opacity="0"/>
</radialGradient>
<radialGradient id="paint33_radial" cx="0" cy="0" r="1" gradientUnits="userSpaceOnUse" gradientTransform="translate(203.057 256.336) rotate(0.396837) scale(312.451 270.579)">
<stop stop-color="#EDF3FA"/>
<stop offset="1" stop-color="#F1F4F8" stop-opacity="0"/>
</radialGradient>
<radialGradient id="paint34_radial" cx="0" cy="0" r="1" gradientUnits="userSpaceOnUse" gradientTransform="translate(203.057 256.336) rotate(0.396837) scale(312.451 270.579)">
<stop stop-color="#EDF3FA"/>
<stop offset="1" stop-color="#F1F4F8" stop-opacity="0"/>
</radialGradient>
<radialGradient id="paint35_radial" cx="0" cy="0" r="1" gradientUnits="userSpaceOnUse" gradientTransform="translate(203.057 256.336) rotate(0.396837) scale(312.451 270.579)">
<stop stop-color="#EDF3FA"/>
<stop offset="1" stop-color="#F1F4F8" stop-opacity="0"/>
</radialGradient>
<radialGradient id="paint36_radial" cx="0" cy="0" r="1" gradientUnits="userSpaceOnUse" gradientTransform="translate(203.057 256.336) rotate(0.396837) scale(312.451 270.579)">
<stop stop-color="#EDF3FA"/>
<stop offset="1" stop-color="#F1F4F8" stop-opacity="0"/>
</radialGradient>
<radialGradient id="paint37_radial" cx="0" cy="0" r="1" gradientUnits="userSpaceOnUse" gradientTransform="translate(203.057 256.336) rotate(0.396837) scale(312.451 270.579)">
<stop stop-color="#EDF3FA"/>
<stop offset="1" stop-color="#F1F4F8" stop-opacity="0"/>
</radialGradient>
<radialGradient id="paint38_radial" cx="0" cy="0" r="1" gradientUnits="userSpaceOnUse" gradientTransform="translate(203.057 256.336) rotate(0.396837) scale(312.451 270.579)">
<stop stop-color="#EDF3FA"/>
<stop offset="1" stop-color="#F1F4F8" stop-opacity="0"/>
</radialGradient>
<radialGradient id="paint39_radial" cx="0" cy="0" r="1" gradientUnits="userSpaceOnUse" gradientTransform="translate(203.057 256.336) rotate(0.396837) scale(312.451 270.579)">
<stop stop-color="#EDF3FA"/>
<stop offset="1" stop-color="#F1F4F8" stop-opacity="0"/>
</radialGradient>
<radialGradient id="paint40_radial" cx="0" cy="0" r="1" gradientUnits="userSpaceOnUse" gradientTransform="translate(203.057 256.336) rotate(0.396837) scale(312.451 270.579)">
<stop stop-color="#EDF3FA"/>
<stop offset="1" stop-color="#F1F4F8" stop-opacity="0"/>
</radialGradient>
<radialGradient id="paint41_radial" cx="0" cy="0" r="1" gradientUnits="userSpaceOnUse" gradientTransform="translate(203.057 256.336) rotate(0.396837) scale(312.451 270.579)">
<stop stop-color="#EDF3FA"/>
<stop offset="1" stop-color="#F1F4F8" stop-opacity="0"/>
</radialGradient>
<radialGradient id="paint42_radial" cx="0" cy="0" r="1" gradientUnits="userSpaceOnUse" gradientTransform="translate(203.057 256.336) rotate(0.396837) scale(312.451 270.579)">
<stop stop-color="#EDF3FA"/>
<stop offset="1" stop-color="#F1F4F8" stop-opacity="0"/>
</radialGradient>
<radialGradient id="paint43_radial" cx="0" cy="0" r="1" gradientUnits="userSpaceOnUse" gradientTransform="translate(203.057 256.336) rotate(0.396837) scale(312.451 270.579)">
<stop stop-color="#EDF3FA"/>
<stop offset="1" stop-color="#F1F4F8" stop-opacity="0"/>
</radialGradient>
<radialGradient id="paint44_radial" cx="0" cy="0" r="1" gradientUnits="userSpaceOnUse" gradientTransform="translate(203.057 256.336) rotate(0.396837) scale(312.451 270.579)">
<stop stop-color="#EDF3FA"/>
<stop offset="1" stop-color="#F1F4F8" stop-opacity="0"/>
</radialGradient>
<radialGradient id="paint45_radial" cx="0" cy="0" r="1" gradientUnits="userSpaceOnUse" gradientTransform="translate(203.057 256.336) rotate(0.396837) scale(312.451 270.579)">
<stop stop-color="#EDF3FA"/>
<stop offset="1" stop-color="#F1F4F8" stop-opacity="0"/>
</radialGradient>
<radialGradient id="paint46_radial" cx="0" cy="0" r="1" gradientUnits="userSpaceOnUse" gradientTransform="translate(203.057 256.336) rotate(0.396837) scale(312.451 270.579)">
<stop stop-color="#EDF3FA"/>
<stop offset="1" stop-color="#F1F4F8" stop-opacity="0"/>
</radialGradient>
<radialGradient id="paint47_radial" cx="0" cy="0" r="1" gradientUnits="userSpaceOnUse" gradientTransform="translate(203.057 256.336) rotate(0.396837) scale(312.451 270.579)">
<stop stop-color="#EDF3FA"/>
<stop offset="1" stop-color="#F1F4F8" stop-opacity="0"/>
</radialGradient>
<radialGradient id="paint48_radial" cx="0" cy="0" r="1" gradientUnits="userSpaceOnUse" gradientTransform="translate(203.057 256.336) rotate(0.396837) scale(312.451 270.579)">
<stop stop-color="#EDF3FA"/>
<stop offset="1" stop-color="#F1F4F8" stop-opacity="0"/>
</radialGradient>
<radialGradient id="paint49_radial" cx="0" cy="0" r="1" gradientUnits="userSpaceOnUse" gradientTransform="translate(203.057 256.336) rotate(0.396837) scale(312.451 270.579)">
<stop stop-color="#EDF3FA"/>
<stop offset="1" stop-color="#F1F4F8" stop-opacity="0"/>
</radialGradient>
<radialGradient id="paint50_radial" cx="0" cy="0" r="1" gradientUnits="userSpaceOnUse" gradientTransform="translate(203.057 256.336) rotate(0.396837) scale(312.451 270.579)">
<stop stop-color="#EDF3FA"/>
<stop offset="1" stop-color="#F1F4F8" stop-opacity="0"/>
</radialGradient>
<radialGradient id="paint51_radial" cx="0" cy="0" r="1" gradientUnits="userSpaceOnUse" gradientTransform="translate(203.057 256.336) rotate(0.396837) scale(312.451 270.579)">
<stop stop-color="#EDF3FA"/>
<stop offset="1" stop-color="#F1F4F8" stop-opacity="0"/>
</radialGradient>
<radialGradient id="paint52_radial" cx="0" cy="0" r="1" gradientUnits="userSpaceOnUse" gradientTransform="translate(203.057 256.336) rotate(0.396837) scale(312.451 270.579)">
<stop stop-color="#EDF3FA"/>
<stop offset="1" stop-color="#F1F4F8" stop-opacity="0"/>
</radialGradient>
<radialGradient id="paint53_radial" cx="0" cy="0" r="1" gradientUnits="userSpaceOnUse" gradientTransform="translate(203.057 256.336) rotate(0.396837) scale(312.451 270.579)">
<stop stop-color="#EDF3FA"/>
<stop offset="1" stop-color="#F1F4F8" stop-opacity="0"/>
</radialGradient>
<radialGradient id="paint54_radial" cx="0" cy="0" r="1" gradientUnits="userSpaceOnUse" gradientTransform="translate(203.057 256.336) rotate(0.396837) scale(312.451 270.579)">
<stop stop-color="#EDF3FA"/>
<stop offset="1" stop-color="#F1F4F8" stop-opacity="0"/>
</radialGradient>
<radialGradient id="paint55_radial" cx="0" cy="0" r="1" gradientUnits="userSpaceOnUse" gradientTransform="translate(203.057 256.336) rotate(0.396837) scale(312.451 270.579)">
<stop stop-color="#EDF3FA"/>
<stop offset="1" stop-color="#F1F4F8" stop-opacity="0"/>
</radialGradient>
<radialGradient id="paint56_radial" cx="0" cy="0" r="1" gradientUnits="userSpaceOnUse" gradientTransform="translate(203.057 256.336) rotate(0.396837) scale(312.451 270.579)">
<stop stop-color="#EDF3FA"/>
<stop offset="1" stop-color="#F1F4F8" stop-opacity="0"/>
</radialGradient>
<radialGradient id="paint57_radial" cx="0" cy="0" r="1" gradientUnits="userSpaceOnUse" gradientTransform="translate(203.057 256.336) rotate(0.396837) scale(312.451 270.579)">
<stop stop-color="#EDF3FA"/>
<stop offset="1" stop-color="#F1F4F8" stop-opacity="0"/>
</radialGradient>
<radialGradient id="paint58_radial" cx="0" cy="0" r="1" gradientUnits="userSpaceOnUse" gradientTransform="translate(203.057 256.336) rotate(0.396837) scale(312.451 270.579)">
<stop stop-color="#EDF3FA"/>
<stop offset="1" stop-color="#F1F4F8" stop-opacity="0"/>
</radialGradient>
<radialGradient id="paint59_radial" cx="0" cy="0" r="1" gradientUnits="userSpaceOnUse" gradientTransform="translate(203.057 256.336) rotate(0.396837) scale(312.451 270.579)">
<stop stop-color="#EDF3FA"/>
<stop offset="1" stop-color="#F1F4F8" stop-opacity="0"/>
</radialGradient>
<radialGradient id="paint60_radial" cx="0" cy="0" r="1" gradientUnits="userSpaceOnUse" gradientTransform="translate(203.057 256.336) rotate(0.396837) scale(312.451 270.579)">
<stop stop-color="#EDF3FA"/>
<stop offset="1" stop-color="#F1F4F8" stop-opacity="0"/>
</radialGradient>
<radialGradient id="paint61_radial" cx="0" cy="0" r="1" gradientUnits="userSpaceOnUse" gradientTransform="translate(203.057 256.336) rotate(0.396837) scale(312.451 270.579)">
<stop stop-color="#EDF3FA"/>
<stop offset="1" stop-color="#F1F4F8" stop-opacity="0"/>
</radialGradient>
<radialGradient id="paint62_radial" cx="0" cy="0" r="1" gradientUnits="userSpaceOnUse" gradientTransform="translate(203.057 256.336) rotate(0.396837) scale(312.451 270.579)">
<stop stop-color="#EDF3FA"/>
<stop offset="1" stop-color="#F1F4F8" stop-opacity="0"/>
</radialGradient>
<radialGradient id="paint63_radial" cx="0" cy="0" r="1" gradientUnits="userSpaceOnUse" gradientTransform="translate(203.057 256.336) rotate(0.396837) scale(312.451 270.579)">
<stop stop-color="#EDF3FA"/>
<stop offset="1" stop-color="#F1F4F8" stop-opacity="0"/>
</radialGradient>
<radialGradient id="paint64_radial" cx="0" cy="0" r="1" gradientUnits="userSpaceOnUse" gradientTransform="translate(203.057 256.336) rotate(0.396837) scale(312.451 270.579)">
<stop stop-color="#EDF3FA"/>
<stop offset="1" stop-color="#F1F4F8" stop-opacity="0"/>
</radialGradient>
<radialGradient id="paint65_radial" cx="0" cy="0" r="1" gradientUnits="userSpaceOnUse" gradientTransform="translate(203.057 256.336) rotate(0.396837) scale(312.451 270.579)">
<stop stop-color="#EDF3FA"/>
<stop offset="1" stop-color="#F1F4F8" stop-opacity="0"/>
</radialGradient>
<radialGradient id="paint66_radial" cx="0" cy="0" r="1" gradientUnits="userSpaceOnUse" gradientTransform="translate(203.057 256.336) rotate(0.396837) scale(312.451 270.579)">
<stop stop-color="#EDF3FA"/>
<stop offset="1" stop-color="#F1F4F8" stop-opacity="0"/>
</radialGradient>
<radialGradient id="paint67_radial" cx="0" cy="0" r="1" gradientUnits="userSpaceOnUse" gradientTransform="translate(203.057 256.336) rotate(0.396837) scale(312.451 270.579)">
<stop stop-color="#EDF3FA"/>
<stop offset="1" stop-color="#F1F4F8" stop-opacity="0"/>
</radialGradient>
<radialGradient id="paint68_radial" cx="0" cy="0" r="1" gradientUnits="userSpaceOnUse" gradientTransform="translate(203.057 256.336) rotate(0.396837) scale(312.451 270.579)">
<stop stop-color="#EDF3FA"/>
<stop offset="1" stop-color="#F1F4F8" stop-opacity="0"/>
</radialGradient>
<radialGradient id="paint69_radial" cx="0" cy="0" r="1" gradientUnits="userSpaceOnUse" gradientTransform="translate(203.057 256.336) rotate(0.396837) scale(312.451 270.579)">
<stop stop-color="#EDF3FA"/>
<stop offset="1" stop-color="#F1F4F8" stop-opacity="0"/>
</radialGradient>
<radialGradient id="paint70_radial" cx="0" cy="0" r="1" gradientUnits="userSpaceOnUse" gradientTransform="translate(203.057 256.336) rotate(0.396837) scale(312.451 270.579)">
<stop stop-color="#EDF3FA"/>
<stop offset="1" stop-color="#F1F4F8" stop-opacity="0"/>
</radialGradient>
<radialGradient id="paint71_radial" cx="0" cy="0" r="1" gradientUnits="userSpaceOnUse" gradientTransform="translate(203.057 256.336) rotate(0.396837) scale(312.451 270.579)">
<stop stop-color="#EDF3FA"/>
<stop offset="1" stop-color="#F1F4F8" stop-opacity="0"/>
</radialGradient>
<radialGradient id="paint72_radial" cx="0" cy="0" r="1" gradientUnits="userSpaceOnUse" gradientTransform="translate(203.057 256.336) rotate(0.396837) scale(312.451 270.579)">
<stop stop-color="#EDF3FA"/>
<stop offset="1" stop-color="#F1F4F8" stop-opacity="0"/>
</radialGradient>
<radialGradient id="paint73_radial" cx="0" cy="0" r="1" gradientUnits="userSpaceOnUse" gradientTransform="translate(203.057 256.336) rotate(0.396837) scale(312.451 270.579)">
<stop stop-color="#EDF3FA"/>
<stop offset="1" stop-color="#F1F4F8" stop-opacity="0"/>
</radialGradient>
<radialGradient id="paint74_radial" cx="0" cy="0" r="1" gradientUnits="userSpaceOnUse" gradientTransform="translate(203.057 256.336) rotate(0.396837) scale(312.451 270.579)">
<stop stop-color="#EDF3FA"/>
<stop offset="1" stop-color="#F1F4F8" stop-opacity="0"/>
</radialGradient>
<radialGradient id="paint75_radial" cx="0" cy="0" r="1" gradientUnits="userSpaceOnUse" gradientTransform="translate(203.057 256.336) rotate(0.396837) scale(312.451 270.579)">
<stop stop-color="#EDF3FA"/>
<stop offset="1" stop-color="#F1F4F8" stop-opacity="0"/>
</radialGradient>
<radialGradient id="paint76_radial" cx="0" cy="0" r="1" gradientUnits="userSpaceOnUse" gradientTransform="translate(203.057 256.336) rotate(0.396837) scale(312.451 270.579)">
<stop stop-color="#EDF3FA"/>
<stop offset="1" stop-color="#F1F4F8" stop-opacity="0"/>
</radialGradient>
<radialGradient id="paint77_radial" cx="0" cy="0" r="1" gradientUnits="userSpaceOnUse" gradientTransform="translate(203.057 256.336) rotate(0.396837) scale(312.451 270.579)">
<stop stop-color="#EDF3FA"/>
<stop offset="1" stop-color="#F1F4F8" stop-opacity="0"/>
</radialGradient>
<radialGradient id="paint78_radial" cx="0" cy="0" r="1" gradientUnits="userSpaceOnUse" gradientTransform="translate(203.057 256.336) rotate(0.396837) scale(312.451 270.579)">
<stop stop-color="#EDF3FA"/>
<stop offset="1" stop-color="#F1F4F8" stop-opacity="0"/>
</radialGradient>
<radialGradient id="paint79_radial" cx="0" cy="0" r="1" gradientUnits="userSpaceOnUse" gradientTransform="translate(203.057 256.336) rotate(0.396837) scale(312.451 270.579)">
<stop stop-color="#EDF3FA"/>
<stop offset="1" stop-color="#F1F4F8" stop-opacity="0"/>
</radialGradient>
<radialGradient id="paint80_radial" cx="0" cy="0" r="1" gradientUnits="userSpaceOnUse" gradientTransform="translate(203.057 256.336) rotate(0.396837) scale(312.451 270.579)">
<stop stop-color="#EDF3FA"/>
<stop offset="1" stop-color="#F1F4F8" stop-opacity="0"/>
</radialGradient>
<radialGradient id="paint81_radial" cx="0" cy="0" r="1" gradientUnits="userSpaceOnUse" gradientTransform="translate(203.057 256.336) rotate(0.396837) scale(312.451 270.579)">
<stop stop-color="#EDF3FA"/>
<stop offset="1" stop-color="#F1F4F8" stop-opacity="0"/>
</radialGradient>
<radialGradient id="paint82_radial" cx="0" cy="0" r="1" gradientUnits="userSpaceOnUse" gradientTransform="translate(203.057 256.336) rotate(0.396837) scale(312.451 270.579)">
<stop stop-color="#EDF3FA"/>
<stop offset="1" stop-color="#F1F4F8" stop-opacity="0"/>
</radialGradient>
<radialGradient id="paint83_radial" cx="0" cy="0" r="1" gradientUnits="userSpaceOnUse" gradientTransform="translate(203.057 256.336) rotate(0.396837) scale(312.451 270.579)">
<stop stop-color="#EDF3FA"/>
<stop offset="1" stop-color="#F1F4F8" stop-opacity="0"/>
</radialGradient>
<radialGradient id="paint84_radial" cx="0" cy="0" r="1" gradientUnits="userSpaceOnUse" gradientTransform="translate(203.057 256.336) rotate(0.396837) scale(312.451 270.579)">
<stop stop-color="#EDF3FA"/>
<stop offset="1" stop-color="#F1F4F8" stop-opacity="0"/>
</radialGradient>
<radialGradient id="paint85_radial" cx="0" cy="0" r="1" gradientUnits="userSpaceOnUse" gradientTransform="translate(203.057 256.336) rotate(0.396837) scale(312.451 270.579)">
<stop stop-color="#EDF3FA"/>
<stop offset="1" stop-color="#F1F4F8" stop-opacity="0"/>
</radialGradient>
<radialGradient id="paint86_radial" cx="0" cy="0" r="1" gradientUnits="userSpaceOnUse" gradientTransform="translate(203.057 256.336) rotate(0.396837) scale(312.451 270.579)">
<stop stop-color="#EDF3FA"/>
<stop offset="1" stop-color="#F1F4F8" stop-opacity="0"/>
</radialGradient>
<radialGradient id="paint87_radial" cx="0" cy="0" r="1" gradientUnits="userSpaceOnUse" gradientTransform="translate(203.057 256.336) rotate(0.396837) scale(312.451 270.579)">
<stop stop-color="#EDF3FA"/>
<stop offset="1" stop-color="#F1F4F8" stop-opacity="0"/>
</radialGradient>
<radialGradient id="paint88_radial" cx="0" cy="0" r="1" gradientUnits="userSpaceOnUse" gradientTransform="translate(203.057 256.336) rotate(0.396837) scale(312.451 270.579)">
<stop stop-color="#EDF3FA"/>
<stop offset="1" stop-color="#F1F4F8" stop-opacity="0"/>
</radialGradient>
<radialGradient id="paint89_radial" cx="0" cy="0" r="1" gradientUnits="userSpaceOnUse" gradientTransform="translate(203.057 256.336) rotate(0.396837) scale(312.451 270.579)">
<stop stop-color="#EDF3FA"/>
<stop offset="1" stop-color="#F1F4F8" stop-opacity="0"/>
</radialGradient>
<radialGradient id="paint90_radial" cx="0" cy="0" r="1" gradientUnits="userSpaceOnUse" gradientTransform="translate(203.057 256.336) rotate(0.396837) scale(312.451 270.579)">
<stop stop-color="#EDF3FA"/>
<stop offset="1" stop-color="#F1F4F8" stop-opacity="0"/>
</radialGradient>
<radialGradient id="paint91_radial" cx="0" cy="0" r="1" gradientUnits="userSpaceOnUse" gradientTransform="translate(203.057 256.336) rotate(0.396837) scale(312.451 270.579)">
<stop stop-color="#EDF3FA"/>
<stop offset="1" stop-color="#F1F4F8" stop-opacity="0"/>
</radialGradient>
<radialGradient id="paint92_radial" cx="0" cy="0" r="1" gradientUnits="userSpaceOnUse" gradientTransform="translate(203.057 256.336) rotate(0.396837) scale(312.451 270.579)">
<stop stop-color="#EDF3FA"/>
<stop offset="1" stop-color="#F1F4F8" stop-opacity="0"/>
</radialGradient>
<radialGradient id="paint93_radial" cx="0" cy="0" r="1" gradientUnits="userSpaceOnUse" gradientTransform="translate(203.057 256.336) rotate(0.396837) scale(312.451 270.579)">
<stop stop-color="#EDF3FA"/>
<stop offset="1" stop-color="#F1F4F8" stop-opacity="0"/>
</radialGradient>
<radialGradient id="paint94_radial" cx="0" cy="0" r="1" gradientUnits="userSpaceOnUse" gradientTransform="translate(203.057 256.336) rotate(0.396837) scale(312.451 270.579)">
<stop stop-color="#EDF3FA"/>
<stop offset="1" stop-color="#F1F4F8" stop-opacity="0"/>
</radialGradient>
<radialGradient id="paint95_radial" cx="0" cy="0" r="1" gradientUnits="userSpaceOnUse" gradientTransform="translate(203.057 256.336) rotate(0.396837) scale(312.451 270.579)">
<stop stop-color="#EDF3FA"/>
<stop offset="1" stop-color="#F1F4F8" stop-opacity="0"/>
</radialGradient>
<radialGradient id="paint96_radial" cx="0" cy="0" r="1" gradientUnits="userSpaceOnUse" gradientTransform="translate(203.057 256.336) rotate(0.396837) scale(312.451 270.579)">
<stop stop-color="#EDF3FA"/>
<stop offset="1" stop-color="#F1F4F8" stop-opacity="0"/>
</radialGradient>
<radialGradient id="paint97_radial" cx="0" cy="0" r="1" gradientUnits="userSpaceOnUse" gradientTransform="translate(203.057 256.336) rotate(0.396837) scale(312.451 270.579)">
<stop stop-color="#EDF3FA"/>
<stop offset="1" stop-color="#F1F4F8" stop-opacity="0"/>
</radialGradient>
<radialGradient id="paint98_radial" cx="0" cy="0" r="1" gradientUnits="userSpaceOnUse" gradientTransform="translate(203.057 256.336) rotate(0.396837) scale(312.451 270.579)">
<stop stop-color="#EDF3FA"/>
<stop offset="1" stop-color="#F1F4F8" stop-opacity="0"/>
</radialGradient>
<radialGradient id="paint99_radial" cx="0" cy="0" r="1" gradientUnits="userSpaceOnUse" gradientTransform="translate(203.057 256.336) rotate(0.396837) scale(312.451 270.579)">
<stop stop-color="#EDF3FA"/>
<stop offset="1" stop-color="#F1F4F8" stop-opacity="0"/>
</radialGradient>
<radialGradient id="paint100_radial" cx="0" cy="0" r="1" gradientUnits="userSpaceOnUse" gradientTransform="translate(203.057 256.336) rotate(0.396837) scale(312.451 270.579)">
<stop stop-color="#EDF3FA"/>
<stop offset="1" stop-color="#F1F4F8" stop-opacity="0"/>
</radialGradient>
<radialGradient id="paint101_radial" cx="0" cy="0" r="1" gradientUnits="userSpaceOnUse" gradientTransform="translate(203.057 256.336) rotate(0.396837) scale(312.451 270.579)">
<stop stop-color="#EDF3FA"/>
<stop offset="1" stop-color="#F1F4F8" stop-opacity="0"/>
</radialGradient>
<radialGradient id="paint102_radial" cx="0" cy="0" r="1" gradientUnits="userSpaceOnUse" gradientTransform="translate(203.057 256.336) rotate(0.396837) scale(312.451 270.579)">
<stop stop-color="#EDF3FA"/>
<stop offset="1" stop-color="#F1F4F8" stop-opacity="0"/>
</radialGradient>
<radialGradient id="paint103_radial" cx="0" cy="0" r="1" gradientUnits="userSpaceOnUse" gradientTransform="translate(203.057 256.336) rotate(0.396837) scale(312.451 270.579)">
<stop stop-color="#EDF3FA"/>
<stop offset="1" stop-color="#F1F4F8" stop-opacity="0"/>
</radialGradient>
<radialGradient id="paint104_radial" cx="0" cy="0" r="1" gradientUnits="userSpaceOnUse" gradientTransform="translate(203.057 256.336) rotate(0.396837) scale(312.451 270.579)">
<stop stop-color="#EDF3FA"/>
<stop offset="1" stop-color="#F1F4F8" stop-opacity="0"/>
</radialGradient>
<radialGradient id="paint105_radial" cx="0" cy="0" r="1" gradientUnits="userSpaceOnUse" gradientTransform="translate(203.057 256.336) rotate(0.396837) scale(312.451 270.579)">
<stop stop-color="#EDF3FA"/>
<stop offset="1" stop-color="#F1F4F8" stop-opacity="0"/>
</radialGradient>
<radialGradient id="paint106_radial" cx="0" cy="0" r="1" gradientUnits="userSpaceOnUse" gradientTransform="translate(203.057 256.336) rotate(0.396837) scale(312.451 270.579)">
<stop stop-color="#EDF3FA"/>
<stop offset="1" stop-color="#F1F4F8" stop-opacity="0"/>
</radialGradient>
<radialGradient id="paint107_radial" cx="0" cy="0" r="1" gradientUnits="userSpaceOnUse" gradientTransform="translate(203.057 256.336) rotate(0.396837) scale(312.451 270.579)">
<stop stop-color="#EDF3FA"/>
<stop offset="1" stop-color="#F1F4F8" stop-opacity="0"/>
</radialGradient>
<radialGradient id="paint108_radial" cx="0" cy="0" r="1" gradientUnits="userSpaceOnUse" gradientTransform="translate(203.057 256.336) rotate(0.396837) scale(312.451 270.579)">
<stop stop-color="#EDF3FA"/>
<stop offset="1" stop-color="#F1F4F8" stop-opacity="0"/>
</radialGradient>
<radialGradient id="paint109_radial" cx="0" cy="0" r="1" gradientUnits="userSpaceOnUse" gradientTransform="translate(203.057 256.336) rotate(0.396837) scale(312.451 270.579)">
<stop stop-color="#EDF3FA"/>
<stop offset="1" stop-color="#F1F4F8" stop-opacity="0"/>
</radialGradient>
<radialGradient id="paint110_radial" cx="0" cy="0" r="1" gradientUnits="userSpaceOnUse" gradientTransform="translate(203.057 256.336) rotate(0.396837) scale(312.451 270.579)">
<stop stop-color="#EDF3FA"/>
<stop offset="1" stop-color="#F1F4F8" stop-opacity="0"/>
</radialGradient>
<radialGradient id="paint111_radial" cx="0" cy="0" r="1" gradientUnits="userSpaceOnUse" gradientTransform="translate(203.057 256.336) rotate(0.396837) scale(312.451 270.579)">
<stop stop-color="#EDF3FA"/>
<stop offset="1" stop-color="#F1F4F8" stop-opacity="0"/>
</radialGradient>
<radialGradient id="paint112_radial" cx="0" cy="0" r="1" gradientUnits="userSpaceOnUse" gradientTransform="translate(203.057 256.336) rotate(0.396837) scale(312.451 270.579)">
<stop stop-color="#EDF3FA"/>
<stop offset="1" stop-color="#F1F4F8" stop-opacity="0"/>
</radialGradient>
<radialGradient id="paint113_radial" cx="0" cy="0" r="1" gradientUnits="userSpaceOnUse" gradientTransform="translate(203.057 256.336) rotate(0.396837) scale(312.451 270.579)">
<stop stop-color="#EDF3FA"/>
<stop offset="1" stop-color="#F1F4F8" stop-opacity="0"/>
</radialGradient>
<radialGradient id="paint114_radial" cx="0" cy="0" r="1" gradientUnits="userSpaceOnUse" gradientTransform="translate(203.057 256.336) rotate(0.396837) scale(312.451 270.579)">
<stop stop-color="#EDF3FA"/>
<stop offset="1" stop-color="#F1F4F8" stop-opacity="0"/>
</radialGradient>
<radialGradient id="paint115_radial" cx="0" cy="0" r="1" gradientUnits="userSpaceOnUse" gradientTransform="translate(203.057 256.336) rotate(0.396837) scale(312.451 270.579)">
<stop stop-color="#EDF3FA"/>
<stop offset="1" stop-color="#F1F4F8" stop-opacity="0"/>
</radialGradient>
<radialGradient id="paint116_radial" cx="0" cy="0" r="1" gradientUnits="userSpaceOnUse" gradientTransform="translate(203.057 256.336) rotate(0.396837) scale(312.451 270.579)">
<stop stop-color="#EDF3FA"/>
<stop offset="1" stop-color="#F1F4F8" stop-opacity="0"/>
</radialGradient>
<radialGradient id="paint117_radial" cx="0" cy="0" r="1" gradientUnits="userSpaceOnUse" gradientTransform="translate(203.057 256.336) rotate(0.396837) scale(312.451 270.579)">
<stop stop-color="#EDF3FA"/>
<stop offset="1" stop-color="#F1F4F8" stop-opacity="0"/>
</radialGradient>
<radialGradient id="paint118_radial" cx="0" cy="0" r="1" gradientUnits="userSpaceOnUse" gradientTransform="translate(203.057 256.336) rotate(0.396837) scale(312.451 270.579)">
<stop stop-color="#EDF3FA"/>
<stop offset="1" stop-color="#F1F4F8" stop-opacity="0"/>
</radialGradient>
<radialGradient id="paint119_radial" cx="0" cy="0" r="1" gradientUnits="userSpaceOnUse" gradientTransform="translate(203.057 256.336) rotate(0.396837) scale(312.451 270.579)">
<stop stop-color="#EDF3FA"/>
<stop offset="1" stop-color="#F1F4F8" stop-opacity="0"/>
</radialGradient>
<clipPath id="clip0">
<rect width="484" height="456" fill="white"/>
</clipPath>
</defs>
</svg>
