<svg width="844" height="208" viewBox="0 0 844 208" fill="none" xmlns="http://www.w3.org/2000/svg">
<path d="M21.8385 94.9294C36.3489 80.6216 51.7705 68.7848 67.9475 56.3925C87.6874 41.2709 102.812 13.4978 127.675 13.8538C152.343 14.207 165.12 44.09 185.444 58.0747C205.093 71.5947 230.577 76.1646 245.394 94.8548C261.483 115.149 278.101 141.582 271.499 166.624C264.702 192.405 228.6 197.419 212.711 218.828C198.27 238.287 205.622 273.107 184.144 284.327C162.726 295.517 138.368 272.298 114.291 270.246C91.274 268.284 67.4655 281.617 46.2109 272.57C24.2004 263.201 10.7036 241.268 -1.75809 220.848C-14.9403 199.248 -32.6493 175.861 -27.9884 150.989C-23.3037 125.99 3.72781 112.787 21.8385 94.9294Z" fill="#FFF7FA"/>
<path d="M828.91 -37.3974C837.446 -20.909 820.375 -1.50524 822.337 16.9574C824.727 39.4506 851.339 60.5006 841.475 80.8563C831.979 100.452 801.461 94.9952 780.961 102.341C763.875 108.464 748.535 117.544 730.639 120.573C709.735 124.112 686.191 132.538 668.125 121.442C650.055 110.343 648.965 84.7762 640.618 65.282C633.059 47.6303 618.324 31.0314 621.287 12.0595C624.235 -6.81746 644.478 -17.0804 655.875 -32.4149C666.086 -46.1543 670.41 -64.6804 684.989 -73.6532C699.767 -82.749 718.31 -83.3382 735.561 -81.4618C752.013 -79.6723 765.863 -70.2932 780.829 -63.2289C797.567 -55.3279 820.401 -53.8348 828.91 -37.3974Z" fill="#F2EBFF"/>
</svg>
