<svg width="19" height="19" viewBox="0 0 19 19" fill="none" xmlns="http://www.w3.org/2000/svg">
<path d="M17.5236 0.802484C16.8964 0.694451 16.2613 0.638842 15.6249 0.636234C13.4535 0.634454 11.3273 1.25711 9.49989 2.42998C7.66777 1.27251 5.54196 0.665136 3.37489 0.679984C2.73846 0.682592 2.10334 0.738201 1.47614 0.846234C1.2707 0.881653 1.08465 0.98926 0.951503 1.14968C0.818356 1.3101 0.74686 1.51278 0.749891 1.72123V12.2212C0.748017 12.3498 0.774501 12.4772 0.82746 12.5944C0.880418 12.7115 0.958549 12.8156 1.05629 12.8991C1.15404 12.9827 1.26899 13.0437 1.39298 13.0777C1.51696 13.1118 1.64693 13.1181 1.77364 13.0962C3.02753 12.8791 4.31219 12.9152 5.55195 13.2022C6.79171 13.4892 7.96149 14.0214 8.99239 14.7675L9.09739 14.8287H9.19364C9.29068 14.8692 9.39477 14.89 9.49989 14.89C9.60502 14.89 9.7091 14.8692 9.80614 14.8287H9.90239L10.0074 14.7675C11.0311 14.0047 12.1975 13.4553 13.4375 13.1517C14.6775 12.8481 15.9658 12.7965 17.2261 13C17.3528 13.0219 17.4828 13.0155 17.6068 12.9815C17.7308 12.9474 17.8457 12.8864 17.9435 12.8029C18.0412 12.7193 18.1194 12.6153 18.1723 12.4981C18.2253 12.381 18.2518 12.2536 18.2499 12.125V1.62498C18.2408 1.42562 18.1638 1.23536 18.0317 1.08575C17.8996 0.936154 17.7203 0.836204 17.5236 0.802484ZM8.62489 12.4312C7.00604 11.5796 5.20409 11.1351 3.37489 11.1362C3.08614 11.1362 2.79739 11.1362 2.49989 11.1362V2.38623C2.79132 2.36944 3.08347 2.36944 3.37489 2.38623C5.2416 2.38417 7.06758 2.93196 8.62489 3.96123V12.4312ZM16.4999 11.1712C16.2024 11.1712 15.9136 11.1712 15.6249 11.1712C13.7957 11.1701 11.9937 11.6146 10.3749 12.4662V3.96123C11.9322 2.93196 13.7582 2.38417 15.6249 2.38623C15.9163 2.36944 16.2085 2.36944 16.4999 2.38623V11.1712ZM17.5236 14.8025C16.8964 14.6945 16.2613 14.6388 15.6249 14.6362C13.4535 14.6345 11.3273 15.2571 9.49989 16.43C7.67247 15.2571 5.54632 14.6345 3.37489 14.6362C2.73846 14.6388 2.10334 14.6945 1.47614 14.8025C1.36224 14.8206 1.25304 14.861 1.15481 14.9214C1.05658 14.9818 0.971267 15.0611 0.903774 15.1546C0.836281 15.2481 0.787941 15.354 0.761532 15.4663C0.735123 15.5786 0.731167 15.6949 0.749891 15.8087C0.794357 16.036 0.92707 16.2363 1.11896 16.3659C1.31085 16.4954 1.54626 16.5437 1.77364 16.5C3.02753 16.2829 4.31219 16.3189 5.55195 16.6059C6.79171 16.893 7.96149 17.4252 8.99239 18.1712C9.14058 18.2767 9.31798 18.3334 9.49989 18.3334C9.68181 18.3334 9.8592 18.2767 10.0074 18.1712C11.0383 17.4252 12.2081 16.893 13.4478 16.6059C14.6876 16.3189 15.9723 16.2829 17.2261 16.5C17.4535 16.5437 17.6889 16.4954 17.8808 16.3659C18.0727 16.2363 18.2054 16.036 18.2499 15.8087C18.2686 15.6949 18.2647 15.5786 18.2383 15.4663C18.2118 15.354 18.1635 15.2481 18.096 15.1546C18.0285 15.0611 17.9432 14.9818 17.845 14.9214C17.7467 14.861 17.6375 14.8206 17.5236 14.8025Z" fill="#966CEE"/>
</svg>
