<svg width="19" height="17" viewBox="0 0 19 17" fill="none" xmlns="http://www.w3.org/2000/svg">
<path d="M15.625 3.6875H13V2.8125C13 2.11631 12.7234 1.44863 12.2312 0.956345C11.7389 0.464062 11.0712 0.1875 10.375 0.1875H8.625C7.92881 0.1875 7.26113 0.464062 6.76884 0.956345C6.27656 1.44863 6 2.11631 6 2.8125V3.6875H3.375C2.67881 3.6875 2.01113 3.96406 1.51884 4.45634C1.02656 4.94863 0.75 5.61631 0.75 6.3125V14.1875C0.75 14.8837 1.02656 15.5514 1.51884 16.0437C2.01113 16.5359 2.67881 16.8125 3.375 16.8125H15.625C16.3212 16.8125 16.9889 16.5359 17.4812 16.0437C17.9734 15.5514 18.25 14.8837 18.25 14.1875V6.3125C18.25 5.61631 17.9734 4.94863 17.4812 4.45634C16.9889 3.96406 16.3212 3.6875 15.625 3.6875ZM7.75 2.8125C7.75 2.58044 7.84219 2.35788 8.00628 2.19378C8.17038 2.02969 8.39294 1.9375 8.625 1.9375H10.375C10.6071 1.9375 10.8296 2.02969 10.9937 2.19378C11.1578 2.35788 11.25 2.58044 11.25 2.8125V3.6875H7.75V2.8125ZM16.5 14.1875C16.5 14.4196 16.4078 14.6421 16.2437 14.8062C16.0796 14.9703 15.8571 15.0625 15.625 15.0625H3.375C3.14294 15.0625 2.92038 14.9703 2.75628 14.8062C2.59219 14.6421 2.5 14.4196 2.5 14.1875V9.375C3.35351 9.71354 4.23091 9.98846 5.125 10.1975V10.7137C5.125 10.9458 5.21719 11.1684 5.38128 11.3325C5.54538 11.4966 5.76794 11.5887 6 11.5887C6.23206 11.5887 6.45462 11.4966 6.61872 11.3325C6.78281 11.1684 6.875 10.9458 6.875 10.7137V10.53C7.74505 10.6484 8.62193 10.7098 9.5 10.7137C10.3781 10.7098 11.2549 10.6484 12.125 10.53V10.7137C12.125 10.9458 12.2172 11.1684 12.3813 11.3325C12.5454 11.4966 12.7679 11.5887 13 11.5887C13.2321 11.5887 13.4546 11.4966 13.6187 11.3325C13.7828 11.1684 13.875 10.9458 13.875 10.7137V10.1975C14.7691 9.98846 15.6465 9.71354 16.5 9.375V14.1875ZM16.5 7.45875C15.649 7.81793 14.7713 8.11048 13.875 8.33375V8.0625C13.875 7.83044 13.7828 7.60788 13.6187 7.44378C13.4546 7.27969 13.2321 7.1875 13 7.1875C12.7679 7.1875 12.5454 7.27969 12.3813 7.44378C12.2172 7.60788 12.125 7.83044 12.125 8.0625V8.71C10.3848 8.97253 8.61515 8.97253 6.875 8.71V8.0625C6.875 7.83044 6.78281 7.60788 6.61872 7.44378C6.45462 7.27969 6.23206 7.1875 6 7.1875C5.76794 7.1875 5.54538 7.27969 5.38128 7.44378C5.21719 7.60788 5.125 7.83044 5.125 8.0625V8.35125C4.22867 8.12798 3.35103 7.83543 2.5 7.47625V6.3125C2.5 6.08044 2.59219 5.85788 2.75628 5.69378C2.92038 5.52969 3.14294 5.4375 3.375 5.4375H15.625C15.8571 5.4375 16.0796 5.52969 16.2437 5.69378C16.4078 5.85788 16.5 6.08044 16.5 6.3125V7.45875Z" fill="#966CEE"/>
</svg>
