<svg width="48" height="48" viewBox="0 0 48 48" fill="none" xmlns="http://www.w3.org/2000/svg">
<circle cx="24" cy="21" r="4" stroke="#E2D5FF" stroke-width="2"/>
<path d="M27.7881 42.1088L24 46.4742L20.2119 42.1088C19.2052 40.9488 19.0796 39.2867 19.8538 38H28.1462C28.9204 39.2867 28.7948 40.9488 27.7881 42.1088Z" stroke="#E2D5FF" stroke-width="2"/>
<path d="M16.0283 10.2372L16.0381 10.2212L16.0473 10.2048C18.0721 6.60765 20.7195 3.39475 23.9985 1.18177C27.5214 3.39826 30.2827 6.61611 32.3424 10.2114C32.3952 10.3035 32.4476 10.3959 32.4994 10.4886C35.4002 15.6692 36.817 21.5134 36.9834 26.03C37.0668 28.2971 36.8321 30.1524 36.3688 31.399C35.8916 32.6829 35.3222 33 34.8796 33H34.8447H34.8097H34.7747H34.7395H34.7043H34.669H34.6336H34.598H34.5625H34.5268H34.491H34.4551H34.4192H34.3832H34.3471H34.3109H34.2746H34.2382H34.2018H34.1652H34.1286H34.0919H34.0551H34.0182H33.9813H33.9442H33.9071H33.8699H33.8327H33.7953H33.7579H33.7203H33.6828H33.6451H33.6073H33.5695H33.5316H33.4936H33.4555H33.4174H33.3792H33.3409H33.3025H33.264H33.2255H33.1869H33.1483H33.1095H33.0707H33.0318H32.9928H32.9538H32.9147H32.8755H32.8363H32.7969H32.7575H32.7181H32.6785H32.6389H32.5992H32.5595H32.5197H32.4798H32.4399H32.3998H32.3598H32.3196H32.2794H32.2391H32.1987H32.1583H32.1179H32.0773H32.0367H31.996H31.9553H31.9145H31.8736H31.8327H31.7917H31.7506H31.7095H31.6684H31.6271H31.5858H31.5445H31.503H31.4616H31.42H31.3784H31.3368H31.2951H31.2533H31.2115H31.1696H31.1277H31.0857H31.0436H31.0015H30.9593H30.9171H30.8748H30.8325H30.7901H30.7477H30.7052H30.6627H30.6201H30.5774H30.5347H30.492H30.4492H30.4063H30.3634H30.3205H30.2775H30.2344H30.1914H30.1482H30.105H30.0618H30.0185H29.9751H29.9318H29.8883H29.8449H29.8013H29.7578H29.7141H29.6705H29.6268H29.583H29.5393H29.4954H29.4515H29.4076H29.3637H29.3197H29.2756H29.2315H29.1874H29.1433H29.0991H29.0548H29.0105H28.9662H28.9218H28.8774H28.833H28.7885H28.744H28.6995H28.6549H28.6103H28.5656H28.5209H28.4762H28.4314H28.3866H28.3418H28.2969H28.252H28.2071H28.1621H28.1171H28.0721H28.027H27.9819H27.9368H27.8917H27.8465H27.8013H27.756H27.7108H27.6655H27.6201H27.5748H27.5294H27.484H27.4385H27.3931H27.3476H27.3021H27.2565H27.211H27.1654H27.1198H27.0741H27.0285H26.9828H26.9371H26.8913H26.8456H26.7998H26.754H26.7082H26.6623H26.6165H26.5706H26.5247H26.4788H26.4328H26.3869H26.3409H26.2949H26.2489H26.2028H26.1568H26.1107H26.0647H26.0186H25.9724H25.9263H25.8802H25.834H25.7878H25.7417H25.6955H25.6493H25.603H25.5568H25.5105H25.4643H25.418H25.3717H25.3254H25.2791H25.2328H25.1865H25.1402H25.0938H25.0475H25.0011H24.9547H24.9084H24.862H24.8156H24.7692H24.7228H24.6764H24.63H24.5836H24.5372H24.4907H24.4443H24.3979H24.3514H24.305H24.2586H24.2121H24.1657H24.1192H24.0728H24.0263H23.9799H23.9334H23.887H23.8406H23.7941H23.7477H23.7012H23.6548H23.6083H23.5619H23.5155H23.4691H23.4226H23.3762H23.3298H23.2834H23.237H23.1906H23.1442H23.0978H23.0514H23.005H22.9587H22.9123H22.866H22.8196H22.7733H22.727H22.6807H22.6344H22.5881H22.5418H22.4955H22.4492H22.403H22.3568H22.3105H22.2643H22.2181H22.1719H22.1258H22.0796H22.0335H21.9873H21.9412H21.8951H21.8491H21.803H21.7569H21.7109H21.6649H21.6189H21.5729H21.527H21.481H21.4351H21.3892H21.3433H21.2975H21.2516H21.2058H21.16H21.1142H21.0685H21.0227H20.977H20.9313H20.8857H20.84H20.7944H20.7488H20.7033H20.6577H20.6122H20.5667H20.5212H20.4758H20.4304H20.385H20.3397H20.2943H20.249H20.2038H20.1585H20.1133H20.0681H20.023H19.9778H19.9328H19.8877H19.8427H19.7977H19.7527H19.7078H19.6629H19.618H19.5732H19.5284H19.4836H19.4389H19.3942H19.3495H19.3049H19.2603H19.2158H19.1713H19.1268H19.0824H19.038H18.9936H18.9493H18.905H18.8607H18.8165H18.7724H18.7282H18.6842H18.6401H18.5961H18.5522H18.5082H18.4644H18.4205H18.3767H18.333H18.2893H18.2456H18.202H18.1585H18.1149H18.0715H18.028H17.9847H17.9413H17.898H17.8548H17.8116H17.7684H17.7253H17.6823H17.6393H17.5963H17.5534H17.5106H17.4678H17.425H17.3824H17.3397H17.2971H17.2546H17.2121H17.1697H17.1273H17.0849H17.0427H17.0005H16.9583H16.9162H16.8741H16.8321H16.7902H16.7483H16.7065H16.6647H16.623H16.5814H16.5398H16.4982H16.4567H16.4153H16.374H16.3327H16.2914H16.2503H16.2091H16.1681H16.1271H16.0862H16.0453H16.0045H15.9638H15.9231H15.8825H15.8419H15.8015H15.761H15.7207H15.6804H15.6402H15.6H15.56H15.5199H15.48H15.4401H15.4003H15.3605H15.3209H15.2813H15.2417H15.2023H15.1629H15.1235H15.0843H15.0451H15.006H14.967H14.928H14.8891H14.8503H14.8115H14.7729H14.7343H14.6957H14.6573H14.6189H14.5806H14.5424H14.5043H14.4662H14.4282H14.3903H14.3525H14.3147H14.277H14.2394H14.2019H14.1645H14.1271H14.0899H14.0527H14.0155H13.9785H13.9416H13.9047H13.8679H13.8312H13.7946H13.758H13.7216H13.6852H13.6489H13.6127H13.5766H13.5406H13.5046H13.4688H13.433H13.3973H13.3617H13.3262H13.2908H13.2555H13.2203H13.1851H13.15H13.1151H13.0802C12.635 33 12.0584 32.6769 11.5866 31.3688C11.1292 30.1005 10.912 28.2146 11.0331 25.917C11.2746 21.3389 12.8426 15.4306 16.0283 10.2372Z" stroke="#A177FF" stroke-width="2"/>
<path d="M16.2647 36.5701L17.6933 33.5701C17.8591 33.2218 18.2104 33 18.5961 33H29.4039C29.7896 33 30.1409 33.2218 30.3067 33.5701L31.7353 36.5701C32.0513 37.2337 31.5674 38 30.8324 38H17.1676C16.4326 38 15.9487 37.2337 16.2647 36.5701Z" stroke="#A177FF" stroke-width="2"/>
<path d="M35.5 33L41.6286 35.4514C42.2855 35.7142 43 35.2304 43 34.523V29.4142C43 29.149 42.8946 28.8946 42.7071 28.7071L36.5 22.5" stroke="#A177FF" stroke-width="2"/>
<path d="M13 33L6.35112 35.4933C5.69737 35.7385 5 35.2552 5 34.557V29.4142C5 29.149 5.10536 28.8946 5.29289 28.7071L11.5 22.5" stroke="#A177FF" stroke-width="2"/>
</svg>
