<svg width="48" height="48" viewBox="0 0 48 48" fill="none" xmlns="http://www.w3.org/2000/svg">
<path d="M25 35L22.4026 12M25 35H18M25 35L20.3182 41.1818M22.4026 12L22.1587 10.2929C21.8068 7.82965 19.6972 6 17.209 6H11.014C8.24709 6 6.00626 8.24708 6.01397 11.0139L6.06691 30.0139C6.07459 32.7699 8.31091 35 11.0669 35H18M22.4026 12H36.935C39.6914 12 41.9279 14.2307 41.935 16.987L41.987 36.987C41.9942 39.7535 39.7535 42 36.987 42H22.2005C20.8476 42 19.6621 41.0945 19.3062 39.7894L18 35" stroke="#A177FF" stroke-width="2"/>
<path d="M11 26L11.8333 21.7143M18 26L17.1667 21.7143M17.1667 21.7143L15.8893 15.1452C15.76 14.4801 15.1775 14 14.5 14V14C13.8225 14 13.24 14.4801 13.1107 15.1452L11.8333 21.7143M17.1667 21.7143H11.8333" stroke="#E2D5FF" stroke-width="2" stroke-linecap="round"/>
<path d="M28 23H29.6667M38 23H36.3333M33 23L33 21M33 23H36.3333M33 23H29.6667M36.3333 23C35.6389 25.0952 33.3333 30.1143 29 32M29.6667 23C30.0833 24.8333 33.25 30.0357 37 32" stroke="#E2D5FF" stroke-width="2" stroke-linecap="round"/>
</svg>
