<svg width="48" height="48" viewBox="0 0 48 48" fill="none" xmlns="http://www.w3.org/2000/svg">
<path d="M38.8496 8.15063L31.7785 15.2217" stroke="#E2D5FF" stroke-width="2"/>
<path d="M12.6855 25.8283L21.1708 34.3136L15.514 39.9704C13.9519 41.5325 11.4192 41.5325 9.85712 39.9704L7.02869 37.142C5.4666 35.5799 5.4666 33.0472 7.02869 31.4851L12.6855 25.8283Z" stroke="#A177FF" stroke-width="2"/>
<rect x="14.0996" y="15.9289" width="24" height="8" rx="3" transform="rotate(45 14.0996 15.9289)" stroke="#A177FF" stroke-width="2"/>
<path d="M29.6562 31.4852L35.2259 30.8664C36.6204 30.7114 37.7213 29.6106 37.8762 28.216L39.8487 10.4635C40.061 8.55281 38.4465 6.9383 36.5358 7.1506L18.7833 9.1231C17.3888 9.27805 16.2879 10.3789 16.133 11.7735L15.5141 17.3431" stroke="#A177FF" stroke-width="2"/>
<circle cx="29.6562" cy="17.3431" r="3" transform="rotate(45 29.6562 17.3431)" stroke="#E2D5FF" stroke-width="2"/>
</svg>
