<svg width="48" height="48" viewBox="0 0 48 48" fill="none" xmlns="http://www.w3.org/2000/svg">
<path d="M13 13V10C13 7.79086 14.7909 6 17 6H31C33.2091 6 35 7.79086 35 10V13" stroke="#CAB1FF" stroke-width="2"/>
<path d="M17 14V11C17 10.4477 17.4477 10 18 10H30C30.5523 10 31 10.4477 31 11V14" stroke="#CAB1FF" stroke-width="2"/>
<path d="M12.2251 30H9C6.23857 30 4 27.7614 4 25V19C4 16.2386 6.23858 14 9 14H39C41.7614 14 44 16.2386 44 19V25C44 27.7614 41.7614 30 39 30H35.7749" stroke="#A177FF" stroke-width="2"/>
<path d="M42 29V38C42 40.7614 39.7614 43 37 43H11C8.23858 43 6 40.7614 6 38V29" stroke="#A177FF" stroke-width="2"/>
<path d="M16 30H32" stroke="#A177FF" stroke-width="2"/>
<path d="M12 28.5C12 27.1193 13.1193 26 14.5 26C15.8807 26 17 27.1193 17 28.5V31.5C17 32.8807 15.8807 34 14.5 34C13.1193 34 12 32.8807 12 31.5V28.5Z" stroke="#A177FF" stroke-width="2"/>
<path d="M31 28.5C31 27.1193 32.1193 26 33.5 26C34.8807 26 36 27.1193 36 28.5V31.5C36 32.8807 34.8807 34 33.5 34C32.1193 34 31 32.8807 31 31.5V28.5Z" stroke="#A177FF" stroke-width="2"/>
</svg>
