<svg width="48" height="48" viewBox="0 0 48 48" fill="none" xmlns="http://www.w3.org/2000/svg">
<path d="M16.2261 32L24.9995 41L41.0698 24.5145C41.9988 23.562 42.7357 22.4311 43.2385 21.1864C43.7412 19.9417 44 18.6075 44 17.2602C44 15.9128 43.7412 14.5787 43.2385 13.334C42.7357 12.0893 41.9988 10.9583 41.0698 10.0058C40.1413 9.05291 39.0389 8.29697 37.8255 7.78121C36.6121 7.26546 35.3116 7 33.9982 7C32.6848 7 31.3842 7.26546 30.1708 7.78121C28.9574 8.29697 27.855 9.05291 26.9265 10.0058L24.9995 11.9826L23.0725 10.0058C21.197 8.08187 18.6532 7.001 16.0009 7.001C13.3485 7.001 10.8047 8.08187 8.92918 10.0058C7.05366 11.9298 6 14.5393 6 17.2602C6 19.3204 6.60409 21.3168 7.71165 23" stroke="#A177FF" stroke-width="2" stroke-linecap="round" stroke-linejoin="round"/>
<path d="M4 27H16L20 18L25 30L29 22H34" stroke="#E2D5FF" stroke-width="2" stroke-linecap="round" stroke-linejoin="round"/>
</svg>
