<svg width="28" height="28" viewBox="0 0 28 28" fill="none" xmlns="http://www.w3.org/2000/svg">
<path d="M14.5833 20.4167L13.0682 7M14.5833 20.4167H10.5M14.5833 20.4167L11.8523 24.0227M13.0682 7V7C12.7813 4.99172 11.0613 3.5 9.03265 3.5H8.3626C5.67926 3.5 3.50607 5.67925 3.51355 8.36258L3.53324 15.4306C3.54092 18.1866 5.77724 20.4167 8.53323 20.4167H10.5M13.0682 7H19.4675C22.2239 7 24.4603 9.23067 24.4675 11.987L24.487 19.487C24.4942 22.2535 22.2535 24.5 19.487 24.5H13.905C12.5522 24.5 11.3667 23.5945 11.0107 22.2894L10.5 20.4167" stroke="#966CEE"/>
<path d="M6.41666 15.1667L6.90278 12.6667M10.5 15.1667L10.0139 12.6667M10.0139 12.6667L9.26878 8.83479C9.19335 8.44683 8.85355 8.16675 8.45833 8.16675V8.16675C8.06311 8.16675 7.72331 8.44684 7.64788 8.83479L6.90278 12.6667M10.0139 12.6667H6.90278" stroke="#BEA6F4" stroke-linecap="round"/>
<path d="M16.3333 13.4167H17.3056M22.1667 13.4167H21.1944M19.25 13.4167L19.25 12.25M19.25 13.4167H21.1944M19.25 13.4167H17.3056M21.1944 13.4167C20.7893 14.6389 19.4444 17.5667 16.9167 18.6667M17.3056 13.4167C17.5486 14.4861 19.3958 17.5208 21.5833 18.6667" stroke="#BEA6F4" stroke-linecap="round"/>
</svg>
