<svg width="48" height="48" viewBox="0 0 48 48" fill="none" xmlns="http://www.w3.org/2000/svg">
<path d="M35.2859 20.1197C38.3181 26.1212 37.3274 33.6345 32.3137 38.6482C26.0653 44.8966 15.9347 44.8966 9.68629 38.6482C3.4379 32.3998 3.4379 22.2692 9.68629 16.0208C14.7 11.0071 22.2133 10.0164 28.2148 13.0486" stroke="#A177FF" stroke-width="2" stroke-linecap="round"/>
<path d="M30.6606 24.7449C31.5515 28.0811 30.6884 31.7882 28.0711 34.4055C24.1658 38.3108 17.8342 38.3108 13.9289 34.4055C10.0237 30.5003 10.0237 24.1686 13.9289 20.2634C16.5462 17.6461 20.2534 16.7829 23.5896 17.6739" stroke="#A177FF" stroke-width="2" stroke-linecap="round"/>
<path d="M35.142 13.1924L22.4141 25.9203M35.142 13.1924L39.3846 14.6066L44.3344 9.65685L40.0917 8.24264L38.6775 4L33.7278 8.94975L35.142 13.1924Z" stroke="#E2D5FF" stroke-width="2" stroke-linejoin="round"/>
<path d="M23.1213 29.4558C21.9497 30.6274 20.0503 30.6274 18.8787 29.4558C17.7071 28.2842 17.7071 26.3847 18.8787 25.2132C20.0503 24.0416 21.9497 24.0416 23.1213 25.2132C24.2929 26.3847 24.2929 28.2842 23.1213 29.4558Z" stroke="#E2D5FF" stroke-width="2"/>
</svg>
