<svg width="22" height="23" viewBox="0 0 22 23" fill="none" xmlns="http://www.w3.org/2000/svg">
<path d="M1 3.41667C1 2.08198 2.08198 1 3.41667 1H8.66667C10.0014 1 11.0833 2.08198 11.0833 3.41667V18.7812C11.0833 18.8956 11.0726 19.0097 11.0514 19.122L10.7582 20.6719L10.3153 19.9098C9.80814 19.037 8.87495 18.5 7.86553 18.5H3.41667C2.08198 18.5 1 17.418 1 16.0833V3.41667Z" stroke="#966CEE"/>
<path d="M10.9167 3.41667C10.9167 2.08198 11.9987 1 13.3333 1H18.5833C19.918 1 21 2.08198 21 3.41667V16.0833C21 17.418 19.918 18.5 18.5833 18.5H14.1345C13.1251 18.5 12.1919 19.037 11.6847 19.9098L11.2419 20.6719L10.9486 19.122C10.9274 19.0097 10.9167 18.8956 10.9167 18.7812V3.41667Z" stroke="#966CEE"/>
<path d="M4 4.58325L8.08333 4.58325" stroke="#BEA6F4" stroke-linecap="round"/>
<path d="M13.9167 7.5H18" stroke="#BEA6F4" stroke-linecap="round"/>
<path d="M13.9167 4.58325H18" stroke="#BEA6F4" stroke-linecap="round"/>
<path d="M4 7.5L8.08333 7.5" stroke="#BEA6F4" stroke-linecap="round"/>
<path d="M4 10.4167L8.08333 10.4167" stroke="#BEA6F4" stroke-linecap="round"/>
<path d="M13.9167 10.4167L18 10.4167" stroke="#BEA6F4" stroke-linecap="round"/>
<path d="M13.9167 13.3333H15.6667" stroke="#BEA6F4" stroke-linecap="round"/>
</svg>
