<svg width="48" height="48" viewBox="0 0 48 48" fill="none" xmlns="http://www.w3.org/2000/svg">
<path d="M6 33C6 31.3431 7.34315 30 9 30C10.6569 30 12 31.3431 12 33V41C12 42.6569 10.6569 44 9 44C7.34315 44 6 42.6569 6 41V33Z" stroke="#A177FF" stroke-width="2"/>
<path d="M26 32C26 30.3431 27.3431 29 29 29C30.6569 29 32 30.3431 32 32V41C32 42.6569 30.6569 44 29 44C27.3431 44 26 42.6569 26 41V32Z" stroke="#A177FF" stroke-width="2"/>
<path d="M16 27C16 25.3431 17.3431 24 19 24C20.6569 24 22 25.3431 22 27V41C22 42.6569 20.6569 44 19 44C17.3431 44 16 42.6569 16 41V27Z" stroke="#A177FF" stroke-width="2"/>
<path d="M36 23C36 21.3431 37.3431 20 39 20C40.6569 20 42 21.3431 42 23V41C42 42.6569 40.6569 44 39 44C37.3431 44 36 42.6569 36 41V23Z" stroke="#A177FF" stroke-width="2"/>
<path d="M6 23L19 15L29 21L42 6M42 6L36.5 7M42 6V11.5" stroke="#E2D5FF" stroke-width="2" stroke-linecap="round" stroke-linejoin="round"/>
</svg>
