<svg width="389" height="1024" viewBox="0 0 389 1024" fill="none" xmlns="http://www.w3.org/2000/svg">
<g clip-path="url(#clip0)">
<path d="M0 48C0 21.4903 21.4903 0 48 0H389V1024H48C21.4903 1024 0 1002.51 0 976V48Z" fill="#392B4B"/>
<path d="M507 524C507 699.074 369.104 841 199 841C28.8963 841 -109 699.074 -109 524C-109 348.926 28.8963 207 199 207C369.104 207 507 348.926 507 524Z" fill="white"/>
<path d="M140.4 918.201H151.2V920.169H142.656V925.377H150.48V927.345H142.656V933.033H151.2V935.001H140.4V918.201Z" fill="#B298EE"/>
<path d="M158.774 935.241C157.99 935.241 157.27 935.105 156.614 934.833C155.974 934.561 155.422 934.161 154.958 933.633C154.494 933.089 154.134 932.417 153.878 931.617C153.622 930.801 153.494 929.849 153.494 928.761V928.281C153.494 927.273 153.622 926.385 153.878 925.617C154.15 924.833 154.518 924.177 154.982 923.649C155.446 923.121 155.998 922.721 156.638 922.449C157.294 922.177 158.006 922.041 158.774 922.041C159.798 922.041 160.686 922.265 161.438 922.713C162.206 923.161 162.774 923.777 163.142 924.561V918.201H165.254V935.001H163.286V932.601C162.966 933.385 162.406 934.025 161.606 934.521C160.806 935.001 159.862 935.241 158.774 935.241ZM159.254 933.369C159.83 933.369 160.358 933.273 160.838 933.081C161.318 932.889 161.726 932.625 162.062 932.289C162.398 931.953 162.662 931.545 162.854 931.065C163.046 930.585 163.142 930.057 163.142 929.481V927.561C163.142 927.049 163.046 926.569 162.854 926.121C162.662 925.673 162.398 925.289 162.062 924.969C161.726 924.633 161.318 924.377 160.838 924.201C160.358 924.009 159.83 923.913 159.254 923.913C158.742 923.913 158.262 924.009 157.814 924.201C157.366 924.393 156.974 924.681 156.638 925.065C156.318 925.433 156.062 925.889 155.87 926.433C155.694 926.977 155.606 927.593 155.606 928.281V928.761C155.606 929.513 155.694 930.177 155.87 930.753C156.062 931.329 156.318 931.809 156.638 932.193C156.974 932.577 157.366 932.873 157.814 933.081C158.262 933.273 158.742 933.369 159.254 933.369Z" fill="#B298EE"/>
<path d="M167.9 922.281H170.204L172.652 932.121L175.964 922.281H177.836L181.268 932.121L183.692 922.281H185.9L182.42 935.001H180.308L176.852 925.161L173.492 935.001H171.38L167.9 922.281Z" fill="#B298EE"/>
<path d="M188.77 922.281H190.882V935.001H188.77V922.281ZM189.826 920.601C189.41 920.601 189.066 920.465 188.794 920.193C188.522 919.921 188.386 919.577 188.386 919.161C188.386 918.745 188.522 918.401 188.794 918.129C189.066 917.857 189.41 917.721 189.826 917.721C190.242 917.721 190.586 917.857 190.858 918.129C191.13 918.401 191.266 918.745 191.266 919.161C191.266 919.577 191.13 919.921 190.858 920.193C190.586 920.465 190.242 920.601 189.826 920.601Z" fill="#B298EE"/>
<path d="M199.872 935.241C199.056 935.241 198.296 935.113 197.592 934.857C196.888 934.585 196.28 934.185 195.768 933.657C195.256 933.113 194.848 932.433 194.544 931.617C194.256 930.801 194.112 929.849 194.112 928.761V928.281C194.112 927.257 194.272 926.353 194.592 925.569C194.912 924.785 195.336 924.137 195.864 923.625C196.392 923.097 197 922.705 197.688 922.449C198.392 922.177 199.12 922.041 199.872 922.041C200.624 922.041 201.296 922.145 201.888 922.353C202.496 922.561 203.016 922.849 203.448 923.217C203.896 923.585 204.256 924.017 204.528 924.513C204.816 925.009 205.024 925.545 205.152 926.121H202.992C202.864 925.817 202.712 925.537 202.536 925.281C202.376 925.009 202.168 924.777 201.912 924.585C201.672 924.393 201.384 924.241 201.048 924.129C200.712 924.017 200.32 923.961 199.872 923.961C199.408 923.961 198.96 924.049 198.528 924.225C198.096 924.385 197.712 924.641 197.376 924.993C197.04 925.329 196.768 925.769 196.56 926.313C196.368 926.857 196.272 927.513 196.272 928.281V928.761C196.272 929.577 196.368 930.281 196.56 930.873C196.768 931.449 197.04 931.921 197.376 932.289C197.712 932.641 198.096 932.905 198.528 933.081C198.96 933.241 199.408 933.321 199.872 933.321C200.656 933.321 201.312 933.129 201.84 932.745C202.384 932.361 202.768 931.833 202.992 931.161H205.152C204.848 932.425 204.224 933.425 203.28 934.161C202.336 934.881 201.2 935.241 199.872 935.241Z" fill="#B298EE"/>
<path d="M211.654 935.241C210.95 935.241 210.326 935.145 209.782 934.953C209.254 934.745 208.806 934.465 208.438 934.113C208.07 933.761 207.79 933.345 207.598 932.865C207.406 932.385 207.31 931.857 207.31 931.281C207.31 930.017 207.678 929.105 208.414 928.545C209.166 927.985 210.238 927.705 211.63 927.705H215.758V926.841C215.758 925.753 215.51 925.001 215.014 924.585C214.534 924.169 213.806 923.961 212.83 923.961C211.918 923.961 211.254 924.137 210.838 924.489C210.422 924.825 210.19 925.209 210.142 925.641H208.03C208.062 925.129 208.198 924.657 208.438 924.225C208.694 923.777 209.03 923.393 209.446 923.073C209.878 922.753 210.39 922.505 210.982 922.329C211.574 922.137 212.23 922.041 212.95 922.041C214.454 922.041 215.646 922.401 216.526 923.121C217.422 923.825 217.87 924.985 217.87 926.601V931.761C217.87 932.433 217.87 933.025 217.87 933.537C217.886 934.033 217.926 934.521 217.99 935.001H216.142C216.094 934.633 216.062 934.289 216.046 933.969C216.03 933.633 216.022 933.257 216.022 932.841C215.686 933.513 215.142 934.081 214.39 934.545C213.638 935.009 212.726 935.241 211.654 935.241ZM212.11 933.321C212.606 933.321 213.07 933.257 213.502 933.129C213.95 932.985 214.342 932.785 214.678 932.529C215.014 932.257 215.278 931.929 215.47 931.545C215.662 931.161 215.758 930.713 215.758 930.201V929.337H211.99C211.206 929.337 210.59 929.497 210.142 929.817C209.694 930.121 209.47 930.609 209.47 931.281C209.47 931.873 209.678 932.361 210.094 932.745C210.526 933.129 211.198 933.321 212.11 933.321Z" fill="#B298EE"/>
<path d="M223.28 935.241C222.816 935.241 222.416 935.081 222.08 934.761C221.76 934.425 221.6 934.025 221.6 933.561C221.6 933.081 221.76 932.681 222.08 932.361C222.416 932.041 222.816 931.881 223.28 931.881C223.744 931.881 224.136 932.041 224.456 932.361C224.792 932.681 224.96 933.081 224.96 933.561C224.96 934.025 224.792 934.425 224.456 934.761C224.136 935.081 223.744 935.241 223.28 935.241Z" fill="#B298EE"/>
<path d="M228.795 922.281H230.763V924.681C231.035 923.929 231.483 923.305 232.107 922.809C232.747 922.297 233.523 922.041 234.435 922.041C234.755 922.041 235.011 922.057 235.203 922.089C235.411 922.121 235.595 922.161 235.755 922.209V924.177C235.547 924.097 235.339 924.041 235.131 924.009C234.939 923.977 234.667 923.961 234.315 923.961C233.835 923.961 233.387 924.049 232.971 924.225C232.555 924.401 232.195 924.649 231.891 924.969C231.587 925.273 231.347 925.649 231.171 926.097C230.995 926.545 230.907 927.033 230.907 927.561V935.001H228.795V922.281Z" fill="#B298EE"/>
<path d="M242.635 935.241C241.099 935.241 239.947 934.801 239.179 933.921C238.411 933.041 238.027 931.681 238.027 929.841V922.281H240.139V929.721C240.139 930.905 240.379 931.801 240.859 932.409C241.355 933.017 242.155 933.321 243.259 933.321C243.851 933.321 244.363 933.217 244.795 933.009C245.243 932.801 245.603 932.529 245.875 932.193C246.163 931.857 246.371 931.473 246.499 931.041C246.643 930.609 246.715 930.169 246.715 929.721V922.281H248.827V935.001H246.859V932.601C246.715 932.953 246.515 933.289 246.259 933.609C246.019 933.929 245.715 934.209 245.347 934.449C244.995 934.689 244.587 934.881 244.123 935.025C243.675 935.169 243.179 935.241 242.635 935.241Z" fill="#B298EE"/>
<path d="M181.828 841.061C216.084 843.563 251.32 840.467 286.346 831.082C455.115 785.86 555.101 611.753 509.67 442.201C475.006 312.836 365.704 223.501 240.877 208.507C276.753 254.943 282.35 317.164 257.072 383.466C218.881 483.639 140.681 562.057 62.906 617.966C20.1259 648.719 -23.9856 673.712 -63.9702 692.503C-18.6005 765.185 31.3139 801.216 114.485 768.767C169.607 747.261 227.638 699.33 276.684 611.222L231.463 591.529L387.02 470.622L404.217 666.76L362.917 648.775C312.868 741.812 250.306 805.035 181.828 841.061Z" fill="#966CEE"/>
<path d="M73.362 234.37C-65.4768 297.06 -142.389 453.357 -101.498 605.963C-101.464 606.09 -101.43 606.217 -101.396 606.343C-67.3866 590.198 -29.1056 568.527 8.3585 541.596C78.3249 491.3 140.611 426.134 169.74 349.731C192.255 290.676 148.413 200.484 73.362 234.37Z" fill="#966CEE"/>
<path d="M141.021 118.177V123.581H119V91.8679H140.619V97.2726H125.164V104.911H138.519V109.913H125.164V118.177H141.021Z" fill="white"/>
<path d="M143.38 111.879C143.38 109.615 143.827 107.576 144.72 105.759C145.613 103.913 146.849 102.454 148.427 101.382C150.006 100.31 151.807 99.7739 153.832 99.7739C155.559 99.7739 157.108 100.206 158.477 101.069C159.877 101.903 160.964 102.975 161.738 104.285V90.9746H167.723V116.881C167.723 117.507 167.828 117.953 168.036 118.221C168.244 118.489 168.602 118.653 169.108 118.713V123.581C168.066 123.79 167.217 123.894 166.562 123.894C165.49 123.894 164.597 123.626 163.882 123.09C163.197 122.554 162.81 121.854 162.721 120.991L162.631 119.517C161.768 120.976 160.592 122.092 159.103 122.867C157.644 123.641 156.11 124.028 154.502 124.028C152.894 124.028 151.405 123.715 150.035 123.09C148.695 122.465 147.519 121.601 146.507 120.499C145.524 119.397 144.75 118.117 144.184 116.658C143.648 115.169 143.38 113.576 143.38 111.879ZM161.738 115.005V109.422C161.44 108.558 160.964 107.784 160.309 107.099C159.654 106.414 158.924 105.878 158.12 105.491C157.316 105.074 156.512 104.866 155.708 104.866C154.785 104.866 153.951 105.059 153.207 105.447C152.462 105.834 151.807 106.355 151.241 107.01C150.705 107.665 150.288 108.424 149.991 109.288C149.723 110.151 149.589 111.06 149.589 112.013C149.589 112.965 149.738 113.874 150.035 114.737C150.363 115.571 150.824 116.301 151.42 116.926C152.016 117.551 152.7 118.043 153.475 118.4C154.279 118.757 155.142 118.936 156.065 118.936C156.631 118.936 157.197 118.847 157.763 118.668C158.358 118.459 158.909 118.191 159.415 117.864C159.951 117.507 160.413 117.09 160.8 116.613C161.217 116.107 161.53 115.571 161.738 115.005Z" fill="white"/>
<path d="M202.544 100.176H208.217L198.435 123.581H193.432L189.502 113.531L185.66 123.581H180.613L170.876 100.176H176.504L183.472 117.864L186.196 110.226L182.132 100.221H187.09L189.502 107.367L191.958 100.221H196.916L192.852 110.226L195.621 117.864L202.544 100.176Z" fill="white"/>
<path d="M210.981 123.581V100.176H216.966V123.581H210.981ZM210.981 96.9153V90.9746H216.966V96.9153H210.981Z" fill="white"/>
<path d="M233.264 124.028C231.358 124.028 229.646 123.715 228.127 123.09C226.609 122.435 225.313 121.541 224.241 120.41C223.169 119.249 222.336 117.938 221.74 116.479C221.174 115.02 220.891 113.487 220.891 111.879C220.891 109.675 221.383 107.665 222.365 105.849C223.378 104.002 224.807 102.528 226.653 101.427C228.5 100.325 230.688 99.7739 233.219 99.7739C235.75 99.7739 237.924 100.325 239.741 101.427C241.557 102.528 242.912 103.973 243.805 105.759L237.954 107.546C237.448 106.682 236.778 106.027 235.944 105.581C235.11 105.104 234.187 104.866 233.175 104.866C232.043 104.866 231.001 105.164 230.048 105.759C229.125 106.325 228.395 107.144 227.859 108.216C227.323 109.258 227.055 110.479 227.055 111.879C227.055 113.248 227.323 114.469 227.859 115.541C228.425 116.583 229.17 117.417 230.093 118.043C231.016 118.638 232.043 118.936 233.175 118.936C233.889 118.936 234.559 118.817 235.185 118.579C235.84 118.34 236.42 118.013 236.927 117.596C237.433 117.179 237.805 116.703 238.043 116.167L243.895 117.953C243.359 119.115 242.57 120.157 241.527 121.08C240.515 122.003 239.309 122.733 237.909 123.269C236.54 123.775 234.991 124.028 233.264 124.028Z" fill="white"/>
<path d="M245.97 116.658C245.97 115.139 246.386 113.814 247.22 112.683C248.084 111.521 249.275 110.628 250.794 110.003C252.312 109.377 254.054 109.065 256.02 109.065C257.002 109.065 258 109.139 259.012 109.288C260.025 109.437 260.903 109.675 261.648 110.003V108.752C261.648 107.263 261.201 106.117 260.308 105.313C259.444 104.509 258.149 104.107 256.422 104.107C255.141 104.107 253.92 104.33 252.759 104.777C251.598 105.223 250.377 105.878 249.096 106.742L247.176 102.811C248.724 101.799 250.302 101.039 251.91 100.533C253.548 100.027 255.26 99.7739 257.047 99.7739C260.382 99.7739 262.973 100.608 264.819 102.275C266.695 103.943 267.633 106.325 267.633 109.422V116.881C267.633 117.507 267.737 117.953 267.946 118.221C268.184 118.489 268.556 118.653 269.062 118.713V123.581C268.526 123.671 268.035 123.745 267.588 123.805C267.171 123.864 266.814 123.894 266.516 123.894C265.325 123.894 264.417 123.626 263.792 123.09C263.196 122.554 262.824 121.899 262.675 121.125L262.541 119.919C261.528 121.229 260.263 122.241 258.744 122.956C257.226 123.671 255.677 124.028 254.099 124.028C252.55 124.028 251.151 123.715 249.9 123.09C248.679 122.435 247.712 121.556 246.997 120.455C246.312 119.323 245.97 118.057 245.97 116.658ZM260.531 117.864C260.858 117.507 261.126 117.149 261.335 116.792C261.543 116.435 261.648 116.107 261.648 115.809V113.442C260.933 113.144 260.159 112.921 259.325 112.772C258.491 112.593 257.702 112.504 256.958 112.504C255.409 112.504 254.129 112.846 253.116 113.531C252.134 114.186 251.642 115.065 251.642 116.167C251.642 116.762 251.806 117.328 252.134 117.864C252.461 118.4 252.938 118.832 253.563 119.159C254.188 119.487 254.933 119.651 255.796 119.651C256.69 119.651 257.568 119.487 258.432 119.159C259.295 118.802 259.995 118.37 260.531 117.864Z" fill="white"/>
</g>
<defs>
<clipPath id="clip0">
<path d="M0 48C0 21.4903 21.4903 0 48 0H389V1024H48C21.4903 1024 0 1002.51 0 976V48Z" fill="white"/>
</clipPath>
</defs>
</svg>
