<svg width="236" height="121" viewBox="0 0 236 121" fill="none" xmlns="http://www.w3.org/2000/svg">
<path d="M9.95546 74.0236C10.9351 73.4903 11.603 73.0193 12.0352 72.6554M12.0352 72.6554C13.1223 71.74 12.7182 71.5023 12.0352 72.6554ZM12.0352 72.6554C11.7147 73.1965 11.3328 74.0438 11.0147 75.271C9.41076 81.46 7.05361 87.3237 5.66483 93.6058C4.5662 98.5754 3.96405 102.349 3.22514 107.349C2.82163 110.079 1.31415 115.754 2.3666 118.694C3.67384 122.346 10.8746 115.123 11.3424 114.673C22.8357 103.595 32.5444 90.5455 43.524 78.8579M43.524 78.8579C44.6942 77.6122 45.8789 76.382 47.0817 75.1712C57.2362 64.95 67.8039 55.218 77.9216 44.9802M43.524 78.8579C45.2539 83.2898 46.8667 87.7689 48.3986 92.2594C50.0549 97.1146 51.3449 102.771 54.0733 107.161C55.2752 109.095 58.1168 102.202 58.3837 101.65C62.214 93.7198 65.1942 85.3861 69.0701 77.4654C69.5852 76.4126 70.108 75.3643 70.6372 74.3198M43.524 78.8579C40.5013 71.1143 37.1207 63.515 33.1882 56.2512C32.3923 54.7812 31.2803 52.4466 29.9126 50.3747M77.9216 44.9802C81.6091 41.2489 85.2369 37.4504 88.7632 33.5365C91.4939 30.5056 94.1243 27.4893 96.6993 24.4252M77.9216 44.9802C66.5444 50.4005 53.5648 52.981 41.1109 52.1686C37.7147 51.947 33.5784 51.5847 29.9126 50.3747M77.9216 44.9802C78.1811 44.8566 78.4398 44.7315 78.6976 44.6049C80.7219 43.611 82.0342 42.7288 83.5154 41.1364C83.9413 40.6786 84.1983 39.4433 84.7492 39.72C87.1252 40.9134 80.5467 53.7185 80.1449 54.4394C76.027 61.8269 70.7226 68.4872 65.9161 75.386C65.3073 76.2597 56.6327 86.3205 62.0702 81.4338C64.8398 78.9447 67.707 76.5893 70.6372 74.3198M96.6993 24.4252C99.267 21.3696 101.779 18.2664 104.281 15.0534C106.495 12.2094 112.022 6.26711 112.563 1.85086C112.707 0.66865 110.326 2.73975 109.613 3.67119C105.684 8.80649 102.192 14.2699 99.0588 19.9697C98.2494 21.4424 97.4658 22.9291 96.6993 24.4252ZM96.6993 24.4252C93.7632 30.1555 91.0762 36.0216 88.1363 41.7514C82.5044 52.7279 76.2146 63.3115 70.6372 74.3198M70.6372 74.3198C79.2556 67.6448 88.4188 61.7133 97.2465 55.3125M29.9126 50.3747C28.6778 48.5043 27.2347 46.8481 25.6277 46.2353C24.3433 45.7456 22.8292 46.1258 24.627 47.6038C26.1318 48.8409 27.9551 49.7286 29.9126 50.3747ZM97.2465 55.3125C100.475 52.9717 103.658 50.5681 106.753 48.0425M97.2465 55.3125C93.3514 62.6401 93.2494 73.5193 93.3672 80.6991C93.399 82.6344 93.6795 83.2217 94.0404 83.2922M97.2465 55.3125C98.5046 52.9455 100.159 50.9491 102.329 49.5677C103.907 48.5632 105.375 48.0995 106.753 48.0425M106.753 48.0425C109.616 45.7066 112.404 43.2664 115.082 40.6748C116.786 39.0254 118.588 37.2754 120.277 35.4033M106.753 48.0425C108.519 47.9694 110.137 48.5633 111.649 49.5418M120.277 35.4033C122.499 32.9407 124.526 30.2668 125.88 27.3329C126.207 26.6241 126.466 25.9696 125.863 26.8564C123.958 29.659 122.097 32.5328 120.277 35.4033ZM120.277 35.4033C120.024 35.8032 119.771 36.2029 119.519 36.6024C116.862 40.8161 114.227 45.1398 111.649 49.5418M111.649 49.5418C105.25 60.4706 99.2022 71.8822 94.0404 83.2922M111.649 49.5418C114.628 51.4694 117.196 54.8897 119.67 57.6451C120.935 59.0533 122.752 62.0723 124.859 62.2872C130.61 62.8739 138.524 57.7154 143.302 55.1789C149.844 51.706 156.358 47.8369 162.353 43.3524M94.0404 83.2922C93.5416 84.3947 93.051 85.4973 92.5693 86.5994C91.6493 88.7039 91.9488 89.3284 93.9598 89.4715C96.0205 89.6182 95.7415 86.355 95.8075 84.8965C95.9756 81.183 94.8203 83.4446 94.0404 83.2922ZM162.353 43.3524C173.905 34.7119 183.533 23.787 187.735 9.01038C187.983 8.1359 189.061 3.38563 189.207 1.93534C189.363 0.378054 188.419 2.05162 188.255 2.2829C181.704 11.5461 175.912 21.3438 170.036 31.0758C167.527 35.2314 164.995 39.3292 162.353 43.3524ZM162.353 43.3524C160.331 46.4315 158.246 49.4668 156.058 52.4508C154.606 54.4315 153.773 55.7032 155.395 57.0549M155.395 57.0549C155.613 57.2361 155.874 57.4188 156.185 57.6048C160.472 60.1764 151.645 67.9631 150.094 70.2297C148.004 73.2863 133.211 101.363 129.535 99.5804C123.898 96.8477 125.373 85.0479 126.583 80.3779C127.677 76.157 130.955 74.5638 134.422 72.6486C142.115 68.3998 148.887 63.0566 155.395 57.0549ZM155.395 57.0549C155.604 56.8627 155.812 56.6699 156.02 56.4764C164.944 48.1682 171.642 39.8551 183.932 38.2203C186.067 37.9364 188.127 38.3127 190.232 38.1105C193.165 37.8288 196.251 35.311 198.65 33.6985C201.685 31.6584 206.841 23.7056 208.144 31.0105C208.562 33.356 208.455 47.6736 210.822 48.1216C218.417 49.5593 228.362 41.5319 233.955 37.0171L234 36.9807" stroke="#392B4B" stroke-width="2.44211" stroke-linecap="round"/>
</svg>
