<svg width="671" height="417" viewBox="0 0 671 417" fill="none" xmlns="http://www.w3.org/2000/svg">
<path d="M609.459 415.988C618.156 410.26 627.066 404.533 633.854 396.684C640.642 388.835 644.885 378.229 642.975 368.047C641.066 357.864 631.733 348.743 621.338 349.591C613.702 350.228 607.55 353.834 602.246 360.834C607.762 345.561 611.156 330.287 607.55 314.378C603.944 298.468 591.64 283.831 575.73 281.073C558.548 278.315 541.365 289.77 532.455 304.62C523.334 319.469 511.242 355.743 518.031 415.776" fill="#F55D3E"/>
<path d="M222.957 415.988C221.048 381.411 205.35 348.53 182.652 331.984C159.954 315.438 130.892 315.438 108.194 331.984C85.4965 348.53 69.7988 381.411 67.8896 415.988" fill="#8FD8D7"/>
<path d="M550.699 415.988C561.73 400.078 571.488 386.29 575.518 367.41C579.761 348.53 578.064 327.954 567.457 311.62C557.063 295.286 536.911 284.467 517.395 287.437C500.212 290.194 486.211 302.922 477.726 317.771C469.241 332.621 465.635 349.591 462.029 366.137C455.24 351.288 438.482 341.53 421.724 342.379C404.966 343.227 389.692 354.682 383.54 369.743C377.389 385.017 380.783 403.26 391.389 415.776" fill="#F9E022"/>
<path d="M122.619 261.345L95.8909 285.528L53.0405 269.618L57.7074 180.523L91.0119 196.645L108.407 205.13L111.376 229.525L113.073 243.95L122.619 261.345Z" fill="#FFB78F"/>
<path d="M91.0122 196.645L108.619 205.13L111.377 229.525C98.2247 225.919 86.3454 217.009 79.9814 204.918C83.7998 201.948 87.1939 199.19 91.0122 196.645Z" fill="black"/>
<path d="M54.3135 251.163C54.3135 251.163 101.194 274.709 112.861 243.95L137.256 245.011V343.864H61.9502" fill="#F9E022"/>
<path d="M65.1323 306.741L80.1935 316.287L130.681 271.527L152.106 328.59L84.224 366.137L42.2222 340.257L65.1323 306.741Z" fill="#E8C80F"/>
<path d="M610.944 77.4276C601.186 89.0948 585.912 95.6708 570.851 95.0344C557.063 94.398 543.911 88.0341 529.91 87.6099C507.212 86.7614 485.363 103.944 479.635 126.218C474.12 148.279 484.514 173.311 503.606 185.614C522.698 197.918 549.002 197.918 568.518 186.251L582.731 201.948C582.094 219.343 592.701 236.525 608.61 243.526C624.52 250.526 644.46 246.92 656.976 234.828C669.492 222.737 673.522 202.797 666.734 186.675C662.704 177.129 655.279 169.28 649.976 160.371C641.915 147.006 638.097 129.612 645.521 115.823" fill="black"/>
<path d="M552.82 161.855L551.123 186.25L609.671 201.312L608.398 181.584L616.883 138.945L585.7 100.338L552.82 161.855Z" fill="#F9C88F"/>
<path d="M593.973 131.309C594.61 144.885 601.186 157.825 611.368 166.735L616.671 140.218L607.337 128.551C602.883 129.4 598.428 130.46 593.973 131.309Z" fill="black"/>
<path d="M585.488 80.6094L585.7 83.3671L591.427 134.278C591.427 134.278 608.822 164.825 638.733 149.552C655.279 141.067 667.37 110.52 666.946 84.0035C666.946 83.3671 666.946 82.9428 666.946 82.3064C666.946 82.0943 666.946 81.67 666.946 81.4579V81.0336C666.946 80.8215 666.946 80.6094 666.946 80.1851C666.946 79.1245 666.734 78.2759 666.734 77.2153C666.734 76.5789 666.522 75.9425 666.522 75.094C666.31 74.2454 666.31 73.3969 666.097 72.5484C664.612 63.4268 661.218 55.578 655.703 49.8505C654.43 48.5777 653.157 47.3049 651.673 46.4564C651.036 46.0321 650.188 45.6078 649.551 45.1836C648.915 44.7593 648.278 44.5472 647.642 44.3351C645.945 43.4865 644.248 42.8501 642.551 42.4259C642.339 42.4259 642.127 42.4259 642.127 42.2138C626.429 38.3954 614.762 42.2138 606.277 48.5777C596.519 56.0022 590.791 66.6088 588.033 73.6091C587.609 74.6697 587.185 75.5182 586.973 76.3668L586.761 76.791L586.548 77.4274C586.336 78.0638 586.124 78.7002 585.912 79.1245C585.7 79.7608 585.488 80.3972 585.488 80.6094Z" fill="#F9C88F"/>
<path d="M635.127 120.702C634.703 120.702 634.278 120.702 633.854 120.49L634.49 117.944C635.339 118.157 635.975 117.944 636.824 117.52C637.46 117.096 637.884 116.46 638.097 115.611L641.279 96.7314L643.824 97.1557L640.642 116.035C640.43 117.52 639.582 118.793 638.309 119.642C637.248 120.49 636.187 120.702 635.127 120.702Z" fill="black"/>
<path d="M628.127 95.2465C627.702 96.7314 626.642 97.5799 625.581 97.3678C624.521 97.1556 624.096 95.6707 624.308 94.3979C624.733 92.913 625.793 92.0645 626.854 92.2766C627.915 92.4888 628.551 93.7616 628.127 95.2465Z" fill="black"/>
<path d="M655.916 102.247C655.492 103.732 654.431 104.58 653.37 104.368C652.31 104.156 651.885 102.671 652.097 101.398C652.522 99.9134 653.582 99.0649 654.643 99.277C655.704 99.4891 656.34 100.762 655.916 102.247Z" fill="black"/>
<path d="M626.642 125.793C624.945 125.157 623.248 123.884 622.611 122.187C621.763 120.49 621.975 118.369 622.611 116.672L624.945 117.732C624.521 118.793 624.521 120.066 624.945 120.914C625.369 121.975 626.218 122.824 627.278 123.036L626.642 125.793Z" fill="black"/>
<path d="M624.945 81.6702C624.096 81.6702 623.248 81.6702 622.611 81.8823C621.975 82.0944 621.338 82.5187 621.338 83.1551C621.338 84.0036 622.611 84.8521 623.884 85.2764C626.642 86.1249 629.611 86.7613 632.581 86.5492C633.642 86.5492 634.703 86.337 635.339 85.7006C636.4 84.2157 633.642 83.1551 632.369 82.7308C630.036 81.8823 627.278 81.6702 624.945 81.6702Z" fill="black"/>
<path d="M654.219 88.2461C653.582 88.034 652.734 88.034 652.097 88.2461C651.461 88.4583 650.825 88.6704 650.825 89.3068C650.613 90.1553 651.673 91.0038 652.734 91.6402C655.067 92.913 657.613 93.7615 660.158 93.9737C661.007 93.9737 662.068 94.1858 662.492 93.5494C663.552 92.4887 661.431 90.7917 660.371 90.3674C658.673 89.3068 656.34 88.6704 654.219 88.2461Z" fill="black"/>
<path d="M608.61 181.584C608.61 181.584 581.458 206.615 552.82 161.855L512.515 135.551V286.164H607.125" fill="#C4EFE4"/>
<path d="M585.488 240.768L579.761 249.678L532.668 219.979L530.759 290.407L599.489 298.468L585.488 240.768Z" fill="#8FD8D7"/>
<path d="M654.218 115.823C648.067 115.823 643.188 110.944 643.188 104.792C643.188 98.6406 648.067 93.7616 654.218 93.7616C660.37 93.7616 665.249 98.6406 665.249 104.792C665.037 110.732 660.158 115.823 654.218 115.823ZM654.218 96.3072C649.551 96.3072 645.945 100.126 645.945 104.58C645.945 109.035 649.764 112.853 654.218 112.853C658.885 112.853 662.491 109.035 662.491 104.58C662.491 100.126 658.673 96.3072 654.218 96.3072Z" fill="white"/>
<path d="M626.005 108.823C619.854 108.823 614.975 103.944 614.975 97.7921C614.975 91.6404 619.854 86.7614 626.005 86.7614C632.157 86.7614 637.036 91.6404 637.036 97.7921C637.036 103.944 632.157 108.823 626.005 108.823ZM626.005 89.5191C621.338 89.5191 617.732 93.3374 617.732 97.7921C617.732 102.247 621.551 106.065 626.005 106.065C630.46 106.065 634.278 102.247 634.278 97.7921C634.278 93.3374 630.672 89.5191 626.005 89.5191Z" fill="white"/>
<path d="M635.758 99.4921L635.126 101.958L644.373 104.327L645.005 101.861L635.758 99.4921Z" fill="white"/>
<path d="M594.473 72.3916L592.72 74.2379L615.645 95.9965L617.397 94.1502L594.473 72.3916Z" fill="white"/>
<path d="M587.822 73.8213C592.913 75.5183 598.216 76.579 603.519 76.579C616.247 76.7911 628.763 72.7606 638.945 65.1239C641.915 62.7905 644.673 60.2449 647.218 57.2751C648.067 60.2449 649.34 63.0026 650.825 65.5482C654.643 72.3364 660.158 78.0639 666.946 82.0944C666.946 81.8822 666.946 81.458 666.946 81.2458V80.8216C666.946 80.6095 666.946 80.3973 666.946 79.9731C666.946 78.9124 666.734 78.0639 666.734 77.0032C666.734 76.3669 666.522 75.7305 666.522 74.8819C666.31 74.0334 666.31 73.1849 666.098 72.3364C664.613 63.2148 661.219 55.3659 655.704 49.6384C654.431 48.3656 653.158 47.0928 651.673 46.2443C651.037 45.8201 650.188 45.3958 649.552 44.9715C648.915 44.5473 648.279 44.3351 647.643 44.123C645.946 43.2745 644.249 42.6381 642.551 42.2138C642.339 42.2138 642.127 42.2138 642.127 42.0017C626.43 38.1834 614.762 42.0017 606.277 48.3656C596.307 56.0023 590.792 66.821 587.822 73.8213Z" fill="black"/>
<path d="M596.943 79.3367C595.882 76.1548 592.913 73.8214 589.518 73.185C586.124 72.5486 582.73 73.6092 579.76 75.3063C573.184 79.5489 570.427 88.4584 573.184 95.6708C575.942 102.883 584.215 107.55 591.852 106.277" fill="#F9C88F"/>
<path d="M584.64 94.6101L582.094 94.1859C582.731 90.3675 584.852 86.9734 587.61 84.4279L582.943 83.3672L583.579 80.8217L591.004 82.5187L591.428 84.8521C587.822 86.9734 585.276 90.7918 584.64 94.6101Z" fill="black"/>
<path d="M271.747 415.988H418.966L394.571 383.956C390.116 378.016 382.904 374.41 375.479 374.41H343.235C338.356 374.41 335.174 369.531 336.871 365.076L357.872 310.771L292.112 267.072L250.322 374.198L247.776 380.562C241.2 397.745 253.716 415.988 271.747 415.988Z" fill="#EA4126"/>
<path d="M271.747 415.988H327.113L302.718 383.956C298.263 378.016 291.051 374.41 283.626 374.41H250.322L247.776 380.774C241.2 397.744 253.716 415.988 271.747 415.988Z" fill="#C4EFE4"/>
<path d="M155.712 329.014H438.482C457.361 329.014 472.847 313.529 472.847 294.649V71.0636C472.847 52.184 457.361 36.6985 438.482 36.6985H155.712C136.62 36.6985 121.347 51.9719 121.347 71.0636V294.861C121.347 313.741 136.62 329.014 155.712 329.014Z" fill="#E34B2C"/>
<path d="M191.986 71.0636V294.861C191.986 313.741 207.472 329.226 226.351 329.226H509.121C528.001 329.226 543.487 313.741 543.487 294.861V71.0636C543.487 52.184 528.001 36.6985 509.121 36.6985H226.351C207.472 36.6985 191.986 51.9719 191.986 71.0636Z" fill="#8FD8D7"/>
<path d="M191.986 266.436V294.649C191.986 313.529 207.472 329.014 226.351 329.014H509.121C528.001 329.014 543.487 313.529 543.487 294.649V266.436H191.986Z" fill="#F86041"/>
<path d="M220.744 242.049L514.969 242.049V63.6474L220.744 63.6474V242.049Z" fill="#8176C5"/>
<path d="M355.114 299.74C355.114 306.74 360.842 312.468 367.842 312.468C374.842 312.468 380.57 306.74 380.57 299.74C380.57 292.74 374.842 287.012 367.842 287.012C360.842 287.224 355.114 292.74 355.114 299.74Z" fill="white"/>
<path d="M326.901 144.036L392.449 164.401L347.265 209.585L326.901 144.036Z" fill="#F9E022"/>
<path d="M368.727 172.332L355.228 185.832L386.127 216.732L399.627 203.232L368.727 172.332Z" fill="#F9E022"/>
<path d="M355.751 285.527L354.478 283.194C375.055 271.739 393.51 256.678 409.42 238.647C425.33 220.616 438.057 200.463 446.967 178.614C450.997 169.068 453.967 159.522 456.301 150.188C452.694 148.279 449.3 145.946 445.906 143.612C433.815 134.915 423.208 123.46 415.36 110.52C407.299 97.5799 401.995 82.9429 399.662 68.3059C398.813 62.7905 397.965 55.3659 400.086 48.5777C402.207 41.3653 407.511 35.8499 413.662 33.9407C422.784 31.183 433.178 36.6984 441.876 48.1535C454.816 65.7603 462.24 88.6704 462.877 112.853C463.089 124.52 462.028 136.612 459.271 148.915C468.18 153.794 477.726 157.401 487.696 159.734C502.121 163.128 517.394 163.552 531.607 161.219L532.031 163.765C517.394 166.31 501.909 165.674 487.06 162.28C477.089 159.946 467.544 156.34 458.634 151.673C456.513 161.007 453.331 170.341 449.512 179.887C440.391 201.948 427.663 222.313 411.541 240.556C395.207 258.799 376.54 273.86 355.751 285.527ZM418.329 36.062C417.057 36.062 415.572 36.2742 414.299 36.6984C408.996 38.1833 404.541 43.0623 402.632 49.4263C400.722 55.7902 401.359 62.7905 402.207 68.0937C404.329 82.5186 409.632 96.7314 417.481 109.459C425.33 122.187 435.512 133.43 447.391 141.703C450.361 143.824 453.543 145.946 456.725 147.643C459.271 135.763 460.543 124.096 460.119 112.853C459.483 89.3068 452.27 66.821 439.542 49.8505C436.997 46.2443 428.512 36.062 418.329 36.062Z" fill="#F9E022"/>
<path d="M185.622 188.584C178.834 188.584 172.045 188.16 165.257 187.311L165.682 184.765C186.683 187.523 208.744 185.826 229.533 179.886C250.322 173.947 270.05 163.765 286.384 150.4C302.718 137.036 316.718 119.854 326.689 100.55C336.659 81.2458 342.811 60.0327 344.295 38.8197L346.841 39.0318C345.356 60.457 339.204 82.0943 329.022 101.822C318.84 121.338 304.627 138.945 288.081 152.522C271.323 166.098 251.382 176.492 230.169 182.432C215.744 186.463 200.471 188.584 185.622 188.584Z" fill="#F9E022"/>
<path d="M303.142 277.891C294.021 196.433 239.715 121.763 165.045 87.6098L166.106 85.2764C241.625 119.642 296.354 195.16 305.688 277.679L303.142 277.891Z" fill="#F9E022"/>
<path d="M521.637 229.737L494.272 266.86C494.272 266.86 458.634 231.01 459.907 224.858C460.755 221.04 463.725 221.676 463.725 221.676C463.725 221.676 459.695 218.494 460.331 215.524C460.967 212.555 464.149 212.343 464.149 212.343C464.149 212.343 460.967 209.161 464.362 206.403C467.968 203.645 481.756 208.948 494.908 215.312C487.908 209.373 486.423 203.433 490.029 200.251C492.999 197.706 502.969 207.251 510.394 216.585C515.061 223.373 521.637 229.737 521.637 229.737Z" fill="#F9C88F"/>
<path d="M482.605 222.313C472.847 216.161 463.725 213.827 463.513 213.827L464.15 211.282C464.574 211.282 473.908 213.615 483.878 220.191L482.605 222.313Z" fill="black"/>
<path d="M478.15 231.01C471.362 226.555 463.301 222.949 463.089 222.949L464.15 220.616C464.574 220.828 472.635 224.434 479.423 228.889L478.15 231.01Z" fill="black"/>
<path d="M585.488 241.404L583.155 258.799L520.788 221.04L484.726 268.133C484.726 268.133 575.094 366.137 628.338 334.53C667.795 311.195 646.794 218.282 640.006 205.342C633.43 192.614 608.61 181.584 608.61 181.584" fill="#C4EFE4"/>
<path d="M533.415 229.251L499.65 283.441L501.991 284.9L535.755 230.709L533.415 229.251Z" fill="black"/>
<path d="M138.105 279.8L170.773 312.468C170.773 312.468 200.683 271.739 198.35 265.8C197.077 262.193 194.107 263.254 194.107 263.254C194.107 263.254 197.714 259.436 196.653 256.678C195.592 253.708 192.41 254.132 192.41 254.132C192.41 254.132 194.956 250.526 191.35 248.405C187.531 246.071 174.591 253.708 162.5 261.981C168.44 254.981 169.076 249.041 165.046 246.496C161.651 244.374 153.166 255.405 147.439 265.8C143.62 272.588 138.105 279.8 138.105 279.8Z" fill="#FFB78F"/>
<path d="M175.44 266.648L173.743 264.739C182.864 256.89 191.562 253.072 191.986 253.072L193.047 255.617C192.834 255.405 184.137 259.011 175.44 266.648Z" fill="black"/>
<path d="M181.38 274.709L179.683 272.8C185.834 267.285 193.259 262.406 193.683 262.193L195.168 264.527C194.744 264.315 187.319 269.194 181.38 274.709Z" fill="black"/>
<path d="M65.1322 306.741L80.1935 326.045L138.529 273.224L184.986 310.347C184.986 310.347 117.953 436.565 44.3434 412.806C-19.2957 392.229 0.644538 286.8 12.9481 270.891C21.8576 259.224 54.1014 250.95 54.1014 250.95" fill="#F9E022"/>
<path d="M125.172 285.54L123.451 287.416L171.903 331.876L173.625 330.001L125.172 285.54Z" fill="white"/>
<path d="M48.5861 159.098V159.31C48.5861 160.159 48.7982 160.795 48.7982 161.219C48.7982 161.643 48.7982 161.856 49.0103 162.28V162.492C49.0103 162.704 49.0103 162.916 49.0103 162.916L50.4953 165.25L51.768 167.159L52.8287 168.856L77.4358 208.524C77.4358 208.524 106.286 228.677 126.65 201.948C138.529 186.675 135.56 152.098 122.62 128.127C121.559 126.005 120.286 124.096 119.013 122.187C118.801 121.763 118.589 121.551 118.377 121.126C118.377 121.126 118.377 121.126 118.165 120.914C116.468 118.581 114.771 116.247 112.862 114.338C112.649 114.126 112.649 114.126 112.437 113.914C111.377 112.853 110.316 111.793 109.255 110.944C102.043 104.792 93.5577 101.823 84.0119 103.732C70.8598 106.277 62.3746 112.429 57.0713 119.854C55.7985 121.551 54.7379 123.248 53.8893 124.945C47.3133 137.885 47.9497 152.522 48.5861 159.098Z" fill="#FFB78F"/>
<path d="M48.5861 159.098L49.2225 159.734C54.3136 157.825 58.7683 154.007 61.526 149.34C64.2837 144.673 65.3444 138.733 64.2837 133.43H64.4959C63.4352 128.127 60.8896 123.46 57.0713 120.066C55.7985 121.763 54.7379 123.46 53.8893 125.157C47.3133 137.885 47.9497 152.522 48.5861 159.098Z" fill="black"/>
<path d="M109.68 178.19L109.255 175.644C110.104 175.432 110.74 175.008 111.165 174.371C111.589 173.735 111.801 172.886 111.589 172.038L106.286 153.37L108.831 152.734L113.922 171.189C114.347 172.674 114.134 174.159 113.286 175.644C112.65 176.917 111.165 177.765 109.68 178.19Z" fill="black"/>
<path d="M93.7699 157.613C93.982 159.098 93.3456 160.371 92.4971 160.583C91.4365 160.795 90.3758 159.734 90.1637 158.461C89.9515 156.977 90.5879 155.704 91.4365 155.492C92.4971 155.279 93.5578 156.128 93.7699 157.613Z" fill="black"/>
<path d="M121.983 152.097C122.195 153.582 121.559 154.855 120.71 155.067C119.65 155.279 118.589 154.219 118.377 152.946C118.165 151.461 118.801 150.188 119.65 149.976C120.71 149.764 121.771 150.825 121.983 152.097Z" fill="black"/>
<path d="M84.8605 145.946C84.2241 146.37 83.3756 146.794 82.9513 147.43C82.5271 148.067 82.3149 148.915 82.5271 149.764C82.9513 151.037 84.6484 151.249 86.1333 151.249C89.1031 151.249 92.0729 150.188 94.6185 148.703C95.467 148.067 96.3156 147.43 96.5277 146.37C96.7398 144.036 93.3457 143.824 92.0729 143.824C89.5274 144.036 86.9818 144.885 84.8605 145.946Z" fill="black"/>
<path d="M114.347 139.582C113.71 139.794 112.862 140.218 112.437 140.642C112.013 141.067 111.589 141.915 111.801 142.552C112.013 143.612 113.498 144.249 114.559 144.461C117.104 144.885 119.862 144.461 122.195 143.4C123.044 142.976 123.892 142.552 124.105 141.703C124.529 139.582 121.771 138.945 120.711 138.945C118.801 138.521 116.468 138.945 114.347 139.582Z" fill="black"/>
<path d="M59.8288 159.098C57.4954 156.552 53.6771 155.704 50.4951 156.764C47.3131 157.613 44.5555 159.946 42.6463 162.916C38.6158 169.492 39.8886 178.826 45.404 184.129C51.1315 189.433 60.4652 190.069 66.8292 185.614" fill="#FFB78F"/>
<path d="M53.4648 179.25C51.3435 176.068 50.2828 172.25 50.7071 168.431L46.6766 170.765L45.4038 168.431L51.7677 164.613L53.6769 166.098C52.6162 170.129 53.4648 174.371 55.5861 177.765L53.4648 179.25Z" fill="black"/>
<path d="M106.498 180.523C106.498 183.493 104.164 186.25 100.982 186.25C98.0126 186.25 95.2549 183.917 95.2549 180.735" fill="white"/>
<path d="M126.014 114.338C129.832 117.096 131.105 122.823 129.196 127.278C127.498 131.733 123.044 134.703 118.377 135.763C113.71 136.824 108.831 135.763 104.376 133.854C99.9215 131.945 96.1032 128.975 92.497 126.005C92.9212 130.46 90.1635 134.915 85.7088 135.975C81.4662 137.036 76.5872 134.49 74.8901 130.248" fill="black"/>
<path d="M49.4346 138.521L115.619 117.52C114.771 116.459 113.922 115.399 113.074 114.55C112.862 114.338 112.862 114.338 112.649 114.126C111.589 113.065 110.528 112.005 109.468 111.156C102.255 105.004 93.7698 102.035 84.224 103.944C68.1021 107.126 58.9804 115.611 54.1014 125.157C51.768 129.399 50.2831 134.066 49.4346 138.521Z" fill="#C4EFE4"/>
<path d="M152.105 104.488L49.0469 137.388L49.821 139.812L152.879 106.913L152.105 104.488Z" fill="#C4EFE4"/>
<path d="M284.475 416.2H281.93C281.718 414.927 281.505 413.654 281.505 412.382C279.596 398.593 278.111 386.714 272.172 374.41C264.959 359.349 252.868 348.742 239.716 345.985C223.806 342.803 205.775 350.864 194.744 366.137C185.835 378.441 180.956 394.775 179.683 416.2L177.137 415.988C178.41 394.138 183.501 377.38 192.623 364.652C204.29 348.53 223.382 340.045 240.352 343.439C254.353 346.409 267.081 357.44 274.717 373.35C280.02 384.592 281.93 395.199 283.627 407.078C285.748 395.623 288.294 385.653 293.809 375.683C303.355 358.288 317.992 351.712 328.598 351.5V354.046C318.628 354.47 305.052 360.622 295.93 376.956C289.142 389.047 286.809 401.351 284.475 416.2Z" fill="white"/>
<path d="M20.7972 237.374C16.5546 237.374 12.0999 235.465 9.34217 232.071C5.52382 227.404 5.09956 220.403 8.28151 215.312C11.4635 210.221 18.2516 207.676 23.9792 209.373C29.9188 211.07 34.1614 216.585 34.3736 222.949C34.5857 229.101 31.1916 234.192 25.4641 236.313C23.9792 237.162 22.2821 237.374 20.7972 237.374ZM20.373 211.706C16.5546 211.706 12.7362 213.615 10.6149 216.797C8.06938 220.828 8.28151 226.767 11.4635 230.374C14.6454 234.192 20.1608 235.677 24.8277 233.98C30.3431 231.859 32.0401 226.98 32.0401 223.161C31.828 217.858 28.4339 213.403 23.5549 211.918C22.2821 211.706 21.4336 211.706 20.373 211.706Z" fill="white"/>
<path d="M570.215 48.3657C565.972 48.3657 561.517 46.4566 558.76 43.0625C554.941 38.3956 554.517 31.3953 557.699 26.3042C560.881 21.213 567.669 18.6675 573.397 20.3645C579.336 22.0616 583.579 27.577 583.791 33.9409C584.003 40.0927 580.609 45.1838 574.882 47.3051C573.609 48.1536 571.912 48.3657 570.215 48.3657ZM570.003 22.698C566.184 22.698 562.366 24.6071 560.245 27.7891C557.699 31.8196 557.911 37.7592 561.093 41.3654C564.275 45.1838 569.79 46.6687 574.457 44.9717C579.973 42.8504 581.67 37.9713 581.67 34.153C581.458 28.8497 578.063 24.395 573.184 22.9101C571.912 22.698 570.851 22.698 570.003 22.698Z" fill="white"/>
<path d="M526.941 416.2C522.486 381.835 504.243 350.864 479.423 335.166C454.816 319.681 424.057 319.681 399.45 335.378C374.631 351.076 356.6 382.047 352.145 416.2L349.6 415.776C354.054 380.774 372.722 349.167 397.965 333.045C423.421 316.923 455.241 316.711 480.908 332.833C506.364 348.955 525.032 380.562 529.486 415.776L526.941 416.2Z" fill="white"/>
<path d="M593.974 379.289H420.451C410.269 379.289 401.996 387.562 401.996 397.745C401.996 407.927 410.269 416.2 420.451 416.2H593.974V379.289Z" fill="#8FD8D7"/>
<path d="M593.974 408.139V387.138H420.451C414.723 387.138 410.057 391.805 410.057 397.533C410.057 403.26 414.723 407.927 420.451 407.927H593.974V408.139Z" fill="white"/>
<path d="M568.094 393.926V412.806L576.155 401.987L584.216 412.806V393.926H568.094Z" fill="#F55D3E"/>
<path d="M160.591 0H334.114C344.296 0 352.569 8.27309 352.569 18.4554C352.569 28.6376 344.296 36.9107 334.114 36.9107H160.591V0Z" fill="#F9E022"/>
<path d="M160.591 28.8497V7.84875H334.114C339.841 7.84875 344.508 12.5156 344.508 18.2431C344.508 23.9707 339.841 28.6375 334.114 28.6375H160.591V28.8497Z" fill="white"/>
<path d="M186.471 14.6371V33.5167L178.41 22.698L170.137 33.5167V14.6371H186.471Z" fill="#F55D3E"/>
<path d="M397.965 379.289H571.488C581.67 379.289 589.943 371.016 589.943 360.834C589.943 350.652 581.67 342.379 571.488 342.379H397.965V379.289Z" fill="#C4EFE4"/>
<path d="M397.965 350.439V371.44H571.488C577.215 371.44 581.882 366.774 581.882 361.046C581.882 355.318 577.215 350.652 571.488 350.652H397.965V350.439Z" fill="white"/>
</svg>
