<svg width="1920" height="612" viewBox="0 0 1920 612" fill="none" xmlns="http://www.w3.org/2000/svg">
<g opacity="0.4">
<path opacity="0.0144928" d="M2121.23 970.064L2200.2 654.177C2201.73 648.041 2200.78 641.546 2197.56 636.107L1959.66 235.292C1957.12 231.014 1953.31 227.631 1948.77 225.61L1575.74 59.8025C1567.5 56.139 1557.9 57.4059 1550.89 63.0822L1330.22 241.776C1323.21 247.452 1319.98 256.579 1321.85 265.403L1406.47 664.75C1407.51 669.617 1410.02 674.042 1413.68 677.415L1756.28 993.449C1760.92 997.738 1767.08 1000.02 1773.4 999.793L2098.8 988.228C2109.49 987.848 2118.64 980.441 2121.23 970.064Z" stroke="url(#paint0_linear_1_4537)" stroke-width="2"/>
<path opacity="0.0289855" d="M2077 995.585L2172.2 686.649C2174.07 680.595 2173.47 674.049 2170.52 668.438L1956.12 259.411C1953.8 254.992 1950.16 251.405 1945.71 249.148L1584.76 66.1267C1576.73 62.0529 1567.09 62.8211 1559.8 68.1158L1331.45 234.023C1324.16 239.317 1320.45 248.247 1321.84 257.147L1384.37 656.989C1385.14 661.919 1387.43 666.485 1390.91 670.054L1713.67 1000.37C1718.09 1004.9 1724.13 1007.49 1730.47 1007.59L2053.7 1012.51C2064.37 1012.68 2073.86 1005.78 2077 995.585Z" stroke="url(#paint1_linear_1_4537)" stroke-width="2"/>
<path opacity="0.0434783" d="M2032.28 1019.61L2143.2 718.445C2145.4 712.492 2145.14 705.913 2142.5 700.146L1951.78 284.258C1949.69 279.709 1946.24 275.926 1941.89 273.438L1593.79 74.0054C1585.98 69.5334 1576.33 69.8022 1568.79 74.7018L1333.48 227.511C1325.94 232.41 1321.77 241.118 1322.68 250.068L1363.28 649.195C1363.79 654.174 1365.84 658.87 1369.14 662.626L1671.5 1006.01C1675.7 1010.77 1681.6 1013.68 1687.93 1014.1L2008.17 1035.26C2018.79 1035.96 2028.6 1029.59 2032.28 1019.61Z" stroke="url(#paint2_linear_1_4537)" stroke-width="2"/>
<path opacity="0.057971" d="M1987.14 1042.11L2113.23 749.52C2115.75 743.685 2115.85 737.091 2113.51 731.183L1946.6 309.784C1944.75 305.117 1941.49 301.146 1937.26 298.432L1602.73 83.4249C1595.17 78.5675 1585.53 78.3379 1577.75 82.83L1336.23 222.271C1328.45 226.763 1323.83 235.224 1324.26 244.198L1343.19 641.42C1343.43 646.435 1345.24 651.248 1348.35 655.183L1629.84 1010.43C1633.79 1015.41 1639.55 1018.62 1645.86 1019.36L1962.3 1056.45C1972.84 1057.69 1982.94 1051.86 1987.14 1042.11Z" stroke="url(#paint3_linear_1_4537)" stroke-width="2"/>
<path opacity="0.0724638" d="M1941.67 1063.1L2082.34 779.828C2085.17 774.128 2085.62 767.538 2083.6 761.506L1940.56 335.938C1938.95 331.165 1935.89 327.017 1931.8 324.082L1611.49 94.3664C1604.2 89.1377 1594.6 88.412 1586.61 92.4851L1339.63 218.329C1331.63 222.402 1326.58 230.594 1326.52 239.565L1324.1 633.718C1324.07 638.754 1325.62 643.672 1328.54 647.776L1588.76 1013.64C1592.45 1018.83 1598.04 1022.33 1604.32 1023.39L1916.17 1076.09C1926.61 1077.85 1936.96 1072.57 1941.67 1063.1Z" stroke="url(#paint4_linear_1_4537)" stroke-width="2"/>
<path opacity="0.0869565" d="M1895.96 1082.56L2050.59 809.328C2053.72 803.782 2054.53 797.214 2052.82 791.074L1933.62 362.67C1932.27 357.803 1929.41 353.487 1925.46 350.337L1620.01 106.808C1613.01 101.222 1603.47 100.004 1595.29 103.648L1343.6 215.708C1335.41 219.352 1329.94 227.251 1329.4 236.195L1305.99 626.141C1305.69 631.184 1306.99 636.194 1309.7 640.457L1548.31 1015.7C1551.72 1021.08 1557.14 1024.87 1563.37 1026.25L1869.88 1094.17C1880.18 1096.45 1890.76 1091.74 1895.96 1082.56Z" stroke="url(#paint5_linear_1_4537)" stroke-width="2"/>
<path opacity="0.101449" d="M1850.09 1100.49L2018.01 837.983C2021.45 832.606 2022.6 826.08 2021.22 819.848L1925.76 389.926C1924.66 384.978 1922.02 380.505 1918.23 377.148L1628.19 120.721C1621.49 114.795 1612.05 113.089 1603.69 116.295L1348.06 214.425C1339.7 217.631 1333.83 225.217 1332.81 234.106L1288.86 618.74C1288.28 623.775 1289.32 628.864 1291.81 633.276L1508.54 1016.65C1511.68 1022.2 1516.91 1026.28 1523.06 1027.97L1823.5 1110.7C1833.65 1113.49 1844.42 1109.36 1850.09 1100.49Z" stroke="url(#paint6_linear_1_4537)" stroke-width="2"/>
<path opacity="0.115942" d="M1804.15 1116.91L1984.66 865.756C1988.39 860.564 1989.89 854.099 1988.84 847.793L1916.95 417.653C1916.11 412.637 1913.7 408.018 1910.07 404.46L1635.95 136.074C1629.57 129.824 1620.24 127.637 1611.75 130.398L1352.93 214.493C1344.43 217.254 1338.17 224.506 1336.68 233.314L1272.67 611.563C1271.82 616.577 1272.59 621.73 1274.86 626.281L1469.53 1016.53C1472.38 1022.25 1477.4 1026.59 1483.47 1028.6L1777.13 1125.7C1787.09 1128.99 1798.03 1125.43 1804.15 1116.91Z" stroke="url(#paint7_linear_1_4537)" stroke-width="2"/>
<path opacity="0.130435" d="M1758.23 1131.83L1950.6 892.614C1954.61 887.624 1956.47 881.238 1955.75 874.875L1907.18 445.795C1906.61 440.725 1904.43 435.971 1900.97 432.221L1643.23 152.831C1637.18 146.274 1628 143.613 1619.38 145.922L1358.14 215.921C1349.53 218.23 1342.9 225.127 1340.94 233.83L1257.42 604.659C1256.3 609.637 1256.8 614.841 1258.84 619.519L1431.32 1015.4C1433.88 1021.27 1438.67 1025.87 1444.64 1028.19L1730.85 1139.17C1740.6 1142.95 1751.68 1139.98 1758.23 1131.83Z" stroke="url(#paint8_linear_1_4537)" stroke-width="2"/>
<path opacity="0.144928" d="M1712.4 1145.26L1915.89 918.531C1920.17 913.758 1922.36 907.469 1921.98 901.066L1896.43 474.298C1896.13 469.188 1894.2 464.31 1890.92 460.376L1649.95 170.952C1644.25 164.107 1635.23 160.981 1626.51 162.833L1363.62 218.714C1354.9 220.566 1347.93 227.091 1345.51 235.663L1243.09 598.077C1241.7 603.003 1241.92 608.245 1243.72 613.038L1393.96 1013.3C1396.21 1019.31 1400.78 1024.16 1406.63 1026.78L1684.74 1151.13C1694.26 1155.39 1705.44 1153.01 1712.4 1145.26Z" stroke="url(#paint9_linear_1_4537)" stroke-width="2"/>
<path opacity="0.15942" d="M1666.74 1157.21L1880.57 943.48C1885.11 938.938 1887.64 932.765 1887.6 926.341L1884.69 503.107C1884.66 497.97 1882.97 492.981 1879.89 488.872L1656.03 190.394C1650.69 183.279 1641.86 179.699 1633.07 181.09L1369.27 222.872C1360.49 224.263 1353.19 230.398 1350.32 238.814L1229.64 591.861C1227.98 596.722 1227.92 601.987 1229.48 606.883L1357.5 1010.3C1359.44 1016.42 1363.76 1021.51 1369.48 1024.43L1638.89 1161.63C1648.15 1166.34 1659.39 1164.56 1666.74 1157.21Z" stroke="url(#paint10_linear_1_4537)" stroke-width="2"/>
<path opacity="0.173913" d="M1621.35 1167.72L1844.71 967.436C1849.5 963.141 1852.36 957.101 1852.66 950.673L1871.95 532.163C1872.19 527.014 1870.76 521.925 1867.88 517.65L1661.41 211.108C1656.45 203.743 1647.82 199.719 1638.99 200.647L1375.04 228.39C1366.21 229.318 1358.61 235.047 1355.29 243.282L1217.06 586.054C1215.13 590.835 1214.8 596.109 1216.1 601.096L1321.98 1006.45C1323.61 1012.68 1327.67 1017.99 1333.25 1021.19L1593.37 1170.67C1602.35 1175.83 1613.63 1174.64 1621.35 1167.72Z" stroke="url(#paint11_linear_1_4537)" stroke-width="2"/>
<path opacity="0.188406" d="M1576.27 1176.82L1808.35 990.384C1813.38 986.347 1816.57 980.459 1817.21 974.046L1858.19 561.411C1858.71 556.264 1857.54 551.089 1854.87 546.658L1666.02 233.044C1661.44 225.449 1653.06 220.994 1644.2 221.458L1380.83 235.26C1371.98 235.724 1364.1 241.032 1360.35 249.063L1205.31 580.7C1203.12 585.386 1202.5 590.654 1203.55 595.72L1287.44 1001.81C1288.75 1008.12 1292.54 1013.64 1297.96 1017.13L1548.25 1178.29C1556.94 1183.88 1568.22 1183.29 1576.27 1176.82Z" stroke="url(#paint12_linear_1_4537)" stroke-width="2"/>
<path opacity="0.202899" d="M1531.61 1184.53L1771.58 1012.31C1776.82 1008.54 1780.33 1002.82 1781.31 996.441L1843.43 590.795C1844.22 585.664 1843.32 580.416 1840.87 575.839L1669.8 256.147C1665.63 248.343 1657.49 243.47 1648.64 243.47L1386.59 243.47C1377.74 243.47 1369.61 248.343 1365.43 256.147L1194.37 575.839C1191.92 580.416 1191.02 585.664 1191.8 590.795L1253.93 996.441C1254.9 1002.82 1258.41 1008.54 1263.66 1012.31L1503.62 1184.53C1511.99 1190.53 1523.25 1190.53 1531.61 1184.53Z" stroke="url(#paint13_linear_1_4537)" stroke-width="2"/>
<path opacity="0.217391" d="M1487.42 1190.9L1734.43 1033.19C1739.88 1029.71 1743.7 1024.18 1745.01 1017.84L1827.65 620.259C1828.71 615.157 1828.09 609.85 1825.86 605.138L1672.7 280.362C1668.93 272.369 1661.08 267.094 1652.25 266.631L1392.24 253.005C1383.41 252.542 1375.05 256.967 1370.46 264.522L1184.19 571.509C1181.49 575.963 1180.31 581.176 1180.83 586.36L1221.46 990.407C1222.11 996.841 1225.32 1002.74 1230.38 1006.77L1459.55 1189.44C1467.57 1195.83 1478.78 1196.42 1487.42 1190.9Z" stroke="url(#paint14_linear_1_4537)" stroke-width="2"/>
<path opacity="0.231884" d="M1443.78 1195.96L1696.97 1053.03C1702.61 1049.84 1706.73 1044.51 1708.38 1038.25L1810.86 649.745C1812.2 644.688 1811.84 639.335 1809.86 634.498L1674.66 305.626C1671.31 297.466 1663.75 291.805 1654.97 290.883L1397.7 263.842C1388.92 262.92 1380.35 266.885 1375.37 274.17L1174.76 567.747C1171.81 572.064 1170.35 577.227 1170.6 582.45L1190.07 983.771C1190.39 990.241 1193.3 996.31 1198.16 1000.6L1416.1 1193.05C1423.76 1199.82 1434.88 1200.98 1443.78 1195.96Z" stroke="url(#paint15_linear_1_4537)" stroke-width="2"/>
<path opacity="0.246377" d="M1400.76 1199.75L1659.27 1071.81C1665.08 1068.93 1669.48 1063.82 1671.47 1057.64L1793.07 679.199C1794.68 674.201 1794.6 668.816 1792.86 663.866L1675.64 331.879C1672.71 323.574 1665.46 317.543 1656.76 316.165L1402.91 275.958C1394.21 274.581 1385.45 278.078 1380.1 285.07L1166.03 564.587C1162.84 568.754 1161.1 573.852 1161.08 579.101L1159.79 976.599C1159.77 983.088 1162.38 989.31 1167.02 993.844L1373.34 1195.41C1380.63 1202.53 1391.62 1204.27 1400.76 1199.75Z" stroke="url(#paint16_linear_1_4537)" stroke-width="2"/>
<path opacity="0.26087" d="M1358.41 1202.33L1621.36 1089.54C1627.34 1086.97 1632.02 1082.1 1634.33 1076.02L1774.29 708.566C1776.16 703.642 1776.37 698.238 1774.87 693.187L1675.58 359.055C1673.07 350.627 1666.16 344.244 1657.56 342.416L1407.8 289.327C1399.2 287.499 1390.29 290.519 1384.57 297.2L1157.96 562.061C1154.54 566.064 1152.53 571.084 1152.24 576.345L1130.64 968.958C1130.28 975.449 1132.57 981.807 1136.99 986.578L1331.33 1196.58C1338.23 1204.03 1349.07 1206.34 1358.41 1202.33Z" stroke="url(#paint17_linear_1_4537)" stroke-width="2"/>
<path opacity="0.275362" d="M1316.79 1203.75L1583.32 1106.21C1589.44 1103.97 1594.38 1099.34 1597.02 1093.39L1754.52 737.791C1756.66 732.955 1757.14 727.547 1755.89 722.407L1674.44 387.087C1672.37 378.559 1665.81 371.841 1657.33 369.57L1412.3 303.915C1403.82 301.644 1394.78 304.181 1388.73 310.531L1150.52 560.199C1146.87 564.026 1144.59 568.952 1144.02 574.211L1102.62 960.914C1101.93 967.389 1103.9 973.867 1108.07 978.863L1290.13 1196.6C1296.62 1204.37 1307.29 1207.22 1316.79 1203.75Z" stroke="url(#paint18_linear_1_4537)" stroke-width="2"/>
<path opacity="0.289855" d="M1275.97 1204.05L1545.21 1121.83C1551.45 1119.92 1556.64 1115.56 1559.6 1109.74L1733.78 766.823C1736.18 762.089 1736.95 756.691 1735.96 751.474L1672.19 415.907C1670.55 407.301 1664.36 400.269 1656.02 397.562L1416.36 319.691C1408.03 316.984 1398.89 319.031 1392.5 325.032L1143.67 559.029C1139.8 562.667 1137.25 567.485 1136.41 572.728L1075.76 952.534C1074.73 958.977 1076.37 965.56 1080.3 970.769L1249.79 1195.54C1255.87 1203.6 1266.32 1206.99 1275.97 1204.05Z" stroke="url(#paint19_linear_1_4537)" stroke-width="2"/>
<path opacity="0.304348" d="M1235.99 1203.29L1507.07 1136.4C1513.42 1134.84 1518.85 1130.75 1522.11 1125.09L1712.08 795.609C1714.75 790.991 1715.79 785.617 1715.06 780.336L1668.78 445.444C1667.59 436.783 1661.77 429.457 1653.61 426.324L1419.91 336.615C1411.75 333.482 1402.53 335.036 1395.84 340.672L1137.36 558.577C1133.29 562.013 1130.47 566.708 1129.36 571.923L1050.07 943.888C1048.71 950.28 1050.01 956.951 1053.68 962.361L1210.37 1193.46C1216.01 1201.78 1226.23 1205.7 1235.99 1203.29Z" stroke="url(#paint20_linear_1_4537)" stroke-width="2"/>
<path opacity="0.318841" d="M1196.9 1201.54L1468.97 1149.94C1475.4 1148.72 1481.06 1144.93 1484.62 1139.44L1689.46 824.1C1692.38 819.611 1693.71 814.276 1693.24 808.943L1664.21 475.628C1663.45 466.933 1658.03 459.335 1650.06 455.785L1422.9 354.648C1414.93 351.099 1405.66 352.157 1398.69 357.412L1131.56 558.864C1127.28 562.088 1124.21 566.647 1122.82 571.818L1025.55 935.043C1023.85 941.367 1024.82 948.109 1028.21 953.706L1171.92 1190.42C1177.11 1198.97 1187.07 1203.41 1196.9 1201.54Z" stroke="url(#paint21_linear_1_4537)" stroke-width="2"/>
<path opacity="0.333333" d="M1158.76 1198.85L1430.96 1162.46C1437.46 1161.59 1443.32 1158.1 1447.18 1152.79L1665.93 852.243C1669.09 847.897 1670.7 842.616 1670.51 837.244L1658.43 506.382C1658.11 497.678 1653.1 489.829 1645.34 485.874L1425.27 373.745C1417.51 369.791 1408.22 370.352 1400.99 375.211L1126.21 559.912C1121.75 562.91 1118.43 567.319 1116.77 572.433L1002.2 926.064C1000.17 932.305 1000.79 939.1 1003.91 944.871L1134.47 1186.47C1139.21 1195.24 1148.88 1200.17 1158.76 1198.85Z" stroke="url(#paint22_linear_1_4537)" stroke-width="2"/>
<path opacity="0.347826" d="M1121.6 1195.28L1393.08 1173.97C1399.63 1173.46 1405.69 1170.28 1409.83 1165.18L1641.51 879.996C1644.92 875.806 1646.81 870.592 1646.88 865.195L1651.42 537.639C1651.54 528.946 1646.95 520.868 1639.42 516.522L1426.97 393.863C1419.44 389.516 1410.15 389.581 1402.69 394.031L1121.28 561.739C1116.65 564.502 1113.08 568.748 1111.15 573.79L980.014 917.023C977.668 923.162 977.943 929.994 980.773 935.925L1098.06 1181.69C1102.34 1190.66 1111.7 1196.06 1121.6 1195.28Z" stroke="url(#paint23_linear_1_4537)" stroke-width="2"/>
<path opacity="0.362319" d="M1085.45 1190.9L1355.41 1184.49C1361.99 1184.34 1368.22 1181.48 1372.63 1176.6L1616.24 907.307C1619.88 903.288 1622.05 898.155 1622.4 892.746L1643.18 569.318C1643.73 560.66 1639.57 552.376 1632.3 547.651L1427.95 414.949C1420.68 410.224 1411.42 409.794 1403.74 413.823L1116.72 564.358C1111.92 566.876 1108.12 570.945 1105.92 575.902L958.995 907.982C956.331 914.003 956.257 920.854 958.792 926.931L1062.73 1176.15C1066.54 1185.28 1075.56 1191.14 1085.45 1190.9Z" stroke="url(#paint24_linear_1_4537)" stroke-width="2"/>
<path opacity="0.376812" d="M1050.37 1185.78L1317.97 1194.05C1324.57 1194.26 1330.95 1191.74 1335.63 1187.09L1590.15 934.139C1594.01 930.301 1596.45 925.265 1597.07 919.856L1633.68 601.35C1634.67 592.749 1630.95 584.282 1623.95 579.193L1428.18 436.958C1421.17 431.869 1411.97 430.947 1404.09 434.545L1112.49 567.787C1107.54 570.049 1103.5 573.928 1101.05 578.786L939.129 899.01C936.153 904.897 935.731 911.749 937.962 917.957L1028.52 1169.91C1031.85 1179.18 1040.52 1185.48 1050.37 1185.78Z" stroke="url(#paint25_linear_1_4537)" stroke-width="2"/>
<path opacity="0.391304" d="M1016.36 1179.98L1280.83 1202.66C1287.42 1203.23 1293.94 1201.05 1298.87 1196.65L1563.26 960.444C1567.34 956.801 1570.05 951.875 1570.94 946.481L1622.93 633.658C1624.34 625.135 1621.07 616.509 1614.36 611.072L1427.59 459.834C1420.88 454.397 1411.76 452.988 1403.72 456.145L1108.54 572.032C1103.45 574.03 1099.19 577.706 1096.48 582.452L920.402 890.17C917.12 895.906 916.349 902.743 918.27 909.067L995.445 1163.05C998.298 1172.44 1006.58 1179.14 1016.36 1179.98Z" stroke="url(#paint26_linear_1_4537)" stroke-width="2"/>
<path opacity="0.405797" d="M983.461 1173.57L1244.03 1210.36C1250.59 1211.28 1257.24 1209.46 1262.41 1205.32L1535.61 986.185C1539.9 982.749 1542.87 977.947 1544.05 972.58L1610.91 666.168C1612.75 657.745 1609.93 648.984 1603.52 643.215L1426.17 483.522C1419.76 477.754 1410.75 475.864 1402.57 478.573L1104.82 577.102C1099.61 578.827 1095.14 582.289 1092.17 586.909L902.8 881.525C899.219 887.096 898.1 893.899 899.706 900.323L963.533 1155.62C965.903 1165.1 973.785 1172.2 983.461 1173.57Z" stroke="url(#paint27_linear_1_4537)" stroke-width="2"/>
<path opacity="0.42029" d="M951.693 1166.61L1207.62 1217.16C1214.13 1218.45 1220.88 1216.98 1226.27 1213.11L1507.25 1011.32C1511.73 1008.11 1514.96 1003.44 1516.41 998.117L1597.64 698.807C1599.89 690.505 1597.53 681.633 1591.44 675.55L1423.86 507.968C1417.78 501.886 1408.91 499.524 1400.61 501.777L1101.3 583.003C1095.97 584.448 1091.31 587.684 1088.09 592.165L886.299 873.139C882.429 878.528 880.962 885.28 882.248 891.789L932.799 1147.72C934.684 1157.27 942.147 1164.73 951.693 1166.61Z" stroke="url(#paint28_linear_1_4537)" stroke-width="2"/>
<path opacity="0.434783" d="M921.071 1159.19L1171.64 1223.11C1178.08 1224.76 1184.92 1223.65 1190.51 1220.07L1478.2 1035.83C1482.86 1032.84 1486.35 1028.32 1488.07 1023.05L1583.1 731.502C1585.76 723.342 1583.86 714.383 1578.12 708.005L1420.65 533.116C1414.91 526.738 1406.19 523.912 1397.8 525.704L1097.91 589.739C1092.49 590.896 1087.64 593.895 1084.18 598.225L870.874 865.072C866.723 870.265 864.912 876.948 865.873 883.527L903.256 1139.4C904.657 1148.99 911.684 1156.79 921.071 1159.19Z" stroke="url(#paint29_linear_1_4537)" stroke-width="2"/>
<path opacity="0.449275" d="M891.612 1151.36L1136.12 1228.23C1142.48 1230.23 1149.38 1229.5 1155.17 1226.21L1448.5 1059.66C1453.35 1056.91 1457.08 1052.56 1459.07 1047.36L1567.32 764.179C1570.38 756.181 1568.95 747.16 1563.56 740.505L1416.5 558.903C1411.11 552.249 1402.59 548.969 1394.13 550.297L1094.63 597.308C1089.13 598.172 1084.1 600.922 1080.4 605.087L856.501 857.381C852.079 862.364 849.927 868.96 850.56 875.592L874.918 1130.75C875.835 1140.35 882.41 1148.47 891.612 1151.36Z" stroke="url(#paint30_linear_1_4537)" stroke-width="2"/>
<path opacity="0.463768" d="M863.324 1143.2L1101.12 1232.56C1107.37 1234.91 1114.32 1234.55 1120.29 1231.57L1418.21 1082.79C1423.22 1080.29 1427.2 1076.12 1429.45 1071L1550.32 796.768C1553.76 788.951 1552.79 779.893 1547.77 772.982L1411.39 585.273C1406.37 578.362 1398.06 574.641 1389.56 575.502L1091.4 605.709C1085.84 606.274 1080.64 608.765 1076.72 612.754L843.151 850.123C838.469 854.882 835.98 861.375 836.282 868.044L847.792 1121.82C848.227 1131.41 854.336 1139.82 863.324 1143.2Z" stroke="url(#paint31_linear_1_4537)" stroke-width="2"/>
<path opacity="0.478261" d="M836.208 1134.77L1066.66 1236.14C1072.78 1238.83 1079.75 1238.85 1085.89 1236.18L1387.36 1105.19C1392.52 1102.95 1396.73 1098.97 1399.25 1093.94L1532.09 829.201C1535.91 821.585 1535.41 812.513 1530.77 805.366L1405.3 612.165C1400.66 605.018 1392.58 600.868 1384.07 601.262L1088.18 614.94C1082.57 615.2 1077.22 617.424 1073.07 621.224L830.783 843.355C825.852 847.875 823.032 854.248 823.002 860.937L821.871 1112.7C821.828 1122.25 827.459 1130.93 836.208 1134.77Z" stroke="url(#paint32_linear_1_4537)" stroke-width="2"/>
<path opacity="0.492754" d="M810.27 1126.15L1032.78 1239C1038.76 1242.03 1045.73 1242.42 1052.02 1240.08L1356 1126.83C1361.3 1124.86 1365.73 1121.08 1368.51 1116.16L1512.68 861.407C1516.86 854.009 1516.82 844.949 1512.57 837.587L1398.22 639.516C1393.97 632.155 1386.14 627.59 1377.64 627.517L1084.93 624.99C1079.28 624.941 1073.79 626.888 1069.44 630.488L819.368 837.124C814.201 841.394 811.055 847.63 810.691 854.323L797.16 1103.45C796.644 1112.94 801.786 1121.85 810.27 1126.15Z" stroke="url(#paint33_linear_1_4537)" stroke-width="2"/>
<path opacity="0.507246" d="M785.502 1117.41L999.512 1241.18C1005.33 1244.54 1012.28 1245.31 1018.7 1243.31L1324.17 1147.7C1329.59 1146.01 1334.23 1142.44 1337.28 1137.64L1492.09 893.324C1496.63 886.162 1497.05 877.137 1493.2 869.582L1390.12 667.269C1386.27 659.715 1378.72 654.752 1370.26 654.213L1081.6 635.854C1075.93 635.494 1070.32 637.155 1065.76 640.544L808.862 831.484C803.471 835.492 800.006 841.574 799.309 848.255L773.647 1094.14C772.664 1103.56 777.308 1112.67 785.502 1117.41Z" stroke="url(#paint34_linear_1_4537)" stroke-width="2"/>
<path opacity="0.521739" d="M761.905 1108.61L966.886 1242.72C972.519 1246.4 979.441 1247.55 985.963 1245.89L1291.92 1167.77C1297.46 1166.36 1302.3 1163.02 1305.59 1158.36L1470.37 924.884C1475.25 917.975 1476.13 909.009 1472.69 901.284L1381.01 695.361C1377.57 687.635 1370.31 682.29 1361.92 681.291L1078.15 647.519C1072.49 646.844 1066.76 648.213 1062.01 651.379L799.23 826.481C793.629 830.214 789.852 836.128 788.822 842.78L751.327 1084.85C749.886 1094.16 754.022 1103.45 761.905 1108.61Z" stroke="url(#paint35_linear_1_4537)" stroke-width="2"/>
<path opacity="0.536232" d="M739.455 1099.81L934.919 1243.67C940.352 1247.67 947.217 1249.19 953.833 1247.87L1259.3 1187.03C1264.92 1185.91 1269.96 1182.81 1273.5 1178.29L1447.54 956.027C1452.74 949.387 1454.07 940.504 1451.05 932.63L1370.86 723.73C1367.84 715.856 1360.9 710.147 1352.59 708.691L1074.54 659.972C1068.89 658.981 1063.07 660.05 1058.13 662.983L790.416 822.159C784.618 825.606 780.538 831.335 779.176 837.942L730.175 1075.64C728.283 1084.82 731.907 1094.26 739.455 1099.81Z" stroke="url(#paint36_linear_1_4537)" stroke-width="2"/>
<path opacity="0.550725" d="M718.152 1091.09L903.649 1244.06C908.865 1248.36 915.653 1250.26 922.344 1249.3L1226.35 1205.45C1232.06 1204.63 1237.28 1201.77 1241.06 1197.41L1423.64 986.692C1429.15 980.336 1430.93 971.559 1428.33 963.56L1359.69 752.315C1357.09 744.316 1350.49 738.261 1342.3 736.356L1070.73 673.195C1065.11 671.888 1059.21 672.65 1054.1 675.34L782.388 818.557C776.407 821.71 772.034 827.238 770.342 833.784L710.185 1066.57C707.852 1075.6 710.959 1085.16 718.152 1091.09Z" stroke="url(#paint37_linear_1_4537)" stroke-width="2"/>
</g>
<defs>
<linearGradient id="paint0_linear_1_4537" x1="2117.64" y1="988.559" x2="1377.88" y2="75.034" gradientUnits="userSpaceOnUse">
<stop stop-color="#D245CE"/>
<stop offset="1" stop-color="#BAC9FF"/>
</linearGradient>
<linearGradient id="paint1_linear_1_4537" x1="2072.44" y1="1013.8" x2="1387.6" y2="71.2044" gradientUnits="userSpaceOnUse">
<stop stop-color="#D245CE"/>
<stop offset="1" stop-color="#BAC9FF"/>
</linearGradient>
<linearGradient id="paint2_linear_1_4537" x1="2026.76" y1="1037.49" x2="1397.84" y2="69.0438" gradientUnits="userSpaceOnUse">
<stop stop-color="#D245CE"/>
<stop offset="1" stop-color="#BAC9FF"/>
</linearGradient>
<linearGradient id="paint3_linear_1_4537" x1="1980.68" y1="1059.61" x2="1408.5" y2="68.5648" gradientUnits="userSpaceOnUse">
<stop stop-color="#D245CE"/>
<stop offset="1" stop-color="#BAC9FF"/>
</linearGradient>
<linearGradient id="paint4_linear_1_4537" x1="1934.31" y1="1080.16" x2="1419.49" y2="69.7741" gradientUnits="userSpaceOnUse">
<stop stop-color="#D245CE"/>
<stop offset="1" stop-color="#BAC9FF"/>
</linearGradient>
<linearGradient id="paint5_linear_1_4537" x1="1887.72" y1="1099.14" x2="1430.71" y2="72.6737" gradientUnits="userSpaceOnUse">
<stop stop-color="#D245CE"/>
<stop offset="1" stop-color="#BAC9FF"/>
</linearGradient>
<linearGradient id="paint6_linear_1_4537" x1="1841.01" y1="1116.56" x2="1442.06" y2="77.2603" gradientUnits="userSpaceOnUse">
<stop stop-color="#D245CE"/>
<stop offset="1" stop-color="#BAC9FF"/>
</linearGradient>
<linearGradient id="paint7_linear_1_4537" x1="1794.25" y1="1132.41" x2="1453.44" y2="83.5241" gradientUnits="userSpaceOnUse">
<stop stop-color="#D245CE"/>
<stop offset="1" stop-color="#BAC9FF"/>
</linearGradient>
<linearGradient id="paint8_linear_1_4537" x1="1747.54" y1="1146.71" x2="1464.79" y2="91.4504" gradientUnits="userSpaceOnUse">
<stop stop-color="#D245CE"/>
<stop offset="1" stop-color="#BAC9FF"/>
</linearGradient>
<linearGradient id="paint9_linear_1_4537" x1="1700.97" y1="1159.49" x2="1475.99" y2="101.022" gradientUnits="userSpaceOnUse">
<stop stop-color="#D245CE"/>
<stop offset="1" stop-color="#BAC9FF"/>
</linearGradient>
<linearGradient id="paint10_linear_1_4537" x1="1654.61" y1="1170.76" x2="1486.95" y2="112.213" gradientUnits="userSpaceOnUse">
<stop stop-color="#D245CE"/>
<stop offset="1" stop-color="#BAC9FF"/>
</linearGradient>
<linearGradient id="paint11_linear_1_4537" x1="1608.55" y1="1180.54" x2="1497.61" y2="124.995" gradientUnits="userSpaceOnUse">
<stop stop-color="#D245CE"/>
<stop offset="1" stop-color="#BAC9FF"/>
</linearGradient>
<linearGradient id="paint12_linear_1_4537" x1="1562.86" y1="1188.88" x2="1507.85" y2="139.334" gradientUnits="userSpaceOnUse">
<stop stop-color="#D245CE"/>
<stop offset="1" stop-color="#BAC9FF"/>
</linearGradient>
<linearGradient id="paint13_linear_1_4537" x1="1517.62" y1="1195.81" x2="1517.62" y2="155.194" gradientUnits="userSpaceOnUse">
<stop stop-color="#D245CE"/>
<stop offset="1" stop-color="#BAC9FF"/>
</linearGradient>
<linearGradient id="paint14_linear_1_4537" x1="1472.9" y1="1201.36" x2="1526.82" y2="172.531" gradientUnits="userSpaceOnUse">
<stop stop-color="#D245CE"/>
<stop offset="1" stop-color="#BAC9FF"/>
</linearGradient>
<linearGradient id="paint15_linear_1_4537" x1="1428.78" y1="1205.58" x2="1535.38" y2="191.3" gradientUnits="userSpaceOnUse">
<stop stop-color="#D245CE"/>
<stop offset="1" stop-color="#BAC9FF"/>
</linearGradient>
<linearGradient id="paint16_linear_1_4537" x1="1385.32" y1="1208.51" x2="1543.24" y2="211.45" gradientUnits="userSpaceOnUse">
<stop stop-color="#D245CE"/>
<stop offset="1" stop-color="#BAC9FF"/>
</linearGradient>
<linearGradient id="paint17_linear_1_4537" x1="1342.58" y1="1210.21" x2="1550.31" y2="232.928" gradientUnits="userSpaceOnUse">
<stop stop-color="#D245CE"/>
<stop offset="1" stop-color="#BAC9FF"/>
</linearGradient>
<linearGradient id="paint18_linear_1_4537" x1="1300.63" y1="1210.72" x2="1556.54" y2="255.677" gradientUnits="userSpaceOnUse">
<stop stop-color="#D245CE"/>
<stop offset="1" stop-color="#BAC9FF"/>
</linearGradient>
<linearGradient id="paint19_linear_1_4537" x1="1259.53" y1="1210.11" x2="1561.86" y2="279.636" gradientUnits="userSpaceOnUse">
<stop stop-color="#D245CE"/>
<stop offset="1" stop-color="#BAC9FF"/>
</linearGradient>
<linearGradient id="paint20_linear_1_4537" x1="1219.32" y1="1208.44" x2="1566.21" y2="304.743" gradientUnits="userSpaceOnUse">
<stop stop-color="#D245CE"/>
<stop offset="1" stop-color="#BAC9FF"/>
</linearGradient>
<linearGradient id="paint21_linear_1_4537" x1="1180.06" y1="1205.75" x2="1569.55" y2="330.932" gradientUnits="userSpaceOnUse">
<stop stop-color="#D245CE"/>
<stop offset="1" stop-color="#BAC9FF"/>
</linearGradient>
<linearGradient id="paint22_linear_1_4537" x1="1141.79" y1="1202.13" x2="1571.83" y2="358.132" gradientUnits="userSpaceOnUse">
<stop stop-color="#D245CE"/>
<stop offset="1" stop-color="#BAC9FF"/>
</linearGradient>
<linearGradient id="paint23_linear_1_4537" x1="1104.55" y1="1197.63" x2="1572.99" y2="386.278" gradientUnits="userSpaceOnUse">
<stop stop-color="#D245CE"/>
<stop offset="1" stop-color="#BAC9FF"/>
</linearGradient>
<linearGradient id="paint24_linear_1_4537" x1="1068.39" y1="1192.31" x2="1572.99" y2="415.293" gradientUnits="userSpaceOnUse">
<stop stop-color="#D245CE"/>
<stop offset="1" stop-color="#BAC9FF"/>
</linearGradient>
<linearGradient id="paint25_linear_1_4537" x1="1033.33" y1="1186.26" x2="1571.81" y2="445.106" gradientUnits="userSpaceOnUse">
<stop stop-color="#D245CE"/>
<stop offset="1" stop-color="#BAC9FF"/>
</linearGradient>
<linearGradient id="paint26_linear_1_4537" x1="999.409" y1="1179.53" x2="1569.41" y2="475.64" gradientUnits="userSpaceOnUse">
<stop stop-color="#D245CE"/>
<stop offset="1" stop-color="#BAC9FF"/>
</linearGradient>
<linearGradient id="paint27_linear_1_4537" x1="966.647" y1="1172.2" x2="1565.76" y2="506.82" gradientUnits="userSpaceOnUse">
<stop stop-color="#D245CE"/>
<stop offset="1" stop-color="#BAC9FF"/>
</linearGradient>
<linearGradient id="paint28_linear_1_4537" x1="935.064" y1="1164.35" x2="1560.84" y2="538.568" gradientUnits="userSpaceOnUse">
<stop stop-color="#D245CE"/>
<stop offset="1" stop-color="#BAC9FF"/>
</linearGradient>
<linearGradient id="paint29_linear_1_4537" x1="904.676" y1="1156.04" x2="1554.64" y2="570.808" gradientUnits="userSpaceOnUse">
<stop stop-color="#D245CE"/>
<stop offset="1" stop-color="#BAC9FF"/>
</linearGradient>
<linearGradient id="paint30_linear_1_4537" x1="875.498" y1="1147.34" x2="1547.14" y2="603.459" gradientUnits="userSpaceOnUse">
<stop stop-color="#D245CE"/>
<stop offset="1" stop-color="#BAC9FF"/>
</linearGradient>
<linearGradient id="paint31_linear_1_4537" x1="847.54" y1="1138.33" x2="1538.33" y2="636.446" gradientUnits="userSpaceOnUse">
<stop stop-color="#D245CE"/>
<stop offset="1" stop-color="#BAC9FF"/>
</linearGradient>
<linearGradient id="paint32_linear_1_4537" x1="820.797" y1="1129.09" x2="1528.21" y2="669.691" gradientUnits="userSpaceOnUse">
<stop stop-color="#D245CE"/>
<stop offset="1" stop-color="#BAC9FF"/>
</linearGradient>
<linearGradient id="paint33_linear_1_4537" x1="795.277" y1="1119.67" x2="1516.77" y2="703.115" gradientUnits="userSpaceOnUse">
<stop stop-color="#D245CE"/>
<stop offset="1" stop-color="#BAC9FF"/>
</linearGradient>
<linearGradient id="paint34_linear_1_4537" x1="770.97" y1="1110.16" x2="1504.03" y2="736.645" gradientUnits="userSpaceOnUse">
<stop stop-color="#D245CE"/>
<stop offset="1" stop-color="#BAC9FF"/>
</linearGradient>
<linearGradient id="paint35_linear_1_4537" x1="747.873" y1="1100.62" x2="1490" y2="770.203" gradientUnits="userSpaceOnUse">
<stop stop-color="#D245CE"/>
<stop offset="1" stop-color="#BAC9FF"/>
</linearGradient>
<linearGradient id="paint36_linear_1_4537" x1="725.961" y1="1091.12" x2="1474.68" y2="803.717" gradientUnits="userSpaceOnUse">
<stop stop-color="#D245CE"/>
<stop offset="1" stop-color="#BAC9FF"/>
</linearGradient>
<linearGradient id="paint37_linear_1_4537" x1="705.233" y1="1081.73" x2="1458.1" y2="837.112" gradientUnits="userSpaceOnUse">
<stop stop-color="#D245CE"/>
<stop offset="1" stop-color="#BAC9FF"/>
</linearGradient>
</defs>
</svg>
