<svg width="24" height="24" viewBox="0 0 24 24" fill="none" xmlns="http://www.w3.org/2000/svg">
<path d="M15.435 15.435L15.4314 15.4387L12.8965 18H8.98276C8.48155 18 7.99859 17.8118 7.62953 17.4727L6.93482 16.8343L4.82844 14.7279C4.04739 13.9469 4.04739 12.6805 4.82844 11.8995L8.36397 8.36396L11.8995 4.82843C12.6806 4.04738 13.9469 4.04738 14.7279 4.82843L18.9706 9.07107C19.7516 9.85212 19.7516 11.1184 18.9706 11.8995L15.435 15.435Z" stroke="#A897BD" stroke-width="2"/>
<path d="M10.3137 17H19.3137C19.866 17 20.3137 17.4477 20.3137 18C20.3137 18.5523 19.866 19 19.3137 19H10.3137V17Z" fill="#A897BD"/>
<path d="M15.3137 15L9.31372 9L8.81372 8L13.3137 4L19.8137 10.5L15.3137 15Z" fill="#A897BD"/>
</svg>
