<svg width="16" height="16" viewBox="0 0 16 16" fill="none" xmlns="http://www.w3.org/2000/svg">
<path fill-rule="evenodd" clip-rule="evenodd" d="M1.33268 7.99992C1.33268 7.99992 3.99935 12.6666 7.99935 12.6666C11.9993 12.6666 14.666 7.99992 14.666 7.99992C14.666 7.99992 11.9993 3.33325 7.99935 3.33325C3.99935 3.33325 1.33268 7.99992 1.33268 7.99992ZM2.92972 7.99992C3.21031 8.38871 3.61009 8.89171 4.10882 9.39044C5.17978 10.4614 6.52366 11.3333 7.99935 11.3333C9.47503 11.3333 10.8189 10.4614 11.8899 9.39044C12.3886 8.89171 12.7884 8.38871 13.069 7.99992C12.7884 7.61113 12.3886 7.10812 11.8899 6.60939C10.8189 5.53843 9.47503 4.66659 7.99935 4.66659C6.52366 4.66659 5.17978 5.53843 4.10882 6.60939C3.61009 7.10812 3.21031 7.61113 2.92972 7.99992Z" fill="#EB92CD"/>
<path fill-rule="evenodd" clip-rule="evenodd" d="M7.99935 8.66659C8.36754 8.66659 8.66601 8.36811 8.66601 7.99992C8.66601 7.63173 8.36754 7.33325 7.99935 7.33325C7.63116 7.33325 7.33268 7.63173 7.33268 7.99992C7.33268 8.36811 7.63116 8.66659 7.99935 8.66659ZM7.99935 9.99992C9.10392 9.99992 9.99935 9.10449 9.99935 7.99992C9.99935 6.89535 9.10392 5.99992 7.99935 5.99992C6.89478 5.99992 5.99935 6.89535 5.99935 7.99992C5.99935 9.10449 6.89478 9.99992 7.99935 9.99992Z" fill="#EB92CD"/>
</svg>
