<svg width="17" height="16" viewBox="0 0 17 16" fill="none" xmlns="http://www.w3.org/2000/svg">
<g clip-path="url(#clip0_389_6888)">
<path d="M4.80331 12.6667L1.83331 15V2.66667C1.83331 2.48986 1.90355 2.32029 2.02858 2.19526C2.1536 2.07024 2.32317 2 2.49998 2H14.5C14.6768 2 14.8464 2.07024 14.9714 2.19526C15.0964 2.32029 15.1666 2.48986 15.1666 2.66667V12C15.1666 12.1768 15.0964 12.3464 14.9714 12.4714C14.8464 12.5964 14.6768 12.6667 14.5 12.6667H4.80331ZM4.34198 11.3333H13.8333V3.33333H3.16665V12.2567L4.34198 11.3333ZM8.02865 8.08067L10.8573 5.25267L11.8 6.19533L8.02865 9.96667L5.43531 7.37333L6.37865 6.43067L8.02865 8.08067V8.08067Z" fill="#38BF7E"/>
</g>
<defs>
<clipPath id="clip0_389_6888">
<rect width="16" height="16" fill="white" transform="translate(0.5)"/>
</clipPath>
</defs>
</svg>
