<svg width="16" height="16" viewBox="0 0 16 16" fill="none" xmlns="http://www.w3.org/2000/svg">
<path d="M4.30334 12.6667L1.33334 15V2.66667C1.33334 2.48986 1.40358 2.32029 1.52861 2.19526C1.65363 2.07024 1.8232 2 2.00001 2H14C14.1768 2 14.3464 2.07024 14.4714 2.19526C14.5964 2.32029 14.6667 2.48986 14.6667 2.66667V12C14.6667 12.1768 14.5964 12.3464 14.4714 12.4714C14.3464 12.5964 14.1768 12.6667 14 12.6667H4.30334ZM3.84201 11.3333H13.3333V3.33333H2.66668V12.2567L3.84201 11.3333ZM5.33334 6.66667H10.6667V8H5.33334V6.66667Z" fill="#EF3D32"/>
</svg>
