<svg width="17" height="16" viewBox="0 0 17 16" fill="none" xmlns="http://www.w3.org/2000/svg">
<path d="M3.16667 14.0001L14.5 2.66675" stroke="#F3A919" stroke-width="1.33333" stroke-linecap="round"/>
<path fill-rule="evenodd" clip-rule="evenodd" d="M12.5776 4.97887C11.4891 4.08156 10.1011 3.33325 8.49935 3.33325C4.49935 3.33325 1.83269 7.99992 1.83269 7.99992C1.83269 7.99992 3.2927 10.5549 5.67258 11.8839L6.66188 10.8946C5.90728 10.538 5.21442 9.99603 4.60883 9.39044C4.1101 8.89171 3.71032 8.38871 3.42973 7.99992C3.71032 7.61113 4.1101 7.10812 4.60883 6.60939C5.67979 5.53843 7.02367 4.66659 8.49935 4.66659C9.64414 4.66659 10.7096 5.19128 11.6299 5.92659L12.5776 4.97887ZM8.1272 11.3149C8.25025 11.327 8.37433 11.3333 8.49935 11.3333C9.97504 11.3333 11.3189 10.4614 12.3899 9.39044C12.8886 8.89171 13.2884 8.38871 13.569 7.99992C13.3306 7.66956 13.0061 7.25673 12.608 6.83413L13.5511 5.89095C14.5822 6.97823 15.166 7.99992 15.166 7.99992C15.166 7.99992 12.4994 12.6666 8.49935 12.6666C7.97415 12.6666 7.47194 12.5861 6.99573 12.4464L8.1272 11.3149ZM10.3401 7.21641C10.0353 6.50125 9.32585 5.99992 8.49935 5.99992C7.39478 5.99992 6.49935 6.89535 6.49935 7.99992C6.49935 8.82641 7.00069 9.53582 7.71585 9.84062L10.3401 7.21641ZM9.16602 7.99992C9.16602 8.36811 8.86754 8.66659 8.49935 8.66659C8.13116 8.66659 7.83269 8.36811 7.83269 7.99992C7.83269 7.63173 8.13116 7.33325 8.49935 7.33325C8.86754 7.33325 9.16602 7.63173 9.16602 7.99992Z" fill="#F3A919"/>
</svg>
