<svg width="16" height="16" viewBox="0 0 16 16" fill="none" xmlns="http://www.w3.org/2000/svg">
<path d="M7.49673 3.77037L8.00016 4.35028L8.50359 3.77037C8.68781 3.55817 8.90438 3.37082 9.14585 3.21331C9.68087 2.86432 10.3308 2.66667 11.0002 2.66667C12.6975 2.66667 14.0002 3.9628 14.0002 5.59673C14.0002 6.20344 13.8562 6.78976 13.5967 7.36421L13.5966 7.36442C12.7683 9.19957 10.8381 10.7932 9.01498 12.281L9.00834 12.2864C8.66264 12.5686 8.32168 12.8468 8.00016 13.1189C7.67864 12.8468 7.33768 12.5686 6.99196 12.2864L6.98535 12.281C5.1622 10.7931 3.23193 9.19951 2.4037 7.36433L2.40361 7.36412C2.14413 6.7897 2.00016 6.20341 2.00016 5.59673C2.00016 3.9628 3.30286 2.66667 5.00016 2.66667C5.66953 2.66667 6.31946 2.86432 6.85448 3.21331C7.09594 3.37082 7.31252 3.55817 7.49673 3.77037Z" stroke="#392B4B" stroke-width="1.33333" stroke-linecap="round"/>
</svg>
