<svg width="1060" height="447" viewBox="0 0 1060 447" fill="none" xmlns="http://www.w3.org/2000/svg">
<path d="M210.54 169.628C236.464 178.045 248.748 208.58 258.284 234.222C266.81 257.148 271.271 283.769 261.29 306.093C252.037 326.791 220.724 327.264 208.236 346.169C195.328 365.708 206.338 395.346 190.782 412.829C172.941 432.882 145.592 451.492 119.38 446.036C93.0753 440.561 86.6596 404.995 66.6459 386.991C46.1133 368.521 7.51491 366.333 0.896446 339.453C-5.73728 312.51 26.2706 291.955 36.9433 266.356C46.5039 243.424 40.4791 212.1 60.2336 197.128C80.0238 182.128 108.619 198.011 133.007 193.549C160.154 188.582 184.282 161.104 210.54 169.628Z" fill="#FFEAC0" fill-opacity="0.32"/>
<path d="M997.265 69.6796C1019.87 91.2778 1056.46 103.689 1059.72 134.789C1062.99 165.935 1036.89 192.427 1012.16 211.623C992.41 226.95 965.761 220.169 941.577 226.482C907.959 235.258 876.599 270.606 845.489 255.129C813.72 239.325 804.039 195.207 807.749 159.905C810.993 129.04 845.153 114.813 862.911 89.365C883.774 59.4662 882.999 5.67014 919.062 0.386294C954.879 -4.86161 971.087 44.6661 997.265 69.6796Z" fill="#FFE8DF" fill-opacity="0.32"/>
</svg>
