<svg width="708" height="500" viewBox="0 0 708 500" fill="none" xmlns="http://www.w3.org/2000/svg">
<g clip-path="url(#clip0)">
<path d="M654.814 493.097C665.508 477.318 674.934 463.652 679.015 444.914C683.095 426.176 681.407 405.748 671.276 389.546C661.146 373.345 641.589 362.496 622.735 365.596C606.132 368.273 592.344 380.952 584.183 395.745C576.023 410.538 572.505 427.303 568.988 443.787C562.515 428.994 546.054 419.273 529.873 420.259C513.693 421.245 498.779 432.375 492.869 447.45C486.96 462.525 490.055 480.699 500.326 493.238" fill="#8B80F9"/>
<path d="M581.37 493.66L579.963 492.533C586.294 484.925 590.375 475.486 592.063 465.483C593.752 455.34 592.767 445.055 589.249 436.038C585.591 426.881 579.4 418.709 571.099 412.651C562.798 406.452 553.23 402.93 543.522 402.367C533.814 401.803 523.683 404.339 514.96 409.693C506.096 414.906 499.201 422.795 495.262 431.53L493.574 431.389C489.353 410.961 484.85 389.828 474.579 371.231C469.232 361.651 462.338 353.198 454.6 346.858C446.017 339.814 436.59 335.447 426.882 333.897C415.767 332.065 403.948 334.179 392.833 339.814C382.28 345.168 372.994 353.621 366.803 363.624C355.125 382.22 351.608 407.298 357.095 432.657C361.879 454.494 372.572 470.273 384.954 488.447C385.798 489.575 386.501 490.843 387.345 491.97L385.938 492.956C385.094 491.688 384.391 490.561 383.547 489.434C371.024 471.119 360.331 455.199 355.407 432.939C352.733 420.823 352.171 408.284 353.578 396.591C355.125 383.911 359.065 372.499 365.256 362.637C371.728 352.353 381.155 343.759 391.988 338.123C403.385 332.206 415.485 330.093 427.163 332.065C437.294 333.756 446.861 338.264 455.725 345.449C463.745 351.93 470.78 360.524 476.127 370.245C486.116 388.278 490.619 408.566 494.699 428.431C498.92 420.259 505.674 413.215 513.975 408.143C522.98 402.649 533.532 400.113 543.522 400.676C553.652 401.24 563.501 404.903 572.084 411.243C580.667 417.582 587.139 425.895 590.797 435.475C594.455 444.914 595.44 455.34 593.752 465.906C592.204 476.05 587.842 485.771 581.37 493.66Z" fill="black"/>
<path d="M107.775 493.097C109.886 449.986 127.755 409.129 153.362 388.419C179.11 367.709 211.893 367.709 237.641 388.419C263.389 409.129 287.589 449.986 289.7 493.097" fill="#ADD7F6"/>
<path d="M369.477 493.097C371.165 455.34 385.235 419.555 405.636 401.522C426.038 383.488 451.926 383.488 472.328 401.522C492.729 419.696 511.864 455.34 513.553 493.097" fill="white"/>
<path d="M181.925 493.237L180.236 492.956C180.236 492.674 184.598 467.878 196.135 443.364C202.889 428.994 210.768 417.441 219.491 409.27C230.466 398.845 242.988 393.632 256.495 393.632C270.003 393.632 282.525 398.845 293.499 409.27C302.223 417.582 310.102 428.994 316.715 443.505C328.112 468.019 332.333 492.815 332.473 493.097L330.785 493.378C330.785 493.097 326.564 468.583 315.167 444.21C308.554 429.98 300.816 418.709 292.233 410.538C281.54 400.535 269.581 395.323 256.495 395.323C243.41 395.323 231.31 400.394 220.617 410.538C212.034 418.709 204.296 429.98 197.683 444.21C186.286 468.442 182.065 492.956 181.925 493.237Z" fill="white"/>
<path d="M514.397 272.048L531.703 291.631C531.703 291.631 507.644 307.27 504.267 305.72C502.297 304.875 503.001 303.184 503.001 303.184C503.001 303.184 500.749 305.015 499.202 304.311C497.654 303.607 497.935 301.775 497.935 301.775C497.935 301.775 495.825 303.043 494.699 301.071C493.574 298.817 498.217 291.772 503.282 285.151" fill="#FFB78F"/>
<path d="M498.78 302.339L497.232 301.634C497.373 301.493 499.765 296.562 504.549 291.631L505.815 292.899C501.031 297.549 498.78 302.339 498.78 302.339Z" fill="black"/>
<path d="M503.844 303.888L502.438 302.902C502.578 302.761 505.533 298.676 508.91 295.294L510.176 296.562C506.799 299.662 503.844 303.747 503.844 303.888Z" fill="black"/>
<path d="M512.146 285.714C510.176 285.714 508.206 285.151 506.518 283.883L507.502 282.474C509.754 284.164 512.849 284.446 515.382 283.178L516.226 284.728C514.96 285.432 513.553 285.714 512.146 285.714Z" fill="black"/>
<path d="M503.283 285.292C499.484 286.7 493.434 286.7 493.575 282.897C493.715 278.952 498.499 279.797 502.861 278.107C507.082 276.416 514.398 271.908 514.398 271.908" fill="#FFB78F"/>
<path d="M603.882 132.713V146.661L570.255 152.86L571.662 141.73L568.426 117.357L587.561 96.647L603.882 132.713Z" fill="#FFB78F"/>
<path d="M581.792 113.835C580.948 121.443 576.727 128.628 570.536 133.277L568.566 117.921L574.335 111.722C576.727 112.567 579.26 113.271 581.792 113.835Z" fill="black"/>
<path d="M587.701 83.9673L587.56 85.517L584.184 114.398C584.184 114.398 574.194 131.586 557.31 122.992C547.883 118.202 541.27 100.733 541.552 85.6579C541.552 85.2352 541.552 84.6717 541.552 84.249V83.9673C541.552 83.8264 541.552 83.8264 541.552 83.6855V83.5446C541.552 82.9811 541.692 82.4175 541.692 81.854C541.692 81.4313 541.833 81.1496 541.833 80.7269C541.833 80.1634 541.974 79.7407 542.114 79.3181C542.959 74.1053 544.928 69.597 548.024 66.4976C548.727 65.7931 549.572 65.0887 550.416 64.5252C550.838 64.2434 551.26 63.9616 551.682 63.8208C551.963 63.6799 552.385 63.3981 552.667 63.2572C553.652 62.8346 554.496 62.5528 555.622 62.271C555.762 62.271 555.762 62.271 555.903 62.271C564.767 60.1578 571.38 62.271 576.304 65.934C582.355 70.5832 585.591 77.6275 587.138 81.4313C587.138 81.5722 587.279 81.7131 587.279 81.854V81.9949L587.42 82.4175C587.56 82.8402 587.701 83.122 587.701 83.4037C587.56 83.5446 587.56 83.8264 587.701 83.9673Z" fill="#FFB78F"/>
<path d="M559.421 106.791C558.858 106.791 558.154 106.65 557.592 106.227C556.888 105.664 556.325 104.959 556.185 104.114L554.355 93.2657L556.044 92.9839L557.873 103.832C557.873 104.255 558.154 104.536 558.576 104.818C558.999 105.1 559.28 105.1 559.702 104.959L560.124 106.65C559.983 106.65 559.702 106.791 559.421 106.791Z" fill="black"/>
<path d="M563.36 92.1387C563.501 92.984 564.204 93.4067 564.767 93.2658C565.33 93.1249 565.611 92.4205 565.471 91.5752C565.33 90.7299 564.626 90.3072 564.064 90.4481C563.501 90.589 563.219 91.2934 563.36 92.1387Z" fill="black"/>
<path d="M547.602 96.0834C547.743 96.9287 548.446 97.3514 549.009 97.2105C549.572 97.0696 549.853 96.3652 549.713 95.5199C549.572 94.6746 548.869 94.2519 548.306 94.3928C547.743 94.5337 547.462 95.2381 547.602 96.0834Z" fill="black"/>
<path d="M565.331 84.3899C565.753 84.3899 566.316 84.3899 566.738 84.5308C567.16 84.6717 567.441 84.9534 567.441 85.2352C567.441 85.7987 566.738 86.2214 565.894 86.3623C564.346 86.9258 562.658 87.0667 560.969 87.0667C560.406 87.0667 559.703 86.9258 559.422 86.6441C558.859 85.7987 560.406 85.0943 561.11 84.9534C562.376 84.6717 563.924 84.3899 565.331 84.3899Z" fill="black"/>
<path d="M548.588 88.194C549.01 88.194 549.432 88.0531 549.854 88.194C550.276 88.194 550.558 88.4757 550.558 88.7575C550.698 89.1802 549.995 89.7437 549.432 90.0255C548.166 90.7299 546.759 91.1525 545.211 91.2934C544.648 91.2934 544.085 91.2934 543.804 91.0117C543.101 90.3072 544.508 89.4619 545.07 89.1802C546.196 88.7575 547.462 88.3348 548.588 88.194Z" fill="black"/>
<path d="M581.512 85.2353C582.075 83.4038 583.904 82.1358 585.733 81.7132C587.562 81.4314 589.672 81.9949 591.22 82.9811C594.878 85.3762 596.426 90.448 594.878 94.5337C593.19 98.6193 588.547 101.296 584.326 100.451" fill="#FFB78F"/>
<path d="M588.404 94.1111C587.982 91.857 586.575 89.8846 584.746 88.6166L585.027 87.0669L589.248 86.0807L589.671 87.7713L587.279 88.3348C588.826 89.7437 589.811 91.7161 590.233 93.8293L588.404 94.1111Z" fill="black"/>
<path d="M560.688 59.4534C557.593 62.412 552.668 63.2573 548.87 61.4258C545.071 59.5943 542.679 55.086 543.101 50.8594C543.664 46.6329 546.9 42.829 551.121 41.8428C561.392 39.4477 568.145 51.9865 560.688 59.4534Z" fill="black"/>
<path d="M568.003 104.818C568.707 106.368 568.003 108.34 566.455 109.045C564.908 109.749 562.938 109.045 562.234 107.495" fill="white"/>
<path d="M586.858 81.2906C580.808 82.9812 574.054 82.6994 568.286 80.3044C562.376 77.9093 557.452 73.2601 554.356 67.7656C551.965 74.2463 547.462 80.0226 541.553 83.8265V83.6856C541.553 83.1221 541.693 82.5585 541.693 81.995C541.693 81.5723 541.834 81.2906 541.834 80.8679C541.834 80.3044 541.975 79.8817 542.116 79.4591C542.96 74.2463 544.93 69.738 548.025 66.6386C548.728 65.9341 549.573 65.2297 550.417 64.6662C550.839 64.3844 551.261 64.1026 551.683 63.9618C551.965 63.8209 552.387 63.5391 552.668 63.3982C553.653 62.9756 554.497 62.6938 555.623 62.412C555.763 62.412 555.763 62.412 555.904 62.412C564.768 60.2987 571.381 62.412 576.306 66.075C582.074 70.4425 585.451 77.4867 586.858 81.2906Z" fill="black"/>
<path d="M657.489 205.41C657.489 205.41 652.705 205.269 645.951 207.946C644.685 208.509 643.278 209.073 642.012 209.777C634.273 213.722 624.987 221.189 617.249 235.559C611.48 245.985 600.083 256.833 587.561 266.554C584.184 269.09 580.808 271.626 577.29 274.021C556.185 288.814 535.362 299.521 535.362 299.521L505.252 269.794L540.286 226.543C540.286 226.543 543.1 173.993 545.914 166.244C548.728 158.495 571.521 141.73 571.521 141.73C586.998 155.959 603.601 132.713 603.601 132.713L657.489 205.41Z" fill="#FF5C4F"/>
<path d="M692.382 450.69L698.432 493.097H617.952C617.811 487.32 621.188 482.108 625.549 479.149C629.911 476.191 635.117 475.204 640.041 473.936C644.966 472.668 650.172 471.26 654.111 467.597C658.473 463.793 661.146 457.594 661.146 451.254" fill="black"/>
<path d="M561.391 438.715L548.025 479.431L475.846 443.646C478.238 438.433 483.584 435.193 488.79 434.489C493.996 433.784 499.061 435.193 504.126 436.179C509.191 437.165 514.397 438.152 519.463 436.743C525.091 435.193 530.156 430.826 532.97 425.331" fill="black"/>
<path d="M708.001 458.298H641.168L623.299 327.557L617.531 340.941L570.115 450.549L507.785 420.4L577.291 274.162L584.044 259.791L586.296 255.142L635.118 206.255C637.51 207.241 639.761 208.369 642.013 209.918C652.565 216.822 661.429 229.642 669.027 245.844C702.232 317.977 708.001 458.298 708.001 458.298Z" fill="#ADD7F6"/>
<path d="M668.885 245.844C642.433 270.64 592.344 276.416 592.344 276.416L587.42 266.695L584.043 259.791L586.294 255.142L635.117 206.255C637.509 207.241 639.76 208.369 642.011 209.918C652.423 216.822 661.428 229.501 668.885 245.844Z" fill="#7EBFE8"/>
<path d="M634.976 206.255L584.043 259.792L572.787 237.25L617.952 197.38V184.277C617.952 184.277 637.368 207.101 634.976 206.255Z" fill="#F4281E"/>
<path d="M569.834 251.479C565.05 253.593 561.674 252.888 560.97 250.211C560.407 248.098 567.724 245.28 574.336 243.872C578.839 242.885 583.763 241.195 583.763 241.195" fill="#FFB78F"/>
<path d="M583.622 241.195L595.863 264.441C595.863 264.441 568.708 273.739 565.894 271.485C564.205 270.076 565.19 268.808 565.19 268.808C565.19 268.808 562.517 270.076 561.11 269.09C559.703 267.963 560.406 266.413 560.406 266.413C560.406 266.413 558.014 267.117 557.452 264.863C556.889 262.327 563.08 256.692 569.552 251.479" fill="#FFB78F"/>
<path d="M561.251 266.977L559.844 265.849C559.984 265.709 563.502 261.482 569.271 257.96L570.255 259.51C564.768 262.75 561.251 266.836 561.251 266.977Z" fill="black"/>
<path d="M565.753 269.513L564.627 268.104C564.768 267.963 568.707 264.722 572.647 262.327L573.491 263.877C569.692 266.272 565.893 269.513 565.753 269.513Z" fill="black"/>
<path d="M623.298 327.557L617.529 340.941L617.248 283.037L623.298 327.557Z" fill="#7EBFE8"/>
<path d="M617.953 184.277L622.877 199.775L577.713 237.673L594.738 271.062C594.738 271.062 669.168 256.833 676.906 217.667C683.519 183.995 645.249 135.39 639.058 133.277C631.742 130.882 603.602 132.854 603.602 132.854" fill="#FF5C4F"/>
<path d="M666.916 236.405C660.584 227.529 658.333 219.358 660.444 212.172C663.68 201.043 675.499 196.112 675.921 195.971L676.624 197.661C676.484 197.661 665.087 202.451 662.132 212.736C660.162 219.498 662.273 227.106 668.323 235.559L666.916 236.405Z" fill="black"/>
<path d="M706.733 435.897H638.213V437.729H706.733V435.897Z" fill="white"/>
<path d="M689.512 376.254L687.832 376.417L695.751 458.306L697.432 458.143L689.512 376.254Z" fill="white"/>
<path d="M584.606 157.932C575.18 157.932 566.315 150.747 564.346 141.589L566.034 141.167C567.863 149.479 576.024 156.1 584.466 156.1C592.064 156.1 599.802 151.31 604.726 143.562C609.37 136.095 611.199 127.219 612.184 119.47L613.872 119.752C612.746 127.783 610.917 136.94 606.133 144.548C601.209 152.719 592.908 157.932 584.606 157.932Z" fill="white"/>
<path d="M703.638 486.052H612.465V487.884H703.638V486.052Z" fill="white"/>
<path d="M235.25 117.92L237.923 128.064L252.275 121.302L245.662 105.241" fill="#FFB78F"/>
<path d="M354.281 131.305C354.281 131.305 334.161 184.277 294.343 193.576C293.217 193.857 292.232 193.998 291.107 194.28C288.715 194.703 286.464 194.844 284.353 194.703C247.068 193.294 233.42 126.515 233.42 126.515L263.108 106.368L284.212 139.758L354.281 131.305Z" fill="#ADD7F6"/>
<path d="M294.343 193.576C293.218 193.857 292.233 193.998 291.107 194.28C288.715 194.703 286.464 194.844 284.354 194.703L294.062 152.578L294.343 193.576Z" fill="#7EBFE8"/>
<path d="M397.618 450.69L404.512 493.097H312.917C312.635 487.32 316.575 482.108 321.499 479.149C326.424 476.19 332.333 475.204 337.961 473.936C343.589 472.668 349.358 471.259 354.001 467.596C358.925 463.793 362.021 457.594 362.021 451.254" fill="black"/>
<path d="M296.032 450.69L289.701 493.097L202.467 465.201C204.014 459.566 209.22 455.762 214.848 454.494C220.476 453.226 226.386 453.931 232.154 454.494C237.923 455.058 243.832 455.339 249.32 453.367C255.229 451.254 260.013 446.323 261.983 440.265" fill="black"/>
<path d="M413.375 459.707H340.774C340.774 459.707 336.553 398.986 332.895 343.759L332.754 344.182L325.578 376.585L307.428 458.58L236.656 436.461L292.514 182.728L316.433 183.714L388.049 186.813H388.471L391.004 214.708L413.375 459.707Z" fill="#8B80F9"/>
<path d="M326.002 90.1663L342.886 101.578L365.679 89.1801L355.971 39.4478L338.665 51.1412L329.379 57.3401L329.801 71.2877L329.942 79.5999L326.002 90.1663Z" fill="#FFB78F"/>
<path d="M338.663 51.1411L329.518 57.34L329.94 71.2876C337.115 68.1882 343.025 62.271 345.557 54.945C343.025 53.5362 340.914 52.4091 338.663 51.1411Z" fill="black"/>
<path d="M357.237 28.1769L356.674 29.5857L356.252 30.8537L355.83 31.8399L347.247 57.0583C347.247 57.0583 333.88 71.8512 319.107 59.7351C310.665 52.8317 307.851 33.2487 311.931 18.315C312.213 17.047 312.635 15.779 313.057 14.652C313.198 14.3702 313.198 14.2293 313.338 13.9475C313.338 13.9475 313.338 13.9475 313.338 13.8066C313.901 12.3978 314.605 10.989 315.308 9.72099C315.308 9.5801 315.449 9.43922 315.449 9.29833C315.449 9.15745 315.59 9.15745 315.59 9.01657C315.73 8.7348 316.012 8.45303 316.152 8.17126C316.434 7.7486 316.715 7.32595 316.997 7.04418C320.233 2.81763 324.454 -6.0901e-05 330.082 -0.140946C339.368 -0.422715 345.559 3.0994 349.498 7.7486C354.423 13.5249 356.111 21.1327 356.674 25.2183C356.674 25.3592 356.674 25.3592 356.674 25.5001C356.674 25.7819 356.674 25.9227 356.814 26.2045C356.814 26.6272 356.955 27.0498 356.955 27.3316C356.955 27.6134 356.955 27.7542 356.955 27.8951V28.036C357.237 28.1769 357.237 28.1769 357.237 28.1769Z" fill="#FFB78F"/>
<path d="M325.58 44.5195C324.736 44.5195 323.891 44.2378 323.329 43.5333C322.625 42.8289 322.344 41.9836 322.344 41.1383L322.907 30.2902L324.595 30.431L324.032 41.2792C324.032 41.7018 324.173 42.1245 324.454 42.4063C324.736 42.688 325.158 42.8289 325.58 42.8289V44.5195Z" fill="black"/>
<path d="M331.77 30.9945C331.77 31.8398 332.332 32.5443 332.895 32.4034C333.458 32.4034 333.88 31.699 333.88 30.8536C333.88 30.0083 333.317 29.3039 332.754 29.4448C332.192 29.4448 331.77 30.1492 331.77 30.9945Z" fill="black"/>
<path d="M315.59 31.5581C315.59 32.4034 316.153 33.1079 316.715 32.967C317.278 32.967 317.7 32.2626 317.7 31.4172C317.7 30.5719 317.137 29.8675 316.575 30.0084C316.012 30.0084 315.59 30.7128 315.59 31.5581Z" fill="black"/>
<path d="M335.286 23.3869C335.709 23.5277 336.131 23.6686 336.553 23.9504C336.975 24.2322 337.116 24.6548 337.116 25.2184C336.975 25.9228 336.131 26.3454 335.286 26.4863C333.598 26.7681 331.91 26.6272 330.362 26.0637C329.799 25.9228 329.236 25.5001 329.096 24.9366C328.674 23.6686 330.503 23.1051 331.206 22.9642C332.472 22.8233 334.02 22.9642 335.286 23.3869Z" fill="black"/>
<path d="M318.122 23.6686C318.544 23.6686 318.966 23.8095 319.248 23.9504C319.67 24.2321 319.811 24.5139 319.811 24.9366C319.811 25.641 319.107 26.0636 318.404 26.3454C316.997 26.909 315.449 27.0498 314.042 26.7681C313.479 26.6272 312.916 26.4863 312.776 26.0636C312.213 24.9366 313.76 24.2321 314.323 24.0913C315.59 23.5277 316.997 23.5277 318.122 23.6686Z" fill="black"/>
<path d="M314.041 41.4201C309.961 41.4201 306.584 38.0389 306.584 33.9532L307.428 33.1079H320.513L321.357 33.9532C321.357 38.1798 318.121 41.4201 314.041 41.4201ZM308.413 34.9394C308.835 37.6162 311.227 39.7295 314.041 39.7295C316.855 39.7295 319.247 37.6162 319.669 34.9394H308.413Z" fill="#FF5C4F"/>
<path d="M332.754 41.4201C328.674 41.4201 325.297 38.0389 325.297 33.9532L326.141 33.1079H339.226L340.07 33.9532C340.07 38.1798 336.834 41.4201 332.754 41.4201ZM327.126 34.9394C327.548 37.6162 329.94 39.7295 332.754 39.7295C335.568 39.7295 337.96 37.6162 338.382 34.9394H327.126Z" fill="#FF5C4F"/>
<path d="M330.924 33.2488H319.387V35.0803H330.924V33.2488Z" fill="#FF5C4F"/>
<path d="M354.756 21.1293L338.92 33.3287L340.035 34.7804L355.871 22.5809L354.756 21.1293Z" fill="#FF5C4F"/>
<path d="M356.956 25.6409C348.795 21.5553 342.464 14.0884 339.931 5.35353C332.615 9.58007 323.891 11.2707 315.449 10.0027C315.449 9.86184 315.59 9.72096 315.59 9.58007C315.59 9.43919 315.731 9.43919 315.731 9.2983C315.871 9.01653 316.153 8.73476 316.293 8.45299C316.575 8.03034 316.856 7.60769 317.138 7.32592C320.374 3.09937 324.595 0.281677 330.223 0.140793C339.509 -0.140977 345.7 3.38114 349.639 8.03034C354.564 13.8066 356.252 21.4144 356.815 25.5001C356.956 25.3592 356.956 25.5001 356.956 25.6409Z" fill="black"/>
<path d="M350.905 27.4724C351.889 25.7818 353.859 24.9365 355.829 24.9365C357.799 24.9365 359.628 25.9227 360.894 27.3316C363.99 30.431 364.412 35.7846 362.02 39.4476C359.628 43.1107 354.422 44.6604 350.342 42.9698" fill="#FFB78F"/>
<path d="M356.954 37.8979L355.266 37.3344C356.11 35.2211 355.969 32.6852 354.844 30.7128L355.969 29.4448L360.05 30.7128L359.487 32.4034L357.236 31.699C357.798 33.6714 357.798 35.9255 356.954 37.8979Z" fill="black"/>
<path d="M327.971 48.4643C327.69 48.4643 327.268 48.4643 326.986 48.3234L327.408 46.6328C328.112 46.7737 328.815 46.6328 329.378 46.2101C329.941 45.7875 330.222 45.0831 330.363 44.5195L332.052 44.6604C332.052 45.9284 331.348 47.0555 330.363 47.7599C329.66 48.1825 328.815 48.4643 327.971 48.4643Z" fill="black"/>
<path d="M332.754 344.181L325.578 376.444L327.407 256.833V256.692V255.565L331.769 327.134L332.754 344.181Z" fill="#6460F4"/>
<path d="M388.189 190.053C388.189 190.053 355.125 195.83 323.327 191.321C312.493 189.772 301.8 187.095 292.654 182.446L294.202 152.296L301.8 149.479L347.105 132.432L385.235 118.061L386.36 145.675L388.049 186.531L388.189 190.053Z" fill="#ADD7F6"/>
<path d="M385.517 190.476C377.216 191.744 349.779 195.125 323.187 191.321C320.795 188.786 318.544 186.109 316.434 183.573C304.052 168.075 298.143 152.719 298.143 152.719L301.801 149.479L347.106 132.432L366.1 143.421L374.261 138.912L385.517 190.476Z" fill="#B3B3B3"/>
<path d="M389.317 205.833C440.531 183.009 406.06 97.0695 395.789 88.4756C387.628 81.5722 363.287 76.6412 363.287 76.6412C363.287 76.6412 340.494 102.705 329.941 79.4589C329.941 79.4589 305.46 87.2076 301.098 91.7159C296.596 96.2242 274.646 142.716 274.646 142.716" fill="#ADD7F6"/>
<path d="M390.864 214.708C385.377 215.413 379.608 215.694 373.417 215.554C351.89 214.849 335.288 203.86 323.188 191.321C349.78 195.125 377.216 191.603 385.517 190.476L390.864 214.708Z" fill="#6460F4"/>
<path d="M385.517 190.476C377.216 191.744 349.779 195.125 323.187 191.321C320.795 188.785 318.544 186.109 316.434 183.573C304.052 168.075 298.143 152.719 298.143 152.719L301.801 149.479L330.644 123.133L346.965 132.572L365.96 143.561L374.12 139.053L385.517 190.476Z" fill="#7EBFE8"/>
<path d="M315.73 123.697C312.213 119.893 311.931 116.371 314.182 114.821C316.012 113.553 320.936 119.752 324.313 125.669C326.564 129.614 329.8 133.7 329.8 133.7" fill="#FFB78F"/>
<path d="M273.66 83.9672L270.424 151.169L316.433 137.363L313.197 79.0363L273.66 83.9672Z" fill="white"/>
<path d="M273.66 83.9673L242.003 69.3153L240.314 129.191L270.424 151.169" fill="#E6E6E6"/>
<path d="M329.799 133.7L311.508 152.437C311.508 152.437 294.202 129.614 295.469 126.092C296.172 123.979 297.86 124.683 297.86 124.683C297.86 124.683 295.891 122.57 296.453 120.879C297.016 119.189 298.845 119.47 298.845 119.47C298.845 119.47 297.298 117.357 299.408 116.23C301.659 114.962 308.976 119.048 315.87 123.697" fill="#FFB78F"/>
<path d="M308.414 126.656C303.489 122.429 298.424 120.457 298.424 120.457L299.127 118.766C299.409 118.907 304.333 120.879 309.539 125.247L308.414 126.656Z" fill="black"/>
<path d="M305.176 131.164C301.799 128.205 297.438 125.528 297.438 125.387L298.282 123.979C298.422 124.12 302.784 126.796 306.302 129.896L305.176 131.164Z" fill="black"/>
<path d="M394.662 256.551C388.472 256.551 382.844 252.888 378.341 245.844C374.824 240.349 371.728 232.741 369.337 223.161C365.256 206.96 364.412 190.758 364.412 190.476L366.101 190.335C366.101 191.04 369.759 254.297 394.662 254.579V256.551Z" fill="white"/>
<path d="M252.134 111.722C252.134 111.722 253.822 111.862 253.963 109.608C254.104 107.495 243.129 97.4922 240.174 97.6331C235.813 97.774 231.592 113.553 235.391 117.92C238.345 121.443 251.571 122.147 253.259 120.316C254.807 118.625 252.837 117.075 252.837 117.075C252.837 117.075 254.666 116.653 254.666 114.962C254.666 113.13 252.134 111.722 252.134 111.722Z" fill="#FFB78F"/>
<path d="M252.696 117.78C252.414 117.78 247.068 117.216 240.736 114.539L241.44 112.99C247.49 115.666 252.696 116.089 252.836 116.089L252.696 117.78Z" fill="black"/>
<path d="M251.993 112.567C251.853 112.567 246.928 111.158 242.566 109.186L243.27 107.636C247.491 109.467 252.275 110.876 252.415 110.876L251.993 112.567Z" fill="black"/>
<path d="M374.26 139.053L366.522 149.197L331.065 128.064L303.348 154.128C303.348 154.128 339.367 228.092 389.174 205.833" fill="#ADD7F6"/>
<path d="M281.259 247.816C280.274 247.816 279.29 247.675 278.305 247.394L278.727 245.703C281.681 246.407 284.214 245.985 286.747 244.153C300.957 233.869 304.053 186.813 304.053 186.391L305.741 186.531C305.741 186.672 304.897 198.647 302.364 211.891C298.847 229.783 293.922 241.054 287.591 245.562C285.762 247.112 283.511 247.816 281.259 247.816Z" fill="white"/>
<path d="M411.265 435.052H339.227V436.884H411.265V435.052Z" fill="black"/>
<path d="M241.422 414.576L240.943 416.197L312.059 437.224L312.538 435.602L241.422 414.576Z" fill="black"/>
<path d="M340.923 133.708L309.221 164.724L310.401 165.934L342.103 134.917L340.923 133.708Z" fill="black"/>
<path d="M284.213 98.4783L305.036 94.8153V106.65L284.213 109.89V98.4783Z" fill="#FF5C4F"/>
<path d="M381.155 500L379.467 499.577C382.844 483.798 395.507 470.273 410.983 465.765L411.406 467.455C396.491 471.823 384.391 484.784 381.155 500Z" fill="white"/>
<path d="M263.249 489.715L261.842 488.729C270.847 475.345 287.59 467.456 303.63 469.146L303.489 470.837C288.012 469.287 271.831 476.895 263.249 489.715Z" fill="white"/>
<path d="M560.266 361.088H466.701V372.077H560.266V361.088Z" fill="#E6E6E6"/>
<path d="M521.433 372.077H434.762L422.521 308.96H509.192L521.433 372.077Z" fill="white"/>
<path d="M478.802 340.519C478.802 344.322 475.707 347.422 471.908 347.422C468.109 347.422 465.014 344.322 465.014 340.519C465.014 336.715 468.109 333.615 471.908 333.615C475.707 333.615 478.802 336.715 478.802 340.519Z" fill="#ADD7F6"/>
<path d="M571.1 372.077H422.521V493.097H571.1V372.077Z" fill="#FF5C4F"/>
<path d="M495.827 394.759H443.346V425.331H495.827V394.759Z" fill="white"/>
<path d="M503.003 452.099L501.455 451.254C504.128 446.886 507.364 442.942 511.163 439.701C514.118 437.165 516.791 436.461 518.902 437.588C520.872 438.715 521.434 440.828 521.997 442.942C522.419 444.491 522.841 446.041 523.826 447.027C524.811 447.873 526.64 448.154 528.469 447.591C529.454 447.309 530.439 446.886 531.424 446.464C532.128 446.182 532.972 445.759 533.675 445.478C539.585 443.364 546.62 445.196 550.7 449.986L549.434 451.113C545.775 447.027 539.444 445.337 534.238 447.168C533.535 447.45 532.831 447.732 532.128 448.014C531.143 448.436 530.017 449 528.891 449.281C526.5 449.986 524.108 449.563 522.701 448.295C521.294 447.027 520.731 445.196 520.309 443.364C519.887 441.533 519.465 439.842 518.058 439.138C516.088 438.152 513.696 439.842 512.289 441.11C508.631 444.069 505.535 447.873 503.003 452.099Z" fill="black"/>
<path d="M542.398 459.284H502.299V461.116H542.398V459.284Z" fill="white"/>
<path d="M530.579 469.569H502.299V471.4H530.579V469.569Z" fill="black"/>
<path d="M102.57 223.725C101.303 235.137 89.7661 242.463 78.7915 245.844C67.8169 249.366 55.8575 250.916 46.9934 258.242C35.3154 267.963 33.0642 286.56 40.8026 299.662C48.5411 312.764 64.7215 319.809 79.7764 317.977C94.8312 316.286 108.479 306.565 116.499 293.604L122.549 300.226C128.881 311.355 144.498 316.146 155.895 310.228C167.292 304.311 172.497 288.814 167.01 277.12C162.086 266.695 150.689 261.06 140.84 255.002C130.85 249.084 120.72 240.209 120.439 228.656" fill="black"/>
<path d="M170.81 416.737C172.92 428.149 167.996 439.983 159.413 448.718C150.83 457.594 138.73 463.511 126.067 467.174C109.887 471.823 92.018 472.95 75.5562 469.005C59.0943 465.061 44.1802 455.762 35.8789 442.801C27.5776 429.98 26.452 413.497 34.3312 400.395" fill="#F4281E"/>
<path d="M58.25 341.505L60.2198 407.157C60.2198 407.157 101.304 425.049 171.654 403.494L159.835 330.093" fill="white"/>
<path d="M74.4304 450.69L80.4805 493.097H0.000335218C-0.140364 487.32 3.23642 482.108 7.59811 479.149C11.9598 476.191 17.1657 475.204 22.0902 473.936C27.0146 472.668 32.2205 471.26 36.1601 467.597C40.5218 463.793 43.1951 457.594 43.1951 451.254" fill="black"/>
<path d="M65.3822 452.839L63.5664 453.06L68.4389 493.198L70.2547 492.977L65.3822 452.839Z" fill="white"/>
<path d="M82.591 459.143H21.246C21.246 459.143 -26.7326 334.742 24.482 330.093C25.1855 330.093 25.889 330.093 26.5925 330.093C28.1402 330.234 29.6879 330.657 31.2356 331.361C39.5369 335.165 47.1347 346.858 53.8882 361.651C61.2046 377.853 67.5361 397.718 72.1792 415.328C78.7921 439.42 82.591 459.143 82.591 459.143Z" fill="#FF5C4F"/>
<path d="M25.4678 354.325C26.1713 346.858 28.4225 338.969 31.2365 331.22C38.6936 334.601 45.5878 344.322 51.7786 357.143L26.4527 369.541C25.1864 365.033 24.905 359.82 25.4678 354.325Z" fill="#CCCCCC"/>
<path d="M109.747 424.768L71.4766 443.787L97.7874 493.097H131.133C130.008 488.166 127.194 483.798 123.254 480.699C121.143 479.008 118.752 477.599 116.5 475.909C114.39 474.218 112.561 471.964 112.139 469.146C111.717 466.469 112.983 463.652 114.671 461.539C116.5 459.425 118.752 457.875 121.143 456.326" fill="black"/>
<path d="M199.793 290.223L223.008 302.339C223.008 302.339 232.154 275.148 229.903 272.33C228.496 270.64 227.229 271.626 227.229 271.626C227.229 271.626 228.496 268.949 227.37 267.54C226.245 266.131 224.697 266.836 224.697 266.836C224.697 266.836 225.4 264.441 223.149 263.877C220.617 263.314 214.989 269.513 209.923 276.134" fill="#B0614E"/>
<path d="M217.802 276.698L216.254 275.712C219.771 269.935 223.992 266.413 224.133 266.131L225.259 267.54C225.399 267.54 221.319 271.062 217.802 276.698Z" fill="black"/>
<path d="M222.446 280.079L220.898 279.234C223.29 275.148 226.526 271.344 226.667 271.062L228.074 272.189C227.933 272.189 224.697 276.134 222.446 280.079Z" fill="black"/>
<path d="M212.596 288.814L210.908 288.391C211.47 285.714 210.485 282.615 208.375 280.924L209.501 279.515C212.033 281.77 213.299 285.573 212.596 288.814Z" fill="black"/>
<path d="M209.923 276.134C210.345 272.049 208.798 266.272 205.28 267.258C201.481 268.386 203.592 272.894 203.029 277.402C202.466 281.91 199.934 290.082 199.934 290.082" fill="#B0614E"/>
<path d="M87.7969 285.996L91.3144 299.521L125.364 297.126L121.283 286.7L118.329 262.187L94.6912 246.971L87.7969 285.996Z" fill="#B0614E"/>
<path d="M104.541 262.187C107.214 269.372 113.124 275.289 120.299 278.247L118.47 262.891L111.435 258.242C109.043 259.651 106.933 260.919 104.541 262.187Z" fill="black"/>
<path d="M90.4707 235.982L91.1742 237.391L103.134 263.877C103.134 263.877 117.907 277.261 131.414 263.736C138.871 256.269 139.997 237.673 135.072 223.302C134.932 222.88 134.791 222.457 134.65 221.894L134.51 221.753C134.51 221.612 134.51 221.612 134.369 221.471V221.33C134.228 220.766 133.947 220.344 133.665 219.78C133.525 219.358 133.384 219.076 133.243 218.794C133.103 218.371 132.821 217.949 132.54 217.526C130.148 212.877 126.912 209.214 122.972 207.101C122.128 206.678 121.143 206.255 120.158 205.974C119.736 205.833 119.314 205.692 118.751 205.692C118.329 205.551 118.048 205.551 117.626 205.551C116.641 205.41 115.656 205.41 114.53 205.41C114.39 205.41 114.39 205.41 114.249 205.41C105.103 206.114 99.4755 210.2 95.958 215.131C91.5963 221.471 90.6114 229.079 90.4707 233.164C90.4707 233.305 90.4707 233.446 90.4707 233.587V233.728V234.151C90.4707 234.573 90.4707 234.855 90.4707 235.137C90.4707 235.559 90.4707 235.7 90.4707 235.982Z" fill="#B0614E"/>
<path d="M123.535 249.084L123.395 247.394C123.817 247.394 124.239 247.112 124.52 246.83C124.802 246.548 124.942 246.126 124.802 245.703L123.254 234.855L124.942 234.573L126.49 245.421C126.631 246.267 126.349 247.253 125.787 247.957C125.364 248.662 124.52 249.084 123.535 249.084Z" fill="black"/>
<path d="M116.077 236.264C116.077 237.109 115.655 237.814 115.092 237.814C114.53 237.814 113.967 237.25 113.967 236.405C113.967 235.559 114.389 234.855 114.952 234.855C115.514 234.855 116.077 235.419 116.077 236.264Z" fill="black"/>
<path d="M132.257 235.278C132.257 236.123 131.835 236.827 131.272 236.827C130.709 236.827 130.146 236.264 130.146 235.419C130.146 234.573 130.569 233.869 131.131 233.869C131.694 233.869 132.257 234.432 132.257 235.278Z" fill="black"/>
<path d="M111.997 229.501C111.575 229.642 111.153 229.783 110.731 230.065C110.449 230.347 110.168 230.628 110.168 231.051C110.309 231.615 111.153 231.755 111.997 231.755C113.685 231.755 115.374 231.474 116.922 230.91C117.484 230.769 118.047 230.347 118.188 230.065C118.469 229.079 116.781 228.938 116.077 228.938C114.811 228.797 113.263 229.079 111.997 229.501Z" fill="black"/>
<path d="M129.022 227.952C128.6 227.952 128.178 228.092 127.897 228.233C127.615 228.374 127.334 228.656 127.334 228.938C127.334 229.36 128.178 229.642 128.741 229.783C130.148 230.065 131.696 230.065 133.103 229.783C133.665 229.642 134.088 229.501 134.369 229.22C134.791 228.374 133.243 227.952 132.681 227.952C131.555 227.811 130.148 227.811 129.022 227.952Z" fill="black"/>
<path d="M96.8016 235.278C95.676 233.728 93.5655 233.023 91.7364 233.164C89.7666 233.446 88.0782 234.573 86.9526 236.123C84.1386 239.504 84.2793 244.858 86.9526 248.239C89.7666 251.62 94.9725 252.747 98.9121 250.634" fill="#B0614E"/>
<path d="M116.11 433.079L77.1309 453.601L77.9821 455.222L116.961 434.7L116.11 433.079Z" fill="white"/>
<path d="M91.1746 245.985C90.8932 243.871 91.3153 241.758 92.3002 239.927L89.9083 240.208L89.7676 238.518L93.9886 238.095L94.6921 239.504C93.2851 241.195 92.5816 243.59 92.863 245.844L91.1746 245.985Z" fill="black"/>
<path d="M115.514 249.789C115.232 251.479 116.499 253.17 118.187 253.311C119.876 253.593 121.564 252.325 121.705 250.634" fill="white"/>
<path d="M90.4707 233.164C96.8022 232.883 102.993 230.628 107.777 226.543C112.701 222.457 115.937 216.54 117.204 210.341C121.425 215.835 127.475 219.921 134.228 221.753V221.612C134.088 221.048 133.806 220.626 133.525 220.062C133.384 219.639 133.243 219.358 133.103 219.076C132.962 218.653 132.681 218.231 132.399 217.808C130.007 213.159 126.771 209.496 122.832 207.382C121.987 206.96 121.002 206.537 120.018 206.255C119.596 206.114 119.173 205.974 118.611 205.974C118.189 205.833 117.907 205.833 117.485 205.833C116.5 205.692 115.515 205.692 114.39 205.692C114.249 205.692 114.249 205.692 114.108 205.692C104.963 206.396 99.3348 210.482 95.8173 215.413C91.5963 221.33 90.7521 229.079 90.4707 233.164Z" fill="black"/>
<path d="M127.897 480.417L105.525 420.541C105.525 420.541 215.412 362.074 230.044 400.535C248.335 448.718 127.897 480.417 127.897 480.417Z" fill="#FF5C4F"/>
<path d="M229.2 300.366C229.2 300.366 218.226 383.911 179.111 387.574C136.901 391.519 120.158 342.35 120.158 342.35L86.1087 352.212L82.5913 353.198L53.8886 361.51L26.4522 369.541C25.0452 364.892 24.9045 359.82 25.3266 354.325C26.0301 346.858 28.2812 338.969 31.0952 331.22C32.0801 328.543 33.2057 325.867 34.472 323.19C42.3512 305.579 53.0444 290.645 56.9839 287.969C64.0189 283.319 87.9378 285.996 87.9378 285.996C87.9378 285.996 111.575 303.043 121.284 286.841C121.284 286.841 144.921 290.082 151.393 294.167C153.222 295.295 156.177 298.817 159.413 303.043C166.307 312.201 174.187 324.739 174.187 324.739L198.246 285.996L229.2 300.366Z" fill="white"/>
<path d="M86.1077 352.212L82.5902 353.339L26.5918 369.682L85.5449 340.659L86.1077 352.212Z" fill="#999999"/>
<path d="M72.3196 415.328C54.7321 406.03 30.9539 391.378 23.6375 376.162C15.477 359.115 21.8084 340.237 26.5922 330.093C28.1399 330.234 29.6876 330.657 31.2353 331.361C28.2806 339.11 26.1701 346.999 25.4666 354.466C24.9038 359.961 25.1852 365.173 26.5922 369.682L51.9181 357.284C52.6216 358.693 53.3251 360.242 54.0286 361.651C61.345 377.853 67.5358 397.718 72.3196 415.328Z" fill="#F4281E"/>
<path d="M106.791 409.129L92.44 425.049C92.44 425.049 83.7166 421.386 72.3199 415.328C71.335 411.806 70.3501 408.284 69.3652 404.621L106.791 409.129Z" fill="#E00B0B"/>
<path d="M122.127 392.082L106.791 409.129L69.3647 404.621C65.1437 389.969 59.9378 374.613 54.0285 361.651C53.325 360.102 52.6215 358.693 51.918 357.284L85.5452 340.8L86.108 352.353L86.3894 356.72L122.127 392.082Z" fill="#E6E6E6"/>
<path d="M94.0442 403.006H187.609V392.017H94.0442V403.006Z" fill="#6460F4"/>
<path d="M133.102 403.071H219.772L231.873 339.955H145.202L133.102 403.071Z" fill="#8B80F9"/>
<path d="M175.594 371.513C175.594 375.317 178.689 378.417 182.488 378.417C186.287 378.417 189.382 375.317 189.382 371.513C189.382 367.709 186.287 364.61 182.488 364.61C178.689 364.469 175.594 367.709 175.594 371.513Z" fill="white"/>
<path d="M119.174 408.425C123.395 411.384 126.913 411.524 128.038 408.989C129.023 407.016 122.41 402.79 116.219 400.113C111.998 398.281 107.637 395.604 107.637 395.604" fill="#B0614E"/>
<path d="M107.636 395.464L91.0332 415.751C91.0332 415.751 115.656 430.403 118.892 428.853C120.862 427.867 120.158 426.317 120.158 426.317C120.158 426.317 122.409 428.149 124.098 427.304C125.645 426.599 125.364 424.768 125.364 424.768C125.364 424.768 127.615 426.036 128.6 423.922C129.726 421.527 124.66 414.765 119.455 408.425" fill="#B0614E"/>
<path d="M124.379 425.19C124.379 425.19 121.846 420.4 117.062 415.892L118.329 414.624C123.253 419.273 125.927 424.063 125.927 424.345L124.379 425.19Z" fill="black"/>
<path d="M119.455 426.881C119.455 426.881 116.359 422.795 112.982 419.837L114.108 418.569C117.625 421.809 120.721 425.754 120.862 425.895L119.455 426.881Z" fill="black"/>
<path d="M116.499 392.082L91.7357 420.118C91.7357 420.118 38.2699 398.704 27.5767 372.218C27.1546 371.372 26.8732 370.527 26.5918 369.541L85.5449 340.659L82.5902 353.198L81.4646 358.129L116.499 392.082Z" fill="white"/>
<path d="M158.85 302.62L170.246 329.248L174.327 324.739C174.327 324.739 166.447 312.201 159.553 303.043L158.85 302.62Z" fill="#E6E6E6"/>
<path d="M106.189 382.008L76.9141 413.038L78.1414 414.199L107.417 383.169L106.189 382.008Z" fill="black"/>
<path d="M193.296 294.26L192.328 295.814L225.879 316.757L226.846 315.203L193.296 294.26Z" fill="black"/>
<path d="M459.805 243.308C455.444 243.308 451.786 241.476 449.394 237.954C446.58 233.728 446.298 227.952 448.69 223.443C450.941 219.217 455.022 216.963 460.228 216.963C466.84 216.963 472.891 222.739 473.313 229.36C473.594 235.982 468.247 242.322 461.635 243.026L461.494 242.181L461.635 243.026C460.931 243.308 460.368 243.308 459.805 243.308ZM460.087 218.935C455.584 218.935 452.067 220.907 450.097 224.429C447.987 228.374 448.268 233.446 450.801 237.109C453.052 240.49 456.851 242.04 461.353 241.617C466.981 241.054 471.765 235.418 471.484 229.783C471.202 224.007 465.856 218.935 460.087 218.935C460.228 218.935 460.228 218.935 460.087 218.935Z" fill="white"/>
<path d="M255.933 38.8842C252.556 38.8842 249.601 37.4754 247.772 34.6577C245.521 31.4173 245.38 26.7681 247.209 23.3869C248.898 20.1466 252.134 18.3151 256.214 18.3151C261.42 18.3151 266.204 22.8234 266.344 28.0361C266.626 33.2488 262.405 38.1798 257.199 38.7434C256.918 38.7434 256.495 38.8842 255.933 38.8842ZM256.214 20.0057C252.837 20.0057 250.164 21.4145 248.757 24.0913C247.209 27.0499 247.35 30.8538 249.179 33.5306C250.868 36.0665 253.681 37.1936 257.058 36.9118C261.279 36.4892 264.797 32.2627 264.656 28.0361C264.515 23.8096 260.576 20.0057 256.214 20.0057C256.355 20.0057 256.355 20.0057 256.214 20.0057Z" fill="white"/>
</g>
<defs>
<clipPath id="clip0">
<rect width="708" height="500" fill="white"/>
</clipPath>
</defs>
</svg>
