<svg width="24" height="24" viewBox="0 0 24 24" fill="none" xmlns="http://www.w3.org/2000/svg">
<path d="M16.8629 15.4735C16.4714 15.0839 15.8382 15.0856 15.4487 15.4771C15.0592 15.8686 15.0608 16.5018 15.4523 16.8913L16.8629 15.4735ZM20.2947 21.7089C20.6862 22.0984 21.3194 22.0968 21.7089 21.7053C22.0984 21.3138 22.0968 20.6806 21.7053 20.2911L20.2947 21.7089ZM17.2581 11.129C17.2581 14.514 14.514 17.2581 11.129 17.2581V19.2581C15.6186 19.2581 19.2581 15.6186 19.2581 11.129H17.2581ZM11.129 17.2581C7.74406 17.2581 5 14.514 5 11.129H3C3 15.6186 6.63949 19.2581 11.129 19.2581V17.2581ZM5 11.129C5 7.74406 7.74406 5 11.129 5V3C6.63949 3 3 6.63949 3 11.129H5ZM11.129 5C14.514 5 17.2581 7.74406 17.2581 11.129H19.2581C19.2581 6.63949 15.6186 3 11.129 3V5ZM15.4523 16.8913L20.2947 21.7089L21.7053 20.2911L16.8629 15.4735L15.4523 16.8913Z" fill="#fff"/>
<path d="M12.25 8C12.25 7.44772 11.8023 7 11.25 7C10.6977 7 10.25 7.44772 10.25 8H12.25ZM10.25 14.5C10.25 15.0523 10.6977 15.5 11.25 15.5C11.8023 15.5 12.25 15.0523 12.25 14.5H10.25ZM10.25 8V14.5H12.25V8H10.25Z" fill="#fff"/>
<path d="M14.5 12.25C15.0523 12.25 15.5 11.8023 15.5 11.25C15.5 10.6977 15.0523 10.25 14.5 10.25L14.5 12.25ZM8 10.25C7.44772 10.25 7 10.6977 7 11.25C7 11.8023 7.44772 12.25 8 12.25L8 10.25ZM14.5 10.25L8 10.25L8 12.25L14.5 12.25L14.5 10.25Z" fill="#fff"/>
</svg>
