<svg width="44" height="44" viewBox="0 0 44 44" fill="none" xmlns="http://www.w3.org/2000/svg">
<rect width="44" height="44" rx="8" fill="#F9F4FF"/>
<path d="M26.8629 25.4735C26.4714 25.0839 25.8382 25.0856 25.4487 25.4771C25.0592 25.8686 25.0608 26.5018 25.4523 26.8913L26.8629 25.4735ZM30.2947 31.7089C30.6862 32.0984 31.3194 32.0968 31.7089 31.7053C32.0984 31.3138 32.0968 30.6806 31.7053 30.2911L30.2947 31.7089ZM27.2581 21.129C27.2581 24.514 24.514 27.2581 21.129 27.2581V29.2581C25.6186 29.2581 29.2581 25.6186 29.2581 21.129H27.2581ZM21.129 27.2581C17.7441 27.2581 15 24.514 15 21.129H13C13 25.6186 16.6395 29.2581 21.129 29.2581V27.2581ZM15 21.129C15 17.7441 17.7441 15 21.129 15V13C16.6395 13 13 16.6395 13 21.129H15ZM21.129 15C24.514 15 27.2581 17.7441 27.2581 21.129H29.2581C29.2581 16.6395 25.6186 13 21.129 13V15ZM25.4523 26.8913L30.2947 31.7089L31.7053 30.2911L26.8629 25.4735L25.4523 26.8913Z" fill="#966CEE"/>
<path d="M22.25 18C22.25 17.4477 21.8023 17 21.25 17C20.6977 17 20.25 17.4477 20.25 18H22.25ZM20.25 24.5C20.25 25.0523 20.6977 25.5 21.25 25.5C21.8023 25.5 22.25 25.0523 22.25 24.5H20.25ZM20.25 18V24.5H22.25V18H20.25Z" fill="#966CEE"/>
<path d="M24.5 22.25C25.0523 22.25 25.5 21.8023 25.5 21.25C25.5 20.6977 25.0523 20.25 24.5 20.25L24.5 22.25ZM18 20.25C17.4477 20.25 17 20.6977 17 21.25C17 21.8023 17.4477 22.25 18 22.25L18 20.25ZM24.5 20.25L18 20.25L18 22.25L24.5 22.25L24.5 20.25Z" fill="#966CEE"/>
</svg>
