<svg width="24" height="24" viewBox="0 0 24 24" fill="none" xmlns="http://www.w3.org/2000/svg">
<path d="M22.1006 3.04492H16.1006C15.0397 3.04492 14.0223 3.46635 13.2722 4.21649C12.522 4.96664 12.1006 5.98406 12.1006 7.04492V21.0449C12.1006 20.2493 12.4167 19.4862 12.9793 18.9236C13.5419 18.361 14.3049 18.0449 15.1006 18.0449H22.1006V3.04492Z" stroke="#6D92F0" stroke-width="2" stroke-linecap="round" stroke-linejoin="round"/>
<path d="M2.10059 3.04492H8.10059C9.16145 3.04492 10.1789 3.46635 10.929 4.21649C11.6792 4.96664 12.1006 5.98406 12.1006 7.04492V21.0449C12.1006 20.2493 11.7845 19.4862 11.2219 18.9236C10.6593 18.361 9.89624 18.0449 9.10059 18.0449H2.10059V3.04492Z" stroke="#6D92F0" stroke-width="2" stroke-linecap="round" stroke-linejoin="round"/>
</svg>
