<svg width="24" height="24" viewBox="0 0 24 24" fill="none" xmlns="http://www.w3.org/2000/svg">
<path d="M20 9.53456C19.9968 10.7067 19.7048 11.8622 19.1469 12.91C18.5891 13.9579 17.7806 14.8695 16.7851 15.5731C16.7021 15.6336 16.6351 15.7115 16.5894 15.8006C16.5437 15.8896 16.5205 15.9875 16.5217 16.0864C16.5212 16.5206 16.3378 16.9369 16.0117 17.244C15.6857 17.551 15.2437 17.7237 14.7826 17.7242H9.21741C8.75632 17.7237 8.31426 17.551 7.98822 17.2439C7.66219 16.9368 7.47879 16.5205 7.47829 16.0862V16.0676C7.47662 15.9681 7.45023 15.8703 7.40123 15.7821C7.35223 15.6939 7.28198 15.6178 7.19611 15.5597C6.20645 14.865 5.40232 13.9625 4.84755 12.924C4.29278 11.8855 4.00263 10.7395 4.00012 9.57698C3.97629 5.49618 7.47872 2.09824 11.8078 2.00217C12.8742 1.97805 13.935 2.15504 14.9278 2.52274C15.9205 2.89043 16.8252 3.4414 17.5885 4.14324C18.3518 4.84507 18.9584 5.68359 19.3725 6.60947C19.7866 7.53535 20 8.52988 20 9.53456ZM17.913 9.53456C17.913 8.79189 17.7553 8.05673 17.4491 7.37232C17.143 6.68792 16.6945 6.06811 16.1302 5.54936C15.5659 5.03061 14.8972 4.6234 14.1633 4.3517C13.4294 4.08 12.6452 3.94929 11.8569 3.96727C8.65776 4.03811 6.06942 6.54978 6.08707 9.56609C6.08903 10.4255 6.30364 11.2727 6.71386 12.0405C7.12409 12.8082 7.71865 13.4753 8.45037 13.9889C8.74908 14.2001 8.99992 14.4655 9.18789 14.7694C9.37587 15.0734 9.49726 15.4098 9.54489 15.7587H14.4567C14.5023 15.4122 14.6214 15.0779 14.8067 14.7756C14.9921 14.4733 15.24 14.2091 15.5358 13.9987C16.2764 13.4826 16.8775 12.8095 17.2905 12.034C17.7034 11.2584 17.9167 10.4022 17.913 9.53456ZM12.9266 5.70101C12.7928 5.67185 12.6541 5.66789 12.5186 5.68933C12.3831 5.71078 12.2534 5.75721 12.1371 5.82597C12.0207 5.89473 11.9198 5.98446 11.8404 6.09002C11.7609 6.19557 11.7043 6.31487 11.6739 6.44106C11.6435 6.56725 11.6399 6.69785 11.6632 6.82537C11.6866 6.95289 11.7364 7.07482 11.8099 7.18415C11.8834 7.29348 11.9791 7.38807 12.0915 7.46249C12.2039 7.5369 12.3308 7.58967 12.4649 7.61778C12.8476 7.70077 13.1978 7.88347 13.4755 8.14501C13.7532 8.40655 13.9472 8.73638 14.0353 9.09682C14.0986 9.349 14.2651 9.56743 14.4985 9.70458C14.7319 9.84173 15.0134 9.88651 15.2817 9.82916C15.55 9.77182 15.7835 9.617 15.9312 9.39839C16.0789 9.17978 16.1289 8.91507 16.0704 8.66187C15.8941 7.94029 15.5058 7.27997 14.9498 6.75639C14.3939 6.23281 13.6928 5.86709 12.9266 5.70101Z" fill="#17AA63"/>
<path d="M9 17V19.5C9 20.8807 10.1193 22 11.5 22H12.5C13.8807 22 15 20.8807 15 19.5V17" stroke="#17AA63" stroke-width="2"/>
</svg>
