<svg width="35" height="35" viewBox="0 0 35 35" fill="none" xmlns="http://www.w3.org/2000/svg">
<rect x="0.998047" y="6.5" width="28" height="28" rx="14" fill="#C9AFFF"/>
<path d="M12.998 12.5C12.998 14.7418 13.1195 16.475 13.4191 17.8234C13.7163 19.1603 14.1752 20.0568 14.8082 20.6898C15.4413 21.3229 16.3377 21.7818 17.6747 22.0789C19.023 22.3786 20.7562 22.5 22.998 22.5C25.2398 22.5 26.9731 22.3786 28.3214 22.0789C29.6584 21.7818 30.5548 21.3229 31.1879 20.6898C31.8209 20.0568 32.2798 19.1603 32.577 17.8234C32.8766 16.475 32.998 14.7418 32.998 12.5C32.998 10.2582 32.8766 8.52497 32.577 7.17664C32.2798 5.83967 31.8209 4.94322 31.1879 4.31017C30.5548 3.67712 29.6584 3.21821 28.3214 2.92108C26.9731 2.62143 25.2398 2.5 22.998 2.5C20.7562 2.5 19.023 2.62143 17.6747 2.92108C16.3377 3.21821 15.4413 3.67712 14.8082 4.31017C14.1752 4.94322 13.7163 5.83967 13.4191 7.17664C13.1195 8.52497 12.998 10.2582 12.998 12.5Z" stroke="#392B4B" stroke-width="2" stroke-linecap="round" stroke-linejoin="round"/>
<path d="M22.998 7.5V17.5M27.998 11.5V17.5M17.998 13.5V17.5" stroke="#392B4B" stroke-width="2" stroke-linecap="round" stroke-linejoin="round"/>
</svg>
