<svg width="41" height="33" viewBox="0 0 41 33" fill="none" xmlns="http://www.w3.org/2000/svg">
<rect y="5" width="28" height="28" rx="14" fill="#DCDE6F"/>
<path d="M31.9 7.7998H26.5001" stroke="#392B4B" stroke-width="2" stroke-linecap="round" stroke-linejoin="round"/>
<path d="M40 9.57226V11.4262C40 11.9212 39.604 12.3262 39.1 12.3442H37.3361C36.3641 12.3442 35.4731 11.6332 35.3921 10.6612C35.3381 10.0942 35.5541 9.56326 35.9321 9.19427C36.2651 8.85227 36.7241 8.6543 37.2281 8.6543H39.1C39.604 8.6723 40 9.07727 40 9.57226Z" stroke="#392B4B" stroke-width="2" stroke-linecap="round" stroke-linejoin="round"/>
<path d="M35.9319 9.19495C35.5539 9.56394 35.3379 10.0949 35.3919 10.6619C35.4729 11.6339 36.3639 12.3449 37.3359 12.3449H39.0999V13.6498C39.0999 16.3498 37.2999 18.1497 34.6 18.1497H26.5001C23.8002 18.1497 22.0002 16.3498 22.0002 13.6498V7.34999C22.0002 4.90205 23.4762 3.19209 25.7712 2.9041C26.0052 2.8681 26.2481 2.8501 26.5001 2.8501H34.6C34.8339 2.8501 35.0589 2.85909 35.2749 2.89509C37.5969 3.16508 39.0999 4.88405 39.0999 7.34999V8.65497H37.2279C36.7239 8.65497 36.2649 8.85296 35.9319 9.19495Z" stroke="#392B4B" stroke-width="2" stroke-linecap="round" stroke-linejoin="round"/>
</svg>
