<svg width="42" height="34" viewBox="0 0 42 34" fill="none" xmlns="http://www.w3.org/2000/svg">
<rect x="0.998047" y="5.5" width="28" height="28" rx="14" fill="#FF7E62"/>
<path d="M39.1696 11.9142C39.9507 11.1332 39.9507 9.86684 39.1696 9.08579L33.4123 3.32842C32.6312 2.54738 31.3649 2.54738 30.5838 3.32843L24.8265 9.08579C24.0454 9.86684 24.0454 11.1332 24.8265 11.9142L30.5838 17.6716C31.3649 18.4526 32.6312 18.4526 33.4123 17.6716L39.1696 11.9142Z" stroke="#392B4B" stroke-width="2"/>
<path d="M25.998 2.5L21.5336 6.96447C19.581 8.91709 19.581 12.0829 21.5336 14.0355L25.998 18.5" stroke="#392B4B" stroke-width="2"/>
<path d="M18.998 4.5L17.9478 5.55025C15.2141 8.28392 15.2141 12.7161 17.9478 15.4497L18.998 16.5" stroke="#392B4B" stroke-width="2"/>
</svg>
