<svg width="36" height="36" viewBox="0 0 36 36" fill="none" xmlns="http://www.w3.org/2000/svg">
<rect x="0.998047" y="7.5" width="28" height="28" rx="14" fill="#38BF7E"/>
<path d="M14.998 18.5C14.998 19.2662 15.0888 19.7546 15.2461 20.0876C15.3849 20.3816 15.6071 20.6225 16.0489 20.8304C16.5248 21.0544 17.239 21.2305 18.3209 21.3436C19.3934 21.4558 20.7584 21.5 22.498 21.5C24.2377 21.5 25.6026 21.4558 26.6752 21.3436C27.7571 21.2305 28.4713 21.0544 28.9472 20.8304C29.389 20.6225 29.6112 20.3816 29.75 20.0876C29.9073 19.7546 29.998 19.2662 29.998 18.5C29.998 17.7338 29.9073 17.2454 29.75 16.9124C29.6112 16.6184 29.389 16.3775 28.9472 16.1696C28.4713 15.9456 27.7571 15.7695 26.6752 15.6564C25.6026 15.5442 24.2377 15.5 22.498 15.5C20.7584 15.5 19.3934 15.5442 18.3209 15.6564C17.239 15.7695 16.5248 15.9456 16.0489 16.1696C15.6071 16.3775 15.3849 16.6184 15.2461 16.9124C15.0888 17.2454 14.998 17.7338 14.998 18.5Z" stroke="#392B4B" stroke-width="2" stroke-linecap="round" stroke-linejoin="round"/>
<circle r="3.5" transform="matrix(-1 0 0 1 22.498 8)" stroke="#392B4B" stroke-width="2"/>
<path d="M28.5371 11.1163L29.9217 12.5009L33.614 8.80859" stroke="#392B4B" stroke-width="2" stroke-linecap="round" stroke-linejoin="round"/>
</svg>
