<svg width="35" height="35" viewBox="0 0 35 35" fill="none" xmlns="http://www.w3.org/2000/svg">
<rect x="0.998047" y="6.5" width="28" height="28" rx="14" fill="#FFC85F"/>
<path d="M27.1654 7.08398C26.957 4.86177 25.4987 3.33398 22.9987 3.33398C20.4987 3.33398 19.0404 4.86177 18.832 7.08398" stroke="#392B4B" stroke-width="2" stroke-linecap="round" stroke-linejoin="round"/>
<path d="M13.998 14.5833C13.998 17.8459 14.4665 19.3599 15.5306 20.2024C16.0862 20.6422 16.8983 20.9774 18.1347 21.1949C19.3716 21.4126 20.957 21.5 22.998 21.5C25.0391 21.5 26.6245 21.4126 27.8614 21.1949C29.0978 20.9774 29.9099 20.6422 30.4655 20.2024C31.5296 19.3599 31.998 17.8459 31.998 14.5833C31.998 12.6554 31.8371 11.3173 31.464 10.3647C31.0646 9.34489 30.4007 8.70681 29.152 8.28837C27.8209 7.8423 25.875 7.66667 22.998 7.66667C20.1211 7.66667 18.1752 7.8423 16.8441 8.28837C15.5954 8.70681 14.9315 9.34489 14.5321 10.3647C14.159 11.3173 13.998 12.6554 13.998 14.5833Z" stroke="#392B4B" stroke-width="2" stroke-linecap="round" stroke-linejoin="round"/>
</svg>
