<svg width="35" height="35" viewBox="0 0 35 35" fill="none" xmlns="http://www.w3.org/2000/svg">
<rect x="0.998047" y="6.5" width="28" height="28" rx="14" fill="#5ADCEE"/>
<circle cx="22.998" cy="12.5" r="2" stroke="#392B4B" stroke-width="2"/>
<path fill-rule="evenodd" clip-rule="evenodd" d="M23.998 1.5C23.998 0.947715 23.5503 0.5 22.998 0.5C22.4458 0.5 21.998 0.947715 21.998 1.5V5.5C21.998 5.5048 21.9981 5.50959 21.9981 5.51438C17.4053 5.65675 16.1548 6.90725 16.0124 11.5001C16.0076 11.5 16.0028 11.5 15.998 11.5H11.998C11.4458 11.5 10.998 11.9477 10.998 12.5C10.998 13.0523 11.4458 13.5 11.998 13.5H15.998C16.0028 13.5 16.0076 13.5 16.0124 13.4999C16.1548 18.0927 17.4053 19.3432 21.9981 19.4856C21.9981 19.4904 21.998 19.4952 21.998 19.5V23.5C21.998 24.0523 22.4458 24.5 22.998 24.5C23.5503 24.5 23.998 24.0523 23.998 23.5V19.5C23.998 19.4952 23.998 19.4904 23.9979 19.4856C28.5908 19.3432 29.8413 18.0927 29.9837 13.4999C29.9885 13.5 29.9932 13.5 29.998 13.5H33.998C34.5503 13.5 34.998 13.0523 34.998 12.5C34.998 11.9477 34.5503 11.5 33.998 11.5H29.998C29.9932 11.5 29.9885 11.5 29.9837 11.5001C29.8413 6.90725 28.5908 5.65675 23.9979 5.51438C23.998 5.50959 23.998 5.5048 23.998 5.5V1.5ZM17.998 12.5C17.998 13.8955 18.0754 14.8804 18.2335 15.5918C18.3866 16.2804 18.5874 16.5843 18.7506 16.7475C18.9137 16.9106 19.2176 17.1115 19.9063 17.2645C20.6177 17.4226 21.6026 17.5 22.998 17.5C24.3935 17.5 25.3784 17.4226 26.0898 17.2645C26.7785 17.1115 27.0824 16.9106 27.2455 16.7475C27.4086 16.5843 27.6095 16.2804 27.7626 15.5918C27.9207 14.8804 27.998 13.8955 27.998 12.5C27.998 11.1045 27.9207 10.1196 27.7626 9.40825C27.6095 8.71957 27.4086 8.41565 27.2455 8.25253C27.0824 8.0894 26.7785 7.88854 26.0898 7.73548C25.3784 7.57738 24.3935 7.5 22.998 7.5C21.6026 7.5 20.6177 7.57738 19.9063 7.73548C19.2176 7.88854 18.9137 8.0894 18.7506 8.25253C18.5874 8.41565 18.3866 8.71957 18.2335 9.40825C18.0754 10.1196 17.998 11.1045 17.998 12.5Z" fill="#392B4B"/>
</svg>
