<svg width="41" height="33" viewBox="0 0 41 33" fill="none" xmlns="http://www.w3.org/2000/svg">
<rect y="5" width="28" height="28" rx="14" fill="#6FDE9B"/>
<path d="M22 10.0833C22 13.3459 22.4684 14.8599 23.5326 15.7024C24.0881 16.1422 24.9003 16.4774 26.1366 16.6949C27.3735 16.9126 28.9589 17 31 17C33.0411 17 34.6265 16.9126 35.8634 16.6949C37.0997 16.4774 37.9119 16.1422 38.4674 15.7024C39.5316 14.8599 40 13.3459 40 10.0833C40 8.15544 39.839 6.81727 39.466 5.86469C39.0665 4.84489 38.4027 4.20681 37.154 3.78837C35.8228 3.3423 33.8769 3.16667 31 3.16667C28.1231 3.16667 26.1772 3.3423 24.846 3.78837C23.5973 4.20681 22.9335 4.84489 22.534 5.86469C22.161 6.81727 22 8.15544 22 10.0833Z" stroke="#392B4B" stroke-width="2" stroke-linecap="round" stroke-linejoin="round"/>
</svg>
