<svg width="42" height="33" viewBox="0 0 42 33" fill="none" xmlns="http://www.w3.org/2000/svg">
<rect y="5" width="28" height="28" rx="14" fill="#FFABCE"/>
<path d="M38.1421 1C39.2467 1 40.1421 1.89543 40.1421 3L40.1421 11.1421C40.1421 12.2467 39.2467 13.1421 38.1421 13.1421L30 13.1421C28.8954 13.1421 28 12.2467 28 11.1421L28 3C28 1.89543 28.8954 1 30 1L38.1421 1Z" stroke="#392B4B" stroke-width="2"/>
<path d="M36 13.6368V15.4544C36 16.8603 34.8603 18 33.4544 18L26.5456 18C25.1397 18 24 16.8603 24 15.4544L24 8.54558C24 7.1397 25.1397 6 26.5456 6L28 6" stroke="#392B4B" stroke-width="2"/>
</svg>
