<svg width="98" height="92" viewBox="0 0 98 92" fill="none" xmlns="http://www.w3.org/2000/svg">
<path d="M0 16C0 7.16345 7.16344 0 16 0H82C90.8366 0 98 7.16344 98 16V76C98 84.8366 90.8366 92 82 92H16C7.16344 92 0 84.8366 0 76V16Z" fill="#F6FEC6"/>
<path d="M50 43L47.4026 20M50 43H43M50 43L45.3182 49.1818M47.4026 20L47.1587 18.2929C46.8068 15.8297 44.6972 14 42.209 14H36.014C33.2471 14 31.0063 16.2471 31.014 19.0139L31.0669 38.0139C31.0746 40.7699 33.3109 43 36.0669 43H43M47.4026 20H61.935C64.6914 20 66.9279 22.2307 66.935 24.987L66.987 44.987C66.9942 47.7535 64.7535 50 61.987 50H47.2005C45.8476 50 44.6621 49.0945 44.3062 47.7894L43 43" stroke="#A177FF" stroke-width="2"/>
<path d="M36 34L36.8333 29.7143M43 34L42.1667 29.7143M42.1667 29.7143L40.8893 23.1452C40.76 22.4801 40.1775 22 39.5 22V22C38.8225 22 38.24 22.4801 38.1107 23.1452L36.8333 29.7143M42.1667 29.7143H36.8333" stroke="#E2D5FF" stroke-width="2" stroke-linecap="round"/>
<path d="M53 31H54.6667M63 31H61.3333M58 31L58 29M58 31H61.3333M58 31H54.6667M61.3333 31C60.6389 33.0952 58.3333 38.1143 54 40M54.6667 31C55.0833 32.8333 58.25 38.0357 62 40" stroke="#E2D5FF" stroke-width="2" stroke-linecap="round"/>
<path d="M30.5114 74.884C29.7554 74.6787 29.186 74.3333 28.8034 73.848C28.43 73.3533 28.2434 72.784 28.2434 72.14C28.2434 71.72 28.3227 71.3327 28.4814 70.978C28.64 70.614 28.8734 70.3013 29.1814 70.04C29.4894 69.7787 29.872 69.5733 30.3294 69.424C30.796 69.2747 31.3374 69.2 31.9534 69.2H35.3834V79H34.0674V75.052H31.7994L29.3074 79H27.8234L30.5114 74.884ZM29.5594 72.14C29.5594 72.672 29.7554 73.106 30.1474 73.442C30.5394 73.7687 31.188 73.932 32.0934 73.932H34.0674V70.348H32.0934C31.188 70.348 30.5394 70.516 30.1474 70.852C29.7554 71.1787 29.5594 71.608 29.5594 72.14ZM40.4173 79.14C39.484 79.14 38.7513 78.944 38.2193 78.552C37.6873 78.16 37.3933 77.6093 37.3373 76.9H38.5693C38.6347 77.264 38.826 77.544 39.1433 77.74C39.47 77.9267 39.8947 78.02 40.4173 78.02C41.0613 78.02 41.528 77.9127 41.8173 77.698C42.116 77.474 42.2653 77.208 42.2653 76.9C42.2653 76.536 42.144 76.2513 41.9013 76.046C41.6587 75.8313 41.2387 75.724 40.6413 75.724H39.3673V74.716H40.5573C41.0707 74.716 41.4347 74.618 41.6493 74.422C41.8733 74.226 41.9853 73.9507 41.9853 73.596C41.9853 73.316 41.8547 73.0733 41.5933 72.868C41.332 72.6627 40.94 72.56 40.4173 72.56C39.848 72.56 39.4327 72.6533 39.1713 72.84C38.9193 73.0173 38.7653 73.274 38.7093 73.61H37.4773C37.5053 73.302 37.5893 73.0173 37.7293 72.756C37.8787 72.4853 38.0793 72.252 38.3313 72.056C38.5833 71.86 38.882 71.7107 39.2273 71.608C39.582 71.496 39.9787 71.44 40.4173 71.44C40.8933 71.44 41.304 71.496 41.6493 71.608C42.004 71.7107 42.298 71.86 42.5313 72.056C42.7647 72.2427 42.9373 72.4667 43.0493 72.728C43.1613 72.9893 43.2173 73.2787 43.2173 73.596C43.2173 73.9507 43.1287 74.2633 42.9513 74.534C42.774 74.7953 42.4893 75.0007 42.0973 75.15C42.62 75.29 42.984 75.514 43.1893 75.822C43.3947 76.13 43.4973 76.4893 43.4973 76.9C43.4973 77.208 43.432 77.4973 43.3013 77.768C43.1707 78.0387 42.9747 78.2767 42.7133 78.482C42.4613 78.678 42.1393 78.8367 41.7473 78.958C41.3647 79.0793 40.9213 79.14 40.4173 79.14ZM45.2528 71.58H46.4848V74.38H47.9828C48.9161 74.38 49.6021 74.5853 50.0408 74.996C50.4888 75.4067 50.7128 75.976 50.7128 76.704C50.7128 77.4133 50.4888 77.9733 50.0408 78.384C49.6021 78.7947 48.9161 79 47.9828 79H45.2528V71.58ZM47.9128 77.908C48.4915 77.908 48.8975 77.8053 49.1308 77.6C49.3641 77.3947 49.4808 77.0913 49.4808 76.69C49.4808 76.2887 49.3641 75.9853 49.1308 75.78C48.8975 75.5747 48.4915 75.472 47.9128 75.472H46.4848V77.908H47.9128ZM51.8608 71.58H53.0928V79H51.8608V71.58ZM55.329 71.58H56.561V74.688H57.541L60.313 71.58H61.769L58.549 75.136L61.909 79H60.341L57.541 75.752H56.561V79H55.329V71.58ZM63.3817 71.58H64.6137V77.18L68.4497 71.58H69.6817V79H68.4497V73.4L64.6137 79H63.3817V71.58Z" fill="#1B273A"/>
</svg>
