<svg width="40" height="40" viewBox="0 0 40 40" fill="none" xmlns="http://www.w3.org/2000/svg">
<rect width="40" height="40" rx="20" fill="white"/>
<path fill-rule="evenodd" clip-rule="evenodd" d="M20 13C19.6604 12.6088 19.2646 12.2673 18.8278 11.9824C17.8627 11.3528 16.6979 11 15.5 11C12.42 11 10 13.3738 10 16.3951C10 17.4686 10.2557 18.488 10.6938 19.4578C12.0526 22.4686 15.1658 25.0093 17.8455 27.1963C18.617 27.8259 19.3526 28.4262 20 29C20.6474 28.4262 21.383 27.8259 22.1545 27.1963C24.8342 25.0093 27.9473 22.4687 29.3061 19.458C29.7442 18.4881 30 17.4687 30 16.3951C30 13.3738 27.58 11 24.5 11C23.3021 11 22.1373 11.3528 21.1722 11.9824C20.7354 12.2673 20.3396 12.6088 20 13Z" fill="#A177FF"/>
</svg>
