<svg width="77" height="40" viewBox="0 0 77 40" fill="none" xmlns="http://www.w3.org/2000/svg">
<rect width="77" height="40" rx="20" fill="#F3A919"/>
<path d="M24.6701 25.1769L24.335 26.1191L24.6701 25.1769C24.2367 25.0228 23.7633 25.0228 23.3299 25.1769L19.1619 26.6591L19.2835 22.2371C19.2962 21.7772 19.1499 21.3271 18.8694 20.9625L16.1718 17.4565L20.415 16.2056C20.8562 16.0756 21.2391 15.7974 21.4992 15.4179L24 11.7689L26.5008 15.4179C26.7609 15.7974 27.1438 16.0756 27.585 16.2056L31.8282 17.4565L29.1306 20.9625C28.8501 21.3271 28.7038 21.7772 28.7165 22.2371L28.8381 26.6591L24.6701 25.1769Z" fill="url(#paint0_linear)" stroke="url(#paint1_linear)" stroke-width="2"/>
<path d="M45.6 23.632H40.32V21.968L45.6 14.8H48V21.648H49.28V23.632H48V26H45.6V23.632ZM45.6 21.648V17.472L42.56 21.648H45.6ZM51.4069 26V23.92H53.6469V26L51.8549 28.56H50.7669L51.4069 26ZM60.2 26.192C59.496 26.192 58.872 26.0907 58.328 25.888C57.784 25.6853 57.3253 25.3707 56.952 24.944C56.5787 24.5067 56.2907 23.952 56.088 23.28C55.896 22.608 55.8 21.808 55.8 20.88V20.56C55.8 19.4933 55.912 18.5867 56.136 17.84C56.36 17.0827 56.6747 16.464 57.08 15.984C57.4853 15.504 57.9653 15.1573 58.52 14.944C59.0853 14.72 59.6987 14.608 60.36 14.608C61.3947 14.608 62.232 14.8267 62.872 15.264C63.512 15.7013 63.9013 16.4267 64.04 17.44H61.8C61.5867 16.896 61.08 16.624 60.28 16.624C59.9707 16.624 59.6827 16.672 59.416 16.768C59.16 16.8533 58.9307 17.0187 58.728 17.264C58.536 17.4987 58.3813 17.824 58.264 18.24C58.1467 18.656 58.072 19.1893 58.04 19.84C58.1787 19.6267 58.3493 19.4507 58.552 19.312C58.7547 19.1627 58.9733 19.0453 59.208 18.96C59.4533 18.864 59.704 18.7947 59.96 18.752C60.2267 18.7093 60.4933 18.688 60.76 18.688C61.8907 18.688 62.76 18.9973 63.368 19.616C63.976 20.224 64.28 21.088 64.28 22.208V22.384C64.28 22.9493 64.1787 23.4667 63.976 23.936C63.7733 24.4053 63.4907 24.8107 63.128 25.152C62.776 25.4827 62.3493 25.7387 61.848 25.92C61.3467 26.1013 60.7973 26.192 60.2 26.192ZM60.04 24.176C60.616 24.176 61.064 24.016 61.384 23.696C61.7147 23.3653 61.88 22.944 61.88 22.432V22.272C61.88 21.76 61.7147 21.344 61.384 21.024C61.064 20.704 60.616 20.544 60.04 20.544C59.464 20.544 59.0107 20.704 58.68 21.024C58.36 21.344 58.2 21.76 58.2 22.272V22.432C58.2 22.944 58.36 23.3653 58.68 23.696C59.0107 24.016 59.464 24.176 60.04 24.176Z" fill="white"/>
<defs>
<linearGradient id="paint0_linear" x1="14.5" y1="18" x2="27.5" y2="18" gradientUnits="userSpaceOnUse">
<stop offset="0.9999" stop-color="#FFD25E"/>
<stop offset="1" stop-color="#FFB800" stop-opacity="0"/>
</linearGradient>
<linearGradient id="paint1_linear" x1="34" y1="17" x2="27.5" y2="17" gradientUnits="userSpaceOnUse">
<stop offset="0.9999" stop-color="#C28919"/>
<stop offset="1" stop-color="#CBCBCB" stop-opacity="0"/>
</linearGradient>
</defs>
</svg>
