<svg width="24" height="24" viewBox="0 0 24 24" fill="none" xmlns="http://www.w3.org/2000/svg">
<path d="M9.43501 11.55L8.47719 11.2626L9.43501 11.55ZM7.837 12.0308L7.19682 12.7991L7.837 12.0308ZM12.9578 6.19275L12 6.4801L12.9578 6.19275ZM11.0422 6.19275L12 6.4801L11.0422 6.19275ZM19.1493 18.1789L20.1332 18.3578L19.1493 18.1789ZM3.49296 10.7113L2.50909 10.8902L3.49296 10.7113ZM2.50909 10.8902L3.86684 18.3578L5.83458 18L4.47683 10.5324L2.50909 10.8902ZM5.83458 20H18.1654V18H5.83458V20ZM20.1332 18.3578L21.4909 10.8902L19.5232 10.5324L18.1654 18L20.1332 18.3578ZM18.2428 8.99596L15.5228 11.2626L16.8032 12.7991L19.5232 10.5324L18.2428 8.99596ZM15.5228 11.2626L13.9157 5.90541L12 6.4801L13.6072 11.8373L15.5228 11.2626ZM10.0843 5.90541L8.47719 11.2626L10.3928 11.8373L12 6.4801L10.0843 5.90541ZM8.47719 11.2626L5.7572 8.99596L4.47683 10.5324L7.19682 12.7991L8.47719 11.2626ZM8.47719 11.2626L7.19682 12.7991C8.29879 13.7174 9.98065 13.2113 10.3928 11.8373L8.47719 11.2626ZM13.9157 5.90541C13.3455 4.005 10.6545 4.005 10.0843 5.90541L12 6.4801V6.4801L13.9157 5.90541ZM15.5228 11.2626H15.5228L13.6072 11.8373C14.0193 13.2113 15.7012 13.7174 16.8032 12.7991L15.5228 11.2626ZM21.4909 10.8902C21.8253 9.0512 19.6787 7.79936 18.2428 8.99596L19.5232 10.5324V10.5324L21.4909 10.8902ZM18.1654 20C19.132 20 19.9603 19.3088 20.1332 18.3578L18.1654 18V20ZM3.86684 18.3578C4.03974 19.3088 4.868 20 5.83458 20V18L5.83458 18L3.86684 18.3578ZM4.47683 10.5324L4.47683 10.5324L5.7572 8.99596C4.32128 7.79936 2.17473 9.05119 2.50909 10.8902L4.47683 10.5324Z" fill="#D0C2DE"/>
</svg>
