<svg width="98" height="92" viewBox="0 0 98 92" fill="none" xmlns="http://www.w3.org/2000/svg">
<path d="M43 26.5C43.4898 24.3182 44.5306 22.5455 46 22" stroke="#E2D5FF" stroke-width="2"/>
<path d="M55 26.5C54.5102 24.3182 53.4694 22.5455 52 22" stroke="#E2D5FF" stroke-width="2"/>
<circle cx="49" cy="19" r="4" stroke="#E2D5FF" stroke-width="2"/>
<circle cx="49" cy="19" r="10" stroke="#A177FF" stroke-width="2"/>
<path d="M56 52.5C56.4898 50.3182 57.5306 48.5455 59 48" stroke="#E2D5FF" stroke-width="2"/>
<path d="M68 52.5C67.5102 50.3182 66.4694 48.5455 65 48" stroke="#E2D5FF" stroke-width="2"/>
<circle cx="62" cy="45" r="4" stroke="#E2D5FF" stroke-width="2"/>
<circle cx="62" cy="45" r="10" stroke="#A177FF" stroke-width="2"/>
<path d="M30 52.5C30.4898 50.3182 31.5306 48.5455 33 48" stroke="#E2D5FF" stroke-width="2"/>
<path d="M42 52.5C41.5102 50.3182 40.4694 48.5455 39 48" stroke="#E2D5FF" stroke-width="2"/>
<circle cx="36" cy="45" r="4" stroke="#E2D5FF" stroke-width="2"/>
<circle cx="36" cy="45" r="10" stroke="#A177FF" stroke-width="2"/>
<path d="M49 29V35M49 35L44 38M49 35L54 38" stroke="#A177FF" stroke-width="2"/>
<path d="M5.34434 69.2H6.71634L9.99234 75.43L13.2683 69.2H14.5843V79H13.2683V71.58L10.4543 76.9H9.47434L6.66034 71.58V79H5.34434V69.2ZM20.1893 79.14C19.7133 79.14 19.2606 79.0653 18.8313 78.916C18.4019 78.7667 18.0239 78.538 17.6973 78.23C17.3706 77.9127 17.1093 77.516 16.9133 77.04C16.7173 76.564 16.6193 76.004 16.6193 75.36V75.08C16.6193 74.464 16.7126 73.932 16.8993 73.484C17.0859 73.0267 17.3333 72.6487 17.6413 72.35C17.9586 72.042 18.3226 71.8133 18.7333 71.664C19.1533 71.5147 19.5919 71.44 20.0493 71.44C21.1413 71.44 21.9859 71.7387 22.5833 72.336C23.1806 72.9333 23.4793 73.778 23.4793 74.87V75.654H17.8513C17.8513 76.0927 17.9213 76.4613 18.0613 76.76C18.2013 77.0587 18.3833 77.3013 18.6073 77.488C18.8313 77.6747 19.0786 77.81 19.3493 77.894C19.6293 77.978 19.9093 78.02 20.1893 78.02C20.7493 78.02 21.1786 77.9267 21.4773 77.74C21.7853 77.5533 22.0046 77.2967 22.1353 76.97H23.3393C23.2646 77.3247 23.1293 77.6373 22.9333 77.908C22.7466 78.1787 22.5133 78.4073 22.2333 78.594C21.9626 78.7713 21.6499 78.9067 21.2953 79C20.9499 79.0933 20.5813 79.14 20.1893 79.14ZM20.1193 72.56C19.8299 72.56 19.5499 72.602 19.2793 72.686C19.0086 72.7607 18.7659 72.8867 18.5513 73.064C18.3459 73.232 18.1779 73.4467 18.0473 73.708C17.9166 73.9693 17.8513 74.282 17.8513 74.646H22.3173C22.3079 74.2633 22.2426 73.9413 22.1213 73.68C22.0093 73.4093 21.8553 73.1947 21.6593 73.036C21.4633 72.868 21.2299 72.7467 20.9593 72.672C20.6979 72.5973 20.4179 72.56 20.1193 72.56ZM25.2304 71.58H26.4624V74.674H30.2984V71.58H31.5304V79H30.2984V75.766H26.4624V79H25.2304V71.58ZM36.8553 79.14C36.3793 79.14 35.9266 79.0653 35.4973 78.916C35.0679 78.7667 34.6899 78.538 34.3633 78.23C34.0366 77.9127 33.7753 77.516 33.5793 77.04C33.3833 76.564 33.2853 76.004 33.2853 75.36V75.08C33.2853 74.464 33.3786 73.932 33.5653 73.484C33.7519 73.0267 33.9993 72.6487 34.3073 72.35C34.6246 72.042 34.9886 71.8133 35.3993 71.664C35.8193 71.5147 36.2579 71.44 36.7153 71.44C37.8073 71.44 38.6519 71.7387 39.2493 72.336C39.8466 72.9333 40.1453 73.778 40.1453 74.87V75.654H34.5173C34.5173 76.0927 34.5873 76.4613 34.7273 76.76C34.8673 77.0587 35.0493 77.3013 35.2733 77.488C35.4973 77.6747 35.7446 77.81 36.0153 77.894C36.2953 77.978 36.5753 78.02 36.8553 78.02C37.4153 78.02 37.8446 77.9267 38.1433 77.74C38.4513 77.5533 38.6706 77.2967 38.8013 76.97H40.0053C39.9306 77.3247 39.7953 77.6373 39.5993 77.908C39.4126 78.1787 39.1793 78.4073 38.8993 78.594C38.6286 78.7713 38.3159 78.9067 37.9613 79C37.6159 79.0933 37.2473 79.14 36.8553 79.14ZM36.7853 72.56C36.4959 72.56 36.2159 72.602 35.9453 72.686C35.6746 72.7607 35.4319 72.8867 35.2173 73.064C35.0119 73.232 34.8439 73.4467 34.7133 73.708C34.5826 73.9693 34.5173 74.282 34.5173 74.646H38.9833C38.9739 74.2633 38.9086 73.9413 38.7873 73.68C38.6753 73.4093 38.5213 73.1947 38.3253 73.036C38.1293 72.868 37.8959 72.7467 37.6253 72.672C37.3639 72.5973 37.0839 72.56 36.7853 72.56ZM40.9196 77.908H41.8296C41.9323 77.768 42.0256 77.5533 42.1096 77.264C42.1936 76.9747 42.2683 76.634 42.3336 76.242C42.399 75.85 42.4456 75.4253 42.4736 74.968C42.511 74.5013 42.5296 74.0253 42.5296 73.54V71.58H47.7096V77.908H48.7596V80.75H47.5836V79H42.0956V80.75H40.9196V77.908ZM46.4776 77.908V72.672H43.7336V73.82C43.7336 74.212 43.7196 74.604 43.6916 74.996C43.6636 75.3787 43.6216 75.7473 43.5656 76.102C43.5096 76.4473 43.4396 76.7787 43.3556 77.096C43.281 77.404 43.1923 77.6747 43.0896 77.908H46.4776ZM52.4029 75.178L49.7429 71.58H51.1149L53.3829 74.688H54.2369V71.58H55.4689V74.688H56.3089L58.6189 71.58H59.9629L57.3029 75.136L60.1029 79H58.6469L56.3089 75.752H55.4689V79H54.2369V75.752H53.3829L51.0309 79H49.6029L52.4029 75.178ZM61.5702 71.58H62.8862L65.5322 76.2L68.1782 71.58H69.4102V79H68.1782V73.61L65.9802 77.39H65.0002L62.8022 73.61V79H61.5702V71.58ZM74.7264 79.14C74.2504 79.14 73.7977 79.0653 73.3684 78.916C72.939 78.7667 72.561 78.538 72.2344 78.23C71.9077 77.9127 71.6464 77.516 71.4504 77.04C71.2544 76.564 71.1564 76.004 71.1564 75.36V75.08C71.1564 74.464 71.2497 73.932 71.4364 73.484C71.623 73.0267 71.8704 72.6487 72.1784 72.35C72.4957 72.042 72.8597 71.8133 73.2704 71.664C73.6904 71.5147 74.129 71.44 74.5864 71.44C75.6784 71.44 76.523 71.7387 77.1204 72.336C77.7177 72.9333 78.0164 73.778 78.0164 74.87V75.654H72.3884C72.3884 76.0927 72.4584 76.4613 72.5984 76.76C72.7384 77.0587 72.9204 77.3013 73.1444 77.488C73.3684 77.6747 73.6157 77.81 73.8864 77.894C74.1664 77.978 74.4464 78.02 74.7264 78.02C75.2864 78.02 75.7157 77.9267 76.0144 77.74C76.3224 77.5533 76.5417 77.2967 76.6724 76.97H77.8764C77.8017 77.3247 77.6664 77.6373 77.4704 77.908C77.2837 78.1787 77.0504 78.4073 76.7704 78.594C76.4997 78.7713 76.187 78.9067 75.8324 79C75.487 79.0933 75.1184 79.14 74.7264 79.14ZM74.6564 72.56C74.367 72.56 74.087 72.602 73.8164 72.686C73.5457 72.7607 73.303 72.8867 73.0884 73.064C72.883 73.232 72.715 73.4467 72.5844 73.708C72.4537 73.9693 72.3884 74.282 72.3884 74.646H76.8544C76.845 74.2633 76.7797 73.9413 76.6584 73.68C76.5464 73.4093 76.3924 73.1947 76.1964 73.036C76.0004 72.868 75.767 72.7467 75.4964 72.672C75.235 72.5973 74.955 72.56 74.6564 72.56ZM79.7675 71.58H80.9995V74.674H84.8355V71.58H86.0675V79H84.8355V75.766H80.9995V79H79.7675V71.58ZM90.0064 72.672H87.4724V71.58H93.7724V72.672H91.2384V79H90.0064V72.672Z" fill="#1B273A"/>
</svg>
