<svg width="20" height="20" viewBox="0 0 20 20" fill="none" xmlns="http://www.w3.org/2000/svg">
<path d="M7.3278 16.8746L7.32757 16.8744C4.99052 14.6272 2.6488 11.2737 3.52093 7.42643C4.2891 4.04648 7.23779 2.50008 9.89167 2.50008H9.89172H9.89177H9.89182H9.89187H9.89192H9.89196H9.89201H9.89206H9.89211H9.89215H9.8922H9.89225H9.89229H9.89234H9.89238H9.89243H9.89248H9.89252H9.89257H9.89261H9.89266H9.8927H9.89275H9.89279H9.89284H9.89288H9.89292H9.89297H9.89301H9.89305H9.8931H9.89314H9.89318H9.89323H9.89327H9.89331H9.89335H9.89339H9.89344H9.89348H9.89352H9.89356H9.8936H9.89364H9.89368H9.89372H9.89376H9.8938H9.89384H9.89388H9.89392H9.89396H9.894H9.89404H9.89408H9.89412H9.89416H9.8942H9.89424H9.89427H9.89431H9.89435H9.89439H9.89442H9.89446H9.8945H9.89454H9.89457H9.89461H9.89465H9.89468H9.89472H9.89475H9.89479H9.89483H9.89486H9.8949H9.89493H9.89497H9.895H9.89504H9.89507H9.8951H9.89514H9.89517H9.89521H9.89524H9.89527H9.89531H9.89534H9.89537H9.89541H9.89544H9.89547H9.8955H9.89554H9.89557H9.8956H9.89563H9.89566H9.8957H9.89573H9.89576H9.89579H9.89582H9.89585H9.89588H9.89591H9.89594H9.89597H9.896H9.89603H9.89606H9.89609H9.89612H9.89615H9.89618H9.89621H9.89624H9.89627H9.8963H9.89632H9.89635H9.89638H9.89641H9.89644H9.89646H9.89649H9.89652H9.89655H9.89657H9.8966H9.89663H9.89665H9.89668H9.89671H9.89673H9.89676H9.89678H9.89681H9.89684H9.89686H9.89689H9.89691H9.89694H9.89696H9.89699H9.89701H9.89704H9.89706H9.89709H9.89711H9.89713H9.89716H9.89718H9.89721H9.89723H9.89725H9.89728H9.8973H9.89732H9.89734H9.89737H9.89739H9.89741H9.89743H9.89746H9.89748H9.8975H9.89752H9.89754H9.89757H9.89759H9.89761H9.89763H9.89765H9.89767H9.89769H9.89771H9.89773H9.89776H9.89778H9.8978H9.89782H9.89784H9.89786H9.89788H9.89789H9.89791H9.89793H9.89795H9.89797H9.89799H9.89801H9.89803H9.89805H9.89807H9.89808H9.8981H9.89812H9.89814H9.89816H9.89817H9.89819H9.89821H9.89823H9.89824H9.89826H9.89828H9.8983H9.89831H9.89833H9.89835H9.89836H9.89838H9.8984H9.89841H9.89843H9.89845H9.89846H9.89848H9.89849H9.89851H9.89852H9.89854H9.89855H9.89857H9.89858H9.8986H9.89861H9.89863H9.89864H9.89866H9.89867H9.89869H9.8987H9.89872H9.89873H9.89874H9.89876H9.89877H9.89878H9.8988H9.89881H9.89882H9.89884H9.89885H9.89886H9.89888H9.89889H9.8989H9.89892H9.89893H9.89894H9.89895H9.89896H9.89898H9.89899H9.899H9.89901H9.89902H9.89904H9.89905H9.89906H9.89907H9.89908H9.89909H9.8991H9.89912H9.89913H9.89914H9.89915H9.89916H9.89917H9.89918H9.89919H9.8992H9.89921H9.89922H9.89923H9.89924H9.89925H9.89926H9.89927H9.89928H9.89929H9.8993H9.89931H9.89932H9.89933H9.89934H9.89935H9.89935H9.89936H9.89937H9.89938H9.89939H9.8994H9.89941H9.89942H9.89942H9.89943H9.89944H9.89945H9.89946H9.89946H9.89947H9.89948H9.89949H9.89949H9.8995H9.89951H9.89952H9.89952H9.89953H9.89954H9.89955H9.89955H9.89956H9.89957H9.89957H9.89958H9.89959H9.89959H9.8996H9.89961H9.89961H9.89962H9.89963H9.89963H9.89964H9.89964H9.89965H9.89966H9.89966H9.89967H9.89967H9.89968H9.89968H9.89969H9.8997H9.8997H9.89971H9.89971H9.89972H9.89972H9.89973H9.89973H9.89974H9.89974H9.89975H9.89975H9.89976H9.89976H9.89977H9.89977H9.89978H9.89978H9.89978H9.89979H9.89979H9.8998H9.8998H9.89981H9.89981H9.89981H9.89982H9.89982H9.89982H9.89983H9.89983H9.89984H9.89984H9.89985H9.89985H9.89986H9.89986H9.89987H9.89988H9.89988H9.89989H9.89989H9.8999H9.8999H9.89991H9.89991H9.89992H9.89992H9.89993H9.89993H9.89994H9.89994H9.89994H9.89995H9.89995H9.89996H9.89996H9.89997H9.89997H9.89998H9.89998H9.89998H9.89999H9.89999H9.9H9.9H9.90001C12.5599 2.50008 15.5019 4.05287 16.2706 7.43436C17.1429 11.2814 14.8018 14.6266 12.4641 16.8744L12.4641 16.8744L12.461 16.8773C11.7475 17.5705 10.8249 17.9167 9.90001 17.9167C8.97579 17.9167 8.05135 17.5709 7.3278 16.8746Z" stroke="#615473" stroke-width="1.66667"/>
<path d="M9.90003 11.4C8.46375 11.4 7.30001 10.2363 7.30001 8.80002C7.30001 7.36377 8.46375 6.20003 9.90003 6.20003C11.3363 6.20003 12.5 7.36376 12.5 8.80002C12.5 10.2363 11.3363 11.4 9.90003 11.4Z" stroke="#615473" stroke-width="1.66667"/>
</svg>
