<svg width="59" height="24" viewBox="0 0 59 24" fill="none" xmlns="http://www.w3.org/2000/svg">
<path d="M15.5 7.18322L16.6671 8.99965C16.9201 9.39347 17.3033 9.68605 17.7498 9.82646L19.8227 10.4782L18.4528 12.3774C18.1967 12.7323 18.0642 13.1615 18.0755 13.599L18.1356 15.9301L16.2093 15.1994C15.7523 15.0261 15.2477 15.0261 14.7907 15.1994L12.8644 15.9301L12.9245 13.599C12.9358 13.1615 12.8033 12.7323 12.5472 12.3774L11.1773 10.4782L13.2502 9.82646C13.6967 9.68605 14.0799 9.39346 14.3329 8.99965L15.5 7.18322Z" fill="url(#paint0_linear_2_1168)" stroke="url(#paint1_linear_2_1168)" stroke-width="2"/>
<path d="M31.2 14.224H27.24V12.976L31.2 7.6H33V12.736H33.96V14.224H33V16H31.2V14.224ZM31.2 12.736V9.604L28.92 12.736H31.2ZM35.5552 16V14.44H37.2352V16L35.8912 17.92H35.0752L35.5552 16ZM42.15 16.144C41.622 16.144 41.154 16.068 40.746 15.916C40.338 15.764 39.994 15.528 39.714 15.208C39.434 14.88 39.218 14.464 39.066 13.96C38.922 13.456 38.85 12.856 38.85 12.16V11.92C38.85 11.12 38.934 10.44 39.102 9.88C39.27 9.312 39.506 8.848 39.81 8.488C40.114 8.128 40.474 7.868 40.89 7.708C41.314 7.54 41.774 7.456 42.27 7.456C43.046 7.456 43.674 7.62 44.154 7.948C44.634 8.276 44.926 8.82 45.03 9.58H43.35C43.19 9.172 42.81 8.968 42.21 8.968C41.978 8.968 41.762 9.004 41.562 9.076C41.37 9.14 41.198 9.264 41.046 9.448C40.902 9.624 40.786 9.868 40.698 10.18C40.61 10.492 40.554 10.892 40.53 11.38C40.634 11.22 40.762 11.088 40.914 10.984C41.066 10.872 41.23 10.784 41.406 10.72C41.59 10.648 41.778 10.596 41.97 10.564C42.17 10.532 42.37 10.516 42.57 10.516C43.418 10.516 44.07 10.748 44.526 11.212C44.982 11.668 45.21 12.316 45.21 13.156V13.288C45.21 13.712 45.134 14.1 44.982 14.452C44.83 14.804 44.618 15.108 44.346 15.364C44.082 15.612 43.762 15.804 43.386 15.94C43.01 16.076 42.598 16.144 42.15 16.144ZM42.03 14.632C42.462 14.632 42.798 14.512 43.038 14.272C43.286 14.024 43.41 13.708 43.41 13.324V13.204C43.41 12.82 43.286 12.508 43.038 12.268C42.798 12.028 42.462 11.908 42.03 11.908C41.598 11.908 41.258 12.028 41.01 12.268C40.77 12.508 40.65 12.82 40.65 13.204V13.324C40.65 13.708 40.77 14.024 41.01 14.272C41.258 14.512 41.598 14.632 42.03 14.632Z" fill="#392B4B"/>
<rect x="0.5" y="0.5" width="58" height="23" rx="7.5" stroke="#F3A919"/>
<defs>
<linearGradient id="paint0_linear_2_1168" x1="9.5625" y1="10.6666" x2="17.6875" y2="10.6666" gradientUnits="userSpaceOnUse">
<stop offset="0.9999" stop-color="#FFAA04"/>
<stop offset="1" stop-color="#FFB800" stop-opacity="0"/>
</linearGradient>
<linearGradient id="paint1_linear_2_1168" x1="21.75" y1="9.99992" x2="17.6875" y2="9.99992" gradientUnits="userSpaceOnUse">
<stop offset="0.9999" stop-color="#DCDCDC"/>
<stop offset="1" stop-color="#CBCBCB" stop-opacity="0"/>
</linearGradient>
</defs>
</svg>
