<svg width="418" height="389" viewBox="0 0 418 389" fill="none" xmlns="http://www.w3.org/2000/svg">
<path fill-rule="evenodd" clip-rule="evenodd" d="M133.559 175.544L129.334 173.105L132.662 171.184L136.887 173.623C137.807 174.153 137.807 175.014 136.887 175.544C135.968 176.075 134.478 176.075 133.559 175.544ZM142.01 178.502C142.929 177.971 144.419 177.971 145.338 178.502L153.789 183.38C154.708 183.911 154.708 184.771 153.789 185.302C152.87 185.832 151.38 185.832 150.461 185.302L142.01 180.423C141.091 179.892 141.091 179.032 142.01 178.502ZM158.911 188.259C159.83 187.728 161.321 187.728 162.24 188.259L170.69 193.137C171.61 193.668 171.61 194.528 170.69 195.059C169.771 195.589 168.281 195.589 167.362 195.059L158.911 190.18C157.992 189.65 157.992 188.789 158.911 188.259ZM175.813 198.016C176.732 197.485 178.222 197.485 179.141 198.016L187.592 202.895C188.511 203.425 188.511 204.285 187.592 204.816C186.673 205.347 185.183 205.347 184.264 204.816L175.813 199.937C174.894 199.407 174.894 198.547 175.813 198.016ZM192.714 207.773C193.633 207.243 195.124 207.243 196.043 207.773L204.493 212.652C205.412 213.182 205.412 214.043 204.493 214.573C203.574 215.104 202.084 215.104 201.165 214.573L192.714 209.695C191.795 209.164 191.795 208.304 192.714 207.773ZM209.616 217.53C210.535 217 212.025 217 212.944 217.53L221.395 222.409C222.314 222.94 222.314 223.8 221.395 224.33C220.476 224.861 218.986 224.861 218.067 224.33L209.616 219.452C208.697 218.921 208.697 218.061 209.616 217.53ZM226.517 227.288C227.436 226.757 228.926 226.757 229.846 227.288L238.296 232.166C239.215 232.697 239.215 233.557 238.296 234.088C237.377 234.618 235.887 234.618 234.968 234.088L226.517 229.209C225.598 228.678 225.598 227.818 226.517 227.288ZM243.419 237.045C244.338 236.514 245.828 236.514 246.747 237.045L255.198 241.923C256.117 242.454 256.117 243.314 255.198 243.845C254.279 244.375 252.789 244.375 251.869 243.845L243.419 238.966C242.5 238.436 242.5 237.575 243.419 237.045ZM260.32 246.802C261.239 246.271 262.729 246.271 263.649 246.802L267.874 249.241L264.546 251.163L260.32 248.723C259.401 248.193 259.401 247.333 260.32 246.802Z" fill="url(#paint0_linear)"/>
<path fill-rule="evenodd" clip-rule="evenodd" d="M161.854 334.358L158.02 336.572L155 334.828L158.834 332.615C159.668 332.133 161.02 332.133 161.854 332.615C162.688 333.096 162.688 333.877 161.854 334.358ZM166.502 329.931C165.668 329.45 165.668 328.669 166.502 328.188L174.17 323.761C175.004 323.28 176.356 323.28 177.19 323.761C178.024 324.243 178.024 325.023 177.19 325.505L169.522 329.931C168.688 330.413 167.336 330.413 166.502 329.931ZM181.838 321.078C181.004 320.596 181.004 319.816 181.838 319.334L189.506 314.908C190.34 314.426 191.692 314.426 192.526 314.908C193.36 315.389 193.36 316.17 192.526 316.651L184.858 321.078C184.024 321.559 182.672 321.559 181.838 321.078ZM197.174 312.224C196.34 311.743 196.34 310.962 197.174 310.481L204.842 306.054C205.676 305.573 207.028 305.573 207.862 306.054C208.696 306.536 208.696 307.316 207.862 307.798L200.194 312.224C199.36 312.706 198.008 312.706 197.174 312.224ZM212.51 303.371C211.676 302.889 211.676 302.109 212.51 301.627L220.178 297.201C221.012 296.719 222.365 296.719 223.198 297.201C224.032 297.682 224.032 298.463 223.198 298.944L215.53 303.371C214.696 303.852 213.344 303.852 212.51 303.371ZM227.847 294.517C227.013 294.036 227.013 293.255 227.847 292.774L235.515 288.347C236.349 287.866 237.701 287.866 238.535 288.347C239.369 288.829 239.369 289.609 238.535 290.091L230.867 294.517C230.033 294.999 228.68 294.999 227.847 294.517ZM243.183 285.664C242.349 285.182 242.349 284.402 243.183 283.92L250.851 279.494C251.685 279.012 253.037 279.012 253.871 279.494C254.705 279.975 254.705 280.756 253.871 281.237L246.203 285.664C245.369 286.145 244.017 286.145 243.183 285.664ZM258.519 276.81C257.685 276.329 257.685 275.548 258.519 275.067L266.187 270.64C267.021 270.159 268.373 270.159 269.207 270.64C270.041 271.121 270.041 271.902 269.207 272.383L261.539 276.81C260.705 277.292 259.353 277.292 258.519 276.81ZM273.855 267.957C273.021 267.475 273.021 266.695 273.855 266.213L277.689 264L280.709 265.743L276.875 267.957C276.041 268.438 274.689 268.438 273.855 267.957Z" fill="url(#paint1_linear)"/>
<path fill-rule="evenodd" clip-rule="evenodd" d="M161.854 162.358L158.02 164.572L155 162.828L158.834 160.615C159.668 160.133 161.02 160.133 161.854 160.615C162.688 161.096 162.688 161.877 161.854 162.358ZM166.502 157.931C165.668 157.45 165.668 156.669 166.502 156.188L174.17 151.761C175.004 151.28 176.356 151.28 177.19 151.761C178.024 152.243 178.024 153.023 177.19 153.505L169.522 157.931C168.688 158.413 167.336 158.413 166.502 157.931ZM181.838 149.078C181.004 148.596 181.004 147.816 181.838 147.334L189.506 142.908C190.34 142.426 191.692 142.426 192.526 142.908C193.36 143.389 193.36 144.17 192.526 144.651L184.858 149.078C184.024 149.559 182.672 149.559 181.838 149.078ZM197.174 140.224C196.34 139.743 196.34 138.962 197.174 138.481L204.842 134.054C205.676 133.573 207.028 133.573 207.862 134.054C208.696 134.536 208.696 135.316 207.862 135.798L200.194 140.224C199.36 140.706 198.008 140.706 197.174 140.224ZM212.51 131.371C211.676 130.889 211.676 130.109 212.51 129.627L220.178 125.201C221.012 124.719 222.365 124.719 223.198 125.201C224.032 125.682 224.032 126.463 223.198 126.944L215.53 131.371C214.696 131.852 213.344 131.852 212.51 131.371ZM227.847 122.517C227.013 122.036 227.013 121.255 227.847 120.774L235.515 116.347C236.349 115.866 237.701 115.866 238.535 116.347C239.369 116.829 239.369 117.609 238.535 118.091L230.867 122.517C230.033 122.999 228.68 122.999 227.847 122.517ZM243.183 113.664C242.349 113.182 242.349 112.402 243.183 111.92L250.851 107.494C251.685 107.012 253.037 107.012 253.871 107.494C254.705 107.975 254.705 108.756 253.871 109.237L246.203 113.664C245.369 114.145 244.017 114.145 243.183 113.664ZM258.519 104.81C257.685 104.329 257.685 103.548 258.519 103.067L266.187 98.64C267.021 98.1585 268.373 98.1585 269.207 98.64C270.041 99.1214 270.041 99.902 269.207 100.383L261.539 104.81C260.705 105.292 259.353 105.292 258.519 104.81ZM273.855 95.9567C273.021 95.4753 273.021 94.6947 273.855 94.2132L277.689 91.9998L280.709 93.7433L276.875 95.9567C276.041 96.4381 274.689 96.4381 273.855 95.9567Z" fill="url(#paint2_linear)"/>
<mask id="mask0" style="mask-type:alpha" maskUnits="userSpaceOnUse" x="30" y="327" width="149" height="59">
<path d="M178.652 327.756H30.6523V346.256C30.6523 346.423 30.6543 346.589 30.6582 346.756C31.1598 368.341 64.096 385.756 104.652 385.756C145.209 385.756 178.145 368.341 178.647 346.756C178.65 346.589 178.652 346.423 178.652 346.256V327.756Z" fill="url(#paint3_angular)"/>
</mask>
<g mask="url(#mask0)">
<path d="M178.652 327.756H30.6523V346.256C30.6523 346.423 30.6543 346.589 30.6582 346.756C31.1598 368.341 64.096 385.756 104.652 385.756C145.209 385.756 178.145 368.341 178.647 346.756C178.65 346.589 178.652 346.423 178.652 346.256V327.756Z" fill="url(#paint4_angular)"/>
<path d="M178.652 316H30.6523V334.5C30.6523 334.667 30.6543 334.834 30.6582 335C31.1598 356.585 64.096 374 104.652 374C145.209 374 178.145 356.585 178.647 335C178.65 334.834 178.652 334.667 178.652 334.5V316Z" fill="url(#paint5_angular)"/>
</g>
<g filter="url(#filter0_i)">
<rect width="120.839" height="120.839" rx="60.4194" transform="matrix(0.866044 -0.499967 0.866044 0.499967 0 328.416)" fill="url(#paint6_radial)"/>
<path fill-rule="evenodd" clip-rule="evenodd" d="M101.747 318.757L87.3128 327.089C85.7184 328.01 85.7184 329.502 87.3128 330.422L101.747 338.755C103.341 339.676 105.926 339.676 107.52 338.755L121.955 330.422C123.549 329.502 123.549 328.01 121.955 327.089L107.52 318.757C105.926 317.836 103.341 317.836 101.747 318.757ZM84.426 325.423C81.2373 327.264 81.2373 330.248 84.426 332.089L98.86 340.422C102.049 342.263 107.219 342.263 110.407 340.422L124.841 332.089C128.03 330.248 128.03 327.264 124.841 325.423L110.407 317.09C107.219 315.249 102.049 315.249 98.86 317.09L84.426 325.423Z" fill="#966CEE"/>
<path fill-rule="evenodd" clip-rule="evenodd" d="M104.634 337.089L94.5298 331.256L97.4166 329.589L107.52 335.422L104.634 337.089Z" fill="#966CEE"/>
<path fill-rule="evenodd" clip-rule="evenodd" d="M110.407 333.756L95.9732 325.423L98.86 323.756L113.294 332.089L110.407 333.756Z" fill="#966CEE"/>
<path fill-rule="evenodd" clip-rule="evenodd" d="M116.181 330.422L110.407 327.089L113.294 325.423L119.068 328.756L116.181 330.422Z" fill="#966CEE"/>
</g>
<mask id="mask1" style="mask-type:alpha" maskUnits="userSpaceOnUse" x="30" y="155" width="149" height="59">
<path d="M178.652 155.756H30.6523V174.256C30.6523 174.423 30.6543 174.589 30.6582 174.756C31.1598 196.341 64.096 213.756 104.652 213.756C145.209 213.756 178.145 196.341 178.647 174.756C178.65 174.589 178.652 174.423 178.652 174.256V155.756Z" fill="url(#paint7_angular)"/>
</mask>
<g mask="url(#mask1)">
<path d="M178.652 155.756H30.6523V174.256C30.6523 174.423 30.6543 174.589 30.6582 174.756C31.1598 196.341 64.096 213.756 104.652 213.756C145.209 213.756 178.145 196.341 178.647 174.756C178.65 174.589 178.652 174.423 178.652 174.256V155.756Z" fill="url(#paint8_angular)"/>
<path d="M178.652 144H30.6523V162.5C30.6523 162.667 30.6543 162.834 30.6582 163C31.1598 184.585 64.096 202 104.652 202C145.209 202 178.145 184.585 178.647 163C178.65 162.834 178.652 162.667 178.652 162.5V144Z" fill="url(#paint9_angular)"/>
</g>
<g filter="url(#filter1_i)">
<rect width="120.839" height="120.839" rx="60.4194" transform="matrix(0.866044 -0.499967 0.866044 0.499967 0 156.416)" fill="url(#paint10_radial)"/>
<path fill-rule="evenodd" clip-rule="evenodd" d="M101.7 166.49C100.982 166.905 99.8172 166.905 99.0988 166.49L86.0915 158.981C85.3732 158.567 85.3732 157.894 86.0915 157.48L106.903 145.465C107.622 145.05 108.786 145.05 109.505 145.465L122.512 152.974C123.23 153.389 123.23 154.061 122.512 154.476L113.407 159.732L116.008 161.234L125.113 155.978C127.268 154.734 127.268 152.716 125.113 151.472L112.106 143.963C109.951 142.719 106.457 142.719 104.302 143.963L83.4901 155.978C81.335 157.222 81.335 159.239 83.4901 160.483L96.4973 167.992C98.6525 169.236 102.147 169.236 104.302 167.992L113.407 162.736L110.805 161.234L101.7 166.49Z" fill="#966CEE"/>
<path fill-rule="evenodd" clip-rule="evenodd" d="M116.008 164.238L110.805 161.234L113.407 159.732L118.61 162.736L122.512 160.483L125.113 161.985L114.708 167.992L112.106 166.49L116.008 164.238Z" fill="#966CEE"/>
<path fill-rule="evenodd" clip-rule="evenodd" d="M94.8896 155.05L111.419 151.869L105.909 161.411L94.8896 155.05ZM101.7 155.978L105.602 155.227L104.302 157.48L101.7 155.978Z" fill="#966CEE"/>
</g>
<mask id="mask2" style="mask-type:alpha" maskUnits="userSpaceOnUse" x="238" y="231" width="149" height="59">
<path d="M386.652 231.756H238.652V250.256C238.652 250.423 238.654 250.589 238.658 250.756C239.16 272.341 272.096 289.756 312.652 289.756C353.209 289.756 386.145 272.341 386.647 250.756C386.65 250.589 386.652 250.423 386.652 250.256V231.756Z" fill="url(#paint11_angular)"/>
</mask>
<g mask="url(#mask2)">
<path d="M386.652 231.756H238.652V250.256C238.652 250.423 238.654 250.589 238.658 250.756C239.16 272.341 272.096 289.756 312.652 289.756C353.209 289.756 386.145 272.341 386.647 250.756C386.65 250.589 386.652 250.423 386.652 250.256V231.756Z" fill="url(#paint12_angular)"/>
<path d="M386.652 220H238.652V238.5C238.652 238.667 238.654 238.834 238.658 239C239.16 260.585 272.096 278 312.652 278C353.209 278 386.145 260.585 386.647 239C386.65 238.834 386.652 238.667 386.652 238.5V220Z" fill="url(#paint13_angular)"/>
</g>
<g filter="url(#filter2_i)">
<rect width="120.839" height="120.839" rx="60.4194" transform="matrix(0.866044 -0.499967 0.866044 0.499967 208 232.416)" fill="url(#paint14_radial)"/>
<path fill-rule="evenodd" clip-rule="evenodd" d="M310.339 231.412C311.085 230.982 311.085 230.284 310.339 229.853C309.594 229.423 308.385 229.423 307.639 229.853C306.894 230.284 306.894 230.982 307.639 231.412C308.385 231.842 309.594 231.842 310.339 231.412ZM313.039 232.971C315.276 231.679 315.276 229.586 313.039 228.295C310.802 227.003 307.176 227.003 304.939 228.295C302.702 229.586 302.702 231.679 304.939 232.971C307.176 234.262 310.802 234.262 313.039 232.971Z" fill="#966CEE"/>
<path fill-rule="evenodd" clip-rule="evenodd" d="M317.089 235.309C314.107 237.03 314.107 239.822 317.089 241.544L314.389 243.102C309.916 240.52 309.916 236.333 314.389 233.75C318.863 231.167 326.116 231.167 330.589 233.75L327.889 235.309C324.907 233.587 320.072 233.587 317.089 235.309Z" fill="#966CEE"/>
<path fill-rule="evenodd" clip-rule="evenodd" d="M323.839 239.206C329.804 235.762 329.804 230.179 323.839 226.736C317.875 223.292 308.204 223.292 302.239 226.736C296.274 230.179 296.274 235.762 302.239 239.206C308.204 242.649 317.875 242.649 323.839 239.206ZM326.539 240.764C333.995 236.46 333.995 229.481 326.539 225.177C319.083 220.873 306.995 220.873 299.539 225.177C292.083 229.481 292.083 236.46 299.539 240.764C306.995 245.069 319.083 245.069 326.539 240.764Z" fill="#966CEE"/>
</g>
<mask id="mask3" style="mask-type:alpha" maskUnits="userSpaceOnUse" x="238" y="59" width="149" height="59">
<path d="M386.652 59.7559H238.652V78.2559C238.652 78.4228 238.654 78.5894 238.658 78.7559C239.16 100.341 272.096 117.756 312.652 117.756C353.209 117.756 386.145 100.341 386.647 78.7559C386.65 78.5894 386.652 78.4228 386.652 78.2559V59.7559Z" fill="url(#paint15_angular)"/>
</mask>
<g mask="url(#mask3)">
<path d="M386.652 59.7559H238.652V78.2559C238.652 78.4228 238.654 78.5894 238.658 78.7559C239.16 100.341 272.096 117.756 312.652 117.756C353.209 117.756 386.145 100.341 386.647 78.7559C386.65 78.5894 386.652 78.4228 386.652 78.2559V59.7559Z" fill="url(#paint16_angular)"/>
<path d="M386.652 48H238.652V66.5C238.652 66.6669 238.654 66.8336 238.658 67C239.16 88.5848 272.096 106 312.652 106C353.209 106 386.145 88.5848 386.647 67C386.65 66.8336 386.652 66.6669 386.652 66.5V48Z" fill="url(#paint17_angular)"/>
</g>
<g filter="url(#filter3_i)">
<rect width="120.839" height="120.839" rx="60.4194" transform="matrix(0.866044 -0.499967 0.866044 0.499967 208 60.416)" fill="url(#paint18_radial)"/>
<path fill-rule="evenodd" clip-rule="evenodd" d="M309.999 52.2687L297.427 59.5265L302.456 62.4297C305.927 64.4339 311.556 64.4339 315.028 62.4297C318.499 60.4255 318.499 57.176 315.028 55.1718L309.999 52.2687ZM292.398 59.5265L299.941 63.8813C304.802 66.6871 312.682 66.6871 317.542 63.8813C322.402 61.0754 322.402 56.5261 317.542 53.7203L309.999 49.3656L292.398 59.5265Z" fill="#F3A919"/>
<path fill-rule="evenodd" clip-rule="evenodd" d="M313.77 51.5429L317.542 53.7203L318.171 53.3574C319.212 52.7561 319.212 51.7813 318.171 51.18C317.129 50.5788 315.441 50.5788 314.399 51.18L313.77 51.5429ZM317.542 56.6234L320.685 54.8089C323.115 53.406 323.115 51.1314 320.685 49.7285C318.255 48.3255 314.315 48.3255 311.885 49.7285L308.742 51.5429L317.542 56.6234Z" fill="#F3A919"/>
<path fill-rule="evenodd" clip-rule="evenodd" d="M296.17 61.7039L299.941 63.8813L299.313 64.2441C298.271 64.8454 296.582 64.8454 295.541 64.2441C294.499 63.6429 294.499 62.6681 295.541 62.0668L296.17 61.7039ZM304.97 63.8813L301.827 65.6957C299.397 67.0987 295.457 67.0987 293.027 65.6957C290.596 64.2928 290.596 62.0182 293.027 60.6152L296.17 58.8008L304.97 63.8813Z" fill="#F3A919"/>
<path fill-rule="evenodd" clip-rule="evenodd" d="M326.343 64.607L318.799 68.9618C318.105 69.3626 318.105 70.0125 318.799 70.4133L328.857 64.607C328.163 64.2062 327.037 64.2062 326.343 64.607ZM316.285 67.5102C314.202 68.7127 314.202 70.6624 316.285 71.8649L318.799 73.3165L333.886 64.607L331.371 63.1555C329.288 61.953 325.911 61.953 323.828 63.1555L316.285 67.5102Z" fill="#F3A919"/>
<path fill-rule="evenodd" clip-rule="evenodd" d="M318.799 63.1555L316.285 64.607L318.799 66.0586L321.314 64.607L318.799 63.1555ZM311.256 64.607L318.799 68.9618L326.343 64.607L318.799 60.2523L311.256 64.607Z" fill="#F3A919"/>
</g>
<defs>
<filter id="filter0_i" x="0" y="268" width="213.304" height="124.831" filterUnits="userSpaceOnUse" color-interpolation-filters="sRGB">
<feFlood flood-opacity="0" result="BackgroundImageFix"/>
<feBlend mode="normal" in="SourceGraphic" in2="BackgroundImageFix" result="shape"/>
<feColorMatrix in="SourceAlpha" type="matrix" values="0 0 0 0 0 0 0 0 0 0 0 0 0 0 0 0 0 0 127 0" result="hardAlpha"/>
<feOffset dx="4" dy="4"/>
<feGaussianBlur stdDeviation="4"/>
<feComposite in2="hardAlpha" operator="arithmetic" k2="-1" k3="1"/>
<feColorMatrix type="matrix" values="0 0 0 0 0.917778 0 0 0 0 0.952281 0 0 0 0 0.983333 0 0 0 1 0"/>
<feBlend mode="normal" in2="shape" result="effect1_innerShadow"/>
</filter>
<filter id="filter1_i" x="0" y="96" width="213.304" height="124.831" filterUnits="userSpaceOnUse" color-interpolation-filters="sRGB">
<feFlood flood-opacity="0" result="BackgroundImageFix"/>
<feBlend mode="normal" in="SourceGraphic" in2="BackgroundImageFix" result="shape"/>
<feColorMatrix in="SourceAlpha" type="matrix" values="0 0 0 0 0 0 0 0 0 0 0 0 0 0 0 0 0 0 127 0" result="hardAlpha"/>
<feOffset dx="4" dy="4"/>
<feGaussianBlur stdDeviation="4"/>
<feComposite in2="hardAlpha" operator="arithmetic" k2="-1" k3="1"/>
<feColorMatrix type="matrix" values="0 0 0 0 0.917778 0 0 0 0 0.952281 0 0 0 0 0.983333 0 0 0 1 0"/>
<feBlend mode="normal" in2="shape" result="effect1_innerShadow"/>
</filter>
<filter id="filter2_i" x="208" y="172" width="213.304" height="124.831" filterUnits="userSpaceOnUse" color-interpolation-filters="sRGB">
<feFlood flood-opacity="0" result="BackgroundImageFix"/>
<feBlend mode="normal" in="SourceGraphic" in2="BackgroundImageFix" result="shape"/>
<feColorMatrix in="SourceAlpha" type="matrix" values="0 0 0 0 0 0 0 0 0 0 0 0 0 0 0 0 0 0 127 0" result="hardAlpha"/>
<feOffset dx="4" dy="4"/>
<feGaussianBlur stdDeviation="4"/>
<feComposite in2="hardAlpha" operator="arithmetic" k2="-1" k3="1"/>
<feColorMatrix type="matrix" values="0 0 0 0 0.917778 0 0 0 0 0.952281 0 0 0 0 0.983333 0 0 0 1 0"/>
<feBlend mode="normal" in2="shape" result="effect1_innerShadow"/>
</filter>
<filter id="filter3_i" x="208" y="0" width="213.304" height="124.831" filterUnits="userSpaceOnUse" color-interpolation-filters="sRGB">
<feFlood flood-opacity="0" result="BackgroundImageFix"/>
<feBlend mode="normal" in="SourceGraphic" in2="BackgroundImageFix" result="shape"/>
<feColorMatrix in="SourceAlpha" type="matrix" values="0 0 0 0 0 0 0 0 0 0 0 0 0 0 0 0 0 0 127 0" result="hardAlpha"/>
<feOffset dx="4" dy="4"/>
<feGaussianBlur stdDeviation="4"/>
<feComposite in2="hardAlpha" operator="arithmetic" k2="-1" k3="1"/>
<feColorMatrix type="matrix" values="0 0 0 0 1 0 0 0 0 0.934833 0 0 0 0 0.858333 0 0 0 1 0"/>
<feBlend mode="normal" in2="shape" result="effect1_innerShadow"/>
</filter>
<linearGradient id="paint0_linear" x1="180.059" y1="191.225" x2="178.317" y2="240.889" gradientUnits="userSpaceOnUse">
<stop stop-color="#B8CAE7"/>
<stop offset="1" stop-color="#E6EFFF"/>
</linearGradient>
<linearGradient id="paint1_linear" x1="186.5" y1="310" x2="263.801" y2="318.137" gradientUnits="userSpaceOnUse">
<stop stop-color="#B8CAE7"/>
<stop offset="1" stop-color="#E6EFFF"/>
</linearGradient>
<linearGradient id="paint2_linear" x1="186.5" y1="138" x2="263.801" y2="146.137" gradientUnits="userSpaceOnUse">
<stop stop-color="#B8CAE7"/>
<stop offset="1" stop-color="#E6EFFF"/>
</linearGradient>
<radialGradient id="paint3_angular" cx="0" cy="0" r="1" gradientUnits="userSpaceOnUse" gradientTransform="translate(104.652 356.756) rotate(-29.3761) scale(79.0064 201.603)">
<stop stop-color="#BCD0F2"/>
<stop offset="1" stop-color="#E3EEFF"/>
</radialGradient>
<radialGradient id="paint4_angular" cx="0" cy="0" r="1" gradientUnits="userSpaceOnUse" gradientTransform="translate(104.652 356.756) rotate(-29.3761) scale(79.0064 201.603)">
<stop stop-color="#BCD0F2"/>
<stop offset="1" stop-color="#E3EEFF"/>
</radialGradient>
<radialGradient id="paint5_angular" cx="0" cy="0" r="1" gradientUnits="userSpaceOnUse" gradientTransform="translate(104.652 345) rotate(-22.2775) scale(73.8607 188.472)">
<stop stop-color="#DFEBFF"/>
<stop offset="0.52208" stop-color="#DFEBFF" stop-opacity="0.27"/>
</radialGradient>
<radialGradient id="paint6_radial" cx="0" cy="0" r="1" gradientUnits="userSpaceOnUse" gradientTransform="translate(36.3177 126.492) rotate(-70.2831) scale(137.644 93.9234)">
<stop stop-color="#FDFEFF"/>
<stop offset="1" stop-color="#E6F3FF"/>
</radialGradient>
<radialGradient id="paint7_angular" cx="0" cy="0" r="1" gradientUnits="userSpaceOnUse" gradientTransform="translate(104.652 184.756) rotate(-29.3761) scale(79.0064 201.603)">
<stop stop-color="#BCD0F2"/>
<stop offset="1" stop-color="#E3EEFF"/>
</radialGradient>
<radialGradient id="paint8_angular" cx="0" cy="0" r="1" gradientUnits="userSpaceOnUse" gradientTransform="translate(104.652 184.756) rotate(-29.3761) scale(79.0064 201.603)">
<stop stop-color="#BCD0F2"/>
<stop offset="1" stop-color="#E3EEFF"/>
</radialGradient>
<radialGradient id="paint9_angular" cx="0" cy="0" r="1" gradientUnits="userSpaceOnUse" gradientTransform="translate(104.652 173) rotate(-22.2775) scale(73.8607 188.472)">
<stop stop-color="#DFEBFF"/>
<stop offset="0.52208" stop-color="#DFEBFF" stop-opacity="0.27"/>
</radialGradient>
<radialGradient id="paint10_radial" cx="0" cy="0" r="1" gradientUnits="userSpaceOnUse" gradientTransform="translate(36.3177 126.492) rotate(-70.2831) scale(137.644 93.9234)">
<stop stop-color="#FDFEFF"/>
<stop offset="1" stop-color="#E6F3FF"/>
</radialGradient>
<radialGradient id="paint11_angular" cx="0" cy="0" r="1" gradientUnits="userSpaceOnUse" gradientTransform="translate(312.652 260.756) rotate(-29.3761) scale(79.0064 201.603)">
<stop stop-color="#BCD0F2"/>
<stop offset="1" stop-color="#E3EEFF"/>
</radialGradient>
<radialGradient id="paint12_angular" cx="0" cy="0" r="1" gradientUnits="userSpaceOnUse" gradientTransform="translate(312.652 260.756) rotate(-29.3761) scale(79.0064 201.603)">
<stop stop-color="#BCD0F2"/>
<stop offset="1" stop-color="#E3EEFF"/>
</radialGradient>
<radialGradient id="paint13_angular" cx="0" cy="0" r="1" gradientUnits="userSpaceOnUse" gradientTransform="translate(312.652 249) rotate(-22.2775) scale(73.8607 188.472)">
<stop stop-color="#DFEBFF"/>
<stop offset="0.52208" stop-color="#DFEBFF" stop-opacity="0.27"/>
</radialGradient>
<radialGradient id="paint14_radial" cx="0" cy="0" r="1" gradientUnits="userSpaceOnUse" gradientTransform="translate(36.3177 126.492) rotate(-70.2831) scale(137.644 93.9234)">
<stop stop-color="#FDFEFF"/>
<stop offset="1" stop-color="#E6F3FF"/>
</radialGradient>
<radialGradient id="paint15_angular" cx="0" cy="0" r="1" gradientUnits="userSpaceOnUse" gradientTransform="translate(312.652 88.7559) rotate(-29.3761) scale(79.0064 201.603)">
<stop stop-color="#BCD0F2"/>
<stop offset="1" stop-color="#E3EEFF"/>
</radialGradient>
<radialGradient id="paint16_angular" cx="0" cy="0" r="1" gradientUnits="userSpaceOnUse" gradientTransform="translate(312.652 88.7559) rotate(-29.3761) scale(79.0064 201.603)">
<stop stop-color="#F5BF7F"/>
<stop offset="1" stop-color="#FFFCF9"/>
</radialGradient>
<radialGradient id="paint17_angular" cx="0" cy="0" r="1" gradientUnits="userSpaceOnUse" gradientTransform="translate(312.652 77) rotate(-22.2775) scale(73.8607 188.472)">
<stop stop-color="#FFF2DF"/>
<stop offset="0.52208" stop-color="#FFF8DF" stop-opacity="0.27"/>
</radialGradient>
<radialGradient id="paint18_radial" cx="0" cy="0" r="1" gradientUnits="userSpaceOnUse" gradientTransform="translate(36.3177 126.492) rotate(-70.2831) scale(137.644 93.9234)">
<stop stop-color="#FFFAEA"/>
<stop offset="1" stop-color="#FFF4D9"/>
</radialGradient>
</defs>
</svg>
