<svg width="32" height="32" viewBox="0 0 32 32" fill="none" xmlns="http://www.w3.org/2000/svg">
<path fill-rule="evenodd" clip-rule="evenodd" d="M11.0618 3.56567C12.3291 3.51789 12.7518 3.50195 16 3.50195C19.2271 3.50195 19.6495 3.51768 20.9133 3.56475L20.9453 3.56594C22.216 3.63107 23.1026 3.84017 23.8614 4.1304C24.6618 4.43309 25.3869 4.90599 25.9867 5.51643C26.602 6.11193 27.0753 6.83833 27.3715 7.64174C27.6778 8.41416 27.8709 9.28485 27.936 10.5566L27.9363 10.5637C27.9841 11.8311 28 12.2538 28 15.502C28 18.7562 28 19.1744 27.936 20.4473C27.8709 21.7191 27.6618 22.6057 27.3715 23.3633C27.0689 24.1638 26.596 24.8889 25.9855 25.4886C25.39 26.1039 24.6636 26.5773 23.8602 26.8735C23.0867 27.1797 22.2171 27.3728 20.9453 27.438L20.9382 27.4382C19.6709 27.486 19.2482 27.502 16 27.502C12.7458 27.502 12.3276 27.502 11.0547 27.438C9.7829 27.3728 8.89621 27.1637 8.13864 26.8735C7.35022 26.5673 6.68977 26.1491 6.01333 25.4875C5.33689 24.8282 4.93468 24.1506 4.62845 23.3622C4.32222 22.5886 4.12912 21.7191 4.06399 20.4473L4.06372 20.4402C4.01594 19.1728 4 18.7501 4 15.502C4 12.2477 4 11.8295 4.06399 10.5578C4.12912 9.28599 4.33822 8.39931 4.62845 7.64059C4.93113 6.84016 5.40404 6.11501 6.01447 5.51528C6.67378 4.83884 7.35136 4.43663 8.13978 4.1304C8.91335 3.82418 9.7829 3.63107 11.0547 3.56594L11.0618 3.56567ZM22.9575 9.18063C22.7788 9.25023 22.5881 9.2833 22.3964 9.27789V9.27904C22.0161 9.27904 21.6513 9.12795 21.3824 8.85902C21.1135 8.59009 20.9624 8.22535 20.9624 7.84502C20.9624 7.4647 21.1135 7.09995 21.3824 6.83102C21.6513 6.56209 22.0161 6.41101 22.3964 6.41101C22.5881 6.4056 22.7788 6.43867 22.9575 6.50828C23.1361 6.57788 23.299 6.6826 23.4365 6.81624C23.5739 6.94988 23.6832 7.10974 23.7578 7.28634C23.8324 7.46295 23.8709 7.65273 23.8709 7.84445C23.8709 8.03618 23.8324 8.22595 23.7578 8.40256C23.6832 8.57917 23.5739 8.73902 23.4365 8.87266C23.299 9.0063 23.1361 9.11102 22.9575 9.18063ZM10.3163 13.1312C10.0071 13.8777 9.84794 14.6778 9.84794 15.4859C9.84794 16.2939 10.0071 17.094 10.3163 17.8405C10.6255 18.5871 11.0788 19.2654 11.6501 19.8368C12.2215 20.4081 12.8998 20.8614 13.6464 21.1706C14.3929 21.4798 15.193 21.639 16.0011 21.639C16.8091 21.639 17.6092 21.4798 18.3557 21.1706C19.1023 20.8614 19.7806 20.4081 20.352 19.8368C20.9233 19.2654 21.3766 18.5871 21.6858 17.8405C21.995 17.094 22.1542 16.2939 22.1542 15.4859C22.1542 14.6778 21.995 13.8777 21.6858 13.1312C21.3766 12.3846 20.9233 11.7063 20.352 11.1349C19.7806 10.5636 19.1023 10.1103 18.3557 9.80112C17.6092 9.49189 16.8091 9.33274 16.0011 9.33274C15.193 9.33274 14.3929 9.49189 13.6464 9.80112C12.8998 10.1103 12.2215 10.5636 11.6501 11.1349C11.0788 11.7063 10.6255 12.3846 10.3163 13.1312ZM12.3093 17.0294C12.1086 16.5447 12.0052 16.0253 12.0052 15.5007C12.0052 14.4413 12.4261 13.4252 13.1753 12.6761C13.9244 11.9269 14.9405 11.506 15.9999 11.506C17.0594 11.506 18.0754 11.9269 18.8246 12.6761C19.5737 13.4252 19.9946 14.4413 19.9946 15.5007C19.9946 16.0253 19.8913 16.5447 19.6905 17.0294C19.4897 17.5141 19.1955 17.9544 18.8246 18.3254C18.4536 18.6963 18.0133 18.9905 17.5286 19.1913C17.0439 19.3921 16.5245 19.4954 15.9999 19.4954C15.4753 19.4954 14.9559 19.3921 14.4712 19.1913C13.9866 18.9905 13.5462 18.6963 13.1753 18.3254C12.8043 17.9544 12.5101 17.5141 12.3093 17.0294Z" fill="#CAB1FF"/>
</svg>
