<svg width="156" height="156" viewBox="0 0 156 156" fill="none" xmlns="http://www.w3.org/2000/svg">
<g opacity="0.6">
<mask id="mask0_6477_43050" style="mask-type:alpha" maskUnits="userSpaceOnUse" x="7" y="32" width="144" height="92">
<path d="M76.1563 71.8192C80.5669 74.7596 80.5669 81.2407 76.1563 84.181L18.9769 122.301C14.0402 125.592 7.42773 122.053 7.42773 116.12V39.8805C7.42773 33.9473 14.0402 30.4084 18.9769 33.6996L76.1563 71.8192Z" fill="#0D0D0D"/>
<path d="M146.728 71.8192C151.138 74.7596 151.138 81.2407 146.728 84.181L89.5484 122.301C84.6117 125.592 77.9992 122.053 77.9992 116.12V39.8805C77.9992 33.9473 84.6117 30.4084 89.5484 33.6996L146.728 71.8192Z" fill="#0D0D0D"/>
</mask>
<g mask="url(#mask0_6477_43050)">
<path d="M55.3398 -49.5625L56.2187 -48.6836L-66.5583 74.0934L-67.4372 73.2146L55.3398 -49.5625Z" fill="url(#paint0_radial_6477_43050)"/>
<path d="M126.237 21.3346L127.116 22.2135L4.33877 144.991L3.45988 144.112L126.237 21.3346Z" fill="url(#paint1_radial_6477_43050)"/>
<path d="M90.7884 -14.114L91.6673 -13.2351L-31.1098 109.542L-31.9887 108.663L90.7884 -14.114Z" fill="url(#paint2_radial_6477_43050)"/>
<path d="M161.685 56.7831L162.564 57.662L39.7873 180.439L38.9084 179.56L161.685 56.7831Z" fill="url(#paint3_radial_6477_43050)"/>
<path d="M58.5624 -46.3399L59.4413 -45.461L-63.3357 77.316L-64.2146 76.4372L58.5624 -46.3399Z" fill="url(#paint4_radial_6477_43050)"/>
<path d="M129.46 24.5572L130.338 25.4361L7.56137 148.213L6.68248 147.334L129.46 24.5572Z" fill="url(#paint5_radial_6477_43050)"/>
<path d="M94.011 -10.8914L94.8899 -10.0125L-27.8872 112.765L-28.7661 111.886L94.011 -10.8914Z" fill="url(#paint6_radial_6477_43050)"/>
<path d="M164.908 60.0057L165.787 60.8846L43.0099 183.662L42.131 182.783L164.908 60.0057Z" fill="url(#paint7_radial_6477_43050)"/>
<path d="M61.785 -43.1173L62.6639 -42.2384L-60.1131 80.5386L-60.992 79.6597L61.785 -43.1173Z" fill="url(#paint8_radial_6477_43050)"/>
<path d="M132.682 27.7798L133.561 28.6587L10.784 151.436L9.90507 150.557L132.682 27.7798Z" fill="url(#paint9_radial_6477_43050)"/>
<path d="M97.2336 -7.66876L98.1125 -6.78987L-24.6646 115.987L-25.5435 115.108L97.2336 -7.66876Z" fill="url(#paint10_radial_6477_43050)"/>
<path d="M168.131 63.2283L169.01 64.1072L46.2325 186.884L45.3536 186.005L168.131 63.2283Z" fill="url(#paint11_radial_6477_43050)"/>
<path d="M65.0076 -39.8947L65.8865 -39.0158L-56.8905 83.7612L-57.7694 82.8823L65.0076 -39.8947Z" fill="url(#paint12_radial_6477_43050)"/>
<path d="M135.905 31.0024L136.784 31.8813L14.0066 154.658L13.1277 153.779L135.905 31.0024Z" fill="url(#paint13_radial_6477_43050)"/>
<path d="M100.456 -4.44617L101.335 -3.56728L-21.442 119.21L-22.3209 118.331L100.456 -4.44617Z" fill="url(#paint14_radial_6477_43050)"/>
<path d="M171.353 66.4509L172.232 67.3298L49.4551 190.107L48.5762 189.228L171.353 66.4509Z" fill="url(#paint15_radial_6477_43050)"/>
<path d="M68.2302 -36.6721L69.1091 -35.7932L-53.6679 86.9838L-54.5468 86.1049L68.2302 -36.6721Z" fill="url(#paint16_radial_6477_43050)"/>
<path d="M139.127 34.225L140.006 35.1039L17.2292 157.881L16.3503 157.002L139.127 34.225Z" fill="url(#paint17_radial_6477_43050)"/>
<path d="M103.679 -1.22357L104.558 -0.344682L-18.2194 122.432L-19.0983 121.553L103.679 -1.22357Z" fill="url(#paint18_radial_6477_43050)"/>
<path d="M174.576 69.6735L175.455 70.5524L52.6777 193.329L51.7988 192.451L174.576 69.6735Z" fill="url(#paint19_radial_6477_43050)"/>
<path d="M71.4528 -33.4495L72.3317 -32.5706L-50.4453 90.2064L-51.3242 89.3275L71.4528 -33.4495Z" fill="url(#paint20_radial_6477_43050)"/>
<path d="M142.35 37.4476L143.229 38.3265L20.4517 161.104L19.5729 160.225L142.35 37.4476Z" fill="url(#paint21_radial_6477_43050)"/>
<path d="M106.901 1.99902L107.78 2.87791L-14.9968 125.655L-15.8757 124.776L106.901 1.99902Z" fill="url(#paint22_radial_6477_43050)"/>
<path d="M177.798 72.8961L178.677 73.775L55.9003 196.552L55.0214 195.673L177.798 72.8961Z" fill="url(#paint23_radial_6477_43050)"/>
<path d="M74.6754 -30.2269L75.5543 -29.348L-47.2228 93.429L-48.1016 92.5501L74.6754 -30.2269Z" fill="url(#paint24_radial_6477_43050)"/>
<path d="M145.573 40.6702L146.451 41.5491L23.6743 164.326L22.7955 163.447L145.573 40.6702Z" fill="url(#paint25_radial_6477_43050)"/>
<path d="M110.124 5.22162L111.003 6.10051L-11.7742 128.878L-12.6531 127.999L110.124 5.22162Z" fill="url(#paint26_radial_6477_43050)"/>
<path d="M181.021 76.1187L181.9 76.9976L59.1229 199.775L58.244 198.896L181.021 76.1187Z" fill="url(#paint27_radial_6477_43050)"/>
<path d="M77.898 -27.0043L78.7769 -26.1254L-44.0002 96.6516L-44.879 95.7727L77.898 -27.0043Z" fill="url(#paint28_radial_6477_43050)"/>
<path d="M148.795 43.8928L149.674 44.7717L26.8969 167.549L26.018 166.67L148.795 43.8928Z" fill="url(#paint29_radial_6477_43050)"/>
<path d="M113.347 8.44421L114.225 9.3231L-8.55161 132.1L-9.4305 131.221L113.347 8.44421Z" fill="url(#paint30_radial_6477_43050)"/>
<path d="M184.244 79.3413L185.123 80.2202L62.3455 202.997L61.4666 202.118L184.244 79.3413Z" fill="url(#paint31_radial_6477_43050)"/>
<path d="M81.1206 -23.7817L81.9995 -22.9028L-40.7776 99.8742L-41.6565 98.9953L81.1206 -23.7817Z" fill="url(#paint32_radial_6477_43050)"/>
<path d="M152.018 47.1154L152.897 47.9942L30.1195 170.771L29.2406 169.892L152.018 47.1154Z" fill="url(#paint33_radial_6477_43050)"/>
<path d="M116.569 11.6668L117.448 12.5457L-5.32901 135.323L-6.2079 134.444L116.569 11.6668Z" fill="url(#paint34_radial_6477_43050)"/>
<path d="M187.466 82.5639L188.345 83.4428L65.5681 206.22L64.6892 205.341L187.466 82.5639Z" fill="url(#paint35_radial_6477_43050)"/>
<path d="M84.3432 -20.5591L85.2221 -19.6803L-37.555 103.097L-38.4339 102.218L84.3432 -20.5591Z" fill="url(#paint36_radial_6477_43050)"/>
<path d="M155.24 50.338L156.119 51.2168L33.3421 173.994L32.4632 173.115L155.24 50.338Z" fill="url(#paint37_radial_6477_43050)"/>
<path d="M119.792 14.8894L120.671 15.7683L-2.10642 138.545L-2.98531 137.666L119.792 14.8894Z" fill="url(#paint38_radial_6477_43050)"/>
<path d="M190.689 85.7865L191.568 86.6654L68.7907 209.442L67.9118 208.564L190.689 85.7865Z" fill="url(#paint39_radial_6477_43050)"/>
<path d="M87.5658 -17.3365L88.4447 -16.4577L-34.3324 106.319L-35.2113 105.441L87.5658 -17.3365Z" fill="url(#paint40_radial_6477_43050)"/>
<path d="M158.463 53.5605L159.342 54.4394L36.5647 177.216L35.6858 176.338L158.463 53.5605Z" fill="url(#paint41_radial_6477_43050)"/>
<path d="M123.014 18.112L123.893 18.9909L1.11618 141.768L0.23729 140.889L123.014 18.112Z" fill="url(#paint42_radial_6477_43050)"/>
<path d="M193.911 89.0091L194.79 89.888L72.0133 212.665L71.1344 211.786L193.911 89.0091Z" fill="url(#paint43_radial_6477_43050)"/>
</g>
</g>
<defs>
<radialGradient id="paint0_radial_6477_43050" cx="0" cy="0" r="1" gradientUnits="userSpaceOnUse" gradientTransform="translate(63.6766 81.5513) rotate(135) scale(86.8165 98.6064)">
<stop stop-color="#D0B9E7"/>
<stop offset="1" stop-color="#D0B9E7" stop-opacity="0.47"/>
</radialGradient>
<radialGradient id="paint1_radial_6477_43050" cx="0" cy="0" r="1" gradientUnits="userSpaceOnUse" gradientTransform="translate(63.6766 81.5513) rotate(135) scale(86.8165 98.6064)">
<stop stop-color="#D0B9E7"/>
<stop offset="1" stop-color="#D0B9E7" stop-opacity="0.47"/>
</radialGradient>
<radialGradient id="paint2_radial_6477_43050" cx="0" cy="0" r="1" gradientUnits="userSpaceOnUse" gradientTransform="translate(63.6766 81.5513) rotate(135) scale(86.8165 98.6064)">
<stop stop-color="#D0B9E7"/>
<stop offset="1" stop-color="#D0B9E7" stop-opacity="0.47"/>
</radialGradient>
<radialGradient id="paint3_radial_6477_43050" cx="0" cy="0" r="1" gradientUnits="userSpaceOnUse" gradientTransform="translate(63.6766 81.5513) rotate(135) scale(86.8165 98.6064)">
<stop stop-color="#D0B9E7"/>
<stop offset="1" stop-color="#D0B9E7" stop-opacity="0.47"/>
</radialGradient>
<radialGradient id="paint4_radial_6477_43050" cx="0" cy="0" r="1" gradientUnits="userSpaceOnUse" gradientTransform="translate(63.6766 81.5513) rotate(135) scale(86.8165 98.6064)">
<stop stop-color="#D0B9E7"/>
<stop offset="1" stop-color="#D0B9E7" stop-opacity="0.47"/>
</radialGradient>
<radialGradient id="paint5_radial_6477_43050" cx="0" cy="0" r="1" gradientUnits="userSpaceOnUse" gradientTransform="translate(63.6766 81.5513) rotate(135) scale(86.8165 98.6064)">
<stop stop-color="#D0B9E7"/>
<stop offset="1" stop-color="#D0B9E7" stop-opacity="0.47"/>
</radialGradient>
<radialGradient id="paint6_radial_6477_43050" cx="0" cy="0" r="1" gradientUnits="userSpaceOnUse" gradientTransform="translate(63.6766 81.5513) rotate(135) scale(86.8165 98.6064)">
<stop stop-color="#D0B9E7"/>
<stop offset="1" stop-color="#D0B9E7" stop-opacity="0.47"/>
</radialGradient>
<radialGradient id="paint7_radial_6477_43050" cx="0" cy="0" r="1" gradientUnits="userSpaceOnUse" gradientTransform="translate(63.6766 81.5513) rotate(135) scale(86.8165 98.6064)">
<stop stop-color="#D0B9E7"/>
<stop offset="1" stop-color="#D0B9E7" stop-opacity="0.47"/>
</radialGradient>
<radialGradient id="paint8_radial_6477_43050" cx="0" cy="0" r="1" gradientUnits="userSpaceOnUse" gradientTransform="translate(63.6766 81.5513) rotate(135) scale(86.8165 98.6064)">
<stop stop-color="#D0B9E7"/>
<stop offset="1" stop-color="#D0B9E7" stop-opacity="0.47"/>
</radialGradient>
<radialGradient id="paint9_radial_6477_43050" cx="0" cy="0" r="1" gradientUnits="userSpaceOnUse" gradientTransform="translate(63.6766 81.5513) rotate(135) scale(86.8165 98.6064)">
<stop stop-color="#D0B9E7"/>
<stop offset="1" stop-color="#D0B9E7" stop-opacity="0.47"/>
</radialGradient>
<radialGradient id="paint10_radial_6477_43050" cx="0" cy="0" r="1" gradientUnits="userSpaceOnUse" gradientTransform="translate(63.6766 81.5513) rotate(135) scale(86.8165 98.6064)">
<stop stop-color="#D0B9E7"/>
<stop offset="1" stop-color="#D0B9E7" stop-opacity="0.47"/>
</radialGradient>
<radialGradient id="paint11_radial_6477_43050" cx="0" cy="0" r="1" gradientUnits="userSpaceOnUse" gradientTransform="translate(63.6766 81.5513) rotate(135) scale(86.8165 98.6064)">
<stop stop-color="#D0B9E7"/>
<stop offset="1" stop-color="#D0B9E7" stop-opacity="0.47"/>
</radialGradient>
<radialGradient id="paint12_radial_6477_43050" cx="0" cy="0" r="1" gradientUnits="userSpaceOnUse" gradientTransform="translate(63.6766 81.5513) rotate(135) scale(86.8165 98.6064)">
<stop stop-color="#D0B9E7"/>
<stop offset="1" stop-color="#D0B9E7" stop-opacity="0.47"/>
</radialGradient>
<radialGradient id="paint13_radial_6477_43050" cx="0" cy="0" r="1" gradientUnits="userSpaceOnUse" gradientTransform="translate(63.6766 81.5513) rotate(135) scale(86.8165 98.6064)">
<stop stop-color="#D0B9E7"/>
<stop offset="1" stop-color="#D0B9E7" stop-opacity="0.47"/>
</radialGradient>
<radialGradient id="paint14_radial_6477_43050" cx="0" cy="0" r="1" gradientUnits="userSpaceOnUse" gradientTransform="translate(63.6766 81.5513) rotate(135) scale(86.8165 98.6064)">
<stop stop-color="#D0B9E7"/>
<stop offset="1" stop-color="#D0B9E7" stop-opacity="0.47"/>
</radialGradient>
<radialGradient id="paint15_radial_6477_43050" cx="0" cy="0" r="1" gradientUnits="userSpaceOnUse" gradientTransform="translate(63.6766 81.5513) rotate(135) scale(86.8165 98.6064)">
<stop stop-color="#D0B9E7"/>
<stop offset="1" stop-color="#D0B9E7" stop-opacity="0.47"/>
</radialGradient>
<radialGradient id="paint16_radial_6477_43050" cx="0" cy="0" r="1" gradientUnits="userSpaceOnUse" gradientTransform="translate(63.6766 81.5513) rotate(135) scale(86.8165 98.6064)">
<stop stop-color="#D0B9E7"/>
<stop offset="1" stop-color="#D0B9E7" stop-opacity="0.47"/>
</radialGradient>
<radialGradient id="paint17_radial_6477_43050" cx="0" cy="0" r="1" gradientUnits="userSpaceOnUse" gradientTransform="translate(63.6766 81.5513) rotate(135) scale(86.8165 98.6064)">
<stop stop-color="#D0B9E7"/>
<stop offset="1" stop-color="#D0B9E7" stop-opacity="0.47"/>
</radialGradient>
<radialGradient id="paint18_radial_6477_43050" cx="0" cy="0" r="1" gradientUnits="userSpaceOnUse" gradientTransform="translate(63.6766 81.5513) rotate(135) scale(86.8165 98.6064)">
<stop stop-color="#D0B9E7"/>
<stop offset="1" stop-color="#D0B9E7" stop-opacity="0.47"/>
</radialGradient>
<radialGradient id="paint19_radial_6477_43050" cx="0" cy="0" r="1" gradientUnits="userSpaceOnUse" gradientTransform="translate(63.6766 81.5513) rotate(135) scale(86.8165 98.6064)">
<stop stop-color="#D0B9E7"/>
<stop offset="1" stop-color="#D0B9E7" stop-opacity="0.47"/>
</radialGradient>
<radialGradient id="paint20_radial_6477_43050" cx="0" cy="0" r="1" gradientUnits="userSpaceOnUse" gradientTransform="translate(63.6766 81.5513) rotate(135) scale(86.8165 98.6064)">
<stop stop-color="#D0B9E7"/>
<stop offset="1" stop-color="#D0B9E7" stop-opacity="0.47"/>
</radialGradient>
<radialGradient id="paint21_radial_6477_43050" cx="0" cy="0" r="1" gradientUnits="userSpaceOnUse" gradientTransform="translate(63.6766 81.5513) rotate(135) scale(86.8165 98.6064)">
<stop stop-color="#D0B9E7"/>
<stop offset="1" stop-color="#D0B9E7" stop-opacity="0.47"/>
</radialGradient>
<radialGradient id="paint22_radial_6477_43050" cx="0" cy="0" r="1" gradientUnits="userSpaceOnUse" gradientTransform="translate(63.6766 81.5513) rotate(135) scale(86.8165 98.6064)">
<stop stop-color="#D0B9E7"/>
<stop offset="1" stop-color="#D0B9E7" stop-opacity="0.47"/>
</radialGradient>
<radialGradient id="paint23_radial_6477_43050" cx="0" cy="0" r="1" gradientUnits="userSpaceOnUse" gradientTransform="translate(63.6766 81.5513) rotate(135) scale(86.8165 98.6064)">
<stop stop-color="#D0B9E7"/>
<stop offset="1" stop-color="#D0B9E7" stop-opacity="0.47"/>
</radialGradient>
<radialGradient id="paint24_radial_6477_43050" cx="0" cy="0" r="1" gradientUnits="userSpaceOnUse" gradientTransform="translate(63.6766 81.5513) rotate(135) scale(86.8165 98.6064)">
<stop stop-color="#D0B9E7"/>
<stop offset="1" stop-color="#D0B9E7" stop-opacity="0.47"/>
</radialGradient>
<radialGradient id="paint25_radial_6477_43050" cx="0" cy="0" r="1" gradientUnits="userSpaceOnUse" gradientTransform="translate(63.6766 81.5513) rotate(135) scale(86.8165 98.6064)">
<stop stop-color="#D0B9E7"/>
<stop offset="1" stop-color="#D0B9E7" stop-opacity="0.47"/>
</radialGradient>
<radialGradient id="paint26_radial_6477_43050" cx="0" cy="0" r="1" gradientUnits="userSpaceOnUse" gradientTransform="translate(63.6766 81.5513) rotate(135) scale(86.8165 98.6064)">
<stop stop-color="#D0B9E7"/>
<stop offset="1" stop-color="#D0B9E7" stop-opacity="0.47"/>
</radialGradient>
<radialGradient id="paint27_radial_6477_43050" cx="0" cy="0" r="1" gradientUnits="userSpaceOnUse" gradientTransform="translate(63.6766 81.5513) rotate(135) scale(86.8165 98.6064)">
<stop stop-color="#D0B9E7"/>
<stop offset="1" stop-color="#D0B9E7" stop-opacity="0.47"/>
</radialGradient>
<radialGradient id="paint28_radial_6477_43050" cx="0" cy="0" r="1" gradientUnits="userSpaceOnUse" gradientTransform="translate(63.6766 81.5513) rotate(135) scale(86.8165 98.6064)">
<stop stop-color="#D0B9E7"/>
<stop offset="1" stop-color="#D0B9E7" stop-opacity="0.47"/>
</radialGradient>
<radialGradient id="paint29_radial_6477_43050" cx="0" cy="0" r="1" gradientUnits="userSpaceOnUse" gradientTransform="translate(63.6766 81.5513) rotate(135) scale(86.8165 98.6064)">
<stop stop-color="#D0B9E7"/>
<stop offset="1" stop-color="#D0B9E7" stop-opacity="0.47"/>
</radialGradient>
<radialGradient id="paint30_radial_6477_43050" cx="0" cy="0" r="1" gradientUnits="userSpaceOnUse" gradientTransform="translate(63.6766 81.5513) rotate(135) scale(86.8165 98.6064)">
<stop stop-color="#D0B9E7"/>
<stop offset="1" stop-color="#D0B9E7" stop-opacity="0.47"/>
</radialGradient>
<radialGradient id="paint31_radial_6477_43050" cx="0" cy="0" r="1" gradientUnits="userSpaceOnUse" gradientTransform="translate(63.6766 81.5513) rotate(135) scale(86.8165 98.6064)">
<stop stop-color="#D0B9E7"/>
<stop offset="1" stop-color="#D0B9E7" stop-opacity="0.47"/>
</radialGradient>
<radialGradient id="paint32_radial_6477_43050" cx="0" cy="0" r="1" gradientUnits="userSpaceOnUse" gradientTransform="translate(63.6766 81.5513) rotate(135) scale(86.8165 98.6064)">
<stop stop-color="#D0B9E7"/>
<stop offset="1" stop-color="#D0B9E7" stop-opacity="0.47"/>
</radialGradient>
<radialGradient id="paint33_radial_6477_43050" cx="0" cy="0" r="1" gradientUnits="userSpaceOnUse" gradientTransform="translate(63.6766 81.5513) rotate(135) scale(86.8165 98.6064)">
<stop stop-color="#D0B9E7"/>
<stop offset="1" stop-color="#D0B9E7" stop-opacity="0.47"/>
</radialGradient>
<radialGradient id="paint34_radial_6477_43050" cx="0" cy="0" r="1" gradientUnits="userSpaceOnUse" gradientTransform="translate(63.6766 81.5513) rotate(135) scale(86.8165 98.6064)">
<stop stop-color="#D0B9E7"/>
<stop offset="1" stop-color="#D0B9E7" stop-opacity="0.47"/>
</radialGradient>
<radialGradient id="paint35_radial_6477_43050" cx="0" cy="0" r="1" gradientUnits="userSpaceOnUse" gradientTransform="translate(63.6766 81.5513) rotate(135) scale(86.8165 98.6064)">
<stop stop-color="#D0B9E7"/>
<stop offset="1" stop-color="#D0B9E7" stop-opacity="0.47"/>
</radialGradient>
<radialGradient id="paint36_radial_6477_43050" cx="0" cy="0" r="1" gradientUnits="userSpaceOnUse" gradientTransform="translate(63.6766 81.5513) rotate(135) scale(86.8165 98.6064)">
<stop stop-color="#D0B9E7"/>
<stop offset="1" stop-color="#D0B9E7" stop-opacity="0.47"/>
</radialGradient>
<radialGradient id="paint37_radial_6477_43050" cx="0" cy="0" r="1" gradientUnits="userSpaceOnUse" gradientTransform="translate(63.6766 81.5513) rotate(135) scale(86.8165 98.6064)">
<stop stop-color="#D0B9E7"/>
<stop offset="1" stop-color="#D0B9E7" stop-opacity="0.47"/>
</radialGradient>
<radialGradient id="paint38_radial_6477_43050" cx="0" cy="0" r="1" gradientUnits="userSpaceOnUse" gradientTransform="translate(63.6766 81.5513) rotate(135) scale(86.8165 98.6064)">
<stop stop-color="#D0B9E7"/>
<stop offset="1" stop-color="#D0B9E7" stop-opacity="0.47"/>
</radialGradient>
<radialGradient id="paint39_radial_6477_43050" cx="0" cy="0" r="1" gradientUnits="userSpaceOnUse" gradientTransform="translate(63.6766 81.5513) rotate(135) scale(86.8165 98.6064)">
<stop stop-color="#D0B9E7"/>
<stop offset="1" stop-color="#D0B9E7" stop-opacity="0.47"/>
</radialGradient>
<radialGradient id="paint40_radial_6477_43050" cx="0" cy="0" r="1" gradientUnits="userSpaceOnUse" gradientTransform="translate(63.6766 81.5513) rotate(135) scale(86.8165 98.6064)">
<stop stop-color="#D0B9E7"/>
<stop offset="1" stop-color="#D0B9E7" stop-opacity="0.47"/>
</radialGradient>
<radialGradient id="paint41_radial_6477_43050" cx="0" cy="0" r="1" gradientUnits="userSpaceOnUse" gradientTransform="translate(63.6766 81.5513) rotate(135) scale(86.8165 98.6064)">
<stop stop-color="#D0B9E7"/>
<stop offset="1" stop-color="#D0B9E7" stop-opacity="0.47"/>
</radialGradient>
<radialGradient id="paint42_radial_6477_43050" cx="0" cy="0" r="1" gradientUnits="userSpaceOnUse" gradientTransform="translate(63.6766 81.5513) rotate(135) scale(86.8165 98.6064)">
<stop stop-color="#D0B9E7"/>
<stop offset="1" stop-color="#D0B9E7" stop-opacity="0.47"/>
</radialGradient>
<radialGradient id="paint43_radial_6477_43050" cx="0" cy="0" r="1" gradientUnits="userSpaceOnUse" gradientTransform="translate(63.6766 81.5513) rotate(135) scale(86.8165 98.6064)">
<stop stop-color="#D0B9E7"/>
<stop offset="1" stop-color="#D0B9E7" stop-opacity="0.47"/>
</radialGradient>
</defs>
</svg>
