<svg width="156" height="156" viewBox="0 0 156 156" fill="none" xmlns="http://www.w3.org/2000/svg">
<g opacity="0.6">
<mask id="mask0_6477_43053" style="mask-type:alpha" maskUnits="userSpaceOnUse" x="18" y="18" width="120" height="120">
<path fill-rule="evenodd" clip-rule="evenodd" d="M78.0008 137.428C110.822 137.428 137.429 110.821 137.429 77.9999C137.429 45.1784 110.822 18.5713 78.0008 18.5713C45.1793 18.5713 18.5723 45.1784 18.5723 77.9999C18.5723 110.821 45.1793 137.428 78.0008 137.428ZM86.0008 36.5713C83.9495 36.5713 82.2865 38.2342 82.2865 40.2856V77.4284H100.858C102.909 77.4284 104.572 75.7655 104.572 73.7141C104.572 71.6628 102.909 69.9999 100.858 69.9999H89.7151V40.2856C89.7151 38.2342 88.0522 36.5713 86.0008 36.5713Z" fill="#0D0D0D"/>
</mask>
<g mask="url(#mask0_6477_43053)">
<path d="M55.3398 -51.5625L56.2187 -50.6836L-66.5583 72.0934L-67.4372 71.2146L55.3398 -51.5625Z" fill="url(#paint0_radial_6477_43053)"/>
<path d="M126.237 19.3346L127.116 20.2135L4.33877 142.991L3.45988 142.112L126.237 19.3346Z" fill="url(#paint1_radial_6477_43053)"/>
<path d="M90.7884 -16.114L91.6673 -15.2351L-31.1098 107.542L-31.9887 106.663L90.7884 -16.114Z" fill="url(#paint2_radial_6477_43053)"/>
<path d="M161.685 54.7831L162.564 55.662L39.7873 178.439L38.9084 177.56L161.685 54.7831Z" fill="url(#paint3_radial_6477_43053)"/>
<path d="M58.5624 -48.3399L59.4413 -47.461L-63.3357 75.316L-64.2146 74.4372L58.5624 -48.3399Z" fill="url(#paint4_radial_6477_43053)"/>
<path d="M129.46 22.5572L130.338 23.4361L7.56137 146.213L6.68248 145.334L129.46 22.5572Z" fill="url(#paint5_radial_6477_43053)"/>
<path d="M94.011 -12.8914L94.8899 -12.0125L-27.8872 110.765L-28.7661 109.886L94.011 -12.8914Z" fill="url(#paint6_radial_6477_43053)"/>
<path d="M164.908 58.0057L165.787 58.8846L43.0099 181.662L42.131 180.783L164.908 58.0057Z" fill="url(#paint7_radial_6477_43053)"/>
<path d="M61.785 -45.1173L62.6639 -44.2384L-60.1131 78.5386L-60.992 77.6597L61.785 -45.1173Z" fill="url(#paint8_radial_6477_43053)"/>
<path d="M132.682 25.7798L133.561 26.6587L10.784 149.436L9.90507 148.557L132.682 25.7798Z" fill="url(#paint9_radial_6477_43053)"/>
<path d="M97.2336 -9.66876L98.1125 -8.78987L-24.6646 113.987L-25.5435 113.108L97.2336 -9.66876Z" fill="url(#paint10_radial_6477_43053)"/>
<path d="M168.131 61.2283L169.01 62.1072L46.2325 184.884L45.3536 184.005L168.131 61.2283Z" fill="url(#paint11_radial_6477_43053)"/>
<path d="M65.0076 -41.8947L65.8865 -41.0158L-56.8905 81.7612L-57.7694 80.8823L65.0076 -41.8947Z" fill="url(#paint12_radial_6477_43053)"/>
<path d="M135.905 29.0024L136.784 29.8813L14.0066 152.658L13.1277 151.779L135.905 29.0024Z" fill="url(#paint13_radial_6477_43053)"/>
<path d="M100.456 -6.44617L101.335 -5.56728L-21.442 117.21L-22.3209 116.331L100.456 -6.44617Z" fill="url(#paint14_radial_6477_43053)"/>
<path d="M171.353 64.4509L172.232 65.3298L49.4551 188.107L48.5762 187.228L171.353 64.4509Z" fill="url(#paint15_radial_6477_43053)"/>
<path d="M68.2302 -38.6721L69.1091 -37.7932L-53.6679 84.9838L-54.5468 84.1049L68.2302 -38.6721Z" fill="url(#paint16_radial_6477_43053)"/>
<path d="M139.127 32.225L140.006 33.1039L17.2292 155.881L16.3503 155.002L139.127 32.225Z" fill="url(#paint17_radial_6477_43053)"/>
<path d="M103.679 -3.22357L104.558 -2.34468L-18.2194 120.432L-19.0983 119.553L103.679 -3.22357Z" fill="url(#paint18_radial_6477_43053)"/>
<path d="M174.576 67.6735L175.455 68.5524L52.6777 191.329L51.7988 190.451L174.576 67.6735Z" fill="url(#paint19_radial_6477_43053)"/>
<path d="M71.4528 -35.4495L72.3317 -34.5706L-50.4453 88.2064L-51.3242 87.3275L71.4528 -35.4495Z" fill="url(#paint20_radial_6477_43053)"/>
<path d="M142.35 35.4476L143.229 36.3265L20.4517 159.104L19.5729 158.225L142.35 35.4476Z" fill="url(#paint21_radial_6477_43053)"/>
<path d="M106.901 -0.000977017L107.78 0.877911L-14.9968 123.655L-15.8757 122.776L106.901 -0.000977017Z" fill="url(#paint22_radial_6477_43053)"/>
<path d="M177.798 70.8961L178.677 71.775L55.9003 194.552L55.0214 193.673L177.798 70.8961Z" fill="url(#paint23_radial_6477_43053)"/>
<path d="M74.6754 -32.2269L75.5543 -31.348L-47.2228 91.429L-48.1016 90.5501L74.6754 -32.2269Z" fill="url(#paint24_radial_6477_43053)"/>
<path d="M145.573 38.6702L146.451 39.5491L23.6743 162.326L22.7955 161.447L145.573 38.6702Z" fill="url(#paint25_radial_6477_43053)"/>
<path d="M110.124 3.22162L111.003 4.10051L-11.7742 126.878L-12.6531 125.999L110.124 3.22162Z" fill="url(#paint26_radial_6477_43053)"/>
<path d="M181.021 74.1187L181.9 74.9976L59.1229 197.775L58.244 196.896L181.021 74.1187Z" fill="url(#paint27_radial_6477_43053)"/>
<path d="M77.898 -29.0043L78.7769 -28.1254L-44.0002 94.6516L-44.879 93.7727L77.898 -29.0043Z" fill="url(#paint28_radial_6477_43053)"/>
<path d="M148.795 41.8928L149.674 42.7717L26.8969 165.549L26.018 164.67L148.795 41.8928Z" fill="url(#paint29_radial_6477_43053)"/>
<path d="M113.347 6.44421L114.225 7.3231L-8.55161 130.1L-9.4305 129.221L113.347 6.44421Z" fill="url(#paint30_radial_6477_43053)"/>
<path d="M184.244 77.3413L185.123 78.2202L62.3455 200.997L61.4666 200.118L184.244 77.3413Z" fill="url(#paint31_radial_6477_43053)"/>
<path d="M81.1206 -25.7817L81.9995 -24.9028L-40.7776 97.8742L-41.6565 96.9953L81.1206 -25.7817Z" fill="url(#paint32_radial_6477_43053)"/>
<path d="M152.018 45.1154L152.897 45.9942L30.1195 168.771L29.2406 167.892L152.018 45.1154Z" fill="url(#paint33_radial_6477_43053)"/>
<path d="M116.569 9.66681L117.448 10.5457L-5.32901 133.323L-6.2079 132.444L116.569 9.66681Z" fill="url(#paint34_radial_6477_43053)"/>
<path d="M187.466 80.5639L188.345 81.4428L65.5681 204.22L64.6892 203.341L187.466 80.5639Z" fill="url(#paint35_radial_6477_43053)"/>
<path d="M84.3432 -22.5591L85.2221 -21.6803L-37.555 101.097L-38.4339 100.218L84.3432 -22.5591Z" fill="url(#paint36_radial_6477_43053)"/>
<path d="M155.24 48.338L156.119 49.2168L33.3421 171.994L32.4632 171.115L155.24 48.338Z" fill="url(#paint37_radial_6477_43053)"/>
<path d="M119.792 12.8894L120.671 13.7683L-2.10642 136.545L-2.98531 135.666L119.792 12.8894Z" fill="url(#paint38_radial_6477_43053)"/>
<path d="M190.689 83.7865L191.568 84.6654L68.7907 207.442L67.9118 206.564L190.689 83.7865Z" fill="url(#paint39_radial_6477_43053)"/>
<path d="M87.5658 -19.3365L88.4447 -18.4577L-34.3324 104.319L-35.2113 103.441L87.5658 -19.3365Z" fill="url(#paint40_radial_6477_43053)"/>
<path d="M158.463 51.5605L159.342 52.4394L36.5647 175.216L35.6858 174.338L158.463 51.5605Z" fill="url(#paint41_radial_6477_43053)"/>
<path d="M123.014 16.112L123.893 16.9909L1.11618 139.768L0.23729 138.889L123.014 16.112Z" fill="url(#paint42_radial_6477_43053)"/>
<path d="M193.911 87.0091L194.79 87.888L72.0133 210.665L71.1344 209.786L193.911 87.0091Z" fill="url(#paint43_radial_6477_43053)"/>
</g>
</g>
<defs>
<radialGradient id="paint0_radial_6477_43053" cx="0" cy="0" r="1" gradientUnits="userSpaceOnUse" gradientTransform="translate(63.6766 79.5513) rotate(135) scale(86.8165 98.6064)">
<stop stop-color="#D0B9E7"/>
<stop offset="1" stop-color="#D0B9E7" stop-opacity="0.47"/>
</radialGradient>
<radialGradient id="paint1_radial_6477_43053" cx="0" cy="0" r="1" gradientUnits="userSpaceOnUse" gradientTransform="translate(63.6766 79.5513) rotate(135) scale(86.8165 98.6064)">
<stop stop-color="#D0B9E7"/>
<stop offset="1" stop-color="#D0B9E7" stop-opacity="0.47"/>
</radialGradient>
<radialGradient id="paint2_radial_6477_43053" cx="0" cy="0" r="1" gradientUnits="userSpaceOnUse" gradientTransform="translate(63.6766 79.5513) rotate(135) scale(86.8165 98.6064)">
<stop stop-color="#D0B9E7"/>
<stop offset="1" stop-color="#D0B9E7" stop-opacity="0.47"/>
</radialGradient>
<radialGradient id="paint3_radial_6477_43053" cx="0" cy="0" r="1" gradientUnits="userSpaceOnUse" gradientTransform="translate(63.6766 79.5513) rotate(135) scale(86.8165 98.6064)">
<stop stop-color="#D0B9E7"/>
<stop offset="1" stop-color="#D0B9E7" stop-opacity="0.47"/>
</radialGradient>
<radialGradient id="paint4_radial_6477_43053" cx="0" cy="0" r="1" gradientUnits="userSpaceOnUse" gradientTransform="translate(63.6766 79.5513) rotate(135) scale(86.8165 98.6064)">
<stop stop-color="#D0B9E7"/>
<stop offset="1" stop-color="#D0B9E7" stop-opacity="0.47"/>
</radialGradient>
<radialGradient id="paint5_radial_6477_43053" cx="0" cy="0" r="1" gradientUnits="userSpaceOnUse" gradientTransform="translate(63.6766 79.5513) rotate(135) scale(86.8165 98.6064)">
<stop stop-color="#D0B9E7"/>
<stop offset="1" stop-color="#D0B9E7" stop-opacity="0.47"/>
</radialGradient>
<radialGradient id="paint6_radial_6477_43053" cx="0" cy="0" r="1" gradientUnits="userSpaceOnUse" gradientTransform="translate(63.6766 79.5513) rotate(135) scale(86.8165 98.6064)">
<stop stop-color="#D0B9E7"/>
<stop offset="1" stop-color="#D0B9E7" stop-opacity="0.47"/>
</radialGradient>
<radialGradient id="paint7_radial_6477_43053" cx="0" cy="0" r="1" gradientUnits="userSpaceOnUse" gradientTransform="translate(63.6766 79.5513) rotate(135) scale(86.8165 98.6064)">
<stop stop-color="#D0B9E7"/>
<stop offset="1" stop-color="#D0B9E7" stop-opacity="0.47"/>
</radialGradient>
<radialGradient id="paint8_radial_6477_43053" cx="0" cy="0" r="1" gradientUnits="userSpaceOnUse" gradientTransform="translate(63.6766 79.5513) rotate(135) scale(86.8165 98.6064)">
<stop stop-color="#D0B9E7"/>
<stop offset="1" stop-color="#D0B9E7" stop-opacity="0.47"/>
</radialGradient>
<radialGradient id="paint9_radial_6477_43053" cx="0" cy="0" r="1" gradientUnits="userSpaceOnUse" gradientTransform="translate(63.6766 79.5513) rotate(135) scale(86.8165 98.6064)">
<stop stop-color="#D0B9E7"/>
<stop offset="1" stop-color="#D0B9E7" stop-opacity="0.47"/>
</radialGradient>
<radialGradient id="paint10_radial_6477_43053" cx="0" cy="0" r="1" gradientUnits="userSpaceOnUse" gradientTransform="translate(63.6766 79.5513) rotate(135) scale(86.8165 98.6064)">
<stop stop-color="#D0B9E7"/>
<stop offset="1" stop-color="#D0B9E7" stop-opacity="0.47"/>
</radialGradient>
<radialGradient id="paint11_radial_6477_43053" cx="0" cy="0" r="1" gradientUnits="userSpaceOnUse" gradientTransform="translate(63.6766 79.5513) rotate(135) scale(86.8165 98.6064)">
<stop stop-color="#D0B9E7"/>
<stop offset="1" stop-color="#D0B9E7" stop-opacity="0.47"/>
</radialGradient>
<radialGradient id="paint12_radial_6477_43053" cx="0" cy="0" r="1" gradientUnits="userSpaceOnUse" gradientTransform="translate(63.6766 79.5513) rotate(135) scale(86.8165 98.6064)">
<stop stop-color="#D0B9E7"/>
<stop offset="1" stop-color="#D0B9E7" stop-opacity="0.47"/>
</radialGradient>
<radialGradient id="paint13_radial_6477_43053" cx="0" cy="0" r="1" gradientUnits="userSpaceOnUse" gradientTransform="translate(63.6766 79.5513) rotate(135) scale(86.8165 98.6064)">
<stop stop-color="#D0B9E7"/>
<stop offset="1" stop-color="#D0B9E7" stop-opacity="0.47"/>
</radialGradient>
<radialGradient id="paint14_radial_6477_43053" cx="0" cy="0" r="1" gradientUnits="userSpaceOnUse" gradientTransform="translate(63.6766 79.5513) rotate(135) scale(86.8165 98.6064)">
<stop stop-color="#D0B9E7"/>
<stop offset="1" stop-color="#D0B9E7" stop-opacity="0.47"/>
</radialGradient>
<radialGradient id="paint15_radial_6477_43053" cx="0" cy="0" r="1" gradientUnits="userSpaceOnUse" gradientTransform="translate(63.6766 79.5513) rotate(135) scale(86.8165 98.6064)">
<stop stop-color="#D0B9E7"/>
<stop offset="1" stop-color="#D0B9E7" stop-opacity="0.47"/>
</radialGradient>
<radialGradient id="paint16_radial_6477_43053" cx="0" cy="0" r="1" gradientUnits="userSpaceOnUse" gradientTransform="translate(63.6766 79.5513) rotate(135) scale(86.8165 98.6064)">
<stop stop-color="#D0B9E7"/>
<stop offset="1" stop-color="#D0B9E7" stop-opacity="0.47"/>
</radialGradient>
<radialGradient id="paint17_radial_6477_43053" cx="0" cy="0" r="1" gradientUnits="userSpaceOnUse" gradientTransform="translate(63.6766 79.5513) rotate(135) scale(86.8165 98.6064)">
<stop stop-color="#D0B9E7"/>
<stop offset="1" stop-color="#D0B9E7" stop-opacity="0.47"/>
</radialGradient>
<radialGradient id="paint18_radial_6477_43053" cx="0" cy="0" r="1" gradientUnits="userSpaceOnUse" gradientTransform="translate(63.6766 79.5513) rotate(135) scale(86.8165 98.6064)">
<stop stop-color="#D0B9E7"/>
<stop offset="1" stop-color="#D0B9E7" stop-opacity="0.47"/>
</radialGradient>
<radialGradient id="paint19_radial_6477_43053" cx="0" cy="0" r="1" gradientUnits="userSpaceOnUse" gradientTransform="translate(63.6766 79.5513) rotate(135) scale(86.8165 98.6064)">
<stop stop-color="#D0B9E7"/>
<stop offset="1" stop-color="#D0B9E7" stop-opacity="0.47"/>
</radialGradient>
<radialGradient id="paint20_radial_6477_43053" cx="0" cy="0" r="1" gradientUnits="userSpaceOnUse" gradientTransform="translate(63.6766 79.5513) rotate(135) scale(86.8165 98.6064)">
<stop stop-color="#D0B9E7"/>
<stop offset="1" stop-color="#D0B9E7" stop-opacity="0.47"/>
</radialGradient>
<radialGradient id="paint21_radial_6477_43053" cx="0" cy="0" r="1" gradientUnits="userSpaceOnUse" gradientTransform="translate(63.6766 79.5513) rotate(135) scale(86.8165 98.6064)">
<stop stop-color="#D0B9E7"/>
<stop offset="1" stop-color="#D0B9E7" stop-opacity="0.47"/>
</radialGradient>
<radialGradient id="paint22_radial_6477_43053" cx="0" cy="0" r="1" gradientUnits="userSpaceOnUse" gradientTransform="translate(63.6766 79.5513) rotate(135) scale(86.8165 98.6064)">
<stop stop-color="#D0B9E7"/>
<stop offset="1" stop-color="#D0B9E7" stop-opacity="0.47"/>
</radialGradient>
<radialGradient id="paint23_radial_6477_43053" cx="0" cy="0" r="1" gradientUnits="userSpaceOnUse" gradientTransform="translate(63.6766 79.5513) rotate(135) scale(86.8165 98.6064)">
<stop stop-color="#D0B9E7"/>
<stop offset="1" stop-color="#D0B9E7" stop-opacity="0.47"/>
</radialGradient>
<radialGradient id="paint24_radial_6477_43053" cx="0" cy="0" r="1" gradientUnits="userSpaceOnUse" gradientTransform="translate(63.6766 79.5513) rotate(135) scale(86.8165 98.6064)">
<stop stop-color="#D0B9E7"/>
<stop offset="1" stop-color="#D0B9E7" stop-opacity="0.47"/>
</radialGradient>
<radialGradient id="paint25_radial_6477_43053" cx="0" cy="0" r="1" gradientUnits="userSpaceOnUse" gradientTransform="translate(63.6766 79.5513) rotate(135) scale(86.8165 98.6064)">
<stop stop-color="#D0B9E7"/>
<stop offset="1" stop-color="#D0B9E7" stop-opacity="0.47"/>
</radialGradient>
<radialGradient id="paint26_radial_6477_43053" cx="0" cy="0" r="1" gradientUnits="userSpaceOnUse" gradientTransform="translate(63.6766 79.5513) rotate(135) scale(86.8165 98.6064)">
<stop stop-color="#D0B9E7"/>
<stop offset="1" stop-color="#D0B9E7" stop-opacity="0.47"/>
</radialGradient>
<radialGradient id="paint27_radial_6477_43053" cx="0" cy="0" r="1" gradientUnits="userSpaceOnUse" gradientTransform="translate(63.6766 79.5513) rotate(135) scale(86.8165 98.6064)">
<stop stop-color="#D0B9E7"/>
<stop offset="1" stop-color="#D0B9E7" stop-opacity="0.47"/>
</radialGradient>
<radialGradient id="paint28_radial_6477_43053" cx="0" cy="0" r="1" gradientUnits="userSpaceOnUse" gradientTransform="translate(63.6766 79.5513) rotate(135) scale(86.8165 98.6064)">
<stop stop-color="#D0B9E7"/>
<stop offset="1" stop-color="#D0B9E7" stop-opacity="0.47"/>
</radialGradient>
<radialGradient id="paint29_radial_6477_43053" cx="0" cy="0" r="1" gradientUnits="userSpaceOnUse" gradientTransform="translate(63.6766 79.5513) rotate(135) scale(86.8165 98.6064)">
<stop stop-color="#D0B9E7"/>
<stop offset="1" stop-color="#D0B9E7" stop-opacity="0.47"/>
</radialGradient>
<radialGradient id="paint30_radial_6477_43053" cx="0" cy="0" r="1" gradientUnits="userSpaceOnUse" gradientTransform="translate(63.6766 79.5513) rotate(135) scale(86.8165 98.6064)">
<stop stop-color="#D0B9E7"/>
<stop offset="1" stop-color="#D0B9E7" stop-opacity="0.47"/>
</radialGradient>
<radialGradient id="paint31_radial_6477_43053" cx="0" cy="0" r="1" gradientUnits="userSpaceOnUse" gradientTransform="translate(63.6766 79.5513) rotate(135) scale(86.8165 98.6064)">
<stop stop-color="#D0B9E7"/>
<stop offset="1" stop-color="#D0B9E7" stop-opacity="0.47"/>
</radialGradient>
<radialGradient id="paint32_radial_6477_43053" cx="0" cy="0" r="1" gradientUnits="userSpaceOnUse" gradientTransform="translate(63.6766 79.5513) rotate(135) scale(86.8165 98.6064)">
<stop stop-color="#D0B9E7"/>
<stop offset="1" stop-color="#D0B9E7" stop-opacity="0.47"/>
</radialGradient>
<radialGradient id="paint33_radial_6477_43053" cx="0" cy="0" r="1" gradientUnits="userSpaceOnUse" gradientTransform="translate(63.6766 79.5513) rotate(135) scale(86.8165 98.6064)">
<stop stop-color="#D0B9E7"/>
<stop offset="1" stop-color="#D0B9E7" stop-opacity="0.47"/>
</radialGradient>
<radialGradient id="paint34_radial_6477_43053" cx="0" cy="0" r="1" gradientUnits="userSpaceOnUse" gradientTransform="translate(63.6766 79.5513) rotate(135) scale(86.8165 98.6064)">
<stop stop-color="#D0B9E7"/>
<stop offset="1" stop-color="#D0B9E7" stop-opacity="0.47"/>
</radialGradient>
<radialGradient id="paint35_radial_6477_43053" cx="0" cy="0" r="1" gradientUnits="userSpaceOnUse" gradientTransform="translate(63.6766 79.5513) rotate(135) scale(86.8165 98.6064)">
<stop stop-color="#D0B9E7"/>
<stop offset="1" stop-color="#D0B9E7" stop-opacity="0.47"/>
</radialGradient>
<radialGradient id="paint36_radial_6477_43053" cx="0" cy="0" r="1" gradientUnits="userSpaceOnUse" gradientTransform="translate(63.6766 79.5513) rotate(135) scale(86.8165 98.6064)">
<stop stop-color="#D0B9E7"/>
<stop offset="1" stop-color="#D0B9E7" stop-opacity="0.47"/>
</radialGradient>
<radialGradient id="paint37_radial_6477_43053" cx="0" cy="0" r="1" gradientUnits="userSpaceOnUse" gradientTransform="translate(63.6766 79.5513) rotate(135) scale(86.8165 98.6064)">
<stop stop-color="#D0B9E7"/>
<stop offset="1" stop-color="#D0B9E7" stop-opacity="0.47"/>
</radialGradient>
<radialGradient id="paint38_radial_6477_43053" cx="0" cy="0" r="1" gradientUnits="userSpaceOnUse" gradientTransform="translate(63.6766 79.5513) rotate(135) scale(86.8165 98.6064)">
<stop stop-color="#D0B9E7"/>
<stop offset="1" stop-color="#D0B9E7" stop-opacity="0.47"/>
</radialGradient>
<radialGradient id="paint39_radial_6477_43053" cx="0" cy="0" r="1" gradientUnits="userSpaceOnUse" gradientTransform="translate(63.6766 79.5513) rotate(135) scale(86.8165 98.6064)">
<stop stop-color="#D0B9E7"/>
<stop offset="1" stop-color="#D0B9E7" stop-opacity="0.47"/>
</radialGradient>
<radialGradient id="paint40_radial_6477_43053" cx="0" cy="0" r="1" gradientUnits="userSpaceOnUse" gradientTransform="translate(63.6766 79.5513) rotate(135) scale(86.8165 98.6064)">
<stop stop-color="#D0B9E7"/>
<stop offset="1" stop-color="#D0B9E7" stop-opacity="0.47"/>
</radialGradient>
<radialGradient id="paint41_radial_6477_43053" cx="0" cy="0" r="1" gradientUnits="userSpaceOnUse" gradientTransform="translate(63.6766 79.5513) rotate(135) scale(86.8165 98.6064)">
<stop stop-color="#D0B9E7"/>
<stop offset="1" stop-color="#D0B9E7" stop-opacity="0.47"/>
</radialGradient>
<radialGradient id="paint42_radial_6477_43053" cx="0" cy="0" r="1" gradientUnits="userSpaceOnUse" gradientTransform="translate(63.6766 79.5513) rotate(135) scale(86.8165 98.6064)">
<stop stop-color="#D0B9E7"/>
<stop offset="1" stop-color="#D0B9E7" stop-opacity="0.47"/>
</radialGradient>
<radialGradient id="paint43_radial_6477_43053" cx="0" cy="0" r="1" gradientUnits="userSpaceOnUse" gradientTransform="translate(63.6766 79.5513) rotate(135) scale(86.8165 98.6064)">
<stop stop-color="#D0B9E7"/>
<stop offset="1" stop-color="#D0B9E7" stop-opacity="0.47"/>
</radialGradient>
</defs>
</svg>
