<svg width="32" height="32" viewBox="0 0 32 32" fill="none" xmlns="http://www.w3.org/2000/svg">
<rect width="32" height="32" rx="16" fill="#966CEE"/>
<path d="M14.5825 9.11342L10.2043 11.9716C8.8007 12.888 8.8007 14.9388 10.2043 15.8552L14.5825 18.7134C15.368 19.2298 16.6625 19.2298 17.448 18.7134L21.8043 15.8552C23.2007 14.9388 23.2007 12.8952 21.8043 11.9789L17.448 9.12069C16.6625 8.59706 15.368 8.59706 14.5825 9.11342Z" stroke="white" stroke-width="1.45455" stroke-linecap="round" stroke-linejoin="round"/>
<path d="M11.3681 16.7861L11.3608 20.197C11.3608 21.1207 12.0736 22.1098 12.9463 22.4007L15.2663 23.1716C15.6663 23.3025 16.3281 23.3025 16.7354 23.1716L19.0554 22.4007C19.9281 22.1098 20.6408 21.1207 20.6408 20.197V16.8225" stroke="white" stroke-width="1.45455" stroke-linecap="round" stroke-linejoin="round"/>
<path d="M22.8369 18.1825V13.8188" stroke="white" stroke-width="1.45455" stroke-linecap="round" stroke-linejoin="round"/>
</svg>
