<svg width="32" height="32" viewBox="0 0 32 32" fill="none" xmlns="http://www.w3.org/2000/svg">
<rect width="32" height="32" rx="16" fill="#966CEE"/>
<path d="M23.3468 9.48853H18.9832C18.2116 9.48853 17.4717 9.79502 16.9261 10.3406C16.3806 10.8861 16.0741 11.6261 16.0741 12.3976V22.5794C16.0741 22.0008 16.304 21.4458 16.7131 21.0367C17.1223 20.6275 17.6773 20.3976 18.2559 20.3976H23.3468V9.48853Z" stroke="white" stroke-width="1.45455" stroke-linecap="round" stroke-linejoin="round"/>
<path d="M8.80127 9.48853H13.1649C13.9364 9.48853 14.6764 9.79502 15.2219 10.3406C15.7675 10.8861 16.074 11.6261 16.074 12.3976V22.5794C16.074 22.0008 15.8441 21.4458 15.435 21.0367C15.0258 20.6275 14.4708 20.3976 13.8922 20.3976H8.80127V9.48853Z" stroke="white" stroke-width="1.45455" stroke-linecap="round" stroke-linejoin="round"/>
</svg>
