<svg width="24" height="24" viewBox="0 0 24 24" fill="none" xmlns="http://www.w3.org/2000/svg">
<path d="M6.00016 18.7942C5.86002 18.7133 5.68334 18.5043 5.58542 17.9724C5.48964 17.4522 5.5044 16.7916 5.5888 16.0967C5.6718 15.4133 5.81463 14.7546 5.9388 14.2619C6.0005 14.0171 6.05669 13.8168 6.09698 13.6792C6.10941 13.6367 6.1203 13.6003 6.12935 13.5705L11.5851 4.12083C12.2755 2.9251 13.8044 2.51541 15.0002 3.20576C16.1959 3.89612 16.6056 5.4251 15.9152 6.62083L10.4595 16.0705C10.4382 16.0932 10.4121 16.1208 10.3815 16.1528C10.2825 16.2565 10.1371 16.4053 9.95594 16.5812C9.5913 16.9351 9.09232 17.3881 8.54196 17.8017C7.98237 18.2222 7.41761 18.5654 6.91923 18.7425C6.40968 18.9236 6.14029 18.8751 6.00016 18.7942Z" stroke="#B298EE" stroke-width="2"/>
<path d="M12.5 19L19.5 19" stroke="#B298EE" stroke-width="2" stroke-linecap="round"/>
</svg>
