<svg width="24" height="24" viewBox="0 0 24 24" fill="none" xmlns="http://www.w3.org/2000/svg">
<path d="M21 10.9072L12.0172 19.3791C10.9168 20.4169 9.42424 21 7.86796 21C6.31168 21 4.81914 20.4169 3.71869 19.3791C2.61823 18.3412 2 16.9335 2 15.4658C2 13.998 2.61823 12.5904 3.71869 11.5525L12.7014 3.08062C13.4351 2.38871 14.4301 2 15.4676 2C16.5052 2 17.5002 2.38871 18.2338 3.08062C18.9675 3.77254 19.3796 4.71097 19.3796 5.68948C19.3796 6.66799 18.9675 7.60643 18.2338 8.29834L9.24128 16.7702C8.87446 17.1162 8.37695 17.3105 7.85819 17.3105C7.33943 17.3105 6.84191 17.1162 6.47509 16.7702C6.10828 16.4243 5.9022 15.955 5.9022 15.4658C5.9022 14.9765 6.10828 14.5073 6.47509 14.1614L14.7736 6.344" stroke="#D0C2DE" stroke-width="2" stroke-linecap="round" stroke-linejoin="round"/>
</svg>
