<svg width="24" height="24" viewBox="0 0 24 24" fill="none" xmlns="http://www.w3.org/2000/svg">
<path d="M10.0412 3.32039C10.7408 1.55987 13.2592 1.55987 13.9588 3.32039C14.3946 4.41688 15.6688 4.94468 16.7523 4.47748C18.4919 3.72735 20.2727 5.50808 19.5225 7.24769C19.0553 8.33117 19.5831 9.60539 20.6796 10.0412C22.4401 10.7408 22.4401 13.2592 20.6796 13.9588C19.5831 14.3946 19.0553 15.6688 19.5225 16.7523C20.2727 18.4919 18.4919 20.2727 16.7523 19.5225C15.6688 19.0553 14.3946 19.5831 13.9588 20.6796C13.2592 22.4401 10.7408 22.4401 10.0412 20.6796C9.60539 19.5831 8.33117 19.0553 7.24769 19.5225C5.50808 20.2727 3.72735 18.4919 4.47748 16.7523C4.94468 15.6688 4.41688 14.3946 3.32039 13.9588C1.55987 13.2592 1.55987 10.7408 3.32039 10.0412C4.41688 9.60539 4.94468 8.33117 4.47748 7.24769C3.72735 5.50808 5.50808 3.72735 7.24769 4.47748C8.33117 4.94468 9.60539 4.41688 10.0412 3.32039Z" stroke="#B298EE" stroke-width="2" stroke-linejoin="round"/>
<path d="M12 15C13.6569 15 15 13.6569 15 12C15 10.3431 13.6569 9 12 9C10.3431 9 9 10.3431 9 12C9 13.6569 10.3431 15 12 15Z" stroke="#B298EE" stroke-width="2" stroke-linecap="round" stroke-linejoin="round"/>
</svg>
