<svg width="24" height="24" viewBox="0 0 24 24" fill="none" xmlns="http://www.w3.org/2000/svg">
<path d="M22.1016 3.04575H16.1016C15.0407 3.04575 14.0233 3.46717 13.2731 4.21732C12.523 4.96746 12.1016 5.98488 12.1016 7.04575V21.0457C12.1016 20.2501 12.4176 19.487 12.9802 18.9244C13.5429 18.3618 14.3059 18.0457 15.1016 18.0457H22.1016V3.04575Z" stroke="#B298EE" stroke-width="2" stroke-linecap="round" stroke-linejoin="round"/>
<path d="M2.10156 3.04575H8.10156C9.16243 3.04575 10.1798 3.46717 10.93 4.21732C11.6801 4.96746 12.1016 5.98488 12.1016 7.04575V21.0457C12.1016 20.2501 11.7855 19.487 11.2229 18.9244C10.6603 18.3618 9.89721 18.0457 9.10156 18.0457H2.10156V3.04575Z" stroke="#B298EE" stroke-width="2" stroke-linecap="round" stroke-linejoin="round"/>
</svg>
