<svg width="24" height="24" viewBox="0 0 24 24" fill="none" xmlns="http://www.w3.org/2000/svg">
<path d="M16 21V19C16 17.9391 15.6313 16.9217 14.9749 16.1716C14.3185 15.4214 13.4283 15 12.5 15H5.5C4.57174 15 3.6815 15.4214 3.02513 16.1716C2.36875 16.9217 2 17.9391 2 19V21" stroke="#B298EE" stroke-width="2" stroke-linecap="round" stroke-linejoin="round"/>
<path d="M9 10C10.6569 10 12 8.65685 12 7C12 5.34315 10.6569 4 9 4C7.34315 4 6 5.34315 6 7C6 8.65685 7.34315 10 9 10Z" stroke="#B298EE" stroke-width="2" stroke-linecap="round" stroke-linejoin="round"/>
<path d="M21 21C21 18.6754 21.5 16 18 14.5" stroke="#B298EE" stroke-width="2" stroke-linecap="round" stroke-linejoin="round"/>
<path d="M15 4C16.5 4.5 17.5 5.5 17.5 7C17.5 8.5 16 10 15 10" stroke="#B298EE" stroke-width="2" stroke-linecap="round" stroke-linejoin="round"/>
</svg>
