<svg width="25" height="23" viewBox="0 0 25 23" fill="none" xmlns="http://www.w3.org/2000/svg">
<path d="M11.7449 3.69722L12.5001 4.56709L13.2552 3.69722C13.6023 3.29743 14.0096 2.94524 14.4628 2.64963C15.4664 1.99498 16.684 1.625 17.9376 1.625C21.1252 1.625 23.5834 4.06375 23.5834 7.14407C23.5834 8.2778 23.3142 9.36967 22.8336 10.4334L22.8335 10.4337C21.308 13.8137 17.7641 16.7333 14.4712 19.4208L14.4611 19.429C13.7845 19.9811 13.1202 20.5233 12.5001 21.0513C11.8799 20.5233 11.2156 19.9811 10.539 19.429L10.529 19.4208C7.236 16.7333 3.69203 13.8136 2.1666 10.4335L2.16646 10.4332C1.68598 9.36955 1.41675 8.27774 1.41675 7.14407C1.41675 4.06375 3.87496 1.625 7.06258 1.625C8.31619 1.625 9.53375 1.99498 10.5373 2.64963C10.9905 2.94524 11.3979 3.29743 11.7449 3.69722Z" stroke="#392B4B" stroke-width="2" stroke-linecap="round"/>
</svg>
