<svg width="25" height="24" viewBox="0 0 25 24" fill="none" xmlns="http://www.w3.org/2000/svg">
<path d="M14.1602 16.1069C14.1199 16.067 14.0655 16.0447 14.0088 16.0447C13.9522 16.0447 13.8978 16.067 13.8575 16.1069L10.745 19.2194C9.30392 20.6605 6.87178 20.8132 5.28071 19.2194C3.68696 17.6257 3.83963 15.1962 5.28071 13.7551L8.39321 10.6426C8.47624 10.5596 8.47624 10.423 8.39321 10.34L7.32713 9.27388C7.28686 9.23401 7.23247 9.21163 7.1758 9.21163C7.11912 9.21163 7.06473 9.23401 7.02446 9.27388L3.91196 12.3864C1.64588 14.6525 1.64588 18.3194 3.91196 20.5828C6.17803 22.8462 9.84499 22.8489 12.1084 20.5828L15.2209 17.4703C15.3039 17.3873 15.3039 17.2507 15.2209 17.1676L14.1602 16.1069ZM21.087 3.41049C18.8209 1.14442 15.1539 1.14442 12.8905 3.41049L9.77535 6.52299C9.73547 6.56327 9.7131 6.61765 9.7131 6.67433C9.7131 6.73101 9.73547 6.7854 9.77535 6.82567L10.8387 7.88906C10.9218 7.9721 11.0584 7.9721 11.1414 7.88906L14.2539 4.77656C15.695 3.33549 18.1271 3.18281 19.7182 4.77656C21.312 6.37031 21.1593 8.79978 19.7182 10.2408L16.6057 13.3533C16.5658 13.3936 16.5435 13.448 16.5435 13.5047C16.5435 13.5614 16.5658 13.6158 16.6057 13.656L17.6718 14.7221C17.7548 14.8051 17.8914 14.8051 17.9745 14.7221L21.087 11.6096C23.3503 9.34353 23.3503 5.67656 21.087 3.41049V3.41049ZM15.1271 8.25603C15.0869 8.21615 15.0325 8.19378 14.9758 8.19378C14.9191 8.19378 14.8647 8.21615 14.8245 8.25603L8.75749 14.3203C8.71761 14.3606 8.69524 14.415 8.69524 14.4717C8.69524 14.5283 8.71761 14.5827 8.75749 14.623L9.81821 15.6837C9.90124 15.7667 10.0378 15.7667 10.1209 15.6837L16.1852 9.61942C16.2682 9.53639 16.2682 9.39978 16.1852 9.31674L15.1271 8.25603Z" fill="#966CEE"/>
</svg>
