<svg width="16" height="16" viewBox="0 0 16 16" fill="none" xmlns="http://www.w3.org/2000/svg">
<path d="M9.10776 10.7379C9.08091 10.7114 9.04465 10.6964 9.00686 10.6964C8.96908 10.6964 8.93282 10.7114 8.90597 10.7379L6.83097 12.8129C5.87026 13.7737 4.24883 13.8754 3.18811 12.8129C2.12561 11.7504 2.2274 10.1308 3.18811 9.17009L5.26311 7.09509C5.31847 7.03973 5.31847 6.94866 5.26311 6.8933L4.5524 6.18259C4.52555 6.156 4.48929 6.14109 4.45151 6.14109C4.41372 6.14109 4.37746 6.156 4.35061 6.18259L2.27561 8.25759C0.7649 9.76831 0.7649 12.2129 2.27561 13.7219C3.78633 15.2308 6.23097 15.2326 7.7399 13.7219L9.8149 11.6469C9.87026 11.5915 9.87026 11.5004 9.8149 11.4451L9.10776 10.7379ZM13.7256 2.27366C12.2149 0.762946 9.77026 0.762946 8.26133 2.27366L6.18454 4.34866C6.15796 4.37551 6.14304 4.41177 6.14304 4.44955C6.14304 4.48734 6.15796 4.5236 6.18454 4.55045L6.89347 5.25938C6.94883 5.31473 7.0399 5.31473 7.09526 5.25938L9.17026 3.18438C10.131 2.22366 11.7524 2.12188 12.8131 3.18438C13.8756 4.24688 13.7738 5.86652 12.8131 6.82723L10.7381 8.90223C10.7115 8.92908 10.6966 8.96534 10.6966 9.00313C10.6966 9.04091 10.7115 9.07717 10.7381 9.10402L11.4488 9.81473C11.5042 9.87009 11.5953 9.87009 11.6506 9.81473L13.7256 7.73973C15.2345 6.22902 15.2345 3.78438 13.7256 2.27366V2.27366ZM9.7524 5.50402C9.72555 5.47743 9.68929 5.46252 9.65151 5.46252C9.61372 5.46252 9.57746 5.47743 9.55061 5.50402L5.50597 9.54688C5.47938 9.57373 5.46447 9.60998 5.46447 9.64777C5.46447 9.68555 5.47938 9.72181 5.50597 9.74866L6.21311 10.4558C6.26847 10.5112 6.35954 10.5112 6.4149 10.4558L10.4578 6.41295C10.5131 6.35759 10.5131 6.26652 10.4578 6.21116L9.7524 5.50402Z" fill="#B298EE"/>
</svg>
