<svg width="133" height="40" viewBox="0 0 133 40" fill="none" xmlns="http://www.w3.org/2000/svg">
<path d="M13.4544 38.8992C15.5053 39.6125 17.7076 40 20 40C31.0457 40 40 31.0042 40 19.9074C40 11.4406 34.7873 4.19698 27.4101 1.23894C28.8411 4.66156 28.1648 8.55258 25.5363 12.1877C21.5652 17.6798 15.5069 21.1888 9.84283 23.3303C6.72731 24.5082 3.62474 25.3127 0.87566 25.8058C2.4569 30.9865 4.91533 34.0034 10.525 33.3828C14.2429 32.9715 18.5708 30.9941 23.0074 26.4163L20.5682 24.4739L32.0455 19.636L29.8864 31.8944L27.6587 30.1204C23.0802 34.9827 18.2254 37.8197 13.4544 38.8992Z" fill="#6D32FF"/>
<path d="M16.7578 0.0773877C7.25394 1.6338 0 9.91953 0 19.9074C0 19.9157 5.00087e-06 19.9239 1.49997e-05 19.9322C2.34097 19.5028 5.03314 18.8058 7.76152 17.7743C12.8569 15.8478 17.7266 12.8876 20.7555 8.69874C23.0966 5.46098 21.8951 -0.763886 16.7578 0.0773877Z" fill="#6D32FF"/>
<path d="M63.832 25.7361V28.6401H52V11.6001H63.616V14.5041H55.312V18.6081H62.488V21.2961H55.312V25.7361H63.832Z" fill="#1B273A"/>
<path d="M65.0997 22.3521C65.0997 21.1361 65.3397 20.0401 65.8197 19.0641C66.2997 18.0721 66.9637 17.2881 67.8117 16.7121C68.6597 16.1361 69.6277 15.8481 70.7157 15.8481C71.6437 15.8481 72.4757 16.0801 73.2117 16.5441C73.9637 16.9921 74.5477 17.5681 74.9637 18.2721V11.1201H78.1797V25.0401C78.1797 25.3761 78.2357 25.6161 78.3477 25.7601C78.4597 25.9041 78.6517 25.9921 78.9237 26.0241V28.6401C78.3637 28.7521 77.9077 28.8081 77.5557 28.8081C76.9797 28.8081 76.4997 28.6641 76.1157 28.3761C75.7477 28.0881 75.5397 27.7121 75.4917 27.2481L75.4437 26.4561C74.9797 27.2401 74.3477 27.8401 73.5477 28.2561C72.7637 28.6721 71.9397 28.8801 71.0757 28.8801C70.2117 28.8801 69.4117 28.7121 68.6757 28.3761C67.9557 28.0401 67.3237 27.5761 66.7797 26.9841C66.2517 26.3921 65.8357 25.7041 65.5317 24.9201C65.2437 24.1201 65.0997 23.2641 65.0997 22.3521ZM74.9637 24.0321V21.0321C74.8037 20.5681 74.5477 20.1521 74.1957 19.7841C73.8437 19.4161 73.4517 19.1281 73.0197 18.9201C72.5877 18.6961 72.1557 18.5841 71.7237 18.5841C71.2277 18.5841 70.7797 18.6881 70.3797 18.8961C69.9797 19.1041 69.6277 19.3841 69.3237 19.7361C69.0357 20.0881 68.8117 20.4961 68.6517 20.9601C68.5077 21.4241 68.4357 21.9121 68.4357 22.4241C68.4357 22.9361 68.5157 23.4241 68.6757 23.8881C68.8517 24.3361 69.0997 24.7281 69.4197 25.0641C69.7397 25.4001 70.1077 25.6641 70.5237 25.8561C70.9557 26.0481 71.4197 26.1441 71.9157 26.1441C72.2197 26.1441 72.5237 26.0961 72.8277 26.0001C73.1477 25.8881 73.4437 25.7441 73.7157 25.5681C74.0037 25.3761 74.2517 25.1521 74.4597 24.8961C74.6837 24.6241 74.8517 24.3361 74.9637 24.0321Z" fill="#1B273A"/>
<path d="M96.8896 16.0641H99.9376L94.6816 28.6401H91.9936L89.8816 23.2401L87.8176 28.6401H85.1056L79.8736 16.0641H82.8976L86.6416 25.5681L88.1056 21.4641L85.9216 16.0881H88.5856L89.8816 19.9281L91.2016 16.0881H93.8656L91.6816 21.4641L93.1696 25.5681L96.8896 16.0641Z" fill="#1B273A"/>
<path d="M101.422 28.6401V16.0641H104.638V28.6401H101.422ZM101.422 14.3121V11.1201H104.638V14.3121H101.422Z" fill="#1B273A"/>
<path d="M113.396 28.8801C112.372 28.8801 111.452 28.7121 110.636 28.3761C109.82 28.0241 109.124 27.5441 108.548 26.9361C107.972 26.3121 107.524 25.6081 107.204 24.8241C106.9 24.0401 106.748 23.2161 106.748 22.3521C106.748 21.1681 107.012 20.0881 107.54 19.1121C108.084 18.1201 108.852 17.3281 109.844 16.7361C110.836 16.1441 112.012 15.8481 113.372 15.8481C114.732 15.8481 115.9 16.1441 116.876 16.7361C117.852 17.3281 118.58 18.1041 119.06 19.0641L115.916 20.0241C115.644 19.5601 115.284 19.2081 114.836 18.9681C114.388 18.7121 113.892 18.5841 113.348 18.5841C112.74 18.5841 112.18 18.7441 111.668 19.0641C111.172 19.3681 110.78 19.8081 110.492 20.3841C110.204 20.9441 110.06 21.6001 110.06 22.3521C110.06 23.0881 110.204 23.7441 110.492 24.3201C110.796 24.8801 111.196 25.3281 111.692 25.6641C112.188 25.9841 112.74 26.1441 113.348 26.1441C113.732 26.1441 114.092 26.0801 114.428 25.9521C114.78 25.8241 115.092 25.6481 115.364 25.4241C115.636 25.2001 115.836 24.9441 115.964 24.6561L119.108 25.6161C118.82 26.2401 118.396 26.8001 117.836 27.2961C117.292 27.7921 116.644 28.1841 115.892 28.4721C115.156 28.7441 114.324 28.8801 113.396 28.8801Z" fill="#1B273A"/>
<path d="M120.222 24.9201C120.222 24.1041 120.446 23.3921 120.894 22.7841C121.358 22.1601 121.998 21.6801 122.814 21.3441C123.63 21.0081 124.566 20.8401 125.622 20.8401C126.15 20.8401 126.686 20.8801 127.23 20.9601C127.774 21.0401 128.246 21.1681 128.646 21.3441V20.6721C128.646 19.8721 128.406 19.2561 127.926 18.8241C127.462 18.3921 126.766 18.1761 125.838 18.1761C125.15 18.1761 124.494 18.2961 123.87 18.5361C123.246 18.7761 122.59 19.1281 121.902 19.5921L120.87 17.4801C121.702 16.9361 122.55 16.5281 123.414 16.2561C124.294 15.9841 125.214 15.8481 126.174 15.8481C127.966 15.8481 129.358 16.2961 130.35 17.1921C131.358 18.0881 131.862 19.3681 131.862 21.0321V25.0401C131.862 25.3761 131.918 25.6161 132.03 25.7601C132.158 25.9041 132.358 25.9921 132.63 26.0241V28.6401C132.342 28.6881 132.078 28.7281 131.838 28.7601C131.614 28.7921 131.422 28.8081 131.262 28.8081C130.622 28.8081 130.134 28.6641 129.798 28.3761C129.478 28.0881 129.278 27.7361 129.198 27.3201L129.126 26.6721C128.582 27.3761 127.902 27.9201 127.086 28.3041C126.27 28.6881 125.438 28.8801 124.59 28.8801C123.758 28.8801 123.006 28.7121 122.334 28.3761C121.678 28.0241 121.158 27.5521 120.774 26.9601C120.406 26.3521 120.222 25.6721 120.222 24.9201ZM128.046 25.5681C128.222 25.3761 128.366 25.1841 128.478 24.9921C128.59 24.8001 128.646 24.6241 128.646 24.4641V23.1921C128.262 23.0321 127.846 22.9121 127.398 22.8321C126.95 22.7361 126.526 22.6881 126.126 22.6881C125.294 22.6881 124.606 22.8721 124.062 23.2401C123.534 23.5921 123.27 24.0641 123.27 24.6561C123.27 24.9761 123.358 25.2801 123.534 25.5681C123.71 25.8561 123.966 26.0881 124.302 26.2641C124.638 26.4401 125.038 26.5281 125.502 26.5281C125.982 26.5281 126.454 26.4401 126.918 26.2641C127.382 26.0721 127.758 25.8401 128.046 25.5681Z" fill="#1B273A"/>
</svg>
