<svg width="699" height="452" viewBox="0 0 699 452" fill="none" xmlns="http://www.w3.org/2000/svg">
<ellipse opacity="0.0169492" cx="819.27" cy="368.321" rx="116.07" ry="957.578" transform="rotate(140 819.27 368.321)" stroke="url(#paint0_linear)" stroke-width="2"/>
<ellipse opacity="0.0338983" cx="819.271" cy="368.321" rx="116.07" ry="943.069" transform="rotate(150 819.271 368.321)" stroke="url(#paint1_linear)" stroke-width="2"/>
<ellipse opacity="0.0508475" cx="819.27" cy="368.32" rx="116.07" ry="928.561" transform="rotate(160 819.27 368.32)" stroke="url(#paint2_linear)" stroke-width="2"/>
<ellipse opacity="0.0677966" cx="819.27" cy="368.32" rx="116.07" ry="914.052" transform="rotate(170 819.27 368.32)" stroke="url(#paint3_linear)" stroke-width="2"/>
<ellipse opacity="0.101695" cx="819.27" cy="368.322" rx="116.07" ry="885.034" transform="rotate(-170 819.27 368.322)" stroke="url(#paint4_linear)" stroke-width="2"/>
<ellipse opacity="0.118644" cx="819.261" cy="368.312" rx="116.07" ry="870.526" transform="rotate(-160 819.261 368.312)" stroke="url(#paint5_linear)" stroke-width="2"/>
<ellipse opacity="0.135593" cx="819.262" cy="368.312" rx="116.07" ry="856.017" transform="rotate(-150 819.262 368.312)" stroke="url(#paint6_linear)" stroke-width="2"/>
<ellipse opacity="0.152542" cx="819.262" cy="368.312" rx="116.07" ry="841.508" transform="rotate(-140 819.262 368.312)" stroke="url(#paint7_linear)" stroke-width="2"/>
<ellipse opacity="0.169492" cx="819.261" cy="368.311" rx="116.07" ry="826.999" transform="rotate(-130 819.261 368.311)" stroke="url(#paint8_linear)" stroke-width="2"/>
<ellipse opacity="0.186441" cx="819.261" cy="368.311" rx="116.07" ry="812.491" transform="rotate(-120 819.261 368.311)" stroke="url(#paint9_linear)" stroke-width="2"/>
<ellipse opacity="0.20339" cx="819.263" cy="368.313" rx="116.07" ry="797.982" transform="rotate(-110 819.263 368.313)" stroke="url(#paint10_linear)" stroke-width="2"/>
<ellipse opacity="0.220339" cx="819.262" cy="368.313" rx="116.07" ry="783.473" transform="rotate(-100 819.262 368.313)" stroke="url(#paint11_linear)" stroke-width="2"/>
<ellipse opacity="0.237288" cx="819.261" cy="368.313" rx="116.07" ry="768.964" transform="rotate(-90 819.261 368.313)" stroke="url(#paint12_linear)" stroke-width="2"/>
<ellipse opacity="0.254237" cx="819.261" cy="368.312" rx="116.07" ry="754.456" transform="rotate(-80 819.261 368.312)" stroke="url(#paint13_linear)" stroke-width="2"/>
<ellipse opacity="0.271186" cx="819.261" cy="368.311" rx="116.07" ry="739.947" transform="rotate(-70 819.261 368.311)" stroke="url(#paint14_linear)" stroke-width="2"/>
<ellipse opacity="0.288136" cx="819.26" cy="368.315" rx="116.07" ry="725.438" transform="rotate(-60 819.26 368.315)" stroke="url(#paint15_linear)" stroke-width="2"/>
<ellipse opacity="0.305085" cx="819.261" cy="368.314" rx="116.07" ry="710.929" transform="rotate(-50 819.261 368.314)" stroke="url(#paint16_linear)" stroke-width="2"/>
<ellipse opacity="0.322034" cx="819.261" cy="368.314" rx="116.07" ry="696.42" transform="rotate(-40 819.261 368.314)" stroke="url(#paint17_linear)" stroke-width="2"/>
<ellipse opacity="0.338983" cx="819.262" cy="368.317" rx="116.07" ry="681.912" transform="rotate(-30 819.262 368.317)" stroke="url(#paint18_linear)" stroke-width="2"/>
<ellipse opacity="0.355932" cx="819.261" cy="368.317" rx="116.07" ry="667.403" transform="rotate(-20 819.261 368.317)" stroke="url(#paint19_linear)" stroke-width="2"/>
<ellipse opacity="0.372881" cx="819.263" cy="368.316" rx="116.07" ry="652.894" transform="rotate(-10 819.263 368.316)" stroke="url(#paint20_linear)" stroke-width="2"/>
<ellipse opacity="0.40678" cx="819.271" cy="368.32" rx="116.07" ry="623.877" transform="rotate(10 819.271 368.32)" stroke="url(#paint21_linear)" stroke-width="2"/>
<ellipse opacity="0.423729" cx="819.269" cy="368.319" rx="116.07" ry="609.368" transform="rotate(20 819.269 368.319)" stroke="url(#paint22_linear)" stroke-width="2"/>
<ellipse opacity="0.440678" cx="819.27" cy="368.321" rx="116.07" ry="594.859" transform="rotate(30 819.27 368.321)" stroke="url(#paint23_linear)" stroke-width="2"/>
<ellipse opacity="0.457627" cx="819.272" cy="368.321" rx="116.07" ry="580.35" transform="rotate(40 819.272 368.321)" stroke="url(#paint24_linear)" stroke-width="2"/>
<ellipse opacity="0.474576" cx="819.272" cy="368.324" rx="116.07" ry="565.842" transform="rotate(50 819.272 368.324)" stroke="url(#paint25_linear)" stroke-width="2"/>
<ellipse opacity="0.491525" cx="819.272" cy="368.323" rx="116.07" ry="551.333" transform="rotate(60 819.272 368.323)" stroke="url(#paint26_linear)" stroke-width="2"/>
<ellipse opacity="0.508475" cx="819.271" cy="368.321" rx="116.07" ry="536.824" transform="rotate(70 819.271 368.321)" stroke="url(#paint27_linear)" stroke-width="2"/>
<ellipse opacity="0.525424" cx="819.271" cy="368.322" rx="116.07" ry="522.315" transform="rotate(80 819.271 368.322)" stroke="url(#paint28_linear)" stroke-width="2"/>
<ellipse opacity="0.542373" cx="819.271" cy="368.32" rx="116.07" ry="507.807" transform="rotate(90 819.271 368.32)" stroke="url(#paint29_linear)" stroke-width="2"/>
<ellipse opacity="0.559322" cx="819.272" cy="368.324" rx="116.07" ry="493.298" transform="rotate(100 819.272 368.324)" stroke="url(#paint30_linear)" stroke-width="2"/>
<ellipse opacity="0.576271" cx="819.27" cy="368.321" rx="116.07" ry="478.789" transform="rotate(110 819.27 368.321)" stroke="url(#paint31_linear)" stroke-width="2"/>
<ellipse opacity="0.59322" cx="819.271" cy="368.321" rx="116.07" ry="464.28" transform="rotate(120 819.271 368.321)" stroke="url(#paint32_linear)" stroke-width="2"/>
<ellipse opacity="0.610169" cx="819.271" cy="368.321" rx="116.07" ry="449.772" transform="rotate(130 819.271 368.321)" stroke="url(#paint33_linear)" stroke-width="2"/>
<ellipse opacity="0.627119" cx="819.27" cy="368.32" rx="116.07" ry="435.263" transform="rotate(140 819.27 368.32)" stroke="url(#paint34_linear)" stroke-width="2"/>
<ellipse opacity="0.644068" cx="819.27" cy="368.323" rx="116.07" ry="420.754" transform="rotate(150 819.27 368.323)" stroke="url(#paint35_linear)" stroke-width="2"/>
<ellipse opacity="0.661017" cx="819.272" cy="368.32" rx="116.07" ry="406.245" transform="rotate(160 819.272 368.32)" stroke="url(#paint36_linear)" stroke-width="2"/>
<ellipse opacity="0.677966" cx="819.27" cy="368.323" rx="116.07" ry="391.737" transform="rotate(170 819.27 368.323)" stroke="url(#paint37_linear)" stroke-width="2"/>
<ellipse opacity="0.711864" cx="819.27" cy="368.32" rx="116.07" ry="362.719" transform="rotate(-170 819.27 368.32)" stroke="url(#paint38_linear)" stroke-width="2"/>
<ellipse opacity="0.728814" cx="819.268" cy="368.32" rx="116.07" ry="348.21" transform="rotate(-160 819.268 368.32)" stroke="url(#paint39_linear)" stroke-width="2"/>
<ellipse opacity="0.745763" cx="819.271" cy="368.321" rx="116.07" ry="333.701" transform="rotate(-150 819.271 368.321)" stroke="url(#paint40_linear)" stroke-width="2"/>
<ellipse opacity="0.762712" cx="819.261" cy="368.313" rx="116.07" ry="319.193" transform="rotate(-140 819.261 368.313)" stroke="url(#paint41_linear)" stroke-width="2"/>
<ellipse opacity="0.779661" cx="819.262" cy="368.312" rx="116.07" ry="304.684" transform="rotate(-130 819.262 368.312)" stroke="url(#paint42_linear)" stroke-width="2"/>
<ellipse opacity="0.79661" cx="819.263" cy="368.311" rx="116.07" ry="290.175" transform="rotate(-120 819.263 368.311)" stroke="url(#paint43_linear)" stroke-width="2"/>
<ellipse opacity="0.813559" cx="819.263" cy="368.31" rx="116.07" ry="275.666" transform="rotate(-110 819.263 368.31)" stroke="url(#paint44_linear)" stroke-width="2"/>
<ellipse opacity="0.830508" cx="819.264" cy="368.312" rx="116.07" ry="261.158" transform="rotate(-100 819.264 368.312)" stroke="url(#paint45_linear)" stroke-width="2"/>
<ellipse opacity="0.847458" cx="819.263" cy="368.313" rx="116.07" ry="246.649" transform="rotate(-90 819.263 368.313)" stroke="url(#paint46_linear)" stroke-width="2"/>
<ellipse opacity="0.864407" cx="819.263" cy="368.311" rx="116.07" ry="232.14" transform="rotate(-80 819.263 368.311)" stroke="url(#paint47_linear)" stroke-width="2"/>
<ellipse opacity="0.881356" cx="819.263" cy="368.313" rx="116.07" ry="217.631" transform="rotate(-70 819.263 368.313)" stroke="url(#paint48_linear)" stroke-width="2"/>
<ellipse opacity="0.898305" cx="819.262" cy="368.311" rx="116.07" ry="203.123" transform="rotate(-60 819.262 368.311)" stroke="url(#paint49_linear)" stroke-width="2"/>
<ellipse opacity="0.915254" cx="819.263" cy="368.314" rx="116.07" ry="188.614" transform="rotate(-50 819.263 368.314)" stroke="url(#paint50_linear)" stroke-width="2"/>
<ellipse opacity="0.932203" cx="819.263" cy="368.313" rx="116.07" ry="174.105" transform="rotate(-40 819.263 368.313)" stroke="url(#paint51_linear)" stroke-width="2"/>
<ellipse opacity="0.949153" cx="819.263" cy="368.31" rx="116.07" ry="159.596" transform="rotate(-30 819.263 368.31)" stroke="url(#paint52_linear)" stroke-width="2"/>
<ellipse opacity="0.966102" cx="819.262" cy="368.313" rx="116.07" ry="145.088" transform="rotate(-20 819.262 368.313)" stroke="url(#paint53_linear)" stroke-width="2"/>
<ellipse opacity="0.983051" cx="819.262" cy="368.313" rx="116.07" ry="130.579" transform="rotate(-10 819.262 368.313)" stroke="url(#paint54_linear)" stroke-width="2"/>
<defs>
<linearGradient id="paint0_linear" x1="819.27" y1="-589.257" x2="819.27" y2="1397.72" gradientUnits="userSpaceOnUse">
<stop stop-color="#775CB0"/>
<stop offset="1" stop-color="#7158B9"/>
</linearGradient>
<linearGradient id="paint1_linear" x1="819.271" y1="-574.749" x2="819.271" y2="1382.12" gradientUnits="userSpaceOnUse">
<stop stop-color="#775CB0"/>
<stop offset="1" stop-color="#7158B9"/>
</linearGradient>
<linearGradient id="paint2_linear" x1="819.27" y1="-560.24" x2="819.27" y2="1366.52" gradientUnits="userSpaceOnUse">
<stop stop-color="#775CB0"/>
<stop offset="1" stop-color="#7158B9"/>
</linearGradient>
<linearGradient id="paint3_linear" x1="819.27" y1="-545.732" x2="819.27" y2="1350.93" gradientUnits="userSpaceOnUse">
<stop stop-color="#775CB0"/>
<stop offset="1" stop-color="#7158B9"/>
</linearGradient>
<linearGradient id="paint4_linear" x1="819.27" y1="-516.712" x2="819.271" y2="1319.73" gradientUnits="userSpaceOnUse">
<stop stop-color="#775CB0"/>
<stop offset="1" stop-color="#7158B9"/>
</linearGradient>
<linearGradient id="paint5_linear" x1="819.261" y1="-502.213" x2="819.261" y2="1304.13" gradientUnits="userSpaceOnUse">
<stop stop-color="#775CB0"/>
<stop offset="1" stop-color="#7158B9"/>
</linearGradient>
<linearGradient id="paint6_linear" x1="819.262" y1="-487.705" x2="819.262" y2="1288.53" gradientUnits="userSpaceOnUse">
<stop stop-color="#775CB0"/>
<stop offset="1" stop-color="#7158B9"/>
</linearGradient>
<linearGradient id="paint7_linear" x1="819.262" y1="-473.196" x2="819.262" y2="1272.93" gradientUnits="userSpaceOnUse">
<stop stop-color="#775CB0"/>
<stop offset="1" stop-color="#7158B9"/>
</linearGradient>
<linearGradient id="paint8_linear" x1="819.261" y1="-458.689" x2="819.262" y2="1257.34" gradientUnits="userSpaceOnUse">
<stop stop-color="#775CB0"/>
<stop offset="1" stop-color="#7158B9"/>
</linearGradient>
<linearGradient id="paint9_linear" x1="819.261" y1="-444.179" x2="819.261" y2="1241.74" gradientUnits="userSpaceOnUse">
<stop stop-color="#775CB0"/>
<stop offset="1" stop-color="#7158B9"/>
</linearGradient>
<linearGradient id="paint10_linear" x1="819.263" y1="-429.669" x2="819.263" y2="1226.14" gradientUnits="userSpaceOnUse">
<stop stop-color="#775CB0"/>
<stop offset="1" stop-color="#7158B9"/>
</linearGradient>
<linearGradient id="paint11_linear" x1="819.262" y1="-415.16" x2="819.262" y2="1210.55" gradientUnits="userSpaceOnUse">
<stop stop-color="#775CB0"/>
<stop offset="1" stop-color="#7158B9"/>
</linearGradient>
<linearGradient id="paint12_linear" x1="819.261" y1="-400.652" x2="819.261" y2="1194.95" gradientUnits="userSpaceOnUse">
<stop stop-color="#775CB0"/>
<stop offset="1" stop-color="#7158B9"/>
</linearGradient>
<linearGradient id="paint13_linear" x1="819.261" y1="-386.143" x2="819.262" y2="1179.35" gradientUnits="userSpaceOnUse">
<stop stop-color="#775CB0"/>
<stop offset="1" stop-color="#7158B9"/>
</linearGradient>
<linearGradient id="paint14_linear" x1="819.261" y1="-371.636" x2="819.261" y2="1163.75" gradientUnits="userSpaceOnUse">
<stop stop-color="#775CB0"/>
<stop offset="1" stop-color="#7158B9"/>
</linearGradient>
<linearGradient id="paint15_linear" x1="819.26" y1="-357.123" x2="819.261" y2="1148.16" gradientUnits="userSpaceOnUse">
<stop stop-color="#775CB0"/>
<stop offset="1" stop-color="#7158B9"/>
</linearGradient>
<linearGradient id="paint16_linear" x1="819.261" y1="-342.616" x2="819.261" y2="1132.56" gradientUnits="userSpaceOnUse">
<stop stop-color="#775CB0"/>
<stop offset="1" stop-color="#7158B9"/>
</linearGradient>
<linearGradient id="paint17_linear" x1="819.261" y1="-328.106" x2="819.261" y2="1116.97" gradientUnits="userSpaceOnUse">
<stop stop-color="#775CB0"/>
<stop offset="1" stop-color="#7158B9"/>
</linearGradient>
<linearGradient id="paint18_linear" x1="819.262" y1="-313.595" x2="819.262" y2="1101.37" gradientUnits="userSpaceOnUse">
<stop stop-color="#775CB0"/>
<stop offset="1" stop-color="#7158B9"/>
</linearGradient>
<linearGradient id="paint19_linear" x1="819.261" y1="-299.086" x2="819.261" y2="1085.77" gradientUnits="userSpaceOnUse">
<stop stop-color="#775CB0"/>
<stop offset="1" stop-color="#7158B9"/>
</linearGradient>
<linearGradient id="paint20_linear" x1="819.263" y1="-284.578" x2="819.263" y2="1070.18" gradientUnits="userSpaceOnUse">
<stop stop-color="#775CB0"/>
<stop offset="1" stop-color="#7158B9"/>
</linearGradient>
<linearGradient id="paint21_linear" x1="819.272" y1="-255.557" x2="819.272" y2="1038.99" gradientUnits="userSpaceOnUse">
<stop stop-color="#775CB0"/>
<stop offset="1" stop-color="#7158B9"/>
</linearGradient>
<linearGradient id="paint22_linear" x1="819.269" y1="-241.049" x2="819.27" y2="1023.39" gradientUnits="userSpaceOnUse">
<stop stop-color="#775CB0"/>
<stop offset="1" stop-color="#7158B9"/>
</linearGradient>
<linearGradient id="paint23_linear" x1="819.27" y1="-226.538" x2="819.27" y2="1007.79" gradientUnits="userSpaceOnUse">
<stop stop-color="#775CB0"/>
<stop offset="1" stop-color="#7158B9"/>
</linearGradient>
<linearGradient id="paint24_linear" x1="819.272" y1="-212.029" x2="819.272" y2="992.198" gradientUnits="userSpaceOnUse">
<stop stop-color="#775CB0"/>
<stop offset="1" stop-color="#7158B9"/>
</linearGradient>
<linearGradient id="paint25_linear" x1="819.272" y1="-197.517" x2="819.272" y2="976.604" gradientUnits="userSpaceOnUse">
<stop stop-color="#775CB0"/>
<stop offset="1" stop-color="#7158B9"/>
</linearGradient>
<linearGradient id="paint26_linear" x1="819.272" y1="-183.01" x2="819.272" y2="961.006" gradientUnits="userSpaceOnUse">
<stop stop-color="#775CB0"/>
<stop offset="1" stop-color="#7158B9"/>
</linearGradient>
<linearGradient id="paint27_linear" x1="819.271" y1="-168.503" x2="819.271" y2="945.407" gradientUnits="userSpaceOnUse">
<stop stop-color="#775CB0"/>
<stop offset="1" stop-color="#7158B9"/>
</linearGradient>
<linearGradient id="paint28_linear" x1="819.271" y1="-153.993" x2="819.271" y2="929.811" gradientUnits="userSpaceOnUse">
<stop stop-color="#775CB0"/>
<stop offset="1" stop-color="#7158B9"/>
</linearGradient>
<linearGradient id="paint29_linear" x1="819.271" y1="-139.487" x2="819.272" y2="914.212" gradientUnits="userSpaceOnUse">
<stop stop-color="#775CB0"/>
<stop offset="1" stop-color="#7158B9"/>
</linearGradient>
<linearGradient id="paint30_linear" x1="819.272" y1="-124.974" x2="819.272" y2="898.619" gradientUnits="userSpaceOnUse">
<stop stop-color="#775CB0"/>
<stop offset="1" stop-color="#7158B9"/>
</linearGradient>
<linearGradient id="paint31_linear" x1="819.27" y1="-110.469" x2="819.27" y2="883.019" gradientUnits="userSpaceOnUse">
<stop stop-color="#775CB0"/>
<stop offset="1" stop-color="#7158B9"/>
</linearGradient>
<linearGradient id="paint32_linear" x1="819.271" y1="-95.9594" x2="819.271" y2="867.422" gradientUnits="userSpaceOnUse">
<stop stop-color="#775CB0"/>
<stop offset="1" stop-color="#7158B9"/>
</linearGradient>
<linearGradient id="paint33_linear" x1="819.271" y1="-81.4507" x2="819.271" y2="851.825" gradientUnits="userSpaceOnUse">
<stop stop-color="#775CB0"/>
<stop offset="1" stop-color="#7158B9"/>
</linearGradient>
<linearGradient id="paint34_linear" x1="819.27" y1="-66.9424" x2="819.271" y2="836.228" gradientUnits="userSpaceOnUse">
<stop stop-color="#775CB0"/>
<stop offset="1" stop-color="#7158B9"/>
</linearGradient>
<linearGradient id="paint35_linear" x1="819.27" y1="-52.4308" x2="819.27" y2="820.634" gradientUnits="userSpaceOnUse">
<stop stop-color="#775CB0"/>
<stop offset="1" stop-color="#7158B9"/>
</linearGradient>
<linearGradient id="paint36_linear" x1="819.272" y1="-37.9254" x2="819.272" y2="805.033" gradientUnits="userSpaceOnUse">
<stop stop-color="#775CB0"/>
<stop offset="1" stop-color="#7158B9"/>
</linearGradient>
<linearGradient id="paint37_linear" x1="819.27" y1="-23.4132" x2="819.27" y2="789.44" gradientUnits="userSpaceOnUse">
<stop stop-color="#775CB0"/>
<stop offset="1" stop-color="#7158B9"/>
</linearGradient>
<linearGradient id="paint38_linear" x1="819.27" y1="5.60074" x2="819.27" y2="758.243" gradientUnits="userSpaceOnUse">
<stop stop-color="#775CB0"/>
<stop offset="1" stop-color="#7158B9"/>
</linearGradient>
<linearGradient id="paint39_linear" x1="819.268" y1="20.1094" x2="819.268" y2="742.646" gradientUnits="userSpaceOnUse">
<stop stop-color="#775CB0"/>
<stop offset="1" stop-color="#7158B9"/>
</linearGradient>
<linearGradient id="paint40_linear" x1="819.271" y1="34.6191" x2="819.271" y2="727.05" gradientUnits="userSpaceOnUse">
<stop stop-color="#775CB0"/>
<stop offset="1" stop-color="#7158B9"/>
</linearGradient>
<linearGradient id="paint41_linear" x1="819.261" y1="49.1206" x2="819.261" y2="711.445" gradientUnits="userSpaceOnUse">
<stop stop-color="#775CB0"/>
<stop offset="1" stop-color="#7158B9"/>
</linearGradient>
<linearGradient id="paint42_linear" x1="819.262" y1="63.6283" x2="819.262" y2="695.848" gradientUnits="userSpaceOnUse">
<stop stop-color="#775CB0"/>
<stop offset="1" stop-color="#7158B9"/>
</linearGradient>
<linearGradient id="paint43_linear" x1="819.263" y1="78.1355" x2="819.263" y2="680.249" gradientUnits="userSpaceOnUse">
<stop stop-color="#775CB0"/>
<stop offset="1" stop-color="#7158B9"/>
</linearGradient>
<linearGradient id="paint44_linear" x1="819.263" y1="92.644" x2="819.263" y2="664.652" gradientUnits="userSpaceOnUse">
<stop stop-color="#775CB0"/>
<stop offset="1" stop-color="#7158B9"/>
</linearGradient>
<linearGradient id="paint45_linear" x1="819.264" y1="107.155" x2="819.264" y2="649.057" gradientUnits="userSpaceOnUse">
<stop stop-color="#775CB0"/>
<stop offset="1" stop-color="#7158B9"/>
</linearGradient>
<linearGradient id="paint46_linear" x1="819.263" y1="121.664" x2="819.263" y2="633.46" gradientUnits="userSpaceOnUse">
<stop stop-color="#775CB0"/>
<stop offset="1" stop-color="#7158B9"/>
</linearGradient>
<linearGradient id="paint47_linear" x1="819.263" y1="136.17" x2="819.263" y2="617.861" gradientUnits="userSpaceOnUse">
<stop stop-color="#775CB0"/>
<stop offset="1" stop-color="#7158B9"/>
</linearGradient>
<linearGradient id="paint48_linear" x1="819.264" y1="150.682" x2="819.264" y2="602.267" gradientUnits="userSpaceOnUse">
<stop stop-color="#775CB0"/>
<stop offset="1" stop-color="#7158B9"/>
</linearGradient>
<linearGradient id="paint49_linear" x1="819.262" y1="165.189" x2="819.262" y2="586.668" gradientUnits="userSpaceOnUse">
<stop stop-color="#775CB0"/>
<stop offset="1" stop-color="#7158B9"/>
</linearGradient>
<linearGradient id="paint50_linear" x1="819.263" y1="179.7" x2="819.263" y2="571.074" gradientUnits="userSpaceOnUse">
<stop stop-color="#775CB0"/>
<stop offset="1" stop-color="#7158B9"/>
</linearGradient>
<linearGradient id="paint51_linear" x1="819.263" y1="194.208" x2="819.263" y2="555.476" gradientUnits="userSpaceOnUse">
<stop stop-color="#775CB0"/>
<stop offset="1" stop-color="#7158B9"/>
</linearGradient>
<linearGradient id="paint52_linear" x1="819.263" y1="208.714" x2="819.263" y2="539.876" gradientUnits="userSpaceOnUse">
<stop stop-color="#775CB0"/>
<stop offset="1" stop-color="#7158B9"/>
</linearGradient>
<linearGradient id="paint53_linear" x1="819.262" y1="223.226" x2="819.262" y2="524.282" gradientUnits="userSpaceOnUse">
<stop stop-color="#775CB0"/>
<stop offset="1" stop-color="#7158B9"/>
</linearGradient>
<linearGradient id="paint54_linear" x1="819.262" y1="237.734" x2="819.262" y2="508.685" gradientUnits="userSpaceOnUse">
<stop stop-color="#775CB0"/>
<stop offset="1" stop-color="#7158B9"/>
</linearGradient>
</defs>
</svg>
