<svg width="1202" height="648" viewBox="0 0 1202 648" fill="none" xmlns="http://www.w3.org/2000/svg">
<g opacity="0.14">
<path d="M203.851 674.794C155.042 578.147 100.024 445.005 85.1939 318.969C70.3643 192.937 95.7339 74.2856 207.338 6.12852C263.331 -28.0663 312.047 -49.7695 352.936 -59.9816C393.834 -70.1962 426.802 -68.8908 451.392 -57.211C475.941 -45.5504 492.306 -23.4683 499.867 8.26105C507.434 40.0202 506.164 81.4068 495.413 131.511C473.886 231.843 424.957 416.002 369.221 550.886C355.289 584.604 340.938 615.224 326.492 640.679C312.039 666.146 297.523 686.384 283.276 699.384C269.017 712.395 255.211 718.003 242.085 714.671C228.908 711.327 216.018 698.886 203.851 674.794Z" stroke="url(#paint0_linear_0_5037)" stroke-width="2"/>
<path d="M666.67 902.338C664.371 901.017 662.819 898.416 662.007 895.396C656.554 872.233 648.951 835.793 643.864 801.746C641.32 784.717 639.408 768.305 638.706 754.46C638.002 740.569 638.527 729.408 640.766 722.79C642.118 718.792 645.802 714.192 651.581 709.421C657.337 704.671 665.074 699.829 674.376 695.32C692.977 686.303 717.746 678.659 745.213 675.721C800.139 669.844 865.722 682.789 914.395 741.022C938.892 770.33 957.892 784.655 973.201 789.005C980.89 791.189 987.651 790.858 993.677 788.643C999.687 786.434 1004.89 782.377 1009.54 777.22C1018.49 767.27 1025.5 753.032 1032.16 739.493C1032.39 739.039 1032.61 738.586 1032.83 738.133C1036.28 731.137 1039.65 724.366 1043.18 718.445C1046.72 712.519 1050.38 707.509 1054.38 704.005C1058.32 700.555 1066.33 697.014 1077.06 693.838C1087.74 690.676 1100.97 687.917 1115.2 685.959C1143.7 682.04 1176.1 681.347 1200.12 686.971C1212.15 689.784 1221.95 694.151 1228.14 700.371C1234.28 706.53 1236.95 714.576 1234.61 725.036C1232.26 735.572 1224.81 748.579 1210.57 764.463C1196.35 780.332 1175.41 798.999 1146.19 820.857C1087.83 864.519 1035.08 882.739 988.039 886.874C940.992 891.011 899.585 881.065 863.902 868.277C847.08 862.248 831.542 855.592 817.275 849.48C816.407 849.108 815.544 848.738 814.685 848.371C799.732 841.97 786.178 836.248 774.093 832.654C762.016 829.063 751.274 827.555 741.975 829.701C732.615 831.861 724.848 837.69 718.689 848.47C709.036 865.366 700.787 877.485 693.8 885.964C686.804 894.455 681.118 899.241 676.608 901.545C672.124 903.836 668.914 903.627 666.67 902.338Z" stroke="url(#paint1_linear_0_5037)" stroke-width="2"/>
<path d="M380.496 556.125L380.496 556.126C366.728 589.197 352.611 619.106 338.452 643.908C324.285 668.723 310.107 688.367 296.232 700.956C282.347 713.555 268.947 718.934 256.242 715.678C243.487 712.41 231.036 700.348 219.306 677.065C171.954 582.355 118.304 450.51 104.399 328.281C90.5867 205.822 121.337 89.2566 232.377 28.2171C288.115 -2.42226 335.984 -23.3784 376.019 -33.9811C416.069 -44.5879 448.148 -44.799 472.403 -34.1233C496.67 -23.4423 515.514 -2.72226 524.619 28.18C533.733 59.1072 533.099 100.272 518.28 151.772C488.579 254.996 435.956 423.153 380.496 556.125Z" stroke="url(#paint2_linear_0_5037)" stroke-width="2"/>
<path d="M391.79 561.429L391.79 561.43C378.186 593.854 364.304 623.052 350.431 647.202C336.55 671.364 322.71 690.415 309.208 702.592C295.696 714.778 282.703 719.929 270.419 716.749C258.086 713.556 246.072 701.874 234.78 679.401C188.887 586.626 136.603 456.079 123.624 337.656C110.829 218.772 146.958 104.293 257.433 50.369C312.919 23.2855 359.941 3.07717 399.122 -7.91707C438.324 -18.9173 469.514 -20.6448 493.435 -10.9719C517.42 -1.27298 538.745 18.0804 549.395 48.163C560.048 78.2579 560.054 119.198 541.169 172.105C503.296 278.207 446.977 430.365 391.79 561.429Z" stroke="url(#paint3_linear_0_5037)" stroke-width="2"/>
<path d="M403.13 566.821L403.13 566.823C389.69 598.6 376.042 627.087 362.455 650.584C348.861 674.094 335.359 692.551 322.23 704.316C309.09 716.091 296.504 721.013 284.642 717.909C272.73 714.792 261.154 703.49 250.299 681.826C205.864 590.986 154.948 461.738 142.894 347.121C131.115 231.812 172.62 119.42 282.529 72.6091C337.77 49.0818 383.939 29.6232 422.271 18.2359C460.628 6.84077 490.927 3.59701 514.514 12.2684C538.217 20.9822 562.026 38.9644 574.218 68.235C586.407 97.4974 587.056 138.213 564.105 192.534C540.37 248.708 512.934 312.077 484.398 377.989C457.562 439.974 429.752 504.207 403.13 566.821Z" stroke="url(#paint4_linear_0_5037)" stroke-width="2"/>
<path d="M414.519 572.363L414.518 572.365C401.243 603.496 387.829 631.272 374.528 654.117C361.22 676.974 348.057 694.837 335.3 706.19C322.534 717.553 310.354 722.247 298.913 719.219C287.422 716.178 276.285 705.255 265.866 684.399C222.889 595.495 173.341 467.547 162.212 356.737C151.45 245.004 198.326 134.699 307.671 94.9976C328.548 87.4174 348.024 80.0213 366.204 73.117C395.933 61.8271 422.199 51.8523 445.468 44.5382C482.982 32.7467 512.388 27.9867 535.644 35.6581C559.062 43.3831 585.358 59.99 599.093 88.456C612.81 116.886 614.108 157.376 587.089 213.118C570.936 246.444 553.934 280.514 536.579 315.294C495.707 397.202 452.871 483.045 414.519 572.363Z" stroke="url(#paint5_linear_0_5037)" stroke-width="2"/>
<path d="M425.979 578.111L425.978 578.113C412.867 608.597 399.688 635.662 386.673 657.855C373.651 680.06 360.827 697.329 348.443 708.271C336.049 719.221 324.276 723.687 313.256 720.735C302.187 717.77 291.487 707.226 281.506 687.18C239.987 600.211 191.807 473.562 181.602 366.559C171.856 258.403 224.101 150.184 332.881 117.59C367.934 107.087 398.859 95.9138 426.174 86.0453C441.463 80.5213 455.621 75.406 468.738 71.046C505.411 58.8563 533.922 52.5802 556.848 59.2531C579.978 65.9855 608.763 81.2135 624.042 108.882C639.283 136.481 641.235 176.743 610.146 233.914C591.093 268.951 571.561 303.015 552.071 337.006C507.791 414.232 463.727 491.083 425.979 578.111Z" stroke="url(#paint6_linear_0_5037)" stroke-width="2"/>
<path d="M437.532 584.143L437.53 584.146C424.584 613.983 411.639 640.337 398.911 661.877C386.175 683.429 373.689 700.105 361.678 710.635C349.657 721.173 338.291 725.411 327.692 722.536C317.044 719.647 306.783 709.482 297.238 690.246C257.177 605.212 210.365 479.861 201.085 376.664C192.355 272.087 249.964 165.954 358.179 140.464C402.889 129.933 440.351 116.431 472.103 104.987C479.036 102.489 485.697 100.088 492.101 97.8377C509.984 91.5547 525.847 86.4524 540.087 83.6351C554.326 80.8183 566.875 80.3006 578.146 83.1318C600.983 88.8678 632.262 102.714 649.087 129.59C665.844 156.36 668.457 196.395 633.295 254.999C609.935 293.931 586.527 329.612 563.687 364.429C552.04 382.183 540.54 399.713 529.269 417.334C495.907 469.493 464.59 522.401 437.532 584.143Z" stroke="url(#paint7_linear_0_5037)" stroke-width="2"/>
<path d="M449.192 590.505L449.19 590.509C436.408 619.7 423.698 645.342 411.256 666.229C398.806 687.129 386.659 703.211 375.021 713.329C363.373 723.456 352.414 727.466 342.236 724.667C332.009 721.854 322.185 712.069 313.078 693.642C274.475 610.543 229.03 486.492 220.676 387.102C212.96 286.103 275.93 182.054 383.582 163.666C435.245 154.842 476.587 139.462 510.55 126.827C512.242 126.197 513.916 125.574 515.573 124.959C533.031 118.478 548.457 112.896 562.335 109.523C576.211 106.15 588.453 105.007 599.554 107.34C622.093 112.076 655.869 124.538 674.241 150.627C683.404 163.639 688.762 180.074 686.961 200.735C685.158 221.419 676.175 246.389 656.55 276.418C628.388 319.512 600.742 356.392 574.362 391.585C563.886 405.56 553.61 419.269 543.58 432.995C508.304 481.271 476.119 529.706 449.192 590.505Z" stroke="url(#paint8_linear_0_5037)" stroke-width="2"/>
<path d="M460.969 597.211L460.967 597.215C448.349 625.759 435.873 650.69 423.717 670.925C411.554 691.172 399.745 706.66 388.48 716.367C377.206 726.081 366.653 729.864 356.896 727.141C347.09 724.404 337.704 714.999 329.034 697.381C291.889 616.217 247.812 493.465 240.382 397.883C233.682 300.464 302.007 198.496 409.099 187.207C463.098 181.515 505.119 165.774 539.16 152.424C540.985 151.708 542.786 151 544.564 150.301C559.389 144.469 572.63 139.261 584.7 135.751C598.214 131.821 610.151 130.055 621.08 131.89C643.314 135.623 679.591 146.7 699.513 172.005C709.441 184.615 715.332 200.788 713.378 221.457C711.421 242.157 701.587 267.433 679.921 298.185C646.664 345.388 614.655 382.712 584.777 417.55C575.648 428.195 566.719 438.607 558.013 448.998C520.823 493.39 487.766 537.351 460.969 597.211Z" stroke="url(#paint9_linear_0_5037)" stroke-width="2"/>
<path d="M473.22 605.609L473.218 605.614C460.765 633.511 448.523 657.731 436.654 677.314C424.777 696.908 413.307 711.802 402.414 721.098C391.514 730.399 381.368 733.955 372.032 731.308C362.646 728.648 353.698 719.622 345.465 702.814C309.777 623.584 267.069 502.132 260.563 410.357C254.877 316.521 328.554 216.631 435.088 212.438C488.849 210.322 530.032 195.328 563.223 181.581C567.658 179.744 571.945 177.931 576.097 176.176C587.503 171.354 597.891 166.963 607.54 163.67C620.692 159.182 632.324 156.793 643.083 158.132C654.005 159.491 669.192 162.589 684.34 168.429C699.496 174.272 714.542 182.831 725.262 195.073C735.955 207.285 742.377 223.195 740.269 243.871C738.158 264.59 727.474 290.173 703.766 321.647C665.211 372.833 628.793 409.814 595.527 443.595C587.82 451.421 580.283 459.075 572.927 466.694C533.822 507.2 499.89 546.686 473.22 605.609Z" stroke="url(#paint10_linear_0_5037)" stroke-width="2"/>
<path d="M486.184 616.57L486.181 616.575C473.893 643.826 461.885 667.335 450.302 686.264C438.712 705.207 427.58 719.507 417.061 728.39C406.534 737.28 396.795 740.609 387.879 738.039C378.914 735.454 370.404 726.808 362.608 710.809C328.378 633.513 287.038 513.362 281.457 425.395C276.783 335.141 355.809 237.325 461.788 240.226C515.309 241.692 555.657 227.446 587.999 213.3C594.406 210.497 600.477 207.709 606.269 205.049C615.133 200.978 623.341 197.208 631.093 194.15C643.884 189.103 655.211 186.091 665.8 186.935C676.558 187.792 692.293 190.29 708.226 195.559C724.17 200.831 740.23 208.851 751.723 220.701C763.183 232.517 770.133 248.166 767.873 268.849C765.608 289.586 754.074 315.477 728.322 347.675C684.306 402.71 643.468 438.607 606.943 470.712C600.687 476.212 594.557 481.6 588.56 486.954C547.542 523.57 512.727 558.581 486.184 616.57Z" stroke="url(#paint11_linear_0_5037)" stroke-width="2"/>
<path d="M499.323 628.056L499.321 628.062C487.197 654.666 475.423 677.463 464.127 695.74C452.823 714.03 442.03 727.736 431.884 736.208C421.73 744.686 412.399 747.788 403.903 745.294C395.359 742.787 387.286 734.519 379.928 719.33C347.155 643.968 307.183 525.119 302.526 440.959C300.697 397.672 320.841 352.056 354.684 318.501C388.516 284.956 435.965 263.54 488.664 268.536C541.943 273.587 581.457 260.091 612.951 245.543C620.801 241.917 628.154 238.225 635.088 234.743L635.136 234.719C642.089 231.227 648.614 227.952 654.821 225.152C667.252 219.545 678.275 215.911 688.695 216.261C699.286 216.616 715.568 218.514 732.287 223.211C749.018 227.912 766.093 235.391 778.362 246.852C790.59 258.274 798.064 273.664 795.653 294.352C793.234 315.109 780.849 341.309 753.053 374.231C703.44 432.994 658.185 467.123 618.534 497.025C613.731 500.647 609.01 504.207 604.374 507.741C561.447 540.466 525.743 570.997 499.323 628.056Z" stroke="url(#paint12_linear_0_5037)" stroke-width="2"/>
<path d="M512.623 640.045L512.621 640.051C500.661 666.007 489.122 688.094 478.112 705.718C467.094 723.355 456.64 736.468 446.867 744.528C437.088 752.593 428.163 755.469 420.088 753.052C411.964 750.621 404.329 742.733 397.407 728.354C366.091 654.925 327.488 537.377 323.755 457.026C322.432 415.539 344.152 371.334 379.4 339.623C414.633 307.925 463.283 288.803 515.701 297.343C568.734 305.983 607.416 293.24 638.064 278.288C645.719 274.554 652.872 270.682 659.613 266.977C660.767 266.343 661.908 265.714 663.037 265.091C668.514 262.073 673.714 259.207 678.71 256.654C690.78 250.486 701.499 246.231 711.752 246.087C722.173 245.941 738.999 247.237 756.505 251.363C774.023 255.491 792.115 262.43 805.161 273.502C818.159 284.533 826.155 299.664 823.593 320.357C821.02 341.135 807.785 367.645 777.943 401.291C722.614 463.676 672.951 495.411 630.303 522.664C626.943 524.811 623.627 526.93 620.355 529.034C575.522 557.864 538.921 583.912 512.623 640.045Z" stroke="url(#paint13_linear_0_5037)" stroke-width="2"/>
<path d="M526.096 652.499L526.093 652.505C514.298 677.815 502.994 699.19 492.27 716.162C481.539 733.147 471.424 745.665 462.024 753.314C452.619 760.967 444.101 763.616 436.446 761.277C428.742 758.922 421.544 751.413 415.06 737.844C385.201 666.347 347.966 550.102 345.158 473.559C344.339 433.874 367.632 391.078 404.287 361.21C440.922 331.357 490.773 314.529 542.912 326.612C595.696 338.845 633.547 326.856 663.35 311.499C673.123 306.463 682.07 301.041 690.363 296.015C694.667 293.407 698.795 290.905 702.771 288.62C714.48 281.889 724.897 277.013 734.983 276.377C745.232 275.731 762.601 276.425 780.893 279.978C799.198 283.534 818.309 289.931 832.133 300.615C845.904 311.257 854.419 326.132 851.706 346.828C848.979 367.628 834.894 394.448 803.006 428.819C741.852 494.736 687.796 523.503 642.274 547.729C640.338 548.759 638.418 549.781 636.513 550.797C589.782 575.73 552.274 597.289 526.096 652.499Z" stroke="url(#paint14_linear_0_5037)" stroke-width="2"/>
<path d="M539.73 665.402L539.727 665.409C528.096 690.072 517.026 710.735 506.589 727.055C496.144 743.386 486.368 755.311 477.342 762.548C468.311 769.789 460.2 772.212 452.965 769.95C445.681 767.673 438.921 760.543 432.873 747.783C404.471 678.219 368.605 563.277 366.721 490.543C366.405 452.66 391.268 411.272 429.333 383.244C467.371 355.236 518.424 340.7 570.286 356.326C622.815 372.153 659.837 360.924 688.797 345.157C699.164 339.514 708.522 333.273 717.155 327.516C720.54 325.258 723.813 323.076 726.991 321.033C738.339 313.738 748.455 308.241 758.376 307.114C768.45 305.969 786.361 306.061 805.44 309.041C824.531 312.023 844.661 317.878 859.265 328.174C873.812 338.429 882.843 353.051 879.979 373.749C877.098 394.572 862.163 421.702 828.228 456.798C761.152 526.17 702.718 551.442 654.439 572.322L652.836 573.016C604.215 594.049 565.791 611.111 539.73 665.402Z" stroke="url(#paint15_linear_0_5037)" stroke-width="2"/>
<path d="M553.529 678.726L553.526 678.733C542.06 702.749 531.224 722.701 521.074 738.368C510.916 754.046 501.479 765.377 492.826 772.203C484.17 779.031 476.466 781.229 469.651 779.045C462.786 776.844 456.463 770.093 450.852 758.144C437.391 724.357 422.028 679.042 409.91 633.543C397.785 588.02 388.929 542.385 388.449 507.949C388.635 471.869 415.065 431.885 454.543 405.696C493.984 379.533 546.241 367.289 597.828 386.458C650.097 405.88 686.291 395.415 714.411 379.236C725.179 373.04 734.778 365.996 743.605 359.52C746.262 357.57 748.849 355.672 751.376 353.864C762.361 346.005 772.177 339.886 781.934 338.268C791.833 336.627 810.282 336.115 830.15 338.523C850.027 340.931 871.177 346.243 886.562 356.151C894.244 361.099 900.452 367.168 904.367 374.559C908.276 381.939 909.931 390.696 908.418 401.09C905.384 421.936 889.597 449.378 853.615 485.199C781.728 556.763 719.798 578.536 669.326 595.661C668.451 595.957 667.579 596.253 666.711 596.547C617.468 613.242 579.026 626.274 553.529 678.726Z" stroke="url(#paint16_linear_0_5037)" stroke-width="2"/>
<path d="M567.501 692.452L567.497 692.458C556.196 715.828 545.595 735.068 535.731 750.082C525.86 765.108 516.762 775.845 508.483 782.259C500.202 788.675 492.906 790.648 486.509 788.542C480.064 786.419 474.177 780.047 469.003 768.907C456.271 736.088 441.614 691.582 430.136 647.125C418.65 602.641 410.368 558.287 410.349 525.758C411.037 491.482 439.03 452.898 479.925 428.549C520.769 404.23 574.231 394.276 625.546 416.989C651.512 428.481 673.354 431.83 692.142 430.206C710.929 428.583 726.589 421.993 740.197 413.715C751.21 407.016 760.913 399.186 769.82 391.999C771.898 390.322 773.933 388.68 775.932 387.095C786.553 378.672 796.07 371.931 805.666 369.822C815.388 367.686 834.373 366.572 855.03 368.405C875.692 370.239 897.864 375.008 914.031 384.529C922.104 389.283 928.636 395.196 932.756 402.475C936.869 409.74 938.619 418.432 937.03 428.833C933.842 449.704 917.204 477.458 879.173 514.003C803.219 586.991 738.345 605.48 685.988 618.715C683.746 619.281 681.526 619.839 679.328 620.39C655.872 626.279 634.928 631.536 616.796 640.873C596.903 651.116 580.397 666.261 567.501 692.452Z" stroke="url(#paint17_linear_0_5037)" stroke-width="2"/>
<path d="M581.638 706.559L581.635 706.566C570.498 729.288 560.132 747.817 550.555 762.178C540.97 776.551 532.212 786.694 524.307 792.697C516.401 798.7 509.512 800.449 503.535 798.421C497.508 796.376 492.058 790.382 487.321 780.053C475.318 748.201 461.367 704.504 450.528 661.09C439.681 617.645 431.974 574.572 432.415 543.951C433.007 527.74 440.665 510.335 453.516 494.136C466.361 477.943 484.348 463.018 505.471 451.781C547.721 429.306 602.388 421.642 653.434 447.899C679.257 461.182 700.824 465.629 719.273 464.597C737.724 463.565 752.968 457.057 766.149 448.576C777.28 441.413 786.975 432.817 795.87 424.93C797.489 423.494 799.082 422.082 800.651 420.706C810.908 411.719 820.127 404.355 829.563 401.755C839.107 399.126 858.626 397.409 880.074 398.668C901.52 399.927 924.714 404.152 941.665 413.285C950.13 417.846 956.985 423.603 961.312 430.772C965.627 437.923 967.472 446.551 965.807 456.958C962.465 477.854 944.975 505.92 904.897 543.19C824.875 617.603 757.057 632.809 702.816 642.157C699.188 642.782 695.617 643.382 692.104 643.971C669.38 647.786 649.1 651.191 631.543 658.529C611.188 667.037 594.477 680.827 581.638 706.559Z" stroke="url(#paint18_linear_0_5037)" stroke-width="2"/>
<path d="M595.965 721.039L595.962 721.045C584.989 743.121 574.858 760.938 565.568 774.646C556.27 788.367 547.851 797.915 540.321 803.506C532.791 809.097 526.309 810.623 520.75 808.673C515.142 806.706 510.128 801.091 505.828 791.572C494.553 760.687 481.309 717.799 471.109 675.427C460.901 633.02 453.768 591.23 454.67 562.518C455.51 547.215 463.674 530.609 477.163 515.207C490.644 499.814 509.38 485.699 531.207 475.383C574.862 454.752 630.737 449.377 681.515 479.18C707.194 494.251 728.483 499.797 746.592 499.359C764.708 498.92 779.537 492.494 792.291 483.808C803.433 476.22 813.029 466.878 821.84 458.3C823.094 457.078 824.333 455.872 825.558 454.689C835.448 445.136 844.371 437.148 853.649 434.058C863.015 430.938 883.065 428.618 905.305 429.303C927.535 429.987 951.751 433.667 969.487 442.412C978.346 446.78 985.525 452.381 990.058 459.442C994.576 466.479 996.514 475.042 994.774 485.455C991.278 506.378 972.936 534.757 930.809 572.751C846.72 648.59 775.956 660.513 719.831 665.978C714.806 666.467 709.892 666.905 705.09 667.332C683.101 669.291 663.479 671.038 646.483 676.563C625.668 683.33 608.748 695.763 595.965 721.039Z" stroke="url(#paint19_linear_0_5037)" stroke-width="2"/>
<path d="M610.48 735.864L610.477 735.87C599.669 757.298 589.773 774.404 580.77 787.459C571.759 800.526 563.68 809.48 556.524 814.66C549.37 819.838 543.297 821.141 538.155 819.271C532.965 817.382 528.387 812.145 524.524 803.437C513.977 773.519 501.439 731.439 491.879 690.11C482.309 648.741 475.751 608.234 477.112 581.432C478.199 567.037 486.865 551.23 500.995 536.623C515.113 522.029 534.6 508.722 557.13 499.328C602.192 480.54 659.276 477.455 709.788 510.805C735.32 527.663 756.33 534.308 774.097 534.465C791.88 534.621 806.294 528.275 818.621 519.384C829.685 511.403 839.107 501.34 847.774 492.083C848.742 491.049 849.701 490.025 850.651 489.016C860.173 478.898 868.801 470.285 877.923 466.703C887.111 463.095 907.69 460.172 930.723 460.281C953.736 460.39 978.975 463.526 997.496 471.882C1006.75 476.057 1014.25 481.503 1018.99 488.455C1023.71 495.381 1025.74 503.878 1023.93 514.298C1020.28 535.248 1001.08 563.939 956.909 602.657C868.751 679.923 795.043 688.565 737.03 690.149C730.598 690.325 724.346 690.413 718.28 690.499C697.027 690.799 678.059 691.067 661.615 694.949C640.344 699.969 623.21 711.041 610.48 735.864Z" stroke="url(#paint20_linear_0_5037)" stroke-width="2"/>
<path d="M625.202 751.025L625.199 751.03C614.556 771.811 604.894 788.205 596.178 800.607C587.454 813.021 579.715 821.381 572.935 826.15C566.158 830.915 560.492 831.997 555.768 830.205C550.995 828.395 546.852 823.537 543.426 815.639C533.607 786.688 521.775 745.417 512.854 705.13C503.924 664.797 497.941 625.575 499.76 600.686C501.091 587.199 510.258 572.188 525.032 558.374C539.786 544.578 560.026 532.08 583.26 523.607C629.729 506.663 688.023 505.866 738.271 542.766C763.655 561.407 784.383 569.153 801.807 569.906C819.258 570.659 833.259 564.392 845.158 555.295C856.068 546.954 865.256 536.194 873.73 526.271C874.475 525.4 875.213 524.534 875.948 523.678C885.101 512.996 893.434 503.757 902.401 499.682C906.877 497.648 914.39 495.737 923.817 494.279C933.222 492.823 944.46 491.829 956.345 491.596C980.142 491.13 1006.4 493.72 1025.71 501.687C1035.36 505.668 1043.19 510.96 1048.13 517.805C1053.06 524.618 1055.18 533.051 1053.29 543.477C1051.39 553.939 1045.45 566.432 1034.16 581.265C1022.88 596.09 1006.3 613.203 983.214 632.9C890.987 711.594 814.334 716.956 754.431 714.662C746.934 714.375 739.697 713.968 732.718 713.568L731.586 713.503C725.014 713.127 718.669 712.763 712.564 712.522C699.659 712.013 687.769 712.048 676.953 713.677C666.128 715.307 656.351 718.538 647.686 724.437C639.019 730.339 631.523 738.873 625.202 751.025Z" stroke="url(#paint21_linear_0_5037)" stroke-width="2"/>
<path d="M640.146 766.512L640.144 766.517C629.666 786.651 620.239 802.333 611.81 814.081C603.373 825.842 595.975 833.607 589.57 837.965C583.171 842.318 577.914 843.179 573.607 841.468C569.25 839.737 565.542 835.257 562.552 828.169C553.461 800.184 542.334 759.721 534.053 720.477C525.761 681.179 520.354 643.245 522.631 620.269C524.204 607.69 533.869 593.472 549.29 580.449C564.683 567.451 585.675 555.761 609.614 548.21C657.49 533.11 716.997 534.602 766.981 575.053C792.217 595.476 812.66 604.322 829.74 605.672C846.859 607.025 860.448 600.836 871.919 591.531C882.611 582.858 891.515 571.432 899.756 560.858C900.328 560.123 900.898 559.392 901.465 558.666C910.248 547.421 918.287 537.553 927.1 532.985C931.485 530.713 939.081 528.529 948.725 526.785C958.342 525.045 969.912 523.757 982.188 523.237C1006.77 522.195 1034.05 524.239 1054.15 531.816C1064.19 535.604 1072.34 540.741 1077.5 547.48C1082.62 554.183 1084.84 562.55 1082.87 572.983C1080.9 583.456 1074.71 596.034 1062.93 611.042C1051.15 626.042 1033.85 643.413 1009.74 663.471C961.568 703.553 917.589 724.091 877.959 733.847C838.324 743.605 802.983 742.594 772.052 739.505C762.689 738.57 753.763 737.449 745.234 736.378C739.644 735.676 734.224 734.995 728.962 734.402C715.716 732.909 703.547 731.982 692.516 732.738C681.475 733.495 671.53 735.94 662.756 741.222C653.975 746.507 646.438 754.591 640.146 766.512Z" stroke="url(#paint22_linear_0_5037)" stroke-width="2"/>
<path d="M655.336 782.305L655.333 782.31C645.02 801.796 635.828 816.766 627.688 827.861C619.538 838.968 612.481 846.138 606.452 850.085C600.433 854.025 595.584 854.667 591.692 853.037C587.751 851.387 584.476 847.284 581.922 841.007C573.56 813.987 563.139 774.333 555.497 736.13C547.842 697.865 543.012 661.222 545.745 640.162C547.557 628.489 557.719 615.061 573.791 602.829C589.823 590.627 611.569 579.746 636.213 573.117C685.498 559.861 746.218 563.643 795.939 607.647C821.026 629.849 841.184 639.794 857.915 641.743C874.704 643.698 887.881 637.585 898.924 628.073C909.346 619.094 917.925 607.033 925.898 595.825C926.342 595.2 926.784 594.578 927.225 593.96C931.413 588.08 935.45 582.502 939.54 577.747C943.634 572.989 947.738 569.109 952.042 566.593C956.336 564.083 964.015 561.627 973.876 559.597C983.706 557.573 995.607 555.99 1008.28 555.183C1033.64 553.566 1061.95 555.063 1082.82 562.251C1093.26 565.844 1101.75 570.827 1107.11 577.461C1112.43 584.053 1114.74 592.356 1112.7 602.795C1110.65 613.28 1104.21 625.943 1091.94 641.126C1079.67 656.3 1061.64 673.93 1036.51 694.348C986.303 735.146 940.57 755.219 899.459 763.851C858.343 772.484 821.792 769.686 789.912 764.657C779.093 762.95 768.833 760.991 759.104 759.132C754.483 758.25 749.983 757.39 745.599 756.592C732.013 754.116 719.565 752.229 708.32 752.113C697.068 751.996 686.958 753.652 678.074 758.313C669.178 762.981 661.599 770.615 655.336 782.305Z" stroke="url(#paint23_linear_0_5037)" stroke-width="2"/>
<path d="M670.793 798.4L670.791 798.404C660.643 817.243 651.686 831.5 643.833 841.942C635.972 852.396 629.256 858.97 623.605 862.506C617.965 866.033 613.525 866.458 610.048 864.911C606.521 863.342 603.679 859.616 601.561 854.15C593.926 828.095 584.211 789.248 577.208 752.086C573.705 733.496 570.883 715.342 569.339 699.43C567.794 683.504 567.537 669.898 569.124 660.362C570.144 655.005 573.299 649.158 578.332 643.194C583.361 637.235 590.221 631.212 598.557 625.509C615.23 614.103 637.731 604.031 663.08 598.324C713.775 586.912 775.709 592.984 825.168 640.543C850.106 664.523 869.977 675.566 886.357 678.115C902.816 680.675 915.583 674.637 926.196 664.915C936.303 655.657 944.523 642.995 952.201 631.171C952.551 630.631 952.901 630.092 953.249 629.556C957.253 623.397 961.123 617.521 965.074 612.474C969.028 607.425 973.022 603.263 977.25 600.501C981.454 597.755 989.216 595.028 999.294 592.711C1009.34 590.403 1021.57 588.526 1034.63 587.431C1060.77 585.238 1090.11 586.188 1111.77 592.986C1122.6 596.385 1131.42 601.214 1136.98 607.743C1142.51 614.226 1144.91 622.464 1142.8 632.909C1140.67 643.406 1133.98 656.155 1121.22 671.513C1108.46 686.861 1089.7 704.75 1063.55 725.529C1011.3 767.042 963.817 786.651 921.226 794.159C878.628 801.667 840.864 797.082 808.035 790.113C795.74 787.503 784.153 784.563 773.252 781.797C769.59 780.868 766.006 779.958 762.498 779.087C748.571 775.63 735.846 772.782 724.389 771.795C712.928 770.807 702.655 771.673 693.664 775.709C684.652 779.755 677.029 786.94 670.793 798.4Z" stroke="url(#paint24_linear_0_5037)" stroke-width="2"/>
<path d="M686.545 814.78L686.544 814.783C676.56 832.974 667.839 846.519 660.275 856.307C652.701 866.107 646.328 872.086 641.055 875.21C635.798 878.325 631.767 878.536 628.703 877.072C625.588 875.585 623.178 872.235 621.495 867.581C614.588 842.491 605.578 804.449 599.214 768.328C596.03 750.259 593.512 732.685 592.249 717.462C590.984 702.218 590.987 689.421 592.796 680.853C593.93 675.952 597.262 670.524 602.54 664.961C607.809 659.405 614.961 653.776 623.618 648.472C640.932 637.862 664.189 628.599 690.243 623.815C742.348 614.247 805.498 622.609 854.694 673.725C879.485 699.482 899.066 711.621 915.093 714.77C931.223 717.938 943.581 711.972 953.764 702.041C963.516 692.528 971.353 679.302 978.711 666.883C978.997 666.4 979.282 665.918 979.567 665.438C983.385 658.999 987.088 652.825 990.9 647.487C994.715 642.145 998.597 637.701 1002.75 634.693C1006.86 631.712 1014.71 628.713 1025 626.11C1035.26 623.517 1047.82 621.346 1061.27 619.964C1088.2 617.195 1118.56 617.598 1141.01 624.005C1152.24 627.209 1161.38 631.884 1167.16 638.309C1172.89 644.684 1175.38 652.858 1173.19 663.307C1170.99 673.817 1164.04 686.652 1150.79 702.186C1137.54 717.707 1118.06 735.856 1090.89 756.994C1036.6 799.224 987.358 818.369 943.286 824.753C899.206 831.137 860.228 824.765 826.449 815.857C812.66 812.22 799.751 808.165 787.704 804.381C784.988 803.528 782.315 802.688 779.686 801.87C765.417 797.431 752.416 793.625 740.749 791.767C729.082 789.91 718.649 789.984 709.552 793.393C700.423 796.814 692.754 803.548 686.545 814.78Z" stroke="url(#paint25_linear_0_5037)" stroke-width="2"/>
<path d="M702.562 831.46L702.562 831.461C692.743 849.004 684.258 861.836 676.982 870.97C669.697 880.116 663.667 885.499 658.774 888.213C653.902 890.915 650.281 890.914 647.628 889.536C644.923 888.132 642.943 885.158 641.696 881.318C635.515 857.191 627.21 819.953 621.484 784.871C618.621 767.322 616.405 750.328 615.423 735.794C614.439 721.229 614.702 709.247 616.729 701.651C617.974 697.204 621.481 692.192 627.008 687.026C632.519 681.873 639.963 676.638 648.942 671.731C666.9 661.918 690.912 653.464 717.673 649.602C771.188 641.88 835.554 652.533 884.489 707.207C909.132 734.74 928.423 747.973 944.093 751.722C959.894 755.503 971.845 749.607 981.596 739.465C990.963 729.722 998.393 715.97 1005.41 702.978C1005.66 702.524 1005.9 702.071 1006.15 701.619C1009.78 694.902 1013.32 688.429 1016.99 682.8C1020.66 677.166 1024.43 672.439 1028.51 669.183C1032.54 665.967 1040.47 662.697 1050.98 659.808C1061.45 656.931 1074.34 654.466 1088.18 652.796C1115.9 649.452 1147.27 649.307 1170.51 655.322C1182.14 658.331 1191.61 662.853 1197.59 669.174C1203.53 675.441 1206.11 683.551 1203.85 694.006C1201.57 704.529 1194.37 717.45 1180.63 733.158C1166.89 748.854 1146.68 767.261 1118.48 788.76C1062.16 831.705 1011.16 850.388 965.608 855.647C920.045 860.908 879.854 852.749 845.123 841.9C829.825 837.122 815.6 831.826 802.431 826.924C800.646 826.259 798.88 825.602 797.134 824.954C782.523 819.534 769.245 814.769 757.369 812.043C745.497 809.318 734.908 808.6 725.708 811.379C716.462 814.171 708.746 820.454 702.562 831.46Z" stroke="url(#paint26_linear_0_5037)" stroke-width="2"/>
</g>
<defs>
<linearGradient id="paint0_linear_0_5037" x1="236.857" y1="-29.9579" x2="431.693" y2="697.181" gradientUnits="userSpaceOnUse">
<stop stop-color="#DC4CD7"/>
<stop offset="1" stop-color="#E2A7E0"/>
</linearGradient>
<linearGradient id="paint1_linear_0_5037" x1="901.816" y1="629.834" x2="975.765" y2="905.815" gradientUnits="userSpaceOnUse">
<stop stop-color="#DC4CD7"/>
<stop offset="1" stop-color="#E2A7E0"/>
</linearGradient>
<linearGradient id="paint2_linear_0_5037" x1="261.681" y1="-4.38107" x2="449.381" y2="696.125" gradientUnits="userSpaceOnUse">
<stop stop-color="#DC4CD7"/>
<stop offset="1" stop-color="#E2A7E0"/>
</linearGradient>
<linearGradient id="paint3_linear_0_5037" x1="286.663" y1="21.1552" x2="467.244" y2="695.094" gradientUnits="userSpaceOnUse">
<stop stop-color="#DC4CD7"/>
<stop offset="1" stop-color="#E2A7E0"/>
</linearGradient>
<linearGradient id="paint4_linear_0_5037" x1="311.774" y1="46.655" x2="485.263" y2="694.127" gradientUnits="userSpaceOnUse">
<stop stop-color="#DC4CD7"/>
<stop offset="1" stop-color="#E2A7E0"/>
</linearGradient>
<linearGradient id="paint5_linear_0_5037" x1="336.97" y1="72.1368" x2="503.409" y2="693.295" gradientUnits="userSpaceOnUse">
<stop stop-color="#DC4CD7"/>
<stop offset="1" stop-color="#E2A7E0"/>
</linearGradient>
<linearGradient id="paint6_linear_0_5037" x1="362.233" y1="97.5948" x2="521.682" y2="692.664" gradientUnits="userSpaceOnUse">
<stop stop-color="#DC4CD7"/>
<stop offset="1" stop-color="#E2A7E0"/>
</linearGradient>
<linearGradient id="paint7_linear_0_5037" x1="387.548" y1="123.041" x2="540.086" y2="692.319" gradientUnits="userSpaceOnUse">
<stop stop-color="#DC4CD7"/>
<stop offset="1" stop-color="#E2A7E0"/>
</linearGradient>
<linearGradient id="paint8_linear_0_5037" x1="412.904" y1="148.476" x2="558.624" y2="692.311" gradientUnits="userSpaceOnUse">
<stop stop-color="#DC4CD7"/>
<stop offset="1" stop-color="#E2A7E0"/>
</linearGradient>
<linearGradient id="paint9_linear_0_5037" x1="438.299" y1="173.904" x2="577.298" y2="692.655" gradientUnits="userSpaceOnUse">
<stop stop-color="#DC4CD7"/>
<stop offset="1" stop-color="#E2A7E0"/>
</linearGradient>
<linearGradient id="paint10_linear_0_5037" x1="463.721" y1="199.319" x2="596.472" y2="694.756" gradientUnits="userSpaceOnUse">
<stop stop-color="#DC4CD7"/>
<stop offset="1" stop-color="#E2A7E0"/>
</linearGradient>
<linearGradient id="paint11_linear_0_5037" x1="489.17" y1="224.731" x2="616.387" y2="699.515" gradientUnits="userSpaceOnUse">
<stop stop-color="#DC4CD7"/>
<stop offset="1" stop-color="#E2A7E0"/>
</linearGradient>
<linearGradient id="paint12_linear_0_5037" x1="514.649" y1="250.133" x2="636.482" y2="704.821" gradientUnits="userSpaceOnUse">
<stop stop-color="#DC4CD7"/>
<stop offset="1" stop-color="#E2A7E0"/>
</linearGradient>
<linearGradient id="paint13_linear_0_5037" x1="540.146" y1="275.531" x2="656.736" y2="710.651" gradientUnits="userSpaceOnUse">
<stop stop-color="#DC4CD7"/>
<stop offset="1" stop-color="#E2A7E0"/>
</linearGradient>
<linearGradient id="paint14_linear_0_5037" x1="565.678" y1="300.918" x2="677.159" y2="716.969" gradientUnits="userSpaceOnUse">
<stop stop-color="#DC4CD7"/>
<stop offset="1" stop-color="#E2A7E0"/>
</linearGradient>
<linearGradient id="paint15_linear_0_5037" x1="591.234" y1="326.301" x2="697.732" y2="723.759" gradientUnits="userSpaceOnUse">
<stop stop-color="#DC4CD7"/>
<stop offset="1" stop-color="#E2A7E0"/>
</linearGradient>
<linearGradient id="paint16_linear_0_5037" x1="616.82" y1="351.675" x2="718.458" y2="730.992" gradientUnits="userSpaceOnUse">
<stop stop-color="#DC4CD7"/>
<stop offset="1" stop-color="#E2A7E0"/>
</linearGradient>
<linearGradient id="paint17_linear_0_5037" x1="642.443" y1="377.039" x2="739.337" y2="738.652" gradientUnits="userSpaceOnUse">
<stop stop-color="#DC4CD7"/>
<stop offset="1" stop-color="#E2A7E0"/>
</linearGradient>
<linearGradient id="paint18_linear_0_5037" x1="668.095" y1="402.392" x2="760.357" y2="746.719" gradientUnits="userSpaceOnUse">
<stop stop-color="#DC4CD7"/>
<stop offset="1" stop-color="#E2A7E0"/>
</linearGradient>
<linearGradient id="paint19_linear_0_5037" x1="693.798" y1="427.739" x2="781.537" y2="755.185" gradientUnits="userSpaceOnUse">
<stop stop-color="#DC4CD7"/>
<stop offset="1" stop-color="#E2A7E0"/>
</linearGradient>
<linearGradient id="paint20_linear_0_5037" x1="719.545" y1="453.067" x2="802.866" y2="764.026" gradientUnits="userSpaceOnUse">
<stop stop-color="#DC4CD7"/>
<stop offset="1" stop-color="#E2A7E0"/>
</linearGradient>
<linearGradient id="paint21_linear_0_5037" x1="745.35" y1="478.38" x2="824.356" y2="773.235" gradientUnits="userSpaceOnUse">
<stop stop-color="#DC4CD7"/>
<stop offset="1" stop-color="#E2A7E0"/>
</linearGradient>
<linearGradient id="paint22_linear_0_5037" x1="771.22" y1="503.68" x2="846.012" y2="782.806" gradientUnits="userSpaceOnUse">
<stop stop-color="#DC4CD7"/>
<stop offset="1" stop-color="#E2A7E0"/>
</linearGradient>
<linearGradient id="paint23_linear_0_5037" x1="797.168" y1="528.954" x2="867.845" y2="792.723" gradientUnits="userSpaceOnUse">
<stop stop-color="#DC4CD7"/>
<stop offset="1" stop-color="#E2A7E0"/>
</linearGradient>
<linearGradient id="paint24_linear_0_5037" x1="823.206" y1="554.208" x2="892.785" y2="813.882" gradientUnits="userSpaceOnUse">
<stop stop-color="#DC4CD7"/>
<stop offset="1" stop-color="#E2A7E0"/>
</linearGradient>
<linearGradient id="paint25_linear_0_5037" x1="849.349" y1="579.432" x2="920.248" y2="844.031" gradientUnits="userSpaceOnUse">
<stop stop-color="#DC4CD7"/>
<stop offset="1" stop-color="#E2A7E0"/>
</linearGradient>
<linearGradient id="paint26_linear_0_5037" x1="875.577" y1="604.637" x2="947.935" y2="874.68" gradientUnits="userSpaceOnUse">
<stop stop-color="#DC4CD7"/>
<stop offset="1" stop-color="#E2A7E0"/>
</linearGradient>
</defs>
</svg>
