<svg width="1440" height="872" viewBox="0 0 1440 872" fill="none" xmlns="http://www.w3.org/2000/svg">
<g opacity="0.14">
<path opacity="0.0144928" d="M-617.628 884.16L-671.671 558.827C-672.721 552.507 -671.233 546.027 -667.531 540.798L-394.769 155.482C-391.858 151.37 -387.741 148.263 -382.987 146.593L7.09258 9.52218C15.7115 6.49354 25.3008 8.55303 31.9161 14.8535L240.172 213.199C246.787 219.499 249.311 228.977 246.706 237.733L128.802 634.028C127.365 638.857 124.463 643.12 120.498 646.229L-251.073 937.439C-256.115 941.391 -262.514 943.193 -268.878 942.452L-596.458 904.322C-607.219 903.07 -615.852 894.847 -617.628 884.16Z" stroke="url(#paint0_linear_2740_25439)" stroke-opacity="0.7" stroke-width="2.0257"/>
<path opacity="0.0289855" d="M-575.048 913.522L-646.047 593.885C-647.438 587.621 -646.296 581.062 -642.871 575.637L-393.155 180.121C-390.457 175.848 -386.494 172.522 -381.818 170.605L-2.52825 15.1734C5.91404 11.7138 15.5829 13.2729 22.5099 19.2108L239.562 205.272C246.489 211.21 249.507 220.526 247.379 229.398L151.75 627.989C150.571 632.904 147.89 637.328 144.079 640.648L-208.618 947.886C-213.456 952.1 -219.764 954.231 -226.167 953.814L-552.9 932.508C-563.682 931.805 -572.705 924.069 -575.048 913.522Z" stroke="url(#paint1_linear_2740_25439)" stroke-opacity="0.7" stroke-width="2.0257"/>
<path opacity="0.0434783" d="M-531.846 941.409L-619.351 628.345C-621.081 622.156 -620.29 615.535 -617.152 609.928L-390.795 205.559C-388.319 201.136 -384.522 197.598 -379.935 195.439L-12.2809 22.3946C-4.03663 18.5143 5.68531 19.5703 12.9041 25.1303L238.041 198.533C245.26 204.093 248.763 213.223 247.117 222.185L173.676 621.835C172.76 626.821 170.308 631.395 166.664 634.919L-166.509 957.016C-171.129 961.482 -177.329 963.938 -183.754 963.845L-508.785 959.171C-519.559 959.016 -528.945 951.787 -531.846 941.409Z" stroke="url(#paint2_linear_2740_25439)" stroke-opacity="0.7" stroke-width="2.0257"/>
<path opacity="0.057971" d="M-488.104 967.799L-591.623 662.152C-593.687 656.057 -593.251 649.391 -590.408 643.618L-387.647 231.749C-385.401 227.187 -381.781 223.444 -377.297 221.047L-22.0731 31.1758C-14.048 26.8863 -4.29924 27.438 3.19059 32.6056L235.688 193.017C243.177 198.185 247.154 207.103 245.993 216.128L194.586 615.618C193.937 620.661 191.723 625.374 188.255 629.093L-124.813 964.856C-129.201 969.562 -135.278 972.337 -141.709 972.571L-464.198 984.294C-474.936 984.684 -484.657 977.977 -488.104 967.799Z" stroke="url(#paint3_linear_2740_25439)" stroke-opacity="0.7" stroke-width="2.0257"/>
<path opacity="0.0724638" d="M-443.904 992.684L-562.9 695.264C-565.294 689.28 -565.214 682.59 -562.677 676.665L-383.67 258.647C-381.662 253.958 -378.23 250.02 -373.86 247.389L-31.8132 41.512C-24.0276 36.8259 -14.2783 36.8735 -6.53887 41.6355L232.58 188.764C240.319 193.526 244.756 202.207 244.083 211.269L214.488 609.397C214.11 614.483 212.141 619.322 208.861 623.228L-83.5918 971.444C-87.7369 976.379 -93.6724 979.467 -100.093 980.027L-419.222 1007.87C-429.898 1008.8 -439.924 1002.63 -443.904 992.684Z" stroke="url(#paint4_linear_2740_25439)" stroke-opacity="0.7" stroke-width="2.0257"/>
<path opacity="0.0869565" d="M-399.338 1016.05L-533.235 727.628C-535.953 721.773 -536.231 715.077 -534.007 709.017L-378.836 286.198C-377.073 281.394 -373.84 277.269 -369.595 274.411L-41.4207 53.3789C-33.8942 48.3096 -24.1707 47.8546 -16.2037 52.199L228.788 185.794C236.755 190.138 241.639 198.559 241.454 207.631L233.384 603.217C233.28 608.333 231.564 613.286 228.481 617.37L-42.9176 976.81C-46.8074 981.961 -52.5864 985.354 -58.9805 986.24L-373.953 1029.89C-384.538 1031.35 -394.839 1025.74 -399.338 1016.05Z" stroke="url(#paint5_linear_2740_25439)" stroke-opacity="0.7" stroke-width="2.0257"/>
<path opacity="0.101449" d="M-354.492 1037.88L-502.674 759.204C-505.709 753.496 -506.346 746.813 -504.442 740.635L-373.116 314.353C-371.605 309.447 -368.579 305.146 -364.472 302.065L-50.8112 66.7593C-43.5625 61.3214 -33.8908 60.3669 -25.719 64.2828L224.389 184.135C232.561 188.051 237.876 196.187 238.179 205.244L251.286 597.137C251.458 602.268 250.001 607.321 247.124 611.573L-2.85273 980.997C-6.47596 986.351 -12.083 990.042 -18.4338 991.253L-328.477 1050.35C-338.944 1052.34 -349.489 1047.29 -354.492 1037.88Z" stroke="url(#paint6_linear_2740_25439)" stroke-opacity="0.7" stroke-width="2.0257"/>
<path opacity="0.115942" d="M-309.449 1058.2L-471.267 789.955C-474.611 784.41 -475.606 777.76 -474.029 771.48L-366.48 343.062C-365.226 338.067 -362.418 333.599 -358.46 330.303L-59.9007 81.6289C-52.9479 75.8378 -43.354 74.388 -35.0004 77.8659L219.463 183.808C227.816 187.286 233.547 195.116 234.335 204.13L268.208 591.208C268.657 596.339 267.465 601.479 264.803 605.889L36.5436 984.05C33.1974 989.594 27.7776 993.573 21.4862 995.106L-282.881 1069.26C-293.203 1071.77 -303.962 1067.29 -309.449 1058.2Z" stroke="url(#paint7_linear_2740_25439)" stroke-opacity="0.7" stroke-width="2.0257"/>
<path opacity="0.130435" d="M-264.299 1076.98L-439.067 819.837C-442.712 814.473 -444.063 807.875 -442.819 801.51L-358.907 372.266C-357.915 367.194 -355.333 362.571 -351.536 359.066L-68.6119 97.9522C-61.9722 91.8243 -52.4814 89.8847 -43.9698 92.9162L214.083 184.824C222.594 187.855 228.722 195.358 229.994 204.303L284.162 585.475C284.889 590.591 283.967 595.806 281.529 600.362L75.2112 986.01C72.1517 991.729 66.9339 995.988 60.7182 997.84L-237.253 1086.62C-247.404 1089.64 -258.345 1085.74 -264.299 1076.98Z" stroke="url(#paint8_linear_2740_25439)" stroke-opacity="0.7" stroke-width="2.0257"/>
<path opacity="0.144928" d="M-219.119 1094.27L-406.122 848.827C-410.059 843.659 -411.764 837.131 -410.857 830.699L-350.37 401.918C-349.646 396.784 -347.299 392.016 -343.672 388.311L-76.8616 115.703C-70.5511 109.256 -61.1888 106.833 -52.5431 109.411L208.332 187.201C216.978 189.779 223.485 196.933 225.234 205.784L299.172 579.997C300.177 585.084 299.53 590.358 297.324 595.051L113.1 986.935C110.337 992.814 105.335 997.342 99.2112 999.509L-191.674 1102.45C-201.629 1105.97 -212.719 1102.67 -219.119 1094.27Z" stroke="url(#paint9_linear_2740_25439)" stroke-opacity="0.7" stroke-width="2.0257"/>
<path opacity="0.15942" d="M-174 1110.05L-372.495 876.885C-376.712 871.931 -378.768 865.492 -378.201 859.01L-340.859 431.957C-340.406 426.774 -338.302 421.873 -334.856 417.975L-84.5815 134.837C-78.6155 128.087 -69.4063 125.191 -60.6509 127.309L202.283 190.938C211.038 193.057 217.904 199.844 220.124 208.574L313.252 574.814C314.534 579.857 314.165 585.177 312.198 589.994L150.153 986.869C147.694 992.893 142.922 997.68 136.905 1000.16L-146.233 1116.77C-155.967 1120.78 -167.176 1118.07 -174 1110.05Z" stroke="url(#paint10_linear_2740_25439)" stroke-opacity="0.7" stroke-width="2.0257"/>
<path opacity="0.173913" d="M-129.019 1124.35L-338.235 903.987C-342.723 899.261 -345.124 892.93 -344.901 886.417L-330.355 462.327C-330.176 457.11 -328.322 452.088 -325.067 448.006L-91.6948 155.312C-86.0877 148.279 -77.0558 144.918 -68.2152 146.573L196.014 196.04C204.855 197.695 212.059 204.096 214.743 212.681L326.429 569.975C327.987 574.958 327.899 580.31 326.178 585.239L186.325 985.869C184.177 992.022 179.648 997.055 173.755 999.838L-101.009 1129.6C-110.499 1134.08 -121.793 1131.96 -129.019 1124.35Z" stroke="url(#paint11_linear_2740_25439)" stroke-opacity="0.7" stroke-width="2.0257"/>
<path opacity="0.188406" d="M-84.2568 1137.2L-303.404 930.111C-308.148 925.627 -310.89 919.423 -311.012 912.896L-318.849 492.975C-318.947 487.737 -317.349 482.607 -314.295 478.351L-98.1347 177.084C-92.8997 169.788 -84.0687 165.972 -75.1677 167.161L189.602 202.506C198.503 203.694 206.024 209.693 209.162 218.107L338.725 565.526C340.556 570.435 340.752 575.804 339.283 580.833L221.569 983.994C219.739 990.26 215.466 995.527 209.711 998.609L-56.0844 1140.96C-65.3062 1145.9 -76.6535 1144.39 -84.2568 1137.2Z" stroke="url(#paint12_linear_2740_25439)" stroke-opacity="0.7" stroke-width="2.0257"/>
<path opacity="0.202899" d="M-39.7936 1148.62L-268.058 955.232C-273.047 951.005 -276.123 944.947 -276.591 938.424L-306.333 523.841C-306.709 518.597 -305.375 513.372 -302.53 508.95L-103.836 200.101C-98.9854 192.561 -90.3783 188.304 -81.4418 189.023L183.12 210.327C192.056 211.047 199.871 216.627 203.453 224.846L350.168 561.508C352.268 566.328 352.749 571.699 351.539 576.816L255.842 981.298C254.337 987.662 250.331 993.15 244.73 996.524L-11.5376 1150.89C-20.4695 1156.27 -31.8378 1155.36 -39.7936 1148.62Z" stroke="url(#paint13_linear_2740_25439)" stroke-opacity="0.7" stroke-width="2.0257"/>
<path opacity="0.217391" d="M4.30072 1158.64L-232.252 979.336C-237.472 975.379 -240.874 969.483 -241.688 962.984L-292.798 554.869C-293.454 549.633 -292.388 544.326 -289.761 539.749L-108.731 224.312C-104.276 216.549 -95.9147 211.862 -86.9675 212.113L176.647 219.493C185.595 219.744 193.68 224.891 197.694 232.891L360.791 557.963C363.157 562.68 363.925 568.039 362.977 573.23L289.112 977.845C287.936 984.289 284.209 989.985 278.776 993.644L32.5612 1159.43C23.9405 1165.23 12.5832 1164.91 4.30072 1158.64Z" stroke="url(#paint14_linear_2740_25439)" stroke-opacity="0.7" stroke-width="2.0257"/>
<path opacity="0.231884" d="M47.9514 1167.29L-196.045 1002.41C-201.481 998.733 -205.202 993.018 -206.361 986.56L-278.243 586.003C-279.179 580.79 -278.386 575.413 -275.985 570.692L-112.762 249.659C-108.712 241.694 -100.619 236.593 -91.6857 236.375L170.256 229.991C179.189 229.773 187.521 234.474 191.954 242.232L370.624 554.932C373.252 559.531 374.306 564.862 373.625 570.114L321.343 973.698C320.5 980.205 317.062 986.095 311.811 990.029L76.1373 1166.6C67.8479 1172.81 56.5335 1173.09 47.9514 1167.29Z" stroke="url(#paint15_linear_2740_25439)" stroke-opacity="0.7" stroke-width="2.0257"/>
<path opacity="0.246377" d="M91.0768 1174.62L-159.507 1024.43C-165.145 1021.05 -169.174 1015.54 -170.676 1009.14L-262.681 617.183C-263.896 612.007 -263.38 606.576 -261.214 601.721L-115.884 276.082C-112.249 267.936 -104.444 262.435 -95.5495 261.752L164.006 241.797C172.901 241.113 181.455 245.356 186.293 252.85L379.69 552.449C382.573 556.915 383.913 562.204 383.503 567.504L352.492 968.917C351.986 975.47 348.848 981.539 343.793 985.739L119.11 1172.46C111.171 1179.06 99.931 1179.92 91.0768 1174.62Z" stroke="url(#paint16_linear_2740_25439)" stroke-opacity="0.7" stroke-width="2.0257"/>
<path opacity="0.26087" d="M133.626 1180.67L-122.681 1045.41C-128.505 1042.34 -132.832 1037.04 -134.674 1030.71L-246.099 648.359C-247.593 643.236 -247.358 637.763 -245.432 632.786L-118.03 303.524C-114.817 295.219 -107.319 289.336 -98.4887 288.19L157.985 254.897C166.816 253.751 175.566 257.524 180.794 264.734L388.04 550.555C391.173 554.875 392.797 560.107 392.661 565.442L382.551 963.573C382.384 970.155 379.554 976.388 374.709 980.846L161.429 1177.06C153.858 1184.02 142.724 1185.47 133.626 1180.67Z" stroke="url(#paint17_linear_2740_25439)" stroke-opacity="0.7" stroke-width="2.0257"/>
<path opacity="0.275362" d="M175.53 1185.48L-85.6302 1065.34C-91.6223 1062.58 -96.237 1057.51 -98.4154 1051.28L-228.511 679.474C-230.28 674.417 -230.329 668.917 -228.651 663.83L-119.155 331.918C-116.371 323.477 -109.2 317.229 -100.457 315.625L152.255 269.261C160.998 267.656 169.919 270.952 175.519 277.856L395.707 549.281C399.082 553.442 400.988 558.601 401.129 563.956L411.492 957.731C411.665 964.324 409.152 970.705 404.529 975.409L203.026 1180.43C195.841 1187.75 184.842 1189.76 175.53 1185.48Z" stroke="url(#paint18_linear_2740_25439)" stroke-opacity="0.7" stroke-width="2.0257"/>
<path opacity="0.289855" d="M216.72 1189.1L-48.4185 1084.21C-54.5627 1081.78 -59.4526 1076.95 -61.9623 1070.84L-209.932 710.471C-211.974 705.496 -212.31 699.984 -210.885 694.798L-119.224 361.199C-116.873 352.643 -110.047 346.048 -101.416 343.992L146.875 284.859C155.506 282.803 164.572 285.613 170.527 292.191L402.721 548.659C406.33 552.646 408.516 557.717 408.935 563.079L439.289 951.456C439.804 958.044 437.615 964.557 433.226 969.496L243.835 1182.65C237.051 1190.28 226.218 1192.86 216.72 1189.1Z" stroke="url(#paint19_linear_2740_25439)" stroke-opacity="0.7" stroke-width="2.0257"/>
<path opacity="0.304348" d="M257.143 1191.59L-11.1007 1102.02C-17.3794 1099.92 -22.5315 1095.36 -25.367 1089.38L-190.372 741.296C-192.685 736.416 -193.308 730.906 -192.141 725.633L-118.191 391.295C-116.279 382.647 -109.814 375.725 -101.318 373.225L141.913 301.655C150.409 299.155 159.593 301.474 165.884 307.707L409.126 548.714C412.962 552.514 415.423 557.484 416.121 562.838L465.932 944.815C466.788 951.379 464.93 958.008 460.787 963.171L283.802 1183.75C277.434 1191.68 266.796 1194.81 257.143 1191.59Z" stroke="url(#paint20_linear_2740_25439)" stroke-opacity="0.7" stroke-width="2.0257"/>
<path opacity="0.318841" d="M296.746 1193L26.268 1118.79C19.8728 1117.03 14.4721 1112.74 11.3176 1106.91L-169.847 771.898C-172.426 767.129 -173.336 761.635 -172.434 756.289L-116.021 422.14C-114.55 413.423 -108.463 406.193 -100.125 403.257L137.432 319.618C145.769 316.683 155.044 318.504 161.651 324.376L414.965 549.476C419.018 553.078 421.75 557.931 422.728 563.263L491.41 937.878C492.606 944.401 491.085 951.129 487.2 956.503L322.877 1183.8C316.937 1192.02 306.522 1195.68 296.746 1193Z" stroke="url(#paint21_linear_2740_25439)" stroke-opacity="0.7" stroke-width="2.0257"/>
<path opacity="0.333333" d="M335.47 1193.38L63.6251 1134.52C57.1317 1133.11 51.4969 1129.11 48.031 1123.44L-148.381 802.226C-151.221 797.581 -152.42 792.118 -151.785 786.711L-112.689 453.66C-111.66 444.898 -105.965 437.381 -97.8078 434.02L133.482 338.706C141.639 335.345 150.977 336.667 157.88 342.161L420.273 550.969C424.533 554.359 427.532 559.081 428.788 564.378L515.711 930.713C517.245 937.177 516.066 943.988 512.449 949.561L361.004 1182.86C355.505 1191.33 345.341 1195.52 335.47 1193.38Z" stroke="url(#paint22_linear_2740_25439)" stroke-opacity="0.7" stroke-width="2.0257"/>
<path opacity="0.347826" d="M373.279 1192.8L100.925 1149.22C94.3521 1148.17 88.4984 1144.46 84.7296 1138.98L-125.987 832.227C-129.083 827.72 -130.569 822.302 -130.205 816.848L-108.157 485.783C-107.572 476.998 -102.282 469.215 -94.328 465.439L130.131 358.876C138.085 355.1 147.459 355.92 154.636 361.021L425.103 553.213C429.559 556.379 432.818 560.956 434.353 566.203L538.841 923.386C540.71 929.775 539.878 936.65 536.538 942.408L398.148 1181C393.1 1189.7 383.213 1194.39 373.279 1192.8Z" stroke="url(#paint23_linear_2740_25439)" stroke-opacity="0.7" stroke-width="2.0257"/>
<path opacity="0.362319" d="M410.123 1191.32L138.107 1162.9C131.474 1162.21 125.418 1158.82 121.355 1153.53L-102.696 861.855C-106.04 857.501 -107.812 852.143 -107.724 846.654L-102.411 518.437C-102.269 509.651 -97.3959 501.625 -89.6659 497.446L127.423 380.085C135.153 375.907 144.536 376.225 151.965 380.918L429.491 556.228C434.133 559.16 437.645 563.577 439.457 568.76L560.796 915.967C562.996 922.263 562.513 929.185 559.46 935.114L434.261 1178.27C429.674 1187.18 420.09 1192.36 410.123 1191.32Z" stroke="url(#paint24_linear_2740_25439)" stroke-opacity="0.7" stroke-width="2.0257"/>
<path opacity="0.376812" d="M445.969 1189L175.125 1175.6C168.452 1175.27 162.208 1172.2 157.863 1167.13L-78.5282 891.066C-82.1146 886.877 -84.1705 881.594 -84.3585 876.084L-95.4255 551.549C-95.7244 542.785 -91.2799 534.539 -83.7948 529.971L125.414 402.288C132.9 397.72 142.265 397.537 149.922 401.81L433.489 560.035C438.304 562.721 442.063 566.965 444.148 572.07L581.584 908.526C584.111 914.711 583.98 921.664 581.223 927.75L469.313 1174.76C465.194 1183.85 455.937 1189.5 445.969 1189Z" stroke="url(#paint25_linear_2740_25439)" stroke-opacity="0.7" stroke-width="2.0257"/>
<path opacity="0.391304" d="M480.769 1185.91L211.915 1187.31C205.221 1187.35 198.809 1184.62 194.191 1179.77L-53.5256 919.809C-57.3462 915.8 -59.6831 910.606 -60.1496 905.087L-87.1994 585.041C-87.9363 576.321 -83.9299 567.879 -76.7094 562.935L124.14 425.43C131.36 420.487 140.68 419.806 148.543 423.647L437.129 564.641C442.106 567.073 446.102 571.13 448.458 576.142L601.204 901.123C604.052 907.182 604.275 914.146 601.82 920.375L503.258 1170.51C499.614 1179.76 490.708 1185.86 480.769 1185.91Z" stroke="url(#paint26_linear_2740_25439)" stroke-opacity="0.7" stroke-width="2.0257"/>
<path opacity="0.405797" d="M514.503 1182.11L248.441 1198.07C241.745 1198.47 235.182 1196.09 230.303 1191.49L-27.7076 948.044C-31.7539 944.227 -34.3682 939.136 -35.1142 933.623L-77.7112 618.839C-78.8821 610.186 -75.3223 601.57 -68.3854 596.267L123.654 449.462C130.591 444.159 139.839 442.984 147.882 446.383L440.469 570.062C445.594 572.228 449.82 576.086 452.442 580.992L619.679 893.827C622.841 899.742 623.418 906.701 621.275 913.056L536.081 1165.62C532.917 1174.99 524.383 1181.52 514.503 1182.11Z" stroke="url(#paint27_linear_2740_25439)" stroke-opacity="0.7" stroke-width="2.0257"/>
<path opacity="0.42029" d="M547.14 1177.67L284.648 1207.9C277.972 1208.67 271.275 1206.64 266.148 1202.3L-1.11357 975.731C-5.3764 972.117 -8.26395 967.145 -9.29 961.651L-66.9617 652.87C-68.5613 644.305 -65.4552 635.54 -58.8201 629.894L123.992 474.33C130.627 468.683 139.776 467.02 147.974 469.969L443.549 576.307C448.808 578.198 453.254 581.844 456.139 586.63L637.019 886.702C640.489 892.457 641.42 899.393 639.593 905.86L567.752 1160.13C565.072 1169.62 556.931 1176.54 547.14 1177.67Z" stroke="url(#paint28_linear_2740_25439)" stroke-opacity="0.7" stroke-width="2.0257"/>
<path opacity="0.434783" d="M578.661 1172.67L320.496 1216.83C313.858 1217.97 307.047 1216.3 301.686 1212.23L26.2255 1002.83C21.7559 999.434 18.6001 994.594 17.2943 989.133L-54.9454 687.061C-56.9672 678.607 -54.3207 669.716 -48.0045 663.744L125.193 499.981C131.51 494.009 140.534 491.864 148.862 494.355L446.419 583.384C451.798 584.993 456.454 588.415 459.596 593.067L653.249 879.813C657.018 885.394 658.303 892.287 656.798 898.851L598.255 1154.14C596.062 1163.7 588.333 1171.01 578.661 1172.67Z" stroke="url(#paint29_linear_2740_25439)" stroke-opacity="0.7" stroke-width="2.0257"/>
<path opacity="0.449275" d="M609.036 1167.16L355.93 1224.89C349.352 1226.39 342.445 1225.09 336.864 1221.3L54.2611 1029.3C49.5952 1026.13 46.1769 1021.44 44.5921 1016.02L-41.6766 721.332C-44.1131 713.009 -41.9307 704.018 -35.9496 697.738L127.282 526.351C133.263 520.071 142.137 517.453 150.569 519.481L449.115 591.29C454.599 592.61 459.454 595.795 462.848 600.301L668.382 873.215C672.441 878.605 674.078 885.44 672.899 892.083L627.565 1147.7C625.859 1157.32 618.56 1164.98 609.036 1167.16Z" stroke="url(#paint30_linear_2740_25439)" stroke-opacity="0.7" stroke-width="2.0257"/>
<path opacity="0.463768" d="M638.263 1161.22L390.921 1232.11C384.421 1233.97 377.439 1233.04 371.652 1229.55L82.9656 1055.12C78.1143 1052.19 74.4399 1047.65 72.5777 1042.3L-27.1512 755.618C-29.994 747.446 -28.2789 738.379 -22.648 731.811L130.298 553.389C135.929 546.821 144.627 543.74 153.137 545.3L451.693 600.036C457.268 601.058 462.311 603.996 465.949 608.343L682.455 866.974C686.795 872.159 688.78 878.917 687.932 885.625L655.682 1140.9C654.463 1150.54 647.611 1158.54 638.263 1161.22Z" stroke="url(#paint31_linear_2740_25439)" stroke-opacity="0.7" stroke-width="2.0257"/>
<path opacity="0.478261" d="M666.321 1154.92L425.419 1238.52C419.018 1240.74 411.98 1240.19 406.003 1237L112.289 1080.24C107.264 1077.56 103.34 1073.2 101.203 1067.92L-11.3903 789.843C-14.6295 781.843 -13.3837 772.725 -8.11707 765.887L134.258 581.034C139.525 574.196 148.022 570.664 156.584 571.753L454.191 609.617C459.842 610.335 465.06 613.015 468.936 617.189L695.489 861.146C700.1 866.11 702.429 872.774 701.915 879.529L682.59 1133.79C681.856 1143.45 675.466 1151.74 666.321 1154.92Z" stroke="url(#paint32_linear_2740_25439)" stroke-opacity="0.7" stroke-width="2.0257"/>
<path opacity="0.492754" d="M693.207 1148.32L459.389 1244.16C453.106 1246.73 446.034 1246.56 439.882 1243.69L142.19 1104.64C137.004 1102.22 132.839 1098.05 130.428 1092.85L5.59185 823.936C1.96668 816.127 2.74276 806.982 7.63217 799.896L139.187 609.224C144.076 602.137 152.349 598.165 160.937 598.782L456.656 620.027C462.365 620.437 467.747 622.849 471.852 626.838L707.519 855.783C712.388 860.514 715.058 867.066 714.88 873.853L708.289 1126.46C708.037 1136.09 702.122 1144.67 693.207 1148.32Z" stroke="url(#paint33_linear_2740_25439)" stroke-opacity="0.7" stroke-width="2.0257"/>
<path opacity="0.507246" d="M718.923 1141.51L492.801 1249.06C486.657 1251.98 479.569 1252.2 473.26 1249.65L172.63 1128.3C167.295 1126.15 162.897 1122.17 160.218 1117.08L23.7804 857.831C19.7809 850.232 20.088 841.086 24.5884 833.771L145.107 637.9C149.607 630.586 157.633 626.189 166.219 626.334L459.136 631.266C464.888 631.362 470.419 633.496 474.746 637.288L718.584 850.943C723.701 855.427 726.705 861.85 726.866 868.652L732.784 1118.98C733.01 1128.57 727.582 1137.39 718.923 1141.51Z" stroke="url(#paint34_linear_2740_25439)" stroke-opacity="0.7" stroke-width="2.0257"/>
<path opacity="0.521739" d="M743.466 1134.54L525.617 1253.27C519.631 1256.53 512.549 1257.13 506.1 1254.92L203.558 1151.18C198.088 1149.31 193.465 1145.54 190.521 1140.57L43.1458 891.459C38.7846 884.087 38.6249 874.964 42.7256 867.444L152.028 667.001C156.128 659.481 163.884 654.674 172.443 654.348L461.669 643.322C467.448 643.101 473.116 644.948 477.655 648.531L728.718 846.674C734.07 850.898 737.402 857.176 737.901 863.975L756.076 1111.41C756.775 1120.93 751.843 1129.97 743.466 1134.54Z" stroke="url(#paint35_linear_2740_25439)" stroke-opacity="0.7" stroke-width="2.0257"/>
<path opacity="0.536232" d="M766.842 1127.49L557.81 1256.83C551.999 1260.42 544.944 1261.41 538.372 1259.54L234.929 1173.28C229.338 1171.69 224.501 1168.15 221.296 1163.3L63.6628 924.758C58.9531 917.631 58.3301 908.555 62.0217 900.851L159.962 696.468C163.654 688.765 171.118 683.564 179.624 682.77L464.302 656.188C470.09 655.648 475.88 657.199 480.622 660.562L737.964 843.028C743.538 846.98 747.191 853.095 748.029 859.876L778.176 1103.83C779.34 1113.25 774.914 1122.49 766.842 1127.49Z" stroke="url(#paint36_linear_2740_25439)" stroke-opacity="0.7" stroke-width="2.0257"/>
<path opacity="0.550725" d="M789.059 1120.41L589.349 1259.77C583.733 1263.68 576.725 1265.05 570.048 1263.53L266.695 1194.55C260.997 1193.26 255.955 1189.95 252.495 1185.24L85.2982 957.66C80.2544 950.794 79.1727 941.789 82.4471 933.925L168.916 726.235C172.19 718.371 179.343 712.794 187.768 711.536L467.073 669.848C472.854 668.986 478.751 670.234 483.686 673.365L746.363 840.045C752.145 843.713 756.111 849.65 757.287 856.396L799.096 1096.3C800.717 1105.61 796.803 1115.01 789.059 1120.41Z" stroke="url(#paint37_linear_2740_25439)" stroke-opacity="0.7" stroke-width="2.0257"/>
<path opacity="0.565217" d="M810.136 1113.39L620.215 1262.14C614.813 1266.37 607.873 1268.12 601.11 1266.96L298.814 1215.01C293.023 1214.01 287.788 1210.95 284.078 1206.4L108.023 990.108C102.661 983.52 101.126 974.61 103.976 966.607L178.898 756.246C181.748 748.244 188.57 742.309 196.89 740.594L470.03 684.291C475.786 683.105 481.776 684.043 486.892 686.933L753.967 837.771C759.943 841.146 764.213 846.889 765.725 853.583L818.859 1088.9C820.928 1098.06 817.532 1107.6 810.136 1113.39Z" stroke="url(#paint38_linear_2740_25439)" stroke-opacity="0.7" stroke-width="2.0257"/>
<path opacity="0.57971" d="M830.081 1106.48L650.378 1263.98C645.206 1268.51 638.355 1270.64 631.524 1269.84L331.227 1234.62C325.358 1233.93 319.942 1231.13 315.989 1226.74L131.792 1022.04C126.125 1015.75 124.146 1006.96 126.566 998.838L189.9 786.439C192.321 778.322 198.793 772.049 206.982 769.884L473.204 699.499C478.916 697.989 484.983 698.611 490.27 701.249L760.815 836.247C766.969 839.317 771.534 844.851 773.379 851.477L837.476 1081.68C839.983 1090.68 837.108 1100.32 830.081 1106.48Z" stroke="url(#paint39_linear_2740_25439)" stroke-opacity="0.7" stroke-width="2.0257"/>
<path opacity="0.594203" d="M848.923 1099.74L679.825 1265.33C674.901 1270.16 668.16 1272.66 661.28 1272.23L363.895 1253.38C357.964 1253.01 352.377 1250.47 348.188 1246.26L156.57 1053.41C150.618 1047.42 148.201 1038.77 150.187 1030.56L201.928 816.753C203.914 808.544 210.019 801.955 218.053 799.349L476.64 715.453C482.293 713.619 488.421 713.919 493.867 716.296L766.965 835.506C773.282 838.264 778.132 843.574 780.307 850.115L854.982 1074.7C857.914 1083.52 855.562 1093.24 848.923 1099.74Z" stroke="url(#paint40_linear_2740_25439)" stroke-opacity="0.7" stroke-width="2.0257"/>
<path opacity="0.608696" d="M866.676 1093.24L708.531 1266.25C703.87 1271.35 697.26 1274.23 690.351 1274.16L396.758 1271.28C390.781 1271.23 385.036 1268.97 380.619 1264.94L182.307 1084.16C176.084 1078.49 173.24 1070 174.79 1061.72L214.964 847.13C216.513 838.854 222.236 831.969 230.089 828.931L480.368 732.131C485.942 729.975 492.115 729.949 497.708 732.056L772.458 835.584C778.923 838.02 784.046 843.092 786.547 849.532L871.394 1068.04C874.739 1076.65 872.911 1086.42 866.676 1093.24Z" stroke="url(#paint41_linear_2740_25439)" stroke-opacity="0.7" stroke-width="2.0257"/>
<path opacity="0.623188" d="M883.375 1087.03L736.488 1266.77C732.107 1272.14 725.646 1275.37 718.728 1275.68L429.773 1288.32C423.767 1288.59 417.877 1286.61 413.24 1282.79L208.961 1114.24C202.486 1108.89 199.226 1100.59 200.337 1092.27L229.006 877.512C230.117 869.192 235.441 862.034 243.09 858.577L484.43 749.513C489.908 747.037 496.109 746.679 501.836 748.508L777.355 836.51C783.951 838.617 789.336 843.437 792.158 849.76L886.75 1061.74C890.494 1070.13 889.188 1079.91 883.375 1087.03Z" stroke="url(#paint42_linear_2740_25439)" stroke-opacity="0.7" stroke-width="2.0257"/>
<path opacity="0.637681" d="M899.053 1081.18L763.689 1266.95C759.602 1272.56 753.312 1276.15 746.404 1276.83L462.897 1304.5C456.878 1305.09 450.856 1303.41 446.007 1299.8L236.488 1143.6C229.78 1138.6 226.115 1130.5 226.787 1122.16L244.044 907.846C244.716 899.506 249.629 892.098 257.051 888.235L488.864 767.577C494.228 764.784 500.441 764.092 506.289 765.635L781.715 838.315C788.426 840.086 794.059 844.641 797.196 850.832L901.09 1055.87C905.218 1064.02 904.431 1073.79 899.053 1081.18Z" stroke="url(#paint43_linear_2740_25439)" stroke-opacity="0.7" stroke-width="2.0257"/>
<path opacity="0.652174" d="M913.732 1075.72L790.113 1266.82C786.334 1272.66 780.234 1276.6 773.357 1277.65L496.069 1319.81C490.053 1320.73 483.913 1319.35 478.861 1315.96L264.826 1172.2C257.904 1167.55 253.848 1159.68 254.081 1151.34L260.052 938.071C260.286 929.735 264.776 922.101 271.948 917.846L493.691 786.292C498.925 783.187 505.132 782.158 511.087 783.408L785.582 841.018C792.39 842.447 798.26 846.724 801.706 852.767L914.439 1050.48C918.936 1058.37 918.663 1068.1 913.732 1075.72Z" stroke="url(#paint44_linear_2740_25439)" stroke-opacity="0.7" stroke-width="2.0257"/>
<path opacity="0.666667" d="M927.458 1070.73L815.762 1266.43C812.305 1272.49 806.415 1276.77 799.587 1278.19L529.247 1334.26C523.252 1335.5 517.008 1334.44 511.764 1331.28L293.931 1200.01C286.812 1195.72 282.379 1188.09 282.176 1179.78L277.018 968.136C276.815 959.827 280.872 951.991 287.773 947.36L498.952 805.632C504.036 802.22 510.221 800.852 516.27 801.802L789.02 844.639C795.908 845.721 802.001 849.709 805.748 855.589L926.846 1045.62C931.695 1053.23 931.93 1062.89 927.458 1070.73Z" stroke="url(#paint45_linear_2740_25439)" stroke-opacity="0.7" stroke-width="2.0257"/>
<path opacity="0.681159" d="M940.265 1066.24L840.629 1265.83C837.507 1272.09 831.845 1276.7 825.087 1278.48L562.382 1347.86C556.424 1349.43 550.091 1348.68 544.664 1345.76L323.742 1226.98C316.447 1223.05 311.652 1215.69 311.017 1207.43L294.915 997.991C294.28 989.733 297.894 981.72 304.503 976.729L504.671 825.571C509.589 821.857 515.733 820.15 521.862 820.794L792.084 849.199C799.035 849.929 805.335 853.617 809.377 859.32L938.35 1041.33C943.533 1048.65 944.269 1058.22 940.265 1066.24Z" stroke="url(#paint46_linear_2740_25439)" stroke-opacity="0.7" stroke-width="2.0257"/>
<path opacity="0.695652" d="M952.196 1062.31L864.715 1265.07C861.939 1271.5 856.523 1276.42 849.855 1278.57L595.426 1360.6C589.523 1362.51 583.115 1362.08 577.515 1359.42L354.206 1253.08C346.755 1249.53 341.613 1242.45 340.55 1234.26L313.721 1027.58C312.659 1019.4 315.821 1011.24 322.119 1005.9L510.879 846.077C515.612 842.069 521.698 840.022 527.892 840.355L794.833 854.707C801.829 855.083 808.323 858.46 812.649 863.971L948.998 1037.67C954.498 1044.68 955.725 1054.13 952.196 1062.31Z" stroke="url(#paint47_linear_2740_25439)" stroke-opacity="0.7" stroke-width="2.0257"/>
<path opacity="0.710145" d="M963.293 1058.97L888.019 1264.18C885.601 1270.77 880.448 1276 873.889 1278.51L628.331 1372.52C622.5 1374.75 616.034 1374.66 610.272 1372.25L385.261 1278.29C377.674 1275.12 372.203 1268.33 370.719 1260.24L333.406 1056.87C331.923 1048.78 334.628 1040.49 340.596 1034.84L517.598 867.118C522.13 862.824 528.14 860.438 534.384 860.455L797.323 861.176C804.346 861.195 811.018 864.251 815.62 869.557L958.835 1034.68C964.633 1041.36 966.34 1050.67 963.293 1058.97Z" stroke="url(#paint48_linear_2740_25439)" stroke-opacity="0.7" stroke-width="2.0257"/>
<path opacity="0.724638" d="M973.597 1056.27L910.542 1263.21C908.489 1269.94 903.618 1275.46 897.188 1278.32L661.047 1383.62C655.306 1386.18 648.796 1386.41 642.884 1384.28L416.846 1302.57C409.142 1299.79 403.359 1293.31 401.461 1285.35L353.936 1085.8C352.038 1077.83 354.281 1069.44 359.902 1063.48L524.848 888.663C529.161 884.091 535.079 881.368 541.357 881.065L799.609 868.61C806.641 868.271 813.475 870.997 818.342 876.084L967.907 1032.38C973.983 1038.73 976.159 1047.87 973.597 1056.27Z" stroke="url(#paint49_linear_2740_25439)" stroke-opacity="0.7" stroke-width="2.0257"/>
<path opacity="0.73913" d="M983.171 1054.25L932.303 1262.2C930.626 1269.06 926.052 1274.85 919.77 1278.07L693.544 1393.91C687.91 1396.79 681.373 1397.37 675.323 1395.51L448.913 1325.92C441.114 1323.52 435.037 1317.37 432.734 1309.55L375.292 1114.33C372.989 1106.5 374.766 1098.04 380.024 1091.8L532.665 910.679C536.744 905.839 542.55 902.781 548.848 902.155L801.763 877.014C808.786 876.316 815.766 878.705 820.889 883.56L976.28 1030.83C982.614 1036.83 985.244 1045.77 983.171 1054.25Z" stroke="url(#paint50_linear_2740_25439)" stroke-opacity="0.7" stroke-width="2.0257"/>
<path opacity="0.753623" d="M992.05 1052.93L953.3 1261.21C952.005 1268.16 947.745 1274.21 941.63 1277.77L725.767 1403.42C720.258 1406.62 713.709 1407.54 707.533 1405.96L481.389 1348.31C473.515 1346.3 467.164 1340.49 464.466 1332.82L397.428 1142.42C394.729 1134.76 396.039 1126.25 400.919 1119.75L541.057 933.132C544.885 928.035 550.562 924.645 556.865 923.693L803.831 886.387C810.827 885.331 817.937 887.374 823.303 891.985L983.993 1030.04C990.566 1035.69 993.635 1044.41 992.05 1052.93Z" stroke="url(#paint51_linear_2740_25439)" stroke-opacity="0.7" stroke-width="2.0257"/>
<path opacity="0.768116" d="M1000.29 1052.35L973.542 1260.26C972.637 1267.29 968.704 1273.58 962.775 1277.47L757.672 1412.16C752.305 1415.69 745.762 1416.94 739.471 1415.66L514.212 1369.72C506.283 1368.1 499.679 1362.64 496.595 1355.16L420.306 1170.03C417.222 1162.55 418.065 1154.03 422.552 1147.29L550.041 955.984C553.601 950.641 559.131 946.923 565.423 945.643L805.871 896.723C812.821 895.309 820.043 897.001 825.642 901.356L991.101 1030.06C997.891 1035.34 1001.38 1043.82 1000.29 1052.35Z" stroke="url(#paint52_linear_2740_25439)" stroke-opacity="0.7" stroke-width="2.0257"/>
<path opacity="0.782609" d="M1007.94 1052.53L993.049 1259.39C992.538 1266.49 988.948 1273 983.223 1277.22L789.225 1420.17C784.017 1424 777.496 1425.61 771.103 1424.62L547.326 1390.15C539.363 1388.92 532.524 1383.82 529.069 1376.55L443.892 1197.13C440.437 1189.86 440.813 1181.34 444.896 1174.39L559.637 979.201C562.915 973.625 568.28 969.585 574.545 967.976L807.944 908.017C814.831 906.247 822.148 907.583 827.966 911.671L997.665 1030.9C1004.65 1035.81 1008.55 1044.02 1007.94 1052.53Z" stroke="url(#paint53_linear_2740_25439)" stroke-opacity="0.7" stroke-width="2.0257"/>
<path opacity="0.797101" d="M1015.05 1053.51L1011.83 1258.66C1011.72 1265.79 1008.48 1272.51 1002.98 1277.04L820.381 1427.46C815.35 1431.6 808.867 1433.55 802.386 1432.87L580.664 1409.59C572.686 1408.75 565.635 1404.03 561.819 1396.97L468.143 1223.69C464.328 1216.63 464.24 1208.15 467.908 1201.02L569.855 1002.75C572.835 996.953 578.018 992.597 584.24 990.658L810.101 920.259C816.907 918.138 824.301 919.111 830.327 922.922L1003.73 1032.58C1010.89 1037.11 1015.18 1045.04 1015.05 1053.51Z" stroke="url(#paint54_linear_2740_25439)" stroke-opacity="0.7" stroke-width="2.0257"/>
<path opacity="0.811594" d="M1021.68 1055.3L1029.91 1258.09C1030.2 1265.23 1027.33 1272.14 1022.07 1276.97L851.112 1434.07C846.276 1438.51 839.848 1440.81 833.291 1440.44L614.173 1428.04C606.2 1427.58 598.957 1423.25 594.797 1416.43L493.024 1249.67C488.864 1242.86 488.317 1234.43 491.561 1227.14L580.715 1026.59C583.382 1020.59 588.365 1015.92 594.528 1013.65L812.406 933.435C819.114 930.966 826.568 931.573 832.787 935.096L1009.38 1035.13C1016.69 1039.28 1021.34 1046.9 1021.68 1055.3Z" stroke="url(#paint55_linear_2740_25439)" stroke-opacity="0.7" stroke-width="2.0257"/>
<path opacity="0.826087" d="M1027.89 1057.91L1047.31 1257.72C1048 1264.85 1045.51 1271.92 1040.51 1277.05L881.376 1440.02C876.752 1444.75 870.396 1447.4 863.776 1447.34L647.784 1445.49C639.837 1445.42 632.424 1441.47 627.934 1434.92L518.487 1275.05C513.997 1268.49 512.997 1260.15 515.808 1252.72L592.218 1050.68C594.56 1044.49 599.326 1039.52 605.414 1036.93L814.908 947.525C821.499 944.713 828.995 944.951 835.393 948.178L1014.64 1038.56C1022.08 1042.31 1027.08 1049.62 1027.89 1057.91Z" stroke="url(#paint56_linear_2740_25439)" stroke-opacity="0.7" stroke-width="2.0257"/>
<path opacity="0.84058" d="M1033.73 1061.37L1064.04 1257.58C1065.14 1264.68 1063.04 1271.9 1058.3 1277.31L911.139 1445.34C906.742 1450.36 900.475 1453.35 893.807 1453.62L681.437 1461.96C673.534 1462.28 665.974 1458.72 661.17 1452.44L544.485 1299.8C539.682 1293.52 538.236 1285.29 540.608 1277.74L604.373 1075C606.375 1068.63 610.906 1063.37 616.904 1060.45L817.656 962.513C824.113 959.363 831.633 959.231 838.197 962.152L1019.59 1042.87C1027.14 1046.23 1032.46 1053.2 1033.73 1061.37Z" stroke="url(#paint57_linear_2740_25439)" stroke-opacity="0.7" stroke-width="2.0257"/>
<path opacity="0.855072" d="M1039.24 1065.68L1080.12 1257.71C1081.62 1264.76 1079.92 1272.11 1075.48 1277.77L940.367 1450.07C936.215 1455.37 930.054 1458.7 923.351 1459.29L715.069 1477.46C707.23 1478.14 699.544 1474.99 694.444 1469L570.973 1323.9C565.873 1317.9 563.99 1309.81 565.92 1302.18L617.182 1099.49C618.831 1092.97 623.111 1087.42 629.002 1084.17L820.7 978.372C827.007 974.891 834.532 974.387 841.247 976.995L1024.27 1048.08C1031.9 1051.05 1037.53 1057.66 1039.24 1065.68Z" stroke="url(#paint58_linear_2740_25439)" stroke-opacity="0.7" stroke-width="2.0257"/>
</g>
<defs>
<linearGradient id="paint0_linear_2740_25439" x1="-615.504" y1="903.125" x2="205.61" y2="40.9847" gradientUnits="userSpaceOnUse">
<stop stop-color="#D245CE"/>
<stop offset="1" stop-color="#BAC9FF"/>
</linearGradient>
<linearGradient id="paint1_linear_2740_25439" x1="-571.918" y1="932.283" x2="196.11" y2="36.3282" gradientUnits="userSpaceOnUse">
<stop stop-color="#D245CE"/>
<stop offset="1" stop-color="#BAC9FF"/>
</linearGradient>
<linearGradient id="paint2_linear_2740_25439" x1="-527.726" y1="959.912" x2="185.947" y2="33.3151" gradientUnits="userSpaceOnUse">
<stop stop-color="#D245CE"/>
<stop offset="1" stop-color="#BAC9FF"/>
</linearGradient>
<linearGradient id="paint3_linear_2740_25439" x1="-483.012" y1="985.991" x2="175.22" y2="31.9631" gradientUnits="userSpaceOnUse">
<stop stop-color="#D245CE"/>
<stop offset="1" stop-color="#BAC9FF"/>
</linearGradient>
<linearGradient id="paint4_linear_2740_25439" x1="-437.862" y1="1010.51" x2="164.032" y2="32.2934" gradientUnits="userSpaceOnUse">
<stop stop-color="#D245CE"/>
<stop offset="1" stop-color="#BAC9FF"/>
</linearGradient>
<linearGradient id="paint5_linear_2740_25439" x1="-392.369" y1="1033.46" x2="152.473" y2="34.3077" gradientUnits="userSpaceOnUse">
<stop stop-color="#D245CE"/>
<stop offset="1" stop-color="#BAC9FF"/>
</linearGradient>
<linearGradient id="paint6_linear_2740_25439" x1="-346.623" y1="1054.84" x2="140.64" y2="38.0141" gradientUnits="userSpaceOnUse">
<stop stop-color="#D245CE"/>
<stop offset="1" stop-color="#BAC9FF"/>
</linearGradient>
<linearGradient id="paint7_linear_2740_25439" x1="-300.71" y1="1074.64" x2="128.629" y2="43.4123" gradientUnits="userSpaceOnUse">
<stop stop-color="#D245CE"/>
<stop offset="1" stop-color="#BAC9FF"/>
</linearGradient>
<linearGradient id="paint8_linear_2740_25439" x1="-254.721" y1="1092.88" x2="116.534" y2="50.4903" gradientUnits="userSpaceOnUse">
<stop stop-color="#D245CE"/>
<stop offset="1" stop-color="#BAC9FF"/>
</linearGradient>
<linearGradient id="paint9_linear_2740_25439" x1="-208.738" y1="1109.56" x2="104.451" y2="59.2447" gradientUnits="userSpaceOnUse">
<stop stop-color="#D245CE"/>
<stop offset="1" stop-color="#BAC9FF"/>
</linearGradient>
<linearGradient id="paint10_linear_2740_25439" x1="-162.851" y1="1124.71" x2="92.4678" y2="69.6513" gradientUnits="userSpaceOnUse">
<stop stop-color="#D245CE"/>
<stop offset="1" stop-color="#BAC9FF"/>
</linearGradient>
<linearGradient id="paint11_linear_2740_25439" x1="-117.141" y1="1138.33" x2="80.677" y2="81.6896" gradientUnits="userSpaceOnUse">
<stop stop-color="#D245CE"/>
<stop offset="1" stop-color="#BAC9FF"/>
</linearGradient>
<linearGradient id="paint12_linear_2740_25439" x1="-71.6908" y1="1150.47" x2="69.1648" y2="95.3349" gradientUnits="userSpaceOnUse">
<stop stop-color="#D245CE"/>
<stop offset="1" stop-color="#BAC9FF"/>
</linearGradient>
<linearGradient id="paint13_linear_2740_25439" x1="-26.5822" y1="1161.14" x2="58.0155" y2="110.553" gradientUnits="userSpaceOnUse">
<stop stop-color="#D245CE"/>
<stop offset="1" stop-color="#BAC9FF"/>
</linearGradient>
<linearGradient id="paint14_linear_2740_25439" x1="18.1133" y1="1170.38" x2="47.3177" y2="127.308" gradientUnits="userSpaceOnUse">
<stop stop-color="#D245CE"/>
<stop offset="1" stop-color="#BAC9FF"/>
</linearGradient>
<linearGradient id="paint15_linear_2740_25439" x1="62.3192" y1="1178.22" x2="37.1495" y2="145.56" gradientUnits="userSpaceOnUse">
<stop stop-color="#D245CE"/>
<stop offset="1" stop-color="#BAC9FF"/>
</linearGradient>
<linearGradient id="paint16_linear_2740_25439" x1="105.952" y1="1184.71" x2="27.5775" y2="165.263" gradientUnits="userSpaceOnUse">
<stop stop-color="#D245CE"/>
<stop offset="1" stop-color="#BAC9FF"/>
</linearGradient>
<linearGradient id="paint17_linear_2740_25439" x1="148.961" y1="1189.9" x2="18.692" y2="186.372" gradientUnits="userSpaceOnUse">
<stop stop-color="#D245CE"/>
<stop offset="1" stop-color="#BAC9FF"/>
</linearGradient>
<linearGradient id="paint18_linear_2740_25439" x1="191.274" y1="1193.84" x2="10.5592" y2="208.834" gradientUnits="userSpaceOnUse">
<stop stop-color="#D245CE"/>
<stop offset="1" stop-color="#BAC9FF"/>
</linearGradient>
<linearGradient id="paint19_linear_2740_25439" x1="232.823" y1="1196.56" x2="3.23966" y2="232.591" gradientUnits="userSpaceOnUse">
<stop stop-color="#D245CE"/>
<stop offset="1" stop-color="#BAC9FF"/>
</linearGradient>
<linearGradient id="paint20_linear_2740_25439" x1="273.553" y1="1198.14" x2="-3.19987" y2="257.583" gradientUnits="userSpaceOnUse">
<stop stop-color="#D245CE"/>
<stop offset="1" stop-color="#BAC9FF"/>
</linearGradient>
<linearGradient id="paint21_linear_2740_25439" x1="313.411" y1="1198.62" x2="-8.69847" y2="283.752" gradientUnits="userSpaceOnUse">
<stop stop-color="#D245CE"/>
<stop offset="1" stop-color="#BAC9FF"/>
</linearGradient>
<linearGradient id="paint22_linear_2740_25439" x1="352.337" y1="1198.07" x2="-13.207" y2="311.03" gradientUnits="userSpaceOnUse">
<stop stop-color="#D245CE"/>
<stop offset="1" stop-color="#BAC9FF"/>
</linearGradient>
<linearGradient id="paint23_linear_2740_25439" x1="390.296" y1="1196.55" x2="-16.6651" y2="339.349" gradientUnits="userSpaceOnUse">
<stop stop-color="#D245CE"/>
<stop offset="1" stop-color="#BAC9FF"/>
</linearGradient>
<linearGradient id="paint24_linear_2740_25439" x1="427.236" y1="1194.13" x2="-19.0319" y2="368.641" gradientUnits="userSpaceOnUse">
<stop stop-color="#D245CE"/>
<stop offset="1" stop-color="#BAC9FF"/>
</linearGradient>
<linearGradient id="paint25_linear_2740_25439" x1="463.126" y1="1190.87" x2="-20.2596" y2="398.837" gradientUnits="userSpaceOnUse">
<stop stop-color="#D245CE"/>
<stop offset="1" stop-color="#BAC9FF"/>
</linearGradient>
<linearGradient id="paint26_linear_2740_25439" x1="497.916" y1="1186.83" x2="-20.3218" y2="429.859" gradientUnits="userSpaceOnUse">
<stop stop-color="#D245CE"/>
<stop offset="1" stop-color="#BAC9FF"/>
</linearGradient>
<linearGradient id="paint27_linear_2740_25439" x1="531.589" y1="1182.1" x2="-19.1735" y2="461.634" gradientUnits="userSpaceOnUse">
<stop stop-color="#D245CE"/>
<stop offset="1" stop-color="#BAC9FF"/>
</linearGradient>
<linearGradient id="paint28_linear_2740_25439" x1="564.113" y1="1176.74" x2="-16.7913" y2="494.086" gradientUnits="userSpaceOnUse">
<stop stop-color="#D245CE"/>
<stop offset="1" stop-color="#BAC9FF"/>
</linearGradient>
<linearGradient id="paint29_linear_2740_25439" x1="595.469" y1="1170.82" x2="-13.1463" y2="527.141" gradientUnits="userSpaceOnUse">
<stop stop-color="#D245CE"/>
<stop offset="1" stop-color="#BAC9FF"/>
</linearGradient>
<linearGradient id="paint30_linear_2740_25439" x1="625.63" y1="1164.41" x2="-8.22943" y2="560.714" gradientUnits="userSpaceOnUse">
<stop stop-color="#D245CE"/>
<stop offset="1" stop-color="#BAC9FF"/>
</linearGradient>
<linearGradient id="paint31_linear_2740_25439" x1="654.594" y1="1157.59" x2="-2.01405" y2="594.734" gradientUnits="userSpaceOnUse">
<stop stop-color="#D245CE"/>
<stop offset="1" stop-color="#BAC9FF"/>
</linearGradient>
<linearGradient id="paint32_linear_2740_25439" x1="682.342" y1="1150.43" x2="5.50123" y2="629.12" gradientUnits="userSpaceOnUse">
<stop stop-color="#D245CE"/>
<stop offset="1" stop-color="#BAC9FF"/>
</linearGradient>
<linearGradient id="paint33_linear_2740_25439" x1="708.87" y1="1143" x2="14.3239" y2="663.794" gradientUnits="userSpaceOnUse">
<stop stop-color="#D245CE"/>
<stop offset="1" stop-color="#BAC9FF"/>
</linearGradient>
<linearGradient id="paint34_linear_2740_25439" x1="734.184" y1="1135.37" x2="24.4601" y2="698.68" gradientUnits="userSpaceOnUse">
<stop stop-color="#D245CE"/>
<stop offset="1" stop-color="#BAC9FF"/>
</linearGradient>
<linearGradient id="paint35_linear_2740_25439" x1="758.281" y1="1127.62" x2="35.901" y2="733.7" gradientUnits="userSpaceOnUse">
<stop stop-color="#D245CE"/>
<stop offset="1" stop-color="#BAC9FF"/>
</linearGradient>
<linearGradient id="paint36_linear_2740_25439" x1="781.171" y1="1119.81" x2="48.6409" y2="768.781" gradientUnits="userSpaceOnUse">
<stop stop-color="#D245CE"/>
<stop offset="1" stop-color="#BAC9FF"/>
</linearGradient>
<linearGradient id="paint37_linear_2740_25439" x1="802.862" y1="1112.02" x2="62.6658" y2="803.844" gradientUnits="userSpaceOnUse">
<stop stop-color="#D245CE"/>
<stop offset="1" stop-color="#BAC9FF"/>
</linearGradient>
<linearGradient id="paint38_linear_2740_25439" x1="823.376" y1="1104.3" x2="77.9653" y2="838.821" gradientUnits="userSpaceOnUse">
<stop stop-color="#D245CE"/>
<stop offset="1" stop-color="#BAC9FF"/>
</linearGradient>
<linearGradient id="paint39_linear_2740_25439" x1="842.723" y1="1096.74" x2="94.5097" y2="873.637" gradientUnits="userSpaceOnUse">
<stop stop-color="#D245CE"/>
<stop offset="1" stop-color="#BAC9FF"/>
</linearGradient>
<linearGradient id="paint40_linear_2740_25439" x1="860.935" y1="1089.39" x2="112.283" y2="908.224" gradientUnits="userSpaceOnUse">
<stop stop-color="#D245CE"/>
<stop offset="1" stop-color="#BAC9FF"/>
</linearGradient>
<linearGradient id="paint41_linear_2740_25439" x1="878.027" y1="1082.32" x2="131.249" y2="942.514" gradientUnits="userSpaceOnUse">
<stop stop-color="#D245CE"/>
<stop offset="1" stop-color="#BAC9FF"/>
</linearGradient>
<linearGradient id="paint42_linear_2740_25439" x1="894.036" y1="1075.58" x2="151.38" y2="976.442" gradientUnits="userSpaceOnUse">
<stop stop-color="#D245CE"/>
<stop offset="1" stop-color="#BAC9FF"/>
</linearGradient>
<linearGradient id="paint43_linear_2740_25439" x1="909" y1="1069.24" x2="172.648" y2="1009.95" gradientUnits="userSpaceOnUse">
<stop stop-color="#D245CE"/>
<stop offset="1" stop-color="#BAC9FF"/>
</linearGradient>
<linearGradient id="paint44_linear_2740_25439" x1="922.943" y1="1063.35" x2="195.001" y2="1042.97" gradientUnits="userSpaceOnUse">
<stop stop-color="#D245CE"/>
<stop offset="1" stop-color="#BAC9FF"/>
</linearGradient>
<linearGradient id="paint45_linear_2740_25439" x1="935.913" y1="1057.96" x2="218.407" y2="1075.45" gradientUnits="userSpaceOnUse">
<stop stop-color="#D245CE"/>
<stop offset="1" stop-color="#BAC9FF"/>
</linearGradient>
<linearGradient id="paint46_linear_2740_25439" x1="947.946" y1="1053.13" x2="242.817" y2="1107.34" gradientUnits="userSpaceOnUse">
<stop stop-color="#D245CE"/>
<stop offset="1" stop-color="#BAC9FF"/>
</linearGradient>
<linearGradient id="paint47_linear_2740_25439" x1="959.09" y1="1048.89" x2="268.185" y2="1138.58" gradientUnits="userSpaceOnUse">
<stop stop-color="#D245CE"/>
<stop offset="1" stop-color="#BAC9FF"/>
</linearGradient>
<linearGradient id="paint48_linear_2740_25439" x1="969.389" y1="1045.3" x2="294.46" y2="1169.12" gradientUnits="userSpaceOnUse">
<stop stop-color="#D245CE"/>
<stop offset="1" stop-color="#BAC9FF"/>
</linearGradient>
<linearGradient id="paint49_linear_2740_25439" x1="978.886" y1="1042.39" x2="321.585" y2="1198.94" gradientUnits="userSpaceOnUse">
<stop stop-color="#D245CE"/>
<stop offset="1" stop-color="#BAC9FF"/>
</linearGradient>
<linearGradient id="paint50_linear_2740_25439" x1="987.648" y1="1040.21" x2="349.522" y2="1227.97" gradientUnits="userSpaceOnUse">
<stop stop-color="#D245CE"/>
<stop offset="1" stop-color="#BAC9FF"/>
</linearGradient>
<linearGradient id="paint51_linear_2740_25439" x1="995.713" y1="1038.78" x2="378.2" y2="1256.19" gradientUnits="userSpaceOnUse">
<stop stop-color="#D245CE"/>
<stop offset="1" stop-color="#BAC9FF"/>
</linearGradient>
<linearGradient id="paint52_linear_2740_25439" x1="1003.14" y1="1038.14" x2="407.563" y2="1283.57" gradientUnits="userSpaceOnUse">
<stop stop-color="#D245CE"/>
<stop offset="1" stop-color="#BAC9FF"/>
</linearGradient>
<linearGradient id="paint53_linear_2740_25439" x1="1009.97" y1="1038.31" x2="437.557" y2="1310.07" gradientUnits="userSpaceOnUse">
<stop stop-color="#D245CE"/>
<stop offset="1" stop-color="#BAC9FF"/>
</linearGradient>
<linearGradient id="paint54_linear_2740_25439" x1="1016.28" y1="1039.32" x2="468.115" y2="1335.67" gradientUnits="userSpaceOnUse">
<stop stop-color="#D245CE"/>
<stop offset="1" stop-color="#BAC9FF"/>
</linearGradient>
<linearGradient id="paint55_linear_2740_25439" x1="1022.12" y1="1041.19" x2="499.187" y2="1360.35" gradientUnits="userSpaceOnUse">
<stop stop-color="#D245CE"/>
<stop offset="1" stop-color="#BAC9FF"/>
</linearGradient>
<linearGradient id="paint56_linear_2740_25439" x1="1027.55" y1="1043.93" x2="530.704" y2="1384.08" gradientUnits="userSpaceOnUse">
<stop stop-color="#D245CE"/>
<stop offset="1" stop-color="#BAC9FF"/>
</linearGradient>
<linearGradient id="paint57_linear_2740_25439" x1="1032.62" y1="1047.57" x2="562.603" y2="1406.87" gradientUnits="userSpaceOnUse">
<stop stop-color="#D245CE"/>
<stop offset="1" stop-color="#BAC9FF"/>
</linearGradient>
<linearGradient id="paint58_linear_2740_25439" x1="1037.38" y1="1052.09" x2="594.819" y2="1428.69" gradientUnits="userSpaceOnUse">
<stop stop-color="#D245CE"/>
<stop offset="1" stop-color="#BAC9FF"/>
</linearGradient>
</defs>
</svg>
