<svg width="1072" height="350" viewBox="0 0 1072 350" fill="none" xmlns="http://www.w3.org/2000/svg">
<g opacity="0.1">
<path opacity="0.0144928" d="M1287.27 524.198L1394.98 330.154C1398.05 324.624 1398.82 318.105 1397.1 312.015L1309.34 -0.42843C1307.99 -5.21759 1305.19 -9.47035 1301.32 -12.5986L1081.98 -189.997C1074.96 -195.669 1065.36 -196.93 1057.12 -193.262L881.716 -115.165C873.476 -111.496 867.989 -103.518 867.511 -94.5107L852.574 187.197C852.311 192.164 853.598 197.091 856.256 201.295L1029.72 475.586C1033.1 480.932 1038.45 484.727 1044.62 486.146L1260.9 535.938C1271.32 538.337 1282.07 533.549 1287.27 524.198Z" stroke="url(#paint0_linear_2080_60776)" stroke-width="2"/>
<path opacity="0.0289855" d="M1252.61 533.696L1369.77 347.133C1373.14 341.768 1374.25 335.289 1372.86 329.108L1302.38 15.4345C1301.29 10.5664 1298.7 6.1602 1294.99 2.82887L1086.83 -183.862C1080.12 -189.876 1070.61 -191.629 1062.2 -188.401L884.049 -120.015C875.64 -116.787 869.746 -109.121 868.787 -100.164L839.013 177.861C838.481 182.822 839.51 187.826 841.954 192.175L999.467 472.439C1002.57 477.962 1007.73 482.033 1013.83 483.766L1225.72 544.018C1235.98 546.935 1246.94 542.73 1252.61 533.696Z" stroke="url(#paint1_linear_2080_60776)" stroke-width="2"/>
<path opacity="0.0434783" d="M1217.88 542.089L1343.99 363.457C1347.64 358.274 1349.1 351.853 1348.04 345.598L1294.74 31.6407C1293.9 26.7066 1291.54 22.1577 1287.99 18.6307L1091.38 -176.673C1085 -183.013 1075.61 -185.251 1067.05 -182.471L886.687 -123.868C878.131 -121.088 871.848 -113.756 870.411 -104.876L826.146 168.693C825.346 173.634 826.112 178.701 828.334 183.185L969.752 468.512C972.569 474.196 977.523 478.534 983.529 480.576L1190.55 550.97C1200.62 554.395 1211.75 550.78 1217.88 542.089Z" stroke="url(#paint2_linear_2080_60776)" stroke-width="2"/>
<path opacity="0.057971" d="M1183.13 549.386L1317.68 379.105C1321.62 374.119 1323.42 367.775 1322.69 361.464L1286.4 48.153C1285.82 43.1661 1283.69 38.4859 1280.32 34.7711L1095.58 -168.454C1089.54 -175.102 1080.29 -177.818 1071.61 -175.493L889.569 -126.715C880.891 -124.39 874.239 -117.412 872.329 -108.634L813.958 159.732C812.891 164.637 813.389 169.754 815.382 174.362L940.609 463.842C943.131 469.673 947.864 474.267 953.768 476.614L1155.43 556.808C1165.29 560.728 1176.55 557.71 1183.13 549.386Z" stroke="url(#paint3_linear_2080_60776)" stroke-width="2"/>
<path opacity="0.0724638" d="M1148.43 555.593L1290.9 394.053C1295.1 389.28 1297.25 383.031 1296.85 376.68L1277.35 64.9289C1277.04 59.9027 1275.15 55.1027 1271.96 51.2086L1099.39 -159.237C1093.7 -166.174 1084.62 -169.359 1075.84 -167.494L892.649 -128.555C883.873 -126.69 876.871 -120.085 874.495 -111.434L802.441 151.008C801.108 155.864 801.336 161.017 803.093 165.736L912.084 458.465C914.305 464.428 918.802 469.266 924.589 471.914L1120.44 561.542C1130.06 565.945 1141.43 563.528 1148.43 555.593Z" stroke="url(#paint4_linear_2080_60776)" stroke-width="2"/>
<path opacity="0.0869565" d="M1113.83 560.725L1263.67 408.283C1268.13 403.737 1270.61 397.602 1270.55 391.229L1267.59 81.9283C1267.54 76.8765 1265.9 71.9688 1262.9 67.9043L1102.74 -149.051C1097.42 -156.259 1088.52 -159.903 1079.67 -158.501L895.858 -129.388C887.009 -127.986 879.678 -121.773 876.844 -113.273L791.567 142.555C789.969 147.348 789.925 152.523 791.44 157.342L884.201 452.42C886.112 458.5 890.364 463.57 896.017 466.512L1085.63 565.191C1094.99 570.061 1106.43 568.249 1113.83 560.725Z" stroke="url(#paint5_linear_2080_60776)" stroke-width="2"/>
<path opacity="0.101449" d="M1079.39 564.798L1236.04 421.778C1240.76 417.474 1243.56 411.47 1243.84 405.092L1257.1 99.111C1257.32 94.0474 1255.93 89.0443 1253.13 84.8188L1105.59 -137.93C1100.64 -145.389 1091.97 -149.481 1083.07 -148.546L899.153 -129.215C890.255 -128.28 882.616 -122.473 879.335 -114.15L781.328 134.407C779.469 139.122 779.151 144.305 780.418 149.212L857.004 445.75C858.6 451.931 862.592 457.221 868.098 460.45L1051.06 567.775C1060.14 573.097 1071.62 571.891 1079.39 564.798Z" stroke="url(#paint6_linear_2080_60776)" stroke-width="2"/>
<path opacity="0.115942" d="M1045.16 567.832L1208.06 434.525C1213.01 430.476 1216.13 424.62 1216.75 418.257L1245.87 116.437C1246.36 111.375 1245.23 106.29 1242.64 101.913L1107.88 -125.911C1103.33 -133.6 1094.89 -138.127 1085.96 -137.659L902.466 -128.042C893.544 -127.575 885.621 -122.19 881.901 -114.068L771.692 126.594C769.575 131.217 768.981 136.394 769.996 141.376L830.509 438.498C831.784 444.763 835.507 450.26 840.851 453.769L1016.79 569.319C1025.56 575.077 1037.05 574.475 1045.16 567.832Z" stroke="url(#paint7_linear_2080_60776)" stroke-width="2"/>
<path opacity="0.130435" d="M1011.21 569.847L1179.77 446.51C1184.93 442.729 1188.38 437.039 1189.33 430.707L1233.92 133.863C1234.67 128.818 1233.8 123.662 1231.43 119.145L1109.58 -113.033C1105.43 -120.932 1097.25 -125.88 1088.33 -125.88H905.753C896.832 -125.88 888.648 -120.932 884.502 -113.033L762.648 119.145C760.277 123.662 759.407 128.818 760.165 133.863L804.754 430.707C805.705 437.039 809.148 442.729 814.315 446.51L982.868 569.847C991.307 576.023 1002.77 576.023 1011.21 569.847Z" stroke="url(#paint8_linear_2080_60776)" stroke-width="2"/>
<path opacity="0.144928" d="M977.584 570.87L1151.2 457.726C1156.57 454.224 1160.32 448.717 1161.61 442.434L1221.22 151.35C1222.25 146.335 1221.65 141.123 1219.5 136.475L1110.64 -99.3367C1106.9 -107.424 1099 -112.778 1090.1 -113.244L908.953 -122.738C900.058 -123.204 891.636 -118.706 887.078 -111.053L754.162 112.088C751.542 116.486 750.397 121.606 750.894 126.701L779.756 422.422C780.379 428.805 783.531 434.674 788.509 438.718L949.346 569.39C957.438 575.965 968.849 576.563 977.584 570.87Z" stroke="url(#paint9_linear_2080_60776)" stroke-width="2"/>
<path opacity="0.15942" d="M944.329 570.93L1122.41 468.166C1127.97 464.955 1132.02 459.647 1133.64 453.431L1207.8 168.858C1209.09 163.888 1208.76 158.633 1206.84 153.866L1111.02 -84.8639C1107.7 -93.1176 1100.1 -98.8624 1091.25 -99.7921L912.016 -118.631C903.171 -119.56 894.537 -115.522 889.58 -108.138L746.213 105.452C743.35 109.716 741.931 114.787 742.165 119.919L755.538 413.691C755.831 420.109 758.683 426.141 763.458 430.438L916.278 567.982C924.004 574.935 935.327 576.125 944.329 570.93Z" stroke="url(#paint10_linear_2080_60776)" stroke-width="2"/>
<path opacity="0.173913" d="M911.502 570.053L1093.43 477.822C1099.17 474.912 1103.5 469.82 1105.45 463.688L1193.64 186.344C1195.2 181.432 1195.14 176.148 1193.47 171.273L1110.68 -69.663C1107.8 -78.0612 1100.51 -84.1797 1091.74 -85.5688L914.895 -113.578C906.124 -114.968 897.303 -111.4 891.964 -104.305L738.778 99.257C735.679 103.376 733.988 108.383 733.955 113.537L732.123 404.558C732.083 410.993 734.628 417.174 739.187 421.715L883.714 565.652C891.056 572.963 902.26 574.738 911.502 570.053Z" stroke="url(#paint11_linear_2080_60776)" stroke-width="2"/>
<path opacity="0.188406" d="M879.144 568.277L1064.32 486.697C1070.22 484.099 1074.82 479.237 1077.1 473.207L1178.76 203.772C1180.59 198.933 1180.8 193.633 1179.37 188.662L1109.6 -53.7766C1107.15 -62.2967 1100.2 -68.771 1091.53 -70.6144L917.535 -107.597C908.863 -109.441 899.881 -106.353 894.175 -99.5665L731.825 93.5324C728.496 97.4916 726.536 102.42 726.235 107.584L709.522 395.076C709.148 401.51 711.378 407.825 715.709 412.597L851.695 562.442C858.636 570.091 869.692 572.441 879.144 568.277Z" stroke="url(#paint12_linear_2080_60776)" stroke-width="2"/>
<path opacity="0.202899" d="M847.299 565.633L1035.11 494.788C1041.15 492.509 1046.02 487.893 1048.61 481.982L1163.17 221.1C1165.26 216.347 1165.75 211.046 1164.57 205.99L1107.73 -37.2559C1105.72 -45.8754 1099.12 -52.6867 1090.57 -54.9777L919.889 -100.713C911.338 -103.004 902.221 -100.402 896.168 -93.9445L725.325 88.2963C721.775 92.0836 719.548 96.92 718.979 102.08L687.748 385.289C687.04 391.706 688.948 398.138 693.04 403.131L820.265 558.389C826.79 566.352 837.667 569.267 847.299 565.633Z" stroke="url(#paint13_linear_2080_60776)" stroke-width="2"/>
<path opacity="0.217391" d="M816.017 562.161L1005.85 502.099C1012.01 500.148 1017.13 495.791 1020.04 490.016L1146.88 238.291C1149.22 233.638 1149.99 228.349 1149.06 223.222L1105.06 -20.1496C1103.49 -28.8457 1097.26 -35.9744 1088.86 -38.7052L921.916 -92.9485C913.512 -95.6793 904.286 -93.5705 897.903 -87.4593L719.257 83.5703C715.493 87.1733 713.004 91.903 712.166 97.0452L666.818 375.247C665.778 381.63 667.357 388.163 671.199 393.365L789.47 553.535C795.566 561.79 806.234 565.256 816.017 562.161Z" stroke="url(#paint14_linear_2080_60776)" stroke-width="2"/>
<path opacity="0.231884" d="M785.327 557.898L976.567 508.634C982.84 507.018 988.194 502.935 991.411 497.312L1129.88 255.306C1132.48 250.767 1133.52 245.504 1132.86 240.318L1101.55 -2.50859C1100.42 -11.2585 1094.58 -18.684 1086.35 -21.8457L923.562 -84.3325C915.326 -87.4941 906.019 -85.8821 899.326 -80.1345L713.578 79.3723C709.61 82.7792 706.864 87.3885 705.757 92.4993L646.728 365.001C645.357 371.332 646.603 377.949 650.184 383.347L759.339 547.923C764.991 556.445 775.423 560.45 785.327 557.898Z" stroke="url(#paint15_linear_2080_60776)" stroke-width="2"/>
<path opacity="0.246377" d="M755.276 552.888L947.323 514.401C953.685 513.126 959.26 509.329 962.777 503.875L1112.22 272.11C1115.06 267.698 1116.38 262.476 1115.98 257.243L1097.18 15.6158C1096.5 6.83513 1091.06 -0.866194 1083.02 -4.4484L924.796 -74.8936C916.75 -78.4759 907.389 -77.3634 900.407 -71.9955L708.269 75.7199C704.107 78.9191 701.11 83.3943 699.735 88.4599L627.496 354.598C625.796 360.861 626.704 367.545 630.014 373.126L729.917 541.597C735.115 550.364 745.283 554.891 755.276 552.888Z" stroke="url(#paint16_linear_2080_60776)" stroke-width="2"/>
<path opacity="0.26087" d="M725.893 547.173L918.146 519.41C924.58 518.481 930.362 514.982 934.169 509.713L1093.89 288.666C1096.98 284.396 1098.57 279.228 1098.43 273.961L1091.94 34.171C1091.71 25.3823 1086.68 17.4272 1078.85 13.4357L925.57 -64.6635C917.737 -68.6549 908.348 -68.0436 901.098 -63.0701L703.292 72.628C698.947 75.6087 695.703 79.9362 694.062 84.943L609.114 344.089C607.089 350.266 607.657 357.001 610.687 362.752L701.23 534.606C705.964 543.592 715.841 548.625 725.893 547.173Z" stroke="url(#paint17_linear_2080_60776)" stroke-width="2"/>
<path opacity="0.275362" d="M697.211 540.795L889.079 523.671C895.566 523.092 901.538 519.902 905.627 514.833L1074.92 304.939C1078.24 300.822 1080.11 295.724 1080.23 290.436L1085.81 53.1018C1086.02 44.3281 1081.42 36.1414 1073.82 31.7533L925.848 -53.6775C918.247 -58.0656 908.858 -57.9553 901.363 -53.3898L698.614 70.1079C694.097 72.8595 690.615 77.0262 688.71 81.9605L591.584 333.521C589.239 339.596 589.463 346.363 592.204 352.27L673.308 526.995C677.569 536.175 687.131 541.695 697.211 540.795Z" stroke="url(#paint18_linear_2080_60776)" stroke-width="2"/>
<path opacity="0.289855" d="M669.259 533.803L860.161 527.198C866.681 526.972 872.828 524.102 877.187 519.249L1055.33 320.898C1058.88 316.947 1061.01 311.931 1061.41 306.636L1078.78 72.3568C1079.42 63.6205 1075.26 55.2254 1067.91 50.4542L925.593 -41.9689C918.246 -46.74 908.883 -47.1292 901.166 -42.9841L694.206 68.1732C689.528 70.6858 685.815 74.6788 683.649 79.5271L574.903 322.943C572.242 328.9 572.12 335.683 574.566 341.73L646.179 518.815C649.96 528.164 659.181 534.152 669.259 533.803Z" stroke="url(#paint19_linear_2080_60776)" stroke-width="2"/>
<path opacity="0.304348" d="M642.064 526.241L831.43 530.006C837.965 530.136 844.269 527.595 848.888 522.971L1035.13 336.507C1038.9 332.735 1041.31 327.816 1041.97 322.526L1070.83 91.8793C1071.91 83.203 1068.19 74.6229 1061.12 69.4833L924.775 -29.577C917.701 -34.7166 908.391 -35.6022 900.475 -31.8887L690.034 66.831C685.208 69.0952 681.273 72.902 678.849 77.6508L559.065 312.403C556.095 318.224 555.627 325.005 557.77 331.18L619.867 510.115C623.161 519.606 632.019 526.042 642.064 526.241Z" stroke="url(#paint20_linear_2080_60776)" stroke-width="2"/>
<path opacity="0.318841" d="M615.644 518.16L802.918 532.113C809.447 532.6 815.892 530.398 820.758 526.017L1014.36 351.74C1018.34 348.158 1021.01 343.35 1021.94 338.078L1061.95 111.618C1063.47 103.023 1060.21 94.2822 1053.42 88.7899L923.355 -16.5384C916.572 -22.0307 907.343 -23.4083 899.252 -20.1359L686.06 66.0911C681.098 68.0982 676.949 71.7066 674.273 76.3427L544.056 301.948C540.783 307.619 539.969 314.381 541.802 320.666L594.387 500.947C597.19 510.556 605.662 517.416 615.644 518.16Z" stroke="url(#paint21_linear_2080_60776)" stroke-width="2"/>
<path opacity="0.333333" d="M590.024 509.608L774.663 533.54C781.168 534.383 787.735 532.527 792.836 528.403L993.033 366.565C997.213 363.186 1000.14 358.502 1001.34 353.263L1052.16 131.518C1054.11 123.028 1051.3 114.149 1044.83 108.321L921.31 -2.89272C914.837 -8.72117 905.714 -10.5848 897.473 -7.76211L682.255 65.9594C677.171 67.7012 672.818 71.0995 669.894 75.6098L529.869 291.627C526.301 297.131 525.141 303.856 526.66 310.237L569.761 491.363C572.069 501.063 580.135 508.326 590.024 509.608Z" stroke="url(#paint22_linear_2080_60776)" stroke-width="2"/>
<path opacity="0.347826" d="M565.224 500.632L746.702 534.304C753.163 535.503 759.834 534 765.157 530.146L971.182 380.954C975.554 377.789 978.731 373.242 980.2 368.048L1041.44 151.523C1043.81 143.158 1041.47 134.167 1035.32 128.02L918.616 11.3156C912.469 5.16851 903.478 2.82611 895.113 5.1922L678.588 66.4367C673.395 67.9058 668.848 71.0827 665.682 75.4544L516.491 281.48C512.636 286.802 511.133 293.473 512.332 299.934L546.005 481.413C547.817 491.179 555.457 498.82 565.224 500.632Z" stroke="url(#paint23_linear_2080_60776)" stroke-width="2"/>
<path opacity="0.362319" d="M541.254 491.284L719.064 534.431C725.463 535.983 732.218 534.839 737.748 531.266L948.832 394.883C953.385 391.941 956.808 387.545 958.544 382.41L1029.81 171.582C1032.59 163.364 1030.71 154.285 1024.91 147.838L915.247 26.0471C909.442 19.5998 900.609 16.7874 892.145 18.6912L675.023 67.528C669.735 68.7175 665.005 71.6622 661.603 75.8826L503.903 271.554C499.771 276.681 497.927 283.28 498.802 289.805L523.127 471.151C524.442 480.957 531.64 488.951 541.254 491.284Z" stroke="url(#paint24_linear_2080_60776)" stroke-width="2"/>
<path opacity="0.376812" d="M518.125 481.615L691.778 533.944C698.094 535.847 704.915 535.067 710.638 531.786L926.011 408.327C930.734 405.619 934.396 401.387 936.396 396.323L1017.26 191.643C1020.44 183.591 1019.04 174.45 1013.59 167.721L911.179 41.2585C905.731 34.5302 897.081 31.2579 888.543 32.6953L671.524 69.2333C666.156 70.1372 661.254 72.8394 657.624 76.8963L492.084 261.894C487.685 266.81 485.503 273.319 486.052 279.893L501.133 460.631C501.952 470.451 508.691 478.772 518.125 481.615Z" stroke="url(#paint25_linear_2080_60776)" stroke-width="2"/>
<path opacity="0.391304" d="M495.846 471.675L664.873 532.869C671.088 535.119 677.955 534.706 683.856 531.729L902.748 421.264C907.63 418.8 911.524 414.744 913.786 409.765L1003.8 211.654C1007.37 203.788 1006.44 194.609 1001.36 187.619L906.396 56.9058C901.318 49.9163 892.875 46.1956 884.29 47.1639L668.059 71.5512C662.626 72.164 657.564 74.6139 653.713 78.4953L481.013 252.539C476.357 257.23 473.843 263.634 474.062 270.24L480.029 449.905C480.355 459.713 486.619 468.334 495.846 471.675Z" stroke="url(#paint26_linear_2080_60776)" stroke-width="2"/>
<path opacity="0.405797" d="M474.426 461.513L638.382 531.232C644.476 533.823 651.371 533.781 657.433 531.116L879.081 433.671C884.109 431.461 888.227 427.593 890.747 422.712L989.451 231.561C993.406 223.901 992.95 214.709 988.254 207.479L900.886 72.9432C896.191 65.7132 887.979 61.5568 879.372 62.0546L664.6 74.477C659.117 74.7942 653.908 76.9825 649.844 80.6768L470.671 243.528C465.771 247.983 462.928 254.264 462.817 260.885L459.821 439.023C459.657 448.794 465.433 457.689 474.426 461.513Z" stroke="url(#paint27_linear_2080_60776)" stroke-width="2"/>
<path opacity="0.42029" d="M453.861 451.18L612.323 529.061C618.278 531.987 625.178 532.318 631.386 529.974L855.034 445.532C860.196 443.583 864.529 439.915 867.303 435.145L974.221 251.316C978.546 243.881 978.56 234.7 974.259 227.25L894.629 89.3263C890.328 81.8769 882.37 77.2989 873.768 77.3264L661.108 78.0061C655.591 78.0237 650.248 79.942 645.979 83.4378L461.026 234.901C455.892 239.105 452.728 245.247 452.285 251.868L440.501 428.039C439.852 437.748 445.129 446.888 453.861 451.18Z" stroke="url(#paint28_linear_2080_60776)" stroke-width="2"/>
<path opacity="0.434783" d="M434.158 440.727L586.725 526.386C592.523 529.641 599.411 530.345 605.747 528.33L830.647 456.828C835.929 455.149 840.468 451.693 843.491 447.047L958.133 270.872C962.814 263.678 963.298 254.533 959.402 246.886L887.622 106.011C883.726 98.3636 876.043 93.3793 867.472 92.9381L657.558 82.1328C652.022 81.8478 646.558 83.4879 642.095 86.7744L452.056 226.695C446.702 230.637 443.223 236.623 442.448 243.226L422.071 417.005C420.943 426.627 425.711 435.984 434.158 440.727Z" stroke="url(#paint29_linear_2080_60776)" stroke-width="2"/>
<path opacity="0.449275" d="M415.309 430.203L561.608 523.237C567.229 526.812 574.084 527.89 580.531 526.212L805.948 467.547C811.338 466.144 816.072 462.911 819.339 458.401L941.203 290.18C946.227 283.246 947.175 274.161 943.693 266.338L879.852 122.951C876.37 115.129 868.983 109.755 860.469 108.848L653.914 86.8489C648.376 86.259 642.805 87.6136 638.156 90.6804L443.726 218.944C438.165 222.612 434.379 228.427 433.274 234.997L404.52 405.97C402.92 415.482 407.17 425.027 415.309 430.203Z" stroke="url(#paint30_linear_2080_60776)" stroke-width="2"/>
<path opacity="0.463768" d="M397.308 419.656L536.991 519.646C542.419 523.532 549.22 524.981 555.76 523.646L780.974 477.674C786.457 476.554 791.377 473.554 794.882 469.192L923.455 309.195C928.806 302.536 930.214 293.536 927.153 285.561L871.317 140.102C868.255 132.127 861.186 126.38 852.754 125.013L650.147 92.1436C644.623 91.2475 638.959 92.3098 634.136 95.1469L436.008 211.68C430.254 215.065 426.169 220.692 424.736 227.212L387.838 394.985C385.776 404.363 389.501 414.067 397.308 419.656Z" stroke="url(#paint31_linear_2080_60776)" stroke-width="2"/>
<path opacity="0.478261" d="M380.149 409.133L512.893 515.644C518.11 519.83 524.838 521.649 531.454 520.662L755.76 487.197C761.322 486.367 766.416 483.611 770.153 479.409L904.915 327.873C910.578 321.505 912.439 312.612 909.806 304.507L862.013 157.418C859.38 149.313 852.647 143.213 844.323 141.39L646.228 98.0053C640.734 96.8022 634.993 97.5663 630.006 100.164L428.868 204.935C422.936 208.025 418.562 213.451 416.801 219.904L372.014 384.098C369.499 393.318 372.694 403.152 380.149 409.133Z" stroke="url(#paint32_linear_2080_60776)" stroke-width="2"/>
<path opacity="0.492754" d="M363.814 398.683L489.326 511.263C494.316 515.738 500.951 517.924 507.624 517.289L730.337 496.109C735.963 495.574 741.22 493.07 745.181 489.04L885.604 346.171C891.563 340.109 893.87 331.347 891.67 323.136L851.938 174.854C849.738 166.643 843.359 160.209 835.167 157.938L642.123 104.421C636.677 102.912 630.873 103.372 625.733 105.722L422.268 198.736C416.171 201.523 411.518 206.732 409.435 213.103L357.028 373.357C354.071 382.398 356.733 392.331 363.814 398.683Z" stroke="url(#paint33_linear_2080_60776)" stroke-width="2"/>
<path opacity="0.507246" d="M348.296 388.35L466.31 506.537C471.056 511.29 477.577 513.837 484.289 513.558L704.745 504.402C710.421 504.166 715.828 501.925 720.007 498.078L865.56 364.051C871.797 358.307 874.541 349.699 872.778 341.406L841.099 192.367C839.336 184.073 833.328 177.326 825.294 174.616L637.811 111.378C632.429 109.562 626.577 109.715 621.297 111.808L416.176 193.111C409.931 195.586 405.01 200.565 402.607 206.838L342.867 362.807C339.481 371.647 341.607 381.652 348.296 388.35Z" stroke="url(#paint34_linear_2080_60776)" stroke-width="2"/>
<path opacity="0.521739" d="M333.578 378.18L443.856 501.5C448.343 506.518 454.731 509.421 461.463 509.5L679.021 512.072C684.73 512.14 690.276 510.17 694.663 506.516L844.813 381.474C851.311 376.062 854.482 367.63 853.159 359.277L829.502 209.914C828.179 201.561 822.558 194.521 814.705 191.382L633.264 118.859C627.963 116.74 622.079 116.58 616.671 118.408L410.555 188.084C404.178 190.239 399 194.974 396.283 201.133L329.51 352.495C325.708 361.113 327.299 371.159 333.578 378.18Z" stroke="url(#paint35_linear_2080_60776)" stroke-width="2"/>
<path opacity="0.536232" d="M319.639 368.214L421.973 496.184C426.186 501.453 432.422 504.705 439.154 505.144L653.197 519.115C658.924 519.489 664.596 517.798 669.183 514.349L823.394 398.403C830.136 393.334 833.722 385.099 832.84 376.711L817.152 227.449C816.27 219.061 811.05 211.752 803.403 208.196L628.455 126.846C623.251 124.426 617.352 123.951 611.827 125.507L405.366 183.675C398.873 185.504 393.449 189.982 390.423 196.011L316.932 342.461C312.728 350.838 313.785 360.895 319.639 368.214Z" stroke="url(#paint36_linear_2080_60776)" stroke-width="2"/>
<path opacity="0.550725" d="M306.462 358.495L400.672 490.625C404.597 496.129 410.662 499.723 417.375 500.523L627.314 525.53C633.043 526.213 638.827 524.808 643.605 521.574L801.344 414.805C808.31 410.091 812.299 402.074 811.859 393.674L804.063 244.933C803.623 236.534 798.818 228.977 791.398 225.017L623.363 135.321C618.272 132.604 612.374 131.812 606.747 133.089L400.572 179.904C393.979 181.401 388.323 185.61 384.995 191.494L305.112 332.748C300.522 340.864 301.048 350.903 306.462 358.495Z" stroke="url(#paint37_linear_2080_60776)" stroke-width="2"/>
<path opacity="0.565217" d="M294.017 349.063L379.954 484.855C383.577 490.581 389.451 494.508 396.127 495.667L601.4 531.32C607.116 532.312 612.998 531.201 617.958 528.191L778.693 430.65C785.864 426.299 790.242 418.52 790.242 410.132V262.324C790.242 253.937 785.864 246.158 778.693 241.807L617.958 144.266C612.998 141.256 607.116 140.144 601.4 141.137L396.127 176.79C389.451 177.949 383.577 181.876 379.954 187.601L294.017 323.394C289.057 331.232 289.057 341.225 294.017 349.063Z" stroke="url(#paint38_linear_2080_60776)" stroke-width="2"/>
<path opacity="0.57971" d="M282.281 339.957L359.825 478.912C363.134 484.842 368.8 489.092 375.418 490.61L575.493 536.487C581.179 537.791 587.146 536.979 592.277 534.203L755.483 445.91C762.839 441.93 767.593 434.409 768.03 426.057L775.706 279.585C776.144 271.234 772.203 263.256 765.303 258.53L612.22 153.66C607.407 150.363 601.558 148.932 595.767 149.634L391.993 174.347C385.252 175.164 379.173 178.799 375.262 184.35L283.619 314.44C278.306 321.981 277.786 331.901 282.281 339.957Z" stroke="url(#paint39_linear_2080_60776)" stroke-width="2"/>
<path opacity="0.594203" d="M271.229 331.21L340.287 472.826C343.27 478.943 348.71 483.506 355.252 485.38L549.628 541.036C555.269 542.65 561.305 542.144 566.597 539.61L731.753 460.556C739.275 456.955 744.388 449.709 745.26 441.417L760.473 296.674C761.344 288.382 757.849 280.231 751.241 275.145L606.13 163.48C601.48 159.902 595.681 158.151 589.828 158.558L388.129 172.585C381.339 173.057 375.07 176.389 370.88 181.753L273.887 305.916C268.239 313.146 267.208 322.964 271.229 331.21Z" stroke="url(#paint40_linear_2080_60776)" stroke-width="2"/>
<path opacity="0.608696" d="M260.827 322.859L321.339 466.632C323.985 472.919 329.181 477.783 335.629 480.009L523.838 544.973C529.415 546.898 535.507 546.701 540.949 544.419L707.543 474.565C715.209 471.35 720.666 464.397 721.967 456.186L744.557 313.556C745.858 305.345 742.816 297.046 736.518 291.62L599.664 173.704C595.194 169.853 589.461 167.783 583.562 167.89L384.489 171.515C377.67 171.639 371.225 174.659 366.765 179.821L264.787 297.858C258.822 304.762 257.288 314.45 260.827 322.859Z" stroke="url(#paint41_linear_2080_60776)" stroke-width="2"/>
<path opacity="0.623188" d="M251.051 314.934L302.984 460.364C305.283 466.802 310.219 471.954 316.553 474.527L498.16 548.307C503.659 550.541 509.791 550.658 515.371 548.635L682.899 487.916C690.69 485.093 696.474 478.449 698.197 470.343L727.986 330.194C729.709 322.088 727.128 313.667 721.159 307.918L592.811 184.309C588.536 180.191 582.886 177.804 576.954 177.608L381.039 171.143C374.206 170.918 367.602 173.617 362.883 178.563L256.288 290.297C250.027 296.86 248 306.392 251.051 314.934Z" stroke="url(#paint42_linear_2080_60776)" stroke-width="2"/>
<path opacity="0.637681" d="M241.867 307.469L285.218 454.055C287.161 460.626 291.821 466.053 298.022 468.968L472.626 551.051C478.03 553.591 484.187 554.026 489.894 552.27L657.864 500.594C665.76 498.165 671.851 491.846 673.989 483.866L710.781 346.558C712.919 338.578 710.803 330.06 705.18 324.009L585.552 195.271C581.487 190.897 575.938 188.195 569.988 187.693L377.734 171.477C370.906 170.901 364.158 173.271 359.189 177.99L248.353 283.261C241.815 289.471 239.309 298.822 241.867 307.469Z" stroke="url(#paint43_linear_2080_60776)" stroke-width="2"/>
<path opacity="0.652174" d="M233.24 300.489L268.034 447.735C269.613 454.42 273.981 460.107 280.031 463.358L447.269 553.215C452.561 556.059 458.727 556.814 464.549 555.332L632.481 512.579C640.46 510.547 646.84 504.568 649.385 496.737L692.965 362.611C695.509 354.781 693.862 346.192 688.601 339.859L577.871 206.564C574.032 201.942 568.599 198.929 562.646 198.119L374.532 172.515C367.726 171.589 360.85 173.622 355.643 178.102L240.944 276.776C234.15 282.621 231.178 291.766 233.24 300.489Z" stroke="url(#paint44_linear_2080_60776)" stroke-width="2"/>
<path opacity="0.666667" d="M225.129 294.017L251.42 441.437C252.628 448.214 256.689 454.147 262.57 457.726L422.112 554.812C427.277 557.955 433.437 559.033 439.361 557.831L606.788 523.858C614.829 522.226 621.48 516.598 624.421 508.938L674.559 378.324C677.5 370.663 676.322 362.031 671.438 355.437L569.749 218.16C566.15 213.303 560.851 209.982 554.91 208.862L371.384 174.257C364.619 172.981 357.631 174.672 352.198 178.9L234.018 270.863C226.987 276.333 223.565 285.248 225.129 294.017Z" stroke="url(#paint45_linear_2080_60776)" stroke-width="2"/>
<path opacity="0.681159" d="M217.507 288.083L235.374 435.194C236.206 442.045 239.946 448.205 245.641 452.104L397.195 555.863C402.215 559.3 408.353 560.702 414.368 559.786L580.837 534.424C588.921 533.193 595.821 527.93 599.147 520.46L655.597 393.672C658.923 386.201 658.216 377.552 653.723 370.72L561.18 230.04C557.836 224.957 552.687 221.333 546.774 219.903L368.257 176.704C361.549 175.081 354.468 176.424 348.82 180.389L227.54 265.548C220.296 270.635 216.44 279.296 217.507 288.083Z" stroke="url(#paint46_linear_2080_60776)" stroke-width="2"/>
<path opacity="0.695652" d="M210.333 282.703L219.884 429.033C220.335 435.936 223.742 442.308 229.232 446.517L372.543 556.38C377.403 560.106 383.503 561.833 389.595 561.207L554.671 544.268C562.777 543.436 569.907 538.548 573.606 531.289L636.106 408.624C639.806 401.364 639.569 392.723 635.477 385.677L552.153 242.17C549.078 236.875 544.095 232.955 538.224 231.213L365.107 179.847C358.475 177.879 351.317 178.869 345.468 182.562L221.47 260.845C214.033 265.54 209.76 273.927 210.333 282.703Z" stroke="url(#paint47_linear_2080_60776)" stroke-width="2"/>
<path opacity="0.710145" d="M203.569 277.896L204.937 422.984C205.003 429.918 208.064 436.485 213.333 440.993L348.184 556.384C352.868 560.392 358.914 562.444 365.07 562.115L528.334 553.384C536.441 552.95 543.779 548.448 547.837 541.418L616.115 423.157C620.174 416.127 620.404 407.521 616.727 400.284L542.655 254.527C539.863 249.032 535.063 244.822 529.25 242.769L361.892 183.68C355.354 181.371 348.136 182.003 342.099 185.414L215.764 256.773C208.157 261.069 203.486 269.16 203.569 277.896Z" stroke="url(#paint48_linear_2080_60776)" stroke-width="2"/>
<path opacity="0.724638" d="M197.18 273.679L190.525 417.076C190.202 424.019 192.906 430.762 197.937 435.558L324.149 555.895C328.641 560.178 334.617 562.554 340.823 562.525L501.876 561.771C509.963 561.733 517.487 557.625 521.892 550.842L595.66 437.249C600.065 430.467 600.757 421.922 597.503 414.519L532.686 267.083C530.188 261.402 525.586 256.909 519.847 254.547L358.579 188.192C352.15 185.547 344.891 185.819 338.679 188.938L210.386 253.343C202.632 257.236 197.582 265.011 197.18 273.679Z" stroke="url(#paint49_linear_2080_60776)" stroke-width="2"/>
<path opacity="0.73913" d="M191.12 270.067L176.624 411.336C175.912 418.268 178.249 425.167 183.026 430.24L300.456 554.937C304.74 559.487 310.63 562.186 316.873 562.46L475.333 569.431C483.381 569.785 491.069 566.078 495.804 559.561L574.765 450.881C579.5 444.364 580.65 435.906 577.826 428.362L522.23 279.812C520.039 273.959 515.652 269.192 510.001 266.523L355.119 193.374C348.818 190.398 341.535 190.308 335.162 193.127L205.287 250.568C197.406 254.053 191.999 261.495 191.12 270.067Z" stroke="url(#paint50_linear_2080_60776)" stroke-width="2"/>
<path opacity="0.753623" d="M185.352 267.068L163.222 405.788C162.121 412.687 164.081 419.722 168.589 425.058L277.132 553.53C281.193 558.337 286.981 561.357 293.248 561.938L448.753 576.365C456.742 577.106 464.572 573.806 469.621 567.571L553.466 464.032C558.515 457.797 560.115 449.451 557.729 441.791L511.286 292.683C509.414 286.675 505.257 281.641 499.711 278.668L351.479 199.208C345.322 195.908 338.033 195.453 331.514 197.964L200.427 248.453C192.443 251.528 186.7 258.62 185.352 267.068Z" stroke="url(#paint51_linear_2080_60776)" stroke-width="2"/>
<path opacity="0.768116" d="M179.839 264.692L150.302 400.458C148.814 407.301 150.388 414.453 154.613 420.038L254.201 551.698C258.025 556.754 263.694 560.092 269.97 560.982L422.181 582.579C430.091 583.702 438.042 580.814 443.388 574.877L531.799 476.686C537.145 470.749 539.186 462.54 537.243 454.79L499.853 305.671C498.312 299.522 494.4 294.233 488.972 290.959L347.623 205.678C341.627 202.061 334.35 201.242 327.7 203.438L195.765 247.004C187.701 249.667 181.644 256.394 179.839 264.692Z" stroke="url(#paint52_linear_2080_60776)" stroke-width="2"/>
<path opacity="0.782609" d="M174.537 262.947L137.844 395.369C135.969 402.135 137.151 409.383 141.078 415.203L231.681 549.47C235.253 554.763 240.787 558.415 247.059 559.616L395.656 588.084C403.469 589.581 411.517 587.109 417.142 581.483L509.794 488.832C515.419 483.207 517.891 475.159 516.394 467.346L487.927 318.749C486.725 312.477 483.073 306.943 477.78 303.371L343.513 212.768C337.693 208.841 330.446 207.659 323.68 209.534L191.257 246.227C183.134 248.477 176.788 254.824 174.537 262.947Z" stroke="url(#paint53_linear_2080_60776)" stroke-width="2"/>
<path opacity="0.797101" d="M169.409 261.835L125.829 390.544C123.572 397.211 124.355 404.533 127.971 410.572L209.593 546.869C212.899 552.389 218.283 556.351 224.537 557.865L369.223 592.889C376.921 594.753 385.042 592.698 390.928 587.398L487.488 500.456C493.373 495.157 496.266 487.294 495.217 479.443L475.508 331.889C474.656 325.512 471.279 319.743 466.135 315.878L339.116 220.456C333.488 216.228 326.288 214.684 319.422 216.232L186.862 246.119C178.704 247.959 172.091 253.913 169.409 261.835Z" stroke="url(#paint54_linear_2080_60776)" stroke-width="2"/>
<path opacity="0.811594" d="M164.419 261.357L114.241 386.002C111.606 392.548 111.985 399.922 115.278 406.164L187.961 543.923C190.987 549.658 196.205 553.924 202.426 555.751L342.927 597.007C350.491 599.229 358.665 597.593 364.792 592.631L464.92 511.549C471.047 506.587 474.347 498.933 473.747 491.071L462.604 345.063C462.111 338.598 459.022 332.607 454.042 328.455L334.404 228.719C328.984 224.2 321.85 222.296 314.899 223.513L182.545 246.679C174.372 248.109 167.517 253.66 164.419 261.357Z" stroke="url(#paint55_linear_2080_60776)" stroke-width="2"/>
<path opacity="0.826087" d="M159.519 261.513L103.05 381.763C100.043 388.167 100.014 395.572 102.972 401.999L166.791 540.661C169.524 546.598 174.559 551.164 180.734 553.304L316.798 600.455C324.213 603.025 332.415 601.807 338.764 597.195L442.117 522.104C448.465 517.492 452.158 510.067 452.006 502.222L449.208 358.247C449.081 351.712 446.295 345.512 441.493 341.079L329.338 237.535C324.14 232.735 317.088 230.474 310.069 231.355L178.254 247.902C170.089 248.927 163.018 254.064 159.519 261.513Z" stroke="url(#paint56_linear_2080_60776)" stroke-width="2"/>
<path opacity="0.84058" d="M154.676 262.299L92.2369 377.844C88.8646 384.084 88.4256 391.497 91.0378 398.092L146.102 537.111C148.529 543.236 153.367 548.095 159.482 550.548L290.88 603.25C298.128 606.157 306.337 605.356 312.886 601.103L419.118 532.115C425.667 527.862 429.737 520.689 430.029 512.886L435.328 371.411C435.575 364.827 433.104 358.431 428.495 353.723L323.891 246.875C318.929 241.806 311.979 239.192 304.906 239.735L173.955 249.779C165.818 250.404 158.556 255.12 154.676 262.299Z" stroke="url(#paint57_linear_2080_60776)" stroke-width="2"/>
<path opacity="0.855072" d="M149.852 263.71L81.7805 374.261C78.0515 380.317 77.2005 387.715 79.457 394.459L125.909 533.303C128.017 539.603 132.642 544.747 138.683 547.512L265.212 605.412C272.277 608.645 280.47 608.258 287.199 604.373L395.959 541.581C402.688 537.696 407.119 530.794 407.852 523.059L420.973 384.531C421.6 377.918 419.457 371.34 415.055 366.365L318.039 256.714C313.326 251.388 306.494 248.426 299.385 248.627L169.609 252.304C161.522 252.533 154.094 256.821 149.852 263.71Z" stroke="url(#paint58_linear_2080_60776)" stroke-width="2"/>
<path opacity="0.869565" d="M145.007 265.739L71.6528 371.03C67.5767 376.881 66.3133 384.241 68.2051 391.116L106.219 529.267C107.997 535.727 112.393 541.15 118.346 544.224L239.825 606.965C246.692 610.512 254.847 610.535 261.734 607.026L372.671 550.5C379.558 546.991 384.333 540.38 385.5 532.74L406.145 397.583C407.157 390.96 405.354 384.216 401.173 378.981L311.75 267.024C307.3 261.452 300.603 258.148 293.474 258.007L165.175 255.463C157.158 255.304 149.591 259.159 145.007 265.739Z" stroke="url(#paint59_linear_2080_60776)" stroke-width="2"/>
<path opacity="0.884058" d="M140.104 268.374L61.8302 368.162C57.4176 373.788 55.7428 381.088 57.2619 388.074L87.0417 525.034C88.4775 531.638 92.631 537.33 98.4816 540.712L214.753 607.931C221.408 611.779 229.503 612.206 236.526 609.079L349.29 558.873C356.313 555.747 361.413 549.445 363.007 541.924L390.854 410.54C392.255 403.929 390.804 397.033 386.857 391.548L305.003 277.773C300.827 271.969 294.282 268.329 287.149 267.844L160.616 259.241C152.688 258.703 145.008 262.122 140.104 268.374Z" stroke="url(#paint60_linear_2080_60776)" stroke-width="2"/>
<path opacity="0.898551" d="M135.115 271.603L52.2937 365.669C47.5566 371.049 45.4726 378.266 46.6119 385.343L68.3906 520.633C69.4743 527.364 73.3699 533.317 79.1048 537.005L190.034 608.337C196.464 612.471 204.479 613.295 211.616 610.556L325.855 566.704C332.991 563.964 338.396 557.989 340.408 550.613L375.114 423.378C376.908 416.8 375.82 409.769 372.121 404.042L297.779 288.929C293.89 282.907 287.513 278.939 280.392 278.11L155.902 263.623C148.084 262.713 140.316 265.695 135.115 271.603Z" stroke="url(#paint61_linear_2080_60776)" stroke-width="2"/>
<path opacity="0.913043" d="M129.996 275.413L43.0098 363.562C37.9612 368.678 35.4714 375.787 36.225 382.935L50.2633 516.097C50.9847 522.939 54.6082 529.143 60.2137 533.133L165.691 608.21C171.883 612.617 179.796 613.831 187.024 611.483L302.39 573.998C309.618 571.65 315.307 566.016 317.726 558.811L358.929 436.075C361.119 429.552 360.404 422.403 356.965 416.443L290.052 300.462C286.461 294.236 280.267 289.948 273.176 288.776L150.99 268.591C143.299 267.321 135.471 269.864 129.996 275.413Z" stroke="url(#paint62_linear_2080_60776)" stroke-width="2"/>
<path opacity="0.927536" d="M124.718 279.788L33.9571 361.849C28.6113 366.682 25.7204 373.662 26.0833 380.859L32.6679 511.457C33.0177 518.393 36.3549 524.838 41.8176 529.126L141.755 607.581C147.697 612.246 155.489 613.841 162.787 611.886L278.933 580.765C286.23 578.809 292.18 573.532 294.994 566.521L342.315 448.608C344.902 442.163 344.569 434.913 341.404 428.731L281.808 312.338C278.523 305.923 272.53 301.324 265.484 299.811L145.852 274.126C138.307 272.505 130.443 274.613 124.718 279.788Z" stroke="url(#paint63_linear_2080_60776)" stroke-width="2"/>
<path opacity="0.942029" d="M119.248 284.709L25.1076 360.534C19.4798 365.067 16.194 371.894 16.1624 379.12L15.6042 506.743C15.5735 513.754 18.6107 520.429 23.9174 525.012L118.251 606.479C123.933 611.386 131.584 613.351 138.927 611.79L255.512 587.01C262.855 585.449 269.045 580.541 272.24 573.748L325.282 460.954C328.266 454.609 328.326 447.277 325.446 440.884L273.027 324.522C270.059 317.933 264.281 313.032 257.296 311.181L140.453 280.202C133.071 278.244 125.197 279.918 119.248 284.709Z" stroke="url(#paint64_linear_2080_60776)" stroke-width="2"/>
<path opacity="0.956522" d="M113.561 290.158L16.4413 359.625C10.5481 363.84 6.87462 370.492 6.44579 377.725L-0.921692 501.987C-1.34076 509.056 1.38285 515.948 6.52041 520.821L95.2084 604.938C100.62 610.071 108.111 612.396 115.479 611.229L232.164 592.748C239.531 591.581 245.937 587.055 249.498 580.501L307.852 473.095C311.232 466.873 311.692 459.476 309.109 452.883L263.703 336.979C261.06 330.233 255.511 325.042 248.604 322.854L134.771 286.799C127.566 284.517 119.708 285.762 113.561 290.158Z" stroke="url(#paint65_linear_2080_60776)" stroke-width="2"/>
<path opacity="0.971014" d="M107.624 296.111L7.92796 359.123C1.78679 363.005 -2.26568 369.459 -3.0933 376.677L-16.9157 497.22C-17.7305 504.325 -15.3335 511.425 -10.378 516.582L72.6444 602.988C77.7777 608.331 85.0907 611.003 92.4591 610.228L208.913 597.989C216.282 597.214 222.879 593.08 226.79 586.787L290.033 485.008C293.808 478.932 294.676 471.49 292.402 464.709L253.819 349.674C251.509 342.786 246.203 337.315 239.389 334.796L128.771 293.889C121.76 291.296 113.942 292.118 107.624 296.111Z" stroke="url(#paint66_linear_2080_60776)" stroke-width="2"/>
<path opacity="0.985507" d="M101.405 302.548L-0.462049 359.032C-6.83263 362.564 -11.2541 368.799 -12.481 375.979L-32.385 492.472C-33.6021 499.595 -31.5446 506.888 -26.7837 512.325L50.5747 600.667C55.4216 606.202 62.5394 609.208 69.8866 608.823L185.785 602.749C193.132 602.364 199.897 598.63 204.138 592.619L271.839 496.675C276.005 490.77 277.289 483.302 275.334 476.345L243.362 362.571C241.392 355.558 236.343 349.82 229.638 346.973L122.424 301.446C115.622 298.558 107.868 298.964 101.405 302.548Z" stroke="url(#paint67_linear_2080_60776)" stroke-width="2"/>
<path d="M94.888 309.444L-8.74576 359.351C-15.3262 362.52 -20.1056 368.513 -21.7308 375.634L-47.3262 487.775C-48.9515 494.896 -47.2458 502.369 -42.6919 508.079L29.0248 598.009C33.5787 603.72 40.485 607.045 47.7888 607.045H162.814C170.117 607.045 177.024 603.72 181.577 598.009L253.294 508.079C257.848 502.369 259.554 494.896 257.929 487.775L232.333 375.634C230.708 368.513 225.929 362.52 219.348 359.351L115.714 309.444C109.134 306.275 101.468 306.275 94.888 309.444Z" stroke="url(#paint68_linear_2080_60776)" stroke-width="2"/>
</g>
<defs>
<linearGradient id="paint0_linear_2080_60776" x1="1279.01" y1="541.133" x2="940.634" y2="-218.869" gradientUnits="userSpaceOnUse">
<stop stop-color="#D245CE"/>
<stop offset="1" stop-color="#BAC9FF"/>
</linearGradient>
<linearGradient id="paint1_linear_2080_60776" x1="1243.49" y1="550.108" x2="947.983" y2="-219.706" gradientUnits="userSpaceOnUse">
<stop stop-color="#D245CE"/>
<stop offset="1" stop-color="#BAC9FF"/>
</linearGradient>
<linearGradient id="paint2_linear_2080_60776" x1="1207.92" y1="557.933" x2="955.379" y2="-219.308" gradientUnits="userSpaceOnUse">
<stop stop-color="#D245CE"/>
<stop offset="1" stop-color="#BAC9FF"/>
</linearGradient>
<linearGradient id="paint3_linear_2080_60776" x1="1172.37" y1="564.619" x2="962.751" y2="-217.682" gradientUnits="userSpaceOnUse">
<stop stop-color="#D245CE"/>
<stop offset="1" stop-color="#BAC9FF"/>
</linearGradient>
<linearGradient id="paint4_linear_2080_60776" x1="1136.9" y1="570.175" x2="970.043" y2="-214.842" gradientUnits="userSpaceOnUse">
<stop stop-color="#D245CE"/>
<stop offset="1" stop-color="#BAC9FF"/>
</linearGradient>
<linearGradient id="paint5_linear_2080_60776" x1="1101.57" y1="574.616" x2="977.176" y2="-210.806" gradientUnits="userSpaceOnUse">
<stop stop-color="#D245CE"/>
<stop offset="1" stop-color="#BAC9FF"/>
</linearGradient>
<linearGradient id="paint6_linear_2080_60776" x1="1066.45" y1="577.961" x2="984.099" y2="-205.592" gradientUnits="userSpaceOnUse">
<stop stop-color="#D245CE"/>
<stop offset="1" stop-color="#BAC9FF"/>
</linearGradient>
<linearGradient id="paint7_linear_2080_60776" x1="1031.59" y1="580.234" x2="990.737" y2="-199.223" gradientUnits="userSpaceOnUse">
<stop stop-color="#D245CE"/>
<stop offset="1" stop-color="#BAC9FF"/>
</linearGradient>
<linearGradient id="paint8_linear_2080_60776" x1="997.04" y1="581.457" x2="997.04" y2="-191.727" gradientUnits="userSpaceOnUse">
<stop stop-color="#D245CE"/>
<stop offset="1" stop-color="#BAC9FF"/>
</linearGradient>
<linearGradient id="paint9_linear_2080_60776" x1="962.861" y1="581.659" x2="1002.94" y2="-183.133" gradientUnits="userSpaceOnUse">
<stop stop-color="#D245CE"/>
<stop offset="1" stop-color="#BAC9FF"/>
</linearGradient>
<linearGradient id="paint10_linear_2080_60776" x1="929.104" y1="580.871" x2="1008.39" y2="-173.473" gradientUnits="userSpaceOnUse">
<stop stop-color="#D245CE"/>
<stop offset="1" stop-color="#BAC9FF"/>
</linearGradient>
<linearGradient id="paint11_linear_2080_60776" x1="895.823" y1="579.123" x2="1013.33" y2="-162.785" gradientUnits="userSpaceOnUse">
<stop stop-color="#D245CE"/>
<stop offset="1" stop-color="#BAC9FF"/>
</linearGradient>
<linearGradient id="paint12_linear_2080_60776" x1="863.061" y1="576.455" x2="1017.71" y2="-151.105" gradientUnits="userSpaceOnUse">
<stop stop-color="#D245CE"/>
<stop offset="1" stop-color="#BAC9FF"/>
</linearGradient>
<linearGradient id="paint13_linear_2080_60776" x1="830.864" y1="572.902" x2="1021.48" y2="-138.474" gradientUnits="userSpaceOnUse">
<stop stop-color="#D245CE"/>
<stop offset="1" stop-color="#BAC9FF"/>
</linearGradient>
<linearGradient id="paint14_linear_2080_60776" x1="799.281" y1="568.505" x2="1024.59" y2="-124.937" gradientUnits="userSpaceOnUse">
<stop stop-color="#D245CE"/>
<stop offset="1" stop-color="#BAC9FF"/>
</linearGradient>
<linearGradient id="paint15_linear_2080_60776" x1="768.342" y1="563.306" x2="1027.01" y2="-110.538" gradientUnits="userSpaceOnUse">
<stop stop-color="#D245CE"/>
<stop offset="1" stop-color="#BAC9FF"/>
</linearGradient>
<linearGradient id="paint16_linear_2080_60776" x1="738.096" y1="557.351" x2="1028.69" y2="-95.3247" gradientUnits="userSpaceOnUse">
<stop stop-color="#D245CE"/>
<stop offset="1" stop-color="#BAC9FF"/>
</linearGradient>
<linearGradient id="paint17_linear_2080_60776" x1="708.571" y1="550.685" x2="1029.59" y2="-79.3458" gradientUnits="userSpaceOnUse">
<stop stop-color="#D245CE"/>
<stop offset="1" stop-color="#BAC9FF"/>
</linearGradient>
<linearGradient id="paint18_linear_2080_60776" x1="679.799" y1="543.353" x2="1029.68" y2="-62.6542" gradientUnits="userSpaceOnUse">
<stop stop-color="#D245CE"/>
<stop offset="1" stop-color="#BAC9FF"/>
</linearGradient>
<linearGradient id="paint19_linear_2080_60776" x1="651.81" y1="535.407" x2="1028.93" y2="-45.3002" gradientUnits="userSpaceOnUse">
<stop stop-color="#D245CE"/>
<stop offset="1" stop-color="#BAC9FF"/>
</linearGradient>
<linearGradient id="paint20_linear_2080_60776" x1="624.632" y1="526.895" x2="1027.31" y2="-27.3398" gradientUnits="userSpaceOnUse">
<stop stop-color="#D245CE"/>
<stop offset="1" stop-color="#BAC9FF"/>
</linearGradient>
<linearGradient id="paint21_linear_2080_60776" x1="598.281" y1="517.869" x2="1024.79" y2="-8.82545" gradientUnits="userSpaceOnUse">
<stop stop-color="#D245CE"/>
<stop offset="1" stop-color="#BAC9FF"/>
</linearGradient>
<linearGradient id="paint22_linear_2080_60776" x1="572.783" y1="508.381" x2="1021.36" y2="10.1872" gradientUnits="userSpaceOnUse">
<stop stop-color="#D245CE"/>
<stop offset="1" stop-color="#BAC9FF"/>
</linearGradient>
<linearGradient id="paint23_linear_2080_60776" x1="548.155" y1="498.482" x2="1017" y2="29.6388" gradientUnits="userSpaceOnUse">
<stop stop-color="#D245CE"/>
<stop offset="1" stop-color="#BAC9FF"/>
</linearGradient>
<linearGradient id="paint24_linear_2080_60776" x1="524.408" y1="488.225" x2="1011.69" y2="49.4753" gradientUnits="userSpaceOnUse">
<stop stop-color="#D245CE"/>
<stop offset="1" stop-color="#BAC9FF"/>
</linearGradient>
<linearGradient id="paint25_linear_2080_60776" x1="501.551" y1="477.665" x2="1005.42" y2="69.6394" gradientUnits="userSpaceOnUse">
<stop stop-color="#D245CE"/>
<stop offset="1" stop-color="#BAC9FF"/>
</linearGradient>
<linearGradient id="paint26_linear_2080_60776" x1="479.591" y1="466.854" x2="998.184" y2="90.074" gradientUnits="userSpaceOnUse">
<stop stop-color="#D245CE"/>
<stop offset="1" stop-color="#BAC9FF"/>
</linearGradient>
<linearGradient id="paint27_linear_2080_60776" x1="458.538" y1="455.844" x2="989.981" y2="110.721" gradientUnits="userSpaceOnUse">
<stop stop-color="#D245CE"/>
<stop offset="1" stop-color="#BAC9FF"/>
</linearGradient>
<linearGradient id="paint28_linear_2080_60776" x1="438.385" y1="444.688" x2="980.803" y2="131.523" gradientUnits="userSpaceOnUse">
<stop stop-color="#D245CE"/>
<stop offset="1" stop-color="#BAC9FF"/>
</linearGradient>
<linearGradient id="paint29_linear_2080_60776" x1="419.137" y1="433.44" x2="970.659" y2="152.426" gradientUnits="userSpaceOnUse">
<stop stop-color="#D245CE"/>
<stop offset="1" stop-color="#BAC9FF"/>
</linearGradient>
<linearGradient id="paint30_linear_2080_60776" x1="400.784" y1="422.151" x2="959.55" y2="173.373" gradientUnits="userSpaceOnUse">
<stop stop-color="#D245CE"/>
<stop offset="1" stop-color="#BAC9FF"/>
</linearGradient>
<linearGradient id="paint31_linear_2080_60776" x1="383.32" y1="410.872" x2="947.485" y2="194.31" gradientUnits="userSpaceOnUse">
<stop stop-color="#D245CE"/>
<stop offset="1" stop-color="#BAC9FF"/>
</linearGradient>
<linearGradient id="paint32_linear_2080_60776" x1="366.735" y1="399.653" x2="934.478" y2="215.182" gradientUnits="userSpaceOnUse">
<stop stop-color="#D245CE"/>
<stop offset="1" stop-color="#BAC9FF"/>
</linearGradient>
<linearGradient id="paint33_linear_2080_60776" x1="351.01" y1="388.541" x2="920.537" y2="235.937" gradientUnits="userSpaceOnUse">
<stop stop-color="#D245CE"/>
<stop offset="1" stop-color="#BAC9FF"/>
</linearGradient>
<linearGradient id="paint34_linear_2080_60776" x1="336.135" y1="377.587" x2="905.685" y2="256.525" gradientUnits="userSpaceOnUse">
<stop stop-color="#D245CE"/>
<stop offset="1" stop-color="#BAC9FF"/>
</linearGradient>
<linearGradient id="paint35_linear_2080_60776" x1="322.091" y1="366.835" x2="889.944" y2="276.896" gradientUnits="userSpaceOnUse">
<stop stop-color="#D245CE"/>
<stop offset="1" stop-color="#BAC9FF"/>
</linearGradient>
<linearGradient id="paint36_linear_2080_60776" x1="308.854" y1="356.329" x2="873.334" y2="297" gradientUnits="userSpaceOnUse">
<stop stop-color="#D245CE"/>
<stop offset="1" stop-color="#BAC9FF"/>
</linearGradient>
<linearGradient id="paint37_linear_2080_60776" x1="296.405" y1="346.113" x2="855.883" y2="316.792" gradientUnits="userSpaceOnUse">
<stop stop-color="#D245CE"/>
<stop offset="1" stop-color="#BAC9FF"/>
</linearGradient>
<linearGradient id="paint38_linear_2080_60776" x1="284.711" y1="336.228" x2="837.615" y2="336.228" gradientUnits="userSpaceOnUse">
<stop stop-color="#D245CE"/>
<stop offset="1" stop-color="#BAC9FF"/>
</linearGradient>
<linearGradient id="paint39_linear_2080_60776" x1="273.747" y1="326.716" x2="818.561" y2="355.268" gradientUnits="userSpaceOnUse">
<stop stop-color="#D245CE"/>
<stop offset="1" stop-color="#BAC9FF"/>
</linearGradient>
<linearGradient id="paint40_linear_2080_60776" x1="263.484" y1="317.609" x2="798.754" y2="373.869" gradientUnits="userSpaceOnUse">
<stop stop-color="#D245CE"/>
<stop offset="1" stop-color="#BAC9FF"/>
</linearGradient>
<linearGradient id="paint41_linear_2080_60776" x1="253.886" y1="308.946" x2="778.226" y2="391.993" gradientUnits="userSpaceOnUse">
<stop stop-color="#D245CE"/>
<stop offset="1" stop-color="#BAC9FF"/>
</linearGradient>
<linearGradient id="paint42_linear_2080_60776" x1="244.926" y1="300.757" x2="757.019" y2="409.606" gradientUnits="userSpaceOnUse">
<stop stop-color="#D245CE"/>
<stop offset="1" stop-color="#BAC9FF"/>
</linearGradient>
<linearGradient id="paint43_linear_2080_60776" x1="236.567" y1="293.076" x2="735.169" y2="426.676" gradientUnits="userSpaceOnUse">
<stop stop-color="#D245CE"/>
<stop offset="1" stop-color="#BAC9FF"/>
</linearGradient>
<linearGradient id="paint44_linear_2080_60776" x1="228.772" y1="285.929" x2="712.714" y2="443.171" gradientUnits="userSpaceOnUse">
<stop stop-color="#D245CE"/>
<stop offset="1" stop-color="#BAC9FF"/>
</linearGradient>
<linearGradient id="paint45_linear_2080_60776" x1="221.496" y1="279.339" x2="689.691" y2="459.063" gradientUnits="userSpaceOnUse">
<stop stop-color="#D245CE"/>
<stop offset="1" stop-color="#BAC9FF"/>
</linearGradient>
<linearGradient id="paint46_linear_2080_60776" x1="214.708" y1="273.336" x2="666.148" y2="474.33" gradientUnits="userSpaceOnUse">
<stop stop-color="#D245CE"/>
<stop offset="1" stop-color="#BAC9FF"/>
</linearGradient>
<linearGradient id="paint47_linear_2080_60776" x1="208.367" y1="267.935" x2="642.127" y2="488.947" gradientUnits="userSpaceOnUse">
<stop stop-color="#D245CE"/>
<stop offset="1" stop-color="#BAC9FF"/>
</linearGradient>
<linearGradient id="paint48_linear_2080_60776" x1="202.43" y1="263.156" x2="617.669" y2="502.895" gradientUnits="userSpaceOnUse">
<stop stop-color="#D245CE"/>
<stop offset="1" stop-color="#BAC9FF"/>
</linearGradient>
<linearGradient id="paint49_linear_2080_60776" x1="196.859" y1="259.014" x2="592.824" y2="516.157" gradientUnits="userSpaceOnUse">
<stop stop-color="#D245CE"/>
<stop offset="1" stop-color="#BAC9FF"/>
</linearGradient>
<linearGradient id="paint50_linear_2080_60776" x1="191.607" y1="255.525" x2="567.631" y2="528.722" gradientUnits="userSpaceOnUse">
<stop stop-color="#D245CE"/>
<stop offset="1" stop-color="#BAC9FF"/>
</linearGradient>
<linearGradient id="paint51_linear_2080_60776" x1="186.633" y1="252.694" x2="542.137" y2="540.576" gradientUnits="userSpaceOnUse">
<stop stop-color="#D245CE"/>
<stop offset="1" stop-color="#BAC9FF"/>
</linearGradient>
<linearGradient id="paint52_linear_2080_60776" x1="181.897" y1="250.531" x2="516.391" y2="551.711" gradientUnits="userSpaceOnUse">
<stop stop-color="#D245CE"/>
<stop offset="1" stop-color="#BAC9FF"/>
</linearGradient>
<linearGradient id="paint53_linear_2080_60776" x1="177.352" y1="249.042" x2="490.433" y2="562.123" gradientUnits="userSpaceOnUse">
<stop stop-color="#D245CE"/>
<stop offset="1" stop-color="#BAC9FF"/>
</linearGradient>
<linearGradient id="paint54_linear_2080_60776" x1="172.96" y1="248.229" x2="464.313" y2="571.809" gradientUnits="userSpaceOnUse">
<stop stop-color="#D245CE"/>
<stop offset="1" stop-color="#BAC9FF"/>
</linearGradient>
<linearGradient id="paint55_linear_2080_60776" x1="168.682" y1="248.09" x2="438.08" y2="580.769" gradientUnits="userSpaceOnUse">
<stop stop-color="#D245CE"/>
<stop offset="1" stop-color="#BAC9FF"/>
</linearGradient>
<linearGradient id="paint56_linear_2080_60776" x1="164.467" y1="248.624" x2="411.769" y2="589.007" gradientUnits="userSpaceOnUse">
<stop stop-color="#D245CE"/>
<stop offset="1" stop-color="#BAC9FF"/>
</linearGradient>
<linearGradient id="paint57_linear_2080_60776" x1="160.28" y1="249.825" x2="385.43" y2="596.526" gradientUnits="userSpaceOnUse">
<stop stop-color="#D245CE"/>
<stop offset="1" stop-color="#BAC9FF"/>
</linearGradient>
<linearGradient id="paint58_linear_2080_60776" x1="156.082" y1="251.686" x2="359.107" y2="603.336" gradientUnits="userSpaceOnUse">
<stop stop-color="#D245CE"/>
<stop offset="1" stop-color="#BAC9FF"/>
</linearGradient>
<linearGradient id="paint59_linear_2080_60776" x1="151.828" y1="254.198" x2="332.838" y2="609.449" gradientUnits="userSpaceOnUse">
<stop stop-color="#D245CE"/>
<stop offset="1" stop-color="#BAC9FF"/>
</linearGradient>
<linearGradient id="paint60_linear_2080_60776" x1="147.483" y1="257.346" x2="306.666" y2="614.876" gradientUnits="userSpaceOnUse">
<stop stop-color="#D245CE"/>
<stop offset="1" stop-color="#BAC9FF"/>
</linearGradient>
<linearGradient id="paint61_linear_2080_60776" x1="143.015" y1="261.117" x2="280.636" y2="619.632" gradientUnits="userSpaceOnUse">
<stop stop-color="#D245CE"/>
<stop offset="1" stop-color="#BAC9FF"/>
</linearGradient>
<linearGradient id="paint62_linear_2080_60776" x1="138.378" y1="265.494" x2="254.779" y2="623.738" gradientUnits="userSpaceOnUse">
<stop stop-color="#D245CE"/>
<stop offset="1" stop-color="#BAC9FF"/>
</linearGradient>
<linearGradient id="paint63_linear_2080_60776" x1="133.544" y1="270.46" x2="229.136" y2="627.212" gradientUnits="userSpaceOnUse">
<stop stop-color="#D245CE"/>
<stop offset="1" stop-color="#BAC9FF"/>
</linearGradient>
<linearGradient id="paint64_linear_2080_60776" x1="128.477" y1="275.992" x2="203.74" y2="630.075" gradientUnits="userSpaceOnUse">
<stop stop-color="#D245CE"/>
<stop offset="1" stop-color="#BAC9FF"/>
</linearGradient>
<linearGradient id="paint65_linear_2080_60776" x1="123.151" y1="282.069" x2="178.631" y2="632.354" gradientUnits="userSpaceOnUse">
<stop stop-color="#D245CE"/>
<stop offset="1" stop-color="#BAC9FF"/>
</linearGradient>
<linearGradient id="paint66_linear_2080_60776" x1="117.532" y1="288.666" x2="153.835" y2="634.072" gradientUnits="userSpaceOnUse">
<stop stop-color="#D245CE"/>
<stop offset="1" stop-color="#BAC9FF"/>
</linearGradient>
<linearGradient id="paint67_linear_2080_60776" x1="111.588" y1="295.758" x2="129.38" y2="635.259" gradientUnits="userSpaceOnUse">
<stop stop-color="#D245CE"/>
<stop offset="1" stop-color="#BAC9FF"/>
</linearGradient>
<linearGradient id="paint68_linear_2080_60776" x1="105.301" y1="303.319" x2="105.301" y2="635.943" gradientUnits="userSpaceOnUse">
<stop stop-color="#D245CE"/>
<stop offset="1" stop-color="#BAC9FF"/>
</linearGradient>
</defs>
</svg>
