<svg width="20" height="20" viewBox="0 0 20 20" fill="none" xmlns="http://www.w3.org/2000/svg">
<path d="M10.8999 7.79883H5.5" stroke="#392B4B" stroke-width="2" stroke-linecap="round" stroke-linejoin="round"/>
<path d="M18.9989 9.57226V11.4262C18.9989 11.9212 18.6029 12.3262 18.0989 12.3442H16.335C15.363 12.3442 14.472 11.6332 14.391 10.6612C14.337 10.0942 14.553 9.56326 14.931 9.19427C15.264 8.85227 15.723 8.6543 16.227 8.6543H18.0989C18.6029 8.6723 18.9989 9.07727 18.9989 9.57226Z" stroke="#392B4B" stroke-width="2" stroke-linecap="round" stroke-linejoin="round"/>
<path d="M14.9317 9.19446C14.5537 9.56346 14.3377 10.0944 14.3917 10.6614C14.4727 11.6334 15.3637 12.3444 16.3356 12.3444H18.0996V13.6494C18.0996 16.3493 16.2996 18.1493 13.5997 18.1493H5.4999C2.79996 18.1493 1 16.3493 1 13.6494V7.34951C1 4.90156 2.47597 3.1916 4.77091 2.90361C5.00491 2.86761 5.2479 2.84961 5.4999 2.84961H13.5997C13.8337 2.84961 14.0587 2.8586 14.2747 2.8946C16.5966 3.16459 18.0996 4.88356 18.0996 7.34951V8.65449H16.2277C15.7237 8.65449 15.2647 8.85247 14.9317 9.19446Z" stroke="#392B4B" stroke-width="2" stroke-linecap="round" stroke-linejoin="round"/>
</svg>
