<svg width="20" height="20" viewBox="0 0 20 20" fill="none" xmlns="http://www.w3.org/2000/svg">
<path d="M1 10.0833C1 13.3459 1.46843 14.8599 2.53258 15.7024C3.08812 16.1422 3.90026 16.4774 5.13664 16.6949C6.37355 16.9126 7.95893 17 10 17C12.0411 17 13.6265 16.9126 14.8634 16.6949C16.0997 16.4774 16.9119 16.1422 17.4674 15.7024C18.5316 14.8599 19 13.3459 19 10.0833C19 8.15544 18.839 6.81727 18.466 5.86469C18.0665 4.84489 17.4027 4.20681 16.154 3.78837C14.8228 3.3423 12.8769 3.16667 10 3.16667C7.12306 3.16667 5.17718 3.3423 3.84602 3.78837C2.59734 4.20681 1.93346 4.84489 1.53404 5.86469C1.16095 6.81727 1 8.15544 1 10.0833Z" stroke="#392B4B" stroke-width="2" stroke-linecap="round" stroke-linejoin="round"/>
</svg>
