<svg width="20" height="20" viewBox="0 0 20 20" fill="none" xmlns="http://www.w3.org/2000/svg">
<path d="M2.4974 14.9997C2.4974 15.6382 2.57302 16.0452 2.70408 16.3227C2.81977 16.5677 3.0049 16.7684 3.37314 16.9417C3.76966 17.1283 4.36482 17.2751 5.26646 17.3694C6.16023 17.4629 7.29766 17.4997 8.7474 17.4997C10.1971 17.4997 11.3346 17.4629 12.2283 17.3694C13.13 17.2751 13.7251 17.1283 14.1217 16.9417C14.4899 16.7684 14.675 16.5677 14.7907 16.3227C14.9218 16.0452 14.9974 15.6382 14.9974 14.9997C14.9974 14.3611 14.9218 13.9542 14.7907 13.6767C14.675 13.4317 14.4899 13.2309 14.1217 13.0576C13.7251 12.871 13.13 12.7243 12.2283 12.63C11.3346 12.5365 10.1971 12.4997 8.7474 12.4997C7.29766 12.4997 6.16023 12.5365 5.26646 12.63C4.36482 12.7243 3.76966 12.871 3.37314 13.0576C3.0049 13.2309 2.81977 13.4317 2.70408 13.6767C2.57302 13.9542 2.4974 14.3611 2.4974 14.9997Z" stroke="#392B4B" stroke-width="1.66667" stroke-linecap="round" stroke-linejoin="round"/>
<circle r="2.91667" transform="matrix(-1 0 0 1 8.75 6.25)" stroke="#392B4B" stroke-width="1.66667"/>
<path d="M13.7812 8.84691L14.9351 10.0008L18.012 6.92383" stroke="#392B4B" stroke-width="1.66667" stroke-linecap="round" stroke-linejoin="round"/>
</svg>
