<svg width="12" height="20" viewBox="0 0 12 20" fill="none" xmlns="http://www.w3.org/2000/svg">
<path d="M6.00003 0.833252C4.85289 0.83469 3.73164 1.17433 2.77651 1.80968C1.82139 2.44503 1.0748 3.34789 0.63012 4.40534C0.185441 5.46279 0.0624157 6.62788 0.276432 7.75488C0.490448 8.88188 1.03201 9.92076 1.83337 10.7416V18.3333C1.8338 18.4753 1.87053 18.6149 1.94009 18.7388C2.00964 18.8626 2.1097 18.9666 2.23077 19.0409C2.35184 19.1153 2.48989 19.1574 2.63182 19.1633C2.77375 19.1693 2.91484 19.1388 3.0417 19.0749L6.00003 17.5999L8.95837 19.0749C9.07447 19.1344 9.20291 19.1658 9.33337 19.1666C9.48939 19.1671 9.64242 19.1238 9.77503 19.0416C9.89513 18.9665 9.99411 18.8621 10.0626 18.7382C10.1312 18.6142 10.167 18.4749 10.1667 18.3333V10.7416C10.9681 9.92076 11.5096 8.88188 11.7236 7.75488C11.9377 6.62788 11.8146 5.46279 11.3699 4.40534C10.9253 3.34789 10.1787 2.44503 9.22355 1.80968C8.26843 1.17433 7.14717 0.83469 6.00003 0.833252V0.833252ZM8.50003 16.9833L6.37503 15.9249C6.25872 15.8663 6.13028 15.8358 6.00003 15.8358C5.86978 15.8358 5.74135 15.8663 5.62503 15.9249L3.50003 16.9833V11.9333C4.02747 12.1823 4.58927 12.3508 5.1667 12.4333V13.3333C5.1667 13.5543 5.2545 13.7662 5.41078 13.9225C5.56706 14.0788 5.77902 14.1666 6.00003 14.1666C6.22105 14.1666 6.43301 14.0788 6.58929 13.9225C6.74557 13.7662 6.83337 13.5543 6.83337 13.3333V12.4333C7.4108 12.3508 7.9726 12.1823 8.50003 11.9333V16.9833ZM6.00003 10.8333C5.17594 10.8333 4.37036 10.5889 3.68516 10.131C2.99995 9.6732 2.4659 9.02246 2.15054 8.2611C1.83517 7.49974 1.75266 6.66196 1.91343 5.85371C2.0742 5.04545 2.47104 4.30303 3.05375 3.72031C3.63647 3.13759 4.3789 2.74075 5.18716 2.57998C5.99541 2.41921 6.83319 2.50172 7.59455 2.81709C8.35591 3.13245 9.00665 3.6665 9.46449 4.35171C9.92233 5.03691 10.1667 5.8425 10.1667 6.66659C10.1667 7.77165 9.72771 8.83146 8.94631 9.61286C8.16491 10.3943 7.1051 10.8333 6.00003 10.8333V10.8333Z" fill="#17AA63"/>
</svg>
