<svg width="24" height="24" viewBox="0 0 24 24" fill="none" xmlns="http://www.w3.org/2000/svg">
<path d="M3.53248 12.5125C3.39413 12.3188 3.2763 12.1458 3.17998 12C3.2763 11.8542 3.39413 11.6812 3.53248 11.4875C3.97825 10.8634 4.63069 10.0335 5.45711 9.20711C7.13533 7.52889 9.39324 6 12 6C14.6068 6 16.8647 7.52889 18.5429 9.20711C19.3693 10.0335 20.0217 10.8634 20.4675 11.4875C20.6059 11.6812 20.7237 11.8542 20.82 12C20.7237 12.1458 20.6059 12.3188 20.4675 12.5125C20.0217 13.1366 19.3693 13.9665 18.5429 14.7929C16.8647 16.4711 14.6068 18 12 18C9.39324 18 7.13533 16.4711 5.45711 14.7929C4.63069 13.9665 3.97825 13.1366 3.53248 12.5125Z" stroke="#D0C2DE" stroke-width="2"/>
<circle cx="12" cy="12" r="2" stroke="#D0C2DE" stroke-width="2"/>
</svg>
