<svg width="451" height="159" viewBox="0 0 451 159" fill="none" xmlns="http://www.w3.org/2000/svg">
<rect width="12.6726" height="19.5304" transform="matrix(0.965628 -0.259928 0.62276 0.782413 366.525 59.7124)" fill="#FAD8C4"/>
<rect width="10.9768" height="21.866" transform="matrix(0.904038 0.427451 -0.813362 0.581759 249.466 76.4177)" fill="#D8D5EC"/>
<rect width="12.7888" height="16.3973" transform="matrix(0.999973 0.00733922 -0.021697 0.999765 360.546 -1.47397)" fill="#F8E7A1"/>
<path d="M312.226 91.4167L319.919 88.5221L314.489 84.5749L322.634 81.154L317.204 76.9436L323.991 74.049L319.014 70.1018L326.254 66.944L321.276 62.7336" stroke="#F7E8BF" stroke-width="4" stroke-linecap="round" stroke-linejoin="round"/>
<path d="M305.768 30.9991L306.038 25.6731L297.367 26.0315L297.149 20.1901L288.106 20.3992L287.862 15.5065L279.449 15.6484L279.089 10.3896L270.303 10.3821" stroke="#C0DEF8" stroke-width="4" stroke-linecap="round" stroke-linejoin="round"/>
<path d="M131.225 85.1619L140.277 85.9878L140.756 80.9407L150.749 81.5498L151.53 76.3065L159.907 76.7814L160.724 71.9097L169.74 72.364L170.859 67.2962" stroke="#F7E8BF" stroke-width="4" stroke-linecap="round" stroke-linejoin="round"/>
<path d="M39.8205 59.5761L44.798 64.0496L51.5855 60.892L57.468 65.6286L64.708 62.4709L69.6855 66.4181L76.473 63.5234L81.9031 67.7338L89.1431 64.8392" stroke="#FAD8C4" stroke-width="4" stroke-linecap="round" stroke-linejoin="round"/>
<path d="M309.491 156.63L309.615 155.072C309.756 153.298 312.407 152.414 315.111 153.24V153.24C317.815 154.066 320.466 153.182 320.607 151.408V151.408C320.748 149.634 323.399 148.75 326.103 149.576V149.576C328.808 150.402 331.458 149.518 331.599 147.744V147.744C331.74 145.969 334.391 145.086 337.095 145.911V145.911C339.8 146.737 342.45 145.854 342.591 144.079L342.715 142.521" stroke="#D8D5EC" stroke-width="4" stroke-linecap="round" stroke-linejoin="round"/>
<path d="M448.712 62.1383L448.061 60.6254C447.278 58.8054 444.554 58.2778 442.051 59.4612V59.4612C439.547 60.6445 436.823 60.1169 436.04 58.2969V58.2969C435.257 56.4769 432.533 55.9493 430.03 57.1327V57.1327C427.527 58.3161 424.803 57.7884 424.02 55.9684V55.9684C423.236 54.1484 420.513 53.6208 418.009 54.8042V54.8042C415.506 55.9876 412.782 55.4599 411.999 53.6399L411.348 52.127" stroke="#FAD8C4" stroke-width="4" stroke-linecap="round" stroke-linejoin="round"/>
<path d="M179.949 37.3078L181.751 36.1525C183.191 35.2288 182.124 32.9669 180.075 32.5995V32.5995C178.027 32.2321 176.96 29.9702 178.4 29.0466V29.0466C179.84 28.123 178.774 25.861 176.725 25.4936V25.4936C174.677 25.1262 173.61 22.8643 175.05 21.9407V21.9407C176.49 21.0171 175.424 18.7551 173.375 18.3878V18.3878C171.327 18.0204 170.26 15.7584 171.7 14.8348L173.501 13.6794" stroke="#FAD8C4" stroke-width="4" stroke-linecap="round" stroke-linejoin="round"/>
<path d="M143.18 132.948L145.82 132.676C148.472 132.402 150.8 133.877 150.103 135.39V135.39C149.406 136.903 151.734 138.379 154.386 138.105V138.105C157.038 137.831 159.366 139.307 158.669 140.82V140.82C157.972 142.333 160.299 143.808 162.952 143.534V143.534C165.604 143.26 167.927 144.745 167.23 146.258V146.258C166.533 147.771 168.84 149.259 171.497 149.001L171.932 148.959C174.601 148.7 177.011 150.083 176.614 151.646L176.24 153.12" stroke="#FAD8C4" stroke-width="4" stroke-linecap="round" stroke-linejoin="round"/>
<path d="M2.61217 -10.8503L5.18169 -10.4038C7.2428 -10.0456 8.34118 -7.79365 6.91036 -6.85952V-6.85952C5.47954 -5.9254 6.57792 -3.67341 8.63903 -3.31527V-3.31527C10.7001 -2.95714 11.7985 -0.705148 10.3677 0.228977V0.228977C8.93688 1.1631 10.0353 3.41509 12.0964 3.77323V3.77323C14.1575 4.13136 15.2446 6.39069 13.8138 7.32481V7.32481C12.381 8.26023 13.4583 10.521 15.5227 10.8933L15.9328 10.9673C18.039 11.3471 19.2451 13.5882 17.9294 14.6773L16.5614 15.8095" stroke="#C0DEF8" stroke-width="4" stroke-linecap="round" stroke-linejoin="round"/>
</svg>
