<svg width="24" height="24" viewBox="0 0 24 24" fill="none" xmlns="http://www.w3.org/2000/svg">
<path d="M4 21L21 4" stroke="#DFDBEE" stroke-width="2" stroke-linecap="round"/>
<mask id="path-2-inside-1_30_388" fill="white">
<path fill-rule="evenodd" clip-rule="evenodd" d="M18.1174 7.46842C16.4846 6.12246 14.4026 5 12 5C6 5 2 12 2 12C2 12 4.19002 15.8325 7.75983 17.826L9.24379 16.342C8.11188 15.8071 7.0726 14.9942 6.16421 14.0858C5.41612 13.3377 4.81645 12.5832 4.39556 12C4.81645 11.4168 5.41612 10.6623 6.16421 9.91421C7.77065 8.30777 9.78648 7 12 7C13.7172 7 15.3154 7.78704 16.6958 8.89L18.1174 7.46842ZM11.4418 16.9725C11.6263 16.9906 11.8125 17 12 17C14.2135 17 16.2293 15.6922 17.8358 14.0858C18.5839 13.3377 19.1835 12.5832 19.6044 12C19.2468 11.5045 18.7601 10.8852 18.1629 10.2513L19.5777 8.83654C21.1243 10.4675 22 12 22 12C22 12 18 19 12 19C11.2122 19 10.4589 18.8793 9.74456 18.6697L11.4418 16.9725ZM14.761 10.8247C14.3038 9.752 13.2397 9 12 9C10.3431 9 9 10.3431 9 12C9 13.2397 9.752 14.3038 10.8247 14.761L14.761 10.8247ZM13 12C13 12.5523 12.5523 13 12 13C11.4477 13 11 12.5523 11 12C11 11.4477 11.4477 11 12 11C12.5523 11 13 11.4477 13 12Z"/>
</mask>
<path fill-rule="evenodd" clip-rule="evenodd" d="M18.1174 7.46842C16.4846 6.12246 14.4026 5 12 5C6 5 2 12 2 12C2 12 4.19002 15.8325 7.75983 17.826L9.24379 16.342C8.11188 15.8071 7.0726 14.9942 6.16421 14.0858C5.41612 13.3377 4.81645 12.5832 4.39556 12C4.81645 11.4168 5.41612 10.6623 6.16421 9.91421C7.77065 8.30777 9.78648 7 12 7C13.7172 7 15.3154 7.78704 16.6958 8.89L18.1174 7.46842ZM11.4418 16.9725C11.6263 16.9906 11.8125 17 12 17C14.2135 17 16.2293 15.6922 17.8358 14.0858C18.5839 13.3377 19.1835 12.5832 19.6044 12C19.2468 11.5045 18.7601 10.8852 18.1629 10.2513L19.5777 8.83654C21.1243 10.4675 22 12 22 12C22 12 18 19 12 19C11.2122 19 10.4589 18.8793 9.74456 18.6697L11.4418 16.9725ZM14.761 10.8247C14.3038 9.752 13.2397 9 12 9C10.3431 9 9 10.3431 9 12C9 13.2397 9.752 14.3038 10.8247 14.761L14.761 10.8247ZM13 12C13 12.5523 12.5523 13 12 13C11.4477 13 11 12.5523 11 12C11 11.4477 11.4477 11 12 11C12.5523 11 13 11.4477 13 12Z" fill="#D0C2DE"/>
<path d="M18.1174 7.46842L19.5316 8.88263L21.0885 7.3257L19.3895 5.92516L18.1174 7.46842ZM2 12L0.263514 11.0077L-0.303502 12L0.263514 12.9923L2 12ZM7.75983 17.826L6.78475 19.5721L8.10489 20.3093L9.17405 19.2402L7.75983 17.826ZM9.24379 16.342L10.658 17.7562L12.6667 15.7475L10.0984 14.5338L9.24379 16.342ZM6.16421 14.0858L4.75 15.5H4.75L6.16421 14.0858ZM4.39556 12L2.77381 10.8296L1.92909 12L2.77381 13.1704L4.39556 12ZM6.16421 9.91421L4.75 8.5L4.75 8.5L6.16421 9.91421ZM16.6958 8.89L15.4473 10.4525L16.845 11.5692L18.11 10.3042L16.6958 8.89ZM11.4418 16.9725L11.6376 14.9821L10.6963 14.8894L10.0275 15.5582L11.4418 16.9725ZM19.6044 12L21.2262 13.1704L22.0709 12L21.2262 10.8296L19.6044 12ZM18.1629 10.2513L16.7487 8.8371L15.376 10.2098L16.7072 11.6227L18.1629 10.2513ZM19.5777 8.83654L21.0289 7.46035L19.6157 5.97009L18.1635 7.42233L19.5777 8.83654ZM22 12L23.7365 12.9923L24.3035 12L23.7365 11.0077L22 12ZM9.74456 18.6697L8.33035 17.2554L5.94655 19.6392L9.18128 20.5887L9.74456 18.6697ZM14.761 10.8247L16.1753 12.239L17.1307 11.2835L16.6009 10.0406L14.761 10.8247ZM10.8247 14.761L10.0406 16.6009L11.2835 17.1307L12.2389 16.1753L10.8247 14.761ZM19.3895 5.92516C17.5614 4.41818 15.0413 3 12 3V7C13.7639 7 15.4078 7.82674 16.8452 9.01168L19.3895 5.92516ZM12 3C8.21352 3 5.22935 5.19223 3.33579 7.08579C2.36362 8.05795 1.60599 9.02318 1.09128 9.74377C0.832685 10.1058 0.632154 10.4107 0.493436 10.6299C0.424002 10.7397 0.369832 10.8283 0.331401 10.8924C0.312179 10.9244 0.296873 10.9503 0.285544 10.9697C0.279879 10.9794 0.275206 10.9874 0.271532 10.9938C0.269695 10.997 0.268108 10.9997 0.266771 11.002C0.266103 11.0032 0.265497 11.0043 0.264954 11.0052C0.264683 11.0057 0.264322 11.0063 0.264187 11.0065C0.263843 11.0071 0.263514 11.0077 2 12C3.73649 12.9923 3.73619 12.9928 3.7359 12.9933C3.73583 12.9934 3.73556 12.9939 3.73541 12.9942C3.73511 12.9947 3.73487 12.9951 3.73469 12.9954C3.73433 12.996 3.7342 12.9963 3.73431 12.9961C3.73453 12.9957 3.73568 12.9937 3.73777 12.9901C3.74195 12.983 3.74983 12.9696 3.76137 12.9504C3.78446 12.9119 3.82209 12.8502 3.87375 12.7685C3.97722 12.605 4.13606 12.3629 4.34622 12.0687C4.76901 11.4768 5.38638 10.692 6.16421 9.91421C7.77065 8.30777 9.78648 7 12 7V3ZM2 12C0.263514 12.9923 0.263754 12.9927 0.264003 12.9931C0.264097 12.9933 0.264355 12.9937 0.264544 12.9941C0.264921 12.9947 0.265333 12.9955 0.265779 12.9962C0.266672 12.9978 0.267702 12.9996 0.268869 13.0016C0.271202 13.0057 0.274084 13.0106 0.277511 13.0165C0.284363 13.0283 0.293399 13.0437 0.304594 13.0626C0.32698 13.1004 0.358028 13.1522 0.397548 13.2164C0.476537 13.3448 0.589675 13.5238 0.735432 13.7417C1.02626 14.1766 1.45076 14.7728 1.99705 15.4365C3.07402 16.7449 4.69846 18.4071 6.78475 19.5721L8.73492 16.0798C7.2514 15.2513 5.99592 14.0006 5.08543 12.8944C4.63798 12.3508 4.29187 11.8642 4.06051 11.5182C3.94517 11.3458 3.85932 11.2097 3.8046 11.1207C3.77727 11.0763 3.75778 11.0437 3.74634 11.0244C3.74062 11.0148 3.73692 11.0084 3.73527 11.0056C3.73445 11.0042 3.73413 11.0036 3.73433 11.004C3.73443 11.0041 3.73466 11.0045 3.73502 11.0052C3.7352 11.0055 3.73541 11.0058 3.73566 11.0063C3.73578 11.0065 3.73599 11.0068 3.73605 11.007C3.73626 11.0073 3.73649 11.0077 2 12ZM9.17405 19.2402L10.658 17.7562L7.82958 14.9278L6.34562 16.4117L9.17405 19.2402ZM4.75 15.5C5.76537 16.5154 6.98872 17.4884 8.38923 18.1502L10.0984 14.5338C9.23505 14.1258 8.37983 13.473 7.57843 12.6716L4.75 15.5ZM2.77381 13.1704C3.24019 13.8167 3.90818 14.6582 4.75 15.5L7.57843 12.6716C6.92406 12.0172 6.39271 11.3497 6.01731 10.8296L2.77381 13.1704ZM4.75 8.5C3.90818 9.34182 3.24019 10.1833 2.77381 10.8296L6.01731 13.1704C6.39271 12.6503 6.92406 11.9828 7.57843 11.3284L4.75 8.5ZM12 5C9.00124 5 6.50145 6.74855 4.75 8.5L7.57843 11.3284C9.03986 9.867 10.5717 9 12 9V5ZM17.9442 7.32752C16.3663 6.0667 14.3376 5 12 5V9C13.0968 9 14.2645 9.50739 15.4473 10.4525L17.9442 7.32752ZM18.11 10.3042L19.5316 8.88263L16.7032 6.05421L15.2816 7.47579L18.11 10.3042ZM11.2459 18.9628C11.4941 18.9873 11.7456 19 12 19V15C11.8793 15 11.7585 14.994 11.6376 14.9821L11.2459 18.9628ZM12 19C14.9988 19 17.4986 17.2514 19.25 15.5L16.4216 12.6716C14.9601 14.133 13.4283 15 12 15V19ZM19.25 15.5C20.0918 14.6582 20.7598 13.8167 21.2262 13.1704L17.9827 10.8296C17.6073 11.3497 17.0759 12.0172 16.4216 12.6716L19.25 15.5ZM21.2262 10.8296C20.8291 10.2794 20.2875 9.58991 19.6186 8.87989L16.7072 11.6227C17.2326 12.1805 17.6645 12.7296 17.9827 13.1704L21.2262 10.8296ZM18.1635 7.42233L16.7487 8.8371L19.5771 11.6655L20.9919 10.2508L18.1635 7.42233ZM22 12C23.7365 11.0077 23.7363 11.0075 23.7362 11.0072C23.7361 11.0071 23.736 11.0068 23.7359 11.0066C23.7356 11.0062 23.7354 11.0058 23.7351 11.0054C23.7346 11.0045 23.7341 11.0035 23.7335 11.0025C23.7323 11.0004 23.7308 10.9979 23.7292 10.995C23.7258 10.9892 23.7217 10.982 23.7166 10.9734C23.7065 10.956 23.6929 10.9329 23.6758 10.9044C23.6417 10.8474 23.5938 10.7687 23.5326 10.6712C23.4101 10.4762 23.2334 10.2049 23.0055 9.8804C22.5516 9.23409 21.8849 8.363 21.0289 7.46035L18.1264 10.2127C18.817 10.941 19.3615 11.6516 19.7321 12.1793C19.9165 12.4419 20.0554 12.6556 20.1454 12.799C20.1904 12.8705 20.223 12.9243 20.2429 12.9575C20.2528 12.9741 20.2595 12.9855 20.263 12.9914C20.2647 12.9944 20.2656 12.996 20.2657 12.9961C20.2658 12.9962 20.2656 12.9959 20.2652 12.9953C20.2651 12.995 20.2648 12.9946 20.2645 12.9941C20.2644 12.9938 20.2642 12.9935 20.2641 12.9932C20.264 12.9931 20.2638 12.9928 20.2638 12.9928C20.2637 12.9925 20.2635 12.9923 22 12ZM12 21C15.7865 21 18.7707 18.8078 20.6642 16.9142C21.6364 15.942 22.394 14.9768 22.9087 14.2562C23.1673 13.8942 23.3678 13.5893 23.5066 13.3701C23.576 13.2603 23.6302 13.1717 23.6686 13.1076C23.6878 13.0756 23.7031 13.0497 23.7145 13.0303C23.7201 13.0206 23.7248 13.0126 23.7285 13.0062C23.7303 13.003 23.7319 13.0003 23.7332 12.998C23.7339 12.9968 23.7345 12.9957 23.735 12.9948C23.7353 12.9943 23.7357 12.9937 23.7358 12.9935C23.7362 12.9929 23.7365 12.9923 22 12C20.2635 11.0077 20.2638 11.0072 20.2641 11.0067C20.2642 11.0066 20.2644 11.0061 20.2646 11.0058C20.2649 11.0053 20.2651 11.0049 20.2653 11.0046C20.2657 11.004 20.2658 11.0037 20.2657 11.0039C20.2655 11.0043 20.2643 11.0063 20.2622 11.0099C20.2581 11.017 20.2502 11.0304 20.2386 11.0496C20.2155 11.0881 20.1779 11.1498 20.1262 11.2315C20.0228 11.395 19.8639 11.6371 19.6538 11.9313C19.231 12.5232 18.6136 13.308 17.8358 14.0858C16.2293 15.6922 14.2135 17 12 17V21ZM9.18128 20.5887C10.0626 20.8474 11.0056 21 12 21V17C11.4188 17 10.8552 16.9113 10.3078 16.7506L9.18128 20.5887ZM10.0275 15.5582L8.33035 17.2554L11.1588 20.0839L12.856 18.3867L10.0275 15.5582ZM16.6009 10.0406C15.8406 8.25672 14.0694 7 12 7L12 11C12.4101 11 12.7671 11.2473 12.9212 11.6089L16.6009 10.0406ZM12 7C9.23858 7 7 9.23858 7 12L11 12C11 11.4477 11.4477 11 12 11L12 7ZM7 12C7 14.0694 8.25671 15.8406 10.0406 16.6009L11.6089 12.9212C11.2473 12.7671 11 12.4101 11 12L7 12ZM12.2389 16.1753L16.1753 12.239L13.3468 9.41052L9.41052 13.3468L12.2389 16.1753ZM12 15C13.6569 15 15 13.6569 15 12H11C11 11.4477 11.4477 11 12 11V15ZM9 12C9 13.6569 10.3431 15 12 15V11C12.5523 11 13 11.4477 13 12L9 12ZM12 9C10.3431 9 9 10.3431 9 12L13 12C13 12.5523 12.5523 13 12 13L12 9ZM15 12C15 10.3431 13.6569 9 12 9L12 13C11.4477 13 11 12.5523 11 12H15Z" fill="#DFDBEE" mask="url(#path-2-inside-1_30_388)"/>
</svg>
