<svg width="29" height="29" viewBox="0 0 29 29" fill="none" xmlns="http://www.w3.org/2000/svg">
<path fill-rule="evenodd" clip-rule="evenodd" d="M14.5 12.0833C15.1673 12.0833 15.7083 11.5423 15.7083 10.875C15.7083 10.2077 15.1673 9.66667 14.5 9.66667C13.8327 9.66667 13.2917 10.2077 13.2917 10.875C13.2917 11.5423 13.8327 12.0833 14.5 12.0833ZM14.5 14.5C16.502 14.5 18.125 12.877 18.125 10.875C18.125 8.87297 16.502 7.25 14.5 7.25C12.498 7.25 10.875 8.87297 10.875 10.875C10.875 12.877 12.498 14.5 14.5 14.5Z" fill="#392B4B"/>
<path fill-rule="evenodd" clip-rule="evenodd" d="M14.5 18.1257C11.8306 18.1257 9.66667 20.2896 9.66667 22.959H7.25C7.25 18.9549 10.4959 15.709 14.5 15.709C18.5041 15.709 21.75 18.9549 21.75 22.959L19.3333 22.959C19.3333 20.2896 17.1694 18.1257 14.5 18.1257Z" fill="#392B4B"/>
<path fill-rule="evenodd" clip-rule="evenodd" d="M14.5001 24.166C19.8388 24.166 24.1667 19.8381 24.1667 14.4993C24.1667 9.1606 19.8388 4.83268 14.5001 4.83268C9.16133 4.83268 4.83341 9.1606 4.83341 14.4993C4.83341 19.8381 9.16133 24.166 14.5001 24.166ZM14.5001 26.5827C21.1735 26.5827 26.5834 21.1728 26.5834 14.4993C26.5834 7.82591 21.1735 2.41602 14.5001 2.41602C7.82664 2.41602 2.41675 7.82591 2.41675 14.4993C2.41675 21.1728 7.82664 26.5827 14.5001 26.5827Z" fill="#392B4B"/>
</svg>
