<svg width="141" height="55" viewBox="0 0 141 55" fill="none" xmlns="http://www.w3.org/2000/svg">
<path fill-rule="evenodd" clip-rule="evenodd" d="M74.3021 4.32255C52.9149 -2.75615 23.208 -1.33061 0.859848 14.1762L3.14017 17.4626C24.292 2.78582 52.6499 1.36955 73.0452 8.11996C83.1807 11.4746 91.0809 16.7572 95.2126 23.1323C87.6145 24.6975 81.1254 28.8968 76.8209 35.5493C74.4893 39.1526 73.9343 42.7887 74.7679 45.9861C75.5923 49.1484 77.7248 51.6854 80.41 53.221C83.0967 54.7575 86.4023 55.3309 89.6466 54.5012C92.9203 53.6639 95.9788 51.4384 98.2206 47.6554C102.695 40.1044 103.43 32.8792 101.253 26.4519C102.184 26.4259 103.131 26.4398 104.092 26.494C113.378 27.0182 123.975 31.3366 134.103 40.086L121.749 41.6517L122.251 45.6199L140.771 43.273L139.495 25.4926L135.505 25.779L136.288 36.6909C125.746 27.719 114.509 23.0757 104.318 22.5004C102.688 22.4084 101.085 22.4209 99.5169 22.5367C99.2492 22.0523 98.964 21.5735 98.6618 21.1007C93.8772 13.6145 84.9929 7.861 74.3021 4.32255ZM97.1361 26.8412C99.3089 32.3427 98.9017 38.6599 94.7794 45.6162C93.0212 48.5832 90.7973 50.0782 88.6555 50.6259C86.4844 51.1812 84.2414 50.8042 82.3957 49.7487C80.5485 48.6923 79.1648 46.9958 78.6385 44.977C78.1214 42.9935 78.3812 40.501 80.1791 37.7223C84.0396 31.7561 89.9898 28.0184 97.1361 26.8412Z" fill="#966CEE"/>
</svg>
