<svg width="24" height="24" viewBox="0 0 24 24" fill="none" xmlns="http://www.w3.org/2000/svg">
<path d="M6 9V15M6 9L18.2572 4.09711C19.5709 3.57162 21 4.53914 21 5.95407V18.0459C21 19.4609 19.5709 20.4284 18.2572 19.9029L6 15M6 9H3C2.44772 9 2 9.44772 2 10V14C2 14.5523 2.44772 15 3 15H6" stroke="#17AA63" stroke-width="2"/>
<path d="M8.5 16L7.79817 18.1055C7.63074 18.6078 7.88386 19.1535 8.37547 19.3502L11.5153 20.6061C12.0495 20.8198 12.6534 20.5397 12.8354 19.9939L13.5 18" stroke="#17AA63" stroke-width="2"/>
</svg>
