<svg width="32" height="32" viewBox="0 0 32 32" fill="none" xmlns="http://www.w3.org/2000/svg">
<rect x="0.5" y="0.5" width="31" height="31" rx="7.5" fill="white"/>
<g clip-path="url(#clip0_235_3537)">
<path fill-rule="evenodd" clip-rule="evenodd" d="M16 14.6667C16.3682 14.6667 16.6667 14.3682 16.6667 14C16.6667 13.6318 16.3682 13.3333 16 13.3333C15.6318 13.3333 15.3333 13.6318 15.3333 14C15.3333 14.3682 15.6318 14.6667 16 14.6667ZM16 16C17.1046 16 18 15.1046 18 14C18 12.8954 17.1046 12 16 12C14.8954 12 14 12.8954 14 14C14 15.1046 14.8954 16 16 16Z" fill="#0087FF"/>
<path fill-rule="evenodd" clip-rule="evenodd" d="M16 18.0003C14.5272 18.0003 13.3333 19.1942 13.3333 20.667H12C12 18.4579 13.7909 16.667 16 16.667C18.2091 16.667 20 18.4579 20 20.667H18.6667C18.6667 19.1942 17.4728 18.0003 16 18.0003Z" fill="#0087FF"/>
<path fill-rule="evenodd" clip-rule="evenodd" d="M15.9997 21.333C18.9452 21.333 21.333 18.9452 21.333 15.9997C21.333 13.0542 18.9452 10.6663 15.9997 10.6663C13.0542 10.6663 10.6663 13.0542 10.6663 15.9997C10.6663 18.9452 13.0542 21.333 15.9997 21.333ZM15.9997 22.6663C19.6816 22.6663 22.6663 19.6816 22.6663 15.9997C22.6663 12.3178 19.6816 9.33301 15.9997 9.33301C12.3178 9.33301 9.33301 12.3178 9.33301 15.9997C9.33301 19.6816 12.3178 22.6663 15.9997 22.6663Z" fill="#0087FF"/>
</g>
<rect x="0.5" y="0.5" width="31" height="31" rx="7.5" stroke="#CFE0FF"/>
<defs>
<clipPath id="clip0_235_3537">
<rect width="16" height="16" fill="white" transform="translate(8 8)"/>
</clipPath>
</defs>
</svg>
