<svg width="19" height="19" viewBox="0 0 19 19" fill="none" xmlns="http://www.w3.org/2000/svg">
<path fill-rule="evenodd" clip-rule="evenodd" d="M9.60812 3.09835C10.3114 2.39509 11.2652 2 12.2598 2H16.7598C17.174 2 17.5098 2.33579 17.5098 2.75V14C17.5098 14.4142 17.174 14.75 16.7598 14.75H11.5098C11.1119 14.75 10.7304 14.908 10.4491 15.1893C10.1678 15.4706 10.0098 15.8522 10.0098 16.25C10.0098 16.6642 9.67398 17 9.25977 17C8.84555 17 8.50977 16.6642 8.50977 16.25V5.75C8.50977 4.75544 8.90485 3.80161 9.60812 3.09835ZM10.0098 13.6519C10.4619 13.3909 10.9786 13.25 11.5098 13.25H16.0098V3.5H12.2598C11.663 3.5 11.0907 3.73705 10.6688 4.15901C10.2468 4.58097 10.0098 5.15326 10.0098 5.75V13.6519Z" fill="#392B4B"/>
<path fill-rule="evenodd" clip-rule="evenodd" d="M1.00977 2.75C1.00977 2.33579 1.34555 2 1.75977 2H6.25977C7.25433 2 8.20815 2.39509 8.91142 3.09835C9.61468 3.80161 10.0098 4.75544 10.0098 5.75V16.25C10.0098 16.6642 9.67398 17 9.25977 17C8.84555 17 8.50977 16.6642 8.50977 16.25C8.50977 15.8522 8.35173 15.4706 8.07043 15.1893C7.78912 14.908 7.40759 14.75 7.00977 14.75H1.75977C1.34555 14.75 1.00977 14.4142 1.00977 14V2.75ZM8.50977 13.6519V5.75C8.50977 5.15326 8.27271 4.58097 7.85076 4.15901C7.4288 3.73705 6.8565 3.5 6.25977 3.5H2.50977V13.25H7.00977C7.54094 13.25 8.05759 13.3909 8.50977 13.6519Z" fill="#392B4B"/>
</svg>
