<svg width="20" height="14" viewBox="0 0 20 14" fill="none" xmlns="http://www.w3.org/2000/svg">
<path d="M18.804 4.91607L17.929 4.43482L10.054 0.0598242H9.95776C9.90411 0.0371431 9.84845 0.0195655 9.79151 0.00732422H9.62526H9.46776C9.40798 0.0195736 9.34941 0.0371435 9.29276 0.0598242H9.19651L1.32151 4.43482C1.18685 4.51114 1.07484 4.62181 0.996914 4.75554C0.918987 4.88928 0.87793 5.04129 0.87793 5.19607C0.87793 5.35086 0.918987 5.50287 0.996914 5.6366C1.07484 5.77034 1.18685 5.88101 1.32151 5.95732L3.50026 7.16482V11.3123C3.50026 12.0085 3.77682 12.6762 4.2691 13.1685C4.76139 13.6608 5.42907 13.9373 6.12526 13.9373H13.1253C13.8215 13.9373 14.4891 13.6608 14.9814 13.1685C15.4737 12.6762 15.7503 12.0085 15.7503 11.3123V7.16482L17.5003 6.18482V8.68732C17.5003 8.91939 17.5924 9.14195 17.7565 9.30604C17.9206 9.47014 18.1432 9.56232 18.3753 9.56232C18.6073 9.56232 18.8299 9.47014 18.994 9.30604C19.1581 9.14195 19.2503 8.91939 19.2503 8.68732V5.67732C19.25 5.52228 19.2085 5.37009 19.1301 5.23633C19.0517 5.10257 18.9392 4.99205 18.804 4.91607ZM14.0003 11.3123C14.0003 11.5444 13.9081 11.7669 13.744 11.931C13.5799 12.0951 13.3573 12.1873 13.1253 12.1873H6.12526C5.8932 12.1873 5.67064 12.0951 5.50654 11.931C5.34245 11.7669 5.25026 11.5444 5.25026 11.3123V8.13607L9.19651 10.3236L9.32776 10.3761H9.40651C9.47914 10.3852 9.55263 10.3852 9.62526 10.3761C9.69789 10.3852 9.77138 10.3852 9.84401 10.3761H9.92276C9.96921 10.3663 10.0136 10.3485 10.054 10.3236L14.0003 8.13607V11.3123ZM9.62526 8.56482L3.55276 5.18732L9.62526 1.80982L15.6978 5.18732L9.62526 8.56482Z" fill="white"/>
</svg>
