<svg width="16" height="16" viewBox="0 0 16 16" fill="none" xmlns="http://www.w3.org/2000/svg">
<path fill-rule="evenodd" clip-rule="evenodd" d="M4 0C1.79086 0 0 1.79086 0 4V12C0 14.2091 1.79086 16 4 16H12C14.2091 16 16 14.2091 16 12V4C16 1.79086 14.2091 0 12 0H4ZM12.7071 6.70711C13.0976 6.31658 13.0976 5.68342 12.7071 5.29289C12.3166 4.90237 11.6834 4.90237 11.2929 5.29289L7.00001 9.58579L5.70711 8.29289C5.31658 7.90237 4.68342 7.90237 4.29289 8.29289C3.90237 8.68342 3.90237 9.31658 4.29289 9.70711L6.2929 11.7071C6.68343 12.0976 7.31659 12.0976 7.70712 11.7071L12.7071 6.70711Z" fill="#966CEE"/>
</svg>
