<svg width="1479" height="473" viewBox="0 0 1479 473" fill="none" xmlns="http://www.w3.org/2000/svg">
<g opacity="0.14">
<path opacity="0.0144928" d="M-388.078 855.828C-398.501 858.228 -409.255 853.44 -414.446 844.088L-572.48 559.403C-575.55 553.873 -576.312 547.354 -574.602 541.264L-448.549 92.5338C-447.203 87.7446 -444.403 83.4919 -440.535 80.3637L-123.134 -176.34C-116.121 -182.012 -106.52 -183.273 -98.2801 -179.605L161.118 -64.1131C169.358 -60.4445 174.845 -52.4657 175.323 -43.4587L196.937 364.185C197.201 369.152 195.914 374.079 193.255 378.283L-55.8707 772.218C-59.2516 777.564 -64.6063 781.36 -70.7705 782.779L-388.078 855.828Z" stroke="url(#paint0_linear_45_3310)" stroke-width="2"/>
<path opacity="0.0289855" d="M-338.233 867.615C-348.494 870.533 -359.449 866.327 -365.122 857.293L-537.038 583.523C-540.407 578.159 -541.518 571.679 -540.129 565.499L-438.89 114.916C-437.796 110.048 -435.212 105.642 -431.498 102.31L-130.215 -167.896C-123.509 -173.911 -113.999 -175.663 -105.59 -172.435L157.92 -71.283C166.33 -68.0549 172.224 -60.3895 173.183 -51.4327L216.276 350.968C216.808 355.929 215.78 360.932 213.335 365.282L-12.928 767.872C-16.0317 773.395 -21.1928 777.466 -27.2861 779.199L-338.233 867.615Z" stroke="url(#paint1_linear_45_3310)" stroke-width="2"/>
<path opacity="0.0434783" d="M-288.369 877.8C-298.441 881.225 -309.566 877.61 -315.702 868.919L-500.794 606.73C-504.453 601.547 -505.911 595.126 -504.849 588.871L-428.268 137.793C-427.43 132.859 -425.071 128.31 -421.52 124.783L-136.893 -157.95C-130.511 -164.29 -121.119 -166.529 -112.563 -163.749L154.274 -77.048C162.83 -74.268 169.113 -66.9367 170.55 -58.0562L234.631 337.98C235.431 342.92 234.666 347.987 232.443 352.471L29.2614 762.414C26.4441 768.099 21.4906 772.436 15.4842 774.479L-288.369 877.8Z" stroke="url(#paint2_linear_45_3310)" stroke-width="2"/>
<path opacity="0.057971" d="M-238.574 886.397C-248.433 890.317 -259.696 887.299 -266.274 878.975L-463.802 628.989C-467.741 624.003 -469.543 617.659 -468.812 611.348L-416.661 161.11C-416.083 156.123 -413.957 151.442 -410.58 147.728L-143.089 -146.538C-137.046 -153.186 -127.796 -155.902 -119.118 -153.577L150.261 -81.3973C158.939 -79.0721 165.592 -72.0949 167.501 -63.316L252.022 325.271C253.089 330.177 252.591 335.294 250.598 339.901L70.6427 755.894C68.12 761.726 63.3878 766.319 57.4837 768.667L-238.574 886.397Z" stroke="url(#paint3_linear_45_3310)" stroke-width="2"/>
<path opacity="0.0724638" d="M-188.935 893.425C-198.556 897.828 -209.924 895.411 -216.922 887.477L-426.121 650.27C-430.33 645.497 -432.471 639.248 -432.074 632.897L-404.054 184.808C-403.739 179.782 -401.852 174.982 -398.659 171.088L-148.725 -133.7C-143.036 -140.638 -133.953 -143.823 -125.177 -141.958L145.96 -84.3255C154.736 -82.4601 161.738 -75.8558 164.114 -67.2041L268.47 312.891C269.804 317.747 269.576 322.9 267.818 327.619L111.162 748.366C108.942 754.329 104.444 759.167 98.6577 761.815L-188.935 893.425Z" stroke="url(#paint4_linear_45_3310)" stroke-width="2"/>
<path opacity="0.0869565" d="M-139.538 898.908C-148.896 903.779 -160.338 901.967 -167.733 894.443L-387.808 670.545C-392.276 666 -394.752 659.864 -394.691 653.491L-390.432 208.833C-390.383 203.781 -388.742 198.873 -385.742 194.809L-153.73 -119.479C-148.409 -126.687 -139.516 -130.331 -130.667 -128.93L141.45 -85.8307C150.299 -84.4292 157.63 -78.2153 160.464 -69.7157L283.999 300.885C285.597 305.678 285.641 310.853 284.126 315.672L150.77 739.884C148.859 745.964 144.608 751.034 138.954 753.976L-139.538 898.908Z" stroke="url(#paint5_linear_45_3310)" stroke-width="2"/>
<path opacity="0.101449" d="M-90.4624 902.875C-99.5361 908.197 -111.018 906.99 -118.787 899.898L-348.923 689.791C-353.637 685.487 -356.442 679.483 -356.719 673.105L-375.783 233.125C-376.003 228.062 -374.613 223.059 -371.814 218.833L-158.03 -103.923C-153.09 -111.382 -144.41 -115.473 -135.513 -114.538L136.811 -85.9159C145.708 -84.9807 153.347 -79.174 156.629 -70.851L298.637 289.3C300.496 294.015 300.815 299.198 299.547 304.105L189.422 730.507C187.826 736.688 183.834 741.977 178.328 745.207L-90.4624 902.875Z" stroke="url(#paint6_linear_45_3310)" stroke-width="2"/>
<path opacity="0.115942" d="M-41.7904 905.356C-50.5575 911.114 -62.048 910.512 -70.1651 903.869L-309.525 707.987C-314.473 703.938 -317.6 698.082 -318.214 691.718L-360.101 257.628C-360.589 252.566 -359.458 247.481 -356.869 243.104L-161.558 -87.0828C-157.01 -94.7722 -148.567 -99.2988 -139.646 -98.8312L132.12 -84.5886C141.042 -84.121 148.965 -78.7367 152.685 -70.614L312.411 278.18C314.528 282.803 315.123 287.979 314.108 292.962L227.076 720.296C225.8 726.56 222.077 732.057 216.734 735.567L-41.7904 905.356Z" stroke="url(#paint7_linear_45_3310)" stroke-width="2"/>
<path opacity="0.130435" d="M6.40024 906.39C-2.03918 912.566 -13.5058 912.566 -21.9452 906.39L-269.675 725.115C-274.843 721.334 -278.285 715.644 -279.236 709.312L-343.381 282.283C-344.139 277.238 -343.269 272.082 -340.898 267.565L-164.251 -69.0132C-160.105 -76.9122 -151.921 -81.86 -143 -81.86L127.455 -81.86C136.376 -81.86 144.561 -76.9122 148.706 -69.0132L325.353 267.565C327.724 272.082 328.594 277.238 327.836 282.283L263.691 709.312C262.74 715.644 259.298 721.334 254.13 725.115L6.40024 906.39Z" stroke="url(#paint8_linear_45_3310)" stroke-width="2"/>
<path opacity="0.144928" d="M54.0354 906.017C45.9436 912.591 34.5329 913.189 25.7981 907.497L-229.434 741.163C-234.807 737.662 -238.555 732.155 -239.842 725.872L-325.621 307.033C-326.648 302.018 -326.045 296.806 -323.899 292.159L-166.046 -49.7716C-162.313 -57.8588 -154.407 -63.2131 -145.512 -63.6792L122.892 -77.7457C131.787 -78.2119 140.209 -73.7133 144.767 -66.0607L337.497 257.496C340.117 261.894 341.261 267.015 340.764 272.11L299.236 697.62C298.613 704.003 295.46 709.872 290.483 713.916L54.0354 906.017Z" stroke="url(#paint9_linear_45_3310)" stroke-width="2"/>
<path opacity="0.15942" d="M101.042 904.282C93.3164 911.235 81.9931 912.425 72.9907 907.23L-188.863 756.121C-194.427 752.91 -198.472 747.602 -200.092 741.386L-306.825 331.821C-308.12 326.85 -307.787 321.595 -305.873 316.828L-166.888 -29.4189C-163.575 -37.6726 -155.969 -43.4175 -147.124 -44.3471L118.503 -72.2657C127.348 -73.1953 135.982 -69.1574 140.939 -61.7729L348.875 248.012C351.738 252.276 353.157 257.347 352.923 262.479L333.676 685.285C333.384 691.702 330.531 697.734 325.756 702.032L101.042 904.282Z" stroke="url(#paint10_linear_45_3310)" stroke-width="2"/>
<path opacity="0.173913" d="M147.353 901.232C140.011 908.543 128.806 910.318 119.565 905.633L-148.022 769.98C-153.761 767.07 -158.091 761.978 -160.041 755.846L-286.995 356.589C-288.557 351.677 -288.496 346.392 -286.821 341.518L-166.722 -8.01872C-163.837 -16.4168 -156.55 -22.5353 -147.779 -23.9244L114.363 -65.4436C123.134 -66.8328 131.955 -63.2655 137.294 -56.1701L359.528 239.146C362.627 243.265 364.318 248.272 364.35 253.426L366.987 672.373C367.028 678.807 364.483 684.988 359.923 689.529L147.353 901.232Z" stroke="url(#paint11_linear_45_3310)" stroke-width="2"/>
<path opacity="0.188406" d="M192.901 896.92C185.96 904.568 174.904 906.918 165.452 902.754L-106.972 782.737C-112.871 780.139 -117.476 775.277 -119.751 769.247L-266.142 381.281C-267.968 376.442 -268.181 371.142 -266.751 366.171L-165.5 14.3637C-163.048 5.84355 -156.099 -0.630704 -147.426 -2.47405L110.54 -57.3065C119.212 -59.1498 128.194 -56.0619 133.9 -49.2757L369.49 230.934C372.819 234.893 374.779 239.822 375.079 244.986L399.145 658.952C399.519 665.387 397.289 671.701 392.958 676.474L192.901 896.92Z" stroke="url(#paint12_linear_45_3310)" stroke-width="2"/>
<path opacity="0.202899" d="M237.625 891.4C231.099 899.363 220.223 902.277 210.59 898.644L-65.7747 794.393C-71.8153 792.115 -76.6831 787.499 -79.2788 781.587L-244.275 405.843C-246.362 401.09 -246.852 395.788 -245.671 390.733L-163.177 37.6597C-161.163 29.0401 -154.568 22.2289 -146.018 19.9379L107.103 -47.8857C115.654 -50.1767 124.77 -47.5754 130.824 -41.1177L378.803 223.406C382.353 227.193 384.58 232.029 385.149 237.189L430.131 645.092C430.838 651.509 428.931 657.94 424.839 662.934L237.625 891.4Z" stroke="url(#paint13_linear_45_3310)" stroke-width="2"/>
<path opacity="0.217391" d="M281.466 884.73C275.37 892.985 264.702 896.451 254.919 893.356L-24.489 804.951C-30.6548 803.001 -35.7723 798.644 -38.6822 792.869L-221.409 430.219C-223.754 425.566 -224.52 420.276 -223.593 415.149L-159.711 61.7995C-158.139 53.1033 -151.915 45.9747 -143.51 43.2439L104.118 -37.2156C112.523 -39.9464 121.748 -37.8375 128.132 -31.7263L387.507 216.591C391.271 220.194 393.76 224.923 394.598 230.066L459.929 630.86C460.969 637.243 459.39 643.775 455.548 648.978L281.466 884.73Z" stroke="url(#paint14_linear_45_3310)" stroke-width="2"/>
<path opacity="0.231884" d="M324.369 876.971C318.717 885.494 308.285 889.498 298.381 886.947L16.8257 814.417C10.5525 812.801 5.19887 808.718 1.98167 803.095L-197.562 454.355C-200.159 449.816 -201.203 444.553 -200.534 439.367L-155.067 86.711C-153.939 77.9611 -148.101 70.5356 -139.865 67.3739L101.648 -25.3341C109.884 -28.4957 119.191 -26.8836 125.884 -21.1361L395.646 210.515C399.613 213.922 402.359 218.531 403.466 223.642L488.529 616.327C489.9 622.658 488.654 629.275 485.074 634.673L324.369 876.971Z" stroke="url(#paint15_linear_45_3310)" stroke-width="2"/>
<path opacity="0.246377" d="M366.284 868.186C361.085 876.953 350.917 881.48 340.924 879.477L58.1105 822.8C51.7477 821.525 46.1726 817.728 42.656 812.274L-172.754 478.201C-175.598 473.789 -176.918 468.567 -176.511 463.334L-149.213 112.321C-148.53 103.54 -143.093 95.839 -135.047 92.2567L99.7517 -12.2823C107.798 -15.8645 117.159 -14.7521 124.141 -9.38415L403.261 205.203C407.422 208.402 410.42 212.877 411.795 217.943L515.922 601.562C517.622 607.825 516.714 614.509 513.404 620.09L366.284 868.186Z" stroke="url(#paint16_linear_45_3310)" stroke-width="2"/>
<path opacity="0.26087" d="M407.165 858.441C402.431 867.427 392.553 872.46 382.501 871.008L99.3099 830.113C92.8761 829.184 87.0943 825.685 83.2871 820.416L-147.005 501.704C-150.091 497.434 -151.686 492.266 -151.544 486.999L-142.119 138.555C-141.881 129.766 -136.857 121.811 -129.024 117.82L98.4894 1.89608C106.323 -2.09534 115.712 -1.48405 122.962 3.4895L410.399 200.675C414.744 203.656 417.987 207.984 419.628 212.99L542.108 586.635C544.133 592.812 543.566 599.546 540.536 605.297L407.165 858.441Z" stroke="url(#paint17_linear_45_3310)" stroke-width="2"/>
<path opacity="0.275362" d="M446.968 847.803C442.707 856.983 433.145 862.503 423.065 861.603L140.367 836.372C133.88 835.793 127.908 832.603 123.819 827.534L-120.344 524.817C-123.665 520.7 -125.532 515.601 -125.656 510.314L-133.764 165.337C-133.971 156.564 -129.371 148.377 -121.771 143.989L97.9135 17.1539C105.514 12.7658 114.903 12.8762 122.399 17.4416L417.103 196.951C421.62 199.703 425.102 203.87 427.007 208.804L567.086 571.614C569.432 577.689 569.208 584.456 566.466 590.363L446.968 847.803Z" stroke="url(#paint18_linear_45_3310)" stroke-width="2"/>
<path opacity="0.289855" d="M485.656 836.341C481.876 845.689 472.655 851.678 462.577 851.329L181.228 841.594C174.708 841.369 168.561 838.499 164.202 833.645L-92.7952 547.492C-96.3434 543.541 -98.4811 538.525 -98.8737 533.23L-124.128 192.592C-124.776 183.856 -120.612 175.461 -113.265 170.69L98.0774 33.4421C105.424 28.671 114.787 28.2819 122.505 32.4269L423.421 194.048C428.099 196.56 431.812 200.553 433.978 205.402L590.862 556.569C593.523 562.525 593.644 569.308 591.198 575.356L485.656 836.341Z" stroke="url(#paint19_linear_45_3310)" stroke-width="2"/>
<path opacity="0.304348" d="M523.194 824.126C519.9 833.618 511.042 840.053 500.997 840.253L221.837 845.802C215.303 845.932 208.999 843.392 204.38 838.768L-64.3926 569.683C-68.1601 565.911 -70.5646 560.992 -71.2265 555.702L-113.199 220.243C-114.284 211.566 -110.565 202.986 -103.491 197.846L99.0263 50.709C106.1 45.5694 115.41 44.6838 123.326 48.3974L429.396 191.978C434.223 194.242 438.158 198.049 440.581 202.798L613.441 541.567C616.412 547.389 616.879 554.17 614.737 560.344L523.194 824.126Z" stroke="url(#paint20_linear_45_3310)" stroke-width="2"/>
<path opacity="0.318841" d="M559.553 811.231C556.751 820.84 548.279 827.7 538.297 828.444L262.147 849.019C255.618 849.506 249.173 847.303 244.307 842.923L-35.1655 591.346C-39.1439 587.765 -41.8108 582.956 -42.7423 577.685L-100.963 248.212C-102.482 239.618 -99.2155 230.876 -92.4331 225.384L100.808 68.9005C107.59 63.4082 116.82 62.0306 124.91 65.303L435.079 190.753C440.042 192.76 444.191 196.368 446.866 201.005L634.84 526.676C638.113 532.346 638.927 539.108 637.094 545.394L559.553 811.231Z" stroke="url(#paint21_linear_45_3310)" stroke-width="2"/>
<path opacity="0.333333" d="M594.707 797.727C592.399 807.428 584.333 814.69 574.444 815.972L302.106 851.272C295.601 852.115 289.034 850.259 283.933 846.135L-5.15136 612.441C-9.33139 609.062 -12.256 604.378 -13.4568 599.138L-87.4192 276.423C-89.3651 267.933 -86.558 259.055 -80.0849 253.226L103.461 87.9609C109.934 82.1324 119.057 80.2687 127.298 83.0915L440.514 190.382C445.599 192.123 449.952 195.522 452.875 200.032L655.072 511.96C658.64 517.464 659.799 524.189 658.281 530.571L594.707 797.727Z" stroke="url(#paint22_linear_45_3310)" stroke-width="2"/>
<path opacity="0.347826" d="M628.636 783.69C626.824 793.456 619.183 801.097 609.417 802.909L341.667 852.589C335.205 853.788 328.535 852.285 323.212 848.43L25.6145 632.928C21.2428 629.762 18.0658 625.215 16.5968 620.022L-72.5641 304.801C-74.9302 296.436 -72.5878 287.445 -66.4408 281.298L107.025 107.832C113.172 101.685 122.162 99.3428 130.528 101.709L445.749 190.87C450.942 192.339 455.489 195.516 458.655 199.888L674.157 497.485C678.012 502.808 679.515 509.478 678.316 515.94L628.636 783.69Z" stroke="url(#paint23_linear_45_3310)" stroke-width="2"/>
<path opacity="0.362319" d="M661.323 769.193C660.008 778.999 652.81 786.993 643.196 789.326L380.784 853.002C374.386 854.555 367.63 853.41 362.1 849.837L57.0934 652.77C52.5405 649.828 49.1175 645.432 47.3818 640.297L-56.4011 333.268C-59.1793 325.049 -57.3056 315.971 -51.5004 309.523L111.534 128.456C117.339 122.009 126.172 119.196 134.636 121.1L450.831 192.221C456.119 193.411 460.849 196.355 464.251 200.576L692.121 483.313C696.252 488.439 698.096 495.038 697.221 501.564L661.323 769.193Z" stroke="url(#paint24_linear_45_3310)" stroke-width="2"/>
<path opacity="0.376812" d="M692.755 754.312C691.936 764.131 685.198 772.452 675.763 775.295L419.414 852.544C413.098 854.448 406.277 853.667 400.554 850.387L89.2435 671.932C84.5204 669.224 80.8582 664.992 78.8579 659.929L-38.9396 361.751C-42.1206 353.698 -40.7183 344.557 -35.2698 337.829L117.016 149.771C122.465 143.043 131.115 139.77 139.652 141.208L455.806 194.436C461.174 195.34 466.076 198.043 469.706 202.099L708.986 469.504C713.385 474.42 715.567 480.93 715.018 487.504L692.755 754.312Z" stroke="url(#paint25_linear_45_3310)" stroke-width="2"/>
<path opacity="0.391304" d="M722.926 739.12C722.6 748.928 716.336 757.549 707.109 760.89L457.517 851.251C451.303 853.501 444.435 853.089 438.534 850.111L122.024 690.382C117.142 687.919 113.248 683.862 110.986 678.884L-20.1901 390.174C-23.7639 382.309 -22.8343 373.129 -17.7561 366.14L123.501 171.716C128.579 164.727 137.022 161.006 145.607 161.974L460.722 197.514C466.155 198.127 471.217 200.577 475.068 204.458L724.786 456.119C729.442 460.811 731.956 467.214 731.737 473.82L722.926 739.12Z" stroke="url(#paint26_linear_45_3310)" stroke-width="2"/>
<path opacity="0.405797" d="M751.831 723.692C751.995 733.462 746.219 742.357 737.226 746.181L495.052 849.16C488.958 851.752 482.064 851.71 476.002 849.045L155.389 708.091C150.361 705.881 146.243 702.013 143.723 697.132L-0.170359 418.467C-4.12562 410.807 -3.66886 401.614 1.02639 394.384L131.009 194.229C135.704 186.999 143.916 182.842 152.523 183.34L465.623 201.45C471.106 201.767 476.315 203.955 480.379 207.65L739.552 443.213C744.452 447.668 747.295 453.949 747.406 460.57L751.831 723.692Z" stroke="url(#paint27_linear_45_3310)" stroke-width="2"/>
<path opacity="0.42029" d="M779.472 708.101C780.121 717.81 774.844 726.95 766.112 731.242L531.986 846.31C526.031 849.237 519.13 849.568 512.923 847.224L189.296 725.032C184.134 723.083 179.801 719.415 177.027 714.646L21.1018 446.557C16.777 439.122 16.7624 429.94 21.0633 422.491L139.562 217.246C143.862 209.797 151.821 205.219 160.423 205.246L470.557 206.237C476.075 206.255 481.417 208.173 485.686 211.669L753.321 430.842C758.454 435.046 761.618 441.188 762.061 447.809L779.472 708.101Z" stroke="url(#paint28_linear_45_3310)" stroke-width="2"/>
<path opacity="0.434783" d="M805.853 692.422C806.981 702.044 802.214 711.401 793.766 716.144L568.282 842.742C562.485 845.997 555.597 846.701 549.261 844.687L223.696 741.181C218.414 739.501 213.875 736.045 210.852 731.399L43.5997 474.377C38.9187 467.183 38.4351 458.038 42.3315 450.391L149.172 240.704C153.068 233.057 160.751 228.073 169.322 227.632L475.566 211.868C481.102 211.583 486.566 213.223 491.03 216.509L766.13 419.058C771.484 422.999 774.963 428.986 775.737 435.589L805.853 692.422Z" stroke="url(#paint29_linear_45_3310)" stroke-width="2"/>
<path opacity="0.449275" d="M830.984 676.725C832.583 686.236 828.334 695.782 820.195 700.957L603.91 838.498C598.289 842.072 591.434 843.15 584.987 841.472L258.543 756.515C253.154 755.112 248.419 751.879 245.152 747.369L67.2962 501.857C62.2728 494.923 61.3243 485.838 64.807 478.015L159.852 264.54C163.335 256.717 170.721 251.343 179.236 250.436L480.695 218.33C486.233 217.74 491.804 219.094 496.453 222.161L778.022 407.909C783.583 411.577 787.368 417.392 788.473 423.962L830.984 676.725Z" stroke="url(#paint30_linear_45_3310)" stroke-width="2"/>
<path opacity="0.463768" d="M854.879 661.082C856.941 670.459 853.216 680.163 845.409 685.752L638.843 833.62C633.415 837.506 626.614 838.955 620.073 837.62L293.79 771.017C288.307 769.897 283.388 766.897 279.882 762.535L92.1613 528.934C86.8104 522.275 85.4021 513.274 88.4633 505.299L171.612 288.689C174.674 280.714 181.743 274.967 190.175 273.599L485.989 225.61C491.513 224.714 497.176 225.776 502 228.613L789.041 397.443C794.795 400.827 798.88 406.455 800.314 412.975L854.879 661.082Z" stroke="url(#paint31_linear_45_3310)" stroke-width="2"/>
<path opacity="0.478261" d="M877.552 645.561C880.067 654.781 876.872 664.615 869.418 670.596L673.053 828.155C667.835 832.341 661.107 834.16 654.491 833.173L329.386 784.67C323.824 783.84 318.73 781.083 314.993 776.881L118.157 555.544C112.494 549.177 110.633 540.284 113.266 532.179L184.453 313.088C187.086 304.983 193.82 298.883 202.144 297.06L491.486 233.692C496.979 232.489 502.72 233.253 507.708 235.851L799.233 387.703C805.166 390.794 809.54 396.22 811.3 402.673L877.552 645.561Z" stroke="url(#paint32_linear_45_3310)" stroke-width="2"/>
<path opacity="0.492754" d="M899.029 630.232C901.986 639.272 899.324 649.206 892.243 655.557L706.519 822.146C701.529 826.622 694.894 828.807 688.221 828.172L365.283 797.461C359.657 796.926 354.4 794.422 350.438 790.392L145.249 581.629C139.29 575.567 136.983 566.805 139.183 558.594L198.378 337.674C200.579 329.464 206.958 323.029 215.149 320.758L497.23 242.559C502.676 241.049 508.48 241.51 513.62 243.859L808.649 378.732C814.745 381.518 819.398 386.728 821.481 393.099L899.029 630.232Z" stroke="url(#paint33_linear_45_3310)" stroke-width="2"/>
<path opacity="0.507246" d="M919.331 615.158C922.717 623.998 920.591 634.002 913.902 640.701L739.218 815.641C734.471 820.394 727.95 822.941 721.239 822.662L401.428 809.379C395.753 809.144 390.346 806.903 386.167 803.055L173.392 607.129C167.155 601.386 164.411 592.778 166.174 584.484L213.382 362.385C215.145 354.092 221.153 347.344 229.187 344.634L503.257 252.19C508.639 250.375 514.491 250.527 519.771 252.62L817.335 370.565C823.58 373.04 828.501 378.019 830.904 384.292L919.331 615.158Z" stroke="url(#paint34_linear_45_3310)" stroke-width="2"/>
<path opacity="0.521739" d="M938.488 600.405C942.29 609.023 940.699 619.068 934.42 626.09L771.134 808.686C766.647 813.703 760.259 816.606 753.528 816.686L437.774 820.419C432.066 820.486 426.519 818.516 422.132 814.863L202.543 631.992C196.045 626.58 192.874 618.148 194.197 609.795L229.459 387.16C230.782 378.807 236.403 371.767 244.256 368.629L509.608 262.565C514.909 260.446 520.792 260.286 526.201 262.115L825.347 363.238C831.724 365.394 836.902 370.129 839.619 376.287L938.488 600.405Z" stroke="url(#paint35_linear_45_3310)" stroke-width="2"/>
<path opacity="0.536232" d="M956.532 586.033C960.736 594.409 959.678 604.466 953.825 611.786L802.254 801.328C798.04 806.596 791.804 809.848 785.073 810.288L474.271 830.574C468.544 830.948 462.872 829.257 458.285 825.808L232.656 656.165C225.915 651.097 222.329 642.861 223.21 634.474L246.6 411.937C247.481 403.549 252.701 396.24 260.349 392.684L516.318 273.659C521.522 271.239 527.421 270.764 532.946 272.32L832.738 356.783C839.231 358.612 844.655 363.09 847.68 369.119L956.532 586.033Z" stroke="url(#paint36_linear_45_3310)" stroke-width="2"/>
<path opacity="0.550725" d="M973.497 572.101C978.087 580.217 977.561 590.257 972.148 597.848L832.563 793.615C828.638 799.119 822.574 802.713 815.861 803.513L510.867 839.843C505.137 840.526 499.354 839.121 494.575 835.887L263.68 679.6C256.714 674.886 252.725 666.869 253.165 658.469L264.79 436.658C265.23 428.258 270.035 420.702 277.455 416.742L523.423 285.446C528.513 282.729 534.412 281.937 540.039 283.215L839.564 351.226C846.157 352.723 851.812 356.932 855.14 362.816L973.497 572.101Z" stroke="url(#paint37_linear_45_3310)" stroke-width="2"/>
<path opacity="0.565217" d="M989.422 558.666C994.382 566.503 994.382 576.497 989.422 584.334L862.053 785.595C858.43 791.32 852.556 795.247 845.88 796.406L547.512 848.228C541.796 849.221 535.914 848.109 530.954 845.099L295.562 702.253C288.391 697.902 284.013 690.123 284.013 681.736V461.265C284.013 452.877 288.391 445.098 295.562 440.747L530.954 297.901C535.914 294.891 541.796 293.78 547.512 294.772L845.88 346.594C852.556 347.753 858.43 351.68 862.053 357.406L989.422 558.666Z" stroke="url(#paint38_linear_45_3310)" stroke-width="2"/>
<path opacity="0.57971" d="M1004.35 545.781C1009.66 553.323 1010.18 563.242 1005.68 571.298L890.719 777.315C887.41 783.244 881.744 787.495 875.125 789.012L584.158 855.731C578.471 857.035 572.505 856.223 567.374 853.447L328.249 724.083C320.893 720.103 316.139 712.581 315.702 704.23L304.249 485.701C303.811 477.349 307.753 469.372 314.652 464.645L538.945 310.993C543.758 307.696 549.607 306.265 555.398 306.968L851.746 342.907C858.487 343.724 864.566 347.359 868.477 352.91L1004.35 545.781Z" stroke="url(#paint39_linear_45_3310)" stroke-width="2"/>
<path opacity="0.594203" d="M1018.32 533.497C1023.96 540.727 1025 550.545 1020.97 558.791L918.554 768.823C915.571 774.94 910.132 779.503 903.589 781.376L620.753 862.361C615.113 863.976 609.077 863.469 603.785 860.936L361.683 745.05C354.162 741.45 349.049 734.203 348.177 725.911L325.475 509.912C324.603 501.619 328.098 493.468 334.707 488.383L547.424 324.694C552.073 321.116 557.872 319.365 563.725 319.772L857.218 340.182C864.007 340.654 870.276 343.986 874.466 349.35L1018.32 533.497Z" stroke="url(#paint40_linear_45_3310)" stroke-width="2"/>
<path opacity="0.608696" d="M1031.38 521.862C1037.34 528.765 1038.87 538.454 1035.34 546.862L945.56 760.166C942.914 766.453 937.718 771.317 931.27 773.543L657.252 868.125C651.674 870.05 645.582 869.853 640.14 867.572L395.808 765.121C388.141 761.907 382.685 754.953 381.384 746.743L347.665 533.847C346.364 525.636 349.405 517.337 355.703 511.91L556.418 338.971C560.889 335.12 566.621 333.05 572.521 333.157L862.355 338.434C869.175 338.558 875.62 341.578 880.08 346.74L1031.38 521.862Z" stroke="url(#paint41_linear_45_3310)" stroke-width="2"/>
<path opacity="0.623188" d="M1043.58 510.919C1049.84 517.482 1051.86 527.015 1048.81 535.557L971.738 751.391C969.439 757.83 964.503 762.982 958.169 765.555L693.606 873.036C688.107 875.27 681.976 875.387 676.395 873.365L430.565 784.266C422.773 781.442 416.99 774.798 415.267 766.692L370.792 557.453C369.069 549.347 371.65 540.925 377.619 535.176L565.957 353.792C570.232 349.675 575.881 347.288 581.814 347.092L867.22 337.674C874.053 337.448 880.658 340.147 885.377 345.094L1043.58 510.919Z" stroke="url(#paint42_linear_45_3310)" stroke-width="2"/>
<path opacity="0.637681" d="M1054.97 500.71C1061.5 506.92 1064.01 516.271 1061.45 524.918L997.091 742.544C995.148 749.115 990.488 754.542 984.287 757.458L729.769 877.109C724.365 879.649 718.208 880.084 712.501 878.328L465.89 802.457C457.995 800.028 451.903 793.709 449.765 785.73L394.823 580.684C392.685 572.704 394.801 564.186 400.424 558.135L576.06 369.124C580.125 364.749 585.674 362.048 591.624 361.546L871.869 337.907C878.697 337.332 885.446 339.702 890.414 344.421L1054.97 500.71Z" stroke="url(#paint43_linear_45_3310)" stroke-width="2"/>
<path opacity="0.652174" d="M1065.6 491.273C1072.39 497.118 1075.36 506.263 1073.3 514.986L1021.63 733.671C1020.05 740.355 1015.68 746.042 1009.63 749.293L765.694 880.36C760.402 883.203 754.235 883.959 748.413 882.476L501.723 819.673C493.744 817.641 487.363 811.662 484.819 803.831L419.725 603.493C417.181 595.662 418.828 587.074 424.09 580.741L586.751 384.93C590.59 380.309 596.022 377.296 601.975 376.486L876.362 339.14C883.167 338.213 890.043 340.247 895.25 344.727L1065.6 491.273Z" stroke="url(#paint44_linear_45_3310)" stroke-width="2"/>
<path opacity="0.666667" d="M1075.52 482.641C1082.55 488.111 1085.98 497.026 1084.41 505.795L1045.35 724.815C1044.14 731.592 1040.08 737.525 1034.2 741.103L801.338 882.809C796.174 885.951 790.014 887.029 784.089 885.827L538.002 835.893C529.96 834.261 523.309 828.633 520.369 820.973L445.463 625.837C442.522 618.176 443.699 609.544 448.584 602.95L598.05 401.177C601.648 396.319 606.947 392.998 612.888 391.878L880.758 341.37C887.524 340.094 894.511 341.785 899.944 346.013L1075.52 482.641Z" stroke="url(#paint45_linear_45_3310)" stroke-width="2"/>
<path opacity="0.681159" d="M1084.8 474.845C1092.05 479.932 1095.9 488.593 1094.84 497.38L1068.28 716.02C1067.45 722.871 1063.71 729.031 1058.02 732.93L836.66 884.478C831.64 887.914 825.502 889.317 819.487 888.4L574.663 851.102C566.58 849.87 559.679 844.608 556.353 837.137L471.999 647.675C468.673 640.205 469.379 631.555 473.873 624.724L609.974 417.827C613.318 412.744 618.467 409.121 624.38 407.69L885.118 344.595C891.826 342.972 898.907 344.315 904.555 348.28L1084.8 474.845Z" stroke="url(#paint46_linear_45_3310)" stroke-width="2"/>
<path opacity="0.695652" d="M1093.49 467.913C1100.93 472.608 1105.2 480.994 1104.63 489.77L1090.43 707.329C1089.98 714.231 1086.57 720.604 1081.08 724.813L871.616 885.39C866.756 889.116 860.656 890.843 854.565 890.218L611.644 865.289C603.538 864.458 596.409 859.57 592.709 852.31L499.293 668.97C495.594 661.71 495.83 653.069 499.922 646.023L622.54 434.843C625.615 429.547 630.597 425.627 636.468 423.886L889.499 348.809C896.131 346.841 903.289 347.83 909.139 351.523L1093.49 467.913Z" stroke="url(#paint47_linear_45_3310)" stroke-width="2"/>
<path opacity="0.710145" d="M1101.65 461.867C1109.26 466.163 1113.93 474.254 1113.85 482.99L1111.81 698.781C1111.74 705.715 1108.68 712.282 1103.41 716.79L906.167 885.573C901.483 889.58 895.437 891.632 889.282 891.303L648.877 878.447C640.771 878.014 633.433 873.512 629.374 866.481L527.301 689.685C523.242 682.655 523.012 674.049 526.69 666.812L635.758 452.188C638.551 446.693 643.351 442.482 649.164 440.43L893.957 354C900.496 351.691 907.713 352.324 913.751 355.734L1101.65 461.867Z" stroke="url(#paint48_linear_45_3310)" stroke-width="2"/>
<path opacity="0.724638" d="M1109.33 456.727C1117.09 460.62 1122.14 468.395 1122.54 477.063L1132.44 690.418C1132.76 697.362 1130.06 704.104 1125.03 708.901L940.276 885.054C935.784 889.336 929.808 891.712 923.602 891.683L686.303 890.572C678.216 890.534 670.692 886.426 666.288 879.644L555.983 709.789C551.578 703.007 550.886 694.462 554.14 687.059L649.643 469.824C652.141 464.142 656.742 459.649 662.482 457.288L898.551 360.156C904.979 357.511 912.238 357.783 918.451 360.902L1109.33 456.727Z" stroke="url(#paint49_linear_45_3310)" stroke-width="2"/>
<path opacity="0.73913" d="M1116.6 452.509C1124.48 455.994 1129.89 463.437 1130.77 472.008L1152.35 682.277C1153.06 689.209 1150.72 696.107 1145.94 701.18L973.907 883.863C969.623 888.413 963.733 891.112 957.49 891.386L723.858 901.664C715.811 902.018 708.122 898.311 703.387 891.794L585.294 729.252C580.559 722.735 579.409 714.278 582.233 706.733L664.204 487.712C666.394 481.859 670.781 477.092 676.432 474.423L903.335 367.26C909.636 364.284 916.919 364.194 923.292 367.012L1116.6 452.509Z" stroke="url(#paint50_linear_45_3310)" stroke-width="2"/>
<path opacity="0.753623" d="M1123.51 449.226C1131.5 452.301 1137.24 459.393 1138.59 467.841L1171.54 674.394C1172.64 681.292 1170.68 688.328 1166.17 693.664L1007.02 882.033C1002.96 886.841 997.175 889.86 990.909 890.442L761.477 911.727C753.488 912.468 745.658 909.168 740.608 902.933L615.185 748.048C610.136 741.813 608.537 733.468 610.922 725.808L679.444 505.815C681.316 499.806 685.473 494.773 691.019 491.799L908.361 375.293C914.518 371.992 921.807 371.538 928.326 374.049L1123.51 449.226Z" stroke="url(#paint51_linear_45_3310)" stroke-width="2"/>
<path opacity="0.768116" d="M1130.13 446.885C1138.2 449.548 1144.25 456.274 1146.06 464.573L1190.06 666.804C1191.54 673.647 1189.97 680.799 1185.75 686.384L1039.6 879.598C1035.77 884.653 1030.11 887.991 1023.83 888.881L799.101 920.768C791.19 921.891 783.24 919.003 777.894 913.066L645.613 766.153C640.267 760.216 638.226 752.007 640.169 744.257L695.372 524.093C696.914 517.944 700.826 512.655 706.253 509.381L913.685 384.231C919.681 380.613 926.958 379.795 933.608 381.991L1130.13 446.885Z" stroke="url(#paint52_linear_45_3310)" stroke-width="2"/>
<path opacity="0.782609" d="M1136.52 445.492C1144.64 447.743 1150.98 454.09 1153.23 462.212L1207.91 659.54C1209.79 666.306 1208.61 673.554 1204.68 679.374L1071.6 876.592C1068.02 881.885 1062.49 885.537 1056.22 886.739L836.666 928.8C828.853 930.297 820.806 927.824 815.18 922.199L676.528 783.547C670.903 777.922 668.431 769.874 669.927 762.061L711.989 542.509C713.19 536.237 716.842 530.703 722.135 527.131L919.354 394.049C925.173 390.122 932.421 388.94 939.187 390.815L1136.52 445.492Z" stroke="url(#paint53_linear_45_3310)" stroke-width="2"/>
<path opacity="0.797101" d="M1142.72 445.048C1150.88 446.888 1157.49 452.842 1160.18 460.764L1225.14 652.634C1227.4 659.301 1226.61 666.623 1223 672.661L1102.99 873.053C1099.69 878.573 1094.3 882.534 1088.05 884.048L874.116 935.836C866.418 937.699 858.296 935.645 852.41 930.345L707.883 800.212C701.997 794.913 699.105 787.05 700.154 779.199L729.295 561.024C730.147 554.647 733.524 548.878 738.669 545.013L925.418 404.719C931.046 400.491 938.246 398.947 945.112 400.495L1142.72 445.048Z" stroke="url(#paint54_linear_45_3310)" stroke-width="2"/>
<path opacity="0.811594" d="M1148.81 445.551C1156.98 446.981 1163.84 452.532 1166.94 460.229L1241.77 646.114C1244.4 652.66 1244.02 660.034 1240.73 666.276L1133.76 869.018C1130.74 874.753 1125.52 879.019 1119.3 880.846L911.391 941.895C903.826 944.116 895.653 942.48 889.525 937.519L739.629 816.135C733.502 811.173 730.202 803.519 730.802 795.657L747.291 579.601C747.784 573.136 750.873 567.145 755.853 562.993L931.925 416.21C937.345 411.691 944.48 409.787 951.431 411.004L1148.81 445.551Z" stroke="url(#paint55_linear_45_3310)" stroke-width="2"/>
<path opacity="0.826087" d="M1154.84 446.994C1163.01 448.019 1170.08 453.156 1173.58 460.606L1257.82 640.007C1260.83 646.411 1260.86 653.816 1257.9 660.243L1163.88 864.527C1161.15 870.464 1156.11 875.03 1149.94 877.17L948.433 946.998C941.018 949.568 932.816 948.35 926.467 943.738L771.715 831.304C765.367 826.691 761.674 819.267 761.826 811.421L765.97 598.202C766.096 591.668 768.883 585.468 773.685 581.034L938.916 428.488C944.115 423.688 951.166 421.427 958.186 422.308L1154.84 446.994Z" stroke="url(#paint56_linear_45_3310)" stroke-width="2"/>
<path opacity="0.84058" d="M1160.87 449.368C1169.01 449.993 1176.27 454.709 1180.15 461.888L1273.34 634.339C1276.71 640.58 1277.15 647.992 1274.54 654.587L1193.33 859.621C1190.9 865.746 1186.06 870.605 1179.95 873.057L985.19 951.171C977.942 954.078 969.733 953.277 963.184 949.024L804.095 845.711C797.546 841.457 793.475 834.284 793.183 826.481L785.329 616.79C785.082 610.206 787.553 603.81 792.162 599.102L946.438 441.517C951.4 436.448 958.35 433.834 965.423 434.376L1160.87 449.368Z" stroke="url(#paint57_linear_45_3310)" stroke-width="2"/>
<path opacity="0.855072" d="M1166.95 452.661C1175.04 452.89 1182.46 457.179 1186.71 464.068L1288.35 629.133C1292.07 635.189 1292.93 642.587 1290.67 649.331L1222.08 854.34C1219.97 860.64 1215.35 865.784 1209.31 868.549L1021.61 954.442C1014.54 957.675 1006.35 957.287 999.62 953.403L836.717 859.351C829.988 855.466 825.557 848.564 824.824 840.829L805.359 635.329C804.733 628.716 806.876 622.138 811.278 617.163L954.526 455.259C959.238 449.932 966.071 446.97 973.18 447.172L1166.95 452.661Z" stroke="url(#paint58_linear_45_3310)" stroke-width="2"/>
<path opacity="0.869565" d="M1173.14 456.857C1181.16 456.698 1188.72 460.553 1193.31 467.133L1302.88 624.409C1306.95 630.259 1308.22 637.62 1306.33 644.495L1250.13 848.726C1248.35 855.186 1243.96 860.608 1238 863.683L1057.63 956.84C1050.77 960.386 1042.61 960.409 1035.72 956.9L869.535 872.222C862.648 868.713 857.873 862.102 856.705 854.462L826.052 653.784C825.041 647.161 826.844 640.417 831.025 635.182L963.22 469.674C967.67 464.102 974.367 460.798 981.496 460.656L1173.14 456.857Z" stroke="url(#paint59_linear_45_3310)" stroke-width="2"/>
<path opacity="0.884058" d="M1179.49 461.935C1187.42 461.397 1195.1 464.816 1200 471.068L1316.97 620.186C1321.38 625.811 1323.06 633.111 1321.54 640.098L1277.46 842.823C1276.02 849.427 1271.87 855.119 1266.02 858.502L1093.22 958.4C1086.57 962.247 1078.47 962.674 1071.45 959.547L902.498 884.326C895.475 881.199 890.375 874.897 888.781 867.377L847.397 672.119C845.995 665.508 847.446 658.613 851.393 653.127L972.553 484.719C976.728 478.916 983.274 475.276 990.407 474.791L1179.49 461.935Z" stroke="url(#paint60_linear_45_3310)" stroke-width="2"/>
<path opacity="0.898551" d="M1186.05 467.875C1193.87 466.966 1201.64 469.947 1206.84 475.855L1330.66 616.481C1335.39 621.861 1337.48 629.077 1336.34 636.155L1304.06 836.674C1302.97 843.405 1299.08 849.358 1293.34 853.046L1128.33 959.158C1121.9 963.292 1113.88 964.117 1106.75 961.377L935.561 895.666C928.425 892.926 923.02 886.95 921.008 879.575L869.38 690.302C867.585 683.724 868.674 676.693 872.373 670.965L982.558 500.352C986.447 494.33 992.824 490.362 999.945 489.533L1186.05 467.875Z" stroke="url(#paint61_linear_45_3310)" stroke-width="2"/>
<path opacity="0.913043" d="M1192.88 474.651C1200.57 473.381 1208.4 475.924 1213.87 481.473L1343.97 613.307C1349.02 618.424 1351.51 625.533 1350.75 632.681L1329.92 830.321C1329.2 837.164 1325.57 843.368 1319.97 847.358L1162.9 959.153C1156.71 963.56 1148.8 964.774 1141.57 962.425L968.676 906.248C961.447 903.9 955.759 898.266 953.34 891.061L891.985 708.298C889.795 701.775 890.51 694.626 893.949 688.667L993.262 516.525C996.854 510.299 1003.05 506.011 1010.14 504.84L1192.88 474.651Z" stroke="url(#paint62_linear_45_3310)" stroke-width="2"/>
<path opacity="0.927536" d="M1200.01 482.235C1207.56 480.615 1215.42 482.722 1221.15 487.898L1356.95 610.678C1362.29 615.511 1365.18 622.491 1364.82 629.689L1355.03 823.809C1354.68 830.746 1351.34 837.19 1345.88 841.479L1196.91 958.425C1190.97 963.09 1183.18 964.685 1175.88 962.73L1001.8 916.084C994.5 914.129 988.549 908.852 985.736 901.841L915.198 726.077C912.612 719.632 912.944 712.382 916.109 706.2L1004.69 533.194C1007.98 526.779 1013.97 522.179 1021.02 520.667L1200.01 482.235Z" stroke="url(#paint63_linear_45_3310)" stroke-width="2"/>
<path opacity="0.942029" d="M1207.5 490.597C1214.88 488.639 1222.76 490.313 1228.71 495.104L1369.62 608.603C1375.25 613.135 1378.54 619.963 1378.57 627.189L1379.4 817.182C1379.43 824.194 1376.39 830.868 1371.08 835.451L1230.32 957.019C1224.64 961.926 1216.98 963.892 1209.64 962.331L1034.88 925.185C1027.54 923.624 1021.35 918.716 1018.15 911.922L939.001 743.609C936.017 737.264 935.958 729.931 938.838 723.538L1016.87 550.308C1019.84 543.72 1025.62 538.819 1032.61 536.967L1207.5 490.597Z" stroke="url(#paint64_linear_45_3310)" stroke-width="2"/>
<path opacity="0.956522" d="M1215.39 499.703C1222.59 497.421 1230.45 498.666 1236.6 503.062L1382.03 607.088C1387.93 611.304 1391.6 617.956 1392.03 625.188L1403.01 810.483C1403.43 817.551 1400.71 824.444 1395.57 829.317L1263.08 954.979C1257.67 960.112 1250.18 962.437 1242.81 961.27L1067.88 933.565C1060.52 932.398 1054.11 927.872 1050.55 921.318L963.374 760.863C959.993 754.641 959.533 747.244 962.116 740.651L1029.82 567.821C1032.47 561.074 1038.02 555.883 1044.92 553.695L1215.39 499.703Z" stroke="url(#paint65_linear_45_3310)" stroke-width="2"/>
</g>
<defs>
<linearGradient id="paint0_linear_45_3310" x1="-406.189" y1="861.024" x2="71.9253" y2="-212.838" gradientUnits="userSpaceOnUse">
<stop stop-color="#D245CE"/>
<stop offset="1" stop-color="#BAC9FF"/>
</linearGradient>
<linearGradient id="paint1_linear_45_3310" x1="-355.996" y1="873.706" x2="61.5428" y2="-214.021" gradientUnits="userSpaceOnUse">
<stop stop-color="#D245CE"/>
<stop offset="1" stop-color="#BAC9FF"/>
</linearGradient>
<linearGradient id="paint2_linear_45_3310" x1="-305.741" y1="884.763" x2="51.0926" y2="-213.458" gradientUnits="userSpaceOnUse">
<stop stop-color="#D245CE"/>
<stop offset="1" stop-color="#BAC9FF"/>
</linearGradient>
<linearGradient id="paint3_linear_45_3310" x1="-255.511" y1="894.208" x2="40.6715" y2="-211.161" gradientUnits="userSpaceOnUse">
<stop stop-color="#D245CE"/>
<stop offset="1" stop-color="#BAC9FF"/>
</linearGradient>
<linearGradient id="paint4_linear_45_3310" x1="-205.396" y1="902.058" x2="30.3733" y2="-207.149" gradientUnits="userSpaceOnUse">
<stop stop-color="#D245CE"/>
<stop offset="1" stop-color="#BAC9FF"/>
</linearGradient>
<linearGradient id="paint5_linear_45_3310" x1="-155.482" y1="908.333" x2="20.2898" y2="-201.446" gradientUnits="userSpaceOnUse">
<stop stop-color="#D245CE"/>
<stop offset="1" stop-color="#BAC9FF"/>
</linearGradient>
<linearGradient id="paint6_linear_45_3310" x1="-105.852" y1="913.061" x2="10.5131" y2="-194.078" gradientUnits="userSpaceOnUse">
<stop stop-color="#D245CE"/>
<stop offset="1" stop-color="#BAC9FF"/>
</linearGradient>
<linearGradient id="paint7_linear_45_3310" x1="-56.5888" y1="916.272" x2="1.13053" y2="-185.079" gradientUnits="userSpaceOnUse">
<stop stop-color="#D245CE"/>
<stop offset="1" stop-color="#BAC9FF"/>
</linearGradient>
<linearGradient id="paint8_linear_45_3310" x1="-7.77246" y1="918" x2="-7.7725" y2="-174.487" gradientUnits="userSpaceOnUse">
<stop stop-color="#D245CE"/>
<stop offset="1" stop-color="#BAC9FF"/>
</linearGradient>
<linearGradient id="paint9_linear_45_3310" x1="40.521" y1="918.285" x2="-16.1125" y2="-162.344" gradientUnits="userSpaceOnUse">
<stop stop-color="#D245CE"/>
<stop offset="1" stop-color="#BAC9FF"/>
</linearGradient>
<linearGradient id="paint10_linear_45_3310" x1="88.2161" y1="917.171" x2="-23.811" y2="-148.696" gradientUnits="userSpaceOnUse">
<stop stop-color="#D245CE"/>
<stop offset="1" stop-color="#BAC9FF"/>
</linearGradient>
<linearGradient id="paint11_linear_45_3310" x1="135.244" y1="914.703" x2="-30.7898" y2="-133.593" gradientUnits="userSpaceOnUse">
<stop stop-color="#D245CE"/>
<stop offset="1" stop-color="#BAC9FF"/>
</linearGradient>
<linearGradient id="paint12_linear_45_3310" x1="181.535" y1="910.932" x2="-36.9779" y2="-117.089" gradientUnits="userSpaceOnUse">
<stop stop-color="#D245CE"/>
<stop offset="1" stop-color="#BAC9FF"/>
</linearGradient>
<linearGradient id="paint13_linear_45_3310" x1="227.026" y1="905.912" x2="-42.3049" y2="-99.2425" gradientUnits="userSpaceOnUse">
<stop stop-color="#D245CE"/>
<stop offset="1" stop-color="#BAC9FF"/>
</linearGradient>
<linearGradient id="paint14_linear_45_3310" x1="271.655" y1="899.7" x2="-46.7061" y2="-80.1143" gradientUnits="userSpaceOnUse">
<stop stop-color="#D245CE"/>
<stop offset="1" stop-color="#BAC9FF"/>
</linearGradient>
<linearGradient id="paint15_linear_45_3310" x1="315.366" y1="892.355" x2="-50.1203" y2="-59.7687" gradientUnits="userSpaceOnUse">
<stop stop-color="#D245CE"/>
<stop offset="1" stop-color="#BAC9FF"/>
</linearGradient>
<linearGradient id="paint16_linear_45_3310" x1="358.104" y1="883.94" x2="-52.4911" y2="-38.2726" gradientUnits="userSpaceOnUse">
<stop stop-color="#D245CE"/>
<stop offset="1" stop-color="#BAC9FF"/>
</linearGradient>
<linearGradient id="paint17_linear_45_3310" x1="399.824" y1="874.52" x2="-53.7637" y2="-15.6958" gradientUnits="userSpaceOnUse">
<stop stop-color="#D245CE"/>
<stop offset="1" stop-color="#BAC9FF"/>
</linearGradient>
<linearGradient id="paint18_linear_45_3310" x1="440.477" y1="864.161" x2="-53.8917" y2="7.88951" gradientUnits="userSpaceOnUse">
<stop stop-color="#D245CE"/>
<stop offset="1" stop-color="#BAC9FF"/>
</linearGradient>
<linearGradient id="paint19_linear_45_3310" x1="480.025" y1="852.933" x2="-52.8292" y2="32.4095" gradientUnits="userSpaceOnUse">
<stop stop-color="#D245CE"/>
<stop offset="1" stop-color="#BAC9FF"/>
</linearGradient>
<linearGradient id="paint20_linear_45_3310" x1="518.429" y1="840.907" x2="-50.5398" y2="57.7883" gradientUnits="userSpaceOnUse">
<stop stop-color="#D245CE"/>
<stop offset="1" stop-color="#BAC9FF"/>
</linearGradient>
<linearGradient id="paint21_linear_45_3310" x1="555.659" y1="828.153" x2="-46.986" y2="83.9484" gradientUnits="userSpaceOnUse">
<stop stop-color="#D245CE"/>
<stop offset="1" stop-color="#BAC9FF"/>
</linearGradient>
<linearGradient id="paint22_linear_45_3310" x1="591.685" y1="814.746" x2="-42.1403" y2="110.811" gradientUnits="userSpaceOnUse">
<stop stop-color="#D245CE"/>
<stop offset="1" stop-color="#BAC9FF"/>
</linearGradient>
<linearGradient id="paint23_linear_45_3310" x1="626.486" y1="800.759" x2="-35.976" y2="138.297" gradientUnits="userSpaceOnUse">
<stop stop-color="#D245CE"/>
<stop offset="1" stop-color="#BAC9FF"/>
</linearGradient>
<linearGradient id="paint24_linear_45_3310" x1="660.042" y1="786.267" x2="-28.4726" y2="166.326" gradientUnits="userSpaceOnUse">
<stop stop-color="#D245CE"/>
<stop offset="1" stop-color="#BAC9FF"/>
</linearGradient>
<linearGradient id="paint25_linear_45_3310" x1="692.337" y1="771.345" x2="-19.6158" y2="194.817" gradientUnits="userSpaceOnUse">
<stop stop-color="#D245CE"/>
<stop offset="1" stop-color="#BAC9FF"/>
</linearGradient>
<linearGradient id="paint26_linear_45_3310" x1="723.364" y1="756.068" x2="-9.39326" y2="223.689" gradientUnits="userSpaceOnUse">
<stop stop-color="#D245CE"/>
<stop offset="1" stop-color="#BAC9FF"/>
</linearGradient>
<linearGradient id="paint27_linear_45_3310" x1="753.114" y1="740.512" x2="2.19946" y2="252.863" gradientUnits="userSpaceOnUse">
<stop stop-color="#D245CE"/>
<stop offset="1" stop-color="#BAC9FF"/>
</linearGradient>
<linearGradient id="paint28_linear_45_3310" x1="781.588" y1="724.75" x2="15.1663" y2="282.256" gradientUnits="userSpaceOnUse">
<stop stop-color="#D245CE"/>
<stop offset="1" stop-color="#BAC9FF"/>
</linearGradient>
<linearGradient id="paint29_linear_45_3310" x1="808.787" y1="708.857" x2="29.5018" y2="311.791" gradientUnits="userSpaceOnUse">
<stop stop-color="#D245CE"/>
<stop offset="1" stop-color="#BAC9FF"/>
</linearGradient>
<linearGradient id="paint30_linear_45_3310" x1="834.719" y1="692.906" x2="45.1988" y2="341.389" gradientUnits="userSpaceOnUse">
<stop stop-color="#D245CE"/>
<stop offset="1" stop-color="#BAC9FF"/>
</linearGradient>
<linearGradient id="paint31_linear_45_3310" x1="859.396" y1="676.969" x2="62.247" y2="370.972" gradientUnits="userSpaceOnUse">
<stop stop-color="#D245CE"/>
<stop offset="1" stop-color="#BAC9FF"/>
</linearGradient>
<linearGradient id="paint32_linear_45_3310" x1="882.832" y1="661.116" x2="80.6274" y2="400.464" gradientUnits="userSpaceOnUse">
<stop stop-color="#D245CE"/>
<stop offset="1" stop-color="#BAC9FF"/>
</linearGradient>
<linearGradient id="paint33_linear_45_3310" x1="905.047" y1="645.416" x2="100.322" y2="429.791" gradientUnits="userSpaceOnUse">
<stop stop-color="#D245CE"/>
<stop offset="1" stop-color="#BAC9FF"/>
</linearGradient>
<linearGradient id="paint34_linear_45_3310" x1="926.063" y1="629.937" x2="121.304" y2="458.88" gradientUnits="userSpaceOnUse">
<stop stop-color="#D245CE"/>
<stop offset="1" stop-color="#BAC9FF"/>
</linearGradient>
<linearGradient id="paint35_linear_45_3310" x1="945.907" y1="614.744" x2="143.546" y2="487.663" gradientUnits="userSpaceOnUse">
<stop stop-color="#D245CE"/>
<stop offset="1" stop-color="#BAC9FF"/>
</linearGradient>
<linearGradient id="paint36_linear_45_3310" x1="964.61" y1="599.9" x2="167.016" y2="516.07" gradientUnits="userSpaceOnUse">
<stop stop-color="#D245CE"/>
<stop offset="1" stop-color="#BAC9FF"/>
</linearGradient>
<linearGradient id="paint37_linear_45_3310" x1="982.205" y1="585.466" x2="191.677" y2="544.037" gradientUnits="userSpaceOnUse">
<stop stop-color="#D245CE"/>
<stop offset="1" stop-color="#BAC9FF"/>
</linearGradient>
<linearGradient id="paint38_linear_45_3310" x1="998.728" y1="571.5" x2="217.49" y2="571.5" gradientUnits="userSpaceOnUse">
<stop stop-color="#D245CE"/>
<stop offset="1" stop-color="#BAC9FF"/>
</linearGradient>
<linearGradient id="paint39_linear_45_3310" x1="1014.22" y1="558.057" x2="244.413" y2="598.401" gradientUnits="userSpaceOnUse">
<stop stop-color="#D245CE"/>
<stop offset="1" stop-color="#BAC9FF"/>
</linearGradient>
<linearGradient id="paint40_linear_45_3310" x1="1028.72" y1="545.19" x2="272.398" y2="624.683" gradientUnits="userSpaceOnUse">
<stop stop-color="#D245CE"/>
<stop offset="1" stop-color="#BAC9FF"/>
</linearGradient>
<linearGradient id="paint41_linear_45_3310" x1="1042.28" y1="532.949" x2="301.399" y2="650.293" gradientUnits="userSpaceOnUse">
<stop stop-color="#D245CE"/>
<stop offset="1" stop-color="#BAC9FF"/>
</linearGradient>
<linearGradient id="paint42_linear_45_3310" x1="1054.94" y1="521.38" x2="331.365" y2="675.18" gradientUnits="userSpaceOnUse">
<stop stop-color="#D245CE"/>
<stop offset="1" stop-color="#BAC9FF"/>
</linearGradient>
<linearGradient id="paint43_linear_45_3310" x1="1066.75" y1="510.525" x2="362.241" y2="699.298" gradientUnits="userSpaceOnUse">
<stop stop-color="#D245CE"/>
<stop offset="1" stop-color="#BAC9FF"/>
</linearGradient>
<linearGradient id="paint44_linear_45_3310" x1="1077.77" y1="500.426" x2="393.971" y2="722.605" gradientUnits="userSpaceOnUse">
<stop stop-color="#D245CE"/>
<stop offset="1" stop-color="#BAC9FF"/>
</linearGradient>
<linearGradient id="paint45_linear_45_3310" x1="1088.04" y1="491.117" x2="426.498" y2="745.062" gradientUnits="userSpaceOnUse">
<stop stop-color="#D245CE"/>
<stop offset="1" stop-color="#BAC9FF"/>
</linearGradient>
<linearGradient id="paint46_linear_45_3310" x1="1097.64" y1="482.633" x2="459.764" y2="766.632" gradientUnits="userSpaceOnUse">
<stop stop-color="#D245CE"/>
<stop offset="1" stop-color="#BAC9FF"/>
</linearGradient>
<linearGradient id="paint47_linear_45_3310" x1="1106.6" y1="475.002" x2="493.707" y2="787.285" gradientUnits="userSpaceOnUse">
<stop stop-color="#D245CE"/>
<stop offset="1" stop-color="#BAC9FF"/>
</linearGradient>
<linearGradient id="paint48_linear_45_3310" x1="1114.98" y1="468.25" x2="528.263" y2="806.994" gradientUnits="userSpaceOnUse">
<stop stop-color="#D245CE"/>
<stop offset="1" stop-color="#BAC9FF"/>
</linearGradient>
<linearGradient id="paint49_linear_45_3310" x1="1122.86" y1="462.399" x2="563.372" y2="825.734" gradientUnits="userSpaceOnUse">
<stop stop-color="#D245CE"/>
<stop offset="1" stop-color="#BAC9FF"/>
</linearGradient>
<linearGradient id="paint50_linear_45_3310" x1="1130.28" y1="457.466" x2="598.97" y2="843.487" gradientUnits="userSpaceOnUse">
<stop stop-color="#D245CE"/>
<stop offset="1" stop-color="#BAC9FF"/>
</linearGradient>
<linearGradient id="paint51_linear_45_3310" x1="1137.31" y1="453.467" x2="634.99" y2="860.236" gradientUnits="userSpaceOnUse">
<stop stop-color="#D245CE"/>
<stop offset="1" stop-color="#BAC9FF"/>
</linearGradient>
<linearGradient id="paint52_linear_45_3310" x1="1144" y1="450.412" x2="671.371" y2="875.97" gradientUnits="userSpaceOnUse">
<stop stop-color="#D245CE"/>
<stop offset="1" stop-color="#BAC9FF"/>
</linearGradient>
<linearGradient id="paint53_linear_45_3310" x1="1150.42" y1="448.307" x2="708.045" y2="890.682" gradientUnits="userSpaceOnUse">
<stop stop-color="#D245CE"/>
<stop offset="1" stop-color="#BAC9FF"/>
</linearGradient>
<linearGradient id="paint54_linear_45_3310" x1="1156.62" y1="447.158" x2="744.95" y2="904.368" gradientUnits="userSpaceOnUse">
<stop stop-color="#D245CE"/>
<stop offset="1" stop-color="#BAC9FF"/>
</linearGradient>
<linearGradient id="paint55_linear_45_3310" x1="1162.67" y1="446.962" x2="782.022" y2="917.029" gradientUnits="userSpaceOnUse">
<stop stop-color="#D245CE"/>
<stop offset="1" stop-color="#BAC9FF"/>
</linearGradient>
<linearGradient id="paint56_linear_45_3310" x1="1168.63" y1="447.717" x2="819.197" y2="928.667" gradientUnits="userSpaceOnUse">
<stop stop-color="#D245CE"/>
<stop offset="1" stop-color="#BAC9FF"/>
</linearGradient>
<linearGradient id="paint57_linear_45_3310" x1="1174.54" y1="449.414" x2="856.413" y2="939.292" gradientUnits="userSpaceOnUse">
<stop stop-color="#D245CE"/>
<stop offset="1" stop-color="#BAC9FF"/>
</linearGradient>
<linearGradient id="paint58_linear_45_3310" x1="1180.48" y1="452.044" x2="893.608" y2="948.915" gradientUnits="userSpaceOnUse">
<stop stop-color="#D245CE"/>
<stop offset="1" stop-color="#BAC9FF"/>
</linearGradient>
<linearGradient id="paint59_linear_45_3310" x1="1186.49" y1="455.592" x2="930.725" y2="957.552" gradientUnits="userSpaceOnUse">
<stop stop-color="#D245CE"/>
<stop offset="1" stop-color="#BAC9FF"/>
</linearGradient>
<linearGradient id="paint60_linear_45_3310" x1="1192.62" y1="460.04" x2="967.702" y2="965.22" gradientUnits="userSpaceOnUse">
<stop stop-color="#D245CE"/>
<stop offset="1" stop-color="#BAC9FF"/>
</linearGradient>
<linearGradient id="paint61_linear_45_3310" x1="1198.94" y1="465.369" x2="1004.49" y2="971.941" gradientUnits="userSpaceOnUse">
<stop stop-color="#D245CE"/>
<stop offset="1" stop-color="#BAC9FF"/>
</linearGradient>
<linearGradient id="paint62_linear_45_3310" x1="1205.49" y1="471.554" x2="1041.02" y2="977.742" gradientUnits="userSpaceOnUse">
<stop stop-color="#D245CE"/>
<stop offset="1" stop-color="#BAC9FF"/>
</linearGradient>
<linearGradient id="paint63_linear_45_3310" x1="1212.32" y1="478.57" x2="1077.25" y2="982.65" gradientUnits="userSpaceOnUse">
<stop stop-color="#D245CE"/>
<stop offset="1" stop-color="#BAC9FF"/>
</linearGradient>
<linearGradient id="paint64_linear_45_3310" x1="1219.48" y1="486.387" x2="1113.13" y2="986.697" gradientUnits="userSpaceOnUse">
<stop stop-color="#D245CE"/>
<stop offset="1" stop-color="#BAC9FF"/>
</linearGradient>
<linearGradient id="paint65_linear_45_3310" x1="1227.01" y1="494.973" x2="1148.62" y2="989.916" gradientUnits="userSpaceOnUse">
<stop stop-color="#D245CE"/>
<stop offset="1" stop-color="#BAC9FF"/>
</linearGradient>
</defs>
</svg>
