<svg width="40" height="40" viewBox="0 0 40 40" fill="none" xmlns="http://www.w3.org/2000/svg">
<rect width="40" height="40" rx="20" fill="white"/>
<path d="M19.2449 13.6556L20 14.5254L20.7551 13.6556C21.0315 13.3373 21.3563 13.0562 21.7185 12.82C22.5211 12.2965 23.496 12 24.5 12C27.046 12 29 13.9442 29 16.3951C29 17.3052 28.784 18.1846 28.3948 19.0463L28.3946 19.0466C27.1522 21.7994 24.2569 24.1897 21.5222 26.4215L21.5122 26.4297C20.9937 26.8529 20.4823 27.2703 20 27.6784C19.5177 27.2703 19.0063 26.8529 18.4878 26.4297L18.4778 26.4215C15.7431 24.1897 12.8477 21.7993 11.6053 19.0465L11.6052 19.0462C11.216 18.1845 11 17.3051 11 16.3951C11 13.9442 12.954 12 15.5 12C16.504 12 17.4789 12.2965 18.2815 12.82C18.6437 13.0562 18.9685 13.3373 19.2449 13.6556Z" stroke="#CAC3F8" stroke-width="2" stroke-linecap="round"/>
</svg>
