<svg width="24" height="24" viewBox="0 0 24 24" fill="none" xmlns="http://www.w3.org/2000/svg">
<path d="M5.99997 18.7941C5.85984 18.7132 5.68316 18.5042 5.58523 17.9723C5.48946 17.4522 5.50422 16.7915 5.58862 16.0966C5.67162 15.4132 5.81445 14.7546 5.93862 14.2618C6.00032 14.017 6.05651 13.8167 6.09679 13.6791C6.10923 13.6366 6.12012 13.6002 6.12916 13.5704L11.5849 4.12074C12.2753 2.92501 13.8042 2.51532 15 3.20567C16.1957 3.89603 16.6054 5.425 15.915 6.62074L10.4593 16.0704C10.438 16.0931 10.4119 16.1208 10.3813 16.1528C10.2823 16.2564 10.1369 16.4053 9.95576 16.5811C9.59112 16.935 9.09213 17.388 8.54177 17.8016C7.98219 18.2221 7.41742 18.5653 6.91905 18.7424C6.4095 18.9235 6.14011 18.875 5.99997 18.7941Z" stroke="#966CEE" stroke-width="2"/>
<path d="M12.5 19L19.5 19" stroke="#966CEE" stroke-width="2" stroke-linecap="round"/>
</svg>
