<svg width="24" height="24" viewBox="0 0 24 24" fill="none" xmlns="http://www.w3.org/2000/svg">
<path d="M4 21L21 4" stroke="#D0C2DE" stroke-width="2" stroke-linecap="round"/>
<path fill-rule="evenodd" clip-rule="evenodd" d="M18.1174 7.46842C16.4846 6.12246 14.4026 5 12 5C6 5 2 12 2 12C2 12 4.19002 15.8325 7.75983 17.826L9.24379 16.342C8.11188 15.8071 7.0726 14.9942 6.16421 14.0858C5.41612 13.3377 4.81645 12.5832 4.39556 12C4.81645 11.4168 5.41612 10.6623 6.16421 9.91421C7.77065 8.30777 9.78648 7 12 7C13.7172 7 15.3154 7.78704 16.6958 8.89L18.1174 7.46842ZM11.4418 16.9725C11.6263 16.9906 11.8125 17 12 17C14.2135 17 16.2293 15.6922 17.8358 14.0858C18.5839 13.3377 19.1835 12.5832 19.6044 12C19.2468 11.5045 18.7601 10.8852 18.1629 10.2513L19.5777 8.83654C21.1243 10.4675 22 12 22 12C22 12 18 19 12 19C11.2122 19 10.4589 18.8793 9.74456 18.6697L11.4418 16.9725ZM14.761 10.8247C14.3038 9.752 13.2397 9 12 9C10.3431 9 9 10.3431 9 12C9 13.2397 9.752 14.3038 10.8247 14.761L14.761 10.8247ZM13 12C13 12.5523 12.5523 13 12 13C11.4477 13 11 12.5523 11 12C11 11.4477 11.4477 11 12 11C12.5523 11 13 11.4477 13 12Z" fill="#D0C2DE"/>
</svg>
