<svg width="32" height="32" viewBox="0 0 32 32" fill="none" xmlns="http://www.w3.org/2000/svg">
<path fill-rule="evenodd" clip-rule="evenodd" d="M15.9702 24.4139H17.6042C17.8832 24.3839 18.1452 24.2679 18.3562 24.0819C18.5092 23.8589 18.5872 23.5929 18.5802 23.3219C18.5802 23.3219 18.5532 21.0059 19.5682 20.6599C20.5832 20.3139 21.8742 22.8969 23.2452 23.8949C23.7562 24.3239 24.4152 24.5299 25.0772 24.4679L28.7402 24.4139C28.7402 24.4139 30.6652 24.2939 29.7552 22.7099C29.0397 21.4587 28.1173 20.3378 27.0272 19.3949C24.7212 17.1589 25.0372 17.5179 27.8052 13.6449C29.4922 11.2879 30.1642 9.83688 29.9532 9.22488C29.7702 9.03672 29.542 8.89865 29.2904 8.82389C29.0388 8.74913 28.7722 8.74017 28.5162 8.79788L24.3792 8.82488C24.1981 8.79654 24.0127 8.82926 23.8522 8.91788C23.6922 9.03788 23.5642 9.19788 23.4832 9.38388C23.0595 10.5478 22.5484 11.6781 21.9542 12.7649C20.1232 16.0399 19.3842 16.2139 19.0812 16.0139C18.3832 15.5339 18.5542 14.1099 18.5542 13.0849C18.5542 9.91588 19.0162 8.58488 17.6712 8.23888C17.0374 8.08567 16.3859 8.01841 15.7342 8.03888C14.5787 7.9312 13.4134 8.05807 12.3082 8.41188C11.8332 8.65188 11.4782 9.18388 11.7012 9.22388C12.1712 9.27188 12.6062 9.50088 12.9142 9.86388C13.1992 10.4739 13.3392 11.1439 13.3232 11.8199C13.3232 11.8199 13.5732 15.5609 12.7562 16.0269C12.2022 16.3469 11.4382 15.6939 9.7912 12.7249C9.23786 11.6867 8.74926 10.6154 8.3282 9.51688C8.25124 9.33322 8.13402 9.16918 7.9852 9.03688C7.79785 8.90021 7.58103 8.80944 7.3522 8.77188L3.4242 8.79788C3.1321 8.79674 2.8484 8.89554 2.6202 9.07788C2.56637 9.19173 2.5363 9.31535 2.53183 9.4412C2.52736 9.56706 2.54858 9.6925 2.5942 9.80988C2.5942 9.80988 5.6782 17.3579 9.1572 21.1659C9.9969 22.1602 11.0388 22.9641 12.2136 23.5242C13.3884 24.0843 14.669 24.3876 15.9702 24.4139Z" fill="#CAB1FF"/>
</svg>
