<svg width="14" height="15" viewBox="0 0 14 15" fill="none" xmlns="http://www.w3.org/2000/svg">
<path fill-rule="evenodd" clip-rule="evenodd" d="M3.98433 1.43141C5.104 0.684971 6.56267 0.684972 7.68233 1.43141L8.70313 2.11195C9.00948 2.31618 9.09227 2.7301 8.88803 3.03645C8.6838 3.3428 8.26989 3.42558 7.96353 3.22135L6.94273 2.54082C6.27093 2.09295 5.39573 2.09295 4.72393 2.54081L3.70313 3.22135C3.39678 3.42558 2.98287 3.3428 2.77863 3.03645C2.5744 2.7301 2.65718 2.31618 2.96353 2.11195L3.98433 1.43141Z" fill="#615473"/>
<path fill-rule="evenodd" clip-rule="evenodd" d="M2.66667 5.33331C1.93029 5.33331 1.33333 5.93027 1.33333 6.66665V11.888C1.33333 12.6244 1.93029 13.2213 2.66667 13.2213H9.33333C10.0697 13.2213 10.6667 12.6244 10.6667 11.888V11.3333C10.6667 10.9651 10.9651 10.6666 11.3333 10.6666C11.7015 10.6666 12 10.9651 12 11.3333V11.888C12 13.3608 10.8061 14.5547 9.33333 14.5547H2.66667C1.19391 14.5547 0 13.3608 0 11.888V6.66665C0 5.19389 1.19391 3.99998 2.66667 3.99998H9.33333C10.8061 3.99998 12 5.19389 12 6.66665V7.33331C12 7.7015 11.7015 7.99998 11.3333 7.99998C10.9651 7.99998 10.6667 7.7015 10.6667 7.33331V6.66665C10.6667 5.93027 10.0697 5.33331 9.33333 5.33331H2.66667Z" fill="#615473"/>
<path fill-rule="evenodd" clip-rule="evenodd" d="M11.3333 8.66665H10C9.63181 8.66665 9.33333 8.96513 9.33333 9.33331C9.33333 9.7015 9.63181 9.99998 10 9.99998H11.3333C11.7015 9.99998 12 9.7015 12 9.33331C12 8.96513 11.7015 8.66665 11.3333 8.66665ZM10 7.33331C8.89543 7.33331 8 8.22874 8 9.33331C8 10.4379 8.89543 11.3333 10 11.3333H11.3333C12.4379 11.3333 13.3333 10.4379 13.3333 9.33331C13.3333 8.22874 12.4379 7.33331 11.3333 7.33331H10Z" fill="#615473"/>
</svg>
