<svg width="16" height="16" viewBox="0 0 16 16" fill="none" xmlns="http://www.w3.org/2000/svg">
<g clip-path="url(#clip0_389_8766)">
<path d="M7.17529 2.53684C7.5725 1.95727 8.42783 1.95727 8.82503 2.53684L10.1503 4.47053C10.2803 4.66026 10.4718 4.79936 10.6924 4.8644L12.941 5.52724C13.6149 5.7259 13.8792 6.53937 13.4508 7.09623L12.0212 8.95415C11.881 9.13645 11.8078 9.36153 11.8142 9.59145L11.8786 11.9348C11.8979 12.6372 11.206 13.1399 10.5439 12.9045L8.33521 12.1191C8.11849 12.042 7.88183 12.042 7.66512 12.1191L5.45638 12.9045C4.79437 13.1399 4.10239 12.6372 4.12171 11.9348L4.18616 9.59145C4.19248 9.36153 4.11935 9.13645 3.97909 8.95415L2.54957 7.09623C2.1211 6.53937 2.38541 5.7259 3.05936 5.52724L5.30793 4.8644C5.52856 4.79936 5.72002 4.66026 5.85005 4.47053L7.17529 2.53684Z" fill="white"/>
</g>
<defs>
<clipPath id="clip0_389_8766">
<rect width="16" height="16" fill="white"/>
</clipPath>
</defs>
</svg>
