<svg width="20" height="20" viewBox="0 0 20 20" fill="none" xmlns="http://www.w3.org/2000/svg">
<path fill-rule="evenodd" clip-rule="evenodd" d="M14.1667 3.33341H5.83335V6.66675C5.83335 8.96793 7.69883 10.8334 10 10.8334C12.3012 10.8334 14.1667 8.96794 14.1667 6.66675V3.33341ZM4.16669 1.66675V6.66675C4.16669 9.88841 6.77836 12.5001 10 12.5001C13.2217 12.5001 15.8334 9.88841 15.8334 6.66675V1.66675H4.16669Z" fill="#F3A919"/>
<path fill-rule="evenodd" clip-rule="evenodd" d="M15.8334 4.16659L15.8334 6.66659L16.25 6.66659C16.9404 6.66659 17.5 6.10694 17.5 5.41659C17.5 4.72623 16.9404 4.16659 16.25 4.16659L15.8334 4.16659ZM14.1667 8.33325L16.25 8.33325C17.8609 8.33325 19.1667 7.02742 19.1667 5.41659C19.1667 3.80575 17.8609 2.49992 16.25 2.49992L14.1667 2.49992L14.1667 8.33325Z" fill="#F3A919"/>
<path fill-rule="evenodd" clip-rule="evenodd" d="M4.16665 4.16659L4.16665 6.66659L3.74998 6.66659C3.05962 6.66659 2.49998 6.10694 2.49998 5.41659C2.49998 4.72623 3.05962 4.16659 3.74998 4.16659L4.16665 4.16659ZM5.83331 8.33325L3.74998 8.33325C2.13915 8.33325 0.833313 7.02742 0.833313 5.41659C0.833313 3.80575 2.13915 2.49992 3.74998 2.49992L5.83331 2.49992L5.83331 8.33325Z" fill="#F3A919"/>
<path fill-rule="evenodd" clip-rule="evenodd" d="M12.5 15.8334H7.5C7.03976 15.8334 6.66667 16.2065 6.66667 16.6667L13.3333 16.6667C13.3333 16.2065 12.9602 15.8334 12.5 15.8334ZM7.5 14.1667C6.11929 14.1667 5 15.286 5 16.6667V18.3334H15V16.6667C15 15.286 13.8807 14.1667 12.5 14.1667H7.5Z" fill="#F3A919"/>
<path fill-rule="evenodd" clip-rule="evenodd" d="M10.8333 12.4999H9.16667V14.1666H10.8333V12.4999ZM7.5 10.8333V15.8333H12.5V10.8333H7.5Z" fill="#F3A919"/>
</svg>
