<svg width="723" height="641" viewBox="0 0 723 641" fill="none" xmlns="http://www.w3.org/2000/svg">
<g clip-path="url(#clip0_40_1933)">
<path opacity="0.0144928" fill-rule="evenodd" clip-rule="evenodd" d="M1032.84 631.994L901.194 884.741C896.185 894.358 885.584 899.388 875.526 896.92L611.194 832.066C605.554 830.682 600.72 827.072 597.705 821.992L387.619 467.95C385.293 464.031 384.175 459.444 384.407 454.778L402.564 89.835C403.008 80.8987 408.323 72.8444 416.259 69.0784L631.245 -32.9319C639.182 -36.6979 648.355 -35.5175 654.883 -29.8901L921.509 199.924C924.918 202.862 927.368 206.818 928.545 211.282L1034.84 614.57C1036.37 620.357 1035.65 626.601 1032.84 631.994ZM902.916 885.663C897.472 896.116 885.949 901.583 875.017 898.901L610.684 834.047C604.554 832.543 599.299 828.618 596.023 823.097L385.936 469.055C383.408 464.795 382.193 459.809 382.445 454.737L400.602 89.7944C401.085 80.0811 406.862 71.3264 415.488 67.233L630.475 -34.7774C639.101 -38.8708 649.071 -37.5878 656.168 -31.4711L922.793 198.343C926.499 201.537 929.162 205.836 930.441 210.688L1036.74 613.977C1038.4 620.267 1037.62 627.054 1034.57 632.916L902.916 885.663Z" fill="url(#paint0_linear_40_1933)" fill-opacity="0.3"/>
<path opacity="0.0289855" fill-rule="evenodd" clip-rule="evenodd" d="M1002.83 653.655L859.675 896.611C854.177 905.943 843.302 910.392 833.357 907.378L574.43 828.913C568.863 827.226 564.214 823.366 561.459 818.141L370.616 456.25C368.491 452.221 367.605 447.593 368.071 442.959L404.271 82.701C405.165 73.81 410.891 66.0602 419.026 62.7322L637.267 -26.55C645.402 -29.878 654.523 -28.2022 660.769 -22.232L913.862 219.677C917.118 222.789 919.365 226.86 920.315 231.369L1005.71 636.399C1006.94 642.247 1005.91 648.431 1002.83 653.655ZM861.352 897.622C855.375 907.765 843.556 912.601 832.746 909.325L573.819 830.86C567.767 829.027 562.715 824.83 559.72 819.151L368.876 457.26C366.567 452.881 365.604 447.851 366.11 442.814L402.311 82.5557C403.282 72.8916 409.506 64.4679 418.348 60.8505L636.589 -28.4317C645.432 -32.0491 655.346 -30.2276 662.135 -23.7382L915.228 218.171C918.767 221.553 921.209 225.978 922.242 230.879L1007.63 635.91C1008.97 642.266 1007.85 648.988 1004.51 654.666L861.352 897.622Z" fill="url(#paint1_linear_40_1933)" fill-opacity="0.3"/>
<path opacity="0.0434783" fill-rule="evenodd" clip-rule="evenodd" d="M972.145 674.492L818.077 907.082C812.106 916.096 800.995 919.943 791.194 916.391L538.27 824.734C532.789 822.748 528.336 818.646 525.844 813.288L354.44 444.726C352.52 440.596 351.866 435.937 352.563 431.345L406.396 76.779C407.735 67.9593 413.854 60.5398 422.162 57.6629L643.017 -18.8145C651.325 -21.6913 660.367 -19.5222 666.315 -13.2257L905.42 239.902C908.516 243.181 910.557 247.359 911.281 251.903L975.885 657.448C976.824 663.344 975.484 669.451 972.145 674.492ZM819.704 908.181C813.214 917.978 801.137 922.16 790.483 918.299L537.56 826.642C531.602 824.483 526.761 820.025 524.053 814.201L352.649 445.639C350.562 441.15 349.851 436.086 350.609 431.094L404.442 76.5282C405.897 66.9416 412.549 58.8769 421.579 55.7498L642.433 -20.7275C651.464 -23.8546 661.293 -21.4968 667.758 -14.6528L906.862 238.475C910.228 242.039 912.447 246.581 913.234 251.52L977.837 657.065C978.858 663.473 977.401 670.112 973.772 675.591L819.704 908.181Z" fill="url(#paint2_linear_40_1933)" fill-opacity="0.3"/>
<path opacity="0.057971" fill-rule="evenodd" clip-rule="evenodd" d="M940.822 694.476L776.46 916.163C770.036 924.827 758.728 928.056 749.1 923.975L502.752 819.573C497.369 817.292 493.121 812.958 490.897 807.479L339.065 433.424C337.351 429.201 336.93 424.521 337.857 419.98L408.86 72.0807C410.641 63.3582 417.133 56.2935 425.588 53.8791L648.416 -9.75265C656.871 -12.167 665.808 -9.50842 671.442 -2.90313L896.153 260.551C899.085 263.989 900.917 268.267 901.414 272.837L945.415 677.685C946.059 683.615 944.414 689.632 940.822 694.476ZM778.032 917.347C771.05 926.764 758.759 930.274 748.294 925.839L501.945 821.437C496.094 818.957 491.477 814.247 489.06 808.291L337.228 434.236C335.365 429.646 334.908 424.558 335.915 419.623L406.918 71.7238C408.853 62.2428 415.91 54.5638 425.1 51.9395L647.929 -11.6923C657.119 -14.3166 666.833 -11.4268 672.957 -4.24713L897.667 259.207C900.855 262.944 902.846 267.594 903.386 272.561L947.387 677.41C948.087 683.855 946.299 690.395 942.395 695.66L778.032 917.347Z" fill="url(#paint3_linear_40_1933)" fill-opacity="0.3"/>
<path opacity="0.0724638" fill-rule="evenodd" clip-rule="evenodd" d="M908.93 713.577L734.912 923.866C728.057 932.149 716.592 934.746 707.169 930.15L467.939 813.475C462.668 810.904 458.634 806.347 456.682 800.759L324.492 422.386C322.987 418.079 322.8 413.385 323.954 408.906L411.62 68.613C413.835 60.0132 420.679 53.3263 429.253 51.384L653.422 0.60319C661.996 -1.33907 670.8 1.80306 676.106 8.699L886.065 281.571C888.828 285.163 890.449 289.532 890.718 294.119L914.362 697.081C914.711 703.032 912.765 708.943 908.93 713.577ZM736.425 925.134C728.975 934.137 716.513 936.96 706.27 931.965L467.041 815.289C461.311 812.495 456.926 807.542 454.804 801.468L322.614 423.095C320.979 418.414 320.775 413.312 322.029 408.443L409.695 68.1497C412.103 58.8022 419.542 51.5338 428.862 49.4227L653.031 -1.35818C662.35 -3.46934 671.92 -0.0539473 677.687 7.4416L887.646 280.314C890.65 284.218 892.411 288.967 892.704 293.953L916.348 696.915C916.727 703.383 914.612 709.809 910.444 714.845L736.425 925.134Z" fill="url(#paint4_linear_40_1933)" fill-opacity="0.3"/>
<path opacity="0.0869565" fill-rule="evenodd" clip-rule="evenodd" d="M876.499 731.771L693.482 930.207C686.221 938.08 674.642 940.034 665.454 934.938L433.857 806.487C428.71 803.632 424.898 798.862 423.221 793.177L310.683 411.656C309.39 407.272 309.436 402.574 310.815 398.165L414.59 66.3787C417.234 57.927 424.405 51.6395 433.07 50.1769L657.951 12.2178C666.616 10.7552 675.26 14.3731 680.224 21.5405L875.124 302.912C877.713 306.651 879.119 311.103 879.16 315.699L882.755 715.61C882.809 721.569 880.566 727.361 876.499 731.771ZM694.932 931.556C687.04 940.114 674.454 942.238 664.466 936.699L432.87 808.249C427.275 805.145 423.132 799.961 421.309 793.781L308.771 412.26C307.365 407.494 307.415 402.388 308.914 397.596L412.689 65.8093C415.562 56.6226 423.358 49.7884 432.776 48.1986L657.657 10.2395C667.075 8.64972 676.471 12.5823 681.867 20.3729L876.767 301.744C879.581 305.808 881.109 310.648 881.154 315.643L884.749 715.554C884.807 722.031 882.37 728.327 877.948 733.121L694.932 931.556Z" fill="url(#paint5_linear_40_1933)" fill-opacity="0.3"/>
<path opacity="0.101449" fill-rule="evenodd" clip-rule="evenodd" d="M843.594 749.037L652.255 935.208C644.614 942.642 632.964 943.947 624.039 938.368L400.562 798.663C395.55 795.53 391.97 790.556 390.571 784.786L297.633 401.274C296.554 396.82 296.833 392.127 298.434 387.798L417.723 65.3784C420.786 57.0997 428.26 51.2313 436.987 50.2538L661.96 25.0538C670.687 24.0762 679.143 28.1601 683.754 35.5793L863.336 324.522C865.746 328.401 866.935 332.93 866.748 337.526L850.659 733.249C850.417 739.204 847.885 744.862 843.594 749.037ZM653.636 936.636C645.331 944.718 632.667 946.136 622.967 940.072L399.489 800.366C394.042 796.961 390.15 791.555 388.63 785.282L295.692 401.771C294.519 396.93 294.822 391.828 296.563 387.123L415.851 64.7033C419.181 55.7046 427.305 49.326 436.791 48.2635L661.764 23.0634C671.249 22.0009 680.441 26.4399 685.453 34.5042L865.034 323.447C867.655 327.663 868.947 332.586 868.744 337.581L852.655 733.305C852.392 739.777 849.639 745.928 844.975 750.466L653.636 936.636Z" fill="url(#paint6_linear_40_1933)" fill-opacity="0.3"/>
<path opacity="0.115942" fill-rule="evenodd" clip-rule="evenodd" d="M810.253 765.359L611.281 938.893C603.288 945.865 591.612 946.517 582.979 940.474L368.076 790.055C363.213 786.651 359.871 781.483 358.754 775.639L285.304 391.282C284.441 386.766 284.953 382.086 286.775 377.846L420.941 65.6096C424.413 57.5281 432.164 52.0969 440.924 51.6076L665.377 39.0712C674.137 38.582 682.378 43.12 686.624 50.7704L850.679 346.351C852.907 350.364 853.875 354.962 853.46 359.549L818.11 749.982C817.573 755.919 814.756 761.431 810.253 765.359ZM612.589 940.398C603.901 947.975 591.209 948.684 581.825 942.116L366.923 791.697C361.637 787.997 358.005 782.38 356.791 776.027L283.34 391.671C282.402 386.762 282.959 381.674 284.939 377.066L419.105 64.8296C422.879 56.0454 431.305 50.1418 440.825 49.6101L665.279 37.0736C674.8 36.5419 683.758 41.4745 688.374 49.7901L852.429 345.37C854.85 349.733 855.903 354.73 855.451 359.717L820.101 750.15C819.517 756.603 816.455 762.594 811.561 766.863L612.589 940.398Z" fill="url(#paint7_linear_40_1933)" fill-opacity="0.3"/>
<path opacity="0.130435" fill-rule="evenodd" clip-rule="evenodd" d="M776.209 780.278L570.573 940.753C562.256 947.243 550.59 947.243 542.273 940.753L336.636 780.278C331.935 776.609 328.843 771.258 328.011 765.354L273.94 381.458C273.296 376.89 274.042 372.233 276.079 368.094L424.271 66.9648C428.141 59.1013 436.143 54.1205 444.907 54.1205H667.938C676.702 54.1205 684.705 59.1013 688.575 66.9648L836.767 368.094C838.804 372.233 839.549 376.89 838.905 381.458L784.834 765.353C784.002 771.258 780.91 776.609 776.209 780.278ZM571.803 942.329C562.763 949.384 550.082 949.384 541.042 942.33L335.406 781.855C330.296 777.867 326.935 772.051 326.031 765.632L271.959 381.737C271.26 376.771 272.07 371.71 274.284 367.211L422.476 66.0817C426.683 57.5344 435.381 52.1205 444.907 52.1205H667.938C677.464 52.1205 686.163 57.5344 690.369 66.0817L838.561 367.211C840.775 371.71 841.585 376.771 840.886 381.737L786.814 765.632C785.91 772.051 782.549 777.867 777.439 781.855L571.803 942.329Z" fill="url(#paint8_linear_40_1933)" fill-opacity="0.3"/>
<path opacity="0.144928" fill-rule="evenodd" clip-rule="evenodd" d="M742.493 795.101L530.374 942.426C521.77 948.402 510.173 947.754 502.202 940.852L305.695 770.704C301.162 766.78 298.322 761.254 297.777 755.297L262.732 372.61C262.309 367.992 263.289 363.362 265.543 359.329L427.407 69.7256C431.664 62.1093 439.886 57.5978 448.621 58.0856L670.244 70.4639C678.979 70.9518 686.714 76.3546 690.2 84.4034L822.773 390.452C824.62 394.714 825.14 399.427 824.267 403.973L751.879 780.66C750.752 786.523 747.386 791.703 742.493 795.101ZM531.521 944.072C522.169 950.567 509.564 949.863 500.9 942.361L304.392 772.214C299.466 767.948 296.379 761.941 295.786 755.467L260.741 372.779C260.281 367.76 261.346 362.728 263.797 358.343L425.661 68.7402C430.288 60.4616 439.225 55.5578 448.719 56.0881L670.342 68.4664C679.837 68.9966 688.244 74.8692 692.034 83.6179L824.607 389.666C826.614 394.3 827.18 399.423 826.23 404.364L753.842 781.05C752.618 787.424 748.959 793.053 743.641 796.747L531.521 944.072Z" fill="url(#paint9_linear_40_1933)" fill-opacity="0.3"/>
<path opacity="0.15942" fill-rule="evenodd" clip-rule="evenodd" d="M708.17 808.504L490.555 942.34C481.694 947.789 470.203 946.502 462.599 939.208L275.849 760.078C271.499 755.905 268.922 750.217 268.666 744.221L252.425 364.003C252.226 359.344 253.44 354.754 255.907 350.837L430.526 73.5876C435.155 66.2377 443.57 62.2047 452.248 63.1768L671.582 87.7452C680.26 88.7173 687.705 94.5268 690.799 102.742L807.514 412.624C809.163 417.002 809.455 421.762 808.352 426.274L718.29 794.585C716.87 800.393 713.239 805.386 708.17 808.504ZM491.615 944.051C481.984 949.974 469.494 948.575 461.229 940.647L274.479 761.517C269.75 756.981 266.949 750.798 266.671 744.281L250.429 364.062C250.213 358.999 251.533 354.009 254.214 349.752L428.833 72.5026C433.865 64.5136 443.012 60.1298 452.444 61.1864L671.779 85.7549C681.211 86.8115 689.303 93.1262 692.666 102.055L809.381 411.938C811.174 416.697 811.491 421.87 810.292 426.775L720.23 795.086C718.686 801.398 714.74 806.826 709.23 810.215L491.615 944.051Z" fill="url(#paint10_linear_40_1933)" fill-opacity="0.3"/>
<path opacity="0.173913" fill-rule="evenodd" clip-rule="evenodd" d="M673.625 820.915L451.243 941.064C442.16 945.971 430.817 944.056 423.602 936.398L246.941 748.892C242.784 744.48 240.477 738.64 240.513 732.618L242.737 355.921C242.765 351.231 244.214 346.687 246.891 342.896L433.494 78.6257C438.481 71.5638 447.059 68.0187 455.652 69.469L672.132 106.01C680.725 107.461 687.855 113.657 690.55 122.016L791.394 434.807C792.841 439.293 792.901 444.092 791.567 448.562L684.458 807.555C682.746 813.293 678.858 818.088 673.625 820.915ZM452.211 942.835C442.338 948.169 430.01 946.088 422.167 937.764L245.506 750.258C240.988 745.462 238.48 739.114 238.519 732.569L240.743 355.872C240.774 350.773 242.348 345.835 245.258 341.714L431.862 77.4437C437.282 69.7676 446.606 65.9143 455.946 67.4908L672.426 104.032C681.766 105.608 689.517 112.344 692.446 121.429L793.29 434.22C794.862 439.097 794.928 444.313 793.478 449.171L686.368 808.164C684.507 814.402 680.282 819.613 674.594 822.686L452.211 942.835Z" fill="url(#paint11_linear_40_1933)" fill-opacity="0.3"/>
<path opacity="0.188406" fill-rule="evenodd" clip-rule="evenodd" d="M638.906 832.335L412.487 938.641C403.218 942.993 392.065 940.467 385.257 932.473L218.985 737.211C215.032 732.569 213.003 726.588 213.332 720.552L233.632 348.398C233.889 343.684 235.573 339.197 238.456 335.542L436.25 84.822C441.577 78.0685 450.29 75.0186 458.768 76.9392L671.845 125.207C680.323 127.128 687.118 133.691 689.407 142.17L774.414 456.952C775.653 461.541 775.479 466.37 773.914 470.788L650.428 819.568C648.425 825.224 644.288 829.808 638.906 832.335ZM413.36 940.468C403.285 945.199 391.162 942.453 383.762 933.763L217.49 738.501C213.194 733.455 210.988 726.954 211.345 720.395L231.646 348.24C231.925 343.116 233.755 338.239 236.889 334.266L434.683 83.546C440.474 76.2053 449.944 72.8903 459.159 74.9778L672.236 123.246C681.451 125.334 688.837 132.467 691.326 141.683L776.332 456.466C777.679 461.454 777.49 466.703 775.789 471.505L652.303 820.285C650.126 826.432 645.63 831.415 639.779 834.162L413.36 940.468Z" fill="url(#paint12_linear_40_1933)" fill-opacity="0.3"/>
<path opacity="0.202899" fill-rule="evenodd" clip-rule="evenodd" d="M604.061 842.762L374.342 935.113C364.921 938.9 353.996 935.78 347.614 927.48L191.998 725.091C188.26 720.229 186.515 714.12 187.139 708.084L225.075 341.461C225.564 336.73 227.483 332.309 230.57 328.8L438.734 92.1498C444.386 85.7243 453.203 83.1749 461.539 85.5554L670.676 145.277C679.012 147.658 685.451 154.564 687.332 163.14L756.581 479.01C757.608 483.693 757.195 488.545 755.4 492.902L616.249 830.622C613.958 836.182 609.58 840.543 604.061 842.762ZM375.115 936.99C364.875 941.107 353 937.716 346.063 928.694L190.448 726.305C186.384 721.02 184.487 714.38 185.166 707.819L223.102 341.195C223.634 336.054 225.72 331.248 229.074 327.434L437.239 90.7835C443.382 83.7994 452.965 81.0283 462.027 83.6158L671.164 143.338C680.225 145.925 687.224 153.432 689.268 162.754L758.517 478.623C759.633 483.714 759.185 488.988 757.233 493.724L618.082 831.444C615.592 837.488 610.833 842.227 604.835 844.639L375.115 936.99Z" fill="url(#paint13_linear_40_1933)" fill-opacity="0.3"/>
<path opacity="0.217391" fill-rule="evenodd" clip-rule="evenodd" d="M569.154 852.199L336.868 930.526C327.331 933.741 316.672 930.05 310.73 921.475L166.007 712.598C162.493 707.526 161.038 701.301 161.96 695.277L217.043 335.135C217.768 330.397 219.922 326.051 223.208 322.699L440.905 100.583C446.863 94.5039 455.754 92.4578 463.922 95.2862L668.6 166.162C676.768 168.99 682.833 176.215 684.3 184.866L737.917 500.932C738.726 505.703 738.072 510.568 736.046 514.855L581.98 840.722C579.403 846.173 574.794 850.298 569.154 852.199ZM337.538 932.448C327.172 935.943 315.586 931.931 309.128 922.61L164.404 713.733C160.585 708.22 159.004 701.454 160.005 694.906L215.089 334.764C215.877 329.614 218.218 324.89 221.79 321.246L439.487 99.1303C445.963 92.5228 455.627 90.2988 464.505 93.3731L669.183 164.249C678.061 167.323 684.653 175.177 686.248 184.579L739.865 500.645C740.745 505.831 740.034 511.119 737.831 515.779L583.766 841.646C580.965 847.571 575.954 852.054 569.824 854.121L337.538 932.448Z" fill="url(#paint14_linear_40_1933)" fill-opacity="0.3"/>
<path opacity="0.231884" fill-rule="evenodd" clip-rule="evenodd" d="M534.214 860.653L300.095 924.928C290.479 927.568 280.119 923.329 274.63 914.51L141.002 699.79C137.722 694.52 136.565 688.193 137.784 682.194L209.483 329.444C210.446 324.708 212.835 320.448 216.317 317.262L442.69 110.09C448.935 104.375 457.872 102.833 465.847 106.096L665.562 187.799C673.536 191.061 679.21 198.58 680.262 207.281L718.417 522.67C719.003 527.521 718.105 532.391 715.847 536.596L547.653 849.871C544.792 855.198 539.96 859.075 534.214 860.653ZM300.659 926.889C290.207 929.758 278.946 925.151 272.98 915.565L139.351 700.845C135.786 695.117 134.529 688.24 135.854 681.719L207.553 328.969C208.599 323.821 211.197 319.191 214.981 315.728L441.354 108.556C448.142 102.344 457.857 100.668 466.524 104.214L666.24 185.917C674.907 189.463 681.074 197.636 682.218 207.093L720.373 522.483C721.01 527.755 720.034 533.048 717.579 537.62L549.385 850.894C546.276 856.685 541.024 860.899 534.778 862.614L300.659 926.889Z" fill="url(#paint15_linear_40_1933)" fill-opacity="0.3"/>
<path opacity="0.246377" fill-rule="evenodd" clip-rule="evenodd" d="M499.314 868.131L264.092 918.369C254.431 920.433 244.402 915.674 239.377 906.642L117.014 686.731C113.978 681.274 113.124 674.858 114.642 668.899L202.381 324.408C203.584 319.684 206.209 315.521 209.881 312.512L444.063 120.638C450.574 115.303 459.529 114.264 467.286 117.945L661.554 210.125C669.31 213.805 674.578 221.592 675.215 230.319L698.118 544.179C698.477 549.101 697.331 553.965 694.842 558.079L513.335 858.078C510.195 863.267 505.151 866.884 499.314 868.131ZM264.546 920.363C254.046 922.606 243.145 917.433 237.683 907.616L115.32 687.704C112.019 681.773 111.092 674.8 112.742 668.322L200.481 323.831C201.788 318.696 204.641 314.171 208.633 310.901L442.814 119.027C449.892 113.228 459.625 112.099 468.057 116.1L662.325 208.279C670.756 212.28 676.482 220.744 677.174 230.23L700.077 544.09C700.468 549.439 699.221 554.727 696.516 559.198L515.009 859.197C511.596 864.838 506.113 868.77 499.769 870.125L264.546 920.363Z" fill="url(#paint16_linear_40_1933)" fill-opacity="0.3"/>
<path opacity="0.26087" fill-rule="evenodd" clip-rule="evenodd" d="M464.487 874.646L228.885 910.906C219.215 912.394 209.546 907.143 204.991 897.931L94.0328 673.482C91.2491 667.851 90.705 661.361 92.5216 655.455L195.686 320.048C197.133 315.345 199.992 311.29 203.849 308.47L444.959 132.191C451.717 127.251 460.66 126.713 468.177 130.795L656.532 233.075C664.049 237.157 668.897 245.185 669.119 253.915L677.024 565.414C677.151 570.398 675.753 575.246 673.033 579.257L479.059 865.354C475.644 870.391 470.398 873.737 464.487 874.646ZM229.228 912.925C218.717 914.543 208.207 908.836 203.257 898.822L92.2981 674.373C89.2723 668.253 88.6809 661.199 90.6555 654.779L193.82 319.372C195.392 314.26 198.5 309.853 202.693 306.787L443.803 130.508C451.148 125.138 460.869 124.554 469.04 128.991L657.394 231.271C665.565 235.708 670.835 244.433 671.076 253.922L678.981 565.422C679.119 570.839 677.6 576.109 674.644 580.469L480.67 866.565C476.957 872.041 471.255 875.677 464.83 876.666L229.228 912.925Z" fill="url(#paint17_linear_40_1933)" fill-opacity="0.3"/>
<path opacity="0.275362" fill-rule="evenodd" clip-rule="evenodd" d="M429.784 880.211L194.518 902.589C184.873 903.506 175.588 897.794 171.511 888.433L72.0632 660.103C69.5403 654.311 69.3106 647.762 71.4254 641.925L189.365 316.377C191.056 311.707 194.149 307.772 198.186 305.151L445.337 144.71C452.319 140.178 461.224 140.136 468.48 144.601L650.476 256.583C657.732 261.048 662.151 269.288 661.959 277.998L655.159 586.329C655.048 591.366 653.396 596.187 650.447 600.083L444.875 871.71C441.189 876.581 435.753 879.643 429.784 880.211ZM194.748 904.628C184.264 905.625 174.172 899.415 169.74 889.24L70.2918 660.911C67.5495 654.615 67.2998 647.497 69.5986 641.152L187.538 315.604C189.377 310.528 192.738 306.251 197.126 303.402L444.277 142.961C451.866 138.035 461.546 137.989 469.433 142.842L651.429 254.825C659.316 259.678 664.119 268.635 663.91 278.102L657.11 586.433C656.989 591.907 655.194 597.148 651.989 601.383L446.416 873.01C442.41 878.304 436.501 881.632 430.013 882.249L194.748 904.628Z" fill="url(#paint18_linear_40_1933)" fill-opacity="0.3"/>
<path opacity="0.289855" fill-rule="evenodd" clip-rule="evenodd" d="M395.252 884.844L161.029 893.48C151.441 893.834 142.564 887.69 138.967 878.211L51.1035 646.659C48.8494 640.719 48.9384 634.127 51.3505 628.373L183.38 313.413C185.319 308.787 188.642 304.985 192.852 302.575L445.154 158.156C452.338 154.044 461.179 154.492 468.155 159.32L643.366 280.583C650.342 285.412 654.322 293.837 653.719 302.503L632.544 606.885C632.191 611.964 630.283 616.747 627.107 620.516L410.826 877.166C406.875 881.854 401.261 884.622 395.252 884.844ZM161.143 895.532C150.721 895.916 141.072 889.238 137.162 878.935L49.2989 647.382C46.8488 640.925 46.9456 633.761 49.5674 627.506L181.596 312.547C183.704 307.519 187.317 303.385 191.893 300.766L444.195 156.347C452.003 151.878 461.613 152.364 469.196 157.612L644.407 278.875C651.99 284.124 656.315 293.282 655.66 302.702L634.485 607.083C634.101 612.604 632.028 617.803 628.575 621.9L412.294 878.549C407.999 883.646 401.897 886.654 395.366 886.895L161.143 895.532Z" fill="url(#paint19_linear_40_1933)" fill-opacity="0.3"/>
<path opacity="0.304348" fill-rule="evenodd" clip-rule="evenodd" d="M360.937 888.561L128.452 883.636C118.953 883.435 110.502 876.891 107.387 867.326L31.1501 633.206C29.1721 627.132 29.5837 620.514 32.2912 614.859L177.695 311.164C179.883 306.595 183.435 302.937 187.811 300.75L444.371 172.483C451.734 168.802 460.484 169.731 467.164 174.903L635.186 305.004C641.866 310.176 645.399 318.758 644.389 327.358L609.207 627.039C608.607 632.15 606.441 636.881 603.039 640.51L376.957 881.735C372.747 886.227 366.968 888.689 360.937 888.561ZM128.449 885.692C118.124 885.474 108.939 878.361 105.553 867.964L29.3158 633.844C27.1658 627.242 27.6132 620.048 30.5562 613.902L175.96 310.207C178.338 305.24 182.2 301.265 186.955 298.887L443.516 170.62C451.519 166.619 461.03 167.629 468.29 173.251L636.313 303.352C643.573 308.973 647.414 318.302 646.316 327.649L611.134 627.33C610.481 632.885 608.127 638.028 604.429 641.973L378.347 883.198C373.771 888.08 367.49 890.757 360.934 890.618L128.449 885.692Z" fill="url(#paint20_linear_40_1933)" fill-opacity="0.3"/>
<path opacity="0.318841" fill-rule="evenodd" clip-rule="evenodd" d="M326.874 891.389L96.8085 873.12C87.429 872.375 79.4206 865.464 76.7869 855.841L12.1866 619.808C10.4915 613.614 11.2287 606.987 14.2291 601.447L172.265 309.644C174.703 305.144 178.481 301.645 183.013 299.691L442.942 187.65C450.46 184.409 459.096 185.811 465.463 191.306L625.917 329.78C632.283 335.275 635.366 343.986 633.954 352.497L585.164 646.754C584.313 651.885 581.887 656.552 578.264 660.028L343.301 885.442C338.84 889.722 332.911 891.868 326.874 891.389ZM96.6889 875.174C86.4939 874.365 77.7891 866.853 74.9264 856.393L10.3261 620.36C8.48355 613.628 9.28488 606.424 12.5462 600.402L170.582 308.599C173.232 303.707 177.339 299.904 182.265 297.781L442.194 185.739C450.366 182.217 459.753 183.741 466.673 189.713L627.127 328.188C634.047 334.16 637.397 343.629 635.863 352.88L587.073 647.137C586.148 652.714 583.511 657.787 579.573 661.565L344.61 886.979C339.761 891.631 333.316 893.964 326.754 893.443L96.6889 875.174Z" fill="url(#paint21_linear_40_1933)" fill-opacity="0.3"/>
<path opacity="0.333333" fill-rule="evenodd" clip-rule="evenodd" d="M293.117 893.351L66.137 861.996C56.9054 860.721 49.353 853.474 47.198 843.822L-5.78713 606.524C-7.19328 600.226 -6.12829 593.607 -2.83861 588.198L167.064 308.859C169.751 304.442 173.751 301.115 178.431 299.407L440.843 203.61C448.493 200.817 456.991 202.682 463.031 208.477L615.56 354.843C621.599 360.639 624.227 369.451 622.421 377.851L560.455 665.996C559.35 671.134 556.664 675.722 552.823 679.031L309.91 888.31C305.206 892.362 299.141 894.183 293.117 893.351ZM65.9004 864.041C55.8661 862.655 47.657 854.777 45.3146 844.287L-7.67054 606.988C-9.19896 600.143 -8.04137 592.948 -4.46563 587.069L165.437 307.73C168.357 302.929 172.705 299.313 177.792 297.456L440.205 201.659C448.52 198.624 457.757 200.65 464.322 206.95L616.85 353.315C623.415 359.615 626.272 369.193 624.308 378.324L562.342 666.469C561.141 672.054 558.222 677.041 554.046 680.638L311.133 889.917C306.021 894.321 299.428 896.3 292.881 895.395L65.9004 864.041Z" fill="url(#paint22_linear_40_1933)" fill-opacity="0.3"/>
<path opacity="0.347826" fill-rule="evenodd" clip-rule="evenodd" d="M259.703 894.469L36.4567 850.323C27.4 848.532 20.3143 840.981 18.6338 831.329L-22.7888 593.406C-23.9006 587.02 -22.5066 580.428 -18.9321 575.167L162.05 308.811C164.985 304.49 169.202 301.351 174.019 299.899L438.038 220.311C445.796 217.972 454.133 220.287 459.834 226.363L604.106 380.119C609.807 386.194 611.979 395.08 609.785 403.347L535.106 684.724C533.744 689.857 530.798 694.351 526.744 697.479L276.817 890.359C271.881 894.168 265.695 895.654 259.703 894.469ZM36.1037 852.351C26.2594 850.404 18.5575 842.196 16.7309 831.705L-24.6917 593.783C-25.9002 586.841 -24.385 579.675 -20.4997 573.957L160.482 307.601C163.673 302.905 168.257 299.492 173.492 297.914L437.512 218.326C445.944 215.784 455.006 218.301 461.203 224.904L605.475 378.661C611.671 385.264 614.032 394.923 611.647 403.909L536.969 685.285C535.488 690.864 532.285 695.749 527.879 699.15L277.952 892.029C272.587 896.17 265.863 897.785 259.35 896.497L36.1037 852.351Z" fill="url(#paint23_linear_40_1933)" fill-opacity="0.3"/>
<path opacity="0.362319" fill-rule="evenodd" clip-rule="evenodd" d="M226.671 894.776L7.78756 838.171C-1.06911 835.88 -7.68014 828.055 -8.89174 818.429L-38.8351 580.517C-39.6479 574.059 -37.9248 567.511 -34.0711 562.415L157.186 309.507C160.369 305.298 164.796 302.359 169.738 301.174L434.498 237.707C442.339 235.828 450.495 238.581 455.846 244.914L591.556 405.543C596.906 411.876 598.623 420.809 596.05 428.923L509.149 702.909C507.527 708.023 504.322 712.408 500.061 715.342L244.061 891.619C238.903 895.171 232.613 896.313 226.671 894.776ZM7.31896 840.175C-2.30784 837.685 -9.49375 829.18 -10.8107 818.716L-40.754 580.804C-41.6376 573.784 -39.7646 566.667 -35.5758 561.128L155.681 308.22C159.141 303.645 163.953 300.45 169.324 299.163L434.085 235.696C442.608 233.653 451.473 236.646 457.289 243.53L592.999 404.159C598.815 411.042 600.681 420.752 597.884 429.571L510.983 703.557C509.22 709.116 505.736 713.882 501.105 717.071L245.105 893.348C239.498 897.209 232.661 898.45 226.202 896.78L7.31896 840.175Z" fill="url(#paint24_linear_40_1933)" fill-opacity="0.3"/>
<path opacity="0.376812" fill-rule="evenodd" clip-rule="evenodd" d="M194.048 894.302L-19.8646 825.603C-28.4977 822.83 -34.6283 814.762 -35.3781 805.186L-53.9557 567.91C-54.4658 561.395 -52.4144 554.912 -48.2882 549.998L152.426 310.946C155.854 306.864 160.483 304.141 165.538 303.234L430.187 255.747C438.087 254.33 446.042 257.508 451.033 264.078L577.902 431.046C582.893 437.615 584.157 446.568 581.213 454.509L482.606 720.52C480.723 725.601 477.261 729.86 472.801 732.585L211.666 892.118C206.298 895.397 199.921 896.188 194.048 894.302ZM-20.4471 827.576C-29.831 824.562 -36.4946 815.792 -37.3096 805.383L-55.8872 568.107C-56.4417 561.026 -54.2119 553.979 -49.7269 548.637L150.987 309.586C154.713 305.148 159.745 302.188 165.239 301.203L429.889 253.716C438.476 252.175 447.122 255.63 452.547 262.771L579.416 429.74C584.841 436.88 586.215 446.611 583.015 455.243L484.408 721.254C482.361 726.776 478.598 731.406 473.751 734.368L212.616 893.9C206.78 897.465 199.849 898.324 193.465 896.274L-20.4471 827.576Z" fill="url(#paint25_linear_40_1933)" fill-opacity="0.3"/>
<path opacity="0.391304" fill-rule="evenodd" clip-rule="evenodd" d="M161.879 893.08L-46.4775 812.688C-54.8654 809.452 -60.5118 801.169 -60.8078 791.667L-68.1631 555.639C-68.3673 549.085 -65.9897 542.685 -61.5989 537.97L147.744 313.129C151.412 309.189 156.236 306.696 161.389 306.077L425.092 274.38C433.027 273.426 440.761 277.016 445.385 283.8L563.161 456.561C567.786 463.345 568.6 472.293 565.297 480.041L455.522 737.53C453.377 742.562 449.662 746.68 445.012 749.181L179.676 891.887C174.111 894.88 167.664 895.312 161.879 893.08ZM-47.1719 814.622C-56.2892 811.104 -62.4266 802.102 -62.7484 791.773L-70.1036 555.746C-70.3256 548.622 -67.7413 541.665 -62.9686 536.539L146.374 311.699C150.362 307.416 155.604 304.706 161.206 304.033L424.909 272.336C433.534 271.3 441.94 275.202 446.967 282.575L564.743 455.337C569.769 462.71 570.654 472.437 567.064 480.858L457.289 738.347C454.957 743.816 450.919 748.293 445.865 751.011L180.529 893.717C174.48 896.97 167.473 897.44 161.184 895.014L-47.1719 814.622Z" fill="url(#paint26_linear_40_1933)" fill-opacity="0.3"/>
<path opacity="0.405797" fill-rule="evenodd" clip-rule="evenodd" d="M130.195 891.14L-72.0452 799.488C-80.1679 795.807 -85.3282 787.339 -85.1798 777.933L-81.4847 543.754C-81.3809 537.177 -78.6805 530.88 -74.0341 526.379L143.101 316.049C147.006 312.267 152.012 310.019 157.249 309.696L419.19 293.55C427.135 293.06 434.631 297.046 438.882 304.023L547.343 482.018C551.594 488.995 551.963 497.914 548.312 505.45L427.93 753.908C425.523 758.876 421.559 762.836 416.729 765.099L148.119 890.953C142.371 893.646 135.875 893.714 130.195 891.14ZM-72.849 801.377C-81.6779 797.376 -87.2871 788.171 -87.1257 777.948L-83.4306 543.768C-83.3178 536.62 -80.3825 529.775 -75.3321 524.883L141.803 314.553C146.047 310.442 151.489 307.998 157.182 307.647L419.123 291.501C427.758 290.968 435.906 295.302 440.526 302.885L548.988 480.88C553.609 488.463 554.009 498.158 550.04 506.349L429.659 754.808C427.043 760.207 422.734 764.511 417.484 766.971L148.874 892.825C142.626 895.753 135.565 895.826 129.391 893.029L-72.849 801.377Z" fill="url(#paint27_linear_40_1933)" fill-opacity="0.3"/>
<path opacity="0.42029" fill-rule="evenodd" clip-rule="evenodd" d="M99.0229 888.521L-96.5678 786.073C-104.407 781.967 -109.081 773.339 -108.498 764.05L-93.9529 532.304C-93.5398 525.723 -90.521 519.548 -85.6293 515.279L138.459 319.703C142.592 316.095 147.771 314.106 153.076 314.088L412.459 313.204C420.391 313.177 427.631 317.545 431.503 324.693L530.457 507.353C534.329 514.501 534.259 523.368 530.271 530.674L399.861 769.632C397.194 774.519 392.988 778.305 387.99 780.316L117.02 889.352C111.105 891.732 104.578 891.431 99.0229 888.521ZM-97.4779 787.909C-105.999 783.446 -111.079 774.068 -110.446 763.972L-95.9003 532.226C-95.4513 525.072 -92.17 518.36 -86.853 513.72L137.235 318.144C141.728 314.223 147.357 312.06 153.123 312.041L412.507 311.157C421.128 311.128 428.997 315.876 433.207 323.645L532.16 506.305C536.369 514.075 536.293 523.712 531.958 531.654L401.549 770.612C398.65 775.924 394.078 780.038 388.644 782.225L117.675 891.26C111.245 893.848 104.151 893.52 98.1129 890.358L-97.4779 787.909Z" fill="url(#paint28_linear_40_1933)" fill-opacity="0.3"/>
<path opacity="0.434783" fill-rule="evenodd" clip-rule="evenodd" d="M68.3958 885.259L-120.04 772.507C-127.579 767.996 -131.768 759.234 -130.761 750.083L-105.593 521.339C-104.87 514.77 -101.539 508.737 -96.4133 504.715L133.786 324.084C138.141 320.666 143.479 318.949 148.835 319.243L404.89 333.29C412.784 333.723 419.753 338.457 423.243 345.757L512.525 532.502C516.015 539.802 515.512 548.593 511.201 555.653L371.359 784.681C368.434 789.471 363.993 793.064 358.839 794.811L86.4113 887.116C80.3458 889.172 73.8077 888.498 68.3958 885.259ZM-121.052 774.285C-129.247 769.382 -133.8 759.858 -132.706 749.911L-107.538 521.168C-106.752 514.027 -103.131 507.469 -97.5602 503.098L132.639 322.467C137.373 318.752 143.175 316.885 148.997 317.205L405.052 331.252C413.632 331.722 421.207 336.868 425 344.802L514.283 531.548C518.076 539.482 517.529 549.038 512.844 556.712L373.001 785.74C369.822 790.946 364.995 794.852 359.392 796.75L86.965 889.056C80.3721 891.29 73.2655 890.557 67.383 887.037L-121.052 774.285Z" fill="url(#paint29_linear_40_1933)" fill-opacity="0.3"/>
<path opacity="0.449275" fill-rule="evenodd" clip-rule="evenodd" d="M38.336 881.395L-142.468 758.859C-149.692 753.963 -153.398 745.091 -151.978 736.095L-116.441 510.906C-115.409 504.365 -111.772 498.493 -106.426 494.734L129.046 329.184C133.614 325.973 139.096 324.541 144.484 325.153L396.467 353.754C404.299 354.643 410.982 359.727 414.086 367.157L493.565 557.404C496.669 564.834 495.742 573.529 491.121 580.326L342.456 799.035C339.277 803.712 334.61 807.096 329.314 808.565L56.3138 884.283C50.1156 886.002 43.5872 884.953 38.336 881.395ZM-143.58 760.572C-151.431 755.251 -155.46 745.608 -153.917 735.829L-118.38 510.64C-117.258 503.53 -113.305 497.147 -107.494 493.062L127.978 327.512C132.943 324.021 138.902 322.465 144.759 323.13L396.742 351.731C405.255 352.698 412.519 358.224 415.893 366.3L495.372 556.546C498.746 564.623 497.738 574.073 492.716 581.462L344.05 800.171C340.594 805.254 335.522 808.932 329.766 810.529L56.7654 886.248C50.0283 888.117 42.9323 886.976 37.2244 883.108L-143.58 760.572Z" fill="url(#paint30_linear_40_1933)" fill-opacity="0.3"/>
<path opacity="0.463768" fill-rule="evenodd" clip-rule="evenodd" d="M8.86553 876.964L-163.863 745.19C-170.757 739.93 -173.983 730.972 -172.162 722.147L-126.536 501.044C-125.196 494.55 -121.262 488.857 -115.709 485.377L124.202 334.992C128.972 332.002 134.582 330.868 139.985 331.802L387.18 374.54C394.928 375.88 401.31 381.297 404.027 388.838L473.599 581.995C476.315 589.537 474.973 598.114 470.057 604.635L313.189 812.675C309.76 817.222 304.879 820.38 299.457 821.559L26.7483 880.886C20.4363 882.259 13.9386 880.834 8.86553 876.964ZM-165.069 746.833C-172.562 741.116 -176.069 731.378 -174.09 721.786L-128.463 500.683C-127.007 493.624 -122.731 487.437 -116.695 483.653L123.216 333.268C128.4 330.018 134.499 328.786 140.371 329.801L387.566 372.54C395.987 373.995 402.925 379.884 405.878 388.081L475.45 581.238C478.403 589.435 476.944 598.759 471.6 605.846L314.732 813.886C311.005 818.828 305.699 822.261 299.806 823.543L27.0973 882.87C20.2364 884.363 13.1737 882.814 7.65949 878.607L-165.069 746.833Z" fill="url(#paint31_linear_40_1933)" fill-opacity="0.3"/>
<path opacity="0.478261" fill-rule="evenodd" clip-rule="evenodd" d="M-19.9905 872.009L-184.23 731.565C-190.782 725.961 -193.533 716.938 -191.322 708.301L-135.909 491.795C-134.263 485.365 -130.042 479.87 -124.297 476.681L119.226 341.494C124.186 338.74 129.908 337.915 135.305 339.175L377.026 395.594C384.666 397.377 390.736 403.111 393.063 410.744L452.659 606.218C454.986 613.852 453.238 622.293 448.041 628.522L283.601 825.586C279.929 829.986 274.845 832.902 269.314 833.782L-2.26059 876.962C-8.6669 877.981 -15.1126 876.18 -19.9905 872.009ZM-185.525 733.131C-192.648 727.041 -195.638 717.233 -193.235 707.845L-137.822 491.339C-136.033 484.35 -131.444 478.377 -125.2 474.911L118.323 339.724C123.715 336.731 129.934 335.834 135.8 337.203L377.521 393.622C385.826 395.56 392.424 401.793 394.953 410.09L454.549 605.564C457.078 613.861 455.178 623.036 449.529 629.807L285.089 826.871C281.098 831.653 275.572 834.824 269.56 835.78L-2.01462 878.96C-8.978 880.067 -15.9842 878.11 -21.2862 873.576L-185.525 733.131Z" fill="url(#paint32_linear_40_1933)" fill-opacity="0.3"/>
<path opacity="0.492754" fill-rule="evenodd" clip-rule="evenodd" d="M-48.2169 866.57L-203.588 718.046C-209.788 712.119 -212.067 703.052 -209.479 694.616L-144.605 483.198C-142.656 476.849 -138.158 471.57 -132.238 468.686L114.082 348.678C119.219 346.175 125.034 345.669 130.405 347.255L365.999 416.861C373.51 419.08 379.254 425.114 381.191 432.821L430.771 630.018C432.708 637.724 430.565 646.011 425.101 651.935L253.727 837.756C249.82 841.992 244.547 844.652 238.924 845.222L-30.6985 872.549C-37.1784 873.205 -43.5506 871.031 -48.2169 866.57ZM-204.969 719.532C-211.707 713.09 -214.185 703.235 -211.372 694.065L-146.497 482.647C-144.38 475.745 -139.49 470.007 -133.056 466.872L113.265 346.864C118.848 344.144 125.169 343.594 131.007 345.319L366.601 414.924C374.765 417.336 381.008 423.895 383.114 432.271L432.694 629.468C434.8 637.845 432.47 646.852 426.531 653.291L255.157 839.112C250.91 843.717 245.178 846.608 239.067 847.228L-30.5555 874.554C-37.599 875.268 -44.5253 872.905 -49.5974 868.056L-204.969 719.532Z" fill="url(#paint33_linear_40_1933)" fill-opacity="0.3"/>
<path opacity="0.507246" fill-rule="evenodd" clip-rule="evenodd" d="M-75.7934 860.689L-221.952 704.694C-227.788 698.465 -229.602 689.373 -226.647 681.153L-152.66 475.288C-150.413 469.036 -145.65 463.99 -139.572 461.422L108.744 356.528C114.042 354.29 119.93 354.11 125.255 356.024L354.101 438.288C361.461 440.934 366.868 447.251 368.416 455.012L407.971 653.339C409.519 661.1 406.99 669.214 401.277 674.822L223.611 849.173C219.477 853.23 214.03 855.618 208.335 855.87L-58.5451 867.683C-65.0775 867.972 -71.3544 865.427 -75.7934 860.689ZM-223.412 706.094C-229.756 699.324 -231.727 689.442 -228.515 680.506L-154.528 474.641C-152.085 467.845 -146.908 462.361 -140.302 459.57L108.014 354.676C113.773 352.243 120.172 352.048 125.961 354.128L354.807 436.392C362.807 439.268 368.684 446.134 370.367 454.57L409.922 652.897C411.605 661.333 408.856 670.153 402.645 676.248L224.98 850.599C220.486 855.009 214.565 857.605 208.375 857.879L-58.505 869.692C-65.6054 870.006 -72.4282 867.239 -77.2532 862.09L-223.412 706.094Z" fill="url(#paint34_linear_40_1933)" fill-opacity="0.3"/>
<path opacity="0.521739" fill-rule="evenodd" clip-rule="evenodd" d="M203.173 922.168L94.8668 716.267C92.3345 711.453 91.7798 705.499 93.3131 699.59L158.892 446.869C160.805 439.497 165.764 432.959 172.288 429.21L355.087 324.158C362.544 319.872 370.978 319.834 377.193 324.057L545.222 438.238C549.874 441.399 552.817 446.641 553.389 452.785L577.287 709.293C577.859 715.437 576.013 721.969 572.163 727.419L433.113 924.284C427.97 931.566 419.941 935.96 412.07 935.802L219.123 931.924C212.237 931.786 206.332 928.174 203.173 922.168ZM93.1357 717.476C90.3832 712.244 89.7803 705.772 91.4469 699.349L157.026 446.628C159.105 438.615 164.496 431.509 171.587 427.434L354.386 322.381C362.491 317.723 371.658 317.682 378.414 322.272L546.443 436.453C551.499 439.889 554.698 445.587 555.321 452.265L579.218 708.773C579.84 715.451 577.834 722.551 573.649 728.475L434.599 925.34C429.008 933.255 420.282 938.032 411.726 937.86L218.779 933.982C211.294 933.831 204.876 929.905 201.442 923.377L93.1357 717.476Z" fill="url(#paint35_linear_40_1933)" fill-opacity="0.3"/>
<path opacity="0.536232" fill-rule="evenodd" clip-rule="evenodd" d="M-128.943 847.773L-255.787 678.726C-260.87 671.952 -261.766 662.867 -258.115 655.115L-167.022 461.657C-164.193 455.648 -158.941 451.115 -152.602 449.212L97.3599 374.159C102.933 372.486 108.905 372.98 114.075 375.542L327.71 481.412C334.705 484.878 339.406 491.709 340.177 499.525L359.785 698.347C360.556 706.163 357.29 713.886 351.124 718.827L162.812 869.72C158.254 873.372 152.509 875.178 146.731 874.777L-112.41 856.75C-118.982 856.293 -125.004 853.023 -128.943 847.773ZM-257.388 679.944C-262.913 672.581 -263.887 662.706 -259.919 654.279L-168.827 460.821C-165.751 454.29 -160.042 449.363 -153.152 447.294L96.8098 372.241C102.868 370.422 109.358 370.959 114.979 373.744L328.613 479.614C336.217 483.382 341.327 490.806 342.165 499.303L361.773 698.124C362.611 706.62 359.061 715.015 352.358 720.385L164.046 871.278C159.092 875.248 152.848 877.211 146.567 876.775L-112.574 858.748C-119.717 858.251 -126.263 854.697 -130.545 848.99L-257.388 679.944Z" fill="url(#paint36_linear_40_1933)" fill-opacity="0.3"/>
<path opacity="0.550725" fill-rule="evenodd" clip-rule="evenodd" d="M-154.492 840.821L-271.306 666.22C-276 659.204 -276.445 650.149 -272.465 642.648L-173.416 455.991C-170.305 450.128 -164.829 445.873 -158.389 444.315L91.2615 383.901C96.946 382.526 102.926 383.363 107.988 386.242L313.233 503.002C320.016 506.861 324.35 513.921 324.734 521.74L334.481 719.938C334.865 727.757 331.248 735.261 324.88 739.854L132.212 878.839C127.46 882.267 121.595 883.765 115.806 883.03L-138.402 850.759C-144.96 849.926 -150.823 846.305 -154.492 840.821ZM-272.969 667.341C-278.072 659.715 -278.556 649.872 -274.229 641.719L-175.18 455.062C-171.798 448.689 -165.847 444.064 -158.847 442.37L90.8038 381.957C96.9825 380.461 103.483 381.371 108.985 384.501L314.23 501.261C321.603 505.456 326.313 513.13 326.731 521.628L336.478 719.826C336.896 728.325 332.964 736.481 326.042 741.474L133.374 880.459C128.209 884.185 121.833 885.814 115.542 885.015L-138.667 852.744C-145.795 851.839 -152.167 847.903 -156.155 841.941L-272.969 667.341Z" fill="url(#paint37_linear_40_1933)" fill-opacity="0.3"/>
<path opacity="0.565217" fill-rule="evenodd" clip-rule="evenodd" d="M-178.617 833.895L-285.094 654.264C-289.38 647.033 -289.38 638.039 -285.094 630.808L-178.617 451.177C-175.234 445.469 -169.55 441.5 -163.025 440.29L85.2554 394.25C91.0406 393.178 97.017 394.363 101.955 397.562L298.099 524.643C304.642 528.883 308.592 536.149 308.592 543.946V741.126C308.592 748.923 304.642 756.189 298.099 760.428L101.955 887.51C97.017 890.709 91.0406 891.894 85.2554 890.821L-163.025 844.782C-169.55 843.572 -175.234 839.603 -178.617 833.895ZM-286.814 655.283C-291.473 647.424 -291.473 637.648 -286.814 629.788L-180.338 450.157C-176.66 443.952 -170.482 439.639 -163.39 438.324L84.8907 392.284C91.179 391.118 97.6751 392.406 103.043 395.884L299.186 522.965C306.299 527.573 310.592 535.471 310.592 543.946V741.126C310.592 749.601 306.299 757.498 299.186 762.107L103.043 889.188C97.6751 892.666 91.179 893.954 84.8907 892.788L-163.39 846.748C-170.482 845.433 -176.66 841.119 -180.338 834.915L-286.814 655.283Z" fill="url(#paint38_linear_40_1933)" fill-opacity="0.3"/>
<path opacity="0.57971" fill-rule="evenodd" clip-rule="evenodd" d="M-203.511 826.148L-299.709 642.43C-303.606 634.989 -303.166 626.043 -298.561 619.076L-184.87 447.081C-181.217 441.554 -175.343 437.894 -168.762 437.044L78.1057 405.137C83.9552 404.381 89.8861 405.908 94.67 409.4L281.761 545.993C288.065 550.595 291.637 558.059 291.255 565.831L281.653 761.089C281.271 768.861 276.986 775.886 270.266 779.761L70.8022 894.763C65.702 897.704 59.6539 898.561 53.9106 897.158L-188.475 837.925C-194.937 836.346 -200.42 832.052 -203.511 826.148ZM-301.479 643.35C-305.714 635.261 -305.236 625.537 -300.23 617.965L-186.54 445.97C-182.569 439.962 -176.185 435.984 -169.031 435.06L77.8367 403.153C84.1948 402.331 90.6415 403.99 95.8413 407.787L282.932 544.379C289.784 549.381 293.667 557.495 293.251 565.943L283.65 761.201C283.234 769.648 278.577 777.285 271.272 781.496L71.8089 896.499C66.2652 899.695 59.6911 900.627 53.4484 899.101L-188.937 839.868C-195.961 838.152 -201.921 833.484 -205.28 827.068L-301.479 643.35Z" fill="url(#paint39_linear_40_1933)" fill-opacity="0.3"/>
<path opacity="0.594203" fill-rule="evenodd" clip-rule="evenodd" d="M-226.973 818.512L-312.661 631.242C-316.149 623.617 -315.275 614.751 -310.375 608.066L-190.026 443.875C-186.114 438.538 -180.066 435.192 -173.445 434.701L70.9994 416.585C76.9018 416.147 82.7741 418.016 87.3893 421.801L264.798 567.295C270.835 572.246 274.014 579.884 273.253 587.608L254.222 780.573C253.46 788.296 248.86 795.063 241.989 798.568L40.0738 901.572C34.8211 904.252 28.7125 904.779 23.0243 903.043L-212.544 831.159C-218.925 829.212 -224.188 824.599 -226.973 818.512ZM-314.474 632.057C-318.266 623.77 -317.316 614.132 -311.99 606.866L-191.64 442.675C-187.388 436.874 -180.815 433.237 -173.618 432.704L70.8265 414.588C77.2422 414.112 83.6251 416.144 88.6417 420.258L266.05 565.751C272.612 571.133 276.068 579.435 275.24 587.83L256.21 780.795C255.382 789.191 250.382 796.546 242.913 800.356L40.9977 903.36C35.2881 906.272 28.6484 906.845 22.4656 904.958L-213.102 833.074C-220.038 830.958 -225.759 825.944 -228.786 819.327L-314.474 632.057Z" fill="url(#paint40_linear_40_1933)" fill-opacity="0.3"/>
<path opacity="0.608696" fill-rule="evenodd" clip-rule="evenodd" d="M-249.738 810.732L-324.831 620.584C-327.906 612.797 -326.603 604.025 -321.42 597.633L-194.868 441.521C-190.706 436.388 -184.502 433.366 -177.861 433.237L63.5058 428.553C69.4412 428.438 75.2325 430.646 79.6603 434.712L247.036 588.406C252.79 593.69 255.57 601.483 254.432 609.141L226.174 799.285C225.036 806.943 220.132 813.439 213.128 816.569L9.37939 907.619C3.98933 910.028 -2.15871 910.22 -7.77017 908.156L-235.966 824.212C-242.244 821.902 -247.268 816.985 -249.738 810.732ZM-326.682 621.294C-330.025 612.83 -328.608 603.296 -322.975 596.347L-196.422 440.236C-191.899 434.656 -185.155 431.371 -177.937 431.231L63.4301 426.548C69.8816 426.422 76.1765 428.822 80.9893 433.242L248.365 586.936C254.62 592.679 257.641 601.15 256.404 609.474L228.146 799.617C226.909 807.942 221.579 815.003 213.965 818.405L10.2171 909.455C4.35831 912.073 -2.32436 912.282 -8.42376 910.038L-236.62 826.094C-243.444 823.584 -248.905 818.239 -251.589 811.442L-326.682 621.294Z" fill="url(#paint41_linear_40_1933)" fill-opacity="0.3"/>
<path opacity="0.623188" fill-rule="evenodd" clip-rule="evenodd" d="M-271.799 802.85L-336.251 610.497C-338.908 602.568 -337.181 593.909 -331.728 587.817L-199.436 440.032C-195.035 435.115 -188.692 432.424 -182.053 432.658L55.612 441.017C61.5602 441.226 67.2486 443.767 71.4713 448.101L228.507 609.281C233.963 614.881 236.336 622.809 234.825 630.386L197.566 817.195C196.055 824.772 190.862 830.986 183.741 833.736L-21.2329 912.911C-26.7445 915.04 -32.911 914.895 -38.4247 912.508L-258.732 817.122C-264.886 814.458 -269.654 809.25 -271.799 802.85ZM-338.134 611.101C-341.022 602.483 -339.145 593.07 -333.217 586.449L-200.926 438.664C-196.142 433.32 -189.247 430.395 -182.031 430.649L55.6342 439.007C62.0996 439.235 68.2827 441.997 72.8725 446.708L229.909 607.888C235.838 613.974 238.418 622.592 236.775 630.827L199.517 817.637C197.874 825.873 192.229 832.627 184.489 835.617L-20.4845 914.791C-26.4754 917.105 -33.1781 916.948 -39.1713 914.353L-259.479 818.967C-266.168 816.071 -271.351 810.41 -273.682 803.454L-338.134 611.101Z" fill="url(#paint42_linear_40_1933)" fill-opacity="0.3"/>
<path opacity="0.637681" fill-rule="evenodd" clip-rule="evenodd" d="M-293.163 794.91L-346.966 601.023C-349.2 592.972 -347.055 584.441 -341.343 578.659L-203.784 439.418C-199.153 434.73 -192.689 432.378 -186.072 432.972L47.2941 453.951C53.2351 454.485 58.7995 457.352 62.8 461.94L209.231 629.881C214.372 635.778 216.333 643.82 214.453 651.299L168.447 834.281C166.567 841.76 161.096 847.68 153.876 850.047L-51.7274 917.46C-57.3446 919.302 -63.5086 918.82 -68.9042 916.116L-280.847 809.93C-286.856 806.92 -291.351 801.438 -293.163 794.91ZM-348.874 601.52C-351.303 592.769 -348.971 583.496 -342.762 577.211L-205.204 437.97C-200.17 432.875 -193.143 430.318 -185.951 430.964L47.4147 451.943C53.8724 452.523 59.9206 455.639 64.269 460.627L210.7 628.568C216.289 634.978 218.42 643.719 216.376 651.848L170.371 834.831C168.327 842.96 162.38 849.395 154.532 851.968L-51.0714 919.38C-57.177 921.382 -63.877 920.858 -69.7418 917.92L-281.685 811.734C-288.217 808.461 -293.102 802.502 -295.071 795.407L-348.874 601.52Z" fill="url(#paint43_linear_40_1933)" fill-opacity="0.3"/>
<path opacity="0.652174" fill-rule="evenodd" clip-rule="evenodd" d="M-313.836 786.95L-357.018 592.193C-358.826 584.042 -356.269 575.655 -350.311 570.192L-207.962 439.681C-203.112 435.234 -196.544 433.226 -189.97 434.179L38.5317 467.325C44.446 468.182 49.8658 471.367 53.6286 476.194L189.231 650.161C194.045 656.337 195.588 664.473 193.343 671.837L138.867 850.519C136.622 857.883 130.886 863.498 123.585 865.479L-82.0671 921.277C-87.7737 922.825 -93.9146 922.006 -99.1725 918.995L-302.314 802.671C-308.159 799.325 -312.365 793.585 -313.836 786.95ZM-358.947 592.583C-360.911 583.723 -358.132 574.606 -351.656 568.669L-209.307 438.157C-204.035 433.324 -196.896 431.141 -189.75 432.178L38.7513 465.323C45.1798 466.255 51.0709 469.716 55.1609 474.964L190.763 648.931C195.996 655.644 197.673 664.487 195.233 672.492L140.757 851.173C138.317 859.178 132.082 865.281 124.146 867.434L-81.5061 923.232C-87.7089 924.915 -94.3838 924.025 -100.099 920.752L-303.241 804.428C-309.594 800.791 -314.166 794.552 -315.765 787.34L-358.947 592.583Z" fill="url(#paint44_linear_40_1933)" fill-opacity="0.3"/>
<path opacity="0.666667" fill-rule="evenodd" clip-rule="evenodd" d="M-333.834 779.007L-366.459 584.038C-367.836 575.807 -364.874 567.582 -358.682 562.447L-212.024 440.822C-206.966 436.628 -200.312 434.968 -193.8 436.277L29.3014 481.109C35.1698 482.288 40.4256 485.779 43.9361 490.83L168.529 670.083C173.002 676.518 174.124 684.727 171.519 691.959L108.872 865.888C106.267 873.12 100.28 878.42 92.915 880.013L-112.22 924.374C-118 925.624 -124.098 924.471 -129.199 921.162L-323.144 795.381C-328.806 791.71 -332.708 785.731 -333.834 779.007ZM-368.401 584.32C-369.898 575.374 -366.678 566.433 -359.948 560.852L-213.29 439.227C-207.793 434.668 -200.56 432.864 -193.482 434.286L29.62 479.119C35.9986 480.401 41.7115 484.195 45.5272 489.685L170.12 668.938C174.982 675.933 176.201 684.855 173.37 692.716L110.723 866.645C107.892 874.506 101.383 880.267 93.3786 881.999L-111.757 926.36C-118.039 927.718 -124.667 926.465 -130.212 922.868L-324.157 797.087C-330.311 793.097 -334.553 786.599 -335.776 779.29L-368.401 584.32Z" fill="url(#paint45_linear_40_1933)" fill-opacity="0.3"/>
<path opacity="0.681159" fill-rule="evenodd" clip-rule="evenodd" d="M-353.157 771.127L-375.327 576.591C-376.271 568.302 -372.91 560.256 -366.498 555.458L-216.013 442.846C-210.759 438.914 -204.037 437.607 -197.606 439.265L19.5932 495.279C25.3972 496.776 30.4706 500.563 33.7154 505.82L147.161 689.614C151.281 696.288 151.977 704.547 149.018 711.631L78.5209 880.378C75.5615 887.462 69.3364 892.437 61.9258 893.64L-142.145 926.774C-147.982 927.722 -154.017 926.237 -158.944 922.642L-343.338 788.101C-348.798 784.118 -352.383 777.919 -353.157 771.127ZM-377.278 576.766C-378.304 567.757 -374.651 559.011 -367.681 553.796L-217.196 441.184C-211.485 436.91 -204.179 435.489 -197.188 437.292L20.0106 493.306C26.3193 494.933 31.8339 499.049 35.3609 504.763L148.807 688.557C153.284 695.811 154.041 704.789 150.825 712.489L80.3279 881.236C77.1111 888.936 70.3446 894.343 62.2896 895.651L-141.781 928.785C-148.125 929.815 -154.685 928.201 -160.041 924.293L-344.435 789.753C-350.369 785.423 -354.267 778.685 -355.108 771.303L-377.278 576.766Z" fill="url(#paint46_linear_40_1933)" fill-opacity="0.3"/>
<path opacity="0.695652" fill-rule="evenodd" clip-rule="evenodd" d="M-371.821 763.342L-383.67 569.872C-384.18 561.548 -380.428 553.699 -373.809 549.246L-219.979 445.743C-214.54 442.084 -207.769 441.131 -201.437 443.133L9.39052 509.8C15.1124 511.609 19.9863 515.679 22.9534 521.125L125.156 708.716C128.911 715.608 129.18 723.895 125.872 730.813L47.8652 893.975C44.5575 900.893 38.1089 905.533 30.6697 906.346L-171.806 928.49C-177.684 929.133 -183.638 927.323 -188.375 923.453L-362.904 780.863C-368.146 776.581 -371.402 770.182 -371.821 763.342ZM-385.624 569.941C-386.178 560.893 -382.099 552.361 -374.905 547.521L-221.075 444.018C-215.164 440.041 -207.803 439.005 -200.921 441.181L9.9065 507.848C16.1259 509.815 21.4237 514.239 24.6487 520.158L126.851 707.748C130.933 715.24 131.225 724.248 127.63 731.768L49.6228 894.929C46.0275 902.449 39.0181 907.492 30.932 908.376L-171.544 930.52C-177.933 931.219 -184.405 929.251 -189.554 925.045L-364.082 782.455C-369.78 777.8 -373.32 770.845 -373.775 763.411L-385.624 569.941Z" fill="url(#paint47_linear_40_1933)" fill-opacity="0.3"/>
<path opacity="0.710145" fill-rule="evenodd" clip-rule="evenodd" d="M-389.84 755.691L-391.538 563.905C-391.612 555.569 -387.476 547.935 -380.665 543.836L-223.971 449.51C-218.36 446.132 -211.556 445.535 -205.341 447.873L-1.3211 524.643C4.30181 526.759 8.96026 531.098 11.6387 536.715L102.545 727.359C105.925 734.447 105.763 742.739 102.115 749.475L16.9557 906.671C13.3069 913.406 6.64933 917.701 -0.801044 918.126L-201.172 929.545C-207.076 929.882 -212.931 927.752 -217.462 923.62L-381.855 773.703C-386.863 769.136 -389.78 762.557 -389.84 755.691ZM-393.49 563.868C-393.57 554.807 -389.075 546.509 -381.672 542.053L-224.977 447.727C-218.879 444.056 -211.483 443.407 -204.727 445.949L-0.707277 522.718C5.40458 525.018 10.4681 529.735 13.3795 535.84L104.285 726.484C107.959 734.189 107.784 743.202 103.818 750.523L18.6591 907.719C14.6929 915.04 7.45648 919.708 -0.64173 920.17L-201.013 931.589C-207.43 931.955 -213.794 929.64 -218.719 925.149L-383.112 775.232C-388.556 770.268 -391.726 763.117 -391.792 755.653L-393.49 563.868Z" fill="url(#paint48_linear_40_1933)" fill-opacity="0.3"/>
<path opacity="0.724638" fill-rule="evenodd" clip-rule="evenodd" d="M-407.223 748.209L-398.97 558.708C-398.608 550.384 -394.099 542.984 -387.111 539.246L-228.029 454.134C-222.259 451.048 -215.439 450.806 -209.357 453.473L-12.546 539.775C-7.03798 542.191 -2.60965 546.786 -0.229373 552.556L79.3676 745.513C82.3635 752.776 81.7721 761.049 77.7899 767.585L-14.1472 918.462C-18.1295 924.997 -24.9809 928.938 -32.4249 928.975L-230.202 929.962C-236.116 929.992 -241.856 927.55 -246.167 923.169L-400.196 766.656C-404.955 761.82 -407.522 755.081 -407.223 748.209ZM-400.914 558.566C-400.52 549.518 -395.619 541.474 -388.023 537.411L-228.941 452.299C-222.67 448.944 -215.257 448.682 -208.647 451.58L-11.8353 537.883C-5.84828 540.508 -1.03488 545.503 1.55236 551.775L81.1494 744.732C84.4058 752.626 83.763 761.619 79.4344 768.723L-12.5027 919.6C-16.8312 926.704 -24.2784 930.987 -32.3697 931.028L-230.147 932.015C-236.575 932.047 -242.815 929.392 -247.5 924.631L-401.529 768.118C-406.702 762.861 -409.492 755.536 -409.167 748.066L-400.914 558.566Z" fill="url(#paint49_linear_40_1933)" fill-opacity="0.3"/>
<path opacity="0.73913" fill-rule="evenodd" clip-rule="evenodd" d="M-423.996 740.932L-406.026 554.299C-405.228 546.01 -400.356 538.863 -393.206 535.493L-232.21 459.607C-226.294 456.819 -219.474 456.932 -213.543 459.918L-24.305 555.167C-18.9268 557.874 -14.742 562.711 -12.6683 568.616L55.6489 763.155C58.2523 770.568 57.2313 778.799 52.9245 785.117L-45.4027 929.349C-49.7096 935.667 -56.7391 939.245 -64.1593 938.897L-258.876 929.768C-264.786 929.491 -270.395 926.744 -274.473 922.129L-417.95 759.756C-422.448 754.666 -424.656 747.789 -423.996 740.932ZM-407.958 554.052C-407.091 545.043 -401.795 537.275 -394.023 533.612L-233.027 457.725C-226.596 454.694 -219.184 454.818 -212.736 458.063L-23.4986 553.313C-17.6527 556.255 -13.104 561.512 -10.8501 567.93L57.4672 762.47C60.297 770.528 59.1872 779.474 54.5058 786.341L-43.8214 930.574C-48.5027 937.441 -56.1435 941.33 -64.209 940.952L-258.925 931.823C-265.35 931.522 -271.446 928.536 -275.879 923.52L-419.356 761.147C-424.245 755.614 -426.645 748.139 -425.928 740.685L-407.958 554.052Z" fill="url(#paint50_linear_40_1933)" fill-opacity="0.3"/>
<path opacity="0.753623" fill-rule="evenodd" clip-rule="evenodd" d="M-440.176 733.889L-412.752 550.684C-411.52 542.457 -406.296 535.582 -399.001 532.587L-236.556 465.908C-230.507 463.425 -223.704 463.893 -217.937 467.188L-36.6029 570.783C-31.3685 573.773 -27.4393 578.836 -25.6796 584.857L31.4275 780.255C33.6313 787.796 32.1826 795.959 27.5611 802.042L-76.756 939.331C-81.3775 945.413 -88.5687 948.621 -95.948 947.891L-287.16 928.985C-293.052 928.403 -298.516 925.359 -302.349 920.525L-435.131 753.032C-439.354 747.704 -441.197 740.71 -440.176 733.889ZM-414.666 550.335C-413.327 541.392 -407.649 533.919 -399.72 530.665L-237.274 463.985C-230.699 461.287 -223.306 461.795 -217.037 465.376L-35.7025 568.971C-30.0129 572.221 -25.742 577.724 -23.8292 584.269L33.2778 779.667C35.6733 787.864 34.0986 796.737 29.0752 803.348L-75.2419 940.638C-80.2653 947.249 -88.0818 950.735 -96.1028 949.942L-287.315 931.037C-293.719 930.403 -299.658 927.095 -303.824 921.84L-436.606 754.347C-441.197 748.556 -443.2 740.954 -442.09 733.539L-414.666 550.335Z" fill="url(#paint51_linear_40_1933)" fill-opacity="0.3"/>
<path opacity="0.768116" fill-rule="evenodd" clip-rule="evenodd" d="M-455.779 727.112L-419.19 547.873C-417.529 539.733 -411.966 533.15 -404.544 530.537L-241.107 473.021C-234.939 470.85 -228.169 471.669 -222.58 475.263L-49.4429 586.589C-44.3651 589.854 -40.7024 595.128 -39.2628 601.247L6.74321 796.794C8.54158 804.438 6.66846 812.509 1.74317 818.338L-108.153 948.414C-113.078 954.243 -120.414 957.072 -127.735 955.965L-315.023 927.644C-320.884 926.757 -326.188 923.427 -329.766 918.386L-451.751 746.514C-455.688 740.966 -457.16 733.877 -455.779 727.112ZM-421.082 547.423C-419.276 538.574 -413.23 531.418 -405.162 528.579L-241.726 471.063C-235.021 468.703 -227.663 469.594 -221.588 473.5L-48.4502 584.826C-42.931 588.375 -38.9498 594.107 -37.3849 600.758L8.62107 796.305C10.5758 804.614 8.5398 813.387 3.18624 819.723L-106.71 949.798C-112.063 956.135 -120.037 959.21 -127.995 958.007L-315.283 929.685C-321.653 928.722 -327.419 925.101 -331.308 919.622L-453.292 747.75C-457.572 741.72 -459.172 734.014 -457.671 726.661L-421.082 547.423Z" fill="url(#paint52_linear_40_1933)" fill-opacity="0.3"/>
<path opacity="0.782609" fill-rule="evenodd" clip-rule="evenodd" d="M-470.834 720.634L-425.397 545.875C-423.31 537.847 -417.424 531.574 -409.891 529.35L-245.912 480.926C-239.638 479.073 -232.917 480.242 -227.52 484.123L-62.835 602.556C-57.9259 606.087 -54.5395 611.557 -53.4252 617.755L-18.3723 812.754C-16.9841 820.476 -19.2768 828.43 -24.4936 833.989L-139.549 956.608C-144.766 962.168 -152.228 964.611 -159.474 963.132L-342.445 925.775C-348.261 924.587 -353.394 920.978 -356.706 915.746L-467.834 740.235C-471.476 734.483 -472.572 727.321 -470.834 720.634ZM-427.262 545.324C-424.993 536.598 -418.596 529.78 -410.408 527.362L-246.429 478.939C-239.609 476.925 -232.304 478.194 -226.437 482.413L-61.7525 600.847C-56.4165 604.684 -52.7356 610.63 -51.5244 617.367L-16.4715 812.366C-14.9626 820.76 -17.4546 829.405 -23.1251 835.448L-138.18 958.067C-143.851 964.11 -151.963 966.766 -159.839 965.158L-342.809 927.8C-349.131 926.51 -354.71 922.587 -358.31 916.9L-469.439 741.389C-473.397 735.137 -474.588 727.351 -472.699 720.083L-427.262 545.324Z" fill="url(#paint53_linear_40_1933)" fill-opacity="0.3"/>
<path opacity="0.797101" fill-rule="evenodd" clip-rule="evenodd" d="M-485.355 714.48L-431.412 544.689C-428.905 536.801 -422.713 530.858 -415.089 529.026L-251.006 489.6C-244.639 488.07 -237.981 489.584 -232.788 493.741L-76.7755 618.65C-72.046 622.436 -68.9446 628.087 -68.16 634.348L-43.8744 828.118C-42.8999 835.893 -45.6057 843.704 -51.1006 848.977L-170.889 963.925C-176.383 969.198 -183.955 971.249 -191.109 969.404L-369.392 923.409C-375.152 921.923 -380.101 918.045 -383.141 912.636L-483.394 734.222C-486.731 728.283 -487.448 721.068 -485.355 714.48ZM-433.245 544.04C-430.521 535.465 -423.79 529.006 -415.503 527.015L-251.42 487.589C-244.5 485.926 -237.263 487.571 -231.618 492.09L-75.6056 616.999C-70.4649 621.114 -67.0937 627.257 -66.2408 634.062L-41.9553 827.832C-40.896 836.284 -43.8372 844.773 -49.8098 850.505L-169.598 965.453C-175.571 971.184 -183.8 973.414 -191.576 971.408L-369.86 925.413C-376.121 923.798 -381.5 919.583 -384.804 913.704L-485.057 735.289C-488.684 728.834 -489.463 720.992 -487.188 713.831L-433.245 544.04Z" fill="url(#paint54_linear_40_1933)" fill-opacity="0.3"/>
<path opacity="0.942029" fill-rule="evenodd" clip-rule="evenodd" d="M-185.552 702.248L-101.08 586.581C-93.9773 576.855 -82.5505 572.726 -73.7351 576.7L31.1075 623.957C35.8208 626.081 39.2511 630.311 40.7024 635.788L93.4596 834.887C94.561 839.044 94.4671 843.712 93.1893 848.332L41.7501 1034.29C39.1813 1043.58 32.1952 1051.44 23.8177 1054.46L-75.8944 1090.49C-84.2719 1093.52 -92.5342 1091.17 -97.1027 1084.47L-188.585 950.153C-190.858 946.816 -192.061 942.616 -192.049 938.058L-191.487 719.691C-191.472 713.684 -189.35 707.448 -185.552 702.248ZM-102.461 585.473C-94.7409 574.902 -82.3204 570.413 -72.7385 574.732L32.1041 621.989C37.2273 624.298 40.9558 628.896 42.5334 634.849L95.2906 833.949C96.4877 838.466 96.3857 843.541 94.9968 848.562L43.5576 1034.52C40.7654 1044.61 33.1718 1053.16 24.0658 1056.45L-75.6462 1092.48C-84.7522 1095.77 -93.733 1093.22 -98.6988 1085.93L-190.181 951.613C-192.652 947.987 -193.959 943.421 -193.946 938.467L-193.384 720.1C-193.367 713.57 -191.061 706.792 -186.933 701.14L-102.461 585.473Z" fill="url(#paint55_linear_40_1933)" fill-opacity="0.3"/>
<path opacity="0.956522" fill-rule="evenodd" clip-rule="evenodd" d="M-193.581 700.661L-106.866 595.217C-99.3114 586.03 -87.4608 582.839 -78.6057 587.607L23.0312 642.336C27.7005 644.85 31.0043 649.323 32.2792 654.855L78.1822 854.055C79.1452 858.233 78.9027 862.813 77.4835 867.254L20.8198 1044.56C17.9265 1053.61 10.5549 1060.89 1.91962 1063.22L-96.9999 1089.85C-105.635 1092.18 -113.968 1089.13 -118.366 1082.04L-204.485 943.178C-206.642 939.7 -207.705 935.471 -207.549 930.991L-200.101 717.426C-199.894 711.495 -197.565 705.506 -193.581 700.661ZM-108.238 594.012C-100.026 584.026 -87.1452 580.557 -77.5201 585.74L24.1168 640.469C29.1921 643.202 32.7832 648.063 34.169 654.077L80.072 853.276C81.1187 857.818 80.8552 862.796 79.3125 867.624L22.6488 1044.93C19.5039 1054.77 11.4913 1062.68 2.10514 1065.21L-96.8143 1091.84C-106.201 1094.37 -115.258 1091.06 -120.038 1083.35L-206.157 944.49C-208.502 940.709 -209.657 936.113 -209.488 931.244L-202.04 717.679C-201.815 711.231 -199.283 704.721 -194.953 699.456L-108.238 594.012Z" fill="url(#paint56_linear_40_1933)" fill-opacity="0.3"/>
<path opacity="0.971014" fill-rule="evenodd" clip-rule="evenodd" d="M-201.461 699.704L-112.798 604.436C-104.854 595.9 -92.7225 593.732 -83.9085 599.273L14.4679 661.121C19.0887 664.026 22.2694 668.75 23.3741 674.35L62.5419 872.882C63.3747 877.103 62.9864 881.617 61.4225 885.895L-0.0653306 1054.12C-3.27223 1062.9 -10.967 1069.52 -19.7847 1071.1L-117.818 1088.61C-126.636 1090.19 -134.973 1086.43 -139.182 1078.98L-219.9 936.163C-221.953 932.531 -222.885 928.253 -222.587 923.83L-208.555 715.791C-208.159 709.924 -205.626 704.179 -201.461 699.704ZM-114.149 603.123C-105.515 593.845 -92.3279 591.489 -82.7475 597.512L15.629 659.359C20.6515 662.517 24.1088 667.652 25.3096 673.738L64.4774 872.271C65.3826 876.859 64.9605 881.765 63.2607 886.416L1.77281 1054.64C-1.71295 1064.18 -10.0768 1071.38 -19.6613 1073.09L-117.695 1090.61C-127.279 1092.32 -136.341 1088.24 -140.917 1080.14L-221.635 937.322C-223.866 933.373 -224.879 928.723 -224.555 923.916L-210.523 715.878C-210.093 709.5 -207.339 703.255 -202.812 698.391L-114.149 603.123Z" fill="url(#paint57_linear_40_1933)" fill-opacity="0.3"/>
<path opacity="0.985507" fill-rule="evenodd" clip-rule="evenodd" d="M-209.218 699.382L-118.871 614.216C-110.617 606.436 -98.3675 605.344 -89.6801 611.616L5.40777 680.259C9.97556 683.557 13.0355 688.545 13.9744 694.226L46.5564 891.339C47.2649 895.626 46.7303 900.097 45.0153 904.229L-20.8844 1063C-24.3906 1071.45 -32.3358 1077.36 -41.2506 1078.15L-138.35 1086.81C-147.265 1087.6 -155.53 1083.13 -159.536 1075.35L-234.837 929.163C-236.797 925.358 -237.604 921.006 -237.162 916.618L-216.879 714.794C-216.294 708.978 -213.558 703.473 -209.218 699.382ZM-120.188 612.789C-111.216 604.331 -97.9012 603.145 -88.4584 609.962L6.62945 678.605C11.5944 682.19 14.9204 687.612 15.941 693.786L48.523 890.9C49.2931 895.559 48.712 900.419 46.8479 904.91L-19.0518 1063.68C-22.8629 1072.86 -31.499 1079.29 -41.1889 1080.15L-138.288 1088.8C-147.978 1089.67 -156.962 1084.81 -161.317 1076.36L-236.618 930.166C-238.748 926.031 -239.625 921.3 -239.145 916.53L-218.861 714.706C-218.226 708.384 -215.252 702.401 -210.534 697.954L-120.188 612.789Z" fill="url(#paint58_linear_40_1933)" fill-opacity="0.3"/>
<path fill-rule="evenodd" clip-rule="evenodd" d="M-114.797 670.33L-76.545 612.77C-67.4451 599.077 -47.3333 599.077 -38.2334 612.77L0.0186272 670.331C2.21019 673.628 3.51327 677.436 3.80173 681.385L18.5143 882.801C18.695 885.275 18.4744 887.762 17.8611 890.165L-19.7245 1037.43C-22.324 1047.62 -31.4982 1054.75 -42.0102 1054.75H-72.7682C-83.2801 1054.75 -92.4544 1047.62 -95.0539 1037.43L-132.639 890.165C-133.253 887.762 -133.473 885.275 -133.293 882.801L-118.58 681.385C-118.292 677.436 -116.989 673.628 -114.797 670.33ZM-78.2107 611.663C-68.3195 596.78 -46.4589 596.78 -36.5677 611.663L1.68435 669.224C4.06648 672.808 5.48287 676.947 5.79641 681.239L20.509 882.656C20.7054 885.344 20.4656 888.047 19.799 890.659L-17.7866 1037.93C-20.6122 1049 -30.5842 1056.75 -42.0102 1056.75H-72.7682C-84.1942 1056.75 -94.1662 1049 -96.9918 1037.93L-134.577 890.659C-135.244 888.047 -135.484 885.344 -135.287 882.656L-120.575 681.239C-120.261 676.947 -118.845 672.808 -116.463 669.224L-78.2107 611.663Z" fill="url(#paint59_linear_40_1933)"/>
</g>
<defs>
<linearGradient id="paint0_linear_40_1933" x1="893.641" y1="903.471" x2="444.202" y2="-43.7186" gradientUnits="userSpaceOnUse">
<stop stop-color="#D245CE"/>
<stop offset="1" stop-color="#BAC9FF"/>
</linearGradient>
<linearGradient id="paint1_linear_40_1933" x1="851.167" y1="914.908" x2="456.732" y2="-49.25" gradientUnits="userSpaceOnUse">
<stop stop-color="#D245CE"/>
<stop offset="1" stop-color="#BAC9FF"/>
</linearGradient>
<linearGradient id="paint2_linear_40_1933" x1="808.642" y1="924.88" x2="470.065" y2="-52.8779" gradientUnits="userSpaceOnUse">
<stop stop-color="#D245CE"/>
<stop offset="1" stop-color="#BAC9FF"/>
</linearGradient>
<linearGradient id="paint3_linear_40_1933" x1="766.131" y1="933.399" x2="484.023" y2="-54.4988" gradientUnits="userSpaceOnUse">
<stop stop-color="#D245CE"/>
<stop offset="1" stop-color="#BAC9FF"/>
</linearGradient>
<linearGradient id="paint4_linear_40_1933" x1="723.727" y1="940.478" x2="498.442" y2="-54.0292" gradientUnits="userSpaceOnUse">
<stop stop-color="#D245CE"/>
<stop offset="1" stop-color="#BAC9FF"/>
</linearGradient>
<linearGradient id="paint5_linear_40_1933" x1="681.484" y1="946.138" x2="513.102" y2="-51.4085" gradientUnits="userSpaceOnUse">
<stop stop-color="#D245CE"/>
<stop offset="1" stop-color="#BAC9FF"/>
</linearGradient>
<linearGradient id="paint6_linear_40_1933" x1="639.49" y1="950.401" x2="527.812" y2="-46.6001" gradientUnits="userSpaceOnUse">
<stop stop-color="#D245CE"/>
<stop offset="1" stop-color="#BAC9FF"/>
</linearGradient>
<linearGradient id="paint7_linear_40_1933" x1="597.799" y1="953.297" x2="542.343" y2="-39.594" gradientUnits="userSpaceOnUse">
<stop stop-color="#D245CE"/>
<stop offset="1" stop-color="#BAC9FF"/>
</linearGradient>
<linearGradient id="paint8_linear_40_1933" x1="556.423" y1="954.332" x2="556.423" y2="-30.4758" gradientUnits="userSpaceOnUse">
<stop stop-color="#D245CE"/>
<stop offset="1" stop-color="#BAC9FF"/>
</linearGradient>
<linearGradient id="paint9_linear_40_1933" x1="515.626" y1="955.112" x2="570.038" y2="-19.0982" gradientUnits="userSpaceOnUse">
<stop stop-color="#D245CE"/>
<stop offset="1" stop-color="#BAC9FF"/>
</linearGradient>
<linearGradient id="paint10_linear_40_1933" x1="475.262" y1="954.108" x2="582.777" y2="-5.72627" gradientUnits="userSpaceOnUse">
<stop stop-color="#D245CE"/>
<stop offset="1" stop-color="#BAC9FF"/>
</linearGradient>
<linearGradient id="paint11_linear_40_1933" x1="435.468" y1="951.881" x2="594.521" y2="9.60063" gradientUnits="userSpaceOnUse">
<stop stop-color="#D245CE"/>
<stop offset="1" stop-color="#BAC9FF"/>
</linearGradient>
<linearGradient id="paint12_linear_40_1933" x1="396.295" y1="948.481" x2="605.091" y2="26.7641" gradientUnits="userSpaceOnUse">
<stop stop-color="#D245CE"/>
<stop offset="1" stop-color="#BAC9FF"/>
</linearGradient>
<linearGradient id="paint13_linear_40_1933" x1="357.796" y1="943.953" x2="614.327" y2="45.6198" gradientUnits="userSpaceOnUse">
<stop stop-color="#D245CE"/>
<stop offset="1" stop-color="#BAC9FF"/>
</linearGradient>
<linearGradient id="paint14_linear_40_1933" x1="320.034" y1="938.35" x2="622.107" y2="66.0109" gradientUnits="userSpaceOnUse">
<stop stop-color="#D245CE"/>
<stop offset="1" stop-color="#BAC9FF"/>
</linearGradient>
<linearGradient id="paint15_linear_40_1933" x1="283.038" y1="931.726" x2="628.301" y2="87.7668" gradientUnits="userSpaceOnUse">
<stop stop-color="#D245CE"/>
<stop offset="1" stop-color="#BAC9FF"/>
</linearGradient>
<linearGradient id="paint16_linear_40_1933" x1="246.875" y1="924.137" x2="632.845" y2="110.708" gradientUnits="userSpaceOnUse">
<stop stop-color="#D245CE"/>
<stop offset="1" stop-color="#BAC9FF"/>
</linearGradient>
<linearGradient id="paint17_linear_40_1933" x1="211.572" y1="915.643" x2="635.665" y2="134.655" gradientUnits="userSpaceOnUse">
<stop stop-color="#D245CE"/>
<stop offset="1" stop-color="#BAC9FF"/>
</linearGradient>
<linearGradient id="paint18_linear_40_1933" x1="177.17" y1="906.3" x2="636.727" y2="159.422" gradientUnits="userSpaceOnUse">
<stop stop-color="#D245CE"/>
<stop offset="1" stop-color="#BAC9FF"/>
</linearGradient>
<linearGradient id="paint19_linear_40_1933" x1="143.704" y1="896.175" x2="636.022" y2="184.835" gradientUnits="userSpaceOnUse">
<stop stop-color="#D245CE"/>
<stop offset="1" stop-color="#BAC9FF"/>
</linearGradient>
<linearGradient id="paint20_linear_40_1933" x1="111.207" y1="885.327" x2="633.56" y2="210.718" gradientUnits="userSpaceOnUse">
<stop stop-color="#D245CE"/>
<stop offset="1" stop-color="#BAC9FF"/>
</linearGradient>
<linearGradient id="paint21_linear_40_1933" x1="79.6975" y1="873.825" x2="629.363" y2="236.914" gradientUnits="userSpaceOnUse">
<stop stop-color="#D245CE"/>
<stop offset="1" stop-color="#BAC9FF"/>
</linearGradient>
<linearGradient id="paint22_linear_40_1933" x1="49.2106" y1="861.735" x2="623.49" y2="263.275" gradientUnits="userSpaceOnUse">
<stop stop-color="#D245CE"/>
<stop offset="1" stop-color="#BAC9FF"/>
</linearGradient>
<linearGradient id="paint23_linear_40_1933" x1="19.7629" y1="849.12" x2="615.999" y2="289.661" gradientUnits="userSpaceOnUse">
<stop stop-color="#D245CE"/>
<stop offset="1" stop-color="#BAC9FF"/>
</linearGradient>
<linearGradient id="paint24_linear_40_1933" x1="-8.62899" y1="836.05" x2="606.964" y2="315.958" gradientUnits="userSpaceOnUse">
<stop stop-color="#D245CE"/>
<stop offset="1" stop-color="#BAC9FF"/>
</linearGradient>
<linearGradient id="paint25_linear_40_1933" x1="-35.9622" y1="822.593" x2="596.458" y2="342.059" gradientUnits="userSpaceOnUse">
<stop stop-color="#D245CE"/>
<stop offset="1" stop-color="#BAC9FF"/>
</linearGradient>
<linearGradient id="paint26_linear_40_1933" x1="-62.2173" y1="808.817" x2="584.579" y2="367.879" gradientUnits="userSpaceOnUse">
<stop stop-color="#D245CE"/>
<stop offset="1" stop-color="#BAC9FF"/>
</linearGradient>
<linearGradient id="paint27_linear_40_1933" x1="-87.3915" y1="794.787" x2="571.417" y2="393.342" gradientUnits="userSpaceOnUse">
<stop stop-color="#D245CE"/>
<stop offset="1" stop-color="#BAC9FF"/>
</linearGradient>
<linearGradient id="paint28_linear_40_1933" x1="-111.487" y1="780.571" x2="557.062" y2="418.393" gradientUnits="userSpaceOnUse">
<stop stop-color="#D245CE"/>
<stop offset="1" stop-color="#BAC9FF"/>
</linearGradient>
<linearGradient id="paint29_linear_40_1933" x1="-134.502" y1="766.237" x2="541.611" y2="442.99" gradientUnits="userSpaceOnUse">
<stop stop-color="#D245CE"/>
<stop offset="1" stop-color="#BAC9FF"/>
</linearGradient>
<linearGradient id="paint30_linear_40_1933" x1="-156.445" y1="751.853" x2="525.149" y2="467.106" gradientUnits="userSpaceOnUse">
<stop stop-color="#D245CE"/>
<stop offset="1" stop-color="#BAC9FF"/>
</linearGradient>
<linearGradient id="paint31_linear_40_1933" x1="-177.328" y1="737.479" x2="507.76" y2="490.72" gradientUnits="userSpaceOnUse">
<stop stop-color="#D245CE"/>
<stop offset="1" stop-color="#BAC9FF"/>
</linearGradient>
<linearGradient id="paint32_linear_40_1933" x1="-197.16" y1="723.182" x2="489.526" y2="513.827" gradientUnits="userSpaceOnUse">
<stop stop-color="#D245CE"/>
<stop offset="1" stop-color="#BAC9FF"/>
</linearGradient>
<linearGradient id="paint33_linear_40_1933" x1="-215.961" y1="709.023" x2="470.516" y2="536.428" gradientUnits="userSpaceOnUse">
<stop stop-color="#D245CE"/>
<stop offset="1" stop-color="#BAC9FF"/>
</linearGradient>
<linearGradient id="paint34_linear_40_1933" x1="-233.747" y1="695.064" x2="450.799" y2="558.534" gradientUnits="userSpaceOnUse">
<stop stop-color="#D245CE"/>
<stop offset="1" stop-color="#BAC9FF"/>
</linearGradient>
<linearGradient id="paint35_linear_40_1933" x1="88.8548" y1="709.338" x2="619.561" y2="659.895" gradientUnits="userSpaceOnUse">
<stop stop-color="#D245CE"/>
<stop offset="1" stop-color="#BAC9FF"/>
</linearGradient>
<linearGradient id="paint36_linear_40_1933" x1="-266.369" y1="667.976" x2="409.46" y2="601.325" gradientUnits="userSpaceOnUse">
<stop stop-color="#D245CE"/>
<stop offset="1" stop-color="#BAC9FF"/>
</linearGradient>
<linearGradient id="paint37_linear_40_1933" x1="-281.255" y1="654.957" x2="387.93" y2="622.05" gradientUnits="userSpaceOnUse">
<stop stop-color="#D245CE"/>
<stop offset="1" stop-color="#BAC9FF"/>
</linearGradient>
<linearGradient id="paint38_linear_40_1933" x1="-294.371" y1="642.536" x2="365.976" y2="642.536" gradientUnits="userSpaceOnUse">
<stop stop-color="#D245CE"/>
<stop offset="1" stop-color="#BAC9FF"/>
</linearGradient>
<linearGradient id="paint39_linear_40_1933" x1="-308.344" y1="630.239" x2="343.3" y2="662.283" gradientUnits="userSpaceOnUse">
<stop stop-color="#D245CE"/>
<stop offset="1" stop-color="#BAC9FF"/>
</linearGradient>
<linearGradient id="paint40_linear_40_1933" x1="-320.616" y1="618.635" x2="320.241" y2="681.837" gradientUnits="userSpaceOnUse">
<stop stop-color="#D245CE"/>
<stop offset="1" stop-color="#BAC9FF"/>
</linearGradient>
<linearGradient id="paint41_linear_40_1933" x1="-332.093" y1="607.595" x2="296.697" y2="701.042" gradientUnits="userSpaceOnUse">
<stop stop-color="#D245CE"/>
<stop offset="1" stop-color="#BAC9FF"/>
</linearGradient>
<linearGradient id="paint42_linear_40_1933" x1="-342.806" y1="597.16" x2="272.682" y2="719.916" gradientUnits="userSpaceOnUse">
<stop stop-color="#D245CE"/>
<stop offset="1" stop-color="#BAC9FF"/>
</linearGradient>
<linearGradient id="paint43_linear_40_1933" x1="-352.8" y1="587.372" x2="248.188" y2="738.473" gradientUnits="userSpaceOnUse">
<stop stop-color="#D245CE"/>
<stop offset="1" stop-color="#BAC9FF"/>
</linearGradient>
<linearGradient id="paint44_linear_40_1933" x1="-362.121" y1="578.264" x2="223.209" y2="756.718" gradientUnits="userSpaceOnUse">
<stop stop-color="#D245CE"/>
<stop offset="1" stop-color="#BAC9FF"/>
</linearGradient>
<linearGradient id="paint45_linear_40_1933" x1="-370.82" y1="569.868" x2="197.729" y2="774.651" gradientUnits="userSpaceOnUse">
<stop stop-color="#D245CE"/>
<stop offset="1" stop-color="#BAC9FF"/>
</linearGradient>
<linearGradient id="paint46_linear_40_1933" x1="-378.936" y1="562.218" x2="171.74" y2="792.271" gradientUnits="userSpaceOnUse">
<stop stop-color="#D245CE"/>
<stop offset="1" stop-color="#BAC9FF"/>
</linearGradient>
<linearGradient id="paint47_linear_40_1933" x1="-386.519" y1="555.335" x2="145.229" y2="809.561" gradientUnits="userSpaceOnUse">
<stop stop-color="#D245CE"/>
<stop offset="1" stop-color="#BAC9FF"/>
</linearGradient>
<linearGradient id="paint48_linear_40_1933" x1="-393.619" y1="549.245" x2="118.178" y2="826.504" gradientUnits="userSpaceOnUse">
<stop stop-color="#D245CE"/>
<stop offset="1" stop-color="#BAC9FF"/>
</linearGradient>
<linearGradient id="paint49_linear_40_1933" x1="-400.279" y1="543.967" x2="90.5835" y2="843.074" gradientUnits="userSpaceOnUse">
<stop stop-color="#D245CE"/>
<stop offset="1" stop-color="#BAC9FF"/>
</linearGradient>
<linearGradient id="paint50_linear_40_1933" x1="-406.559" y1="539.52" x2="62.4239" y2="859.239" gradientUnits="userSpaceOnUse">
<stop stop-color="#D245CE"/>
<stop offset="1" stop-color="#BAC9FF"/>
</linearGradient>
<linearGradient id="paint51_linear_40_1933" x1="-412.507" y1="535.913" x2="33.6965" y2="874.954" gradientUnits="userSpaceOnUse">
<stop stop-color="#D245CE"/>
<stop offset="1" stop-color="#BAC9FF"/>
</linearGradient>
<linearGradient id="paint52_linear_40_1933" x1="-418.17" y1="533.157" x2="4.40395" y2="890.174" gradientUnits="userSpaceOnUse">
<stop stop-color="#D245CE"/>
<stop offset="1" stop-color="#BAC9FF"/>
</linearGradient>
<linearGradient id="paint53_linear_40_1933" x1="-423.605" y1="531.259" x2="-25.4538" y2="904.851" gradientUnits="userSpaceOnUse">
<stop stop-color="#D245CE"/>
<stop offset="1" stop-color="#BAC9FF"/>
</linearGradient>
<linearGradient id="paint54_linear_40_1933" x1="-428.856" y1="530.223" x2="-55.8567" y2="918.927" gradientUnits="userSpaceOnUse">
<stop stop-color="#D245CE"/>
<stop offset="1" stop-color="#BAC9FF"/>
</linearGradient>
<linearGradient id="paint55_linear_40_1933" x1="-89.1989" y1="567.313" x2="95.7312" y2="1079.08" gradientUnits="userSpaceOnUse">
<stop stop-color="#D245CE"/>
<stop offset="1" stop-color="#BAC9FF"/>
</linearGradient>
<linearGradient id="paint56_linear_40_1933" x1="-94.096" y1="576.815" x2="46.8436" y2="1100.24" gradientUnits="userSpaceOnUse">
<stop stop-color="#D245CE"/>
<stop offset="1" stop-color="#BAC9FF"/>
</linearGradient>
<linearGradient id="paint57_linear_40_1933" x1="-99.2638" y1="587.128" x2="-4.72522" y2="1116.21" gradientUnits="userSpaceOnUse">
<stop stop-color="#D245CE"/>
<stop offset="1" stop-color="#BAC9FF"/>
</linearGradient>
<linearGradient id="paint58_linear_40_1933" x1="-104.729" y1="598.216" x2="-57.682" y2="1126.26" gradientUnits="userSpaceOnUse">
<stop stop-color="#D245CE"/>
<stop offset="1" stop-color="#BAC9FF"/>
</linearGradient>
<linearGradient id="paint59_linear_40_1933" x1="-57.3892" y1="580.332" x2="-57.3892" y2="1100.36" gradientUnits="userSpaceOnUse">
<stop stop-color="#D245CE"/>
<stop offset="1" stop-color="#BAC9FF"/>
</linearGradient>
<clipPath id="clip0_40_1933">
<rect width="723" height="641" rx="16" fill="white"/>
</clipPath>
</defs>
</svg>
