<svg width="148" height="148" viewBox="0 0 148 148" fill="none" xmlns="http://www.w3.org/2000/svg">
<g clip-path="url(#clip0_4400:32625)">
<rect width="148" height="148" rx="24" fill="#7E5EC4"/>
<path d="M161.138 102.463C159.97 100.421 158.073 99.1486 156.044 98.088C153.483 96.7357 150.751 95.8342 147.965 95.0785C144.489 94.1504 140.961 93.5008 137.405 93.0898C136.676 93.0103 136.49 92.7053 136.371 92.1087C136.012 90.3057 135.442 88.5822 134.421 87.0177C133.293 85.3075 131.82 84.2203 129.645 84.4192C128.451 84.5253 127.377 84.976 126.395 85.6389C125.931 85.9439 125.798 85.8378 125.745 85.334C125.679 84.6579 125.572 83.9817 125.426 83.3188C124.604 79.6994 123.543 76.1596 121.593 72.9645C120.12 70.5516 118.329 68.4701 115.663 67.3167C112.877 66.1102 109.972 66.3091 107.146 66.8924C103.737 67.6083 101.058 69.5705 99.0013 72.3811C96.839 75.3641 95.6319 78.7449 94.8359 82.298C96.7064 82.6294 98.5768 82.8548 100.421 83.3453C102.888 83.995 105.249 84.8832 107.385 86.3018C110.993 88.7147 112.731 92.175 113.182 96.4308C113.779 101.999 113.991 107.607 114.363 113.189C119.523 113.189 124.697 113.202 129.857 113.215C130.202 113.215 130.56 113.281 130.905 113.308C131.701 112.725 132.417 112.035 133.253 111.492C137.896 108.482 142.884 109.065 147.036 112.42C147.262 112.592 147.434 112.831 147.713 112.937C149.026 112.791 150.353 112.685 151.653 112.486C154.054 112.128 156.415 111.611 158.617 110.511C161.841 108.92 162.928 105.592 161.138 102.463ZM144.662 105.154C144.317 105.486 143.972 105.3 143.68 105.009C142.937 104.266 142.194 103.51 141.451 102.768C141.345 102.649 141.239 102.543 141.093 102.503C140.894 102.543 140.788 102.688 140.669 102.821C139.979 103.51 139.302 104.2 138.612 104.876C138.294 105.194 137.949 105.592 137.511 105.128C137.1 104.704 137.458 104.385 137.777 104.081C138.467 103.404 139.13 102.688 139.846 102.026C140.231 101.681 140.178 101.442 139.846 101.124C139.183 100.474 138.546 99.8115 137.909 99.1486C137.671 98.8967 137.458 98.6183 137.75 98.2869C138.055 97.9422 138.374 98.0615 138.679 98.3134C139.355 98.857 139.899 99.5198 140.483 100.143C141.067 100.753 141.08 100.753 141.677 100.169C142.287 99.5596 142.897 98.9498 143.508 98.3532C143.786 98.0747 144.118 97.9289 144.423 98.2604C144.728 98.5785 144.609 98.8967 144.317 99.1884C143.64 99.8513 142.977 100.541 142.3 101.19C142.008 101.469 141.995 101.694 142.3 101.959C143.11 102.635 143.786 103.444 144.542 104.187C144.821 104.478 145.033 104.81 144.662 105.154Z" fill="#FDE058"/>
<path d="M156.349 130.768C155.434 125.77 153.815 121.037 150.95 116.795C150.008 115.403 148.867 114.17 147.713 112.963C147.435 112.87 147.249 112.632 147.037 112.446C142.884 109.092 137.897 108.495 133.254 111.518C132.418 112.062 131.702 112.738 130.906 113.334C129.38 114.965 128 116.689 126.899 118.637C125.825 120.56 124.91 122.562 124.233 124.67C124.061 125.2 123.915 125.16 123.53 124.855C121.275 122.999 118.688 122.018 115.73 122.098C115.398 122.111 115.066 122.164 114.748 122.204C114.814 124.405 114.881 126.605 114.947 128.806C115.106 134.534 115.252 140.261 115.411 145.988C115.411 146.134 115.451 146.293 115.464 146.439C116.327 146.452 117.189 146.479 118.051 146.479C124.352 146.479 130.654 146.479 136.941 146.492C137.379 146.492 137.711 146.479 137.737 145.895C137.764 145.286 137.897 144.676 137.989 144.066C138.679 139.731 139.382 135.395 140.072 131.06C140.682 127.242 141.293 123.437 141.89 119.619C141.956 119.221 142.075 118.889 142.54 118.982C142.991 119.075 143.004 119.446 142.938 119.831C142.407 123.158 141.89 126.499 141.359 129.827C140.51 135.183 139.661 140.539 138.799 145.909C138.732 146.346 138.799 146.505 139.276 146.505C144.914 146.492 150.552 146.492 156.19 146.505C156.588 146.505 156.76 146.399 156.813 145.962C157.424 140.844 157.264 135.793 156.349 130.768ZM122.031 134.666C121.5 135.607 120.93 136.522 120.373 137.437C120.359 137.45 120.346 137.464 120.333 137.477C120.32 137.49 120.306 137.503 120.293 137.517C120.28 137.53 120.267 137.53 120.253 137.543C120.24 137.556 120.227 137.556 120.213 137.556C120.2 137.556 120.187 137.57 120.174 137.57C120.16 137.57 120.147 137.583 120.134 137.583C120.094 137.596 120.054 137.596 120.015 137.596C120.001 137.596 119.975 137.596 119.948 137.596C119.908 137.596 119.869 137.596 119.829 137.583C119.816 137.583 119.802 137.583 119.789 137.57C119.789 137.57 119.789 137.57 119.776 137.57C119.762 137.57 119.749 137.57 119.736 137.556C119.723 137.556 119.723 137.543 119.709 137.543C119.683 137.53 119.643 137.517 119.617 137.49C119.603 137.477 119.577 137.464 119.563 137.45C119.55 137.437 119.537 137.437 119.524 137.424C119.484 137.397 119.457 137.357 119.444 137.318C119.431 137.304 119.418 137.278 119.418 137.265C119.404 137.238 119.404 137.225 119.391 137.198C119.391 137.185 119.391 137.172 119.378 137.159C119.378 137.145 119.378 137.132 119.378 137.132C119.364 137.053 119.378 136.96 119.431 136.88C119.948 135.939 120.505 135.011 121.076 134.096C121.248 133.818 121.553 133.778 121.832 133.95C122.11 134.136 122.164 134.441 122.031 134.666ZM135.615 133.871C135.323 133.937 135.111 133.818 134.978 133.539C134.593 132.704 134.209 131.869 133.824 131.02C133.346 129.96 132.869 128.899 132.378 127.838C132.219 127.494 132.192 127.175 132.564 126.99C132.962 126.804 133.24 127.016 133.413 127.374C134.262 129.23 135.098 131.1 135.933 132.956C135.986 133.075 136.013 133.208 136.039 133.287C136.026 133.632 135.88 133.818 135.615 133.871ZM150.552 136.748C149.398 138.63 148.244 140.513 147.09 142.395C146.612 143.164 146.135 143.933 145.67 144.702C145.538 144.914 145.392 145.1 145.113 145.113C144.636 145.113 144.45 144.636 144.755 144.119C145.392 143.058 146.055 142.011 146.692 140.964C147.607 139.479 148.509 137.981 149.411 136.496C149.477 136.39 149.557 136.27 149.623 136.164C149.822 135.859 150.074 135.621 150.446 135.833C150.857 136.071 150.764 136.416 150.552 136.748Z" fill="#02DAA0"/>
<path d="M115.425 145.975C115.266 140.247 115.12 134.52 114.96 128.793C114.894 126.592 114.828 124.391 114.761 122.19C114.669 120.294 114.576 118.399 114.483 116.503C114.43 115.402 114.403 114.302 114.363 113.202C113.992 107.62 113.78 102.012 113.183 96.4436C112.732 92.1746 110.994 88.7276 107.386 86.3147C105.25 84.8828 102.889 84.0078 100.421 83.3582C98.5774 82.8677 96.707 82.6423 94.8365 82.3108C92.8069 82.1385 90.7905 81.9396 88.7476 81.9396C88.217 81.9396 87.8986 81.7673 87.6068 81.343C87.0231 80.521 86.3996 79.7123 85.7363 78.9433C85.5771 78.7577 85.4312 78.6384 85.4179 78.3865C85.3118 75.4035 85.1924 72.4205 85.073 69.4508C85.0597 69.2254 85.0465 69.0265 85.2322 68.8409C86.9302 67.2367 87.6731 65.142 88.2302 62.9677C88.3496 62.5169 88.5353 62.3446 88.9996 62.2518C91.0823 61.854 93.0324 61.1249 94.664 59.693C96.959 57.6911 97.4896 54.8009 96.0835 52.0698C94.9161 49.8027 92.5416 48.8614 89.5966 49.5773C89.0129 49.7231 88.8007 49.5508 88.5486 49.0868C87.0761 46.3424 85.3383 43.7571 83.0168 41.6359C81.9821 40.6946 80.8678 39.8593 79.528 39.3953C77.7902 38.7987 76.384 39.8328 76.384 41.6491C76.384 41.8082 76.4902 41.9806 76.3177 42.1529C76.1055 41.9938 75.8932 41.8348 75.681 41.6757C72.8554 39.6605 69.8176 38.0563 66.4481 37.168C64.7236 36.7172 63.1317 37.1945 62.3092 38.348C61.4337 39.5677 61.4602 41.3972 62.3888 42.8423C62.8133 43.5052 63.3572 44.0488 63.9807 44.5128C64.246 44.7117 64.3521 44.8178 64.0868 45.1492C63.198 46.2496 63.3837 47.5224 64.498 48.4106C65.1613 48.9409 65.9307 49.3122 66.7399 49.4978C67.3767 49.6436 67.3104 49.8822 67.0981 50.3463C66.6338 51.3936 66.3287 52.5073 66.1695 53.6475C65.9705 55.1058 65.7715 56.5774 65.5858 58.049C65.2409 60.8597 64.8828 63.6571 64.9889 66.4943C65.1215 69.928 66.793 72.1553 69.8972 72.9906C70.8125 73.2425 71.7543 73.4016 72.7095 73.4281C72.9482 73.4281 73.2003 73.4016 73.2003 73.7728C73.2268 75.7217 73.2534 77.6573 73.2931 79.6062C73.2931 79.7521 73.3197 79.9642 73.0809 79.9112C72.6166 79.8316 72.4176 80.1631 72.1788 80.4547C71.6615 81.0911 71.1309 81.7142 70.6268 82.3506C70.4145 82.6158 70.189 82.7218 69.8441 82.7351C67.3236 82.8014 64.8164 82.9472 62.3092 83.2256C58.9928 83.5968 55.7029 84.1271 52.559 85.3203C48.314 86.9113 45.4884 89.7882 44.4006 94.2694C44.0027 95.9133 43.8169 97.5706 43.6578 99.241C43.2465 103.775 43.1537 108.323 43.1935 112.87C43.1935 113.056 43.2598 113.268 43.1006 113.467C42.9016 113.255 42.9149 112.976 42.8618 112.737C42.0128 108.429 41.1771 104.12 40.3414 99.8111C39.8771 97.3849 39.3464 94.9588 39.0281 92.5193C38.524 88.6481 38.7893 84.7635 39.0679 80.879C39.1872 79.235 39.4128 77.5778 39.1209 75.9206C39.0148 75.2709 38.8158 74.6478 38.0464 74.4887C37.2107 74.3164 36.5341 74.608 36.0698 75.3637C35.6321 76.0664 35.3668 76.8354 35.1412 77.6176C34.7963 78.824 34.4912 80.0437 34.1065 81.2502C33.8545 82.0722 33.3769 82.7483 32.5942 83.1858C32.1432 83.4377 31.8646 83.4112 31.6391 82.8677C30.9891 81.396 30.4319 79.8846 29.8483 78.3865C28.9727 76.1459 28.137 73.8921 26.9431 71.7974C26.5319 71.0682 26.0676 70.3655 25.3645 69.8617C24.7277 69.411 24.0114 69.4508 23.4144 69.9413C22.8838 70.3655 22.7246 70.9489 22.7114 71.5853C22.6848 72.5929 22.9501 73.5474 23.242 74.502C23.3216 74.7539 24.0005 76.9956 24.0005 76.9956C24.0005 76.9956 23.1889 75.1251 23.1491 75.0588C22.4328 73.9452 21.7828 72.7652 20.7878 71.8769C19.6072 70.8428 17.9623 71.3334 17.551 72.8448C17.4449 73.2425 17.2857 73.3485 16.901 73.3751C15.6142 73.5076 15.0173 74.0512 14.8448 75.2842C14.7918 75.6819 14.5795 75.6554 14.3142 75.6554C13.0009 75.6819 12.3509 76.4774 12.5897 77.7899C12.7621 78.7445 13.1336 79.646 13.505 80.5475C15.1632 84.6309 17.0867 88.6083 18.6521 92.7315C20.1378 96.6293 21.5838 100.527 22.5787 104.584C23.4675 107.262 24.0379 110.02 24.7012 112.764C25.0461 114.222 25.3777 115.681 25.7226 117.139C26.6114 120.533 27.4207 123.94 28.4156 127.308C29.5697 131.139 30.8034 134.931 32.7004 138.471C33.9739 140.844 35.5259 142.965 38.0464 144.158C38.6566 144.45 39.3199 144.662 39.9567 144.901C41.6547 145.246 43.3659 145.352 45.0904 145.06C48.4864 144.477 51.4447 142.992 54.1111 140.857C54.257 140.738 54.3498 140.526 54.708 140.632C54.708 142.448 54.708 144.304 54.708 146.16C54.708 146.545 54.7346 146.969 55.2519 146.982C55.7825 146.982 55.7958 146.571 55.7825 146.174C55.6764 137.808 55.5836 129.442 55.4774 121.077C55.4774 120.931 55.4111 120.705 55.5703 120.652C56.2203 120.44 56.0876 119.91 56.0876 119.433C56.0876 115.628 56.0876 111.836 56.1009 108.031C56.1009 107.806 55.9683 107.527 56.3397 107.368C58.0642 106.679 58.4755 106.069 58.4755 104.239C58.4755 98.0081 58.4887 91.7769 58.4622 85.5457C58.4622 84.9491 58.6479 84.7768 59.1918 84.6972C62.6807 84.1934 66.1695 83.9415 69.6849 83.809C70.0431 83.7957 70.2421 83.9283 70.4543 84.1934C72.2982 86.6196 74.1554 89.0325 76.0126 91.4587C76.53 92.1349 76.9412 92.0818 77.2994 91.2864C77.631 90.5704 77.9361 89.828 78.2678 89.1121C78.3871 88.8602 78.4004 88.5287 78.7188 88.3696C78.8382 88.6613 78.7851 88.9265 78.7851 89.1784C78.7851 94.15 78.7851 99.1217 78.7851 104.093C78.7851 104.292 78.7851 104.491 78.7851 104.69C78.7851 105.061 78.9576 105.3 79.329 105.287C79.7137 105.287 79.8596 105.021 79.8596 104.663C79.8596 104.491 79.8596 104.306 79.8596 104.133C79.8596 98.7372 79.8596 93.3546 79.8596 87.9586C79.8596 87.7598 79.7535 87.5211 79.979 87.309C80.775 88.5553 81.5444 89.775 82.327 91.0079C82.8974 91.9095 83.2556 91.8962 83.7597 90.9947C85.1393 88.5287 86.5455 86.076 87.8986 83.5968C88.1772 83.093 88.4955 82.9472 89.0527 82.987C91.1089 83.1063 93.1518 83.2389 95.1947 83.4643C95.7518 83.5305 95.911 83.6764 95.911 84.2597C95.8845 91.0477 95.8978 97.8225 95.8978 104.61C95.8978 105.645 96.2161 106.612 97.158 106.984C98.206 107.395 98.259 108.097 98.259 108.959C98.259 109.29 98.2856 109.622 98.2988 109.953C98.4713 113.241 98.6305 116.529 98.7897 119.817C98.8029 120.069 98.7897 120.414 99.055 120.427C99.7846 120.48 99.6254 120.997 99.6519 121.421C99.6652 121.686 99.6387 121.952 99.6519 122.217C99.8509 125.783 100.076 129.363 100.275 132.929C100.514 137.344 100.726 141.746 100.952 146.16L100.952 146.163C100.965 146.52 100.979 146.903 101.43 146.996C101.672 147.04 101.896 147.632 102 147.496C102.085 147.386 102.066 146.567 102.119 146.426C101.894 144.503 101.894 142.568 101.748 140.632C101.695 139.956 101.682 139.266 101.655 138.59C101.39 133.565 101.124 128.554 100.833 123.529C100.793 122.866 100.978 122.84 101.549 122.959C104.68 123.582 107.837 123.874 111.007 123.277C111.671 123.052 112.347 122.853 112.997 122.575C113.528 122.349 113.647 122.508 113.66 123.026C113.7 125.054 113.78 127.082 113.846 129.124C114.005 134.745 114.165 140.38 114.324 146.001C114.324 146.16 114.31 146.306 114.31 146.465C114.399 146.756 114.548 146.999 114.884 146.998C114.901 146.997 114.917 146.997 114.934 146.996C115.279 146.969 115.385 146.717 115.465 146.439C115.451 146.28 115.425 146.121 115.425 145.975ZM44.5996 101.216C44.7721 98.724 44.9445 96.2448 45.6609 93.8186C46.7619 90.0666 49.2956 87.7068 52.8641 86.3412C52.9172 86.3147 52.9968 86.3279 53.1029 86.3279V87.1234C53.1029 92.9303 53.1029 98.7372 53.1029 104.544C53.1029 105.379 53.3417 106.109 53.9651 106.692C54.1509 106.878 54.2437 107.063 54.2437 107.328C54.2305 111.677 54.2437 116.025 54.2437 120.4C53.209 119.95 51.9886 119.698 50.7549 119.525C48.8712 119.247 46.9742 119.141 45.0772 119.168C44.5864 119.181 44.4537 119.048 44.4404 118.558C44.2017 112.777 44.1884 106.997 44.5996 101.216ZM54.0845 139.439C51.0732 142.064 47.6772 143.814 43.6445 144.145C43.5384 144.158 43.419 144.158 43.3129 144.172C43.2996 144.172 43.2731 144.172 43.2598 144.172C43.2067 144.172 43.1537 144.172 43.1006 144.172C42.9679 144.172 42.822 144.172 42.6894 144.172C42.6496 144.172 42.623 144.172 42.5832 144.172C42.4639 144.172 42.3445 144.158 42.2251 144.158C42.1322 144.158 42.0526 144.145 41.973 144.132C41.8934 144.119 41.8006 144.119 41.721 144.105C41.6414 144.092 41.5618 144.079 41.4822 144.066C41.4291 144.066 41.3893 144.052 41.3363 144.039C41.2567 144.026 41.1904 144.013 41.1108 143.999C41.071 143.986 41.0312 143.986 40.9914 143.973C40.9516 143.96 40.8985 143.946 40.8454 143.933C40.8057 143.92 40.7659 143.92 40.7261 143.907C40.6465 143.88 40.5536 143.867 40.474 143.84C40.3944 143.814 40.3016 143.787 40.222 143.761C40.1689 143.747 40.1158 143.721 40.0495 143.708C39.8505 143.668 39.6648 143.628 39.4658 143.575C39.373 143.549 39.2801 143.522 39.1872 143.482C39.1209 143.456 39.0546 143.429 38.9883 143.416C38.9219 143.403 38.8556 143.363 38.7893 143.336C38.7495 143.323 38.7097 143.31 38.6699 143.283H38.6566C38.6036 143.257 38.5372 143.23 38.4842 143.204C38.4178 143.164 38.3382 143.138 38.2719 143.098C38.2056 143.058 38.1393 143.032 38.0729 142.992C37.9933 142.952 37.927 142.912 37.8607 142.859C37.7944 142.819 37.728 142.78 37.675 142.74C37.6219 142.7 37.5688 142.674 37.5158 142.634C37.476 142.607 37.4362 142.581 37.3964 142.554C37.3035 142.488 37.2107 142.422 37.1178 142.342C37.0117 142.263 36.9188 142.183 36.826 142.104C36.5872 141.905 36.3484 141.679 36.1229 141.454C34.5575 139.876 33.5494 137.941 32.6606 135.939C30.5381 131.166 29.1584 126.154 27.8717 121.116C27.5798 119.963 27.1686 118.836 27.089 117.643C26.5849 116.529 26.439 115.323 26.1604 114.156C24.741 108.256 23.3083 102.37 21.2654 96.6425C19.3684 91.3129 17.0867 86.1556 14.8316 80.9718C14.354 79.8847 13.8499 78.7975 13.6642 77.6043C13.5448 76.9016 13.9163 76.5967 14.5795 76.7558C14.8714 76.8221 14.9377 77.0607 15.0438 77.2729C16.5428 80.057 18.0286 82.8279 19.5143 85.612C19.5541 85.6916 19.5939 85.7711 19.6337 85.8507C19.8195 86.2086 20.0848 86.434 20.4827 86.2086C20.8542 85.9965 20.7878 85.6651 20.6021 85.3469C20.3766 84.9359 20.1644 84.5249 19.9521 84.1139C18.7051 81.7938 17.4714 79.4869 16.2245 77.1801C15.8796 76.5437 15.8796 75.8675 15.9326 75.1914C15.9724 74.7406 16.3571 74.555 16.7816 74.4887C17.2327 74.4224 17.6174 74.4357 17.8827 74.9527C19.4215 77.8562 20.9868 80.7464 22.5389 83.6499C22.5654 83.7029 22.6052 83.7692 22.6318 83.8222C22.8042 84.1934 23.0563 84.5116 23.494 84.2597C23.892 84.0343 23.7859 83.6764 23.6002 83.3317C22.9236 82.0722 22.2471 80.7994 21.5705 79.5399C20.6287 77.7899 19.6868 76.0399 18.7449 74.2899C18.546 73.9319 18.4266 73.5607 18.5592 73.1497C18.798 72.4338 19.4878 72.2216 20.0582 72.7122C20.5756 73.1497 20.9603 73.68 21.3052 74.2501C22.8971 76.8221 24.4757 79.3941 26.0543 81.9794C26.1206 82.0854 26.1869 82.2048 26.2665 82.3241C26.4523 82.6158 26.691 82.7881 27.0359 82.6158C27.3808 82.4301 27.3676 82.1252 27.2482 81.8203C26.7972 80.6934 26.3329 79.5665 25.8818 78.4528C25.2186 76.8221 24.542 75.1914 24.0512 73.4944C23.9053 72.9906 23.7859 72.4603 23.7726 71.93C23.7724 71.9206 23.7721 71.9112 23.7718 71.9017C23.7585 71.4183 23.7437 70.879 24.3032 70.697C24.8339 70.5246 25.0992 71.0019 25.3512 71.3466C26.1869 72.4735 26.7308 73.7463 27.3013 75.019C28.5615 77.8562 29.4768 80.8525 30.8166 83.6631C31.0024 84.0476 30.7636 84.1139 30.5513 84.2465C28.5748 85.4662 27.3809 87.2162 26.9829 89.4966C26.8104 90.5041 26.8502 91.525 27.0625 92.5326C27.1421 92.9171 27.3013 93.2353 27.7523 93.1557C28.2299 93.0762 28.2033 92.7049 28.137 92.3205C27.6462 89.7352 28.2829 87.5079 30.3126 85.7579C30.9891 85.1745 31.785 84.7635 32.5942 84.4321C34.1728 83.7957 34.9025 82.5362 35.3535 81.0116C35.7647 79.5665 36.0433 78.0816 36.6535 76.7028C36.8658 76.2255 36.9984 75.4698 37.6882 75.6156C38.3515 75.7482 38.126 76.5039 38.1393 76.9812C38.1923 79.1687 37.9403 81.343 37.8209 83.5305C37.6219 87.203 37.529 90.8754 38.2189 94.4947C39.8903 103.205 41.4955 111.929 43.3527 120.599C43.8037 122.734 44.321 124.855 44.8782 126.963C44.9313 127.149 44.9976 127.348 45.0507 127.533C45.1568 127.891 45.369 128.143 45.767 128.01C46.165 127.878 46.1782 127.573 46.0854 127.202C45.7139 125.796 45.3425 124.391 44.9976 122.973C44.8251 122.243 44.6925 121.501 44.5333 120.772C44.4537 120.414 44.5598 120.268 44.9711 120.268C47.4252 120.334 49.8793 120.414 52.2804 120.931C52.3202 120.944 52.36 120.944 52.4131 120.957C54.2968 121.421 54.3896 121.527 54.4162 123.45C54.4825 128.368 54.5356 133.3 54.6152 138.219C54.6284 138.723 54.4825 139.081 54.0845 139.439ZM78.4535 85.9037C77.7902 87.3355 77.18 88.7939 76.5167 90.3318C75.0707 88.4492 73.6778 86.6594 72.3115 84.8431C71.9401 84.3658 71.2635 83.915 71.3298 83.3582C71.3962 82.8544 72.0064 82.4169 72.3778 81.9529C72.4309 81.8866 72.4972 81.8203 72.537 81.7407C72.8156 81.2767 73.0676 81.2104 73.5452 81.5949C75.0707 82.8014 76.6361 83.9415 78.2014 85.095C78.5331 85.3203 78.6259 85.506 78.4535 85.9037ZM79.6872 84.1537C79.3555 84.4718 79.1565 84.4586 78.8116 84.1934C77.5116 83.1991 76.2116 82.2048 74.885 81.2502C74.5268 80.985 74.3809 80.7199 74.3809 80.2691C74.3544 77.9225 74.3013 75.5891 74.2615 73.2425C74.2483 72.4603 74.1421 72.3807 73.3727 72.3542C71.8605 72.3144 70.3747 72.1686 68.9951 71.4659C67.3767 70.644 66.4216 69.358 66.1695 67.5549C65.8511 65.2348 66.1032 62.9279 66.3552 60.6211C66.6205 58.2744 66.9257 55.9278 67.2573 53.5944C67.4165 52.4543 67.7614 51.3539 68.2655 50.3197C69.539 47.708 71.7411 46.6341 74.5401 46.5678C74.7391 46.5678 74.9381 46.5678 75.283 46.5678C77.4453 46.7136 79.7004 47.0716 81.7964 48.119C83.5475 48.994 84.9006 50.2137 85.272 52.2554C85.3781 52.799 85.8291 52.8785 86.2669 52.4808C87.9119 50.9296 89.8619 50.2932 92.0905 50.4921C93.2314 50.5982 94.1467 51.1285 94.7967 52.083C96.3355 54.2971 96.0039 57.068 93.961 58.8445C92.3426 60.2498 90.3925 60.9392 88.3098 61.2574C87.6465 61.3635 87.368 61.6154 87.2486 62.265C86.97 63.6969 86.4792 65.0757 85.7761 66.3617C85.471 66.9053 85.1659 67.4753 84.6618 67.8333C84.025 68.2973 83.9056 68.8674 83.9454 69.5966C84.1046 72.7785 84.1975 75.9471 84.3434 79.129C84.3567 79.5134 84.2505 79.7786 83.972 80.0437C82.5525 81.396 81.1066 82.7616 79.6872 84.1537ZM85.9883 84.8033C85.0332 86.5135 84.0648 88.2238 83.0301 90.0666C82.0485 88.5155 81.1331 87.0836 80.2178 85.6651C80.0454 85.3999 80.1117 85.2408 80.3239 85.0419C81.9291 83.5173 83.5209 81.9926 85.1128 80.4547C85.3649 80.2161 85.5108 80.2426 85.6567 80.521C85.67 80.5343 85.6832 80.5608 85.6965 80.5741C86.1873 81.2502 86.9965 81.8866 87.0894 82.6158C87.1822 83.3449 86.3996 84.0741 85.9883 84.8033ZM113.01 121.408C110.702 122.442 108.288 122.641 105.807 122.455C104.268 122.349 102.743 122.058 101.217 121.793C100.833 121.726 100.726 121.541 100.713 121.169L100.713 121.166C100.488 116.646 100.262 112.126 100.01 107.607C99.9836 107.222 100.076 106.97 100.382 106.705C101.071 106.122 101.27 105.326 101.257 104.438C101.244 100.527 101.257 96.616 101.257 92.7049C101.257 90.2788 101.257 87.8393 101.257 85.4132C101.257 84.684 101.257 84.684 101.987 84.9226C103.393 85.3866 104.746 85.97 106.033 86.7257C109.681 88.8867 111.631 92.0951 112.082 96.2978C112.639 101.574 112.957 106.864 113.196 112.154C113.316 114.938 113.435 117.709 113.581 120.493C113.594 120.997 113.435 121.222 113.01 121.408Z" fill="white"/>
<path d="M55.7825 146.174C55.7958 146.571 55.7825 146.982 55.2519 146.982L101.43 146.996C100.979 146.903 100.965 146.52 100.952 146.163L100.952 146.16C100.726 141.746 100.514 137.344 100.275 132.929C100.076 129.363 99.8509 125.783 99.6519 122.217C99.6387 121.952 99.6652 121.686 99.6519 121.421C99.6254 120.997 99.7846 120.48 99.055 120.427C98.7897 120.414 98.8029 120.069 98.7897 119.817C98.6305 116.529 98.4713 113.241 98.2988 109.953C98.2856 109.622 98.259 109.29 98.259 108.959C98.259 108.097 98.206 107.395 97.158 106.984C96.2161 106.612 95.8978 105.645 95.8978 104.61C95.8978 97.8225 95.8845 91.0477 95.911 84.2597C95.911 83.6764 95.7518 83.5305 95.1947 83.4643C93.1518 83.2389 91.1089 83.1063 89.0527 82.987C88.4955 82.9472 88.1772 83.093 87.8986 83.5968C86.5455 86.076 85.1393 88.5287 83.7597 90.9947C83.2556 91.8962 82.8974 91.9095 82.327 91.0079C81.5444 89.775 80.775 88.5553 79.979 87.309C79.7535 87.5211 79.8596 87.7598 79.8596 87.9586V104.133V104.663C79.8596 105.021 79.7137 105.287 79.329 105.287C78.9576 105.3 78.7851 105.061 78.7851 104.69V104.093V89.1784C78.7851 88.9265 78.8382 88.6613 78.7188 88.3696C78.4004 88.5287 78.3871 88.8602 78.2678 89.1121C77.9361 89.828 77.631 90.5704 77.2994 91.2864C76.9412 92.0818 76.53 92.1349 76.0126 91.4587C74.1554 89.0325 72.2982 86.6196 70.4543 84.1934C70.2421 83.9283 70.0431 83.7957 69.6849 83.809C66.1695 83.9415 62.6807 84.1934 59.1918 84.6972C58.6479 84.7768 58.4622 84.9491 58.4622 85.5457C58.4887 91.7769 58.4755 98.0081 58.4755 104.239C58.4755 106.069 58.0642 106.679 56.3397 107.368C55.9683 107.527 56.1009 107.806 56.1009 108.031C56.0876 111.836 56.0876 115.628 56.0876 119.433C56.0876 119.91 56.2203 120.44 55.5703 120.652C55.4111 120.705 55.4774 120.931 55.4774 121.077C55.5836 129.442 55.6764 137.808 55.7825 146.174Z" fill="white"/>
<path d="M101.748 140.632C101.894 142.568 101.894 144.503 102.119 146.426C102.066 146.567 102.085 147.386 102 147.496L114.884 146.998C114.548 146.999 114.399 146.756 114.31 146.465C114.31 146.306 114.324 146.16 114.324 146.001C114.165 140.38 114.005 134.745 113.846 129.124C113.78 127.082 113.7 125.054 113.66 123.026C113.647 122.508 113.528 122.349 112.997 122.575C112.347 122.853 111.671 123.052 111.007 123.277C107.837 123.874 104.68 123.582 101.549 122.959C100.978 122.84 100.793 122.866 100.833 123.529C101.124 128.554 101.39 133.565 101.655 138.59C101.682 139.266 101.695 139.956 101.748 140.632Z" fill="white"/>
<path d="M113.01 121.408C110.702 122.442 108.288 122.641 105.807 122.455C104.268 122.349 102.743 122.058 101.217 121.793C100.833 121.726 100.726 121.541 100.713 121.169L100.713 121.166C100.488 116.646 100.262 112.126 100.01 107.607C99.9836 107.222 100.076 106.97 100.382 106.705C101.071 106.122 101.27 105.326 101.257 104.438C101.244 100.527 101.257 96.616 101.257 92.7049V85.4132C101.257 84.684 101.257 84.684 101.987 84.9226C103.393 85.3866 104.746 85.97 106.033 86.7257C109.681 88.8867 111.631 92.0951 112.082 96.2978C112.639 101.574 112.957 106.864 113.196 112.154C113.316 114.938 113.435 117.709 113.581 120.493C113.594 120.997 113.435 121.222 113.01 121.408Z" fill="white"/>
<path d="M44.5996 101.216C44.7721 98.724 44.9445 96.2448 45.6609 93.8186C46.7619 90.0666 49.2956 87.7068 52.8641 86.3412C52.9172 86.3147 52.9968 86.3279 53.1029 86.3279V87.1234V104.544C53.1029 105.379 53.3417 106.109 53.9651 106.692C54.1509 106.878 54.2437 107.063 54.2437 107.328C54.2305 111.677 54.2437 116.025 54.2437 120.4C53.209 119.95 51.9886 119.698 50.7549 119.525C48.8712 119.247 46.9742 119.141 45.0772 119.168C44.5864 119.181 44.4537 119.048 44.4404 118.558C44.2017 112.777 44.1884 106.997 44.5996 101.216Z" fill="white"/>
<path d="M54.0845 139.439C51.0732 142.064 47.6772 143.814 43.6445 144.145C43.5384 144.158 43.419 144.158 43.3129 144.172H43.2598H43.1006H42.6894H42.5832C42.4639 144.172 42.3445 144.158 42.2251 144.158C42.1322 144.158 42.0526 144.145 41.973 144.132C41.8934 144.119 41.8006 144.119 41.721 144.105L41.4822 144.066C41.4291 144.066 41.3893 144.052 41.3363 144.039C41.2567 144.026 41.1904 144.013 41.1108 143.999C41.071 143.986 41.0312 143.986 40.9914 143.973C40.9516 143.96 40.8985 143.946 40.8454 143.933C40.8057 143.92 40.7659 143.92 40.7261 143.907C40.6465 143.88 40.5536 143.867 40.474 143.84C40.3944 143.814 40.3016 143.787 40.222 143.761C40.1689 143.747 40.1158 143.721 40.0495 143.708C39.8505 143.668 39.6648 143.628 39.4658 143.575C39.373 143.549 39.2801 143.522 39.1872 143.482C39.1209 143.456 39.0546 143.429 38.9883 143.416C38.9219 143.403 38.8556 143.363 38.7893 143.336C38.7495 143.323 38.7097 143.31 38.6699 143.283H38.6566C38.6036 143.257 38.5372 143.23 38.4842 143.204C38.4178 143.164 38.3382 143.138 38.2719 143.098C38.2056 143.058 38.1393 143.032 38.0729 142.992C37.9933 142.952 37.927 142.912 37.8607 142.859C37.7944 142.819 37.728 142.78 37.675 142.74C37.6219 142.7 37.5688 142.674 37.5158 142.634L37.3964 142.554C37.3035 142.488 37.2107 142.422 37.1178 142.342C37.0117 142.263 36.9188 142.183 36.826 142.104C36.5872 141.905 36.3484 141.679 36.1229 141.454C34.5575 139.876 33.5494 137.941 32.6606 135.939C30.5381 131.166 29.1584 126.154 27.8717 121.116C27.5798 119.963 27.1686 118.836 27.089 117.643C26.5849 116.529 26.439 115.323 26.1604 114.156C24.741 108.256 23.3083 102.37 21.2654 96.6425C19.3684 91.3129 17.0867 86.1556 14.8316 80.9718C14.354 79.8847 13.8499 78.7975 13.6642 77.6043C13.5448 76.9016 13.9163 76.5967 14.5795 76.7558C14.8714 76.8221 14.9377 77.0607 15.0438 77.2729C16.5428 80.057 18.0286 82.8279 19.5143 85.612L19.6337 85.8507C19.8195 86.2086 20.0848 86.434 20.4827 86.2086C20.8542 85.9965 20.7878 85.6651 20.6021 85.3469C20.3766 84.9359 20.1644 84.5249 19.9521 84.1139C18.7051 81.7938 17.4714 79.4869 16.2245 77.1801C15.8796 76.5437 15.8796 75.8675 15.9326 75.1914C15.9724 74.7406 16.3571 74.555 16.7816 74.4887C17.2327 74.4224 17.6174 74.4357 17.8827 74.9527C19.4215 77.8562 20.9868 80.7464 22.5389 83.6499C22.5654 83.7029 22.6052 83.7692 22.6318 83.8222C22.8042 84.1934 23.0563 84.5116 23.494 84.2597C23.892 84.0343 23.7859 83.6764 23.6002 83.3317C22.9236 82.0722 22.2471 80.7994 21.5705 79.5399L18.7449 74.2899C18.546 73.9319 18.4266 73.5607 18.5592 73.1497C18.798 72.4338 19.4878 72.2216 20.0582 72.7122C20.5756 73.1497 20.9603 73.68 21.3052 74.2501C22.8971 76.8221 24.4757 79.3941 26.0543 81.9794C26.1206 82.0854 26.1869 82.2048 26.2665 82.3241C26.4523 82.6158 26.691 82.7881 27.0359 82.6158C27.3808 82.4301 27.3676 82.1252 27.2482 81.8203C26.7972 80.6934 26.3329 79.5665 25.8818 78.4528C25.2186 76.8221 24.542 75.1914 24.0512 73.4944C23.9053 72.9906 23.7859 72.4603 23.7726 71.93L23.7718 71.9017C23.7585 71.4183 23.7437 70.879 24.3032 70.697C24.8339 70.5246 25.0992 71.0019 25.3512 71.3466C26.1869 72.4735 26.7308 73.7463 27.3013 75.019C28.5615 77.8562 29.4768 80.8525 30.8166 83.6631C31.0024 84.0476 30.7636 84.1139 30.5513 84.2465C28.5748 85.4662 27.3809 87.2162 26.9829 89.4966C26.8104 90.5041 26.8502 91.525 27.0625 92.5326C27.1421 92.9171 27.3013 93.2353 27.7523 93.1557C28.2299 93.0762 28.2033 92.7049 28.137 92.3205C27.6462 89.7352 28.2829 87.5079 30.3126 85.7579C30.9891 85.1745 31.785 84.7635 32.5942 84.4321C34.1728 83.7957 34.9025 82.5362 35.3535 81.0116C35.7647 79.5665 36.0433 78.0816 36.6535 76.7028C36.8658 76.2255 36.9984 75.4698 37.6882 75.6156C38.3515 75.7482 38.126 76.5039 38.1393 76.9812C38.1923 79.1687 37.9403 81.343 37.8209 83.5305C37.6219 87.203 37.529 90.8754 38.2189 94.4947C39.8903 103.205 41.4955 111.929 43.3527 120.599C43.8037 122.734 44.321 124.855 44.8782 126.963C44.9313 127.149 44.9976 127.348 45.0507 127.533C45.1568 127.891 45.369 128.143 45.767 128.01C46.165 127.878 46.1782 127.573 46.0854 127.202C45.7139 125.796 45.3425 124.391 44.9976 122.973C44.8251 122.243 44.6925 121.501 44.5333 120.772C44.4537 120.414 44.5598 120.268 44.9711 120.268C47.4252 120.334 49.8793 120.414 52.2804 120.931C52.3202 120.944 52.36 120.944 52.4131 120.957C54.2968 121.421 54.3896 121.527 54.4162 123.45C54.4825 128.368 54.5356 133.3 54.6152 138.219C54.6284 138.723 54.4825 139.081 54.0845 139.439Z" fill="white"/>
<path d="M78.4535 85.9037C77.7902 87.3355 77.18 88.7939 76.5167 90.3318C75.0707 88.4492 73.6778 86.6594 72.3115 84.8431C71.9401 84.3658 71.2635 83.915 71.3298 83.3582C71.3962 82.8544 72.0064 82.4169 72.3778 81.9529C72.4309 81.8866 72.4972 81.8203 72.537 81.7407C72.8156 81.2767 73.0676 81.2104 73.5452 81.5949C75.0707 82.8014 76.6361 83.9415 78.2014 85.095C78.5331 85.3203 78.6259 85.506 78.4535 85.9037Z" fill="white"/>
<path d="M85.9883 84.8033C85.0332 86.5135 84.0648 88.2238 83.0301 90.0666C82.0485 88.5155 81.1331 87.0836 80.2178 85.6651C80.0454 85.3999 80.1117 85.2408 80.3239 85.0419C81.9291 83.5173 83.5209 81.9926 85.1128 80.4547C85.3649 80.2161 85.5108 80.2426 85.6567 80.521C85.67 80.5343 85.6832 80.5608 85.6965 80.5741C86.1873 81.2502 86.9965 81.8866 87.0894 82.6158C87.1822 83.3449 86.3996 84.0741 85.9883 84.8033Z" fill="white"/>
<path d="M79.6872 84.1537C79.3555 84.4718 79.1565 84.4586 78.8116 84.1934C77.5116 83.1991 76.2116 82.2048 74.885 81.2502C74.5268 80.985 74.3809 80.7199 74.3809 80.2691C74.3544 77.9225 74.3013 75.5891 74.2615 73.2425C74.2483 72.4603 74.1421 72.3807 73.3727 72.3542C71.8605 72.3144 70.3747 72.1686 68.9951 71.4659C67.3767 70.644 66.4216 69.358 66.1695 67.5549C65.8511 65.2348 66.1032 62.9279 66.3552 60.6211C66.6205 58.2744 66.9257 55.9278 67.2573 53.5944C67.4165 52.4543 67.7614 51.3539 68.2655 50.3197C69.539 47.708 71.7411 46.6341 74.5401 46.5678H75.283C77.4453 46.7136 79.7004 47.0716 81.7964 48.119C83.5475 48.994 84.9006 50.2137 85.272 52.2554C85.3781 52.799 85.8291 52.8785 86.2669 52.4808C87.9119 50.9296 89.8619 50.2932 92.0905 50.4921C93.2314 50.5982 94.1467 51.1285 94.7967 52.083C96.3355 54.2971 96.0039 57.068 93.961 58.8445C92.3426 60.2498 90.3925 60.9392 88.3098 61.2574C87.6465 61.3635 87.368 61.6154 87.2486 62.265C86.97 63.6969 86.4792 65.0757 85.7761 66.3617C85.471 66.9053 85.1659 67.4753 84.6618 67.8333C84.025 68.2973 83.9056 68.8674 83.9454 69.5966C84.1046 72.7785 84.1975 75.9471 84.3434 79.129C84.3567 79.5134 84.2505 79.7786 83.972 80.0437C82.5525 81.396 81.1066 82.7616 79.6872 84.1537Z" fill="white"/>
<path d="M115.425 145.975C115.266 140.247 115.12 134.52 114.96 128.793C114.894 126.592 114.828 124.391 114.761 122.19C114.669 120.294 114.576 118.399 114.483 116.503C114.43 115.402 114.403 114.302 114.363 113.202C113.992 107.62 113.78 102.012 113.183 96.4436C112.732 92.1746 110.994 88.7276 107.386 86.3147C105.25 84.8828 102.889 84.0078 100.421 83.3582C98.5774 82.8677 96.707 82.6423 94.8365 82.3108C92.8069 82.1385 90.7905 81.9396 88.7476 81.9396C88.217 81.9396 87.8986 81.7673 87.6068 81.343C87.0231 80.521 86.3996 79.7123 85.7363 78.9433C85.5771 78.7577 85.4312 78.6384 85.4179 78.3865C85.3118 75.4035 85.1924 72.4205 85.073 69.4508C85.0597 69.2254 85.0465 69.0265 85.2322 68.8409C86.9302 67.2367 87.6731 65.142 88.2302 62.9677C88.3496 62.5169 88.5353 62.3446 88.9996 62.2518C91.0823 61.854 93.0324 61.1249 94.664 59.693C96.959 57.6911 97.4896 54.8009 96.0835 52.0698C94.9161 49.8027 92.5416 48.8614 89.5966 49.5773C89.0129 49.7231 88.8007 49.5508 88.5486 49.0868C87.0761 46.3424 85.3383 43.7571 83.0168 41.6359C81.9821 40.6946 80.8678 39.8593 79.528 39.3953C77.7902 38.7987 76.384 39.8328 76.384 41.6491C76.384 41.8082 76.4902 41.9806 76.3177 42.1529C76.1055 41.9938 75.8932 41.8348 75.681 41.6757C72.8554 39.6605 69.8176 38.0563 66.4481 37.168C64.7236 36.7172 63.1317 37.1945 62.3092 38.348C61.4337 39.5677 61.4602 41.3972 62.3888 42.8423C62.8133 43.5052 63.3572 44.0488 63.9807 44.5128C64.246 44.7117 64.3521 44.8178 64.0868 45.1492C63.198 46.2496 63.3837 47.5224 64.498 48.4106C65.1613 48.9409 65.9307 49.3122 66.7399 49.4978C67.3767 49.6436 67.3104 49.8822 67.0981 50.3463C66.6338 51.3936 66.3287 52.5073 66.1695 53.6475C65.9705 55.1058 65.7715 56.5774 65.5858 58.049C65.2409 60.8597 64.8828 63.6571 64.9889 66.4943C65.1215 69.928 66.793 72.1553 69.8972 72.9906C70.8125 73.2425 71.7543 73.4016 72.7095 73.4281C72.9482 73.4281 73.2003 73.4016 73.2003 73.7728C73.2268 75.7217 73.2534 77.6573 73.2931 79.6062C73.2931 79.7521 73.3197 79.9642 73.0809 79.9112C72.6166 79.8316 72.4176 80.1631 72.1788 80.4547C71.6615 81.0911 71.1309 81.7142 70.6268 82.3506C70.4145 82.6158 70.189 82.7218 69.8441 82.7351C67.3236 82.8014 64.8164 82.9472 62.3092 83.2256C58.9928 83.5968 55.7029 84.1271 52.559 85.3203C48.314 86.9113 45.4884 89.7882 44.4006 94.2694C44.0027 95.9133 43.8169 97.5706 43.6578 99.241C43.2465 103.775 43.1537 108.323 43.1935 112.87C43.1935 113.056 43.2598 113.268 43.1006 113.467C42.9016 113.255 42.9149 112.976 42.8618 112.737C42.0128 108.429 41.1771 104.12 40.3414 99.8111C39.8771 97.3849 39.3464 94.9588 39.0281 92.5193C38.524 88.6481 38.7893 84.7635 39.0679 80.879C39.1872 79.235 39.4128 77.5778 39.1209 75.9206C39.0148 75.2709 38.8158 74.6478 38.0464 74.4887C37.2107 74.3164 36.5341 74.608 36.0698 75.3637C35.6321 76.0664 35.3668 76.8354 35.1412 77.6176C34.7963 78.824 34.4912 80.0437 34.1065 81.2502C33.8545 82.0722 33.3769 82.7483 32.5942 83.1858C32.1432 83.4377 31.8646 83.4112 31.6391 82.8677C30.9891 81.396 30.4319 79.8846 29.8483 78.3865C28.9727 76.1459 28.137 73.8921 26.9431 71.7974C26.5319 71.0682 26.0676 70.3655 25.3645 69.8617C24.7277 69.411 24.0114 69.4508 23.4144 69.9413C22.8838 70.3655 22.7246 70.9489 22.7114 71.5853C22.6848 72.5929 22.9501 73.5474 23.242 74.502C23.3216 74.7539 24.0005 76.9956 24.0005 76.9956C24.0005 76.9956 23.1889 75.1251 23.1491 75.0588C22.4328 73.9452 21.7828 72.7652 20.7878 71.8769C19.6072 70.8428 17.9623 71.3334 17.551 72.8448C17.4449 73.2425 17.2857 73.3485 16.901 73.3751C15.6142 73.5076 15.0173 74.0512 14.8448 75.2842C14.7918 75.6819 14.5795 75.6554 14.3142 75.6554C13.0009 75.6819 12.3509 76.4774 12.5897 77.7899C12.7621 78.7445 13.1336 79.646 13.505 80.5475C15.1632 84.6309 17.0867 88.6083 18.6521 92.7315C20.1378 96.6293 21.5838 100.527 22.5787 104.584C23.4675 107.262 24.0379 110.02 24.7012 112.764C25.0461 114.222 25.3777 115.681 25.7226 117.139C26.6114 120.533 27.4207 123.94 28.4156 127.308C29.5697 131.139 30.8034 134.931 32.7004 138.471C33.9739 140.844 35.5259 142.965 38.0464 144.158C38.6566 144.45 39.3199 144.662 39.9567 144.901C41.6547 145.246 43.3659 145.352 45.0904 145.06C48.4864 144.477 51.4447 142.992 54.1111 140.857C54.257 140.738 54.3498 140.526 54.708 140.632C54.708 142.448 54.708 144.304 54.708 146.16C54.708 146.545 54.7346 146.969 55.2519 146.982C55.7825 146.982 55.7958 146.571 55.7825 146.174C55.6764 137.808 55.5836 129.442 55.4774 121.077C55.4774 120.931 55.4111 120.705 55.5703 120.652C56.2203 120.44 56.0876 119.91 56.0876 119.433C56.0876 115.628 56.0876 111.836 56.1009 108.031C56.1009 107.806 55.9683 107.527 56.3397 107.368C58.0642 106.679 58.4755 106.069 58.4755 104.239C58.4755 98.0081 58.4887 91.7769 58.4622 85.5457C58.4622 84.9491 58.6479 84.7768 59.1918 84.6972C62.6807 84.1934 66.1695 83.9415 69.6849 83.809C70.0431 83.7957 70.2421 83.9283 70.4543 84.1934C72.2982 86.6196 74.1554 89.0325 76.0126 91.4587C76.53 92.1349 76.9412 92.0818 77.2994 91.2864C77.631 90.5704 77.9361 89.828 78.2678 89.1121C78.3871 88.8602 78.4004 88.5287 78.7188 88.3696C78.8382 88.6613 78.7851 88.9265 78.7851 89.1784C78.7851 94.15 78.7851 99.1217 78.7851 104.093C78.7851 104.292 78.7851 104.491 78.7851 104.69C78.7851 105.061 78.9576 105.3 79.329 105.287C79.7137 105.287 79.8596 105.021 79.8596 104.663C79.8596 104.491 79.8596 104.306 79.8596 104.133C79.8596 98.7372 79.8596 93.3546 79.8596 87.9586C79.8596 87.7598 79.7535 87.5211 79.979 87.309C80.775 88.5553 81.5444 89.775 82.327 91.0079C82.8974 91.9095 83.2556 91.8962 83.7597 90.9947C85.1393 88.5287 86.5455 86.076 87.8986 83.5968C88.1772 83.093 88.4955 82.9472 89.0527 82.987C91.1089 83.1063 93.1518 83.2389 95.1947 83.4643C95.7518 83.5305 95.911 83.6764 95.911 84.2597C95.8845 91.0477 95.8978 97.8225 95.8978 104.61C95.8978 105.645 96.2161 106.612 97.158 106.984C98.206 107.395 98.259 108.097 98.259 108.959C98.259 109.29 98.2856 109.622 98.2988 109.953C98.4713 113.241 98.6305 116.529 98.7897 119.817C98.8029 120.069 98.7897 120.414 99.055 120.427C99.7846 120.48 99.6254 120.997 99.6519 121.421C99.6652 121.686 99.6387 121.952 99.6519 122.217C99.8509 125.783 100.076 129.363 100.275 132.929C100.514 137.344 100.726 141.746 100.952 146.16C100.965 146.518 100.978 146.903 101.43 146.996C101.867 147.075 102 146.744 102.119 146.426C101.894 144.503 101.894 142.568 101.748 140.632C101.695 139.956 101.682 139.266 101.655 138.59C101.39 133.565 101.124 128.554 100.833 123.529C100.793 122.866 100.978 122.84 101.549 122.959C104.68 123.582 107.837 123.874 111.007 123.277C111.671 123.052 112.347 122.853 112.997 122.575C113.528 122.349 113.647 122.508 113.66 123.026C113.7 125.054 113.78 127.082 113.846 129.124C114.005 134.745 114.165 140.38 114.324 146.001C114.324 146.16 114.31 146.306 114.31 146.465C114.403 146.77 114.562 147.022 114.934 146.996C115.279 146.969 115.385 146.717 115.465 146.439C115.451 146.28 115.425 146.121 115.425 145.975ZM44.5996 101.216C44.7721 98.724 44.9445 96.2448 45.6609 93.8186C46.7619 90.0666 49.2956 87.7068 52.8641 86.3412C52.9172 86.3147 52.9968 86.3279 53.1029 86.3279V87.1234C53.1029 92.9303 53.1029 98.7372 53.1029 104.544C53.1029 105.379 53.3417 106.109 53.9651 106.692C54.1509 106.878 54.2437 107.063 54.2437 107.328C54.2305 111.677 54.2437 116.025 54.2437 120.4C53.209 119.95 51.9886 119.698 50.7549 119.525C48.8712 119.247 46.9742 119.141 45.0772 119.168C44.5864 119.181 44.4537 119.048 44.4404 118.558C44.2017 112.777 44.1884 106.997 44.5996 101.216ZM54.0845 139.439C51.0732 142.064 47.6772 143.814 43.6445 144.145C43.5384 144.158 43.419 144.158 43.3129 144.172C43.2996 144.172 43.2731 144.172 43.2598 144.172C43.2067 144.172 43.1537 144.172 43.1006 144.172C42.9679 144.172 42.822 144.172 42.6894 144.172C42.6496 144.172 42.623 144.172 42.5832 144.172C42.4639 144.172 42.3445 144.158 42.2251 144.158C42.1322 144.158 42.0526 144.145 41.973 144.132C41.8934 144.119 41.8006 144.119 41.721 144.105C41.6414 144.092 41.5618 144.079 41.4822 144.066C41.4291 144.066 41.3893 144.052 41.3363 144.039C41.2567 144.026 41.1904 144.013 41.1108 143.999C41.071 143.986 41.0312 143.986 40.9914 143.973C40.9516 143.96 40.8985 143.946 40.8454 143.933C40.8057 143.92 40.7659 143.92 40.7261 143.907C40.6465 143.88 40.5536 143.867 40.474 143.84C40.3944 143.814 40.3016 143.787 40.222 143.761C40.1689 143.747 40.1158 143.721 40.0495 143.708C39.8505 143.668 39.6648 143.628 39.4658 143.575C39.373 143.549 39.2801 143.522 39.1872 143.482C39.1209 143.456 39.0546 143.429 38.9883 143.416C38.9219 143.403 38.8556 143.363 38.7893 143.336C38.7495 143.323 38.7097 143.31 38.6699 143.283H38.6566C38.6036 143.257 38.5372 143.23 38.4842 143.204C38.4178 143.164 38.3382 143.138 38.2719 143.098C38.2056 143.058 38.1393 143.032 38.0729 142.992C37.9933 142.952 37.927 142.912 37.8607 142.859C37.7944 142.819 37.728 142.78 37.675 142.74C37.6219 142.7 37.5688 142.674 37.5158 142.634C37.476 142.607 37.4362 142.581 37.3964 142.554C37.3035 142.488 37.2107 142.422 37.1178 142.342C37.0117 142.263 36.9188 142.183 36.826 142.104C36.5872 141.905 36.3484 141.679 36.1229 141.454C34.5575 139.876 33.5494 137.941 32.6606 135.939C30.5381 131.166 29.1584 126.154 27.8717 121.116C27.5798 119.963 27.1686 118.836 27.089 117.643C26.5849 116.529 26.439 115.323 26.1604 114.156C24.741 108.256 23.3083 102.37 21.2654 96.6425C19.3684 91.3129 17.0867 86.1556 14.8316 80.9718C14.354 79.8847 13.8499 78.7975 13.6642 77.6043C13.5448 76.9016 13.9163 76.5967 14.5795 76.7558C14.8714 76.8221 14.9377 77.0607 15.0438 77.2729C16.5428 80.057 18.0286 82.8279 19.5143 85.612C19.5541 85.6916 19.5939 85.7711 19.6337 85.8507C19.8195 86.2086 20.0848 86.434 20.4827 86.2086C20.8542 85.9965 20.7878 85.6651 20.6021 85.3469C20.3766 84.9359 20.1644 84.5249 19.9521 84.1139C18.7051 81.7938 17.4714 79.4869 16.2245 77.1801C15.8796 76.5437 15.8796 75.8675 15.9326 75.1914C15.9724 74.7406 16.3571 74.555 16.7816 74.4887C17.2327 74.4224 17.6174 74.4357 17.8827 74.9527C19.4215 77.8562 20.9868 80.7464 22.5389 83.6499C22.5654 83.7029 22.6052 83.7692 22.6318 83.8222C22.8042 84.1934 23.0563 84.5116 23.494 84.2597C23.892 84.0343 23.7859 83.6764 23.6002 83.3317C22.9236 82.0722 22.2471 80.7994 21.5705 79.5399C20.6287 77.7899 19.6868 76.0399 18.7449 74.2899C18.546 73.9319 18.4266 73.5607 18.5592 73.1497C18.798 72.4338 19.4878 72.2216 20.0582 72.7122C20.5756 73.1497 20.9603 73.68 21.3052 74.2501C22.8971 76.8221 24.4757 79.3941 26.0543 81.9794C26.1206 82.0854 26.1869 82.2048 26.2665 82.3241C26.4523 82.6158 26.691 82.7881 27.0359 82.6158C27.3808 82.4301 27.3676 82.1252 27.2482 81.8203C26.7972 80.6934 26.3329 79.5665 25.8818 78.4528C25.2186 76.8221 24.542 75.1914 24.0512 73.4944C23.9053 72.9906 23.7859 72.4603 23.7726 71.93C23.7593 71.4394 23.7328 70.8826 24.3032 70.697C24.8339 70.5246 25.0992 71.0019 25.3512 71.3466C26.1869 72.4735 26.7308 73.7463 27.3013 75.019C28.5615 77.8562 29.4768 80.8525 30.8166 83.6631C31.0024 84.0476 30.7636 84.1139 30.5513 84.2465C28.5748 85.4662 27.3809 87.2162 26.9829 89.4966C26.8104 90.5041 26.8502 91.525 27.0625 92.5326C27.1421 92.9171 27.3013 93.2353 27.7523 93.1557C28.2299 93.0762 28.2033 92.7049 28.137 92.3205C27.6462 89.7352 28.2829 87.5079 30.3126 85.7579C30.9891 85.1745 31.785 84.7635 32.5942 84.4321C34.1728 83.7957 34.9025 82.5362 35.3535 81.0116C35.7647 79.5665 36.0433 78.0816 36.6535 76.7028C36.8658 76.2255 36.9984 75.4698 37.6882 75.6156C38.3515 75.7482 38.126 76.5039 38.1393 76.9812C38.1923 79.1687 37.9403 81.343 37.8209 83.5305C37.6219 87.203 37.529 90.8754 38.2189 94.4947C39.8903 103.205 41.4955 111.929 43.3527 120.599C43.8037 122.734 44.321 124.855 44.8782 126.963C44.9313 127.149 44.9976 127.348 45.0507 127.533C45.1568 127.891 45.369 128.143 45.767 128.01C46.165 127.878 46.1782 127.573 46.0854 127.202C45.7139 125.796 45.3425 124.391 44.9976 122.973C44.8251 122.243 44.6925 121.501 44.5333 120.772C44.4537 120.414 44.5598 120.268 44.9711 120.268C47.4252 120.334 49.8793 120.414 52.2804 120.931C52.3202 120.944 52.36 120.944 52.4131 120.957C54.2968 121.421 54.3896 121.527 54.4162 123.45C54.4825 128.368 54.5356 133.3 54.6152 138.219C54.6284 138.723 54.4825 139.081 54.0845 139.439ZM78.4535 85.9037C77.7902 87.3355 77.18 88.7939 76.5167 90.3318C75.0707 88.4492 73.6778 86.6594 72.3115 84.8431C71.9401 84.3658 71.2635 83.915 71.3298 83.3582C71.3962 82.8544 72.0064 82.4169 72.3778 81.9529C72.4309 81.8866 72.4972 81.8203 72.537 81.7407C72.8156 81.2767 73.0676 81.2104 73.5452 81.5949C75.0707 82.8014 76.6361 83.9415 78.2014 85.095C78.5331 85.3203 78.6259 85.506 78.4535 85.9037ZM79.6872 84.1537C79.3555 84.4718 79.1565 84.4586 78.8116 84.1934C77.5116 83.1991 76.2116 82.2048 74.885 81.2502C74.5268 80.985 74.3809 80.7199 74.3809 80.2691C74.3544 77.9225 74.3013 75.5891 74.2615 73.2425C74.2483 72.4603 74.1421 72.3807 73.3727 72.3542C71.8605 72.3144 70.3747 72.1686 68.9951 71.4659C67.3767 70.644 66.4216 69.358 66.1695 67.5549C65.8511 65.2348 66.1032 62.9279 66.3552 60.6211C66.6205 58.2744 66.9257 55.9278 67.2573 53.5944C67.4165 52.4543 67.7614 51.3539 68.2655 50.3197C69.539 47.708 71.7411 46.6341 74.5401 46.5678C74.7391 46.5678 74.9381 46.5678 75.283 46.5678C77.4453 46.7136 79.7004 47.0716 81.7964 48.119C83.5475 48.994 84.9006 50.2137 85.272 52.2554C85.3781 52.799 85.8291 52.8785 86.2669 52.4808C87.9119 50.9296 89.8619 50.2932 92.0905 50.4921C93.2314 50.5982 94.1467 51.1285 94.7967 52.083C96.3355 54.2971 96.0039 57.068 93.961 58.8445C92.3426 60.2498 90.3925 60.9392 88.3098 61.2574C87.6465 61.3635 87.368 61.6154 87.2486 62.265C86.97 63.6969 86.4792 65.0757 85.7761 66.3617C85.471 66.9053 85.1659 67.4753 84.6618 67.8333C84.025 68.2973 83.9056 68.8674 83.9454 69.5966C84.1046 72.7785 84.1975 75.9471 84.3434 79.129C84.3567 79.5134 84.2505 79.7786 83.972 80.0437C82.5525 81.396 81.1066 82.7616 79.6872 84.1537ZM85.9883 84.8033C85.0332 86.5135 84.0648 88.2238 83.0301 90.0666C82.0485 88.5155 81.1331 87.0836 80.2178 85.6651C80.0454 85.3999 80.1117 85.2408 80.3239 85.0419C81.9291 83.5173 83.5209 81.9926 85.1128 80.4547C85.3649 80.2161 85.5108 80.2426 85.6567 80.521C85.67 80.5343 85.6832 80.5608 85.6965 80.5741C86.1873 81.2502 86.9965 81.8866 87.0894 82.6158C87.1822 83.3449 86.3996 84.0741 85.9883 84.8033ZM113.01 121.408C110.702 122.442 108.288 122.641 105.807 122.455C104.268 122.349 102.743 122.058 101.217 121.793C100.833 121.726 100.726 121.541 100.713 121.169C100.488 116.649 100.262 112.128 100.01 107.607C99.9836 107.222 100.076 106.97 100.382 106.705C101.071 106.122 101.27 105.326 101.257 104.438C101.244 100.527 101.257 96.616 101.257 92.7049C101.257 90.2788 101.257 87.8393 101.257 85.4132C101.257 84.684 101.257 84.684 101.987 84.9226C103.393 85.3866 104.746 85.97 106.033 86.7257C109.681 88.8867 111.631 92.0951 112.082 96.2978C112.639 101.574 112.957 106.864 113.196 112.154C113.316 114.938 113.435 117.709 113.581 120.493C113.594 120.997 113.435 121.222 113.01 121.408Z" fill="#281E34"/>
<path d="M39.9298 144.914C39.2931 144.662 38.6431 144.463 38.0196 144.171C35.4991 142.978 33.9338 140.857 32.6735 138.484C30.7765 134.944 29.5428 131.152 28.3887 127.321C27.3805 123.966 26.5846 120.546 25.6958 117.152C23.6131 116.741 21.5304 116.741 19.4742 117.324C17.0864 118 15.0568 119.273 13.2659 120.957C11.6343 122.481 10.3873 124.285 9.23318 126.167C8.30459 127.997 7.46885 129.866 6.89843 131.855C5.58514 136.376 5.29329 140.963 5.85045 145.63C5.93004 146.239 6.08923 146.491 6.76578 146.478C12.1118 146.452 17.4579 146.465 22.8039 146.465C23.6529 146.465 23.6927 146.465 23.5998 145.59C23.0958 140.87 22.5917 136.15 22.0743 131.43C21.9814 130.595 21.9018 129.76 21.8355 128.925C21.809 128.607 21.9284 128.355 22.2865 128.302C22.6447 128.262 22.8039 128.474 22.857 128.805C22.8968 129.044 22.9366 129.283 22.9631 129.521C23.2151 131.828 23.4539 134.135 23.706 136.429C24.0376 139.504 24.3825 142.567 24.6744 145.643C24.7274 146.266 24.8999 146.452 25.5366 146.452C29.848 146.425 34.1593 146.438 38.4706 146.438C39.9564 146.465 39.9563 146.465 39.9298 144.914ZM14.42 143.654C14.1017 143.919 13.7966 143.8 13.5578 143.522C12.8149 142.62 12.0853 141.719 11.3424 140.817C11.1434 140.578 11.0506 140.313 11.223 140.022C11.3159 139.862 11.4618 139.77 11.7139 139.77C11.9128 139.783 12.0986 139.929 12.2577 140.128C12.9741 141.016 13.7037 141.904 14.42 142.779C14.6588 143.071 14.7251 143.376 14.42 143.654Z" fill="#02DAA0"/>
<path d="M25.6961 117.152C23.6134 116.741 21.5307 116.741 19.4746 117.325C17.0867 118.001 15.0571 119.273 13.2662 120.957C11.6346 122.482 10.3876 124.285 9.2335 126.167C5.41301 126.167 1.59251 126.22 -2.22799 126.141C-4.68213 126.088 -7.1628 125.969 -9.52408 125.12C-10.9966 124.59 -12.2833 123.821 -12.7874 122.203C-13.3844 120.281 -12.7078 118.253 -11.1027 117.033C-9.65674 115.932 -7.972 115.415 -6.23421 115.097C-4.86785 114.832 -3.48822 114.686 -2.09533 114.646C-1.53818 114.633 -1.2596 114.819 -1.00755 115.27C0.0536962 117.192 2.16293 118.173 4.31196 117.762C7.93347 117.059 9.64474 112.963 7.54877 109.913C7.20386 109.41 7.111 109.091 7.5753 108.561C9.2335 106.692 11.2631 105.446 13.6244 104.716C16.4367 103.855 19.2623 103.828 22.1012 104.531C22.2471 104.571 22.4063 104.571 22.5654 104.584C23.4542 107.262 24.0247 110.019 24.6879 112.764C25.0329 114.235 25.3645 115.694 25.6961 117.152Z" fill="#FDE058"/>
<path d="M114.337 146.001C114.337 146.16 114.323 146.306 114.323 146.465C111.206 146.465 108.102 146.465 104.984 146.465H102.782C102.57 146.465 102.345 146.438 102.132 146.425C101.907 144.503 101.907 142.567 101.761 140.632C101.708 139.955 101.694 139.266 101.668 138.59C101.734 138.285 101.827 137.993 101.88 137.688C102.504 134.122 103.737 130.807 105.873 127.851C107.253 125.942 109.004 124.457 111.033 123.277C111.697 123.052 112.373 122.853 113.023 122.574C113.554 122.349 113.673 122.508 113.687 123.025C113.726 125.054 113.806 127.082 113.872 129.124C114.005 134.745 114.177 140.366 114.337 146.001Z" fill="#02DAA0"/>
<path d="M7.41629 112.75C7.41629 114.514 6.30198 116.051 4.63051 116.595C2.99884 117.125 1.12839 116.542 0.146739 115.19C0.0273486 115.031 -0.131838 114.858 -0.0257132 114.659C0.067146 114.474 0.292661 114.553 0.451849 114.553C1.63249 114.62 2.82639 114.686 4.00703 114.792C4.53766 114.845 4.73664 114.673 4.81623 114.129C5.00195 112.856 5.50605 111.676 6.11626 110.549C6.34178 110.152 6.5275 110.245 6.72648 110.563C7.15098 111.252 7.41629 111.955 7.41629 112.75Z" fill="#FDE058"/>
<path d="M109.867 37.6323C108.567 37.6058 107.28 38.7194 107.439 40.085C107.267 41.4903 108.593 42.5112 109.827 42.4979C111.379 42.4847 112.215 41.3577 112.228 40.0585C112.228 38.746 111.193 37.6588 109.867 37.6323ZM109.853 41.3577C109.084 41.371 108.527 40.8539 108.514 40.1248C108.5 39.4088 109.124 38.7327 109.814 38.7194C110.477 38.7062 111.167 39.3956 111.167 40.085C111.153 40.8142 110.61 41.3445 109.853 41.3577Z" fill="#FAA0E0"/>
<path d="M44.2552 77.9357C44.1491 78.771 44.0164 79.5929 43.897 80.4149C43.7909 81.1176 43.6848 81.807 43.5786 82.4964C43.5256 82.8411 43.446 83.1858 42.9817 83.093C42.597 83.0135 42.4511 82.735 42.5174 82.3506C42.7562 80.8259 42.995 79.3145 43.2072 77.7899C43.2603 77.4187 43.4062 77.1933 43.7909 77.2596C44.1623 77.3259 44.3082 77.5778 44.2552 77.9357Z" fill="#281E34"/>
<path d="M13.5446 89.4698C13.5446 89.7615 13.4119 89.9074 13.2262 89.9869C12.9742 90.093 12.7221 90.0664 12.5762 89.8278C11.7537 88.4755 10.9445 87.11 10.1353 85.7444C9.97615 85.4792 10.0823 85.2273 10.3476 85.0682C10.6527 84.8826 10.918 84.9754 11.0772 85.2539C11.8731 86.5664 12.6691 87.8922 13.4517 89.2179C13.5048 89.3107 13.5181 89.4168 13.5446 89.4698Z" fill="#281E34"/>
<path d="M39.9956 56.4886C39.969 56.7008 39.8231 56.8333 39.6374 56.8996C39.3986 56.9792 39.1333 56.9659 38.9741 56.7405C38.3108 55.8125 37.6608 54.8844 37.024 53.9299C36.8649 53.6912 37.0108 53.4526 37.2363 53.3068C37.5281 53.1212 37.8067 53.214 37.9924 53.4659C38.4965 54.1553 38.9874 54.8579 39.4649 55.5606C39.6639 55.8655 39.969 56.0909 39.9956 56.4886Z" fill="#FAA0E0"/>
<path d="M44.0426 57.6148C43.6977 57.8667 43.3793 57.7739 43.1405 57.4292C42.5435 56.5939 41.9731 55.7322 41.3762 54.8969C41.2435 54.7113 41.2302 54.5522 41.3364 54.3533C41.4558 54.128 41.668 54.0749 41.8272 54.0352C42.1854 54.0484 42.3446 54.2738 42.4905 54.4859C43.0344 55.2549 43.5517 56.0503 44.0956 56.806C44.2946 57.0977 44.3609 57.3761 44.0426 57.6148Z" fill="#FAA0E0"/>
<path d="M145.113 145.113C144.635 145.113 144.449 144.636 144.754 144.119C145.391 143.058 146.054 142.011 146.691 140.964C147.606 139.479 148.509 137.981 149.411 136.496C149.477 136.376 149.556 136.27 149.623 136.164C149.822 135.859 150.074 135.621 150.445 135.833C150.843 136.071 150.75 136.416 150.551 136.748C149.397 138.63 148.243 140.513 147.089 142.395C146.612 143.164 146.134 143.933 145.67 144.702C145.537 144.914 145.391 145.1 145.113 145.113Z" fill="#FCFCFC"/>
<path d="M136.041 133.3C136.027 133.632 135.881 133.817 135.616 133.87C135.324 133.937 135.112 133.817 134.979 133.539C134.595 132.704 134.21 131.868 133.825 131.02C133.348 129.959 132.87 128.899 132.379 127.838C132.22 127.493 132.194 127.175 132.578 126.989C132.976 126.804 133.255 127.016 133.427 127.374C134.276 129.23 135.112 131.099 135.948 132.955C135.988 133.101 136.014 133.221 136.041 133.3Z" fill="#FDE058"/>
<path d="M119.948 137.61C119.55 137.61 119.245 137.238 119.431 136.894C119.948 135.952 120.505 135.024 121.076 134.109C121.248 133.831 121.553 133.791 121.832 133.964C122.11 134.123 122.15 134.428 122.031 134.666C121.5 135.608 120.943 136.522 120.373 137.437C120.293 137.57 120.107 137.61 119.948 137.61Z" fill="#FDE058"/>
<path d="M40.1815 142.527C40.1682 142.925 40.1019 143.323 40.0621 143.707C39.8631 143.668 39.6774 143.628 39.4784 143.575C39.3855 143.548 39.2927 143.522 39.1998 143.482C39.1335 143.456 39.0672 143.429 39.0008 143.416C38.9345 143.402 38.8682 143.363 38.8018 143.336C38.762 143.323 38.7222 143.31 38.6824 143.283H38.6692C38.6161 143.257 38.5498 143.23 38.4967 143.204C38.4304 143.164 38.3508 143.137 38.2845 143.098C38.2182 143.058 38.1518 143.031 38.0855 142.992C38.0059 142.952 37.9396 142.912 37.8732 142.859C37.8069 142.819 37.7406 142.779 37.6875 142.74C37.6345 142.7 37.5814 142.673 37.5283 142.634C37.4885 142.607 37.4487 142.581 37.4089 142.554C37.3161 142.488 37.2232 142.421 37.1304 142.342C37.0242 142.262 36.9314 142.183 36.8385 142.103C36.5997 141.904 36.361 141.679 36.1354 141.454C34.5701 139.876 33.5619 137.94 32.6731 135.938C30.5506 131.166 29.171 126.154 27.8842 121.116C27.5924 119.963 27.1812 118.836 27.1016 117.643C28.8526 118.093 30.3251 119.074 31.6782 120.215C35.2069 123.158 37.3426 126.989 38.7222 131.285C39.8764 134.931 40.3141 138.696 40.1815 142.527Z" fill="#02DAA0"/>
<path d="M11.7142 139.771C11.9132 139.784 12.0989 139.93 12.2581 140.129C12.9744 141.017 13.704 141.905 14.4204 142.793C14.6591 143.085 14.7387 143.39 14.4204 143.668C14.102 143.934 13.7969 143.814 13.5581 143.523C12.8152 142.621 12.0723 141.72 11.3427 140.818C11.1438 140.579 11.0509 140.314 11.2234 140.023C11.3029 139.863 11.4489 139.757 11.7142 139.771Z" fill="#FDE058"/>
<path d="M71.8601 58.0361C71.4887 59.3354 71.5417 60.5683 72.3111 61.7218C72.5234 62.0532 72.6163 62.3979 72.205 62.6366C71.8071 62.8619 71.555 62.5835 71.356 62.2653C70.8254 61.4168 70.5203 60.5153 70.5601 59.6138C70.5336 57.9831 71.1173 56.6175 71.7805 55.2917C72.2316 54.3902 72.7754 53.5152 73.2795 52.6402C73.4785 52.2822 73.7173 51.8845 74.1948 52.1629C74.6857 52.4413 74.4336 52.839 74.2214 53.1837C73.2928 54.7216 72.3642 56.2728 71.8601 58.0361Z" fill="#281E34"/>
<path d="M92.4753 53.8065C92.5019 54.138 92.3162 54.3368 91.9713 54.3766C90.0743 54.5755 88.9865 55.8085 88.1243 57.3464C88.0181 57.5452 87.9518 57.7573 87.713 57.8369C87.2885 57.9827 86.9436 57.638 87.0232 57.1608C87.3283 55.5433 90.0743 53.3027 91.9315 53.3027C92.1172 53.3027 92.4488 53.369 92.4753 53.8065Z" fill="#281E34"/>
<path d="M80.2714 63.5114C80.2316 65.2216 78.8254 66.6004 77.1142 66.6137C76.7427 66.6137 76.3448 66.5606 76.3315 66.0966C76.305 65.6193 76.6499 65.5 77.0876 65.4868C78.3479 65.447 79.1836 64.625 79.1969 63.4185C79.1969 62.981 79.1571 62.5303 79.7673 62.5303C80.1653 62.5303 80.2846 62.8087 80.2714 63.5114Z" fill="#281E34"/>
<path d="M82.4334 50.9559C82.4202 51.3006 82.2212 51.473 81.8763 51.473C81.213 51.473 80.4967 51.0753 80.5099 50.6775C80.5365 50.3328 80.7487 50.1737 81.0804 50.1605C81.7569 50.1472 82.46 50.5582 82.4334 50.9559Z" fill="#281E34"/>
<path d="M71.9673 50.0683C71.9275 50.7312 71.3173 50.5721 70.9193 50.6915C70.5479 50.7047 70.2958 50.5589 70.3091 50.1744C70.3224 49.485 70.906 49.6043 71.3306 49.538C71.7285 49.4585 71.9938 49.6706 71.9673 50.0683Z" fill="#281E34"/>
<path d="M82.0478 53.9654C82.0212 54.3897 81.809 54.6416 81.3978 54.6416C80.9865 54.6549 80.7212 54.403 80.7212 54.0052C80.708 53.6075 80.9467 53.3423 81.3712 53.3423C81.7825 53.3291 82.008 53.5677 82.0478 53.9654Z" fill="#281E34"/>
<path d="M71.0121 53.7664C70.9856 54.2039 70.7335 54.4425 70.3356 54.4293C69.9243 54.416 69.6855 54.1641 69.6855 53.7531C69.6855 53.3421 69.9376 53.1035 70.3621 53.1167C70.7866 53.1167 70.9723 53.3819 71.0121 53.7664Z" fill="#281E34"/>
<path d="M8.49396 25.7956L33.9176 42.9606L39.507 35.1407L8.49396 25.7956Z" fill="#7D59CA"/>
<path d="M43.8543 29.0587L8.49396 25.7956L39.507 35.1407L43.8543 29.0587Z" fill="#7D59CA"/>
<path d="M8.49396 25.7956L43.8543 29.0587L39.507 35.1407M8.49396 25.7956L33.9176 42.9606L39.507 35.1407M8.49396 25.7956L39.507 35.1407" stroke="#FA9BE1" stroke-width="1.5" stroke-linejoin="round"/>
<path d="M27.6993 44.9181L8.49414 25.7959L30.4423 40.4767L27.6993 44.9181Z" fill="#FA9BE1"/>
</g>
<defs>
<clipPath id="clip0_4400:32625">
<rect width="148" height="148" rx="24" fill="white"/>
</clipPath>
</defs>
</svg>
