<svg width="148" height="148" viewBox="0 0 148 148" fill="none" xmlns="http://www.w3.org/2000/svg">
<g clip-path="url(#clip0_4400:32673)">
<rect width="148" height="148" rx="24" fill="#7E5EC4"/>
<g clip-path="url(#clip1_4400:32673)">
<rect x="67.8281" y="42" width="65" height="59" fill="#FA9BE1"/>
<path d="M137.797 38.1029C137.797 37.4807 137.644 37.2969 137.019 37.2969C112.703 37.311 88.372 37.311 64.0554 37.311C63.125 37.311 63.125 37.311 63.125 38.2725C63.125 57.2909 63.125 76.2952 63.125 95.3136C63.125 95.5822 63.2083 95.8792 63 96.1337C66.694 99.3011 68.3049 103.67 69.7075 108.167C71.0685 112.536 72.6378 116.821 74.332 121.077C74.707 121.105 75.068 121.147 75.443 121.147C86.3723 121.147 97.2876 121.147 108.217 121.176C108.897 121.176 109.189 120.95 109.425 120.327C110.633 117.188 112.425 114.403 114.702 111.956C117.146 109.341 120.007 107.304 123.243 105.834C125.507 104.802 127.895 104.123 130.353 103.812C132.547 103.543 134.769 103.388 136.977 103.783C137.588 103.897 137.811 103.685 137.811 103.006C137.783 81.3573 137.783 59.7372 137.797 38.1029ZM105.995 111.165C105.745 111.32 105.467 111.292 105.19 111.292H76.4568C76.3457 111.292 76.2207 111.306 76.1096 111.292C75.693 111.235 75.2902 111.136 75.3041 110.613C75.318 110.076 75.7207 110.019 76.1512 110.019C79.1092 110.019 82.0811 110.019 85.0391 110.019H90.8717C95.6906 110.019 100.496 110.019 105.301 110.019C105.481 110.019 105.676 110.005 105.856 110.048C106.134 110.104 106.287 110.302 106.328 110.585C106.356 110.854 106.203 111.023 105.995 111.165ZM133.395 100.135C133.395 101.422 133.339 101.465 132.047 101.465H100.398C89.8719 101.465 79.3453 101.465 68.8188 101.465C67.5828 101.465 67.5411 101.408 67.5411 100.135C67.5411 80.9897 67.5411 61.8299 67.5411 42.6842C67.5411 41.6237 67.6661 41.4965 68.6799 41.4965C89.8718 41.4965 111.064 41.4965 132.256 41.4965C133.297 41.4965 133.395 41.6096 133.395 42.6842C133.395 61.844 133.395 80.9897 133.395 100.135Z" fill="#FCDF5A"/>
<path d="M137.798 105.82C137.798 110.274 137.798 114.714 137.798 119.168C137.798 121.147 137.798 121.147 135.882 121.147C131.979 121.147 128.063 121.147 124.161 121.147C119.897 121.147 115.648 121.147 111.398 121.147C110.44 121.147 110.357 121.049 110.773 120.144C113.037 115.081 116.467 111.066 121.217 108.266C124.744 106.187 128.521 104.985 132.632 104.816C134.16 104.759 135.673 104.844 137.187 104.971C137.798 105.028 137.798 105.367 137.798 105.82Z" fill="#FCDF5A"/>
<path d="M129.423 30.1138C129.409 31.344 128.52 32.3338 127.145 32.3479C125.909 32.362 124.965 31.2874 124.979 30.0007C124.993 28.8412 126.062 27.6675 127.187 27.7524C128.325 27.8231 129.423 28.5159 129.423 30.1138Z" fill="#FA9BE1"/>
<path d="M137.505 30.1135C137.491 31.3861 136.477 32.3759 135.227 32.3476C134.116 32.3193 133.033 31.174 133.047 30.0287C133.061 28.7843 134.102 27.7662 135.352 27.7945C136.644 27.8228 137.519 28.756 137.505 30.1135Z" fill="#FCDF5A"/>
<path d="M119.077 32.3484C117.855 32.3766 116.98 31.302 116.896 30.0152C116.813 28.8133 118.077 27.7811 119.118 27.8235C120.424 27.8659 121.271 28.7426 121.257 30.1284C121.382 31.1606 120.438 32.3201 119.077 32.3484Z" fill="#FA9BE1"/>
<path d="M132.256 41.4961C111.064 41.4961 89.8718 41.4961 68.6798 41.4961C67.666 41.4961 67.541 41.6375 67.541 42.6839C67.541 61.8295 67.541 80.9893 67.541 100.135C67.541 101.408 67.5966 101.464 68.8186 101.464C79.3452 101.464 89.8718 101.464 100.398 101.464H132.047C133.339 101.464 133.394 101.408 133.394 100.135C133.394 80.9893 133.394 61.8295 133.394 42.6839C133.394 41.6092 133.283 41.4961 132.256 41.4961ZM131.395 100.262C110.772 100.248 90.1634 100.248 69.5408 100.262C68.8742 100.262 68.7076 100.093 68.7076 99.4139C68.7214 80.8055 68.7214 62.1972 68.7076 43.5747C68.7076 42.8535 68.8742 42.6839 69.5824 42.6839C79.9007 42.7121 90.2189 42.698 100.537 42.698C110.842 42.698 121.132 42.698 131.422 42.6839C132.061 42.6839 132.214 42.8535 132.214 43.504C132.2 62.1406 132.2 80.7772 132.214 99.4139C132.228 100.078 132.075 100.262 131.395 100.262Z" fill="#8D4BE2"/>
<path d="M90.8588 110.02C95.6638 110.02 100.483 110.02 105.288 110.02C105.468 110.02 105.663 110.006 105.843 110.048C106.121 110.105 106.274 110.303 106.315 110.585C106.343 110.854 106.204 111.024 105.996 111.165C105.746 111.321 105.468 111.292 105.19 111.292C95.6082 111.292 86.0399 111.292 76.4577 111.292C76.3466 111.292 76.2216 111.307 76.1105 111.292C75.6939 111.236 75.2911 111.137 75.305 110.614C75.3189 110.076 75.7217 110.02 76.1522 110.02C79.1101 110.02 82.0681 110.02 85.04 110.02C86.9703 110.02 88.9146 110.02 90.8588 110.02Z" fill="#8D4BE2"/>
<path d="M110.049 70.1585C108.147 71.9402 105.828 72.831 103.356 73.34C102.342 73.5521 101.3 73.6935 100.259 73.6794C99.7311 73.6794 99.6756 73.8915 99.6895 74.344C99.7728 77.1437 99.8145 79.9434 99.87 82.7432C99.87 83.0543 99.9256 83.3653 99.5923 83.5492C99.1479 83.8037 98.7451 83.4926 98.7313 82.8422C98.7174 81.2443 98.7313 79.6465 98.7313 78.0345H98.5368C98.5368 76.5074 98.5368 74.9661 98.5368 73.439C98.5368 72.6896 98.6757 72.5199 99.4117 72.5199C102.036 72.5058 104.578 72.0674 106.939 70.8938C110.355 69.197 111.966 66.072 111.605 62.2259C111.23 58.2808 109.174 55.6084 105.758 53.9398C103.092 52.639 100.217 52.1582 97.287 52.0451C97.0648 52.0309 96.8148 52.0309 96.6065 51.9602C96.3565 51.8754 96.301 51.6209 96.3426 51.3663C96.4121 50.9846 96.6759 50.8856 97.0092 50.8997C98.5924 50.928 100.148 51.0977 101.689 51.437C104.744 52.1016 107.564 53.2328 109.855 55.4952C113.507 59.1575 113.938 66.5104 110.049 70.1585Z" fill="#200F09"/>
<path d="M100.01 86.9712C99.9547 87.4095 99.7325 87.664 99.2881 87.6499C98.8715 87.6357 98.5938 87.3954 98.5938 86.957C98.5938 86.4904 98.8854 86.2217 99.3437 86.2359C99.7742 86.2642 99.9964 86.547 100.01 86.9712Z" fill="#200F09"/>
<path d="M86.2422 121.148C86.2422 121.148 89.3807 129.547 90.0473 134.015C90.2556 135.415 90.2834 136.829 89.7973 138.201C89.2141 139.827 88.0892 140.845 86.4783 141.354C84.784 141.877 83.0481 141.891 81.3261 141.58C76.6322 140.732 72.0216 139.558 67.4666 138.102C67.2861 138.045 67.1194 137.975 66.9667 137.904C66.8972 137.678 67.0778 137.649 67.175 137.579C70.6468 135.203 74.0075 132.658 77.3405 130.07C77.8404 129.689 77.9793 129.335 77.8126 128.699C76.2156 122.604 74.6463 116.51 73.0771 110.416C73.0076 110.147 72.9243 109.892 73.2576 109.694C74.2297 109.157 76.4988 107.5 76.4988 107.5L81.4988 107L82.9988 111L86.2422 121.148Z" fill="#FEFEFE"/>
<path d="M66.4395 63.9658C66.4395 63.9798 66.4395 63.9938 66.4395 63.9938H66.4533H66.4672C66.4672 63.9938 66.4811 63.9938 66.495 63.9798C66.495 63.9798 66.5089 63.9798 66.5089 63.9658C66.495 63.9658 66.4672 63.9658 66.4395 63.9658Z" fill="#FEFEFE"/>
<path d="M66.4401 63.9661C66.4401 63.9802 66.4401 63.9944 66.4401 63.9944H66.4539H66.4657H66.4678C66.4678 63.9944 66.4817 63.9944 66.4956 63.9802C66.4956 63.9802 66.5095 63.9802 66.5095 63.9661C66.4989 63.9661 66.4801 63.9661 66.4594 63.9661C66.4531 63.9661 66.4466 63.9661 66.4401 63.9661ZM91.3122 135.458C91.215 132.828 90.5761 130.311 89.7846 127.823C89.0624 125.56 88.2847 123.326 87.5348 121.078C85.8406 116.836 84.2713 112.537 82.9104 108.168C81.5077 103.686 79.9107 99.3021 76.2028 96.1347C75.8834 96.1206 75.7445 95.8378 75.5362 95.6681C72.7865 93.7027 69.6619 92.8542 66.3845 92.4583C64.718 92.2604 64.6903 92.3028 64.2875 90.606C64.1903 90.1959 63.8709 89.8566 64.0098 89.3475C64.4681 87.6507 64.8986 85.9398 65.3152 84.2147C65.4124 83.8187 65.6068 83.7056 65.9818 83.6491C67.0928 83.5077 68.1621 83.1966 69.1758 82.7441C71.1062 81.8815 72.5227 80.4958 73.1059 78.3607C73.5503 76.7063 73.3698 75.0378 73.1337 73.3834C72.7171 70.5412 72.0227 67.7698 71.3561 64.9842C71.2867 64.6731 71.3006 64.4893 71.5506 64.263C72.2449 63.6126 72.5643 62.7642 72.5782 61.8027C72.5782 61.3502 72.6199 60.827 71.9811 60.8128C71.3284 60.7987 71.4672 61.336 71.4395 61.7461C71.4256 61.8875 71.4256 62.0289 71.3978 62.1703C71.1756 63.5702 69.8841 64.3196 68.5926 63.7823C67.8704 63.4853 67.3288 62.9621 67.1205 62.1986C66.9122 61.4774 66.5511 61.2512 65.8429 61.435C65.1624 61.6188 64.5375 61.633 64.1625 60.827C64.0098 60.5018 63.6765 60.4735 63.3848 60.6573C63.121 60.827 63.0515 61.0956 63.2043 61.3926C63.246 61.4916 63.3015 61.5905 63.4265 61.8309C61.76 61.534 61.4267 62.5238 61.399 63.8105C61.399 63.853 61.3712 63.8954 61.3573 63.9519C60.7602 65.8467 58.8715 66.5537 57.33 65.4225C56.7884 65.0266 56.3718 64.5317 56.094 63.9237C55.969 63.6409 55.8718 63.3581 55.7468 63.0753C55.608 62.7359 55.3302 62.6086 55.0108 62.75C54.6914 62.8773 54.5664 63.146 54.6914 63.4995C54.8025 63.8105 54.9136 64.1216 55.0525 64.4186C55.8996 66.2285 57.5938 67.3031 59.3159 67.091C61.0518 66.8789 62.1905 65.6487 62.621 63.5136C62.6627 63.2732 62.6349 62.948 63.0238 62.9904C63.5098 63.0328 64.0514 62.5379 64.4819 63.146C65.343 64.3479 66.1345 65.5922 66.6206 67.0062C67.0372 68.1798 67.065 69.3535 66.4817 70.4988C66.2873 70.8806 66.1206 71.2765 66.6067 71.5169C67.1344 71.7714 67.3288 71.3613 67.5233 70.9513C68.537 68.802 67.9538 66.8224 66.9261 64.8852C66.781 64.6031 66.5482 64.3466 66.4657 63.9944C66.4635 63.985 66.4614 63.9756 66.4594 63.9661C66.4575 63.9567 66.4557 63.9473 66.4539 63.9378C66.44 63.9378 66.4262 63.9378 66.4262 63.9378H66.4123H66.3984C66.3845 63.9378 66.3706 63.9237 66.3706 63.9237L66.3567 63.9095C66.3428 63.8954 66.3289 63.8812 66.3289 63.8671C66.0929 63.5277 65.8707 63.1742 65.6485 62.8066C65.5235 62.5945 65.704 62.5945 65.8429 62.5804C66.0234 62.5945 66.7039 63.7257 66.6067 63.8671C66.5928 63.8954 66.565 63.9095 66.5511 63.9237C66.6345 63.9237 66.69 63.9237 66.7178 63.9519C67.6205 64.7438 68.6481 65.2104 69.8702 65.069C70.1966 65.0275 70.2433 65.23 70.2973 65.4642C70.2984 65.4692 70.2996 65.4741 70.3007 65.4791C70.5646 66.582 70.8423 67.6708 71.0923 68.7737C71.6617 71.3189 72.2588 73.8783 72.231 76.5083C72.2172 78.5728 71.3006 80.1565 69.5647 81.2311C68.3148 81.9947 66.9261 82.3623 65.4957 82.532C64.8013 82.6168 64.4819 82.8996 64.3014 83.6208C63.0377 88.994 61.6489 94.339 59.3853 99.4011C58.9548 100.377 58.5937 101.381 58.1632 102.441C58.0521 102.272 57.9966 102.201 57.9549 102.116C55.9135 97.9447 53.8721 93.7733 51.8167 89.6162C51.664 89.3051 51.6779 89.0364 51.7612 88.7395C52.4417 85.9822 53.0944 83.2107 53.7887 80.4534C53.9137 79.9585 53.8165 79.6333 53.386 79.3929C52.8305 79.0818 52.4 78.6152 52.0112 78.1062C50.9002 76.6921 50.1503 75.066 49.6087 73.3692C49.4281 72.8036 49.1504 72.5915 48.5671 72.5915C46.7479 72.5491 44.9842 72.1956 43.3455 71.3472C41.7346 70.5129 40.4569 69.3817 40.0681 67.487C39.5126 64.8428 40.7486 62.3541 43.0539 61.7037C45.3314 61.0674 47.4422 61.5906 49.3726 62.9339C49.6226 63.1035 49.8031 63.3298 50.1642 63.2449C51.1363 62.9904 51.9278 62.4814 52.5805 61.6895C53.4971 60.5583 54.122 59.2857 54.4137 57.8576C54.4831 57.4899 54.6497 57.292 54.9692 57.1364C56.9134 56.2456 58.9409 55.5952 61.0796 55.3972C64.0098 55.1144 66.4123 56.0335 68.0371 58.6636C68.2176 58.9464 68.412 59.1867 68.1065 59.5827C67.8288 59.9503 68.1204 60.3886 68.5926 60.4028C69.037 60.4169 69.4675 60.3745 69.9119 60.3462C70.1896 60.3321 70.3285 60.1483 70.3979 59.9079C70.4813 59.6534 70.3563 59.3564 70.148 59.314C69.5091 59.2009 69.4258 58.607 69.0925 58.2252C68.6898 57.7444 68.8287 57.4051 69.1758 56.9667C70.3285 55.482 70.8979 53.7711 70.7173 51.848C70.4812 49.2604 68.6342 47.7757 66.1206 48.1858C64.7041 48.412 63.371 48.9635 62.01 49.4301C59.7464 50.2078 57.5938 51.2542 55.5108 52.3995C54.0804 53.1772 52.7333 54.2094 51.4696 55.3124C50.4141 56.2315 49.4698 57.2495 48.5949 58.409C47.8311 57.0516 46.7479 56.3022 45.3036 56.0759C43.651 55.8073 42.1234 56.1749 40.7069 57.0092C38.11 58.5504 37.2073 61.2229 36.4435 63.9095C36.013 65.4225 35.8741 67.0345 35.5686 68.5899C35.2909 70.0039 34.8326 71.3755 34.1938 72.6481C33.4578 74.1187 32.6801 75.5751 32.1107 77.1163C30.9442 80.2696 31.8746 83.2673 35.1381 84.3136C38.0683 85.261 41.5679 83.8753 43.1372 81.1745C44.3176 79.1242 44.4565 76.9042 44.3037 74.6136C44.2621 74.1045 43.9149 73.4116 44.2343 73.143C44.5398 72.8743 45.1508 73.3834 45.6508 73.4258C46.0674 73.4541 46.2757 73.6379 46.4146 74.0621C46.7895 75.1792 47.4006 76.2114 48.4005 76.7911C49.8725 77.6395 51.0668 78.7425 52.2056 79.9726C52.4556 80.2554 52.5805 80.4393 52.4833 80.8069C51.914 83.0835 51.3724 85.3742 50.8169 87.6507C50.7752 87.8487 50.7335 88.0325 50.5391 88.188C49.6781 88.895 48.8171 89.6162 47.9977 90.3797C47.5395 90.8181 47.0534 90.9595 46.4424 90.9736C42.9844 91.016 39.5543 91.2988 36.2352 92.3735C30.6109 94.2117 26.8891 97.9305 25.3476 103.799C24.7921 105.934 24.5143 108.097 24.5005 110.289C24.4866 113.64 24.7921 116.977 24.9865 120.3C25.3337 125.914 25.6809 131.541 26.153 137.141C26.403 140.238 26.6808 143.334 26.9446 146.431C27.0141 146.502 27.0279 146.572 26.9724 146.657C27.0002 146.912 27.0418 147.166 27.0696 147.421C27.0974 147.491 27.1252 147.562 27.1529 147.647C27.1807 147.718 27.2085 147.803 27.2363 147.873C27.2779 147.873 27.2091 148.519 27.223 148.561C28.084 148.476 28.25 147.774 28.1667 146.898C28.0417 145.682 27.8751 144.48 27.7779 143.264C27.5418 140.52 27.3335 137.777 27.139 135.034C26.8392 130.853 26.5516 126.66 26.2648 122.477C26.2461 122.204 26.2273 121.931 26.2086 121.658C26.0975 119.918 25.9864 118.179 25.8753 116.44C25.6809 113.06 25.4448 109.681 25.9586 106.287C27.0002 99.4859 30.9442 94.9753 37.4712 93.2077C40.4708 92.4018 43.526 92.1755 46.609 92.0907C47.2062 92.0765 47.4978 92.2321 47.7478 92.7977C50.1642 98.1426 52.6222 103.459 55.0664 108.79C55.2052 109.087 55.3163 109.426 55.7191 109.426C56.1218 109.441 56.2468 109.115 56.3857 108.818C56.955 107.659 57.5244 106.514 58.0799 105.34C58.2604 104.958 58.3993 104.916 58.7187 105.227C59.6769 106.146 60.6629 107.037 61.635 107.956C61.885 108.182 62.135 108.408 62.4961 108.253C62.8294 108.111 62.8432 107.786 62.8849 107.475C63.0238 106.471 63.1626 105.467 63.3015 104.463C63.7876 100.971 64.2597 97.4639 64.7319 93.9713C64.7875 93.5471 64.9263 93.3916 65.3985 93.4481C66.8983 93.632 68.3843 93.8441 69.8285 94.2258C72.2449 94.8763 74.4947 95.8802 76.2861 97.7467C77.8693 99.1466 78.8692 100.957 79.7441 102.851C80.2023 103.841 80.6329 104.859 80.9523 105.976C79.2858 105.906 77.7721 106.386 76.2445 106.796C75.2446 107.32 74.1475 107.673 73.2032 108.309C72.6754 108.663 72.5088 108.507 72.4255 107.942C72.356 107.518 72.2172 107.037 71.6478 107.178C71.0229 107.334 71.2173 107.829 71.3284 108.267C72.2172 111.675 73.0782 115.097 73.9808 118.504C74.0919 118.929 74.0225 119.098 73.6059 119.254C70.8423 120.272 68.1065 121.318 65.3568 122.379C65.0374 122.506 64.7597 122.506 64.4264 122.407C58.9826 120.654 53.5388 118.9 47.9839 117.543C47.6228 117.458 47.4561 117.232 47.2895 116.935C44.9703 112.693 42.6511 108.465 40.3181 104.237C40.1237 103.884 39.9431 103.53 39.7209 103.205C39.5404 102.936 39.2488 102.88 38.9849 103.063C38.7349 103.233 38.6238 103.488 38.7766 103.799C38.8738 103.982 38.971 104.166 39.0682 104.364C39.069 104.366 39.0698 104.367 39.0706 104.369C39.5975 105.343 40.1244 106.317 40.6375 107.263C35.152 107.744 31.4719 111.152 27.9445 114.913C27.7223 114.531 27.514 114.163 27.3057 113.81C27.1113 113.485 26.8335 113.329 26.4863 113.527C26.153 113.725 26.1253 114.05 26.3197 114.39C26.3752 114.489 26.4308 114.602 26.4863 114.701C27.639 116.751 28.7639 118.801 29.9304 120.852L29.9315 120.853C32.3753 125.151 34.8191 129.449 37.2906 133.719C39.1793 136.985 41.0958 140.238 43.2205 143.348C44.2482 144.861 45.6091 145.908 47.4284 146.205C49.1782 146.502 50.8724 146.191 52.5389 145.625C54.5248 144.946 56.4134 144.013 58.2327 142.953C60.3296 141.722 62.4405 140.549 64.4958 139.234C65.2735 138.739 65.9401 138.569 66.7039 139.064C67.1483 139.347 67.6482 139.361 68.1204 139.488C69.9396 140.011 71.7589 140.549 73.592 141.029C74.0503 141.143 74.1753 141.369 74.203 141.793C74.3141 143.249 74.453 144.706 74.5919 146.148C74.6316 146.566 74.5428 148.47 75.0876 148.561C75.1144 148.566 75.1427 148.566 75.1726 148.561C75.7698 148.476 75.7723 146.459 75.7306 146.035C75.6057 144.72 75.4946 143.405 75.3557 142.09C75.3001 141.595 75.3835 141.44 75.9251 141.567C77.9665 142.076 80.0218 142.571 82.1188 142.797C83.7158 142.967 85.299 142.91 86.8682 142.387C90.104 141.355 91.4233 138.668 91.3122 135.458ZM57.4272 104.195C56.8856 105.283 56.344 106.372 55.7607 107.56C54.9275 105.75 54.1359 104.053 53.3582 102.356C51.789 98.9486 50.2475 95.5267 48.6643 92.1331C48.4699 91.7089 48.5116 91.4685 48.8726 91.1857C49.317 90.8464 49.7337 90.4787 50.1225 90.0687C50.4697 89.701 50.6085 89.8566 50.803 90.2242C52.9972 94.7066 55.1914 99.189 57.3994 103.671C57.4689 103.855 57.5383 103.997 57.4272 104.195ZM63.6904 93.4057C63.0932 97.7184 62.4961 102.031 61.8989 106.344C61.8989 106.386 61.8572 106.415 61.7739 106.528C60.8574 105.679 59.9408 104.831 59.0242 103.982C58.8437 103.827 58.9131 103.657 58.9826 103.473C60.4407 99.8112 61.8989 96.1489 63.3432 92.4866C63.371 92.43 63.3987 92.3593 63.4543 92.2462C63.6904 92.6846 63.7459 93.0239 63.6904 93.4057ZM59.5103 122.11C60.6768 122.478 61.8434 122.845 63.2043 123.284C61.7184 123.878 60.4407 124.401 59.1492 124.924C57.1772 125.716 55.1914 126.508 53.2194 127.299C52.9555 127.398 52.6916 127.512 52.4139 127.483C49.817 127.2 47.2478 127.71 44.6648 127.851C43.6232 127.907 42.5817 127.978 41.554 127.809C41.4152 127.78 41.2763 127.78 41.1513 127.724C40.8458 127.611 40.4847 127.497 40.4847 127.101C40.4847 126.734 40.818 126.621 41.0958 126.522C41.9568 126.225 42.8594 126.154 43.7621 126.098C45.9285 125.942 48.1088 125.97 50.2891 125.928C50.4974 125.928 50.7058 125.928 50.9141 125.9C51.2474 125.843 51.4696 125.645 51.4418 125.277C51.414 124.91 51.1918 124.712 50.8446 124.726C50.1503 124.726 49.4559 124.768 48.7615 124.783C46.5396 124.825 44.3176 124.797 42.1095 125.108C41.554 125.178 41.0263 125.334 40.4986 125.518C40.3181 125.589 40.0959 125.97 39.8876 125.532C39.7209 125.178 39.6098 124.811 40.0126 124.528C40.3875 124.273 40.818 124.175 41.2485 124.118C43.0261 123.849 44.8037 123.948 46.5812 123.948C47.595 123.948 48.6227 123.948 49.6364 123.92C49.9975 123.92 50.2891 123.75 50.2753 123.326C50.2614 122.874 49.9697 122.732 49.567 122.746C47.1784 122.831 44.8037 122.647 42.4151 122.803C41.3735 122.874 40.3458 122.987 39.4015 123.524C39.2488 123.623 39.1238 123.665 39.0127 123.453C38.846 123.114 38.7766 122.775 39.096 122.492C39.5126 122.124 40.0126 121.955 40.5403 121.856C42.2762 121.488 44.0399 121.488 45.7897 121.544C46.7062 121.573 47.6367 121.643 48.5671 121.714C48.9421 121.742 49.2893 121.714 49.3865 121.276C49.4837 120.823 49.1643 120.654 48.8171 120.526C46.5951 119.735 44.3732 118.943 42.1512 118.137C41.8873 118.038 41.6513 117.91 41.4013 117.797C42.54 117.5 43.6232 117.755 44.6926 117.995C49.692 119.084 54.6081 120.569 59.5103 122.11ZM60.2463 140.506C57.7605 141.906 55.3302 143.433 52.6361 144.409C51.7473 144.734 50.8307 144.989 49.8864 145.116C47.4006 145.455 45.4564 144.621 44.026 142.486C41.8179 139.163 39.7904 135.755 37.8045 132.291C34.8326 127.116 31.8885 121.912 28.9444 116.723C28.7639 116.412 28.5972 116.143 28.9027 115.775C31.5413 112.58 34.6382 110.049 38.6238 108.79C38.9293 108.691 39.2488 108.635 39.5682 108.592C41.1235 108.394 41.3735 108.536 42.1373 109.935C43.2066 111.915 44.3037 113.881 45.3869 115.846C45.5814 116.214 45.7758 116.581 46.0396 117.062C44.8592 116.878 43.8177 116.709 42.7622 116.553C42.2067 116.468 41.6513 116.44 41.0958 116.525C40.5542 116.61 40.207 116.935 40.082 117.458C39.957 118.009 40.2209 118.419 40.693 118.688C41.7068 119.282 42.8178 119.607 43.901 119.989C44.0676 120.046 44.2621 120.046 44.387 120.272C43.2205 120.357 42.0679 120.371 40.9291 120.569C40.1237 120.71 39.346 120.908 38.6516 121.361C37.4851 122.11 37.3601 123.482 38.3877 124.443C38.4711 124.528 38.596 124.57 38.5683 124.712C38.3877 125.843 39.2626 126.663 39.4571 127.695C39.6098 128.516 40.4431 128.756 41.193 128.897C43.04 129.237 44.887 128.996 46.7201 128.841C48.6088 128.685 50.4974 128.388 52.3861 128.657C52.7472 128.713 53.0666 128.572 53.386 128.445C59.6769 125.9 65.9679 123.369 72.3144 120.979C72.8837 120.767 73.4531 120.597 74.0225 120.371C74.328 120.244 74.4252 120.357 74.4947 120.639C75.189 123.326 75.8695 126.013 76.5778 128.685C76.6611 128.996 76.5361 129.152 76.3139 129.336C71.1895 133.394 65.954 137.296 60.2463 140.506ZM89.7985 138.201C89.2152 139.828 88.0903 140.846 86.4794 141.355C84.7851 141.892 83.0492 141.892 81.3272 141.581C76.6333 140.733 72.0227 139.559 67.4677 138.102C67.2872 138.046 67.1205 137.975 66.9678 137.919C66.8983 137.692 67.0789 137.664 67.1761 137.593C70.6479 135.218 74.0086 132.673 77.3416 130.085C77.8415 129.703 77.9804 129.35 77.8137 128.713C76.2167 122.619 74.6474 116.525 73.0782 110.43C73.0087 110.148 72.9254 109.907 73.2587 109.709C74.2308 109.172 75.1613 108.55 76.2445 108.253C77.7165 107.574 79.2441 107.192 80.8689 107.263C81.2439 107.277 81.4939 107.39 81.6188 107.814C82.9381 112.297 84.5907 116.652 86.2433 121.007C86.2572 121.05 86.2572 121.106 86.2572 121.149C87.8404 125.334 89.3957 129.548 90.0623 134.016C90.2567 135.416 90.2845 136.83 89.7985 138.201Z" fill="white"/>
<path d="M66.4678 63.9944H66.4657C66.5482 64.3466 66.781 64.6031 66.9261 64.8852C67.9538 66.8224 68.537 68.802 67.5233 70.9513C67.3288 71.3613 67.1344 71.7714 66.6067 71.5169C66.1206 71.2765 66.2873 70.8806 66.4817 70.4988C67.065 69.3535 67.0372 68.1798 66.6206 67.0062C66.1345 65.5922 65.343 64.3479 64.4819 63.146C64.0514 62.5379 63.5098 63.0328 63.0238 62.9904C62.6349 62.948 62.6627 63.2732 62.621 63.5136C62.1905 65.6487 61.0518 66.8789 59.3159 67.091C57.5938 67.3031 55.8996 66.2285 55.0525 64.4186C54.9136 64.1216 54.8025 63.8105 54.6914 63.4995C54.5664 63.146 54.6914 62.8773 55.0108 62.75C55.3302 62.6086 55.608 62.7359 55.7468 63.0753C55.8718 63.3581 55.969 63.6409 56.094 63.9237C56.3718 64.5317 56.7884 65.0266 57.33 65.4225C58.8715 66.5537 60.7602 65.8467 61.3573 63.9519C61.3712 63.8954 61.399 63.853 61.399 63.8105C61.4267 62.5238 61.76 61.534 63.4265 61.8309C63.3015 61.5905 63.246 61.4916 63.2043 61.3926C63.0515 61.0956 63.121 60.827 63.3848 60.6573C63.6765 60.4735 64.0098 60.5018 64.1625 60.827C64.5375 61.633 65.1624 61.6188 65.8429 61.435C66.5511 61.2512 66.9122 61.4774 67.1205 62.1986C67.3288 62.9621 67.8704 63.4853 68.5926 63.7823C69.8841 64.3196 71.1756 63.5702 71.3978 62.1703C71.4256 62.0289 71.4256 61.8875 71.4395 61.7461C71.4672 61.336 71.3284 60.7987 71.9811 60.8128L70.3979 59.9079C70.3285 60.1483 70.1896 60.3321 69.9119 60.3462C69.4675 60.3745 69.037 60.4169 68.5926 60.4028C68.1204 60.3886 67.8288 59.9503 68.1065 59.5827C68.412 59.1867 68.2176 58.9464 68.0371 58.6636C66.4123 56.0335 64.0098 55.1144 61.0796 55.3972C58.9409 55.5952 56.9134 56.2456 54.9692 57.1364C54.6497 57.292 54.4831 57.4899 54.4137 57.8576C54.122 59.2857 53.4971 60.5583 52.5805 61.6895C51.9278 62.4814 51.1363 62.9904 50.1642 63.2449C49.8031 63.3298 49.6226 63.1035 49.3726 62.9339C47.4422 61.5906 45.3314 61.0674 43.0539 61.7037C40.7486 62.3541 39.5126 64.8428 40.0681 67.487C40.4569 69.3817 41.7346 70.5129 43.3455 71.3472C44.9842 72.1956 46.7479 72.5491 48.5671 72.5915C49.1504 72.5915 49.4281 72.8036 49.6087 73.3692C50.1503 75.066 50.9002 76.6921 52.0112 78.1062C52.4 78.6152 52.8305 79.0818 53.386 79.3929C53.8165 79.6333 53.9137 79.9585 53.7887 80.4534C53.0944 83.2107 52.4417 85.9822 51.7612 88.7395C51.6779 89.0364 51.664 89.3051 51.8167 89.6162C53.8721 93.7733 55.9135 97.9447 57.9549 102.116C57.9966 102.201 58.0521 102.272 58.1632 102.441C58.5937 101.381 58.9548 100.377 59.3853 99.4011C61.6489 94.339 63.0377 88.994 64.3014 83.6208C64.4819 82.8996 64.8013 82.6168 65.4957 82.532C66.9261 82.3623 68.3148 81.9947 69.5647 81.2311C71.3006 80.1565 72.2172 78.5728 72.231 76.5083C72.2588 73.8783 71.6617 71.3189 71.0923 68.7737C70.8423 67.6708 70.5646 66.582 70.3007 65.4791L70.2973 65.4642C70.2433 65.23 70.1966 65.0275 69.8702 65.069C68.6481 65.2104 67.6205 64.7438 66.7178 63.9519C66.69 63.9237 66.6345 63.9237 66.5511 63.9237C66.565 63.9095 66.5928 63.8954 66.6067 63.8671C66.7039 63.7257 66.0234 62.5945 65.8429 62.5804C65.704 62.5945 65.5235 62.5945 65.6485 62.8066C65.8707 63.1742 66.0929 63.5277 66.3289 63.8671C66.3289 63.8812 66.3428 63.8954 66.3567 63.9095L66.3706 63.9237C66.3706 63.9237 66.3845 63.9378 66.3984 63.9378H66.4123H66.4262H66.4539C66.4557 63.9473 66.4575 63.9567 66.4594 63.9661H66.5095C66.5095 63.9802 66.4956 63.9802 66.4956 63.9802C66.4817 63.9944 66.4678 63.9944 66.4678 63.9944Z" fill="white"/>
<path d="M28.1667 146.898C28.25 147.774 28.084 148.476 27.223 148.561H75.0876C74.5428 148.47 74.6316 146.566 74.5919 146.148C74.453 144.706 74.3141 143.249 74.203 141.793C74.1753 141.369 74.0503 141.143 73.592 141.029C71.7589 140.549 69.9396 140.011 68.1204 139.488C67.6482 139.361 67.1483 139.347 66.7039 139.064C65.9401 138.569 65.2735 138.739 64.4958 139.234C62.4405 140.549 60.3296 141.722 58.2327 142.953C56.4134 144.013 54.5248 144.946 52.5389 145.625C50.8724 146.191 49.1782 146.502 47.4284 146.205C45.6091 145.908 44.2482 144.861 43.2205 143.348C41.0958 140.238 39.1793 136.985 37.2906 133.719C34.8191 129.449 32.3753 125.151 29.9315 120.853L29.9304 120.852C28.7639 118.801 27.639 116.751 26.4863 114.701C26.4308 114.602 26.3752 114.489 26.3197 114.39C26.1253 114.05 26.153 113.725 26.4863 113.527C26.8335 113.329 27.1113 113.485 27.3057 113.81C27.514 114.163 27.7223 114.531 27.9445 114.913C31.4719 111.152 35.152 107.744 40.6375 107.263C40.1244 106.317 39.5975 105.343 39.0706 104.369L39.0682 104.364C38.971 104.166 38.8738 103.982 38.7766 103.799C38.6238 103.488 38.7349 103.233 38.9849 103.063C39.2488 102.88 39.5404 102.936 39.7209 103.205C39.9431 103.53 40.1237 103.884 40.3181 104.237C42.6511 108.465 44.9703 112.693 47.2895 116.935C47.4561 117.232 47.6228 117.458 47.9839 117.543C53.5388 118.9 58.9826 120.654 64.4264 122.407C64.7597 122.506 65.0374 122.506 65.3568 122.379C68.1065 121.318 70.8423 120.272 73.6059 119.254C74.0225 119.098 74.0919 118.929 73.9808 118.504C73.0782 115.097 72.2172 111.675 71.3284 108.267C71.2173 107.829 71.0229 107.334 71.6478 107.178C72.2172 107.037 72.356 107.518 72.4255 107.942C72.5088 108.507 72.6754 108.663 73.2032 108.309C74.1475 107.673 75.2446 107.32 76.2445 106.796C77.7721 106.386 79.2858 105.906 80.9523 105.976C80.6329 104.859 80.2023 103.841 79.7441 102.851C78.8692 100.957 77.8693 99.1466 76.2861 97.7467C74.4947 95.8802 72.2449 94.8763 69.8285 94.2258C68.3843 93.8441 66.8983 93.632 65.3985 93.4481C64.9263 93.3916 64.7875 93.5471 64.7319 93.9713C64.2597 97.4639 63.7876 100.971 63.3015 104.463L62.8849 107.475C62.8432 107.786 62.8294 108.111 62.4961 108.253C62.135 108.408 61.885 108.182 61.635 107.956C60.6629 107.037 59.6769 106.146 58.7187 105.227C58.3993 104.916 58.2604 104.958 58.0799 105.34C57.5244 106.514 56.955 107.659 56.3857 108.818C56.2468 109.115 56.1218 109.441 55.7191 109.426C55.3163 109.426 55.2052 109.087 55.0664 108.79C52.6222 103.459 50.1642 98.1426 47.7478 92.7977C47.4978 92.2321 47.2062 92.0765 46.609 92.0907C43.526 92.1755 40.4708 92.4018 37.4712 93.2077C30.9442 94.9753 27.0002 99.4859 25.9586 106.287C25.4448 109.681 25.6809 113.06 25.8753 116.44L26.2086 121.658L26.2648 122.477C26.5516 126.66 26.8392 130.853 27.139 135.034C27.3335 137.777 27.5418 140.52 27.7779 143.264C27.8751 144.48 28.0417 145.682 28.1667 146.898Z" fill="white"/>
<path d="M43.0384 20.8754C43.0384 20.2249 42.844 20.0977 42.2469 20.0977C31.0954 20.1259 19.9439 20.1259 8.79242 20.1118C8.13972 20.1118 7.98696 20.3098 8.00085 20.9461C8.01473 24.4245 8.01473 27.903 8.01473 31.3814C8.01473 32.7672 8.01473 34.167 8.01473 35.5528V47.6425C8.01473 51.3189 8.01473 54.9953 8.00085 58.6718C8.00085 59.2232 8.11194 59.4495 8.7091 59.4495C19.9022 59.4353 31.1093 59.4353 42.3024 59.4495C42.8996 59.4495 43.0384 59.2515 43.0384 58.6859C43.0245 46.0871 43.0245 33.4883 43.0384 20.8754ZM40.0388 47.9253C40.0388 48.2081 40.0388 48.4909 40.011 48.7737C39.9832 49.1555 39.7749 49.3676 39.3722 49.3676H38.8861C29.9566 49.3676 21.0271 49.3676 12.0976 49.3676C11.1671 49.3676 11.0699 49.2686 11.0699 48.3212V24.1559C11.0699 22.9822 11.0977 22.954 12.2226 22.954H25.5544C30.0261 22.954 34.4839 22.954 38.9556 22.954C39.9138 22.954 40.0527 23.0954 40.0527 24.0427C40.0388 32.0036 40.0388 39.9645 40.0388 47.9253Z" fill="#13D6A3"/>
<path d="M66.4401 63.9661C66.4401 63.9802 66.4401 63.9944 66.4401 63.9944H66.4539H66.4678C66.4678 63.9944 66.4817 63.9944 66.4956 63.9802C66.4956 63.9802 66.5095 63.9802 66.5095 63.9661C66.4956 63.9661 66.4678 63.9661 66.4401 63.9661ZM91.3122 135.458C91.215 132.828 90.5761 130.311 89.7846 127.823C89.0624 125.56 88.2847 123.326 87.5348 121.078C85.8406 116.836 84.2713 112.537 82.9104 108.168C81.5078 103.686 79.9107 99.3021 76.2028 96.1347C75.8834 96.1206 75.7445 95.8378 75.5362 95.6681C72.7865 93.7027 69.6619 92.8542 66.3845 92.4583C64.718 92.2604 64.6903 92.3028 64.2875 90.606C64.1903 90.1959 63.8709 89.8566 64.0098 89.3475C64.4681 87.6507 64.8986 85.9398 65.3152 84.2147C65.4124 83.8187 65.6068 83.7056 65.9818 83.6491C67.0928 83.5077 68.1621 83.1966 69.1758 82.7441C71.1062 81.8815 72.5227 80.4958 73.1059 78.3607C73.5503 76.7063 73.3698 75.0378 73.1337 73.3834C72.7171 70.5412 72.0227 67.7698 71.3561 64.9842C71.2867 64.6731 71.3006 64.4893 71.5506 64.263C72.2449 63.6126 72.5643 62.7642 72.5782 61.8027C72.5782 61.3502 72.6199 60.827 71.9811 60.8128C71.3284 60.7987 71.4673 61.336 71.4395 61.7461C71.4256 61.8875 71.4256 62.0289 71.3978 62.1703C71.1756 63.5702 69.8841 64.3196 68.5926 63.7823C67.8704 63.4853 67.3288 62.9621 67.1205 62.1986C66.9122 61.4774 66.5511 61.2512 65.8429 61.435C65.1624 61.6188 64.5375 61.633 64.1625 60.827C64.0098 60.5018 63.6765 60.4735 63.3848 60.6573C63.121 60.827 63.0516 61.0956 63.2043 61.3926C63.246 61.4916 63.3015 61.5905 63.4265 61.8309C61.76 61.534 61.4267 62.5238 61.399 63.8105C61.399 63.853 61.3712 63.8954 61.3573 63.9519C60.7602 65.8467 58.8715 66.5537 57.33 65.4225C56.7884 65.0266 56.3718 64.5317 56.094 63.9237C55.969 63.6409 55.8718 63.3581 55.7468 63.0753C55.608 62.7359 55.3302 62.6086 55.0108 62.75C54.6914 62.8773 54.5664 63.146 54.6914 63.4995C54.8025 63.8105 54.9136 64.1216 55.0525 64.4186C55.8996 66.2285 57.5939 67.3031 59.3159 67.091C61.0518 66.8789 62.1905 65.6487 62.6211 63.5136C62.6627 63.2732 62.6349 62.948 63.0238 62.9904C63.5098 63.0328 64.0514 62.5379 64.4819 63.146C65.343 64.3479 66.1345 65.5922 66.6206 67.0062C67.0372 68.1798 67.065 69.3535 66.4817 70.4988C66.2873 70.8806 66.1206 71.2765 66.6067 71.5169C67.1344 71.7714 67.3288 71.3613 67.5233 70.9513C68.537 68.802 67.9538 66.8224 66.9261 64.8852C66.7733 64.5882 66.5234 64.3196 66.4539 63.9378C66.44 63.9378 66.4262 63.9378 66.4262 63.9378H66.4123H66.3984C66.3845 63.9378 66.3706 63.9237 66.3706 63.9237L66.3567 63.9095C66.3428 63.8954 66.329 63.8812 66.329 63.8671C66.0929 63.5277 65.8707 63.1742 65.6485 62.8066C65.5235 62.5945 65.704 62.5945 65.8429 62.5804C66.0234 62.5945 66.7039 63.7257 66.6067 63.8671C66.5928 63.8954 66.565 63.9095 66.5512 63.9237C66.6345 63.9237 66.69 63.9237 66.7178 63.9519C67.6205 64.7438 68.6481 65.2104 69.8702 65.069C70.2035 65.0266 70.2452 65.2387 70.3007 65.4791C70.5646 66.582 70.8423 67.6708 71.0923 68.7737C71.6617 71.3189 72.2588 73.8783 72.2311 76.5083C72.2172 78.5728 71.3006 80.1565 69.5647 81.2311C68.3148 81.9947 66.9261 82.3623 65.4957 82.532C64.8013 82.6168 64.4819 82.8996 64.3014 83.6208C63.0377 88.994 61.6489 94.339 59.3853 99.4011C58.9548 100.377 58.5937 101.381 58.1632 102.441C58.0521 102.272 57.9966 102.201 57.9549 102.116C55.9135 97.9447 53.8721 93.7733 51.8167 89.6162C51.664 89.3051 51.6779 89.0364 51.7612 88.7395C52.4417 85.9822 53.0944 83.2107 53.7887 80.4534C53.9137 79.9585 53.8165 79.6333 53.386 79.3929C52.8305 79.0818 52.4 78.6152 52.0112 78.1062C50.9002 76.6921 50.1503 75.066 49.6087 73.3692C49.4281 72.8036 49.1504 72.5915 48.5671 72.5915C46.7479 72.5491 44.9842 72.1956 43.3455 71.3472C41.7346 70.5129 40.4569 69.3817 40.0681 67.487C39.5126 64.8428 40.7486 62.3541 43.0539 61.7037C45.3314 61.0674 47.4422 61.5906 49.3726 62.9339C49.6226 63.1035 49.8031 63.3298 50.1642 63.2449C51.1363 62.9904 51.9278 62.4814 52.5805 61.6895C53.4971 60.5583 54.122 59.2857 54.4137 57.8576C54.4831 57.4899 54.6498 57.292 54.9692 57.1364C56.9134 56.2456 58.9409 55.5952 61.0796 55.3972C64.0098 55.1144 66.4123 56.0335 68.0371 58.6636C68.2176 58.9464 68.412 59.1867 68.1065 59.5827C67.8288 59.9503 68.1204 60.3886 68.5926 60.4028C69.037 60.4169 69.4675 60.3745 69.9119 60.3462C70.1896 60.3321 70.3285 60.1483 70.3979 59.9079C70.4813 59.6534 70.3563 59.3564 70.148 59.314C69.5091 59.2009 69.4258 58.607 69.0925 58.2252C68.6898 57.7444 68.8287 57.4051 69.1758 56.9667C70.3285 55.482 70.8979 53.7711 70.7173 51.848C70.4813 49.2604 68.6342 47.7757 66.1206 48.1858C64.7041 48.412 63.371 48.9635 62.01 49.4301C59.7464 50.2078 57.5939 51.2542 55.5108 52.3995C54.0804 53.1772 52.7333 54.2094 51.4696 55.3124C50.4141 56.2315 49.4698 57.2495 48.5949 58.409C47.8311 57.0516 46.7479 56.3022 45.3036 56.0759C43.651 55.8073 42.1234 56.1749 40.7069 57.0092C38.11 58.5504 37.2073 61.2229 36.4435 63.9095C36.013 65.4225 35.8741 67.0345 35.5686 68.5899C35.2909 70.0039 34.8326 71.3755 34.1938 72.6481C33.4578 74.1187 32.6801 75.5751 32.1107 77.1163C30.9442 80.2696 31.8746 83.2673 35.1381 84.3136C38.0683 85.261 41.5679 83.8753 43.1372 81.1745C44.3176 79.1242 44.4565 76.9042 44.3037 74.6136C44.2621 74.1045 43.9149 73.4116 44.2343 73.143C44.5398 72.8743 45.1508 73.3834 45.6508 73.4258C46.0674 73.4541 46.2757 73.6379 46.4146 74.0621C46.7895 75.1792 47.4006 76.2114 48.4005 76.7911C49.8725 77.6395 51.0668 78.7425 52.2056 79.9726C52.4556 80.2554 52.5805 80.4393 52.4833 80.8069C51.914 83.0835 51.3724 85.3741 50.8169 87.6507C50.7752 87.8487 50.7335 88.0325 50.5391 88.188C49.6781 88.895 48.8171 89.6162 47.9977 90.3797C47.5395 90.8181 47.0534 90.9595 46.4424 90.9736C42.9844 91.016 39.5543 91.2988 36.2352 92.3735C30.6109 94.2117 26.8891 97.9305 25.3476 103.799C24.7921 105.934 24.5143 108.097 24.5005 110.289C24.4866 113.64 24.7921 116.977 24.9865 120.3C25.3337 125.914 25.6809 131.541 26.153 137.141C26.403 140.238 26.6808 143.334 26.9446 146.431C27.0141 146.502 27.0279 146.572 26.9724 146.657C27.0002 146.912 27.0418 147.166 27.0696 147.421C27.0974 147.491 27.1252 147.562 27.1529 147.647C27.1807 147.718 27.2085 147.803 27.2363 147.873C27.2779 147.873 27.3057 147.902 27.3196 147.944C28.1806 147.859 28.25 147.774 28.1667 146.898C28.0417 145.682 27.8751 144.48 27.7779 143.264C27.5418 140.52 27.3335 137.777 27.139 135.034C26.8196 130.58 26.5141 126.112 26.2086 121.658C26.0975 119.918 25.9864 118.179 25.8753 116.44C25.6809 113.06 25.4448 109.681 25.9586 106.287C27.0002 99.4859 30.9442 94.9753 37.4712 93.2077C40.4708 92.4018 43.526 92.1755 46.609 92.0907C47.2062 92.0765 47.4978 92.2321 47.7478 92.7977C50.1642 98.1426 52.6222 103.459 55.0664 108.79C55.2052 109.087 55.3163 109.426 55.7191 109.426C56.1218 109.441 56.2468 109.115 56.3857 108.818C56.955 107.659 57.5244 106.514 58.0799 105.34C58.2604 104.958 58.3993 104.916 58.7187 105.227C59.6769 106.146 60.6629 107.037 61.6351 107.956C61.885 108.182 62.135 108.408 62.4961 108.253C62.8294 108.111 62.8432 107.786 62.8849 107.475C63.0238 106.471 63.1627 105.467 63.3015 104.463C63.7876 100.971 64.2597 97.4639 64.7319 93.9713C64.7875 93.5471 64.9263 93.3916 65.3985 93.4481C66.8983 93.632 68.3843 93.8441 69.8285 94.2258C72.2449 94.8763 74.4947 95.8802 76.2861 97.7467C77.8693 99.1466 78.8692 100.957 79.7441 102.851C80.2024 103.841 80.6329 104.859 80.9523 105.976C79.2858 105.906 77.7721 106.386 76.2445 106.796C75.2446 107.32 74.1475 107.673 73.2032 108.309C72.6754 108.663 72.5088 108.507 72.4255 107.942C72.356 107.518 72.2172 107.037 71.6478 107.178C71.0229 107.334 71.2173 107.829 71.3284 108.267C72.2172 111.675 73.0782 115.097 73.9808 118.504C74.0919 118.929 74.0225 119.098 73.6059 119.254C70.8423 120.272 68.1065 121.318 65.3568 122.379C65.0374 122.506 64.7597 122.506 64.4264 122.407C58.9826 120.654 53.5388 118.9 47.9839 117.543C47.6228 117.458 47.4561 117.232 47.2895 116.935C44.9703 112.693 42.6511 108.465 40.3181 104.237C40.1237 103.883 39.9431 103.53 39.7209 103.205C39.5404 102.936 39.2488 102.88 38.9849 103.063C38.7349 103.233 38.6238 103.488 38.7766 103.799C38.8738 103.982 38.971 104.166 39.0682 104.364C39.5959 105.34 40.1237 106.316 40.6375 107.263C35.152 107.744 31.4719 111.151 27.9445 114.913C27.7223 114.531 27.514 114.163 27.3057 113.81C27.1113 113.485 26.8335 113.329 26.4863 113.527C26.153 113.725 26.1253 114.05 26.3197 114.39C26.3752 114.489 26.4308 114.602 26.4863 114.701C27.639 116.751 28.7639 118.801 29.9304 120.852C32.3745 125.15 34.8187 129.449 37.2906 133.719C39.1793 136.985 41.0958 140.238 43.2205 143.348C44.2482 144.861 45.6091 145.908 47.4284 146.205C49.1782 146.502 50.8724 146.191 52.5389 145.625C54.5248 144.946 56.4134 144.013 58.2327 142.953C60.3297 141.722 62.4405 140.549 64.4958 139.234C65.2735 138.739 65.9401 138.569 66.7039 139.064C67.1483 139.347 67.6482 139.361 68.1204 139.488C69.9396 140.011 71.7589 140.549 73.592 141.029C74.0503 141.143 74.1753 141.369 74.203 141.793C74.3141 143.249 74.453 144.706 74.5919 146.148C74.6336 146.587 74.6474 147.138 75.2863 147.039C75.8834 146.954 75.7723 146.459 75.7306 146.035C75.6057 144.72 75.4946 143.405 75.3557 142.09C75.3001 141.595 75.3835 141.44 75.9251 141.567C77.9665 142.076 80.0218 142.571 82.1188 142.797C83.7158 142.967 85.299 142.91 86.8682 142.387C90.104 141.355 91.4233 138.668 91.3122 135.458ZM57.4272 104.195C56.8856 105.283 56.344 106.372 55.7607 107.56C54.9275 105.75 54.1359 104.053 53.3582 102.356C51.789 98.9486 50.2475 95.5267 48.6643 92.1331C48.4699 91.7089 48.5116 91.4685 48.8726 91.1857C49.317 90.8464 49.7337 90.4787 50.1225 90.0687C50.4697 89.701 50.6086 89.8566 50.803 90.2242C52.9972 94.7066 55.1914 99.189 57.3994 103.671C57.4689 103.855 57.5383 103.997 57.4272 104.195ZM63.6904 93.4057C63.0932 97.7184 62.4961 102.031 61.8989 106.344C61.8989 106.386 61.8573 106.415 61.7739 106.528C60.8574 105.679 59.9408 104.831 59.0242 103.982C58.8437 103.827 58.9131 103.657 58.9826 103.473C60.4407 99.8112 61.8989 96.1489 63.3432 92.4866C63.371 92.43 63.3987 92.3593 63.4543 92.2462C63.6904 92.6846 63.7459 93.0239 63.6904 93.4057ZM59.5103 122.11C60.6768 122.478 61.8434 122.845 63.2043 123.284C61.7184 123.878 60.4408 124.401 59.1492 124.924C57.1772 125.716 55.1914 126.508 53.2194 127.299C52.9555 127.398 52.6916 127.512 52.4139 127.483C49.817 127.2 47.2478 127.71 44.6648 127.851C43.6232 127.907 42.5817 127.978 41.554 127.809C41.4152 127.78 41.2763 127.78 41.1513 127.724C40.8458 127.611 40.4847 127.497 40.4847 127.102C40.4847 126.734 40.818 126.621 41.0958 126.522C41.9568 126.225 42.8594 126.154 43.7621 126.098C45.9285 125.942 48.1088 125.97 50.2891 125.928C50.4975 125.928 50.7058 125.928 50.9141 125.9C51.2474 125.843 51.4696 125.645 51.4418 125.277C51.414 124.91 51.1918 124.712 50.8446 124.726C50.1503 124.726 49.4559 124.768 48.7615 124.783C46.5396 124.825 44.3176 124.797 42.1095 125.108C41.554 125.178 41.0263 125.334 40.4986 125.518C40.3181 125.589 40.0959 125.97 39.8876 125.532C39.7209 125.178 39.6098 124.811 40.0126 124.528C40.3875 124.273 40.818 124.175 41.2485 124.118C43.0261 123.849 44.8037 123.948 46.5812 123.948C47.595 123.948 48.6227 123.948 49.6364 123.92C49.9975 123.92 50.2891 123.75 50.2753 123.326C50.2614 122.874 49.9697 122.732 49.567 122.746C47.1784 122.831 44.8037 122.647 42.4151 122.803C41.3735 122.874 40.3458 122.987 39.4015 123.524C39.2488 123.623 39.1238 123.665 39.0127 123.453C38.846 123.114 38.7766 122.775 39.096 122.492C39.5126 122.124 40.0126 121.955 40.5403 121.856C42.2762 121.488 44.0399 121.488 45.7897 121.544C46.7062 121.573 47.6367 121.643 48.5671 121.714C48.9421 121.742 49.2893 121.714 49.3865 121.276C49.4837 120.823 49.1643 120.654 48.8171 120.526C46.5951 119.735 44.3732 118.943 42.1512 118.137C41.8873 118.038 41.6513 117.91 41.4013 117.797C42.54 117.5 43.6232 117.755 44.6926 117.995C49.692 119.084 54.6081 120.569 59.5103 122.11ZM60.2463 140.506C57.7605 141.906 55.3302 143.433 52.6361 144.409C51.7473 144.734 50.8307 144.989 49.8864 145.116C47.4006 145.455 45.4564 144.621 44.026 142.486C41.8179 139.163 39.7904 135.755 37.8045 132.291C34.8326 127.116 31.8885 121.912 28.9444 116.723C28.7639 116.412 28.5972 116.143 28.9027 115.775C31.5413 112.58 34.6382 110.049 38.6238 108.79C38.9293 108.691 39.2488 108.635 39.5682 108.592C41.1235 108.394 41.3735 108.536 42.1373 109.935C43.2066 111.915 44.3037 113.881 45.3869 115.846C45.5814 116.214 45.7758 116.581 46.0396 117.062C44.8592 116.878 43.8177 116.709 42.7622 116.553C42.2067 116.468 41.6513 116.44 41.0958 116.525C40.5542 116.61 40.207 116.935 40.082 117.458C39.957 118.009 40.2209 118.419 40.693 118.688C41.7068 119.282 42.8178 119.607 43.901 119.989C44.0676 120.046 44.2621 120.046 44.387 120.272C43.2205 120.357 42.0679 120.371 40.9291 120.569C40.1237 120.71 39.346 120.908 38.6516 121.361C37.4851 122.11 37.3601 123.482 38.3877 124.443C38.4711 124.528 38.5961 124.57 38.5683 124.712C38.3877 125.843 39.2626 126.663 39.4571 127.695C39.6098 128.516 40.4431 128.756 41.193 128.897C43.04 129.237 44.887 128.996 46.7201 128.841C48.6088 128.685 50.4975 128.388 52.3861 128.657C52.7472 128.713 53.0666 128.572 53.386 128.445C59.6769 125.9 65.9679 123.369 72.3144 120.979C72.8838 120.767 73.4531 120.597 74.0225 120.371C74.328 120.244 74.4252 120.357 74.4947 120.639C75.189 123.326 75.8695 126.013 76.5778 128.685C76.6611 128.996 76.5361 129.152 76.3139 129.336C71.1895 133.394 65.954 137.296 60.2463 140.506ZM89.7985 138.201C89.2152 139.828 88.0903 140.846 86.4794 141.355C84.7852 141.892 83.0492 141.892 81.3272 141.581C76.6333 140.733 72.0227 139.559 67.4677 138.102C67.2872 138.046 67.1205 137.975 66.9678 137.919C66.8983 137.692 67.0789 137.664 67.1761 137.593C70.6479 135.218 74.0086 132.673 77.3416 130.085C77.8415 129.703 77.9804 129.35 77.8137 128.713C76.2167 122.619 74.6474 116.525 73.0782 110.43C73.0087 110.148 72.9254 109.907 73.2587 109.709C74.2308 109.172 75.1613 108.55 76.2445 108.253C77.7165 107.574 79.2441 107.192 80.8689 107.263C81.2439 107.277 81.4939 107.39 81.6189 107.814C82.9381 112.297 84.5907 116.652 86.2433 121.007C86.2572 121.05 86.2572 121.106 86.2572 121.149C87.8404 125.334 89.3957 129.548 90.0623 134.016C90.2567 135.416 90.2845 136.83 89.7985 138.201Z" fill="#200F09"/>
<path d="M1.05846 76.3101C-0.913532 76.0839 -2.82997 77.9504 -2.88552 80.1562C-2.94107 82.4328 -1.0524 84.2993 1.25288 84.2286C3.25265 84.172 4.93301 82.4186 4.98856 80.2411C5.04411 77.8938 2.82214 76.0415 1.05846 76.3101ZM1.10012 83.0125C-0.496914 83.0267 -1.62178 81.853 -1.70511 80.2552C-1.77454 78.7564 -0.246943 77.2575 1.04457 77.4555C2.68327 77.4555 3.76648 78.5867 3.78036 80.3118C3.79425 81.8389 2.64161 82.9984 1.10012 83.0125Z" fill="#FCDF5A"/>
<path d="M18.7366 85.4164C18.2784 86.3921 17.7923 87.4526 17.2924 88.5131C16.2091 90.8179 15.1121 93.1228 14.015 95.4417C13.8344 95.8094 13.6261 96.1205 13.1678 95.9084C12.6957 95.6963 12.7929 95.3145 12.9595 94.9468C14.501 91.6946 16.0425 88.4283 17.5979 85.1902C17.7645 84.8508 17.9451 84.4549 18.4172 84.6246C18.7089 84.7236 18.7922 85.0064 18.7366 85.4164Z" fill="#FCDF5A"/>
<path d="M49.0527 68.8577C48.6638 69.0698 48.4139 68.886 48.2056 68.5325C47.5112 67.373 46.5391 66.5388 45.3031 66.0156C44.9004 65.8459 44.4699 65.7469 44.0255 65.7752C43.6089 65.8035 43.2339 65.7328 43.22 65.2379C43.1923 64.7005 43.6228 64.6298 44.0394 64.6016C44.1088 64.6016 44.1782 64.6016 44.2477 64.6016C46.4697 64.8844 48.0806 66.1004 49.2332 67.9952C49.4138 68.3063 49.4138 68.6456 49.0527 68.8577Z" fill="#200F09"/>
<path d="M130.016 129.307C129.975 129.391 129.919 129.547 129.85 129.688C129.239 130.82 128.419 131.809 127.919 132.997C127.78 133.337 127.406 133.591 127.128 133.874C126.933 134.072 126.739 133.959 126.558 133.846C126.295 133.676 126.267 133.393 126.378 133.167C126.85 132.29 127.169 131.343 127.878 130.608C128.322 130.155 128.558 129.561 128.878 129.024C129.03 128.769 129.239 128.585 129.558 128.684C129.864 128.755 130.002 128.953 130.016 129.307Z" fill="#FA9BE1"/>
<path d="M69.5788 29.0259C69.2594 29.2239 69.0233 29.0966 68.8428 28.7714C68.2734 27.725 67.6763 26.6928 67.1208 25.6465C66.8153 25.0667 66.9958 24.6142 67.5374 24.6001C67.8013 24.5435 67.9263 24.7556 68.0374 24.9677C68.6345 26.0565 69.2178 27.1453 69.8149 28.22C70.051 28.6017 69.8704 28.8421 69.5788 29.0259Z" fill="#FA9BE1"/>
<path d="M68.0506 31.443C68.0367 31.7824 67.8979 31.9379 67.7034 32.0369C67.4951 32.1359 67.2868 32.1076 67.1341 31.9379C66.9674 31.7541 66.8147 31.542 66.6758 31.3299C66.2036 30.5522 65.7315 29.7745 65.2732 28.9968C65.0649 28.6574 65.0232 28.3039 65.4121 28.0777C65.8009 27.8373 66.037 28.0777 66.2453 28.4171C66.7452 29.2513 67.2729 30.0714 67.7868 30.9057C67.8979 31.1037 67.9812 31.3158 68.0506 31.443Z" fill="#FA9BE1"/>
<path d="M70.5777 71.9687C69.8833 72.2515 69.2723 72.6192 68.7862 73.2272C68.6196 73.4534 68.328 73.4252 68.0919 73.2555C67.8697 73.1141 67.8141 72.8878 67.8836 72.6475C68.0502 72.0394 69.6334 70.8941 70.2861 70.9224C70.536 70.9365 70.7305 71.0355 70.7999 71.3042C70.8693 71.5587 70.8693 71.8556 70.5777 71.9687Z" fill="#200F09"/>
<path d="M58.6771 59.7374C58.6771 60.1192 57.8577 60.6565 57.205 60.6565C56.9272 60.6565 56.7328 60.4585 56.7189 60.105C56.705 59.7091 57.5105 59.1859 58.1077 59.2C58.4549 59.1859 58.6771 59.3556 58.6771 59.7374Z" fill="#200F09"/>
<path d="M60.1761 63.3437C60.1206 63.782 59.8706 64.0366 59.4401 64.0224C59.0096 64.0083 58.7457 63.7255 58.7735 63.2871C58.8013 62.8629 59.0512 62.5801 59.4956 62.6084C59.94 62.6225 60.1484 62.9195 60.1761 63.3437Z" fill="#200F09"/>
<path d="M69.4251 62.6362C68.9807 62.6362 68.7307 62.4099 68.7029 61.9716C68.6751 61.4908 68.9807 61.2646 69.3973 61.2363C69.9667 61.109 70.0361 61.5757 70.05 61.9009C70.0639 62.2685 69.9111 62.6362 69.4251 62.6362Z" fill="#200F09"/>
<path d="M26.9726 146.727C26.8337 146.671 26.8059 146.586 26.9448 146.501C27.0142 146.572 27.0281 146.642 26.9726 146.727Z" fill="#FA9BE1"/>
<path d="M27.1525 147.703C26.9858 147.689 26.9164 147.618 27.0691 147.477C27.0969 147.561 27.1247 147.632 27.1525 147.703Z" fill="#FA9BE1"/>
<path d="M27.3199 148H27.2504L27.2227 147.943C27.2782 147.929 27.306 147.957 27.3199 148Z" fill="#FA9BE1"/>
<path d="M46.0392 117.076C44.8588 116.892 43.8172 116.723 42.7618 116.567C42.2063 116.482 41.6508 116.454 41.0953 116.553C40.5537 116.638 40.2065 116.949 40.0816 117.486C39.9566 118.038 40.2204 118.448 40.6926 118.716C41.7064 119.31 42.8174 119.636 43.9006 120.017C44.0672 120.074 44.2616 120.074 44.3866 120.3C43.2201 120.385 42.0674 120.399 40.9287 120.597C40.1232 120.738 39.3455 120.936 38.6512 121.389C37.4846 122.138 37.3597 123.51 38.3873 124.457C38.4706 124.542 38.5817 124.585 38.5679 124.726C38.3873 125.857 39.2622 126.677 39.4566 127.724C39.6094 128.53 40.4426 128.784 41.1925 128.926C43.0396 129.265 44.8866 129.025 46.7336 128.869C48.6222 128.713 50.497 128.417 52.3996 128.685C52.7606 128.742 53.08 128.6 53.3995 128.473C59.6904 125.928 65.9813 123.397 72.3278 121.007C72.8972 120.795 73.4666 120.625 74.0221 120.399C74.3276 120.272 74.4248 120.385 74.4942 120.668C75.1886 123.354 75.8691 126.041 76.5773 128.713C76.6606 129.025 76.5357 129.194 76.3135 129.364C71.1613 133.394 65.9258 137.297 60.2181 140.506C57.7323 141.906 55.302 143.419 52.6079 144.409C51.7191 144.734 50.8025 144.989 49.8582 145.116C47.3724 145.455 45.4282 144.621 43.9978 142.486C41.7897 139.163 39.7622 135.755 37.7763 132.305C34.8044 127.13 31.8603 121.926 28.9162 116.723C28.7357 116.412 28.5551 116.143 28.8745 115.775C31.5131 112.58 34.61 110.049 38.5956 108.79C38.9011 108.691 39.2206 108.635 39.54 108.592C41.0953 108.394 41.3453 108.536 42.1091 109.935C43.1784 111.915 44.2755 113.881 45.3587 115.846C45.5948 116.228 45.7892 116.595 46.0392 117.076Z" fill="#FEFEFE"/>
<path d="M41.3863 117.797C42.525 117.5 43.6082 117.754 44.6775 117.981C49.6909 119.084 54.607 120.568 59.5092 122.11C60.6757 122.477 61.8422 122.845 63.2032 123.283C61.7172 123.877 60.4396 124.4 59.1481 124.923C57.1761 125.715 55.1902 126.507 53.2182 127.299C52.9544 127.398 52.6905 127.525 52.4128 127.483C49.8158 127.2 47.2467 127.723 44.6637 127.85C43.6221 127.907 42.5806 127.978 41.5529 127.808C41.414 127.78 41.2752 127.78 41.1502 127.723C40.8446 127.61 40.4836 127.497 40.4836 127.101C40.4836 126.733 40.8169 126.62 41.0946 126.521C41.9556 126.224 42.8583 126.154 43.761 126.097C45.9274 125.941 48.1077 125.97 50.288 125.927C50.4963 125.927 50.7046 125.927 50.9129 125.899C51.2462 125.842 51.4684 125.645 51.4407 125.277C51.4129 124.909 51.1907 124.711 50.8435 124.725C50.1491 124.725 49.4548 124.768 48.7604 124.782C46.5384 124.824 44.3165 124.796 42.1084 125.107C41.5529 125.192 41.0252 125.333 40.4975 125.517C40.3169 125.588 40.0947 125.97 39.8864 125.531C39.7198 125.178 39.6087 124.81 40.0114 124.527C40.3864 124.273 40.8169 124.174 41.2474 124.117C43.025 123.849 44.8025 123.948 46.5801 123.948C47.5939 123.948 48.6215 123.948 49.6353 123.919C49.9964 123.905 50.288 123.75 50.2741 123.326C50.2602 122.873 49.9686 122.732 49.5659 122.746C47.1911 122.831 44.8025 122.647 42.4139 122.802C41.3724 122.873 40.3447 122.986 39.4143 123.524C39.2476 123.622 39.1365 123.665 39.0254 123.453C38.8588 123.113 38.7893 122.774 39.1087 122.491C39.5254 122.124 40.0253 121.954 40.553 121.855C42.2889 121.487 44.0526 121.487 45.8024 121.544C46.7329 121.572 47.6494 121.643 48.566 121.714C48.9409 121.742 49.2881 121.714 49.3853 121.275C49.4825 120.823 49.1631 120.653 48.816 120.526C46.594 119.734 44.372 118.942 42.1501 118.136C41.8862 118.051 41.6362 117.91 41.3863 117.797Z" fill="#FEFEFE"/>
<path d="M55.76 107.56C54.9268 105.75 54.1352 104.053 53.3576 102.356C51.7883 98.9483 50.2468 95.5264 48.6637 92.1328C48.4692 91.7086 48.5109 91.4682 48.872 91.1854C49.3164 90.8461 49.733 90.4784 50.1218 90.0684C50.469 89.7007 50.6079 89.8563 50.8023 90.2239C52.9965 94.7063 55.1907 99.1887 57.3988 103.671C57.4821 103.855 57.5515 103.996 57.4543 104.194C56.8849 105.283 56.3433 106.372 55.76 107.56Z" fill="#FEFEFE"/>
<path d="M61.7728 106.528C60.8562 105.679 59.9396 104.831 59.0231 103.982C58.8425 103.827 58.912 103.657 58.9814 103.473C60.4396 99.8111 61.8839 96.1488 63.3421 92.4865C63.3698 92.4299 63.3976 92.3592 63.4532 92.2461C63.6893 92.6844 63.7448 93.0238 63.6892 93.4056C63.0921 97.7183 62.4949 102.031 61.8978 106.344C61.8978 106.386 61.8561 106.414 61.7728 106.528Z" fill="#FEFEFE"/>
<path d="M38.956 22.9541C34.4981 22.9541 30.0264 22.9541 25.5547 22.9541H12.223C11.0981 22.9541 11.0703 22.9824 11.0703 24.156V48.3214C11.0703 49.2688 11.1675 49.3678 12.098 49.3678C21.0275 49.3678 29.957 49.3678 38.8865 49.3678H39.3726C39.7614 49.3678 39.9697 49.1557 40.0114 48.7739C40.0392 48.4911 40.0392 48.2083 40.0392 47.9255C40.0392 39.9646 40.0392 32.0038 40.0392 24.0429C40.0392 23.0814 39.9142 22.9541 38.956 22.9541ZM37.845 24.1843C36.6646 25.2589 35.623 26.2205 34.5815 27.1678C31.7624 29.7131 28.9432 32.2441 26.1519 34.8318C25.6519 35.2984 25.3603 35.2418 24.902 34.8176C22.6384 32.7249 20.3331 30.6463 18.0417 28.5677C16.5836 27.2244 15.1254 25.8952 13.6533 24.5661C13.5561 24.4812 13.4728 24.3681 13.3062 24.1984H37.845V24.1843ZM12.223 46.5822C12.223 39.6535 12.223 32.739 12.223 25.8104C12.223 25.5842 12.1119 25.2589 12.3063 25.1458C12.5701 25.0044 12.7368 25.3296 12.9173 25.4852C16.653 28.8788 20.3748 32.2583 24.1105 35.6236C24.5687 36.0337 24.5965 36.2599 24.0966 36.6983C20.472 39.9505 16.8752 43.231 13.2645 46.4973C12.9729 46.766 12.7229 47.0771 12.3202 47.2468C12.1674 47.0064 12.223 46.7943 12.223 46.5822ZM37.6644 48.1376H13.2367C14.6532 46.8367 15.9447 45.6631 17.2363 44.4894C19.8193 42.1422 22.4162 39.7949 24.9854 37.4335C25.3742 37.08 25.5964 36.9669 26.0408 37.377C29.7209 40.7423 33.4149 44.0935 37.1089 47.4306C37.3173 47.6144 37.5256 47.7982 37.7339 47.9679C37.72 48.0386 37.6922 48.0952 37.6644 48.1376ZM38.7199 47.2185C38.5116 47.3033 38.3866 47.0205 38.2338 46.8933C34.4426 43.4572 30.6514 40.007 26.8463 36.571C26.5546 36.3165 26.4157 36.1609 26.7907 35.8216C30.7347 32.2724 34.6648 28.695 38.5949 25.1317C38.6227 25.1034 38.6782 25.0893 38.831 24.9903V25.6266C38.831 32.6118 38.831 39.6111 38.831 46.5963C38.8449 46.7943 38.9698 47.1054 38.7199 47.2185Z" fill="#13D6A3"/>
<path d="M66.5779 63.9093C66.5641 63.9376 66.5363 63.9517 66.5224 63.9659C66.5224 63.9659 66.5085 63.9659 66.5085 63.98C66.4946 63.98 66.4946 63.9942 66.4807 63.9942H66.4668H66.453C66.4391 63.9942 66.4252 63.9942 66.4252 63.9942H66.4113H66.3974C66.3835 63.9942 66.3696 63.98 66.3696 63.98L66.3557 63.9659C66.3419 63.9517 66.328 63.9376 66.328 63.9235C66.0919 63.5841 65.8697 63.2306 65.6475 62.863C65.5225 62.6509 65.703 62.6509 65.8419 62.6367C65.9947 62.6509 66.6752 63.7679 66.5779 63.9093Z" fill="#FA9BE1"/>
</g>
</g>
<defs>
<clipPath id="clip0_4400:32673">
<rect width="148" height="148" rx="24" fill="white"/>
</clipPath>
<clipPath id="clip1_4400:32673">
<rect width="155" height="138" fill="white" transform="translate(-4 10)"/>
</clipPath>
</defs>
</svg>
