<svg width="148" height="148" viewBox="0 0 148 148" fill="none" xmlns="http://www.w3.org/2000/svg">
<g clip-path="url(#clip0_4400:32728)">
<rect width="148" height="148" rx="24" fill="#7E5EC4"/>
<rect x="55" y="71" width="81" height="71" rx="4" fill="#FCE057"/>
<path d="M118.173 149.871V144.674L104.141 133.449L81.2751 111.622L62.0469 119.417C62.0469 119.417 69.225 140.998 75.039 152.158C86.1981 173.576 118.173 149.871 118.173 149.871Z" fill="white"/>
<path d="M100.779 71.1182C102.813 71.1182 104.835 71.1182 106.869 71.1182C104.835 71.1182 102.813 71.1182 100.779 71.1182ZM68.0723 116.599C67.9903 116.599 67.9084 116.586 67.8265 116.586C67.9084 116.586 67.9903 116.586 68.0723 116.599ZM63.9481 121.221C64.0164 121.424 64.0847 121.627 64.153 121.844C64.0847 121.627 64.0164 121.424 63.9481 121.221ZM54.5391 107.818C54.5527 107.235 54.5664 106.639 54.5664 106.056C54.5664 106.639 54.5527 107.221 54.5391 107.818Z" fill="#FEFEFE"/>
<path d="M71.1731 144.87C61.846 144.856 52.5189 144.856 43.1918 144.87C42.7411 144.87 42.5363 144.693 42.4134 144.3C40.0645 137.185 37.702 130.084 35.3532 122.969C33.851 118.456 32.3761 113.93 30.8739 109.403C30.833 109.295 30.792 109.187 30.7647 109.078C30.6418 108.699 30.437 108.387 29.9863 108.536C29.5493 108.685 29.6176 109.065 29.7132 109.39C30.1775 110.826 30.6418 112.263 31.1198 113.699C32.6356 118.267 34.1514 122.82 35.6536 127.387C37.5108 132.984 39.3407 138.568 41.2253 144.151C41.4301 144.761 41.2936 144.924 40.6927 144.842C40.6244 144.829 40.5561 144.829 40.4879 144.842C39.1496 145.114 38.18 144.504 37.3333 143.569C37.1148 143.325 36.9509 143.094 36.8417 142.783C34.4382 135.451 32.0211 128.119 29.6176 120.787C28.1837 116.41 26.7225 112.046 25.2886 107.669C25.2067 107.411 25.0838 107.167 25.1657 106.883V106.869C25.234 106.896 25.3159 106.896 25.3569 106.937C26.0397 107.886 27.0229 107.831 28.0335 107.831C36.5685 107.818 45.1173 107.818 53.6523 107.818C53.9528 107.818 54.2396 107.804 54.54 107.791C55.9193 107.804 57.2985 107.831 58.6778 107.804C59.1967 107.791 59.4425 107.98 59.6064 108.468C59.7157 108.807 59.661 109.254 60.0844 109.444C60.098 110.379 60.4258 111.219 60.8901 112.005C61.2315 113.605 61.7777 115.136 62.4332 116.64C62.5015 117.25 62.6654 117.819 62.9658 118.361C63.0341 118.66 63.0751 118.958 63.2663 119.202C63.3482 119.73 63.4848 120.232 63.7033 120.72C63.7715 120.882 63.8535 121.045 63.9354 121.194C64.0037 121.397 64.072 121.6 64.1402 121.817C64.2085 122.021 64.2768 122.224 64.3451 122.441C64.4817 122.861 64.6046 123.267 64.7411 123.674C65.0006 124.501 65.2737 125.327 65.5468 126.154C67.5679 132.171 69.589 138.175 71.6375 144.178C71.815 144.693 71.7467 144.87 71.1731 144.87Z" fill="#F66667"/>
<path d="M128.255 97.9249C127.204 93.3713 124.664 90.051 120.253 88.2486C117.576 87.1509 114.763 86.6359 111.909 86.3377C108.577 85.9989 105.231 85.9718 101.899 86.026C101.558 86.026 101.298 86.026 101.243 85.5788C100.752 81.6351 100.233 77.705 99.7276 73.7613C99.7003 73.5444 99.6457 73.314 99.7959 73.1108C100.233 72.5009 100.465 71.7962 100.779 71.1186C101.107 69.5194 101.325 67.9067 101.121 66.2804C101.066 65.7925 101.216 65.5757 101.653 65.3724C104.125 64.2069 106.242 62.6213 107.703 60.2632C108.768 58.5421 109.232 56.6719 108.59 54.6933C107.785 52.2132 106.283 50.3837 103.483 50.0313C101.817 49.828 100.288 50.343 98.8673 51.1832C98.3757 51.4814 98.1026 51.4814 97.7065 51.0071C95.0709 47.89 91.7934 45.6133 87.997 44.0819C85.853 43.2145 83.6407 42.6182 81.2782 42.9028C80.2404 43.0248 79.3664 43.472 78.6289 44.1903C78.0554 44.7459 78.0417 45.4506 78.1919 46.2231C77.9735 46.1418 77.8505 46.1012 77.714 46.0605C75.7202 45.4235 73.6991 44.895 71.5687 45.0983C69.4111 45.3016 67.9908 46.8194 67.9908 48.9742C67.9908 50.736 69.015 51.9557 70.2578 53.0399C70.4899 53.2432 70.6538 53.3787 70.5172 53.7582C70.0529 55.005 70.408 56.1027 71.2273 57.092C71.9101 57.9051 72.8114 58.4608 73.781 58.8538C74.3273 59.0706 74.6687 59.3281 74.6004 59.9515C75.092 60.2226 75.9114 60.1006 76.2528 59.6805C76.4713 59.4094 76.4849 59.0842 76.2391 58.8945C75.8704 58.6099 75.9524 58.2846 76.0343 57.9323C76.84 54.0834 79.2981 51.8066 83.272 51.2646C86.4266 50.8309 89.4855 51.2917 92.4762 52.281C93.0225 52.4572 93.241 52.7689 93.3502 53.3245C94.074 56.97 94.8387 60.6156 95.1119 64.3425C95.2075 65.6028 95.2211 66.8767 94.8934 68.11C94.511 69.5736 93.7326 70.1699 92.2031 70.1835C90.8102 70.1835 89.4446 69.8853 88.0926 69.6007C86.4129 69.2484 84.7196 69.0586 83.0126 69.1671C82.5756 69.1942 82.2888 69.0586 82.002 68.774C81.0461 67.8525 80.6774 66.7005 80.6227 65.4131C80.5818 64.2069 80.8139 63.0279 81.0461 61.8624C81.1144 61.5236 81.3055 61.4287 81.6333 61.4829C81.8518 61.5236 82.0839 61.5507 82.3024 61.5778C82.7804 61.632 82.9989 61.8488 83.0945 62.3774C83.5315 64.6135 85.1975 65.7248 87.3552 65.3182C89.349 64.9388 90.8785 62.7704 90.5371 60.8189C90.4688 60.4801 90.2913 60.2768 89.9499 60.2903C89.5948 60.3039 89.4173 60.5072 89.4309 60.8595C89.4446 61.2661 89.4036 61.6727 89.3217 62.0657C88.9666 63.5835 87.5874 64.4915 86.0442 64.234C85.1019 64.0714 84.4055 63.2718 84.187 62.1334C83.9412 60.8053 83.8319 60.6969 82.4663 60.453C81.4694 60.2768 81.4694 60.2768 81.7835 59.2875C81.8518 59.0706 81.9201 58.8538 81.961 58.637C82.0157 58.3388 81.9201 58.0813 81.606 57.9865C81.2782 57.878 81.0188 58.0136 80.8959 58.3388C80.8139 58.5421 80.7456 58.7725 80.691 58.9893C80.4179 60.1277 79.6668 61.117 79.6941 62.3367C79.6941 62.5807 79.5029 62.8382 79.3664 63.0686C78.7245 64.2069 77.6867 64.749 76.6215 64.4915C75.5427 64.234 74.7779 63.2447 74.696 61.9844C74.6687 61.5914 74.7779 61.1577 74.4229 60.846C74.2044 60.8189 73.9859 60.8053 73.7674 60.9002C73.7264 60.9408 73.6718 60.9815 73.6308 61.0357C73.385 62.5265 73.7674 63.8004 74.8872 64.8439C75.0237 64.9659 75.1603 65.0743 75.1876 65.2776C75.4334 67.2291 75.6656 69.1671 75.9114 71.1186C76.2801 72.7719 76.5259 74.4389 77.0175 76.0651C77.755 78.4774 79.0386 80.4018 81.4558 81.3912C83.0535 82.0552 84.7196 81.9333 86.3583 81.5944C86.9319 81.4725 87.0957 81.6216 87.205 82.1636C87.5054 83.695 87.8468 85.2129 88.1882 86.7307C88.2975 87.178 88.1882 87.3135 87.7239 87.327C83.8865 87.5032 80.0492 87.7336 76.2391 88.2215C73.8493 88.5332 71.4868 88.994 69.2199 89.8613C65.6147 91.2436 63.457 93.8863 62.3099 97.4641C61.3949 100.337 60.917 103.292 60.5073 106.273C60.3571 107.344 60.2069 108.414 60.0566 109.485C60.0703 110.42 60.398 111.26 60.8624 112.046C61.4223 107.913 61.8319 103.752 62.8288 99.6867C63.4024 97.3421 64.1944 95.0925 65.8878 93.2765C67.6631 91.3792 69.9983 90.4983 72.47 89.9426C75.5836 89.2244 78.7655 88.9804 81.9337 88.7771C83.75 88.6552 85.5662 88.5874 87.3825 88.4654C87.8332 88.4383 87.997 88.5332 88.0653 89.0211C88.7754 94.4149 89.5265 99.7951 90.264 105.189C90.3869 106.056 90.5234 106.924 90.6463 107.804C90.7009 108.17 90.7009 108.563 91.1653 108.658C91.6569 108.753 91.7525 108.347 91.9163 108.021C94.0877 103.4 96.259 98.7787 98.4303 94.1709C99.4545 92.0026 100.465 89.8342 101.489 87.6658C101.612 87.4084 101.694 87.1509 102.104 87.1509C106.952 87.1102 111.8 87.1509 116.552 88.2757C119.188 88.8991 121.673 89.8884 123.68 91.7857C125.756 93.7508 126.753 96.2715 127.286 98.9955C128.119 103.21 128.064 107.479 127.968 111.748C127.846 117.684 127.723 123.62 127.518 129.556C127.381 133.405 126.931 137.213 125.579 140.858C125.019 142.403 124.268 143.84 123.107 145.019C121.181 146.984 118.833 147.255 116.292 146.659C114.012 146.117 111.977 145.005 109.997 143.799C103.975 140.127 98.362 135.898 92.763 131.643C91.3701 130.586 90.0181 129.488 88.6116 128.445C88.1473 128.106 88.2019 127.957 88.5979 127.577C91.889 124.474 93.7463 120.638 94.2925 116.18C94.3608 115.651 94.4564 115.597 94.907 115.868C99.3316 118.429 103.62 121.194 107.921 123.932C110.461 125.558 112.974 127.225 115.446 128.959C115.774 129.19 116.129 129.434 116.443 129C116.757 128.566 116.443 128.295 116.101 128.051C115.391 127.564 114.695 127.062 113.971 126.588C113.589 126.344 113.438 126.059 113.438 125.599C113.452 119.392 113.452 113.185 113.452 106.964C113.452 106.761 113.466 106.558 113.425 106.354C113.37 106.043 113.152 105.894 112.837 105.921C112.564 105.948 112.36 106.097 112.346 106.395C112.332 106.571 112.346 106.761 112.346 106.937V125.341C111.964 125.314 111.731 125.07 111.458 124.894C106.46 121.628 101.448 118.402 96.2999 115.394C91.9436 112.846 87.3962 110.678 82.5073 109.322C81.2509 108.97 79.9809 108.74 78.7109 108.523C77.4272 108.306 76.1435 108.238 74.7916 108.265C74.9145 107.832 75.2286 107.601 75.4607 107.317C76.3484 106.232 77.2497 105.148 78.1373 104.064C78.7382 103.332 78.7518 102.763 78.2056 102.289C77.6594 101.814 77.0175 101.95 76.403 102.682C74.7916 104.579 73.1938 106.49 71.5961 108.401C71.5141 108.496 71.4731 108.645 71.241 108.658C71.241 108.279 71.241 107.913 71.241 107.533C71.282 105.189 71.3093 102.831 71.3502 100.486C71.3502 100.188 71.3912 99.89 71.1317 99.6731C70.9542 99.5376 70.7494 99.5105 70.5582 99.6054C70.2304 99.7544 70.2031 100.039 70.2031 100.351C70.1758 102.14 70.1485 103.915 70.1212 105.704C70.1075 106.612 70.0802 107.506 70.0666 108.414C70.0529 109.241 69.6023 109.675 68.7419 109.702C67.4719 109.742 66.2702 110 65.1504 110.623C63.4024 111.613 62.4601 113.429 62.8015 115.407C62.8971 115.949 62.624 116.302 62.3918 116.708C62.4601 117.318 62.624 117.887 62.9244 118.429C64.2764 114.987 66.6662 112.453 69.8208 110.583C71.2273 109.742 72.7841 109.471 74.3819 109.39C77.8505 109.2 81.1553 109.973 84.4055 111.057C87.2869 112.033 90.0455 113.307 92.763 114.689C93.1727 114.906 93.2956 115.136 93.2546 115.583C92.804 119.893 91.1379 123.62 87.9834 126.669C87.246 127.387 87.2323 127.374 86.4402 126.737C84.8698 125.477 83.3267 124.176 81.7289 122.942C80.3906 121.912 78.8884 121.316 77.1541 121.817C77.1268 121.817 77.1131 121.817 77.0858 121.831C76.7171 121.967 76.2255 122.007 76.2528 122.563C76.2937 123.132 76.7581 123.078 77.1814 123.064C76.799 124.094 76.3484 124.243 75.488 123.701C75.3515 123.62 75.2286 123.525 75.092 123.43C74.0268 122.644 73.9039 121.817 74.7233 120.774C75.4198 119.893 76.3074 119.229 77.236 118.606C77.4545 118.457 77.7003 118.321 77.9052 118.145C78.151 117.955 78.2056 117.684 78.0417 117.413C77.8779 117.142 77.6047 117.034 77.3316 117.21C75.7475 118.226 74.1224 119.229 73.2894 121.018C73.0982 121.438 72.9207 121.492 72.5383 121.357C71.6643 121.031 71.3502 120.422 71.6234 119.541C71.9101 118.646 72.511 117.969 73.1528 117.332C73.8357 116.654 74.6141 116.112 75.4061 115.583C75.7202 115.367 76.0343 115.136 75.7612 114.716C75.4744 114.269 75.1057 114.445 74.7643 114.675C73.1119 115.814 71.5005 116.993 70.6674 118.917C70.6128 119.039 70.5582 119.148 70.3807 119.134C69.3018 119.107 68.6054 118.023 69.0833 117.061C69.6569 115.909 70.6538 115.15 71.6507 114.391C72.1013 114.052 72.5793 113.74 73.0573 113.442C73.4123 113.225 73.6308 112.941 73.385 112.548C73.1665 112.182 72.7978 112.236 72.4974 112.466C71.7872 113.009 70.9679 113.252 70.1212 113.524C68.5234 114.052 67.3627 115.245 66.2838 116.478C65.6693 117.169 65.0957 117.901 64.4129 118.538C64.0715 118.863 63.7165 119.175 63.2249 119.297C63.3068 119.825 63.4434 120.327 63.6619 120.815C63.7301 120.977 63.8121 121.14 63.894 121.289C65.1913 119.744 66.475 118.199 67.7723 116.654C67.8543 116.464 67.9772 116.315 68.182 116.18C68.2503 116.41 68.1411 116.546 68.0181 116.668C67.4856 118.307 67.8679 119.243 69.4247 119.961C69.7798 120.123 69.8754 120.3 69.8617 120.679C69.8071 122.983 69.7798 125.287 69.7525 127.591C69.7252 128.973 69.6979 130.342 69.6705 131.724C69.6569 132.131 69.6159 132.605 70.2031 132.632C70.7903 132.659 70.804 132.198 70.804 131.778C70.804 131.602 70.8177 131.412 70.8177 131.236C70.845 129.136 70.8859 127.035 70.9132 124.934C70.9269 123.918 70.9132 122.888 70.9132 121.668C71.6234 122.251 72.2106 122.536 72.8797 122.59C73.0573 122.603 73.1392 122.698 73.2075 122.861C73.5898 123.85 74.4092 124.433 75.2969 124.907C75.966 125.273 76.6625 125.327 77.2906 124.84C77.9188 124.352 78.4651 123.769 78.2329 122.807C79.3391 122.753 80.2404 123.227 81.0461 123.864C83.7363 125.978 86.3856 128.146 89.0895 130.261C95.1938 135.004 101.339 139.693 107.867 143.867C110.024 145.249 112.223 146.564 114.681 147.404C116.538 148.041 118.437 148.312 120.389 147.892C122.26 147.485 123.626 146.32 124.814 144.91C125.852 143.366 126.617 141.685 127.135 139.91C128.296 135.952 128.624 131.887 128.747 127.808C128.924 121.939 129.034 116.085 129.116 110.217C129.211 106.029 129.184 101.936 128.255 97.9249ZM99.5774 52.0641C100.629 51.522 101.735 51.1019 102.95 51.129C105.217 51.1426 107.279 53.1077 107.662 55.6148C107.962 57.5663 107.225 59.1926 106.05 60.6834C104.794 62.269 103.169 63.4074 101.353 64.3018C100.629 64.6677 100.793 64.0037 100.738 63.7326C100.069 60.3988 99.4272 57.0514 98.7854 53.7175C98.5669 52.5927 98.5669 52.5791 99.5774 52.0641ZM76.6761 67.9202C76.5805 67.2968 76.5259 66.6734 76.444 66.0365C76.4167 65.779 76.403 65.5893 76.7717 65.6299C77.7686 65.7383 78.6426 65.4402 79.5302 64.7355C79.4893 66.5515 79.899 68.0829 81.1144 69.3974C79.5849 69.8176 78.3422 70.5765 77.277 71.8639C77.0448 70.441 76.8537 69.1806 76.6761 67.9202ZM83.1628 80.6593C80.7593 80.2528 79.2571 78.762 78.4378 76.553C78.11 75.6721 77.8915 74.737 77.632 73.829C77.5501 73.5444 77.6047 73.3276 77.7959 73.043C79.2025 70.9424 81.2782 70.2648 83.6817 70.2106C85.8121 70.1564 87.8741 70.7256 89.9499 71.0644C90.578 71.1728 91.2062 71.2541 91.8481 71.2812C94.4564 71.3761 95.863 70.1428 96.1907 67.5543C96.4638 65.2911 96.218 63.0414 95.8903 60.8053C95.4806 57.9458 94.907 55.1134 94.2925 52.2945C94.2242 51.9422 94.074 51.7253 93.7463 51.5898C89.4719 49.9635 85.1293 49.2859 80.691 50.8173C77.5638 51.9015 75.7202 54.1918 75.0101 57.3766C74.9555 57.5934 74.9145 57.8103 74.8462 58.0813C73.8083 57.6748 72.8524 57.214 72.1286 56.4008C71.3502 55.5335 71.2546 54.6526 71.8555 53.6769C72.115 53.2567 72.033 52.9857 71.6507 52.7011C70.845 52.1048 70.1075 51.4407 69.5886 50.5598C68.3869 48.4863 69.5476 46.3315 71.9511 46.196C74.4502 46.0469 76.7444 46.8736 79.0113 47.741C79.5166 47.9307 80.0082 48.1746 80.5135 48.3915C80.8685 48.5541 81.2099 48.5541 81.4011 48.1882C81.5787 47.8494 81.3738 47.5919 81.0734 47.4022C80.5271 47.0769 80.0082 46.711 79.5985 46.2096C79.0933 45.5726 79.1479 45.1661 79.8034 44.6782C80.5408 44.1361 81.3875 43.9192 82.3024 43.9328C84.7469 43.9599 86.9865 44.7595 89.1442 45.803C92.1622 47.2666 94.7841 49.2453 96.9691 51.8066C97.2422 52.1183 97.4061 52.4571 97.488 52.8773C98.2664 56.9158 99.0721 60.9408 99.8505 64.9659C100.151 66.5244 100.124 68.11 99.9188 69.682C99.673 71.6471 98.5122 73.043 97.0783 74.3033C94.2106 76.797 90.9331 78.6536 87.4508 80.1308C86.1125 80.7271 84.624 80.9033 83.1628 80.6593ZM90.2503 95.2415C90.1957 95.228 90.141 95.2144 90.1001 95.2009C89.8816 93.6017 89.6631 92.0026 89.4173 90.2543C89.786 90.5931 90.0318 90.8506 90.3049 91.081C90.7009 91.4198 91.1379 91.718 91.6569 91.8399C92.2714 91.9755 92.1758 92.2194 91.9027 92.626C91.3428 93.4798 90.8102 94.3606 90.2503 95.2415ZM95.4123 98.0062C94.1969 100.595 92.9815 103.183 91.7661 105.772C91.7525 105.799 91.6978 105.812 91.5749 105.894C91.1926 103.115 90.8239 100.391 90.4415 97.6674C90.3869 97.315 90.4551 97.0169 90.6463 96.7187C91.452 95.4719 92.2304 94.198 93.0908 92.8428C93.9238 94.4284 94.7022 95.9327 95.4942 97.4235C95.6035 97.6538 95.4942 97.83 95.4123 98.0062ZM96.1907 96.3393C95.426 94.8756 94.7295 93.5611 94.0057 92.1652C95.8903 91.9619 97.529 91.2707 99.0721 90.173C98.1435 92.1923 97.2013 94.1845 96.1907 96.3393ZM100.137 86.8256C99.1677 89.3192 95.5216 91.4198 92.8723 91.0132C91.2335 90.7558 90.1957 89.8071 89.7723 88.2486C89.349 86.663 89.0349 85.0503 88.6662 83.4375C88.5296 82.8413 88.4204 82.245 88.2565 81.6622C88.1473 81.2421 88.2565 81.0388 88.6798 80.8491C91.5067 79.5481 94.2242 78.0438 96.6687 76.1058C97.3105 75.6044 97.9114 75.0623 98.6488 74.4253C98.8127 75.7128 98.9629 76.8918 99.1131 78.0709C99.4682 80.7813 99.8232 83.4782 100.206 86.1887C100.247 86.4055 100.219 86.6088 100.137 86.8256ZM64.0306 114.242C63.9077 112.9 65.3825 111.355 67.0349 111.111C65.9015 112.087 64.9182 113.09 64.0306 114.242ZM68.3732 115.949L68.3869 115.895L68.4278 115.922L68.3732 115.949Z" fill="#281E34"/>
<path d="M35.3952 141.739C34.453 141.156 33.7975 140.451 33.0873 139.814C29.5641 136.711 26.0681 133.594 22.5448 130.49C22.2034 130.192 21.9986 129.853 21.862 129.433C20.988 126.818 20.1004 124.216 19.2264 121.6C19.1718 121.451 19.1581 121.288 19.1308 121.139C20.3735 120.678 20.633 120.136 20.155 118.93C20.0867 118.74 20.0458 118.591 20.1687 118.429C20.6466 117.724 20.5783 117.033 20.114 116.355C20.0048 116.206 19.9092 116.044 20.0321 115.867C20.7286 114.837 20.2506 113.984 19.5814 113.184C19.4176 112.994 19.322 112.845 19.5132 112.601C20.1414 111.802 19.9911 111.016 19.4722 110.23C18.3797 108.549 16.8639 107.248 15.471 105.825C15.1022 105.446 14.7335 105.337 14.2692 105.595C13.8732 105.527 13.7366 105.242 13.6137 104.917C13.3679 104.212 13.1085 103.494 12.8626 102.789C13.3406 102.003 13.2314 101.705 12.3983 101.624C12.1389 100.242 11.5653 98.9542 11.1283 97.626C10.7186 96.3386 10.268 95.0647 9.83098 93.7772C9.77636 93.6281 9.70808 93.4791 9.80367 93.208C14.8291 97.6531 19.8136 102.058 24.8527 106.516C23.9514 106.665 23.8148 106.842 24.0607 107.546C26.4232 114.702 28.7857 121.857 31.1618 129.013C32.5001 133.065 33.8521 137.104 35.204 141.156C35.2723 141.305 35.3133 141.454 35.3952 141.739Z" fill="#F66667"/>
<path d="M95.1402 64.3283C94.8534 60.6014 94.1023 56.9694 93.3786 53.3103C93.2693 52.7547 93.0508 52.443 92.5046 52.2668C89.5002 51.2775 86.4413 50.8302 83.3003 51.2504C79.3264 51.7925 76.8683 54.0692 76.0626 57.9181C75.9943 58.2704 75.8987 58.5957 76.2674 58.8803C76.5133 59.0836 76.5133 59.4088 76.2811 59.6663C75.9397 60.0864 75.1203 60.2084 74.6287 59.9373C74.6014 60.249 74.6424 60.5743 74.4648 60.8589C74.8199 61.1842 74.7107 61.6043 74.738 61.9973C74.8199 63.2576 75.5846 64.247 76.6635 64.5044C77.7287 64.7484 78.7665 64.2199 79.4084 63.0815C79.5449 62.8511 79.7361 62.5936 79.7361 62.3496C79.7224 61.1164 80.4735 60.1406 80.733 59.0022C80.7876 58.7854 80.8559 58.5686 80.9378 58.3517C81.0607 58.0265 81.3202 57.9045 81.648 57.9994C81.962 58.0942 82.0576 58.3517 82.003 58.6499C81.9621 58.8667 81.8801 59.0836 81.8255 59.3004C81.525 60.2897 81.525 60.2897 82.5083 60.4659C83.8602 60.7098 83.9695 60.8182 84.229 62.1464C84.4475 63.2847 85.1439 64.0843 86.0862 64.247C87.6293 64.5044 89.0086 63.5964 89.3637 62.0786C89.4593 61.6856 89.5002 61.279 89.4729 60.8724C89.4592 60.5201 89.6504 60.3033 89.9918 60.3033C90.3332 60.2897 90.5244 60.493 90.5791 60.8318C90.9341 62.7833 89.4046 64.9517 87.3972 65.3311C85.2395 65.7377 83.5735 64.6129 83.1365 62.3903C83.0272 61.8753 82.8224 61.6585 82.3444 61.5907C82.1259 61.5636 81.8938 61.5365 81.6753 61.4959C81.3612 61.4416 81.1563 61.5365 81.0881 61.8753C80.8696 63.0544 80.6237 64.2199 80.6647 65.426C80.7057 66.7135 81.0881 67.8654 82.044 68.787C82.3308 69.0716 82.6312 69.2071 83.0545 69.18C84.7615 69.0716 86.4549 69.2613 88.1346 69.6136C89.4866 69.8982 90.8522 70.2099 92.2451 70.1964C93.7746 70.1828 94.5666 69.5865 94.9353 68.1229C95.2494 66.849 95.2358 65.5886 95.1402 64.3283ZM76.9639 63.6642C76.4996 63.6642 76.2265 63.4067 76.2128 62.9595C76.1992 62.4852 76.4586 62.2006 76.9503 62.1599C77.4419 62.2006 77.715 62.4852 77.7013 62.9459C77.715 63.3932 77.4282 63.6507 76.9639 63.6642ZM84.9937 58.5008C84.5977 58.4873 84.3246 58.284 84.3246 57.891C84.3246 57.4437 84.6386 57.2811 85.062 57.2811C85.1985 57.2811 85.3351 57.2811 85.4717 57.2811V57.3082C85.6492 57.3082 85.8404 57.2947 86.0179 57.3082C86.3593 57.3489 86.5368 57.5793 86.5505 57.9045C86.5642 58.2433 86.3457 58.4602 86.0316 58.4873C85.6629 58.5415 85.3214 58.5144 84.9937 58.5008ZM86.7007 62.6749C86.2364 62.702 85.9633 62.4174 85.9087 61.9702C85.9087 61.4552 86.1954 61.1706 86.6461 61.157C87.0831 61.1435 87.3699 61.4281 87.3972 61.8618C87.4382 62.3225 87.1787 62.6478 86.7007 62.6749Z" fill="#FDFDFD"/>
<path d="M20.167 118.429C20.6449 117.724 20.5766 117.033 20.1123 116.355C20.0031 116.206 19.9075 116.043 20.0304 115.867C20.7269 114.837 20.2489 113.984 19.5797 113.184C19.4159 112.994 19.3203 112.845 19.5115 112.601C20.1396 111.802 19.9894 111.016 19.4705 110.23C18.378 108.549 16.8622 107.248 15.4692 105.825C15.1005 105.446 14.7318 105.337 14.2675 105.595C14.1446 106.083 14.3904 106.394 14.7182 106.72C15.9472 107.885 17.2036 109.037 18.2141 110.406C18.5419 110.839 19.0881 111.354 18.5828 111.896C18.1322 112.371 17.545 111.964 17.0943 111.707C14.5953 110.297 12.6424 108.427 12.2737 105.405C12.1645 104.47 12.2737 103.562 12.8746 102.776C13.3526 101.99 13.2433 101.692 12.4103 101.61C11.4407 102.437 11.1403 103.562 11.1266 104.754C11.1266 105.717 11.1949 106.652 10.8808 107.6C10.676 108.224 10.7442 108.901 10.9081 109.538C11.1539 110.514 11.3178 111.503 11.5226 112.493C11.8504 114.038 12.5742 115.474 12.8746 117.046C12.9156 117.277 13.0658 117.507 13.2023 117.71C14.6089 119.825 16.63 120.922 19.1427 121.153C20.3854 120.692 20.6449 120.15 20.167 118.944C20.085 118.754 20.044 118.605 20.167 118.429ZM12.1645 109.972C12.0143 109.471 11.905 108.983 11.946 108.278C12.8882 109.837 13.9807 111.002 15.3054 111.937C16.0565 112.466 16.8622 112.859 17.7225 113.13C18.4872 113.374 18.9379 113.984 19.1974 114.702C19.3612 115.163 18.9925 115.461 18.419 115.366C17.4767 115.23 16.6437 114.81 15.8653 114.309C14.1719 113.252 12.7653 111.951 12.1645 109.972ZM19.211 119.825C19.1154 120.014 18.9106 120.014 18.7331 119.987C16.712 119.648 15.1005 118.673 14.0627 116.884C15.2644 117.751 16.4935 118.564 17.9547 118.93C18.337 119.025 18.7877 118.957 19.0608 119.35C19.1564 119.499 19.3203 119.635 19.211 119.825ZM18.856 117.927C18.5419 117.914 18.2141 117.859 17.9273 117.765C16.0701 117.087 14.5543 115.949 13.3799 114.363C13.3389 114.295 13.3116 114.214 13.2023 113.956C14.2129 114.593 15.0323 115.135 15.8789 115.637C16.6846 116.125 17.5586 116.436 18.5009 116.518C19.0881 116.572 19.2383 117.006 19.3339 117.426C19.4022 117.71 19.1837 117.941 18.856 117.927Z" fill="#281E34"/>
<path d="M57.5997 105.676C57.5724 106.191 57.1627 106.232 56.7393 106.205C56.0156 106.151 55.2918 106.096 54.568 106.056C52.5742 105.866 50.5941 105.649 48.6003 105.473C45.4321 105.188 42.2639 104.863 39.082 104.687C35.8455 104.511 32.6773 104.904 29.7822 106.516C29.4408 106.706 29.113 106.76 28.9082 106.367C28.7033 105.988 28.9082 105.73 29.2359 105.527C30.6425 104.687 32.172 104.24 33.7698 103.914C36.7058 103.305 39.6555 103.535 42.5916 103.806C45.9374 104.118 49.2968 104.402 52.6425 104.7C53.2707 104.755 53.9125 104.795 54.5407 104.85C55.3055 104.931 56.0702 105.012 56.8486 105.08C57.2719 105.121 57.627 105.215 57.5997 105.676Z" fill="#281E34"/>
<path d="M28.1705 106.381C28.1295 106.747 27.9247 106.978 27.5287 106.924C27.1736 106.883 27.0234 106.625 27.0643 106.3C27.3784 102.926 25.4529 100.812 22.9265 99.0497C21.6019 98.1282 20.127 97.4912 18.5429 97.0711C16.1804 96.4342 14.3095 95.1467 13.1351 92.9648C13.0668 92.8293 12.9849 92.6937 12.9303 92.5447C12.8074 92.2059 12.7664 91.8535 13.1761 91.6909C13.5858 91.5282 13.8179 91.7586 13.9681 92.111C14.528 93.4256 15.5113 94.3607 16.6857 95.1467C16.8223 95.2416 16.9725 95.2687 17.1227 95.3229C17.4914 95.5668 17.9011 95.7159 18.3244 95.8243C20.646 96.4613 22.8036 97.4099 24.6745 98.9549C26.3679 100.364 27.6789 102.018 28.1295 104.227C28.2524 104.945 28.2524 105.663 28.1705 106.381Z" fill="#281E34"/>
<path d="M27.0786 22.6116C27.3654 22.8962 27.6112 23.2486 27.2288 23.6009C26.8328 23.9533 26.5187 23.6416 26.2456 23.3705C25.5491 22.6929 24.8117 22.0424 24.1699 21.3242C23.8148 20.9311 23.61 21.026 23.3095 21.3377C22.6677 22.0018 21.9986 22.6523 21.3294 23.3028C21.029 23.6009 20.7012 24.0346 20.2506 23.5738C19.8136 23.1266 20.2369 22.7878 20.5237 22.4897C21.1928 21.7849 21.8756 21.0938 22.5994 20.4433C22.9135 20.1587 22.8589 19.996 22.5994 19.7521C21.8347 19.0067 21.0836 18.2478 20.3325 17.5024C20.1277 17.2991 19.9774 17.0823 20.1277 16.7842C20.155 16.7435 20.1823 16.6893 20.2096 16.6622C20.2506 16.6215 20.2779 16.5944 20.3189 16.5673C20.3325 16.5538 20.3598 16.5402 20.3871 16.5267C20.4554 16.4996 20.5373 16.486 20.6193 16.486C20.6739 16.486 20.7285 16.486 20.7832 16.4996C20.8651 16.5267 20.9334 16.5673 20.988 16.608C21.0017 16.6215 21.0153 16.6351 21.029 16.6486C21.0699 16.6757 21.1109 16.7164 21.1382 16.7571C21.862 17.4753 22.5994 18.18 23.2959 18.9119C23.6236 19.2507 23.8148 19.2507 24.1562 18.8848C24.8254 18.1529 25.5628 17.4753 26.2729 16.7842C26.546 16.5131 26.8874 16.3098 27.2288 16.6351C27.5976 17.001 27.3381 17.3398 27.0513 17.6244C26.3412 18.3291 25.6447 19.0474 24.921 19.725C24.6342 19.996 24.5796 20.1587 24.9073 20.4704C25.672 21.1344 26.3685 21.8798 27.0786 22.6116Z" fill="white"/>
<path d="M11.2502 69.1396C9.40658 69.1396 8 70.4407 8 72.1618C8 73.8558 9.36561 75.2653 11.0453 75.2381C13.0801 75.211 14.077 73.9236 14.1862 72.1889C14.2818 70.6168 12.7796 69.1396 11.2502 69.1396ZM11.059 74.0998C10.0211 74.0862 9.14711 73.1511 9.18808 72.094C9.22905 71.1318 10.1577 70.278 11.1272 70.3051C12.1378 70.3322 13.0118 71.1996 13.0118 72.1618C12.9981 73.2053 12.0832 74.1269 11.059 74.0998Z" fill="#FCE057"/>
<path d="M125.115 61.3201C124.964 61.6047 124.801 61.9435 124.582 62.2687C124.049 63.0683 123.503 63.8679 122.943 64.6539C122.725 64.9656 122.465 65.3044 122.001 64.9656C121.55 64.6268 121.796 64.3151 122.015 63.9763C122.657 63.0277 123.285 62.0654 123.913 61.1032C124.104 60.8186 124.35 60.6425 124.719 60.778C124.937 60.8593 125.115 60.9813 125.115 61.3201Z" fill="#FD9AE1"/>
<path d="M45.2137 90.4163C44.8176 90.6195 44.5582 90.4434 44.3397 90.0639C43.8207 89.1423 43.2608 88.2479 42.7282 87.3399C42.619 87.1502 42.4961 86.9469 42.5234 86.7571C42.5234 86.4725 42.5507 86.2421 42.8238 86.1744C43.0969 86.1066 43.3564 86.1066 43.5339 86.4048C44.1485 87.4483 44.763 88.4918 45.3775 89.5354C45.5687 89.8877 45.596 90.213 45.2137 90.4163Z" fill="#FD9AE1"/>
<path d="M67.2402 34.2969C67.1582 34.8661 66.6257 35.1507 66.3252 35.5979C66.1067 35.9367 65.7517 36.1807 65.4922 36.4924C65.2737 36.7634 65.0279 36.7498 64.7684 36.6008C64.509 36.4381 64.3997 36.1671 64.5772 35.8961C65.0962 35.11 65.7244 34.3918 66.3935 33.7141C66.5574 33.5515 66.7759 33.5786 66.9534 33.7006C67.1719 33.8497 67.2402 34.053 67.2402 34.2969Z" fill="#FD9AE1"/>
<path d="M126.972 63.3528C126.644 64.1117 126.248 64.8435 125.866 65.5754C125.729 65.8328 125.538 66.009 125.211 65.8735C124.91 65.7515 124.774 65.5211 124.855 65.2365C125.115 64.3557 125.579 63.5561 126.071 62.77C126.125 62.6752 126.303 62.6616 126.412 62.6074C126.808 62.7158 127.177 62.892 126.972 63.3528Z" fill="#FD9AE1"/>
<path d="M68.0739 116.599C67.992 116.599 67.9101 116.586 67.8281 116.586C67.9101 116.396 68.033 116.247 68.2378 116.111C68.3197 116.328 68.2105 116.464 68.0739 116.599Z" fill="#F66667"/>
<path d="M73.8097 60.8995C73.7687 60.9401 73.7141 60.9808 73.6731 61.035C73.6731 60.8995 73.441 60.7504 73.6322 60.6555C73.7824 60.5742 73.7687 60.7911 73.8097 60.8995Z" fill="#FDFDFD"/>
<path d="M25.1787 106.895C25.1381 106.882 25.111 106.868 25.0703 106.855C25.1516 106.747 25.1516 106.842 25.1787 106.895Z" fill="#F66667"/>
<path d="M60.9043 112.032C61.4642 107.899 61.8739 103.738 62.8708 99.6723C63.4443 97.3278 64.2364 95.0781 65.9298 93.2621C67.705 91.3512 70.0402 90.4839 72.512 89.9283C75.6256 89.21 78.8075 88.9661 81.9757 88.7628C83.792 88.6408 85.6082 88.573 87.4245 88.4511C87.8751 88.424 88.0527 88.5324 88.1073 89.0067C88.8174 94.4005 89.5685 99.7807 90.3059 105.175C90.4288 106.042 90.5654 106.909 90.6883 107.79C90.7429 108.156 90.7429 108.549 91.2072 108.644C91.6988 108.739 91.7944 108.332 91.9583 108.007C94.1296 103.386 96.301 98.7643 98.4723 94.1566C99.4965 91.9882 100.507 89.8198 101.531 87.6515C101.654 87.394 101.736 87.1365 102.146 87.1365C106.994 87.0958 111.842 87.1365 116.594 88.2613C119.23 88.8847 121.715 89.8741 123.709 91.7714C125.785 93.75 126.781 96.2572 127.314 98.9812C128.147 103.196 128.092 107.465 127.997 111.734C127.874 117.67 127.751 123.606 127.546 129.541C127.41 133.39 126.959 137.198 125.607 140.844C125.047 142.389 124.296 143.825 123.135 145.005C121.21 146.97 118.861 147.241 116.321 146.644C114.04 146.102 112.005 144.991 110.025 143.785C104.017 140.112 98.3903 135.884 92.805 131.628C91.4121 130.571 90.0601 129.474 88.6535 128.43C88.1892 128.091 88.2438 127.942 88.6399 127.563C91.931 124.459 93.7882 120.624 94.3345 116.165C94.4028 115.637 94.4983 115.583 94.949 115.854C99.3736 118.401 103.662 121.18 107.963 123.917C110.503 125.544 113.016 127.21 115.488 128.945C115.816 129.176 116.171 129.419 116.485 128.986C116.799 128.552 116.485 128.281 116.143 128.051C115.433 127.563 114.737 127.061 114.013 126.587C113.631 126.343 113.48 126.058 113.48 125.598C113.494 119.391 113.494 113.184 113.494 106.963C113.494 106.76 113.508 106.557 113.467 106.354C113.412 106.042 113.194 105.893 112.879 105.92C112.606 105.947 112.415 106.096 112.388 106.394C112.374 106.57 112.388 106.76 112.388 106.936C112.388 113.062 112.388 119.174 112.388 125.34C112.005 125.313 111.773 125.069 111.5 124.893C106.502 121.627 101.49 118.401 96.3419 115.393C91.9856 112.845 87.4381 110.677 82.5492 109.322C81.2929 108.969 80.0229 108.739 78.7528 108.522C77.4692 108.305 76.1855 108.237 74.8335 108.264C74.9564 107.831 75.2705 107.6 75.5027 107.316C76.3903 106.218 77.2916 105.147 78.1793 104.063C78.7802 103.331 78.7938 102.762 78.2476 102.288C77.7013 101.814 77.0595 101.949 76.445 102.681C74.8335 104.578 73.2358 106.489 71.638 108.4C71.5561 108.495 71.5151 108.644 71.2829 108.657C71.2829 108.278 71.2829 107.912 71.2829 107.533C71.3103 105.188 71.3512 102.844 71.3922 100.485C71.3922 100.187 71.4332 99.8892 71.1737 99.6723C70.9962 99.5368 70.7913 99.5097 70.6001 99.6046C70.286 99.7536 70.2451 100.038 70.2451 100.35C70.2178 102.139 70.1905 103.914 70.1631 105.703C70.1495 106.611 70.1358 107.506 70.1085 108.414C70.0949 109.24 69.6442 109.674 68.7839 109.701C67.5139 109.742 66.3121 109.986 65.1923 110.623C63.4307 111.612 62.5021 113.428 62.8435 115.406C62.9391 115.962 62.6659 116.301 62.4338 116.707C61.8056 115.163 61.2457 113.631 60.9043 112.032Z" fill="#FDFDFD"/>
<path d="M62.9805 118.388C64.3324 114.946 66.7222 112.412 69.8768 110.541C71.2834 109.701 72.8402 109.43 74.438 109.335C77.9066 109.146 81.2114 109.918 84.4616 111.016C87.3567 111.992 90.1015 113.265 92.8191 114.648C93.2288 114.865 93.3517 115.095 93.3107 115.542C92.8601 119.852 91.194 123.579 88.0395 126.628C87.302 127.346 87.2884 127.333 86.4963 126.696C84.9259 125.435 83.3827 124.134 81.785 122.901C80.4467 121.871 78.9445 121.275 77.2101 121.776C77.1828 121.776 77.1692 121.776 77.1419 121.79C76.7732 121.925 76.2815 121.966 76.3088 122.522C76.3498 123.091 76.8141 123.037 77.2375 123.023C76.8551 124.053 76.4044 124.202 75.5441 123.66C75.4075 123.579 75.2846 123.484 75.1481 123.389C74.0829 122.603 73.96 121.776 74.7794 120.733C75.4758 119.852 76.3635 119.188 77.2921 118.564C77.5106 118.415 77.7564 118.28 77.9612 118.104C78.207 117.914 78.2617 117.643 78.0978 117.372C77.9339 117.114 77.6608 116.992 77.3877 117.169C75.8036 118.185 74.1785 119.188 73.3455 120.977C73.1543 121.397 72.9768 121.451 72.5944 121.315C71.7204 120.99 71.4063 120.38 71.6931 119.499C71.9799 118.605 72.5807 117.927 73.2226 117.29C73.9054 116.613 74.6838 116.071 75.4758 115.542C75.7899 115.325 76.104 115.095 75.8309 114.675C75.5441 114.228 75.1754 114.404 74.834 114.634C73.1816 115.773 71.5702 116.952 70.7371 118.876C70.6825 118.998 70.6279 119.106 70.4504 119.093C69.3715 119.066 68.6751 117.982 69.153 117.019C69.7266 115.868 70.7235 115.109 71.7204 114.35C72.171 114.011 72.649 113.699 73.127 113.401C73.482 113.184 73.7005 112.9 73.4547 112.507C73.2362 112.141 72.8675 112.195 72.5671 112.425C71.8569 112.954 71.0376 113.211 70.1909 113.482C68.5931 114.011 67.4324 115.203 66.3535 116.423C65.739 117.114 65.1654 117.846 64.4826 118.483C64.1412 118.808 63.7725 119.12 63.2946 119.242C63.0897 118.985 63.0487 118.686 62.9805 118.388Z" fill="#FDFDFD"/>
<path d="M99.8364 64.979C99.058 60.9404 98.2523 56.9154 97.4739 52.8904C97.392 52.4703 97.2281 52.1315 96.955 51.8198C94.7837 49.2584 92.1617 47.2798 89.13 45.8162C86.9724 44.7726 84.7328 43.973 82.2883 43.9459C81.3734 43.9324 80.5267 44.1357 79.7893 44.6913C79.1338 45.1792 79.0655 45.5993 79.5844 46.2227C79.9941 46.7241 80.4994 47.0901 81.0593 47.4153C81.3597 47.5915 81.5646 47.849 81.387 48.2013C81.1958 48.5673 80.8681 48.5673 80.4994 48.4046C80.0078 48.1742 79.5161 47.9438 78.9972 47.7541C76.7166 46.8732 74.4361 46.0601 71.937 46.2092C69.5335 46.3582 68.3728 48.4995 69.5745 50.573C70.0798 51.4539 70.8309 52.1179 71.6366 52.7142C72.0189 52.9988 72.1009 53.2699 71.8414 53.69C71.2405 54.6658 71.3361 55.5466 72.1145 56.414C72.852 57.2271 73.7942 57.6879 74.8321 58.0945C74.8867 57.8234 74.9413 57.6066 74.996 57.3897C75.7061 54.1914 77.5497 51.9011 80.6769 50.8305C85.1152 49.2991 89.4578 49.9767 93.7322 51.6029C94.0599 51.7249 94.2101 51.9553 94.2784 52.3077C94.8929 55.1265 95.4665 57.9589 95.8762 60.8185C96.2039 63.0546 96.4497 65.2907 96.1766 67.5675C95.8625 70.1695 94.4559 71.3892 91.834 71.2943C91.2058 71.2672 90.5639 71.1859 89.9358 71.0775C87.8464 70.7387 85.798 70.183 83.6676 70.2237C81.2641 70.2779 79.2021 70.9555 77.7818 73.0561C77.5906 73.3407 77.536 73.5576 77.6179 73.8421C77.8774 74.7501 78.0959 75.6853 78.4237 76.5661C79.243 78.7752 80.7452 80.2795 83.1487 80.6725C84.6099 80.9164 86.0984 80.7267 87.4367 80.1575C90.919 78.6667 94.1828 76.8236 97.0642 74.33C98.5118 73.0832 99.6589 71.6873 99.9047 69.7087C100.11 68.1231 100.151 66.5511 99.8364 64.979ZM89.1027 73.6931C89.0754 73.7879 89.0618 73.8828 89.0208 73.9777C88.9389 74.2623 88.8023 74.5333 88.6521 74.7773C88.5701 74.8992 88.4882 75.0212 88.3926 75.1296C87.901 75.7395 87.2182 76.1867 86.4125 76.3629C86.0028 76.4442 85.6068 76.4848 85.4839 75.9698C85.361 75.482 85.6614 75.2922 86.0847 75.1838C87.5869 74.7637 88.2424 73.6253 87.8191 72.121C87.6962 71.6602 87.7781 71.3485 88.2151 71.1995C88.6794 71.0368 88.8706 71.3621 88.9935 71.7416C89.0754 71.9855 89.13 72.243 89.1574 72.5005C89.1574 72.5276 89.1574 72.5547 89.171 72.5818C89.171 72.5953 89.171 72.6089 89.171 72.6224C89.1847 72.7309 89.1847 72.8257 89.1847 72.9341C89.1847 73.0832 89.171 73.2458 89.1574 73.3949C89.1437 73.4898 89.13 73.5982 89.1027 73.6931Z" fill="#281E34"/>
<path d="M98.6624 74.4111C98.8262 75.6986 98.9764 76.8776 99.1267 78.0567C99.4817 80.7671 99.8368 83.464 100.219 86.1745C100.246 86.4049 100.219 86.6081 100.137 86.825C99.154 89.3186 95.5214 91.4192 92.8722 91.0126C91.2334 90.7551 90.1955 89.8065 89.7722 88.248C89.3489 86.6623 89.0348 85.0361 88.6661 83.4369C88.5295 82.8406 88.4203 82.2443 88.2564 81.6616C88.1471 81.2415 88.2564 81.0382 88.6797 80.8484C91.5065 79.5474 94.2241 78.0431 96.6686 76.1052C97.3104 75.5902 97.9113 75.0481 98.6624 74.4111Z" fill="#FDFDFD"/>
<path d="M107.663 55.614C107.267 53.1068 105.219 51.1417 102.952 51.1282C101.736 51.1011 100.63 51.5212 99.5787 52.0633C98.5681 52.5918 98.5681 52.5918 98.7866 53.7167C99.4421 57.0641 100.07 60.3979 100.739 63.7318C100.794 64.0028 100.644 64.6533 101.354 64.301C103.157 63.393 104.782 62.2681 106.052 60.6825C107.226 59.1918 107.964 57.5655 107.663 55.614ZM104.59 55.1668C102.856 55.8986 102.05 57.3758 101.491 59.0427C101.436 59.2189 101.409 59.3951 101.381 59.5712C101.327 59.9507 101.108 60.1404 100.726 60.0862C100.371 60.0456 100.248 59.7881 100.248 59.4493C100.507 57.9179 101.19 56.6033 102.228 55.4514C102.761 54.8551 103.402 54.3943 104.153 54.1097C104.536 53.9606 104.986 53.8251 105.178 54.3672C105.355 54.8551 104.987 55.0041 104.59 55.1668Z" fill="#FDFDFD"/>
<path d="M91.5617 105.906C91.1793 103.128 90.8106 100.404 90.4282 97.6801C90.3736 97.3277 90.4419 97.0296 90.6467 96.7314C91.4524 95.4846 92.2308 94.2107 93.0912 92.8555C93.9242 94.4411 94.7026 95.9454 95.4946 97.4361C95.6039 97.653 95.4946 97.8292 95.4127 98.0053C94.1973 100.594 92.9819 103.182 91.7665 105.771C91.7392 105.811 91.6846 105.825 91.5617 105.906Z" fill="#281E34"/>
<path d="M79.5165 64.749C79.4755 66.565 79.8852 68.0964 81.1006 69.411C79.5711 69.8311 78.3284 70.59 77.2632 71.8775C77.0447 70.4409 76.8535 69.1806 76.676 67.9067C76.5804 67.2833 76.5258 66.6599 76.4439 66.0229C76.4165 65.7654 76.4029 65.5757 76.7716 65.6299C77.7548 65.7519 78.6425 65.4537 79.5165 64.749Z" fill="#FDFDFD"/>
<path d="M96.1908 96.3392C95.4261 94.8756 94.7296 93.561 94.0059 92.1787C95.8904 91.9754 97.5291 91.2843 99.0723 90.1865C98.1437 92.1923 97.2014 94.1844 96.1908 96.3392Z" fill="#FDFDFD"/>
<path d="M90.1008 95.2005C89.8823 93.6013 89.6638 92.0021 89.418 90.2539C89.7867 90.5927 90.0325 90.8502 90.3056 91.0806C90.7016 91.4194 91.1386 91.7175 91.6576 91.8395C92.2721 91.975 92.1765 92.219 91.9034 92.6256C91.3298 93.4793 90.7972 94.3602 90.2373 95.2411C90.1964 95.2276 90.1554 95.214 90.1008 95.2005Z" fill="#FDFDFD"/>
<path d="M67.0218 111.11C65.902 112.086 64.9187 113.089 64.0174 114.241C63.9082 112.899 65.383 111.354 67.0218 111.11Z" fill="#FDFDFD"/>
<path d="M68.4273 115.921L68.373 115.948L68.3866 115.895L68.4273 115.921Z" fill="#F66667"/>
<path d="M14.2809 105.582C14.158 106.07 14.4038 106.381 14.7316 106.693C15.9606 107.858 17.217 109.01 18.2275 110.379C18.5553 110.813 19.1015 111.328 18.5962 111.87C18.1456 112.344 17.5584 111.938 17.1077 111.68C14.595 110.298 12.6422 108.428 12.2735 105.405C12.1505 104.47 12.2735 103.562 12.8743 102.776C13.1338 103.481 13.3796 104.199 13.6254 104.904C13.7483 105.229 13.8849 105.527 14.2809 105.582Z" fill="#FDFDFD"/>
<path d="M85.4577 57.3219C85.6352 57.3219 85.8264 57.3084 85.9903 57.3219C86.3317 57.3626 86.5092 57.5794 86.5229 57.9182C86.5365 58.2706 86.318 58.4739 86.0039 58.5145C85.6762 58.5552 85.3348 58.5281 84.9934 58.5145C84.5973 58.501 84.3242 58.2977 84.3242 57.9047C84.3242 57.4575 84.6383 57.2948 85.0617 57.3084C85.1982 57.3084 85.3348 57.3084 85.4713 57.3084C85.4577 57.3084 85.4577 57.3084 85.4577 57.3219Z" fill="#281E34"/>
<path d="M85.9219 61.9708C85.9219 61.4423 86.2087 61.1712 86.6593 61.1577C87.0963 61.1441 87.3831 61.4287 87.4104 61.8624C87.4377 62.3367 87.1646 62.6484 86.7003 62.6755C86.236 62.7026 85.9628 62.418 85.9219 61.9708Z" fill="#281E34"/>
<path d="M76.964 62.1602C77.4556 62.2008 77.7288 62.4854 77.7151 62.9462C77.7014 63.3799 77.4147 63.6509 76.964 63.6645C76.4997 63.6645 76.2265 63.407 76.2129 62.9597C76.2129 62.4719 76.4724 62.2008 76.964 62.1602Z" fill="#281E34"/>
<path d="M11.9468 108.278C12.8891 109.837 13.9816 111.002 15.3062 111.937C16.0436 112.466 16.8494 112.859 17.7233 113.13C18.4881 113.374 18.9387 113.997 19.1845 114.702C19.3484 115.163 18.9934 115.461 18.4061 115.366C17.4639 115.231 16.6309 114.81 15.8525 114.309C14.1728 113.238 12.7662 111.937 12.1653 109.959C12.0151 109.484 11.8922 108.983 11.9468 108.278Z" fill="#FDFDFD"/>
<path d="M13.1895 113.957C14.2 114.594 15.0194 115.136 15.8661 115.638C16.6718 116.112 17.5458 116.437 18.488 116.518C19.0752 116.573 19.2255 117.006 19.3211 117.426C19.3893 117.725 19.1845 117.955 18.8431 117.941C18.529 117.928 18.2012 117.874 17.9145 117.779C16.0572 117.101 14.5414 115.976 13.367 114.377C13.326 114.296 13.3124 114.215 13.1895 113.957Z" fill="#FDFDFD"/>
<path d="M14.0625 116.884C15.2642 117.751 16.4933 118.564 17.9545 118.93C18.3369 119.025 18.7875 118.957 19.0606 119.35C19.1562 119.499 19.3201 119.635 19.2245 119.825C19.1289 120.014 18.9241 120.014 18.7465 119.987C16.7118 119.648 15.1004 118.673 14.0625 116.884Z" fill="#FDFDFD"/>
<path d="M11.1281 70.3053C12.1386 70.3324 13.0126 71.1998 13.0126 72.162C12.9989 73.2055 12.084 74.127 11.0598 74.1135C10.0219 74.0999 9.14792 73.1648 9.18888 72.1078C9.22985 71.132 10.1585 70.2782 11.1281 70.3053Z" fill="#FDFDFD"/>
<path d="M89.1856 72.9337C89.1719 74.5736 88.0248 76.0101 86.4271 76.3625C86.0174 76.4573 85.635 76.4844 85.4985 75.9694C85.3756 75.4816 85.676 75.2918 86.0993 75.1699C87.6015 74.7497 88.257 73.6114 87.8336 72.1071C87.7107 71.6463 87.7927 71.3346 88.2297 71.1855C88.694 71.0229 88.8851 71.3481 88.9944 71.7276C89.1173 72.1342 89.1992 72.5272 89.1856 72.9337Z" fill="white"/>
<path d="M100.261 59.4496C100.52 57.9182 101.203 56.6037 102.241 55.4517C102.773 54.8554 103.415 54.3947 104.166 54.1101C104.549 53.961 104.999 53.8255 105.191 54.3676C105.354 54.8554 104.986 55.0045 104.59 55.1671C102.855 55.899 102.05 57.3761 101.49 59.0431C101.435 59.2193 101.408 59.3954 101.38 59.5716C101.326 59.9511 101.107 60.1408 100.725 60.0866C100.384 60.0324 100.247 59.7884 100.261 59.4496Z" fill="#281E34"/>
<path d="M27.2972 66.8197C27.2372 66.8197 27.1572 66.8597 27.0972 66.8597C23.2172 64.9397 20.0572 61.7597 18.1172 57.8797C18.1172 57.8197 18.1572 57.7397 18.1572 57.6797C20.5972 58.3997 23.1172 58.9397 25.6172 59.3597C26.0572 61.8797 26.5772 64.3797 27.2972 66.8197Z" fill="#FA9BE1"/>
<path d="M53.8781 57.8997C51.8981 61.8797 48.5981 65.0997 44.5781 67.0397C45.3381 64.4997 45.9781 61.9397 46.3981 59.3597C48.9181 58.9397 51.3981 58.3997 53.8381 57.6797C53.8181 57.7597 53.8781 57.8397 53.8781 57.8997Z" fill="#FA9BE1"/>
<path d="M54.0381 40.4209C51.5181 39.6609 48.9781 39.0409 46.3981 38.6009C45.9781 36.0209 45.3581 33.4609 44.5781 30.9609C48.7181 32.9409 52.0581 36.2809 54.0381 40.4209Z" fill="#FA9BE1"/>
<path d="M27.3009 31.1772C26.5809 33.6172 26.0609 36.0972 25.6409 38.6172C23.0609 39.0172 20.5009 39.6572 17.9609 40.4172C19.9009 36.3972 23.1209 33.0972 27.1009 31.1172C27.1609 31.1172 27.2409 31.1772 27.3009 31.1772Z" fill="#FA9BE1"/>
<path d="M42.9834 38.18C38.3434 37.66 33.6634 37.66 29.0234 38.18C29.5234 35.44 30.1634 32.7 31.0634 30.06C31.1034 29.9 31.0834 29.78 31.1034 29.62C32.6834 29.24 34.3034 29 36.0034 29C37.6834 29 39.3234 29.24 40.8834 29.62C40.9034 29.78 40.9034 29.9 40.9434 30.06C41.8434 32.72 42.4834 35.44 42.9834 38.18Z" fill="#FA9BE1"/>
<path d="M25.18 55.9834C22.42 55.4834 19.7 54.8434 17.06 53.9434C16.9 53.9034 16.78 53.9234 16.62 53.9034C16.24 52.3234 16 50.7034 16 49.0034C16 47.3234 16.24 45.6834 16.62 44.1234C16.78 44.1034 16.9 44.1034 17.06 44.0634C19.72 43.1834 22.42 42.5234 25.18 42.0234C24.68 46.6634 24.68 51.3434 25.18 55.9834Z" fill="#FA9BE1"/>
<path d="M56.0003 49.0034C56.0003 50.7034 55.7603 52.3234 55.3803 53.9034C55.2203 53.9234 55.1003 53.9034 54.9403 53.9434C52.2803 54.8234 49.5603 55.4834 46.8203 55.9834C47.3403 51.3434 47.3403 46.6634 46.8203 42.0234C49.5603 42.5234 52.3003 43.1634 54.9403 44.0634C55.1003 44.1034 55.2203 44.1234 55.3803 44.1234C55.7603 45.7034 56.0003 47.3234 56.0003 49.0034Z" fill="#FA9BE1"/>
<path d="M42.9834 59.8203C42.4834 62.5803 41.8434 65.3003 40.9434 67.9403C40.9034 68.1003 40.9034 68.2203 40.8834 68.3803C39.3234 68.7603 37.6834 69.0003 36.0034 69.0003C34.3034 69.0003 32.6834 68.7603 31.1034 68.3803C31.0834 68.2203 31.1034 68.1003 31.0634 67.9403C30.1834 65.2803 29.5234 62.5803 29.0234 59.8203C31.3434 60.0803 33.6634 60.2603 36.0034 60.2603C38.3434 60.2603 40.6834 60.0803 42.9834 59.8203Z" fill="#FA9BE1"/>
<path d="M43.5266 56.5266C38.5244 57.1578 33.4756 57.1578 28.4733 56.5266C27.8422 51.5244 27.8422 46.4756 28.4733 41.4733C33.4756 40.8422 38.5244 40.8422 43.5266 41.4733C44.1578 46.4756 44.1578 51.5244 43.5266 56.5266Z" fill="#FA9BE1"/>
</g>
<defs>
<clipPath id="clip0_4400:32728">
<rect width="148" height="148" rx="24" fill="white"/>
</clipPath>
</defs>
</svg>
